<svg width="375" height="812" viewBox="0 0 375 812" fill="none" xmlns="http://www.w3.org/2000/svg">
<g clip-path="url(#clip0)">
<rect width="375" height="812" fill="white"/>
<path d="M21.3616 819.629C0.148285 837.357 -15.1266 863.114 -27 887V221H401V614.215C366.171 695.261 271.301 742.605 184.098 761.336C125.557 773.91 67.9513 780.694 21.3616 819.629Z" fill="#F9D6D8"/>
<path d="M71.4947 437.66C23.3009 453.305 -3.90765 482.037 -28 517V132H401V303.308C399.465 315.199 393.814 330.283 384.355 339.95C373.341 351.204 359.954 361.634 345.137 369.849C322.265 382.528 295.307 389.018 269.475 397.012C244.996 404.588 221.672 409.737 195.579 413.134C152.831 418.701 111.859 424.556 71.4947 437.66Z" fill="#D9F9D6"/>
<path d="M-1.91216 308.499C-14.8146 316.19 -21.9181 327.48 -28 338V-166H401V190.39C395.125 204.637 390.875 220.293 378.616 232.831C341.902 270.378 262.43 263.386 204.294 264.514C160.367 265.367 113.606 266.497 72.4865 277.934C45.786 285.36 19.6572 295.642 -1.91216 308.499Z" fill="#D6F7F9"/>
</g>
<defs>
<clipPath id="clip0">
<rect width="375" height="812" fill="white"/>
</clipPath>
</defs>
</svg>
