<svg width="240" height="324" viewBox="0 0 240 324" fill="none" xmlns="http://www.w3.org/2000/svg">
<path fill-rule="evenodd" clip-rule="evenodd" d="M194.637 251.934C193.785 247.123 193.005 242.299 192.295 237.465C191.959 235.169 191.63 232.872 191.335 230.571C191.128 228.959 190.813 227.115 191.909 225.921C193.452 224.24 194.854 222.802 195.043 220.395C195.22 218.129 194.455 215.66 193.976 213.462C192.972 208.851 191.722 204.297 190.341 199.786C188.938 195.204 187.4 190.664 185.839 186.133C184.38 181.897 182.977 177.622 181.077 173.558C177.47 165.845 171.369 160.132 163.828 156.318C161.953 155.37 158.128 151.984 156.169 151.225C154.367 150.528 154.374 152.564 152.601 151.797C151.184 151.184 149.864 150.367 149.071 148.998C148.209 147.512 146.049 145.433 145.72 143.703C145.023 140.035 145.778 136.914 143.161 134.154C140.839 131.703 137.717 130.024 134.487 129.123C127.38 127.14 117.903 128.526 113.616 135.132C111.568 138.286 110.852 142.1 108.089 144.674C105.676 146.922 106.216 148.459 103.091 149.617C102.914 149.683 98.1169 148.654 97.9399 148.72C94.5211 147.988 91.2536 150.037 88.1171 151.225C83.4411 152.998 78.9893 155.304 74.8068 158.045C66.3732 163.573 59.15 170.752 53.195 178.874C47.1908 187.064 42.5321 196.244 39.215 205.838C38.4094 208.168 37.6858 210.527 37.0476 212.908C36.6903 214.241 36.3086 215.624 36.7436 216.988C37.0994 218.105 37.8908 218.936 38.8201 219.606C40.0799 220.514 42.6069 221.104 42.5577 222.931C42.5201 224.32 42.0491 225.781 41.8193 227.153C41.5457 228.787 41.3209 230.431 41.0961 232.073C40.0736 239.544 39.2777 247.057 38.9258 254.592C38.5793 262.011 38.2917 269.581 38.8062 276.998C38.8402 277.487 38.986 277.936 39.2211 278.315C39.0016 278.399 38.9847 278.808 39.2579 278.866C39.4493 278.907 39.6403 278.948 39.8317 278.988C40.2293 279.289 40.7251 279.474 41.2958 279.492C41.6826 279.504 42.0692 279.521 42.4556 279.541C46.5333 280.394 50.6103 281.199 54.7413 281.809C59.7627 282.551 64.7989 283.155 69.8507 283.646C80.2313 284.656 90.5302 284.321 100.925 283.777C111.303 283.234 121.675 283.107 132.064 283.377C142.462 283.648 152.857 284.1 163.257 284.285C174.877 284.492 186.478 284.174 198.064 283.25C199.653 283.124 200.636 281.859 200.322 280.281C198.445 270.825 196.318 261.431 194.637 251.934Z" fill="white"/>
<path fill-rule="evenodd" clip-rule="evenodd" d="M94.6977 148.487C95.7722 148.44 96.8679 148.614 97.9398 148.72C98.0332 148.729 98.0687 148.873 97.9635 148.895C96.045 149.296 94.1476 149.844 92.2634 150.401L91.4567 150.64C89.332 151.269 87.2696 151.918 85.2127 152.756C81.1132 154.428 77.2198 156.684 73.6365 159.275C59.8382 169.256 49.8515 184.366 43.5494 200.01C41.8379 204.259 40.3878 208.613 39.2131 213.041C38.9275 214.118 38.6588 215.199 38.404 216.284C38.3292 216.602 38.0032 217.417 38.182 217.742C38.34 218.03 38.9543 218.208 39.2398 218.357L40.2034 218.857C42.083 219.826 45.214 221.419 45.5279 221.575L46.0176 221.816C54.0269 225.744 62.5848 229.075 71.5977 229.305L71.6683 228.535C72.0701 224.278 72.5974 219.999 73.7484 215.873C73.8103 215.651 74.0924 215.726 74.1182 215.923C74.7593 220.808 74.5544 225.73 74.3307 230.637C73.9346 239.328 73.4085 248.015 72.941 256.702C72.7069 261.048 72.4044 265.392 72.1312 269.735C71.8576 274.088 71.7691 278.544 71.1443 282.861C71.0051 283.823 69.8786 284.346 69.0255 284.245C68.0816 284.132 67.3555 283.301 67.351 282.347C67.3396 279.833 67.6555 277.288 67.831 274.78C67.9977 272.397 68.1767 270.015 68.3601 267.633C69.0302 258.94 69.8011 250.257 70.5141 241.568C70.7668 238.486 71.0398 235.407 71.3208 232.328C61.7729 232.02 52.853 228.482 44.3436 224.349C44.2204 227.146 43.9229 229.939 43.635 232.725C42.8311 240.5 42.1223 248.271 41.5918 256.07C41.3239 260.009 41.1289 263.953 40.9591 267.897C40.8756 269.836 40.8076 271.775 40.7554 273.714C40.7379 274.361 40.7222 275.007 40.7082 275.654L40.6792 277.135C40.6554 278.073 40.5601 278.943 39.7707 279.626C38.9689 280.32 37.886 280.357 37.0924 279.626C36.0302 278.647 36.218 277.314 36.2495 276C36.2757 274.891 36.3072 273.783 36.3437 272.675C36.417 270.459 36.5106 268.243 36.6245 266.028C37.023 258.285 37.8191 250.573 38.8596 242.892L39.2658 239.927C40.0243 234.415 40.857 228.777 42.5527 223.468C41.8924 223.139 41.2341 222.808 40.5784 222.476C39.4151 221.887 38.2124 221.334 37.0817 220.684C36.1846 220.168 35.411 219.46 35.1612 218.416C34.8827 217.252 35.3086 215.98 35.5915 214.845L35.6161 214.745C35.8935 213.602 36.1922 212.464 36.5074 211.331C37.7856 206.737 39.3661 202.232 41.2158 197.837C44.9193 189.038 49.6996 180.679 55.5389 173.121C60.795 166.317 67.0041 160.148 74.2815 155.52C77.8392 153.258 81.6306 151.4 85.6403 150.087C87.5144 149.473 89.5536 148.939 91.5158 148.72C92.5743 148.601 93.6342 148.533 94.6977 148.487ZM113.736 134.544C115.013 133.173 117.55 134.592 116.937 136.408C115.494 140.682 113.198 144.58 109.614 147.388C106.245 150.027 102.228 151.742 97.9015 151.376C97.8681 151.373 97.8392 151.364 97.8136 151.352L98.1865 151.858C101.114 155.819 104.201 159.725 107.923 162.963C115.506 169.559 125.831 173.117 135.801 170.586C143.645 168.595 150.555 162.39 152.587 154.482C152.296 154.613 151.95 154.658 151.57 154.575C149.944 154.222 148.334 152.511 147.285 151.284C146.151 149.957 145.265 148.524 144.615 146.904C143.427 143.94 143.045 140.123 144.668 137.252C144.869 136.898 145.33 137.096 145.37 137.442L145.432 137.981C145.744 140.672 146.134 143.275 147.403 145.729C148.023 146.929 148.767 148.101 149.673 149.106C150.158 149.644 150.683 150.158 151.25 150.609C151.803 151.049 152.472 151.366 152.968 151.871L153.058 151.967L153.061 151.95C153.186 150.885 153.933 150.415 154.664 150.445C155.371 150.473 156.202 150.785 156.523 150.934L156.554 150.948C161.487 153.317 166.031 156.405 170.307 159.831C179.15 166.917 185.776 176.179 188.986 187.086C190.561 192.44 191.465 197.956 192.42 203.446L193.007 206.81C193.898 211.879 194.893 217.047 196.904 221.762C197.424 222.981 197.023 224.125 195.748 224.605C194.155 225.204 192.557 225.784 190.956 226.356C191.742 229.73 192.221 233.221 192.81 236.611C194.062 243.818 195.596 250.979 196.912 258.176C197.584 261.856 198.191 265.549 198.863 269.229C199.186 271.001 199.524 272.771 199.852 274.543C200.029 275.498 200.189 276.456 200.358 277.413L200.387 277.572C200.484 278.076 200.606 278.598 200.467 279.103C200.309 279.679 199.859 280.086 199.458 280.499C199.128 280.839 198.651 280.841 198.246 280.656L198.113 280.594C197.39 280.256 196.824 279.919 196.568 279.103C196.406 278.587 196.347 278.005 196.241 277.473C196.038 276.454 195.845 275.433 195.663 274.409C195.298 272.36 194.943 270.31 194.595 268.258L194.271 266.337C193.157 259.715 192.1 253.054 191.566 246.362C191.328 243.394 191.077 240.428 190.823 237.461L190.633 235.236C190.392 232.42 190.098 229.533 190.056 226.678L189.099 227.018L184.428 228.67C183.269 229.08 181.795 229.919 180.548 229.766C179.938 229.691 179.473 229.499 179.114 229.15C179.544 235.223 180.126 241.285 180.902 247.316C181.608 252.804 182.391 258.285 183.316 263.74C183.773 266.442 184.244 269.141 184.755 271.832C185.01 273.179 185.274 274.523 185.546 275.866C185.681 276.536 185.842 277.206 185.948 277.882C186.069 278.655 185.856 279.131 185.424 279.768C185.069 280.29 184.359 280.559 183.784 280.198C183.022 279.72 182.625 279.305 182.401 278.434C182.197 277.643 182.073 276.817 181.916 276.016C181.625 274.537 181.344 273.056 181.072 271.574C180.504 268.473 179.981 265.364 179.514 262.246C177.867 251.263 176.822 240.187 176.294 229.093C176.034 223.62 175.953 218.142 176 212.663C176.023 209.854 176.115 207.038 176.313 204.237C176.515 201.401 176.933 198.622 177.306 195.813C177.32 195.714 177.459 195.709 177.465 195.813C177.642 198.962 177.919 202.107 178.055 205.264C178.184 208.276 178.241 211.293 178.344 214.307C178.48 218.268 178.668 222.232 178.916 226.192C179.367 225.7 180.045 225.415 180.724 225.526C181.708 225.32 182.767 224.804 183.704 224.49L187.24 223.309C189.098 222.688 190.957 222.071 192.822 221.473C191.154 215.861 190.012 210.165 189.037 204.387L188.602 201.788C187.741 196.672 186.812 191.554 185.253 186.6C183.613 181.392 181.159 176.55 177.904 172.165C174.696 167.844 170.792 164.039 166.773 160.48C163.332 157.433 159.651 154.682 156.142 151.719C156.178 151.915 156.186 152.131 156.154 152.369C155.408 157.832 152.559 162.92 148.588 166.704C140.612 174.307 128.805 175.884 118.596 172.319C108.721 168.871 99.9897 160.704 96.905 150.597C96.8521 150.425 97.0837 150.356 97.1767 150.483C97.3478 150.718 97.5198 150.952 97.6919 151.187C97.6803 151.094 97.7287 150.992 97.8436 150.948C101.443 149.557 104.977 147.586 107.675 144.797C108.99 143.437 110.137 141.897 111.043 140.235C111.477 139.44 111.867 138.616 112.178 137.764L112.257 137.544C112.634 136.477 112.949 135.389 113.736 134.544Z" fill="black"/>
<path fill-rule="evenodd" clip-rule="evenodd" d="M164.804 91.3169C164.02 85.0565 161.557 78.4097 158.966 72.5733C153.14 60.2334 139.804 58.5344 127.848 55.9902C116.05 54.2719 103.556 52.7204 91.9363 56.1487C85.4037 57.7497 82.8522 65.5328 83.8832 71.6749C84.4716 75.5022 86.2131 79.1246 87.6981 82.6717C90.6497 89.9561 92.5224 97.7547 92.5255 105.641C92.3229 110.795 91.5958 116.678 97.5163 118.861C103.15 121.664 103.626 129.262 110.681 133.572C113.533 139.352 121.303 139.861 126.896 141.202C130.431 141.879 134.005 142.377 137.59 142.699C147.968 144.029 156.271 141.02 161.704 131.771C165.34 126.142 168.047 119.643 167.378 112.821C166.712 105.637 165.602 98.491 164.804 91.3169Z" fill="white"/>
<path fill-rule="evenodd" clip-rule="evenodd" d="M127.937 40.9933C128.53 40.3216 129.443 40.552 129.997 41.0831C130.357 41.1894 130.707 41.3475 131.037 41.5568C131.782 41.461 132.564 41.461 133.296 41.4879C133.473 41.3883 133.663 41.2998 133.87 41.2237C135.349 40.6828 136.659 40.9576 137.739 41.6817C138.259 41.1892 138.916 40.8802 139.755 40.9269C140.504 40.9688 141.038 41.3213 141.495 41.7857C141.951 41.1277 142.688 40.6583 143.607 40.593C144.891 40.5017 146.125 41.0168 147.148 41.8142C147.744 41.1303 148.557 40.7371 149.462 40.7333C150.058 40.6251 150.687 40.6678 151.255 40.8394C152.079 41.0886 152.804 41.5555 153.38 42.1614C154.293 41.2873 155.41 40.6583 156.698 40.75C158.365 40.8705 159.746 42.0966 160.389 43.6056C161.517 44.0577 162.558 44.7025 163.429 45.6219C163.475 45.6703 163.52 45.721 163.566 45.7719C164.035 45.945 164.477 46.1904 164.865 46.5136C166.097 47.5388 166.372 49.0225 165.964 50.4764C166.021 50.7091 166.07 50.9458 166.114 51.1823C167.267 51.3577 168.315 52.0237 168.911 53.1079C169.727 54.5958 169.566 56.5569 168.683 57.9774C168.303 58.5884 167.821 59.1033 167.28 59.5535C167.892 60.9441 167.599 62.6037 166.612 63.7285C166.371 64.1163 166.076 64.4663 165.744 64.7831C166.111 66.2209 165.459 67.7044 164.157 68.4726L164.046 68.7514C164.027 68.7977 164.008 68.8438 163.989 68.8894C163.974 68.9486 163.956 69.0059 163.939 69.0636C163.908 69.5738 163.74 70.0745 163.407 70.5462C162.724 71.513 161.878 72.1434 161.429 73.272L161.385 73.3906C161.192 73.9246 160.569 74.3015 160.038 74.1366C162.985 80.1899 164.529 86.9254 165.59 93.5263C166.119 96.8194 166.527 100.124 166.858 103.441L167.183 106.744C167.468 109.68 167.722 112.626 167.724 115.572C167.728 122.236 165.822 128.646 161.732 133.949C157.864 138.962 152.39 142.596 146.206 144.026C139.822 145.502 132.332 144.92 126.607 141.543C124.919 140.55 126.398 138.161 128.115 138.961C131.367 140.474 134.671 141.598 138.275 141.85C141.789 142.097 145.31 141.657 148.642 140.507C154.154 138.603 158.844 134.615 161.859 129.648C163.344 127.201 164.42 124.544 164.992 121.737C165.705 118.239 165.597 114.623 165.336 111.08L165.317 110.838C164.8 104.011 164.117 97.1425 163.015 90.3838C162.04 84.407 160.541 78.5513 158.595 72.8252C157.833 72.1539 156.98 71.5985 156.068 71.1767C149.386 70.8975 142.692 70.979 136.019 71.4402C130.328 71.8361 124.664 72.5058 119.043 73.482L118.441 73.5877C117.197 73.8094 115.815 73.9363 114.643 74.4374C113.637 74.8685 113.229 75.697 112.976 76.7155C112.338 79.2919 112.241 82.1115 112.133 84.7534C112.027 87.3359 112.266 89.9399 112.059 92.514C111.884 94.6676 111.332 96.872 109.737 98.4299C108.903 99.2455 107.876 99.6914 106.913 100.311C106.289 100.71 106.025 101.122 106.106 101.862C106.279 103.481 107.582 105.52 106.118 106.907C105.86 107.15 105.415 107.182 105.161 106.907C104.557 106.25 103.722 105.749 103.006 105.218C102.706 104.999 102.956 104.572 103.296 104.724C103.744 104.925 104.2 105.161 104.667 105.368C103.636 104.519 102.17 104.102 100.948 103.855C100.334 103.732 99.6872 103.696 99.0471 103.754C98.5738 103.98 98.09 104.189 97.6062 104.394C96.9914 104.652 96.3703 104.886 95.745 105.109C93.5752 106.877 92.54 109.754 92.9921 112.567C93.2393 114.12 93.9555 115.809 95.3055 116.716C96.9048 117.79 99.0471 117.329 100.775 118.126C102.394 118.871 103.378 120.379 104.115 121.938L104.423 122.588C105.107 124.026 105.811 125.425 106.746 126.734C107.827 128.249 109.152 129.61 110.597 130.779C111.298 131.345 112.045 131.854 112.818 132.317L113.029 132.442C113.81 132.901 114.37 133.338 114.423 134.308C114.44 134.647 114.227 134.955 113.952 135.131C112.769 135.881 111.592 134.943 110.608 134.287C109.545 133.581 108.529 132.787 107.589 131.92C105.801 130.276 104.255 128.323 103.065 126.203C102.159 124.589 101.644 122.317 100.211 121.065C99.3365 120.302 98.1006 120.296 97.0083 120.156C95.9921 120.026 95.0309 119.814 94.1266 119.313C90.4485 117.27 89.409 112.322 90.2816 108.499C90.4295 107.854 90.6365 107.226 90.8921 106.622C89.5231 106.85 87.9851 105.434 88.5407 104.005C88.583 103.897 88.6316 103.796 88.6781 103.692C87.7759 103.098 87.064 102.198 86.7259 101.021C86.5527 100.412 86.5274 99.7971 86.6182 99.2032C86.1809 98.9096 85.8196 98.5057 85.5872 98.0091C84.8605 97.673 84.2161 97.1702 83.8316 96.4516C83.2992 95.4602 83.3668 94.5471 83.7724 93.725C83.7154 93.6216 83.6605 93.516 83.6076 93.408C82.1182 92.4634 81.0788 90.8358 81.1971 89.0309C81.2351 88.4328 81.383 87.8938 81.6112 87.4079C81.5921 87.3466 81.5731 87.283 81.5562 87.2217C80.3097 86.5877 79.2788 85.5459 78.9112 84.1553C78.5436 82.7559 78.9767 81.361 79.8428 80.2873C78.5752 79.3597 77.8126 78.0641 78.2752 76.1047C78.4633 75.3081 78.8414 74.583 79.3527 73.9722C79.3506 73.9534 79.3464 73.9344 79.3421 73.9151L79.2235 73.8231C77.6587 72.5878 76.7591 71.0135 77.7196 69.0773C78.1506 68.2068 78.7654 67.6 79.4879 67.2005L79.5238 67.0864C79.0062 65.9768 78.8309 64.7446 79.1879 63.4491C79.4795 62.382 80.1703 61.5321 81.0534 60.968C80.9943 60.4902 81.0027 59.981 81.0978 59.4292C81.2562 58.4973 81.7189 57.6836 82.395 57.1066C82.4203 56.9839 82.452 56.8636 82.4879 56.7429C82.7161 56.0055 83.1428 55.2045 83.6372 54.6104C84.045 54.1179 84.5013 53.9383 85.059 53.9193C85.0252 53.4651 85.0485 53.0041 85.1414 52.537C85.4266 51.0958 86.3436 49.7409 87.702 49.1259C88.2597 48.8743 88.8471 48.8006 89.4133 48.8617C89.895 47.8472 90.8351 47.1119 91.9907 46.9534C92.4407 46.89 92.859 46.894 93.2436 46.9513C93.4612 46.8496 93.6872 46.7589 93.9238 46.6763C94.0802 46.6214 94.2386 46.5706 94.3971 46.5201C94.9316 45.8565 95.6351 45.3258 96.4569 45.0068C97.4055 44.637 98.371 44.6748 99.2266 44.9855L99.4992 44.9284C99.9259 44.1887 100.606 43.6159 101.652 43.356C102.839 43.0622 104.058 43.4722 104.992 44.2185C104.996 44.2185 105.001 44.2185 105.007 44.2162C105.495 43.1235 106.329 42.3626 107.73 42.4155C108.603 42.4493 109.391 42.8828 109.999 43.4999C110.337 43.4574 110.675 43.4194 111.015 43.3816C111.375 42.9608 111.774 42.5679 112.215 42.2149C112.938 41.6356 113.878 41.6823 114.41 42.4979C114.527 42.6754 114.634 42.8551 114.742 43.0347L115.23 43.0009C115.805 42.2253 116.589 41.7011 117.662 41.6591C118.646 41.6187 119.348 42.1008 119.882 42.7748C120.317 42.7642 120.755 42.756 121.192 42.7494C121.701 42.1597 122.301 41.6398 122.986 41.2087C123.51 40.879 124.283 40.9912 124.708 41.4308C124.995 41.7296 125.262 42.0416 125.51 42.3645C126.15 41.6468 127.014 41.174 127.937 40.9933ZM96.8436 108.107C97.8302 107.545 99.1569 108.154 100.112 108.632C101.276 109.213 102.432 110.09 103.144 111.189C104.113 112.685 101.834 113.894 100.813 112.552C100.186 111.726 99.6851 110.893 98.9246 110.17C98.2295 109.507 97.2217 109.063 96.8224 108.188C96.8077 108.158 96.8119 108.124 96.8436 108.107ZM97.5372 71.7868L97.5557 71.734C97.8363 70.9662 96.6118 70.6352 96.3335 71.3967C95.9118 72.5509 96.398 73.8056 97.5375 74.304C97.8534 74.4422 98.2142 74.3943 98.4046 74.0766C98.5645 73.8092 98.4903 73.346 98.1772 73.2092C97.5361 72.9287 97.3213 72.4336 97.5372 71.7868ZM86.987 69.6398C87.5999 69.0987 86.7006 68.2045 86.0906 68.7432C85.5215 69.2458 85.0994 69.9285 85.209 70.7136C85.3208 71.5138 85.9239 72.0787 86.5841 72.478C87.2839 72.9013 87.9217 71.8053 87.2239 71.383L87.1455 71.335C86.8526 71.153 86.5097 70.9028 86.4601 70.5448C86.4075 70.1643 86.7293 69.8674 86.987 69.6398ZM90.4674 60.0927L90.5109 60.0607C91.1692 59.5907 90.5368 58.4904 89.8709 58.9657C89.2604 59.4017 88.7706 59.9682 88.7191 60.7493C88.669 61.5085 89.0552 62.1666 89.5601 62.7007C90.1219 63.2948 91.0173 62.397 90.4566 61.8042C89.9102 61.2264 89.8034 60.5959 90.4674 60.0927Z" fill="black"/>
<path fill-rule="evenodd" clip-rule="evenodd" d="M143.152 128.274C141.732 127.695 140.465 126.728 139.538 125.493C139.216 125.063 139.133 124.61 139.2 124.195C139.276 123.729 139.552 123.306 139.928 123.023C140.305 122.739 140.777 122.598 141.233 122.67C141.63 122.732 142.024 122.949 142.337 123.399L142.402 123.489C142.953 124.235 143.67 124.846 144.488 125.241C145.276 125.621 146.158 125.798 147.07 125.695C148.808 125.499 150.005 124.559 151.278 123.282C151.436 123.121 151.594 122.955 151.752 122.786C151.852 122.633 151.991 122.534 152.146 122.483C152.317 122.425 152.511 122.429 152.689 122.491C152.86 122.55 153.013 122.664 153.116 122.815C153.213 122.958 153.269 123.135 153.251 123.339C153.134 124.661 152.443 125.842 151.461 126.769C150.37 127.799 148.924 128.511 147.563 128.761C146.064 129.036 144.536 128.839 143.152 128.274ZM148.271 107.866C149.866 108.836 152.297 111.098 150.581 113.503C148.56 115.624 145.652 113.193 144.219 112.093C142.89 111.241 141.396 113.433 142.629 114.428C152.987 122.099 157.19 108.12 149.078 106.726C148.184 106.572 147.853 107.566 148.271 107.866ZM129.711 98.9429C129.887 96.7541 133.219 96.257 133.551 98.423C133.847 100.363 133.498 102.145 132.624 103.892C131.79 105.561 129.692 104.783 129.533 103.263C129.32 101.226 129.601 100.304 129.711 98.9429ZM155.076 97.9738C155.541 97.3652 156.212 96.9496 157.015 97.1845C159.526 97.9185 158.786 101.485 157.904 103.22C157.425 104.163 155.876 104.402 155.176 103.572C154.036 102.219 153.489 99.5156 154.94 98.1825C154.979 98.1136 155.023 98.044 155.076 97.9738ZM132.589 89.3654L132.986 89.2959C134.213 89.0836 135.738 88.8796 136.606 89.8665C137.067 90.3898 137.225 91.3624 136.606 91.8633C135.518 92.7446 134.314 92.4031 133.01 92.4777C131.935 92.5394 130.902 92.7174 129.867 93.0135C127.595 93.663 125.744 94.8486 123.804 96.1506C123.55 96.3213 123.29 95.9956 123.411 95.7574C124.531 93.563 126.701 91.7604 128.875 90.6616C130.036 90.0751 131.305 89.5885 132.589 89.3654ZM152.787 88.3823L153.091 88.4445C156.395 89.1353 160.687 90.5153 162.251 93.7615C162.311 94.2205 162.248 94.3189 162.197 94.3832L162.18 94.4046C162.137 94.4595 162.104 94.5351 161.905 94.5976C161.85 94.5844 161.794 94.5705 161.737 94.5557C161.02 94.3677 160.453 94.1087 159.904 93.84L159.308 93.5465C158.617 93.2076 157.92 92.881 157.181 92.6399C155.605 92.1254 153.983 91.7631 152.337 91.5696C151.98 91.5277 151.636 91.4072 151.365 91.2006C151.108 91.0046 150.911 90.7332 150.821 90.3724C150.705 89.9056 150.739 89.5521 150.989 89.1309C151.177 88.8146 151.447 88.5953 151.756 88.4694C152.071 88.3411 152.43 88.3108 152.787 88.3823Z" fill="black"/>
<path fill-rule="evenodd" clip-rule="evenodd" d="M166.773 116.395C166.491 115.554 165.042 115.627 165.131 116.618C165.233 117.75 164.846 119.012 163.762 119.561C162.627 120.137 161.35 119.619 160.658 118.632C160.056 117.775 159.641 116.841 158.884 116.093C158.179 115.397 157.323 114.861 156.386 114.542C155.656 114.294 154.899 114.228 154.165 114.31C152.336 113.896 150.216 114.837 149.076 116.264C149.002 116.356 148.934 116.45 148.868 116.546C148.755 116.392 148.637 116.239 148.511 116.089C148.188 115.702 147.787 115.619 147.425 115.724C145.363 114.19 142.473 113.987 140.131 115.371C138.254 116.481 136.702 118.116 134.395 118.243C132.567 118.344 130.576 117.301 130.447 115.291C130.38 114.242 128.951 113.368 128.149 114.339C126.464 116.382 126.126 119.095 127.059 121.564C128.043 124.17 130.048 126.006 132.587 127.085C135.328 128.251 138.54 128.656 141.506 128.564C144.462 128.472 147.151 127.335 148.933 124.915C149.145 124.627 149.332 124.333 149.496 124.036C151.227 126.24 153.939 127.167 156.701 127.233C159.592 127.303 163.008 126.795 165.052 124.55C167.021 122.386 167.7 119.167 166.773 116.395Z" fill="black"/>
</svg>
