<svg width="240" height="324" viewBox="0 0 240 324" fill="none" xmlns="http://www.w3.org/2000/svg">
<path fill-rule="evenodd" clip-rule="evenodd" d="M43.0082 273.246C42.7207 273.255 42.8113 273.171 42.9169 273.151C42.9473 273.183 42.9778 273.215 43.0082 273.246ZM51.4981 279.56C59.532 280.512 67.5758 279.641 75.5701 278.767C91.7659 277.566 107.848 281.065 124.075 279.998C144.355 279.143 164.691 277.538 184.903 280.243C190.494 280.372 199.411 281.881 197.384 273.223C194.72 250.964 191.16 228.817 187.345 206.729C184.113 194.346 183.879 172.928 175.028 164.317C173.733 163.135 169.092 159.311 167.864 158.798C161.763 156.525 150.764 154.752 146.226 149.935C142.551 143.713 144.26 135.223 138.545 130.214C133.536 126.123 122.603 126.988 117.247 130.06C113.022 132.801 112.36 138.124 109.727 142.061C109.078 143.004 107.535 145.278 106.664 146.012C104.544 148.054 97.0962 150.199 94.9455 150.594C82.8088 153.082 76.7572 154.619 67.2115 162.687C42.2697 188.16 45.8053 233.214 38.9038 266.524C38.6213 270.186 36.396 275.155 40.3662 277.512C43.7855 279.151 47.806 278.973 51.4981 279.56Z" fill="white"/>
<path fill-rule="evenodd" clip-rule="evenodd" d="M143.444 141.467C143.474 141.38 143.613 141.365 143.634 141.467C143.974 143.024 144.612 144.732 145.259 146.192C145.916 147.672 146.813 149.031 147.948 150.185C150.325 152.603 153.382 153.706 156.735 153.708L156.815 153.71C156.83 153.598 156.848 153.485 156.864 153.372L156.887 153.203C157.193 150.887 159.942 150.954 160.478 152.702C160.751 152.789 161.023 152.875 161.294 152.966L161.348 152.986C161.803 153.159 163.345 153.927 163.628 153.723C164.251 153.275 164.963 153.788 165.2 154.361C165.587 155.299 165.651 156.458 165.777 157.475L165.794 157.607L165.813 157.766C174.633 160.059 179.583 168.887 182.11 177.02C183.479 181.429 184.375 185.977 185.275 190.5C186.238 195.338 187.126 200.188 188.066 205.028C189.918 214.566 191.672 224.126 193.195 233.721L193.637 236.508C195.032 245.331 196.392 254.149 197.535 263.012C198.151 267.791 198.73 272.574 199.288 277.361C199.388 278.214 199.487 279.068 199.585 279.923L199.732 281.205C199.863 282.355 200.085 283.492 199.516 284.568C198.285 286.901 194.554 286.884 194.342 283.896C194.3 283.302 194.501 282.847 194.832 282.53L194.828 282.48C194.825 282.45 194.821 282.428 194.82 282.418C194.71 281.824 194.68 281.197 194.613 280.596C194.465 279.316 194.321 278.035 194.175 276.752C193.894 274.309 193.611 271.866 193.318 269.425C192.724 264.473 192.097 259.527 191.431 254.586L190.772 249.7C188.566 233.414 186.267 217.131 183.242 200.974C182.418 196.576 181.571 192.184 180.703 187.795C179.879 183.637 178.954 179.499 177.572 175.486C175.316 168.93 171.371 162.79 165.895 158.487C165.98 159.309 166.041 160.135 166.119 160.957C166.32 163.069 166.533 165.178 166.749 167.287C167.532 174.93 168.595 182.56 170.408 190.033C171.306 193.736 172.4 197.39 173.733 200.96C174.39 202.718 175.106 204.453 175.892 206.157C176.67 207.841 178.033 209.642 178.115 211.519C178.153 212.387 177.244 213.159 176.404 213.066C176.797 216.524 177.018 220.017 177.253 223.466C177.595 228.462 177.868 233.467 178.267 238.46C178.981 247.402 179.877 256.331 180.815 265.252C181.001 267.021 181.203 268.788 181.403 270.555L181.57 272.039C181.683 273.001 181.853 274.153 181.343 275.006C181.799 276.107 182.112 277.238 182.294 278.417C182.524 279.884 181.686 281.529 179.974 281.465C179.78 281.459 179.585 281.442 179.391 281.421C177.804 281.788 176.222 282.112 174.574 282.122C172.47 282.137 170.361 282.095 168.257 282.08C164.186 282.053 160.115 282.025 156.044 281.991C141.306 281.873 126.561 281.879 111.825 281.643L105.93 281.549C100.524 281.462 95.1187 281.362 89.7163 281.165C85.9959 281.03 82.2756 280.892 78.5571 280.742L77.8001 280.713C74.5191 280.594 71.2343 280.532 67.9895 280.03C67.9082 280.016 67.873 279.932 67.8856 279.858L67.8902 279.838L67.7487 279.806C67.6663 280.161 65.955 278.669 65.9677 277.678C65.2578 276.754 65.5895 275.279 65.6656 274.209C65.7395 273.168 65.8325 272.123 65.9149 271.081C66.0902 268.856 66.2402 266.628 66.4198 264.403C67.1444 255.429 67.7698 246.432 68.1754 237.439C68.3804 232.905 68.5451 228.37 68.7184 223.836C68.7964 221.772 68.905 219.706 69.1074 217.652L69.1599 217.138C69.3818 215.055 69.3606 212.814 70.1275 210.851C70.1381 210.823 70.174 210.823 70.1846 210.851C70.9599 212.761 71.0339 214.983 71.1902 217.079C71.2177 217.071 71.2451 217.067 71.2747 217.06C72.3459 216.551 73.4275 216.092 74.4416 215.463C74.5789 215.378 74.712 215.289 74.8473 215.203C76.4423 210.32 78.2909 205.519 79.9916 200.668C85.4867 184.984 88.5205 168.281 89.1923 151.673C85.0008 154.376 80.4358 156.479 75.9981 158.737L75.5825 158.95C71.2113 161.186 67.0261 163.724 63.9142 167.602C61.2015 170.98 59.429 175.095 57.7705 179.062C55.9895 183.325 54.3839 187.664 52.9156 192.043C49.9367 200.928 47.6297 210.031 45.8297 219.227C44.0529 228.302 42.7832 237.445 41.9339 246.652C41.5008 251.348 41.1057 256.048 40.774 260.755C40.605 263.137 40.455 265.521 40.3156 267.907C40.248 269.065 40.1973 270.226 40.1212 271.384C40.0747 272.052 40.0663 272.74 39.8466 273.374C39.6628 273.903 39.3374 274.345 39.0332 274.812C38.4775 275.664 37.0747 275.818 36.5529 274.812L36.3269 274.376C36.0278 273.796 35.7547 273.211 35.7142 272.542C35.6761 271.908 35.7543 271.246 35.7902 270.61C35.8599 269.323 35.9402 268.034 36.0205 266.747C36.1895 264.039 36.3775 261.332 36.5888 258.627C37.0092 253.208 37.5501 247.803 38.2304 242.41C40.624 223.466 44.0804 204.622 50.6761 186.645C52.3071 182.2 54.1261 177.791 56.1797 173.524C58.1656 169.399 60.6775 165.504 64.324 162.663C67.6806 160.048 71.5824 158.297 75.4593 156.598L75.9437 156.386C80.2895 154.486 84.6268 152.44 89.1649 151.028C89.0635 151.041 88.9642 151.054 88.8778 151.083C88.7782 151.115 88.7193 150.986 88.7806 150.916C89.0381 150.631 89.1459 150.337 89.4418 150.056C89.6462 149.862 89.8588 149.678 90.0774 149.501L90.3921 149.25C90.9678 148.793 91.5732 148.326 92.298 148.167C93.3228 147.942 93.8256 148.875 93.5381 149.604C93.686 149.411 94.0832 149.468 94.1867 149.733C97.5585 158.432 99.7726 167.64 104.311 175.86C107.661 181.932 112.157 187.539 118.123 191.206C121.328 193.176 124.996 194.689 128.784 194.928C132.185 195.141 135.458 194.277 138.35 192.491C143.957 189.031 147.619 182.957 150.23 177.071C153.101 170.591 155.15 163.686 156.354 156.686C152.539 156.739 148.512 154.997 145.975 152.159C144.64 150.665 143.644 148.845 143.14 146.905C142.63 144.948 142.793 143.339 143.444 141.467ZM111.434 136.384C111.899 135.553 112.93 135.278 113.773 135.616C114.709 135.993 114.99 136.902 114.857 137.825C114.703 138.907 114.008 140.076 113.467 141.021C112.901 142.01 112.172 142.921 111.417 143.772C109.998 145.379 108.479 146.827 106.677 148.01C104.883 149.187 102.855 150.069 100.77 150.561L100.274 150.677C98.6521 151.048 96.3446 151.473 94.9935 150.591C94.9282 150.548 94.9301 150.462 94.9935 150.419C95.7245 149.91 96.7029 149.819 97.5435 149.579C98.4604 149.314 99.3797 149.014 100.256 148.638C101.987 147.894 103.643 146.913 105.117 145.742C106.599 144.567 108.031 143.166 109.022 141.549C109.521 140.738 109.945 139.886 110.353 139.028C110.765 138.167 110.972 137.212 111.434 136.384Z" fill="black"/>
<path fill-rule="evenodd" clip-rule="evenodd" d="M170.447 115.556C166.878 99.3688 166.182 81.5917 156.761 67.4575C152.644 61.6942 146.029 54.179 138.302 56.5476C138.62 53.1349 138.921 49.7208 139.199 46.3045C139.358 44.3503 140.089 41.7467 138.436 40.2442C135.707 38.0394 131.188 41.4132 129.079 43.2982C124.508 47.6762 122.704 51.9283 116.684 54.8521C114.271 53.1317 111.919 51.3266 109.47 49.6527C106.974 47.9471 103.404 45.1765 100.814 48.3252C98.6189 50.9941 100.021 55.2011 100.892 58.1376C101.337 59.6394 101.779 61.2787 102.398 62.8232C102.45 63.9973 102.541 65.1692 102.674 66.3377C98.2145 67.1316 93.625 67.7994 89.3643 69.3573C87.0408 70.6163 87.2457 73.4757 88.8941 75.1872C91.3608 77.5769 94.4823 79.4457 97.89 80.7001C97.2712 82.8423 95.7879 84.6589 93.9229 85.8466C93.2973 86.2433 92.9464 86.8252 92.8194 87.4459C91.8634 87.9213 90.8398 88.2641 89.7586 88.4866C88.425 88.762 87.6546 90.3366 87.9983 91.588C88.9667 94.6293 92.3795 92.8909 94.5966 92.6762C94.6634 94.8001 94.698 97.0131 95.662 98.9806C90.5094 100.333 86.0457 105.266 87.2371 110.823C88.3192 116.135 94.0515 117.759 98.5891 118.966C98.9329 119.168 98.9318 119.367 99.041 119.869C99.7898 123.313 99.1593 127.102 97.979 130.371C97.6572 131.262 98.13 132.378 98.8448 132.912C102.54 135.266 103.765 128.098 107.978 132.661C107.663 132.613 106.881 132.222 106.921 132.789C112.386 142.383 128.523 142.973 138.409 143.209C139.596 143.786 140.962 143.459 142.319 143.09C143.614 143.02 144.907 142.923 146.197 142.791C148.553 142.366 152.696 142.87 152.844 139.551C158.927 137.15 164.158 133.003 167.725 127.508C170.371 123.862 171.416 120.002 170.447 115.556Z" fill="white"/>
<path fill-rule="evenodd" clip-rule="evenodd" d="M133.554 39.0315L133.909 38.8764C135.134 38.346 136.471 37.8374 137.811 38.1274C139.355 38.4613 140.248 39.7896 140.63 41.2378C141.072 42.913 141.27 44.6961 141.391 46.4203C141.517 48.206 141.468 49.9879 141.334 51.7709C141.222 53.2619 140.99 54.9899 140.435 56.4351C140.459 56.414 140.487 56.3984 140.521 56.3948C142.704 56.171 144.717 56.3014 146.802 57.0049C148.745 57.6603 150.628 58.5799 152.319 59.7417C155.97 62.2509 158.795 66.0404 160.764 69.9637C164.762 77.9343 165.606 86.9511 166.727 95.6676L166.761 95.9317C167.363 100.593 168.165 105.183 169.449 109.705L169.671 110.475C170.85 114.612 171.554 118.636 170.614 122.918C168.796 131.199 162.385 137.449 154.97 141.057C151.184 142.899 147.088 144.258 142.951 145.042C138.707 145.846 134.114 145.981 130.244 143.785C128.326 142.696 130.015 139.915 131.954 140.859C135.955 142.807 140.489 142.166 144.642 141.094C148.773 140.029 152.825 138.537 156.485 136.322C162.766 132.52 168.051 125.956 168.224 118.334C168.322 114.045 166.49 109.95 165.606 105.809C164.828 102.16 164.345 98.458 163.889 94.7561L163.551 92.0063C162.57 84.1203 161.342 76.002 157.294 69.0323C153.72 62.8801 147.565 57.9879 140.481 56.6867C140.439 56.679 140.41 56.6585 140.394 56.6325C140.177 57.7998 138.891 58.8883 138.068 59.56C136.902 60.5123 135.489 61.2024 133.952 61.1715C130.989 61.1121 128.445 58.8133 126.414 56.8881C126.185 56.6712 126.433 56.3686 126.693 56.4079C129.05 56.7627 131.071 58.6786 133.488 58.6501C134.731 58.6353 135.684 57.9679 136.496 57.0804C136.799 56.7486 137.066 56.3481 137.354 55.9799C137.425 55.0128 137.699 54.0644 137.822 53.1017C137.936 52.2035 138.034 51.2915 138.092 50.3865C138.21 48.5397 138.173 46.6792 137.969 44.8394C137.881 44.0497 137.77 43.2527 137.598 42.475L137.517 42.1245C137.41 41.6427 137.34 41.2038 136.758 41.2532C135.464 41.3627 134.017 42.1525 132.885 42.7485C128.498 45.0601 125.308 48.6342 122.953 52.8331C123.101 52.9071 123.242 53.0045 123.374 53.1313C123.64 53.3864 123.776 53.8358 123.654 54.1915C123.184 55.5661 121.513 55.6062 120.338 56.1445C119.056 56.7308 117.853 57.4845 116.713 58.31C114.47 59.9349 112.409 61.8438 110.45 63.7965C107.363 66.8712 104.497 70.1435 101.729 73.5008L101.14 74.817C100.552 76.1329 99.9773 77.4532 99.5015 78.8239C98.727 81.0528 98.0782 83.3314 97.5794 85.6378C97.0774 87.9593 96.7501 90.334 96.6261 92.706C96.5154 94.8225 96.7962 96.9375 96.7844 99.0417C96.9724 99.3936 97.0404 99.7903 96.9519 100.195C97.5439 100.362 98.1172 100.618 98.6558 100.97C98.787 101.056 98.7037 101.262 98.5489 101.224C97.866 101.056 97.183 101.018 96.5141 101.083C96.1592 101.521 95.5846 101.8 95.027 101.788L94.7891 101.782C94.6149 101.779 94.442 101.751 94.2751 101.703C93.3341 102.137 92.4684 102.762 91.7355 103.508C89.9733 105.303 89.1223 107.654 89.2474 110.166C89.3712 112.644 90.6903 114.878 92.8753 116.068C93.8498 116.599 94.9328 116.879 96.0407 116.899C97.1065 116.918 98.5053 116.594 99.381 117.289C99.4795 117.367 99.5444 117.471 99.5843 117.586C99.6453 117.328 99.7102 117.071 99.781 116.814C99.8351 116.618 100.161 116.596 100.201 116.814L100.252 117.1C100.986 121.238 101.244 125.498 104.159 128.81C105.523 130.359 107.167 131.757 108.853 132.943L109.132 133.137C109.853 133.635 110.631 134.118 111.49 134.298C112.445 134.498 113.234 134.443 114.111 134.968C114.524 135.215 114.777 135.76 114.625 136.233C113.652 139.266 109.814 137.903 107.879 136.704C106.804 136.037 105.757 135.232 104.784 134.344C103.936 134.861 102.929 135.194 102.063 135.324C100.728 135.524 99.3107 135.246 98.2465 134.384C97.1207 133.471 96.7356 132.144 96.9268 130.735C97.0219 130.034 97.2037 129.35 97.3996 128.671L97.5616 128.116C97.7978 127.309 97.9825 126.475 98.4587 125.769C98.6991 125.414 99.2697 125.447 99.3933 125.892C99.6762 126.909 99.5538 128.057 99.4805 129.117L99.4647 129.36C99.4167 130.157 99.0772 131.379 99.7757 131.97C100.617 132.681 101.538 132.356 102.433 131.866C102.342 131.755 102.252 131.643 102.163 131.53C99.2648 127.845 98.544 123.257 99.3379 118.772C98.5898 119.754 96.6398 119.966 95.6051 119.89C93.9804 119.77 92.3818 119.276 90.9979 118.408C88.0996 116.589 86.4694 113.399 86.4001 110.006C86.3325 106.711 87.8061 103.378 90.5234 101.46C91.2413 100.953 92.0399 100.559 92.8736 100.3C92.4684 98.6902 92.4255 96.9119 92.5134 95.1719C91.5413 95.3042 90.489 95.1323 89.6101 94.8331L89.4737 94.7854C88.1192 94.3 86.3989 93.3246 86.1453 91.8021C85.8331 89.9295 88.1431 88.8533 89.4834 88.1054C90.1103 87.7557 90.7513 87.4285 91.4168 87.1585L91.6172 87.0793C92.1916 86.8582 92.8679 86.4458 93.451 86.7743C93.4926 86.7977 93.5027 86.8423 93.4966 86.8861C93.3813 87.6987 92.0498 88.3903 91.4579 88.9028C91.0032 89.2961 90.5638 89.7078 90.1421 90.1366C89.8687 90.4148 89.4576 91.1175 89.1069 91.3147C89.2698 91.3999 89.465 91.6095 89.601 91.6901C89.9843 91.916 90.3884 92.0754 90.8209 92.1785C91.4638 92.3324 92.1077 92.2664 92.7515 92.2518C93.0128 89.689 93.4873 87.1822 94.2513 84.7202C95.5326 80.5895 97.6328 76.238 100.629 72.9725C102.826 68.8549 105.664 65.094 108.904 61.7307C110.983 59.5739 113.179 57.4811 115.614 55.7286C116.694 54.9517 117.829 54.2518 119.034 53.6878L119.435 53.5041C120.104 53.1944 120.918 52.7924 121.694 52.6773C122.196 50.6847 123.09 48.779 124.175 47.0516C125.67 44.6716 127.637 42.6642 129.94 41.0603C131.076 40.2685 132.286 39.5878 133.554 39.0315ZM93.6164 108.433C95.548 107.135 97.917 106.627 100.225 106.819C101.37 106.914 102.503 107.183 103.576 107.593L104.018 107.768C105.043 108.179 106.143 108.686 106.18 109.926C106.195 110.416 105.832 110.806 105.395 110.958C104.328 111.329 103.464 110.44 102.583 109.968C101.694 109.49 100.749 109.175 99.7751 108.92C99.6817 108.896 99.5881 108.873 99.4947 108.851C99.5454 108.953 99.5742 109.065 99.5642 109.186C99.5402 109.476 99.4559 109.692 99.3739 109.964C99.3492 110.046 99.289 110.549 99.2273 110.612C99.2473 110.783 99.2495 110.945 99.2547 111.117C99.2695 111.626 99.2068 112.056 98.9469 112.507C98.2996 113.63 96.4491 113.734 95.8295 112.507C95.2098 111.281 95.694 110.081 96.6357 109.199C96.8923 108.959 97.2346 108.714 97.6064 108.546C96.3008 108.427 94.9806 108.483 93.6762 108.655C93.549 108.672 93.5296 108.492 93.6164 108.433ZM93.7319 67.2946C96.3812 66.844 99.148 66.7542 101.822 67.0207C101.968 67.0355 102.022 67.2574 101.859 67.2931C97.7929 68.1861 93.5781 68.4878 89.9505 70.7248L89.7835 70.8294C89.4354 71.0509 88.607 71.4692 88.4346 71.8631C88.2311 72.3281 88.7821 72.9258 89.0384 73.2614C89.6145 74.0151 90.3303 74.673 91.1204 75.1966C91.9551 75.7495 92.8526 76.1762 93.8179 76.4456C94.2763 76.5737 94.7519 76.6388 95.2051 76.7846C95.721 76.9503 95.8875 77.2147 96.2783 77.5603C96.7287 77.9581 96.5775 78.7215 96.0918 79.007L95.9554 79.0863C95.3172 79.4517 94.9624 79.5593 94.1517 79.4164C93.5175 79.3044 92.9118 79.0827 92.3181 78.8362C91.2274 78.3831 90.2319 77.7899 89.3133 77.0512L89.1761 76.9394C87.5359 75.5829 84.7566 72.616 86.5873 70.456C88.203 68.55 91.3782 67.6949 93.7319 67.2946ZM100.257 46.7439C102.797 43.7495 106.386 45.7941 108.932 47.5845C111.676 49.5137 114.057 51.7893 115.982 54.5388C116.105 54.7135 115.868 54.9262 115.698 54.8234C113.563 53.5361 111.407 52.3037 109.217 51.1107C108.318 50.6208 107.418 50.1427 106.498 49.695L106.007 49.4584C105.238 49.079 104.135 48.3868 103.316 48.8382C101.549 49.8123 102.64 53.0027 103.004 54.5479L103.037 54.6937L104.147 59.7786L104.653 62.0679C104.833 62.2137 104.982 62.4088 105.088 62.6603C105.375 63.3402 105.141 64.2588 104.448 64.6155C102.403 65.6685 101.71 63.612 101.325 62.0666C101.012 60.8112 100.696 59.5565 100.379 58.3021L99.8546 56.2291C99.0517 53.0909 97.9118 49.507 100.257 46.7439Z" fill="black"/>
<path fill-rule="evenodd" clip-rule="evenodd" d="M143.152 128.274C141.732 127.695 140.465 126.728 139.538 125.493C139.216 125.063 139.133 124.61 139.2 124.195C139.276 123.729 139.552 123.306 139.928 123.023C140.305 122.739 140.777 122.598 141.233 122.67C141.63 122.732 142.024 122.949 142.337 123.399L142.402 123.489C142.953 124.235 143.67 124.846 144.488 125.241C145.276 125.621 146.158 125.798 147.07 125.695C148.807 125.499 150.005 124.559 151.278 123.282C151.436 123.121 151.593 122.955 151.752 122.786C151.852 122.633 151.991 122.534 152.146 122.483C152.317 122.425 152.511 122.429 152.689 122.491C152.86 122.55 153.013 122.664 153.116 122.815C153.213 122.958 153.269 123.135 153.251 123.339C153.134 124.661 152.443 125.842 151.461 126.769C150.37 127.799 148.924 128.511 147.563 128.761C146.064 129.036 144.536 128.839 143.152 128.274ZM148.271 107.866C149.866 108.836 152.297 111.098 150.581 113.503C148.56 115.624 145.652 113.193 144.218 112.093C142.889 111.241 141.396 113.433 142.629 114.428C152.986 122.099 157.19 108.12 149.077 106.726C148.184 106.572 147.853 107.566 148.271 107.866ZM129.711 98.9429C129.887 96.7541 133.219 96.257 133.551 98.423C133.847 100.363 133.498 102.145 132.624 103.892C131.79 105.561 129.692 104.783 129.533 103.263C129.32 101.226 129.601 100.304 129.711 98.9429ZM155.076 97.9738C155.541 97.3652 156.211 96.9496 157.015 97.1845C159.526 97.9185 158.786 101.485 157.904 103.22C157.425 104.163 155.876 104.402 155.176 103.572C154.035 102.219 153.489 99.5156 154.939 98.1825C154.979 98.1136 155.022 98.044 155.076 97.9738ZM132.589 89.3654L132.986 89.2959C134.213 89.0836 135.738 88.8796 136.606 89.8665C137.067 90.3898 137.225 91.3624 136.606 91.8633C135.518 92.7446 134.314 92.4031 133.01 92.4777C131.935 92.5394 130.902 92.7174 129.867 93.0135C127.595 93.663 125.744 94.8486 123.804 96.1506C123.549 96.3213 123.29 95.9956 123.411 95.7574C124.531 93.563 126.701 91.7604 128.875 90.6616C130.036 90.0751 131.305 89.5885 132.589 89.3654ZM152.787 88.3823L153.091 88.4445C156.394 89.1353 160.687 90.5153 162.251 93.7615C162.311 94.2205 162.248 94.3189 162.196 94.3832L162.179 94.4046C162.137 94.4595 162.104 94.5351 161.905 94.5976C161.849 94.5844 161.794 94.5705 161.737 94.5557C161.02 94.3677 160.453 94.1087 159.904 93.84L159.308 93.5465C158.617 93.2076 157.92 92.881 157.181 92.6399C155.605 92.1254 153.983 91.7631 152.337 91.5696C151.98 91.5277 151.636 91.4072 151.365 91.2006C151.107 91.0046 150.911 90.7332 150.821 90.3724C150.705 89.9056 150.738 89.5521 150.989 89.1309C151.177 88.8146 151.446 88.5953 151.756 88.4694C152.071 88.3411 152.43 88.3108 152.787 88.3823Z" fill="black"/>
<path fill-rule="evenodd" clip-rule="evenodd" d="M166.773 116.395C166.491 115.554 165.042 115.627 165.131 116.618C165.233 117.75 164.846 119.012 163.762 119.561C162.627 120.137 161.35 119.619 160.658 118.632C160.056 117.775 159.641 116.841 158.884 116.093C158.18 115.397 157.323 114.861 156.386 114.542C155.656 114.294 154.899 114.228 154.165 114.31C152.336 113.896 150.216 114.837 149.076 116.264C149.002 116.356 148.934 116.45 148.868 116.546C148.755 116.392 148.637 116.239 148.511 116.089C148.188 115.702 147.787 115.619 147.425 115.724C145.363 114.19 142.473 113.987 140.131 115.371C138.255 116.481 136.702 118.116 134.395 118.243C132.567 118.344 130.576 117.301 130.448 115.291C130.38 114.242 128.951 113.368 128.149 114.339C126.464 116.382 126.127 119.095 127.059 121.564C128.043 124.17 130.048 126.006 132.587 127.085C135.328 128.251 138.541 128.656 141.506 128.564C144.463 128.472 147.151 127.335 148.933 124.915C149.146 124.627 149.333 124.333 149.496 124.036C151.227 126.24 153.939 127.167 156.702 127.233C159.592 127.303 163.008 126.795 165.052 124.55C167.021 122.386 167.701 119.167 166.773 116.395Z" fill="black"/>
</svg>
