<svg width="240" height="324" viewBox="0 0 240 324" fill="none" xmlns="http://www.w3.org/2000/svg">
<path fill-rule="evenodd" clip-rule="evenodd" d="M192.796 271.477C192.283 266.715 191.968 261.919 191.786 257.133C191.605 252.353 191.842 247.514 191.946 242.732C192.158 233.003 192.502 223.252 191.728 213.539C190.996 204.359 189.317 195.243 186.666 186.422C185.375 182.127 184.015 177.658 181.892 173.689C179.757 169.698 176.375 167.041 172.661 164.604C168.706 162.009 164.783 159.365 160.844 156.746C157.537 154.548 151.586 151.989 148.873 149.051C146.018 145.958 145.482 138.293 143.58 134.63C141.729 131.062 136.488 128.735 132.452 128.735C125.772 128.735 120.711 128.393 115.219 134.574C112.478 137.659 114.659 140.777 111.786 143.737C109.146 146.458 102.392 149.255 98.9881 150.834C94.9115 152.726 90.732 154.396 86.4918 155.883C82.1666 157.401 77.7323 158.532 73.3827 159.964C69.2135 161.336 63.7695 166.995 60.5329 169.988C57.5238 172.772 56.7771 172.46 54.4894 175.841C49.4689 183.262 44.4428 190.768 40.4448 198.803C38.4534 202.805 36.5251 207.015 35.8026 211.459C35.0319 216.2 35.7961 220.781 37.0459 225.371C38.3182 230.042 42.3582 234.489 43.6744 239.149C44.281 241.296 42.199 243.639 43.1566 245.662C43.6349 246.673 44.2373 247.572 44.923 248.453C45.4514 249.131 47.512 248.981 47.7786 249.811C48.048 250.65 46.5572 252.39 46.535 253.258C46.5035 254.501 46.4541 255.743 46.4133 256.985L46.1725 264.328C46.0142 269.154 45.856 273.979 45.6978 278.805C45.646 280.38 45.5706 281.919 45.9481 283.414C45.8118 283.287 45.6823 283.15 45.564 282.995C45.2178 282.543 44.4834 282.926 44.7773 283.456C45.2678 284.338 45.9732 284.96 46.8021 285.406C47.7652 286.827 193.629 289.999 194.347 285.846C194.75 283.516 194.017 281.022 193.724 278.706C193.419 276.295 193.056 273.894 192.796 271.477Z" fill="white"/>
<path fill-rule="evenodd" clip-rule="evenodd" d="M44.6256 211.468C44.9824 210.445 46.6146 210.888 46.2553 211.917C44.408 217.21 45.7184 222.971 47.7156 228.024C48.1163 229.038 46.4811 229.473 46.0858 228.473C43.985 223.158 42.6853 217.027 44.6256 211.468ZM57.0122 241.704C62.222 242.437 67.4361 242.889 72.6819 243.255C72.9164 243.272 73.1192 243.236 73.2946 243.16C73.1382 245.563 73.0115 247.968 72.9122 250.373C71.4819 250.333 70.022 250.428 68.6044 250.39C66.7516 250.339 64.9009 250.246 63.0523 250.105C59.4734 249.834 55.9009 249.403 52.3622 248.807C51.0396 248.585 49.36 248.45 47.8537 248.01C46.4298 247.594 45.1622 246.905 44.4967 245.607C43.9305 244.508 43.8269 243.162 43.8269 241.947C43.8269 241.11 43.9706 240.26 44.0572 239.417C44.165 239.341 44.2622 239.25 44.3403 239.149C45.9122 239.645 47.5431 239.994 49.1403 240.332C51.741 240.886 54.3798 241.334 57.0122 241.704ZM54.0737 222.162C54.1024 223.777 54.5492 225.244 55.4186 226.604C56.0068 227.525 54.5433 228.372 53.9592 227.458C52.9358 225.856 52.4173 224.059 52.3835 222.162C52.3641 221.071 54.0542 221.075 54.0737 222.162ZM187.622 239.784C188.327 239.824 189.037 239.848 189.745 239.886C190.369 240.42 191.233 240.693 192.022 240.523C192.049 240.592 192.074 240.668 192.096 240.757C192.236 241.3 192.306 241.883 192.386 242.437C192.466 242.982 192.527 243.532 192.57 244.081C192.591 244.358 192.724 244.984 192.555 245.225C192.403 245.442 192.067 245.423 191.834 245.451C191.209 245.518 190.575 245.55 189.946 245.603C188.756 245.707 187.567 245.81 186.38 245.914C185.215 246.015 183.937 245.984 182.799 246.29C182.604 244.005 182.427 241.721 182.262 239.434C184.026 239.694 185.87 239.687 187.622 239.784ZM39.7092 235.995C40.4191 237.367 41.074 238.715 42.4325 239.539C42.6099 239.645 42.8085 239.702 43.0113 239.717C42.8592 240.37 42.7641 241.038 42.6796 241.655C42.4937 243.014 42.4536 244.419 42.7937 245.759C43.1254 247.063 43.6747 248.228 44.7522 249.063C45.2529 249.452 45.8001 249.748 46.3747 249.982C46.2775 250.255 46.2205 250.526 46.2501 250.824C46.1127 251.514 46.0219 252.218 45.9226 252.892C45.705 254.389 45.4874 255.887 45.3163 257.392C44.974 260.385 44.7057 263.378 44.4796 266.381C44.2536 269.376 44.0909 272.375 43.9557 275.376C43.886 276.91 43.8247 278.445 43.7677 279.981C43.7106 281.56 43.455 283.175 44.1522 284.64C44.7141 285.823 46.6134 285.755 47.1965 284.64C47.936 283.221 47.7184 281.537 47.7374 279.981C47.7564 278.517 47.7818 277.05 47.8134 275.585C47.8768 272.586 47.9698 269.589 48.0437 266.59C48.1156 263.663 48.2043 260.738 48.2634 257.811C48.293 256.278 48.2951 254.746 48.3036 253.214C48.3078 252.364 48.3437 251.458 48.2803 250.572C48.8085 250.696 49.3409 250.802 49.867 250.91C53.8832 251.734 57.9416 252.334 62.0254 252.706C64.0768 252.892 66.1346 253.023 68.1923 253.098C69.705 253.152 71.2726 253.258 72.8085 253.201C72.6881 256.87 72.6332 260.541 72.6395 264.213C72.6437 266.861 72.6796 269.509 72.7451 272.157C72.781 273.55 72.8106 274.943 72.8529 276.335C72.8719 276.961 72.8719 277.593 72.9142 278.216C72.9268 278.411 72.9543 278.599 72.9902 278.785C72.8508 279.18 72.7346 279.571 72.6395 279.937C72.1747 281.712 72.1747 283.418 72.3818 285.227C72.5592 286.761 73.8501 288.184 75.555 287.645C75.8318 287.558 76.1085 287.467 76.3832 287.374C78.893 287.66 81.4177 287.725 83.9634 287.774C87.6839 287.846 91.4064 287.869 95.1289 287.888C102.43 287.926 109.734 287.945 117.037 287.966C131.714 288.008 146.391 288.048 161.068 288.091C165.141 288.104 169.214 288.114 173.287 288.127C175.396 288.133 177.5 288.135 179.606 288.216C180.589 288.254 181.573 288.306 182.556 288.321C183.694 288.34 184.702 288.012 185.79 287.715C186.405 287.543 186.648 286.926 186.517 286.404C187.501 286.639 188.695 286.14 189.031 285.031C189.276 284.225 189.185 283.352 188.82 282.606V282.604C188.114 278.147 187.218 273.71 186.515 269.251C185.744 264.367 185.002 259.472 184.349 254.569C183.859 250.866 183.456 253.491 183.107 249.771C184.626 249.889 186.344 249.426 187.848 249.23C188.928 249.09 190.016 248.978 191.097 248.83C191.017 249.921 191.04 251.033 191.011 252.079C190.954 254.156 190.979 256.225 191.032 258.303C191.133 262.312 191.359 259.979 191.72 263.971C192.086 267.993 192.534 272.001 193.077 276.004C193.356 278.064 193.654 280.123 193.968 282.179C194.114 283.139 194.264 284.096 194.418 285.056C194.602 286.186 194.661 287.258 195.509 288.108C196.153 288.752 197.469 288.697 197.896 287.799C198.437 286.664 198.192 285.692 197.991 284.5C197.828 283.542 197.672 282.585 197.518 281.628C197.188 279.575 196.875 277.521 196.582 275.465C196.016 271.502 195.481 267.533 195.004 263.559C194.522 259.554 194.023 261.894 193.55 257.889C193.311 255.868 193.073 253.852 192.794 251.838C192.652 250.802 192.563 249.699 192.378 248.632C192.437 248.623 192.496 248.613 192.555 248.602C193.84 248.367 194.936 247.642 195.259 246.319C195.568 245.053 195.2 243.597 194.94 242.355C194.718 241.296 194.518 239.945 193.837 239.038C196.237 235.98 197.798 232.132 198.794 228.432C199.878 224.401 200.332 220.194 200.428 216.029C200.54 211.203 200.176 206.406 199.35 201.687C199.33 200.687 199.284 199.688 199.21 198.69C198.483 188.892 195.432 177.295 185.761 172.717C185.723 172.698 185.682 172.681 185.642 172.664C184.884 171.757 183.937 170.941 183.173 170.179C181.818 168.826 180.403 167.532 178.903 166.34C175.932 163.98 172.675 162.094 169.288 160.397C165.863 158.679 162.388 157.066 159.042 155.192C156.126 153.556 153.502 151.586 151.011 149.362C148.212 146.862 146.22 143.491 145.438 139.812C145.398 139.619 145.113 139.672 145.109 139.856C144.904 146.6 149.454 152.56 154.692 156.331C160.954 160.835 168.515 162.967 174.866 167.334C176.444 168.418 177.92 169.642 179.325 170.941C177.173 170.722 174.982 170.861 172.964 171.457C172.17 171.408 171.371 171.394 170.575 171.356C168.754 171.265 166.93 171.18 165.107 171.1C161.391 170.935 157.673 170.785 153.954 170.654C146.659 170.396 139.362 170.202 132.065 170.073C117.401 169.813 102.718 169.762 88.0557 170.187C84.0796 170.301 63.1726 169.509 61.2374 169.732C64.0832 167.268 67.2057 165.256 70.6388 163.601C74.9339 161.536 79.3726 160.158 83.9592 158.899C93.405 156.305 103.214 153.805 110.773 147.217C112.651 145.579 114.32 143.696 115.687 141.61C116.993 139.619 118.444 137.07 118.48 134.642C118.506 132.918 116.106 132.29 115.252 133.767C114.722 134.682 114.46 135.686 114.027 136.646C113.596 137.597 113.085 138.514 112.516 139.391C111.399 141.116 110.013 142.654 108.504 144.043C105.289 147.006 101.393 149.177 97.362 150.819C88.2099 154.545 78.2001 156.117 69.5275 161.029C65.7332 163.178 62.1015 166.144 59.8219 169.927C59.4543 169.984 59.0888 170.052 58.7233 170.128C58.9958 169.783 59.2705 169.439 59.5472 169.096C59.7289 168.872 59.448 168.577 59.2261 168.775C54.9141 172.613 50.9423 176.758 47.3423 181.276C43.8987 185.601 40.6874 190.132 38.4141 195.196C34.3282 204.293 33.4282 214.697 35.5388 224.424C36.1134 227.074 36.9247 229.669 37.9578 232.178C38.4902 233.474 39.067 234.75 39.7092 235.995Z" fill="black"/>
<path fill-rule="evenodd" clip-rule="evenodd" d="M110.173 51.5414C142.195 49.9661 163.922 75.2293 164.857 85.3035C165.506 92.2965 165.065 101.623 165.065 107.872C165.065 111.061 166.674 120.757 164.857 125.406C160.812 135.753 156.242 143.858 143.579 143.858C130.916 143.858 111.612 137.293 104.984 128.824C103.773 127.278 88.7343 115.96 88.7343 107.064C88.7343 88.0838 87.3244 52.6655 110.173 51.5414Z" fill="white"/>
<path fill-rule="evenodd" clip-rule="evenodd" d="M88.3282 31.0414C90.1532 30.4708 91.3179 31.2923 92.1488 32.5651C92.332 32.5294 92.5092 32.5317 92.7065 32.5792C92.7553 32.5911 92.8734 32.6357 92.9628 32.6707C93.0319 32.6997 93.0942 32.7348 93.1542 32.772L93.1899 32.7532C93.3268 32.6037 93.4707 32.4674 93.626 32.3575C93.975 32.1107 94.3346 32.0388 94.6758 32.0895L94.8338 32.0314C96.1846 31.5605 97.6491 31.7791 98.565 32.9432C98.7422 33.1681 98.8855 33.4185 99.0078 33.6827C99.2824 33.7727 99.5402 33.9029 99.7622 34.0631C99.9182 33.9898 100.083 33.9281 100.259 33.8826C101.256 33.6269 102.303 33.8683 103.115 34.4795C103.511 34.7769 103.801 35.1492 104.022 35.5745C104.273 35.6335 104.521 35.7396 104.754 35.882C104.954 35.7825 105.157 35.689 105.365 35.625C106.126 35.3912 106.942 35.3052 107.734 35.3642C109.44 35.4908 111.09 37.4404 109.95 39.1147L109.914 39.1653C109.77 39.3672 109.644 39.5758 109.527 39.7878C109.936 39.9655 110.329 40.2033 110.692 40.5013C112.47 41.9586 112.63 44.2052 112.297 46.3245L112.283 46.4127H112.287C113.232 46.5024 114.047 47.4892 113.489 48.4173L113.462 48.4607C112.707 49.628 112.059 50.9175 111.338 52.1458C109.341 52.8659 107.416 53.7527 105.603 54.8272C104.474 55.8168 103.399 56.863 102.453 58.0269C101.981 58.6081 101.547 59.2233 101.148 59.8612C101.467 60.0144 101.861 60.0066 102.194 59.698C105.156 56.9524 108.734 55.0255 112.544 53.7341C112.819 53.6409 112.999 53.4655 113.1 53.258C114.791 52.7759 116.512 52.402 118.251 52.1374C118.73 51.6806 119.232 51.244 119.709 50.7892C120.318 50.2088 121.081 50.2173 121.651 50.5818C121.934 50.4527 122.223 50.3388 122.517 50.2363L122.7 50.1741C122.776 50.1492 122.849 50.1202 122.923 50.0974C124.963 49.4736 126.828 49.7052 128.835 50.2178L129.092 50.2847C130.027 50.5329 130.616 50.4932 131.521 50.2648L131.623 50.2386C132.586 49.9875 133.615 49.8015 134.599 50.0659C135.628 50.3427 136.311 50.9581 137.012 51.7016L137.082 51.7764C137.409 52.1265 137.598 52.1647 138.026 52.1561L138.485 52.1425C140.216 52.0951 141.911 52.1681 143.208 53.5076C143.687 54.0029 144.202 54.704 144.51 55.3438L144.555 55.4393C144.569 55.4704 144.582 55.4964 144.594 55.5196C144.78 55.4896 145.069 55.3719 145.207 55.345C147.094 54.979 148.668 55.5431 149.879 57.0303C150.144 57.3558 150.545 57.9949 150.822 58.3462C150.919 58.4286 151.011 58.517 151.098 58.6098C151.553 58.9004 152.197 58.882 152.707 58.9839C154.097 59.2607 155.583 59.7895 156.289 61.1128C156.585 61.665 156.694 62.2693 156.819 62.8729C157.286 63.18 157.652 63.6226 157.936 64.1017C158.282 64.6833 158.429 65.3958 158.827 65.9451C159.116 66.3441 159.558 66.5572 159.978 66.8011L160.139 66.8954C161.384 67.6372 162.359 68.4604 162.769 69.9138L162.804 70.0431C162.871 70.2658 163.104 70.9012 162.901 70.8057C163.076 70.9023 163.374 70.9363 163.533 70.9892C164.397 71.2751 165.148 71.7372 165.608 72.5485C165.959 73.1661 166.022 73.8098 166.122 74.4906L166.165 74.7654C166.176 74.8319 166.189 74.9091 166.202 74.984L166.216 75.0577L166.219 75.0594C166.375 75.127 166.529 75.2003 166.68 75.2794C167.396 75.701 167.885 76.4329 167.885 77.2802C167.885 77.6915 167.757 78.0119 167.57 78.2979C167.721 78.527 167.838 78.7711 167.927 79.0431C168.1 79.5742 168.112 80.155 168.054 80.7045C167.984 81.3639 167.815 81.9644 167.615 82.5942C167.539 82.8373 167.508 83.1769 167.392 83.409C167.605 83.681 167.733 84.0134 167.693 84.3414C167.637 84.8106 167.423 85.3591 166.998 85.6222C166.79 86.6473 166.343 87.6947 165.903 88.5327C165.852 88.63 165.791 88.7166 165.723 88.7885C165.785 92.1342 165.54 95.5033 165.523 98.8445C165.504 102.482 165.58 106.122 165.706 109.754C165.92 115.776 166.683 122.002 164.906 127.874C163.452 132.68 160.541 136.805 156.637 139.933C152.64 143.133 147.821 144.985 142.704 145.274C140.101 145.42 137.454 145.124 134.935 144.45L134.666 144.377C132.23 143.707 129.408 142.684 127.615 140.893C126.668 139.946 127.625 137.94 129.014 138.492C130.389 139.039 131.623 139.849 132.987 140.419C134.206 140.929 135.479 141.32 136.767 141.607C139.351 142.188 142.091 142.315 144.717 141.954C154.199 140.656 161.587 132.779 163.044 123.439C163.448 120.853 163.44 118.224 163.413 115.61L163.383 112.747C163.36 110.351 163.352 107.954 163.44 105.559C163.552 102.478 163.769 99.3983 164.061 96.3297L164.213 94.7329C164.393 92.8646 164.596 90.9821 164.946 89.1393C164.659 89.1543 162.397 85.2832 161.142 83.1201C160.684 82.7565 160.297 82.3049 160.147 81.7205C160.116 81.5985 160.1 81.4755 160.091 81.3523C159.818 80.9239 159.53 80.5065 159.227 80.1016L159.161 80.0719C159.11 80.0487 159.07 80.0293 159.047 80.0162C158.385 79.6406 157.832 79.0716 157.454 78.4122C157.326 78.1899 157.222 77.9578 157.137 77.7205C156.597 77.1906 156.032 76.6851 155.439 76.211C155.381 76.1645 155.32 76.121 155.262 76.0751C154.506 75.7932 153.843 75.3684 153.36 74.7565C153.158 74.6314 152.955 74.5088 152.749 74.3888C152.134 74.383 151.512 74.2395 150.907 73.9908C149.8 73.536 148.916 72.6371 147.803 72.2205C146.627 71.7803 145.388 72.7808 144.139 72.6003C143.82 72.5542 143.503 72.4572 143.209 72.3165C142.505 73.0621 141.759 73.7651 140.935 74.3803C139.74 75.2735 138.518 75.6816 137.133 76.0851C136.447 76.7366 135.678 77.3684 134.751 77.4612C132.606 79.1765 130.312 80.6234 127.898 81.9667C127.51 82.1827 127.124 82.2802 126.757 82.2827C126 82.7582 125.174 83.1241 124.301 83.3773C124.027 83.4565 123.745 83.4732 123.468 83.4392L122.71 84.0566C122.183 84.486 121.62 84.6912 121.082 84.7046C120.755 84.9554 120.415 85.1928 120.066 85.421C119.692 85.666 119.207 85.7674 118.719 85.7378C117.974 86.4666 117.009 86.5431 116.2 86.2075C116.089 86.2726 115.974 86.3343 115.846 86.3949C115.672 86.4776 115.489 86.5473 115.304 86.6037C114.46 87.513 113.226 87.9898 111.989 87.8651C111.065 88.4311 109.99 88.7255 108.939 88.6593C108.779 89.465 108.646 90.2736 108.534 91.085L108.522 91.6794C108.521 91.7757 108.521 91.8508 108.522 91.9002L108.523 91.9198C108.626 94.5256 108.682 97.1326 108.784 99.7387L108.793 99.9444C108.909 102.221 109.469 106.373 106.123 106.282C104.876 106.248 103.64 105.33 102.669 104.575L102.532 104.468C102.458 104.41 102.381 104.351 102.305 104.291C101.579 104.196 100.864 104.02 100.131 103.993C99.2269 103.961 98.2762 104.054 97.3952 104.259C95.8403 104.621 94.336 105.329 93.322 106.612C93.2332 106.724 93.1508 106.842 93.0727 106.96C93.0008 107.203 92.8783 107.427 92.7156 107.622C91.7565 109.78 92.3102 112.631 93.3705 114.605C94.634 116.956 96.6333 118.582 99.1472 119.4L99.2734 119.441C100.991 119.977 101.648 121.017 102.582 122.463C103.456 123.82 104.46 125.084 105.537 126.284C107.623 128.607 110.549 130.524 111.761 133.464C112.006 134.056 111.305 134.613 110.762 134.461C108.635 133.863 107.143 132.348 105.597 130.841C104.526 129.797 103.497 128.712 102.531 127.572C102.329 127.665 102.106 127.728 101.874 127.757C100.849 127.882 99.7922 127.83 98.8952 127.277C98.4817 127.315 98.051 127.171 97.7311 126.878C97.4377 126.609 97.1846 126.317 96.9708 126.006C96.6458 126.035 96.3268 126.044 96.0224 125.993C95.8755 125.979 95.7334 125.941 95.603 125.877C95.3609 125.782 95.1313 125.634 94.9204 125.408C94.4932 124.949 94.3295 124.301 94.4083 123.685C94.3238 123.667 94.2399 123.646 94.1571 123.618C93.5884 123.425 93.1506 123.043 92.8709 122.522C92.3704 122.241 91.9198 121.861 91.5786 121.456C91.163 120.964 90.8495 120.409 90.6653 119.796C90.4749 119.708 90.2901 119.605 90.113 119.485C88.8443 118.626 88.118 117.014 88.6162 115.524L88.6331 115.477C88.6584 115.41 88.7042 115.295 88.7603 115.166C88.7522 115.061 88.7438 114.956 88.7381 114.851L88.7205 114.533L88.4664 114.425C87.1988 113.921 86.3419 113.24 86.1896 111.814C86.1579 111.519 86.2724 111.218 86.453 110.966L86.4522 110.887C86.3698 110.844 86.2914 110.801 86.2223 110.757C85.5312 110.315 85.1066 109.524 85.1541 108.705C85.1978 107.96 85.6108 107.365 86.0753 106.815L86.208 106.661C86.219 106.648 86.2313 106.634 86.2445 106.619L85.9375 106.523C85.7383 106.459 85.5558 106.396 85.4246 106.323C84.9167 106.038 84.4861 105.653 84.2205 105.164C84.1819 105.103 84.1426 105.044 84.1071 104.979C83.7642 104.353 83.7194 103.551 83.9406 102.879C83.9668 102.8 84.0006 102.726 84.0353 102.651C83.1015 102.322 82.3825 101.642 82.2959 100.387C82.2619 99.8941 82.3698 99.4027 82.6046 98.9819C82.5526 98.6985 82.5418 98.4047 82.5754 98.1141C82.2469 97.8036 81.9917 97.4295 81.8776 96.9732C81.6619 96.1111 82.0567 95.2909 82.6436 94.5387C82.4265 93.9439 82.4153 93.2729 82.6633 92.6741C82.5678 92.3753 82.5135 92.0593 82.5105 91.7349C82.504 91.0165 82.7252 90.4165 83.0824 89.9061C82.5803 89.2919 82.3417 88.4757 82.6384 87.7108C82.8494 87.1672 83.0907 86.6699 83.3687 86.2092C83.2227 85.8587 83.1378 85.4663 83.1378 85.0269C83.1378 84.2364 83.434 83.6102 83.8872 83.0977C83.6905 82.1616 84.0904 81.0216 84.9621 80.6094C85.2906 80.4539 85.7305 80.2916 86.2151 80.1652C86.397 79.5966 86.587 79.0304 86.7874 78.4682C87.1033 77.5833 87.443 76.7107 87.803 75.8481C87.5958 76.0297 87.3784 76.199 87.1536 76.3524C86.4427 77.2566 85.5002 78.0398 84.7082 78.5084C83.138 79.4375 81.3422 78.8863 80.5671 77.3318C79.8386 77.8758 78.9644 78.1979 78.0317 78.0878C76.9741 77.9629 76.0071 77.2777 75.743 76.2089C75.7048 76.0542 75.6817 75.887 75.6794 75.7188C75.0729 76.1508 74.4382 76.5483 73.7421 76.776C72.8554 77.0659 71.9503 76.3704 71.8333 75.5038C71.787 75.1604 71.8513 74.8569 71.9879 74.6005L71.9014 74.5664C71.887 74.5604 71.8727 74.5542 71.8584 74.5475C71.3934 74.3296 71.0324 73.9301 70.8608 73.4694C69.8539 73.8591 68.7013 73.4024 68.3818 72.2947C68.0015 70.978 67.9785 69.6444 68.2762 68.3617C67.2093 67.586 66.5142 66.282 66.3959 64.9188C66.3095 63.9402 66.5429 63.0369 66.9543 62.2017C65.9453 61.8242 65.5984 60.5011 66.0779 59.5479C65.441 59.1832 65.0256 58.4098 65.0163 57.657C64.7317 57.2258 64.6407 56.6706 64.8767 56.0484C65.1879 55.2286 65.8217 54.5428 66.5474 54.0049C66.2309 53.4537 65.9958 52.8526 65.8498 52.2314C65.2485 52.0554 64.7632 51.5688 64.6644 50.8382C64.5405 49.9222 65.1433 49.1457 65.9546 48.9407C66.0446 48.6617 66.1544 48.3889 66.2903 48.1268C65.8889 47.1757 65.948 45.9731 66.4656 44.9333C66.9241 44.0139 67.6698 43.4517 68.5677 43.0628C68.3396 42.2808 68.6417 41.501 69.4022 40.9197C70.3308 40.2094 71.3491 39.6664 72.4191 39.2828C72.3241 38.0099 72.856 36.7063 74.1133 36.2624C74.4494 36.1439 74.7993 36.1001 75.1548 36.1016C75.413 35.54 75.8438 35.0835 76.406 34.6794C77.2567 34.0682 78.8465 34.4416 79.3183 35.4001L79.3413 35.4494C79.3654 35.5037 79.3914 35.5534 79.4161 35.606C79.5112 35.1406 79.7334 34.701 80.0907 34.3406C80.9837 33.4396 81.9266 33.4227 82.834 33.808C83.0005 33.395 83.202 33.0024 83.4471 32.6433C84.3367 31.3405 85.8065 31.1746 86.8827 31.8801C87.3141 31.5007 87.7956 31.2082 88.3282 31.0414ZM94.6886 109.382C96.48 108.681 98.6539 108.888 100.424 109.562L100.554 109.613C102.118 110.231 104.658 111.607 104.964 113.366C105.123 114.278 104.257 115.066 103.378 114.586C102.613 114.17 102.184 113.33 101.576 112.722C100.974 112.12 100.3 111.636 99.5647 111.211C98.0309 110.325 96.4187 109.981 94.6886 109.725C94.4943 109.698 94.5471 109.437 94.6886 109.382Z" fill="black"/>
<path fill-rule="evenodd" clip-rule="evenodd" d="M149.373 128.003C148.022 128.014 146.504 127.507 145.489 127.11L145.224 127.005C144.346 126.653 143.443 126.249 142.77 125.571C142.555 125.351 142.326 125.101 142.21 124.839C142.141 124.685 142.113 124.526 142.179 124.368C142.422 124.344 142.653 124.313 142.871 124.273C142.975 124.254 143.075 124.235 143.151 124.234C143.433 124.232 143.712 124.268 143.99 124.303C144.03 124.308 144.071 124.313 144.111 124.318C144.328 124.345 144.543 124.374 144.758 124.403C145.384 124.487 146.007 124.571 146.642 124.601C147.101 124.623 147.582 124.597 148.067 124.571C149.325 124.502 150.626 124.409 151.595 125.291C151.849 125.521 151.955 125.812 151.955 126.109C151.955 126.469 151.804 126.835 151.573 127.123C151.05 127.774 150.244 127.996 149.373 128.003ZM156.736 116.649C156.148 117.531 155.169 118.098 153.828 118.036C151.163 117.915 147.982 116.909 145.749 115.454C145.168 115.075 144.791 114.469 144.723 113.821L144.603 112.667L143.953 113.628C143.885 113.728 143.817 113.828 143.749 113.928C143.561 114.203 143.373 114.478 143.195 114.76C142.514 115.842 141.89 116.936 141.323 118.082C140.921 118.894 140.628 119.803 140.334 120.719C139.837 122.266 139.357 123.787 138.295 124.874C138.135 125.039 137.888 125.098 137.662 125.069C137.463 125.043 137.268 124.945 137.173 124.751C135.904 122.171 137.61 119.062 138.994 116.9L139.14 116.674C140.424 114.721 142.519 112.136 144.919 111.785L145.194 112.223L145.593 111.957C146.247 111.521 147.109 111.541 147.864 111.882L148.619 112.223C150.025 112.854 151.411 113.436 152.932 113.755C153.043 113.778 153.154 113.8 153.264 113.82C153.369 113.839 153.474 113.857 153.579 113.873C153.556 113.77 153.532 113.666 153.508 113.564C153.482 113.455 153.456 113.345 153.428 113.237C153.4 113.124 153.369 113.012 153.338 112.901C153.216 112.457 153.079 112.018 152.916 111.587C152.302 109.968 151.321 108.454 150.367 107.01L150.255 106.84C150.118 106.633 149.968 106.418 149.814 106.194C149.07 105.123 148.245 103.96 148.186 102.792C149.174 102.854 150 103.468 150.727 104.002C151.725 104.735 152.65 105.573 153.49 106.484C155.117 108.25 156.578 110.508 157.219 112.842C157.585 114.178 157.424 115.616 156.736 116.649ZM130.694 103.334L130.694 103.287C130.696 101.939 131.481 98.8617 133.421 98.8617C134.632 98.8617 135.368 100.956 135.495 103.115L135.5 103.203C135.556 104.545 135.188 107.479 133.421 107.479C131.635 107.479 130.712 104.7 130.694 103.334ZM159.248 102.912L159.248 102.864C159.245 101.516 158.461 98.439 156.521 98.439C155.34 98.439 154.611 100.43 154.457 102.53L154.446 102.692C154.37 103.989 154.714 107.056 156.521 107.056C158.307 107.056 159.229 104.277 159.248 102.912ZM137.226 94.2133C136.969 94.2435 136.713 94.283 136.457 94.3236C135.712 94.4424 134.97 94.5851 134.233 94.7514C132.834 95.0674 131.446 95.4664 130.085 95.9172C128.811 96.3393 127.557 96.8163 126.303 97.2932C126.236 97.3186 126.169 97.3441 126.102 97.3695C125.659 97.5379 125.218 97.7266 124.776 97.9159C124.102 98.204 123.425 98.494 122.735 98.7126C124.554 96.1963 127.357 94.3318 130.055 92.9976C131.594 92.2363 133.226 91.6225 134.869 91.1195L135.783 90.8446C137.13 90.4471 138.602 90.0799 139.868 90.8725C140.368 91.1859 140.687 91.6732 140.788 92.2C140.886 92.7166 140.774 93.2705 140.417 93.7328C140.107 94.1355 139.719 94.3648 139.307 94.4434C138.853 94.5302 138.371 94.4349 137.932 94.2005C137.58 94.1743 137.477 94.1837 137.373 94.1953L137.226 94.2133ZM157.486 94.4693C156.585 94.2733 155.692 94.1946 154.767 94.2228C154.349 94.2354 153.944 94.3 153.541 94.365C152.914 94.4661 152.29 94.5704 151.615 94.4478C151.263 94.3838 150.963 94.1777 150.731 93.9087C150.46 93.5941 150.281 93.1921 150.223 92.8099C150.164 92.415 150.223 92.0697 150.369 91.7648C150.542 91.4046 150.832 91.101 151.183 90.835C152.246 90.0301 154.07 90.2237 155.324 90.3864C156.564 90.5476 157.797 90.9322 158.892 91.5429C159.974 92.1457 160.913 92.9578 161.647 93.9504C162.265 94.787 162.556 95.7499 162.857 96.7303C161.442 95.5433 159.278 94.8584 157.486 94.4693Z" fill="black"/>
</svg>
