<svg width="240" height="324" viewBox="0 0 240 324" fill="none" xmlns="http://www.w3.org/2000/svg">
<path fill-rule="evenodd" clip-rule="evenodd" d="M127.586 126.829C133.74 127.133 143.323 129.773 143.803 131.46C144.551 134.094 142.943 143.97 145.632 149.289C146.778 151.557 151.131 151.354 152.817 152.092C158.46 154.563 175.165 159.249 178.61 165.15C179.99 167.514 188.47 196.848 192.976 211.812C193.484 213.5 194.058 215.06 194.681 216.505L194.911 215.382C196.748 206.337 197.667 200.862 197.667 198.956C197.667 195.977 195.292 183.41 197.667 180.215C200.018 177.051 205.684 174.464 208.234 174.412L208.31 174.412C209.984 174.412 211.436 173.888 212.667 172.841L214.472 171.933C223.653 167.324 229.018 164.796 230.564 164.349C233.033 163.635 237.234 165.156 235.134 167.439C233.733 168.962 230.214 171.655 224.577 175.518L222.451 177.208L222.708 177.342C225.455 178.789 227.07 180.007 227.554 180.996C228.052 182.015 227.813 183.22 226.836 184.612L226.984 184.757C228.219 185.969 228.837 186.782 228.837 187.196V189.219C230.065 191.019 230.373 192.52 229.758 193.722C229.144 194.925 228.17 195.966 226.836 196.848C225.854 199.434 224.683 201.274 223.325 202.369C221.968 203.464 219.621 204.376 216.285 205.104L213.267 212.324L210.821 222.468L209.588 233.786L209.946 234.045C211.605 235.254 212.667 236.15 212.667 237.076C212.667 238.518 205.975 272.435 195.563 273.953C193.311 274.281 181.633 272.671 177.798 269.551L177.855 269.888C178.757 275.339 178.566 278.17 177.282 278.381C161.503 280.968 116.69 281.768 42.8421 280.779C42.4028 241.569 44.3895 215.456 48.8023 202.439C60.0882 169.149 72.5314 157.779 76.8847 156.805C80.6979 155.952 93.9209 150.687 97.6172 149.289C100.03 148.377 100.547 145.642 103.297 145.642L103.519 145.644C106.178 145.67 108.536 146.146 109.861 144.778C113.337 141.188 112.366 136.218 113.808 131.46C114.603 128.838 120.033 126.457 127.586 126.829Z" fill="white"/>
<path fill-rule="evenodd" clip-rule="evenodd" d="M110.677 136.23C111.038 135.514 111.997 135.607 112.63 135.932C114.528 137.32 112.542 140.01 112.017 141.704C110.667 144.989 108.321 148.2 105.083 149.735C105.352 153.001 105.656 156.259 105.768 159.535C109.908 164.672 116.887 166.547 123.083 167.989C132.814 170.681 143.797 165.165 147.081 155.543C143.343 153.418 142.133 147.855 143.249 143.974C143.346 143.701 143.768 143.581 143.918 143.885C144.942 145.991 144.806 148.56 145.969 150.641C157.139 151.711 171.553 155.927 178.871 164.963C182.113 169.484 183.398 175.363 184.995 180.603C188.403 191.404 191.118 202.425 194.46 213.237L194.854 211.191C195.934 205.556 196.915 199.843 196.186 194.112L196.173 193.838C195.934 189.277 194.508 180.803 198.043 177.724C201.241 175.279 205.874 173.315 209.887 174.441C217.028 171.262 223.192 165.909 230.798 163.824C233.139 163.342 236.507 163.912 235.953 167.089C234.42 172.645 227.998 174.802 223.609 177.667C226.423 178.43 229.853 181.853 227.654 184.838C227.635 184.891 227.619 184.931 227.602 184.963C229.384 185.753 229.634 187.74 229.197 189.444C229.152 189.894 229.034 189.507 229.298 189.915C231.31 191.813 230.421 197.104 227.39 197.282C227.589 199.789 225.979 202.224 223.94 203.591C221.743 205.064 218.566 205.128 216.746 207.144C212.475 214.678 211.002 223.573 210.536 232.201C213.352 233.255 215.878 236.407 213.32 239.082C213.269 239.088 213.219 239.094 213.168 239.098C211.685 243.057 211.112 247.277 210.328 251.411C209.122 258.466 205.977 264.943 201.962 270.82C197.319 278.599 184.833 277.366 178.543 272.346C178.568 273.663 178.785 274.972 178.364 276.245C177.741 277.618 176.224 277.025 176.073 275.672C172.748 277.543 171.965 271.368 175.661 272.348C175.377 267.884 175.212 263.413 175.079 258.942C170.894 260.297 170.713 253.351 174.994 254.74L174.989 252.82C174.957 238.097 175.12 223.324 177.062 208.717C177.242 207.624 177.546 206.567 177.723 205.481C177.742 205.369 177.918 205.4 177.918 205.508C178.219 225.958 176.883 246.452 178.277 266.91C179.437 267.264 179.9 268.596 180.759 269.372C182.667 271.134 185.265 271.991 187.805 272.29C194.918 273.288 197.989 271.115 201.157 264.929C199.729 265.885 197.798 264.198 198.669 262.686L198.696 262.64C199.6 261.039 202.154 261.999 201.831 263.792C205.016 258.69 206.683 252.937 207.914 247.1L208.08 246.403C208.679 243.924 209.455 241.085 210.892 238.842C202.129 236.608 193.556 229.8 192.184 220.46C189.959 227.453 186.945 234.29 184.072 241.091C183.185 243.456 182.815 245.999 181.543 248.193C181.247 248.7 180.497 248.569 180.33 248.034C179.186 242.918 182.652 238.052 184.452 233.446C185.921 230.844 190.14 218.958 192.755 218.929C189.816 206.044 185.897 193.254 182.164 180.529C178.554 163.347 171.198 160.034 155.616 154.624C158.426 168.952 171.259 182.822 164.43 197.851L164.264 198.241C163.566 199.898 162.986 201.568 163.473 203.386C163.947 205.151 165.024 206.683 165.886 208.271C170.705 217.236 167.388 227.707 165.525 237.044C163.171 247.993 160.846 258.953 158.414 269.886C157.934 272.066 157.623 274.313 156.899 276.427C156.525 277.517 154.659 277.414 154.78 276.142C155.01 273.673 155.703 271.266 156.21 268.842C159.24 253.147 163.338 237.637 165.945 221.873C167.621 210.204 161.021 208.411 161.268 200.871C162.165 197.015 164.539 193.574 164.403 189.465C164.931 176.886 155.772 166.508 154.641 154.275L152.644 153.562C151.647 153.205 150.65 152.845 149.656 152.476C154.886 189.066 153.298 226.455 150.684 263.226C150.15 264.923 150.658 276.775 148.418 275.723C148.305 276.385 147.954 277.037 147.189 277.033C140.245 277.097 133.298 277.207 126.354 277.29C123.013 276.982 118.422 278.257 115.581 276.329C112.301 275.393 111.923 266.506 111.046 263.338L110.705 261.034C105.13 223.391 100.142 184.971 104.149 146.955C98.5745 147.169 97.424 153.187 97.0105 157.57C95.9768 167.242 89.73 175.571 89.4304 185.354C89.4051 187.727 89.853 190.027 90.8013 192.206C93.3175 197.545 97.6692 203.718 94.4168 209.681C90.5702 214.323 90.9032 215.544 92.3147 221.281C96.2859 240.246 102.881 258.478 109.154 276.763C107.791 283.87 99.5924 257.486 98.8211 255.497C95.1917 257.322 93.2092 251.264 97.372 250.832C94.6982 241.879 92.2375 232.859 90.1889 223.739L90.1346 223.482C89.2297 219.269 87.4497 214.335 90.4555 210.597C98.2061 202.757 85.335 193.992 86.9586 184.494C85.5566 185.534 83.4344 184.44 83.4663 182.693C83.4028 180.727 86.0432 179.719 87.3137 181.22C88.6201 173.513 93.165 166.785 94.5404 159.102L94.6025 158.741C95.0685 156.025 95.1999 153.168 96.5333 150.692C94.7183 151.872 92.7854 152.825 90.7973 153.666C94.3519 156.636 87.4686 159.347 88.0382 154.759C68.5449 160.401 64.1389 168.268 56.9818 186.337C58.3187 185.037 60.6089 186.719 59.8086 188.376C59.1701 190.122 56.385 189.611 56.3861 187.751L56.0599 188.529C51.7199 198.91 47.7697 209.544 45.7846 220.654C49.6787 220.104 48.6873 226.329 45.1591 224.574C43.7432 234.455 43.7208 244.475 43.8938 254.436C47.1784 252.713 47.2772 258.568 43.9255 256.898C44.048 265.06 44.2276 273.223 44.3628 281.385C44.3903 283.122 41.7114 283.114 41.6691 281.385C41.3563 268.843 40.7861 256.279 41.0571 243.733C40.8021 221.959 47.0594 200.972 56.3827 181.466C64.632 159.007 76.027 156.453 96.9917 149.923C98.9269 147.049 103.061 144.331 106.435 146.136C108.322 143.088 109.281 139.477 110.677 136.23ZM74.7578 214.505C74.8359 214.229 75.231 214.298 75.2437 214.571C75.419 218.094 75.2627 221.64 75.0218 225.179C74.8759 227.339 74.6965 229.496 74.5444 231.642C74.1409 237.302 73.8155 242.968 73.5683 248.639C73.6549 248.603 73.7437 248.571 73.8366 248.546C74.2634 248.429 74.6904 248.429 75.1169 248.546C75.4975 248.652 75.8302 248.838 76.1168 249.106L76.1775 249.165C76.412 249.382 76.5789 249.64 76.6761 249.938C76.8145 250.203 76.8846 250.487 76.8844 250.79L76.8829 250.866C76.881 251.301 76.7733 251.705 76.5535 252.081C76.3402 252.443 76.0528 252.73 75.6916 252.946C75.3155 253.164 74.9118 253.271 74.4768 253.273C74.4303 253.278 74.3836 253.282 74.3373 253.284C74.0139 253.297 73.712 253.229 73.4329 253.083L73.3909 253.071C73.2852 255.947 73.1986 258.826 73.1352 261.704C73.0782 264.213 73.0021 266.722 72.9514 269.23L72.9279 270.485L72.8819 273.259C72.8669 274.399 72.8743 275.491 72.4866 276.567L72.4401 276.691C72.1613 277.409 71.9439 278.409 71.1977 278.809C70.6021 279.128 69.7993 279.01 69.457 278.388C69.1697 277.868 69.4188 277.12 69.8437 276.769C69.8352 276.746 69.8225 276.725 69.812 276.702C69.7465 276.511 69.647 276.332 69.588 276.139C69.4019 275.531 69.4528 274.882 69.4507 274.25C69.4507 273.134 69.4885 272.018 69.5183 270.904C69.5838 268.533 69.6599 266.164 69.7526 263.794C70.0666 255.847 70.6579 247.899 71.3351 239.973L71.565 237.298C71.8712 233.741 72.188 230.18 72.6366 226.641C72.6575 226.472 72.6789 226.303 72.7021 226.134C72.4613 226.013 72.2373 225.847 72.0597 225.661C71.3479 224.913 70.9162 223.795 70.5114 222.832L70.4183 222.613C69.9789 221.586 69.5732 220.546 69.3641 219.443L69.3441 219.341C69.2487 218.871 69.0604 218.039 69.5585 217.811C69.8183 217.693 69.9829 217.777 70.0676 218.037C70.0784 218.071 70.0695 218.109 70.0507 218.139C70.2556 218.453 70.5768 218.747 70.7796 219.039L71.4737 220.032L71.8169 220.531C72.2521 221.171 72.7169 221.784 73.1965 222.389C73.5744 219.734 74.0373 217.09 74.7578 214.505ZM103.224 273.66C104.092 272.98 105.506 273.349 105.506 274.605C105.506 275.867 104.09 276.23 103.224 275.55L103.181 275.518L103.14 275.484C102.668 275.115 102.652 274.156 103.104 273.756L103.14 273.726C103.167 273.702 103.195 273.681 103.224 273.66ZM65.3982 271.207L65.4728 271.208C65.8657 271.208 66.2312 271.308 66.5714 271.507C66.7192 271.619 66.865 271.733 67.0129 271.847C67.2833 272.117 67.4692 272.439 67.5728 272.809L67.6511 273.387C67.6615 273.688 67.6002 273.967 67.4629 274.227C67.3742 274.497 67.2242 274.732 67.0129 274.928C66.8143 275.142 66.5819 275.292 66.3117 275.378C66.0733 275.504 65.8191 275.568 65.5473 275.568L65.4728 275.567C65.0779 275.567 64.7122 275.467 64.3721 275.269C64.2242 275.157 64.0784 275.042 63.9305 274.928C63.6622 274.658 63.4742 274.336 63.3709 273.967C63.3453 273.774 63.3202 273.58 63.2925 273.387C63.2821 273.087 63.3453 272.809 63.4805 272.548C63.5692 272.278 63.7192 272.044 63.9305 271.847C64.1293 271.633 64.3615 271.483 64.6319 271.397C64.8701 271.271 65.1261 271.207 65.3982 271.207ZM164.295 267.189L164.849 267.263C165.379 267.383 165.806 267.774 166.091 268.22C166.243 268.459 166.325 268.717 166.338 268.994C166.4 269.268 166.387 269.545 166.3 269.822C166.237 270.093 166.112 270.329 165.928 270.53C165.865 270.63 165.791 270.72 165.707 270.801C165.533 271.09 165.271 271.28 165.001 271.475C164.773 271.621 164.525 271.699 164.259 271.712C164.084 271.758 163.906 271.758 163.729 271.712C163.465 271.699 163.218 271.621 162.989 271.475C162.854 271.371 162.719 271.266 162.586 271.162C162.468 271.025 162.358 270.883 162.254 270.735C162.185 270.572 162.117 270.412 162.05 270.251C161.925 269.864 161.986 269.522 162.054 269.135C162.064 269.07 162.081 269.011 162.104 268.947L162.15 268.824C162.272 268.503 162.337 268.394 162.552 268.114L162.634 268.005C162.675 267.95 162.718 267.896 162.766 267.848C162.901 267.709 163.093 267.592 163.245 267.472C163.57 267.284 163.921 267.191 164.295 267.189ZM92.5669 265.835L92.6373 265.836C92.9437 265.838 93.2312 265.914 93.4972 266.069L93.8437 266.337C94.0549 266.55 94.2007 266.8 94.2831 267.09C94.3021 267.241 94.3234 267.394 94.3444 267.544C94.3528 267.778 94.3044 267.998 94.1965 268.203C94.1291 268.415 94.0106 268.596 93.8437 268.753C93.6896 268.918 93.5056 269.036 93.2944 269.106C93.11 269.202 92.9116 269.252 92.7009 269.253L92.6373 269.252C92.3289 269.252 92.0415 269.173 91.7753 269.019L91.4289 268.753C91.2176 268.539 91.0718 268.288 90.9894 267.998C90.9704 267.846 90.9493 267.696 90.9282 267.544C90.9197 267.309 90.9683 267.09 91.076 266.887C91.1458 266.675 91.262 266.491 91.4289 266.337C91.5831 266.17 91.7669 266.052 91.9782 265.984C92.1626 265.887 92.3573 265.838 92.5669 265.835ZM78.6242 265.137C79.0655 265.132 79.5136 265.257 79.8749 265.513C80.2256 265.762 80.4916 266.031 80.6629 266.434C80.7094 266.544 80.7557 266.652 80.796 266.762C80.9777 267.246 81.0115 267.732 80.7601 268.205C80.5171 268.664 79.9932 268.865 79.524 269.002C79.127 269.12 78.677 269.139 78.2819 268.998C78.0854 268.928 77.8932 268.854 77.7157 268.746C77.384 268.541 77.2045 268.298 76.9826 267.998C76.8094 267.702 76.7228 267.381 76.7228 267.039C76.7228 266.694 76.8094 266.375 76.9826 266.077C77.3226 265.496 77.9523 265.141 78.6242 265.137ZM56.2297 265.544C56.7876 265.544 57.2776 265.802 57.6137 266.237C57.9536 266.679 58.0783 267.229 57.9283 267.777C57.7698 268.355 57.2905 268.863 56.6966 269.008C56.2574 269.116 55.898 269.112 55.4607 269.038C55.0909 268.975 54.8081 268.755 54.5247 268.526C54.2015 268.262 54.1022 267.781 54.155 267.392C54.2057 267.003 54.3855 266.749 54.6581 266.519L54.66 266.512L54.5586 266.591C54.5968 266.557 54.6346 266.521 54.6728 266.485C54.6853 266.464 54.6959 266.441 54.7064 266.417C54.8628 266.151 55.074 265.942 55.3381 265.785C55.6149 265.625 55.9107 265.544 56.2297 265.544ZM186.284 259.143C186.59 259.06 186.899 259.06 187.205 259.143C187.431 259.196 187.627 259.299 187.795 259.453C187.964 259.564 188.102 259.705 188.206 259.88L188.24 259.939C188.481 260.35 188.519 260.819 188.415 261.275C188.287 261.839 187.767 262.353 187.205 262.486L187.186 262.49L187.167 262.495C186.939 262.567 186.708 262.577 186.48 262.524C186.25 262.514 186.037 262.446 185.84 262.319C185.591 262.159 185.382 261.952 185.221 261.702C185.094 261.503 185.027 261.29 185.016 261.059C184.976 260.907 184.976 260.755 185.016 260.603C185.027 260.373 185.094 260.159 185.221 259.961L185.491 259.612L185.519 259.589C185.735 259.373 185.99 259.225 186.284 259.143ZM165.013 247.958C167.783 247.958 167.779 252.257 165.013 252.257C162.244 252.257 162.248 247.958 165.013 247.958ZM63.6091 247.415C63.9009 247.349 64.1924 247.362 64.4818 247.453C64.6572 247.527 64.8304 247.601 65.0037 247.672L65.4473 248.015C65.5297 248.085 65.5699 248.161 65.6459 248.26L65.741 248.385C65.8784 248.569 65.8817 248.608 66.0325 249C66.1339 249.376 66.1339 249.752 66.0325 250.129C65.9837 250.31 65.91 250.481 65.8149 250.64C65.728 250.792 65.624 250.926 65.5069 251.049L65.4473 251.109C65.2487 251.323 65.0142 251.473 64.7438 251.561C64.5727 251.661 64.3889 251.709 64.1924 251.709C63.9009 251.775 63.6091 251.762 63.3199 251.671C63.1445 251.597 62.9713 251.523 62.7978 251.452L62.3544 251.109L62.0121 250.665L61.903 250.405L61.7924 250.143L61.7142 249.562C61.7037 249.26 61.7649 248.981 61.9021 248.719C61.9549 248.535 62.048 248.372 62.183 248.237C62.2804 248.072 62.4112 247.941 62.5762 247.844C62.7112 247.708 62.8741 247.616 63.0579 247.563C63.229 247.463 63.4128 247.415 63.6091 247.415ZM200.599 244.344C200.83 244.336 201.045 244.384 201.244 244.49C201.313 244.513 201.381 244.542 201.446 244.576C201.702 244.726 201.905 244.929 202.055 245.183C202.177 245.378 202.245 245.587 202.256 245.813C202.301 246.017 202.297 246.222 202.242 246.426L202.224 246.487C202.177 246.654 202.108 246.808 202.015 246.95C202.006 246.967 201.996 246.984 201.983 246.998C201.842 247.223 201.653 247.406 201.421 247.544C201.163 247.692 200.887 247.768 200.587 247.77C199.989 247.77 199.473 247.447 199.158 246.95C199.114 246.88 199.089 246.791 199.057 246.719C199.03 246.652 198.985 246.565 198.962 246.487C198.882 246.187 198.882 245.887 198.962 245.587C199.015 245.367 199.114 245.175 199.264 245.012C199.384 244.828 199.543 244.682 199.739 244.576C199.983 244.434 200.245 244.358 200.523 244.346L200.599 244.344ZM83.6584 242.241C83.9509 242.161 84.2418 242.155 84.5325 242.223L84.6051 242.241C84.8373 242.296 85.0382 242.402 85.2112 242.558C85.4035 242.685 85.5579 242.852 85.6697 243.059C85.8305 243.336 85.9107 243.636 85.9126 243.957C85.9107 244.278 85.8305 244.579 85.6697 244.855C85.5112 245.124 85.2979 245.335 85.0298 245.494L84.7974 245.606C84.603 245.728 84.396 245.794 84.1718 245.804C84.022 245.844 83.8718 245.844 83.7241 245.804C83.5718 245.804 83.4302 245.766 83.2995 245.69C83.1558 245.65 83.0331 245.578 82.9274 245.472C82.7436 245.354 82.6002 245.198 82.4945 245.001L82.3232 244.597L82.2643 244.149L82.3232 243.704L82.4164 243.484C82.5007 243.181 82.653 242.919 82.8746 242.697C83.0964 242.477 83.3584 242.325 83.6584 242.241ZM188.43 238.676C188.739 238.578 189.045 238.565 189.351 238.633C189.558 238.633 189.753 238.686 189.932 238.792C190.129 238.847 190.298 238.944 190.442 239.088C190.693 239.25 190.889 239.466 191.035 239.734L191.267 240.286C191.407 240.643 191.356 241.169 191.272 241.529C191.202 241.824 191.067 242.083 190.866 242.302C190.765 242.473 190.63 242.609 190.458 242.71C190.263 242.888 190.037 243.015 189.781 243.09L189.711 243.109L189.685 243.116C189.681 243.118 189.677 243.118 189.673 243.118C189.67 243.12 189.666 243.12 189.664 243.12C189.563 243.145 189.459 243.16 189.351 243.164C189.045 243.232 188.739 243.22 188.43 243.122C188.249 243.046 188.065 242.968 187.881 242.89C187.725 242.772 187.57 242.651 187.414 242.53C187.294 242.374 187.173 242.218 187.053 242.063C186.884 241.799 186.793 241.512 186.78 241.205C186.725 241 186.725 240.797 186.78 240.592C186.78 240.383 186.833 240.191 186.936 240.011C187.03 239.724 187.188 239.477 187.414 239.267C187.57 239.147 187.725 239.026 187.881 238.908C188.065 238.83 188.249 238.752 188.43 238.676ZM53.6841 231.109C54.0029 231.022 54.3221 231.022 54.6411 231.109L55.0698 231.289C55.281 231.403 55.4481 231.557 55.5749 231.754C55.7355 231.927 55.843 232.132 55.8979 232.367C56.0228 232.688 56.008 233.197 55.9087 233.525C55.7967 233.897 55.6235 234.193 55.3552 234.472C54.9094 234.932 54.2247 235.066 53.6186 234.926C53.4514 234.888 53.293 234.814 53.1493 234.723C52.6911 234.44 52.3826 233.945 52.3848 233.398C52.3848 233.339 52.389 233.28 52.3974 233.221C52.3679 233.1 52.3571 232.975 52.3615 232.844L52.4249 232.367L52.4289 232.354C52.5136 232.052 52.6657 231.79 52.8874 231.568C53.0923 231.365 53.3313 231.218 53.6045 231.13L53.6735 231.109H53.6841ZM213.104 183.651C212.527 178.917 210.357 173.824 203.739 176.604L203.247 176.788C201.61 177.408 199.701 178.223 198.705 179.656C198.018 180.643 198.25 182.556 198.155 183.708C197.724 187.453 197.955 191.192 198.405 194.922C198.985 203.663 197.148 212.72 193.49 220.664C197.151 226.589 202.05 232.116 208.733 234.586C209.016 227.849 210.334 221.236 211.738 214.662L211.793 214.375C212.354 211.411 212.635 208.369 214.581 205.903C218.54 201.604 223.985 204.037 226.59 197.13C226.042 196.853 226.345 195.907 227.004 196.089C229.289 196.494 229.66 192.257 228.096 191.236C226.467 190.242 228.107 188.408 227.414 187.085C227.027 186.514 226.192 186.495 225.814 185.838C224.811 183.418 229.829 181.867 223.928 179.139C222.721 178.71 221.37 178.976 220.152 178.971C218.36 179.139 216.936 180.402 215.297 180.799C217.082 185.421 212.579 189.872 208.516 186.18C206.304 188.271 203.831 193.037 209.207 190.815C211.838 189.059 214.103 186.788 217.157 185.707L217.221 185.687C218.355 185.315 223.316 182.904 223.07 184.991C221.212 186.785 218.147 186.764 215.995 188.22C213.011 189.6 211.103 192.945 207.531 192.899C206.708 197.901 212.382 194.857 214.495 193.478L215.08 193.16C218.061 191.549 221.086 190.057 224.561 190.037C225.521 190.031 225.516 191.511 224.561 191.523C220.032 191.552 216.345 194.384 212.551 196.49C212.177 199.41 216.452 198.131 218.073 197.701C219.774 197.462 222.505 195.622 223.993 196.594C224.575 198.09 222.014 197.978 221.122 198.432C225.194 200.389 221.626 201.62 220.535 198.614L220.215 198.723C217.489 199.64 210.877 201.526 211.664 196.906C210.666 197.348 209.449 197.612 208.347 197.367C205.597 201.436 201.211 199.861 207.586 197.088C206.15 196.42 205.67 193.839 207.05 192.878C202.031 192.572 205.757 187.304 207.834 185.549C207.638 185.351 207.448 185.149 207.271 184.944C206.073 185.515 204.815 185.861 203.468 185.984C202.18 186.1 201.893 183.906 203.164 183.727C204.527 183.534 205.782 183.171 206.982 182.486C208.801 181.7 209.421 185.076 211.241 185.195C212.234 185.392 212.906 184.521 213.104 183.651ZM170.855 227.208C171.295 227.208 171.685 227.392 172.004 227.683C172.323 227.975 172.461 228.412 172.48 228.831C172.488 229.055 172.442 229.264 172.34 229.458C172.275 229.659 172.163 229.832 172.004 229.981C171.709 230.274 171.271 230.456 170.855 230.456C170.416 230.456 170.025 230.272 169.706 229.981C169.387 229.687 169.25 229.251 169.23 228.831C169.222 228.609 169.269 228.4 169.37 228.205C169.429 228.024 169.525 227.864 169.66 227.728L169.706 227.683C170.002 227.387 170.439 227.208 170.855 227.208ZM184.171 217.184L184.241 217.185C184.613 217.188 184.957 217.28 185.278 217.466C185.418 217.574 185.557 217.68 185.695 217.788C185.95 218.045 186.125 218.348 186.223 218.697C186.322 219.06 186.322 219.426 186.223 219.789C186.189 219.999 186.111 220.201 185.988 220.377C185.806 220.679 185.566 220.922 185.261 221.102C184.947 221.286 184.606 221.376 184.241 221.378C183.876 221.376 183.535 221.286 183.221 221.102C182.916 220.922 182.675 220.679 182.496 220.377C182.371 220.201 182.293 219.999 182.259 219.789C182.16 219.426 182.16 219.06 182.259 218.697C182.35 218.373 182.507 218.089 182.734 217.844L182.787 217.788C182.973 217.587 183.193 217.445 183.449 217.363C183.673 217.245 183.914 217.185 184.171 217.184ZM82.5512 217.297C82.7077 217.255 82.862 217.255 83.0183 217.297C83.2507 217.308 83.4681 217.378 83.669 217.505C83.7873 217.597 83.9056 217.688 84.0239 217.779L84.1271 217.903C84.3476 218.172 84.3531 218.218 84.5223 218.627C84.5923 218.855 84.6028 219.083 84.5521 219.312C84.5521 219.466 84.512 219.61 84.4357 219.743C84.3937 219.889 84.3218 220.015 84.2141 220.121C84.1378 220.25 84.0366 220.353 83.9075 220.43C83.743 220.58 83.5486 220.683 83.3246 220.736L82.8702 220.797C82.8113 220.789 82.75 220.78 82.6908 220.774C82.6195 220.772 82.5503 220.764 82.4825 220.751L82.4139 220.736L82.3514 220.719C82.2687 220.695 82.1881 220.663 82.1098 220.622C81.962 220.58 81.8331 220.506 81.723 220.396C81.5331 220.273 81.381 220.108 81.2711 219.903L81.2415 219.836C81.2014 219.764 81.1676 219.69 81.142 219.61C81.0704 219.483 81.0345 219.348 81.0324 219.202C80.9904 219.008 80.9932 218.815 81.0434 218.623L81.062 218.559L81.2246 218.172C81.3091 218.041 81.3979 217.908 81.5117 217.8C81.5804 217.739 81.7481 217.608 81.8426 217.543L81.9005 217.505C82.1014 217.378 82.319 217.308 82.5512 217.297ZM57.0811 214.275C57.3853 213.077 58.9571 212.698 59.8128 213.554C60.6682 214.411 60.2902 215.983 59.0926 216.287L58.955 216.321C57.7973 216.615 56.7536 215.569 57.0473 214.411L57.0811 214.275ZM202.089 204.5C202.08 204.382 202.233 204.34 202.309 204.409C203.327 205.322 203.976 206.417 205.211 207.125C206.454 207.835 207.734 207.778 209.029 208.237C209.469 208.393 209.471 208.981 209.029 209.135C206.578 209.991 202.275 207.089 202.089 204.5ZM86.9375 204.314C87.2102 204.23 87.4848 204.217 87.7574 204.278C87.9433 204.278 88.1163 204.325 88.2748 204.418C88.4501 204.466 88.6003 204.555 88.729 204.682C88.8834 204.773 89.006 204.897 89.0987 205.052C89.2806 205.25 89.4032 205.483 89.4663 205.749L89.5382 206.297L89.4663 206.844C89.3966 207.007 89.3269 207.172 89.2593 207.334L89.0705 207.59C88.9175 207.794 88.893 207.796 88.522 208.072C88.2855 208.222 88.0299 208.304 87.7574 208.315C87.5755 208.366 87.3938 208.366 87.2102 208.315C87.0264 208.315 86.8529 208.269 86.6926 208.176C86.5191 208.127 86.3672 208.038 86.2382 207.911C86.0144 207.765 85.8391 207.573 85.71 207.334C85.6403 207.172 85.5708 207.007 85.5032 206.844L85.429 206.297L85.5032 205.749L85.5072 205.732C85.6044 205.39 85.7778 205.092 86.0269 204.84L86.437 204.523C86.5973 204.42 86.7642 204.367 86.9375 204.314ZM185.56 204.724C186.145 204.563 186.787 204.732 187.216 205.162C187.645 205.591 187.814 206.231 187.653 206.817C187.495 207.387 187.036 207.85 186.464 208.004C186.293 208.051 186.119 208.076 185.944 208.068C185.65 208.066 185.376 207.991 185.12 207.844L184.791 207.588C184.63 207.44 184.518 207.265 184.452 207.062C184.349 206.867 184.302 206.658 184.311 206.432L184.309 206.392C184.302 206.311 184.313 206.231 184.338 206.153C184.338 206.07 184.351 205.99 184.372 205.912C184.526 205.341 184.991 204.88 185.56 204.724ZM59.3987 199.001C59.5868 198.994 59.7621 199.032 59.9248 199.119C60.0959 199.174 60.2417 199.267 60.3642 199.402C60.4994 199.525 60.5924 199.673 60.6473 199.842C60.7339 200.005 60.772 200.18 60.7656 200.368C60.7656 200.615 60.7023 200.846 60.5797 201.057C60.5079 201.15 60.4361 201.243 60.3642 201.334C60.1952 201.505 59.9945 201.621 59.7621 201.687L59.6269 201.733C59.4283 201.805 59.2339 201.81 59.0269 201.782C58.8093 201.753 58.6084 201.693 58.4311 201.558C58.2577 201.457 58.1206 201.319 58.0192 201.146L57.903 200.871C57.8776 200.778 57.8671 200.639 57.8607 200.541C57.8607 200.527 57.8607 200.514 57.8586 200.499C57.8586 200.417 57.884 200.216 57.9049 200.134C57.9516 199.96 58.0464 199.795 58.1544 199.656C58.2473 199.51 58.3741 199.396 58.5304 199.311L58.5443 199.301L58.56 199.29C58.6084 199.256 58.6593 199.223 58.71 199.187C58.9213 199.064 59.1516 199.001 59.3987 199.001ZM168.495 197.5C168.833 197.5 169.148 197.587 169.44 197.756C169.45 197.76 169.46 197.764 169.469 197.769C169.748 197.933 169.97 198.156 170.135 198.434C170.304 198.724 170.388 199.037 170.388 199.371C170.388 199.707 170.304 200.017 170.135 200.307C169.97 200.586 169.748 200.808 169.469 200.973C169.46 200.979 169.45 200.983 169.44 200.987C169.148 201.157 168.833 201.241 168.495 201.243C168.159 201.241 167.844 201.157 167.553 200.987C166.982 200.654 166.625 200.03 166.625 199.371C166.625 198.711 166.982 198.088 167.553 197.756C167.844 197.587 168.159 197.5 168.495 197.5ZM80.7596 195.056L80.8172 195.055C81.0411 195.046 81.25 195.093 81.4423 195.197C81.643 195.262 81.8184 195.374 81.9665 195.533L82.2749 195.79L82.3644 195.863C82.3792 195.875 82.3937 195.888 82.4078 195.9C82.615 196.109 82.7566 196.355 82.8369 196.638C82.8622 196.801 82.8831 196.961 82.9003 197.124C82.9465 197.547 82.6974 197.98 82.4228 198.28C82.2749 198.439 82.0993 198.551 81.8967 198.618C81.7024 198.72 81.4911 198.766 81.2669 198.758C80.8085 198.718 80.3735 198.62 80.0439 198.265C80.0057 198.223 79.9698 198.179 79.932 198.134L79.6679 197.83C79.4672 197.627 79.3275 197.388 79.2517 197.113C79.2303 196.968 79.2115 196.824 79.1925 196.68C79.1733 196.247 79.3846 195.841 79.6679 195.533C79.9294 195.247 80.3731 195.072 80.7596 195.056ZM70.0954 190.606C72.2924 190.606 72.2882 194.015 70.0954 194.015C67.9001 194.015 67.9044 190.606 70.0954 190.606ZM180.563 185.826L180.632 185.827C180.996 185.829 181.336 185.92 181.651 186.104L182.06 186.419C182.31 186.673 182.483 186.969 182.58 187.311C182.603 187.49 182.627 187.67 182.652 187.848C182.663 188.127 182.603 188.387 182.477 188.628C182.397 188.877 182.257 189.095 182.06 189.279C181.877 189.475 181.661 189.615 181.41 189.695C181.169 189.822 180.909 189.881 180.632 189.87C180.267 189.868 179.927 189.777 179.612 189.594C179.475 189.488 179.34 189.382 179.202 189.279C178.972 189.045 178.807 188.774 178.708 188.465L178.685 188.387L178.611 187.848C178.6 187.571 178.659 187.311 178.786 187.07C178.866 186.819 179.006 186.603 179.202 186.419C179.386 186.222 179.604 186.083 179.853 186.003C180.074 185.887 180.31 185.827 180.563 185.826ZM170.667 179.445C170.863 179.438 171.045 179.478 171.216 179.567C171.392 179.624 171.544 179.723 171.673 179.861C171.945 180.079 172.112 180.514 172.112 180.867C172.112 181.22 171.945 181.655 171.673 181.873C171.495 182.048 171.286 182.171 171.045 182.238L170.667 182.289C170.299 182.306 169.925 182.114 169.663 181.873C169.611 181.824 169.56 181.776 169.507 181.729C169.269 181.509 169.165 181.182 169.15 180.867C169.144 180.7 169.18 180.544 169.256 180.398C169.304 180.246 169.389 180.117 169.507 180.005C169.56 179.958 169.611 179.91 169.663 179.861C169.949 179.597 170.282 179.464 170.667 179.445ZM233.367 168.076C234.755 166.384 233.947 165.18 231.861 165.599C228.267 166.085 224.885 168.357 221.72 169.986C218.265 171.812 214.705 173.317 211.181 175.032C212.635 175.925 213.717 177.323 214.543 178.918C216.192 177.666 218.3 177.067 220.357 176.989C224.09 173.412 230.272 172.593 233.367 168.076ZM69.3561 173.692C69.7325 173.694 70.0852 173.782 70.4157 173.959L70.4862 173.998L70.9383 174.349C71.158 174.552 71.3122 174.793 71.4031 175.07C71.5425 175.336 71.6059 175.625 71.5953 175.934C71.6059 176.243 71.5425 176.53 71.4031 176.796C71.3122 177.075 71.158 177.314 70.9383 177.517C70.8137 177.68 70.6531 177.807 70.4608 177.9C70.281 177.974 70.1038 178.05 69.9242 178.126C69.7235 178.189 69.4911 178.198 69.2735 178.208C68.8784 178.206 68.511 178.107 68.1684 177.908L67.7249 177.566C67.5115 177.367 67.3592 177.132 67.2705 176.86C67.1448 176.62 67.0811 176.363 67.0811 176.089L67.0827 176.014C67.0827 175.998 67.0827 175.978 67.085 175.959C67.1101 175.761 67.1378 175.562 67.1649 175.364C67.2348 175.072 67.3679 174.816 67.5665 174.6C67.6172 174.499 67.6848 174.417 67.7716 174.349C68.0503 174.07 68.3796 173.88 68.7601 173.772C68.9587 173.747 69.1573 173.719 69.3561 173.692ZM167.383 168.092L167.447 168.093C167.733 168.093 167.997 168.165 168.242 168.306C168.349 168.389 168.455 168.471 168.561 168.554C168.757 168.75 168.893 168.983 168.966 169.249L169.024 169.667C169.03 169.885 168.985 170.086 168.886 170.274C168.823 170.468 168.715 170.638 168.561 170.781C168.419 170.935 168.25 171.043 168.054 171.107C167.868 171.206 167.665 171.25 167.447 171.242C167.164 171.242 166.898 171.17 166.653 171.026C166.547 170.946 166.44 170.864 166.334 170.781C166.156 170.601 166.027 170.391 165.95 170.152L165.93 170.086L165.874 169.667C165.865 169.45 165.909 169.249 166.009 169.061C166.072 168.865 166.182 168.695 166.334 168.554C166.478 168.399 166.647 168.292 166.841 168.228C167.01 168.139 167.191 168.094 167.383 168.092ZM81.7046 165.803L81.7783 165.804C82.1987 165.806 82.5896 165.912 82.953 166.123C83.1093 166.244 83.2659 166.364 83.422 166.487C83.7114 166.776 83.91 167.119 84.0222 167.514L84.1044 168.131C84.117 168.452 84.0494 168.75 83.9037 169.027C83.8109 169.317 83.6501 169.566 83.422 169.777C83.213 170.004 82.9635 170.164 82.6741 170.257C82.3973 170.403 82.0994 170.471 81.7783 170.458C81.3579 170.458 80.9671 170.352 80.6037 170.141C80.4475 170.02 80.2912 169.898 80.1328 169.777C79.8452 169.486 79.6466 169.143 79.5347 168.75L79.4523 168.131C79.4396 167.812 79.5072 167.512 79.653 167.235C79.7459 166.948 79.9065 166.696 80.1328 166.487C80.344 166.259 80.5931 166.098 80.8825 166.005C81.138 165.87 81.4115 165.804 81.7046 165.803ZM159.933 159.992C160.125 159.941 160.317 159.941 160.509 159.992C160.796 160.004 161.065 160.091 161.314 160.25L161.752 160.588C161.758 160.594 161.764 160.601 161.771 160.609C162.035 160.875 162.218 161.19 162.32 161.552L162.396 162.12C162.406 162.414 162.345 162.689 162.212 162.942C162.133 163.186 162.002 163.398 161.821 163.582L161.752 163.65C161.555 163.862 161.325 164.012 161.056 164.098C160.887 164.198 160.703 164.246 160.509 164.246C160.222 164.312 159.933 164.299 159.645 164.208C159.474 164.134 159.301 164.062 159.128 163.991L159.072 163.959C158.42 163.602 158.016 162.854 158.016 162.12C158.016 161.387 158.42 160.636 159.072 160.279C159.092 160.271 159.108 160.26 159.128 160.25C159.377 160.091 159.645 160.004 159.933 159.992Z" fill="black"/>
<path fill-rule="evenodd" clip-rule="evenodd" d="M162.856 78.6399C155.423 59.0779 142.025 44.7554 119.438 53.7513C118.79 53.31 117.945 53.1916 117.135 53.7084C104.831 61.4373 95.9702 73.8285 92.1304 87.8011C89.7936 88.2456 87.5229 89.0208 85.4947 90.2921C81.0868 93.055 78.1213 97.4515 75.3414 101.734C74.5054 103.021 75.2795 105.152 76.8505 105.444C77.5329 105.572 78.2091 105.647 78.8816 105.667C78.7179 106.262 78.5024 106.836 78.2279 107.363C77.2343 109.27 79.1115 111.295 80.8707 110.774C81.0659 110.877 81.2704 110.962 81.4823 111.026C81.5064 112.106 82.0614 113.553 83.1598 113.771C84.9361 114.152 87.2968 112.792 86.8777 110.805C87.4143 110.899 87.949 110.911 88.4702 110.845C88.5285 111.88 88.5103 112.96 88.6532 113.915C89.1201 118.414 93.6137 121.437 97.8991 120.068C98.1619 121.47 98.4705 123.44 99.8508 124.2C101.464 128.729 104.251 133.897 108.815 135.96C108.408 137.002 108.629 138.268 109.852 138.965C118.206 143.73 128.233 145.342 137.677 143.571C141.452 143.346 145.129 142.492 148.659 140.675C151.233 139.349 153.6 137.666 155.91 135.93C158.221 134.194 160.692 132.504 162.537 130.25C164.541 127.802 165.473 124.921 166.079 121.856C168.852 107.941 167.894 94.2775 162.856 81.0221C156.619 64.6139 169.091 95.0489 162.856 78.6399Z" fill="white"/>
<path fill-rule="evenodd" clip-rule="evenodd" d="M126.923 49.9393C130.727 49.6706 134.6 50.3121 138.222 51.4595C144 53.2889 149.306 56.5175 153.665 60.7207C158.157 65.0523 161.48 70.3929 163.5 76.2915C165.937 83.4051 166.301 91.0006 166.987 98.4264C167.333 102.178 167.904 105.873 168.498 109.588L168.592 110.175C169.171 113.795 169.497 117.456 168.697 121.071C167.365 127.078 163.374 132.177 158.636 135.944C148.904 143.685 133.753 148.403 122.421 141.281C120.668 140.179 122.329 137.361 124.041 138.509C125.245 139.318 126.521 140.026 127.89 140.516C133.607 142.56 139.886 141.832 145.537 139.93C151.105 138.057 156.448 134.891 160.557 130.666C164.873 126.229 167.264 120.748 166.919 114.512C166.713 110.801 165.868 107.159 165.399 103.479C164.983 100.219 164.734 96.9414 164.447 93.6685L164.342 92.4912C163.733 85.823 162.859 78.9718 159.826 72.9189C157.275 67.8267 153.539 63.2964 149.048 59.7977C144.345 56.1348 138.729 53.573 132.836 52.6175C125.906 51.4939 119.272 53.5371 113.491 57.3405C108.364 60.7137 103.956 65.2214 100.576 70.336C98.9373 72.816 97.541 75.4644 96.3353 78.1805C95.1991 80.7395 94.4157 83.4216 93.502 86.0592C94.2539 86.0368 95.0182 86.0658 95.7944 86.1516C99.7756 86.5929 103.485 88.6569 105.846 91.9115C108.732 95.8885 107.952 100.77 109.079 105.293C109.166 105.644 109.018 105.988 108.717 106.182C107.008 107.287 104.721 107.324 103.067 106.08C101.632 105 100.958 103.048 101.539 101.342C101.615 101.119 101.938 101.159 101.947 101.397C102.057 104.3 104.749 106.535 107.388 105.154C106.256 101.254 106.852 96.8983 104.536 93.3755C100.438 87.1407 91.958 86.8831 86.0018 90.3978C82.8671 92.2473 80.3859 95.0282 78.5383 98.1388L78.0061 99.0418C77.2979 100.248 76.5479 101.613 76.4009 102.942C76.3162 103.709 76.5991 104.429 77.4784 104.043C78.1897 103.73 78.7405 103.001 79.163 102.375C79.8837 101.306 81.5396 102.229 80.9444 103.368L80.9242 103.405C80.0579 104.94 79.5245 106.632 79.4266 108.395L79.4017 108.883C79.3854 109.239 79.3736 109.744 79.4489 109.763C79.5391 109.785 80.1659 109.061 80.2703 108.961C80.7731 108.478 81.2909 108.083 81.9909 107.954C82.911 107.786 83.8393 108.924 83.0406 109.671L83.0073 109.701C82.2944 110.321 82.3261 111.557 83.1135 112.137C84.2248 112.955 85.5929 111.62 85.7542 110.52L85.7597 110.479C85.9023 109.291 87.5516 109.249 87.6412 110.479C87.8358 113.149 84.659 115.386 82.2418 114.039C81.2861 113.507 80.6785 112.533 80.4881 111.488C80.183 111.65 79.8539 111.761 79.5059 111.792C78.3731 111.893 77.5678 111.096 77.3846 110.026C77.1712 108.78 77.2978 107.446 77.6259 106.153C77.0106 106.301 76.3635 106.244 75.713 105.869C73.7451 104.733 74.3102 102.206 75.0532 100.5C78.2254 93.2179 84.7975 86.6104 92.9398 86.0859C92.9844 84.8011 93.1585 83.5864 93.4432 82.2999C96.2282 69.7164 105.25 58.0642 116.996 52.6181C120.134 51.1628 123.463 50.1838 126.923 49.9393ZM96.1212 100.206L96.2328 100.181C97.5017 99.9073 100.841 99.586 100.439 101.722C100.42 101.823 100.274 101.81 100.248 101.722C99.8534 100.379 97.1754 101.453 96.3935 101.777C95.3156 102.222 94.2523 102.879 93.3722 103.643C91.4452 105.316 90.1535 107.674 89.957 110.235C89.7622 112.775 90.4989 115.519 92.3306 117.356C93.2285 118.257 94.3746 118.868 95.6621 118.913C96.8188 118.954 98.0968 118.053 99.1641 118.58C99.3745 118.684 99.5412 118.97 99.5222 119.205C99.4863 119.65 99.2872 119.996 98.991 120.265C100.778 123.522 102.24 126.97 104.52 129.933C105.664 131.419 106.96 132.795 108.427 133.966C109.125 134.523 109.883 135.012 110.665 135.442C111.582 135.946 112.375 136.261 113.029 137.115C113.587 137.843 113.029 139.251 112.109 139.377C109.944 139.672 107.84 137.921 106.25 136.609C104.662 135.298 103.29 133.681 102.155 131.966C99.9772 128.671 98.4872 124.785 97.8914 120.853C97.1997 121.073 96.421 121.14 95.8351 121.141C94.2764 121.144 92.788 120.584 91.5631 119.636C87.0787 116.166 86.5803 109.042 89.7449 104.549C91.2593 102.4 93.5604 100.812 96.1212 100.206ZM96.1491 108.468C97.1889 108.377 98.2279 108.541 99.2053 108.896L99.6082 109.042C100.459 109.353 101.365 109.719 101.98 110.358C102.919 111.333 101.984 113.024 100.646 112.65C99.167 112.236 97.9649 110.99 96.4863 110.468C95.1646 110 93.6675 110.067 92.4946 110.871C92.3397 110.977 92.136 110.768 92.2372 110.613C93.1345 109.247 94.551 108.609 96.1491 108.468Z" fill="black"/>
<path fill-rule="evenodd" clip-rule="evenodd" d="M138.835 118.841C140.016 116.896 142.536 121.66 142.803 122.479C143.04 123.205 143.197 123.948 143.276 124.7C144.192 124.906 145.144 124.906 146.083 124.726C147.478 124.458 148.331 123.708 149.544 123.064C150.381 122.618 151.437 123.14 151.873 123.879C152.385 124.748 152.059 125.65 151.385 126.298C150.107 127.527 147.592 127.809 145.924 127.483C144.968 127.296 144.092 126.937 143.319 126.416C143.314 126.514 143.31 126.611 143.303 126.708L143.288 126.876C143.16 128.239 142.785 129.953 141.727 130.84C139.992 132.294 137.85 129.497 139.536 128.044L139.589 128C140.637 127.153 140.865 124.88 140.809 123.628C140.772 122.811 140.623 121.983 140.365 121.205L140.312 121.05C140.235 120.83 139.388 118.744 139.082 119.01L139.068 119.025C138.942 119.176 138.738 119 138.835 118.841ZM148.271 107.866C149.866 108.837 152.297 111.099 150.581 113.504C148.561 115.624 145.652 113.193 144.219 112.093C142.89 111.241 141.397 113.433 142.63 114.428C152.987 122.099 157.19 108.12 149.078 106.726C148.185 106.572 147.853 107.566 148.271 107.866ZM131.235 98.8995C132.795 98.6228 134.392 99.0106 135.682 99.9232L135.78 99.9936C137.023 100.903 138.413 102.5 137.7 104.067C137.414 104.697 136.557 104.795 136.013 104.51C135.107 104.035 134.943 102.866 134.135 102.219C133.472 101.689 132.579 101.367 131.726 101.445C129.721 101.627 128.487 103.605 127.865 105.31C127.785 105.528 127.465 105.613 127.34 105.379C125.871 102.633 128.471 99.3902 131.235 98.8995ZM156.209 97.8632C159.196 97.617 162.692 100.715 161.905 103.868C161.528 105.382 159.284 105.338 158.886 103.868C158.666 103.059 158.688 102.344 158.106 101.672C157.626 101.118 156.943 100.795 156.209 100.845C155.401 100.899 154.655 101.304 154.088 101.872C153.576 102.385 153.27 103.136 152.739 103.59C152.609 103.702 152.434 103.709 152.305 103.59C151.393 102.749 151.94 100.996 152.519 100.117C153.347 98.8597 154.696 97.9881 156.209 97.8632ZM125.548 93.306C127.464 91.6093 130.945 89.9707 133.529 90.8058C135.014 91.2857 135.662 93.6801 134.004 94.4391C132.083 95.3179 129.869 94.9603 127.915 95.8712C127.094 96.2539 126.322 96.7322 125.751 97.4337C125.301 97.9866 124.843 98.7141 124.191 99.0328C124.02 99.1167 123.789 99.1188 123.651 98.9632C122.224 97.3481 124.302 94.4095 125.548 93.306ZM152.916 90.7215C154.1 90.3891 155.414 90.3958 156.617 90.6047C157.82 90.8135 159.04 91.3121 160.022 92.0393L160.136 92.1245C161.208 92.9324 162.487 94.108 162.418 95.5393C162.361 96.7345 161.104 97.5429 160.019 96.9164C159.135 96.4056 158.719 95.3822 157.97 94.7008C157.352 94.1384 156.626 93.695 155.851 93.3843C154.991 93.0392 154.129 92.8775 153.206 92.8621C152.495 92.8503 151.78 93.0836 151.082 93.1582C151.14 93.2761 150.588 93.2212 150.272 93.1166C150.038 93.0168 150.037 92.7207 150.118 92.5286C150.521 91.5769 151.985 90.9828 152.916 90.7215Z" fill="black"/>
<path fill-rule="evenodd" clip-rule="evenodd" d="M157 133.092C156.263 132.851 155.538 132.57 154.811 132.299C151.09 130.43 146.597 130.091 142.695 131.665C140.78 132.438 138.995 133.826 137.073 134.736C136.617 134.907 136.157 135.061 135.691 135.191C135.406 135.092 135.121 134.986 134.838 134.88C132.8 134.112 130.883 133.164 129.021 132.121C128.823 131.842 128.617 131.57 128.396 131.309C129.742 131.117 131.061 130.8 132.254 130.472C135.917 129.468 139.37 127.832 143.02 126.784C146.42 125.805 150.108 125.27 153.522 126.486C155.143 127.063 156.569 128.073 158.145 128.753C158.96 129.104 159.939 129.449 160.891 129.499C160.277 130.973 159.499 132.348 158.436 133.494C157.951 133.39 157.469 133.245 157 133.092ZM164.927 121.554C164.6 121.825 163.254 122.7 162.818 123.222C162.705 123.179 162.593 123.135 162.481 123.09C162.289 122.854 162.006 122.751 161.718 122.757C159.704 121.82 157.912 120.497 156.313 118.837C155.176 117.66 154.012 116.427 152.493 115.745C150.704 114.937 148.944 115.309 147.064 115.432C145.063 115.565 143.088 114.997 141.089 115.269C139.627 115.47 138.258 116.089 137.075 116.962C134.66 118.744 132.995 121.246 130.955 123.404C128.639 125.851 125.791 127.415 122.624 128.214C122.586 128.189 122.546 128.164 122.506 128.14C120.171 126.027 118.063 123.641 116.198 121.098C114.376 118.615 109.574 107.437 108.414 106.456C107.933 106.048 107.405 105.873 106.9 105.887C105.985 105.908 105.14 106.545 104.762 107.546C104.119 109.25 104.44 111.452 104.491 113.234C104.555 115.415 104.698 117.594 104.926 119.765C105.152 121.91 105.452 124.049 105.826 126.173C106.014 127.246 106.224 128.318 106.454 129.385C106.526 129.721 106.617 130.021 106.726 130.3C106.838 130.827 106.959 131.351 107.088 131.871C107.929 135.276 109.255 138.685 111.788 141.198C114.425 143.816 118.008 145.556 121.336 147.111C124.505 148.593 127.826 149.909 131.233 150.941C134.193 152.283 137.362 153.344 140.544 153.902C144.047 154.517 147.729 154.555 151.112 153.338C152.774 152.739 154.346 151.905 155.772 150.865C157.794 149.814 159.613 148.371 161.102 146.46C163.77 143.036 165.043 138.881 165.601 134.596C165.743 133.499 166.279 129.296 166.322 128.642C166.458 126.528 166.594 124.415 166.73 122.302C166.794 121.304 165.571 121.02 164.927 121.554Z" fill="black"/>
</svg>
