<svg width="240" height="324" viewBox="0 0 240 324" fill="none" xmlns="http://www.w3.org/2000/svg">
<path fill-rule="evenodd" clip-rule="evenodd" d="M192.496 217.789C192.496 216.078 190.13 213.043 190.125 211.494C192.115 211.138 193.778 208.442 193.337 206.753C192.561 206.16 190.526 204.991 189.684 204.445C184.556 204.601 186.505 197.464 185.924 193.836C185.34 190.286 184.906 186.575 184.051 183.006C182.532 180.149 181.819 176.948 180.367 174.106C179.719 173.164 178.671 172.301 178.357 171.206C175.181 167.736 170.809 165.656 167.21 162.717C168.607 162.269 168.514 160.385 168.423 159.175C168.748 157.597 168.401 155.617 166.962 154.727C166.476 153.142 164.35 152.589 163.107 153.599C162.29 149.938 159.096 147.716 155.749 146.358C155.752 146.347 155.755 146.336 155.758 146.326C152.383 144.986 148.338 144.318 144.97 145.071C146.748 125.257 131.578 124.53 123.88 126.195C119.942 127.047 114.033 129.698 112.691 133.384C111.933 135.465 109.758 142.177 109.449 144.318C103.57 140.962 96.7545 136.536 91.6554 143.293C90.6343 144.47 89.5045 145.345 87.9766 145.749C83.2062 146.988 76.8745 147.029 74.1631 151.894C72.5424 154.908 74 156.894 73.5645 159.908C52.0907 174.994 34.1454 230.57 38.1747 256.425C39.144 265.677 43.8764 282.055 55.5571 280.013C61.5149 286.532 161.513 286.532 171.824 280.013C180.312 282.234 188.936 278.796 192.496 270.664C197.016 259.512 192.226 247.469 191.377 236.03C190.861 233.142 190.094 230.849 189.684 227.893C189.513 226.661 190.103 224.611 189.684 223.475C189.881 222.736 192.496 219.499 192.496 217.789Z" fill="white"/>
<path fill-rule="evenodd" clip-rule="evenodd" d="M145.228 138.667C145.464 139.679 145.248 140.819 145.288 141.858C145.325 142.85 145.442 143.837 145.615 144.814C147.428 143.86 149.571 143.738 151.637 144.045C154.31 144.442 157.402 145.321 159.497 147.108C160.014 147.549 160.443 148.071 160.801 148.647C161.232 149.338 161.507 150.119 162.189 150.614C163.245 151.38 164.554 151.677 165.569 152.526C166.604 153.391 167.247 154.685 167.383 156.021C167.455 156.731 167.338 157.396 167.203 158.089C167.082 158.713 167.142 158.969 167.306 159.569C167.435 160.041 167.189 160.575 166.788 160.835C167.647 161.426 168.495 162.034 169.329 162.667C174.183 166.353 178.289 170.948 181.134 176.354L181.203 176.489L181.283 176.65C181.976 178.075 183.791 182.243 184.016 183.179C184.177 183.669 184.334 184.16 184.479 184.654C184.862 185.964 185.187 187.289 185.456 188.626L185.529 188.991C185.747 190.114 186.123 191.444 186.063 192.64C186.693 195.907 187.251 199.188 187.728 202.483C187.79 202.914 187.619 203.265 187.352 203.498C187.989 203.6 188.623 203.726 189.249 203.853L189.613 203.93L189.795 203.97C191.1 204.264 192.387 204.693 193.242 205.789C194.163 206.975 194.182 208.499 193.257 209.693C192.471 210.707 191.324 211.189 190.126 211.494C189.889 211.553 189.65 211.608 189.412 211.656C189.251 211.69 189.146 211.47 189.298 211.386L189.552 211.245L189.899 211.055C190.802 210.557 191.739 209.995 192.238 209.097C192.917 207.877 192.38 206.749 191.216 206.129C190.241 205.611 189.036 205.478 187.954 205.3L187.507 205.226C186.375 205.046 185.221 204.928 184.079 205.058C183.08 205.172 182.068 205.512 181.261 206.123L181.186 206.182L181.109 206.247C180.401 206.86 179.383 208.239 180.718 208.636C181.739 208.938 182.982 208.863 184.054 208.921L184.193 208.93C185.091 208.991 186.029 208.991 186.938 209.099C187.263 209.137 187.584 209.19 187.899 209.264C188.801 209.477 188.491 210.678 187.696 210.762C187.502 210.783 187.303 210.794 187.105 210.798C186.585 211.189 185.867 211.367 185.252 211.61C184.665 211.842 184.075 212.073 183.482 212.299C183.993 212.322 184.504 212.364 185.013 212.428C185.178 212.447 185.18 212.669 185.013 212.686C183.788 212.81 182.562 212.946 181.341 213.117C179.451 213.379 177.572 213.73 175.736 214.264C174.395 214.657 173.069 215.124 171.784 215.669L171.395 215.837L171.234 215.907C170.068 216.413 168.558 217.005 167.888 218.119C167.537 218.7 167.383 219.599 167.877 220.155C168.406 220.754 169.514 220.685 170.254 220.714L170.313 220.717C171.881 220.793 173.45 220.803 175.02 220.749C178.31 220.632 181.601 220.273 184.832 219.641C185.427 219.525 185.685 220.419 185.085 220.558C181.275 221.444 177.423 221.93 173.513 221.952L173.085 221.953C171.562 222.245 170.068 222.679 168.587 223.169L168.291 223.268C167.417 223.564 165.923 223.858 165.407 224.726C165.065 225.303 165.186 225.698 165.524 225.967C166.119 226.438 167.387 226.527 168.004 226.55C170.476 226.643 172.95 226.66 175.424 226.607C176.66 226.58 177.896 226.535 179.132 226.472C180.34 226.409 181.631 226.229 182.835 226.345C183.353 226.396 183.526 227.157 182.964 227.298C181.479 227.675 179.813 227.642 178.279 227.69L178.102 227.696C176.455 227.755 174.805 227.78 173.157 227.776C171.742 227.77 170.328 227.742 168.915 227.69L167.666 227.64L167.445 227.63C166.779 227.594 166.099 227.517 165.509 227.243C164.964 228.156 165.371 229.38 166.075 230.103C166.745 230.792 167.71 231.13 168.636 231.341C168.722 231.36 168.809 231.379 168.896 231.396C170.928 231.81 172.998 231.775 174.9 232.709C176.499 233.495 177.963 234.805 179.755 235.116C181.356 235.395 182.52 234.689 183.374 233.383C183.42 233.311 183.467 233.239 183.511 233.167C184.183 232.085 184.667 230.893 185.375 229.832C185.736 229.291 186.144 228.771 186.642 228.349C186.866 228.156 188.433 227.324 188.679 227.074C189.733 225.992 188.799 223.716 189.074 222.359C189.395 220.78 190.783 220.224 191.615 219.001C193.198 216.672 188.858 214.49 190.156 211.944C190.172 211.912 190.193 211.889 190.221 211.874C190.335 211.812 190.517 211.889 190.506 212.039C190.362 213.937 192.171 215.243 192.824 216.887C193.567 218.758 192.38 219.891 191.167 221.14C189.612 222.744 190.707 224.54 190.36 226.472C190.315 226.725 190.243 226.948 190.148 227.148C190.414 227.313 190.619 227.586 190.664 227.967C191.197 232.49 191.77 236.999 192.706 241.459L192.906 242.407L193.174 243.671C193.842 246.833 194.464 250.008 194.583 253.24C194.954 255.968 195.102 258.719 194.882 261.465C194.214 269.824 189.543 278.57 181.056 281.135C179.091 281.729 177.008 281.884 174.993 281.467C174.302 281.326 173.334 281.013 172.466 280.539C172.518 281.096 172.559 281.654 172.576 282.209C172.862 282.528 172.991 283.01 172.828 283.422C172.136 283.194 171.507 282.833 170.941 282.34L170.847 282.256C170.511 281.008 170.413 279.642 170.364 278.327L170.351 277.953C170.338 277.589 170.33 277.232 170.317 276.883C170.246 274.713 170.296 272.538 170.408 270.369L170.491 268.773C170.679 265.05 170.833 261.335 170.729 257.602C170.611 253.305 170.244 249.027 169.783 244.754C169.544 242.549 169.274 240.349 168.997 238.149C168.775 236.378 168.403 234.472 168.397 232.646C166.975 232.341 165.579 231.758 164.704 230.564C163.776 229.298 163.639 227.679 164.463 226.381C163.667 225.291 164.32 224.263 165.304 223.57C163.791 222.722 162.948 220.41 162.725 218.802C162.572 217.699 162.524 216.048 162.995 214.807C162.319 214.831 161.643 214.901 160.967 215.017C160.185 215.154 159.418 215.355 158.662 215.604L158.279 215.731C158.085 215.796 157.868 215.872 157.652 215.962C159.019 218.223 157.263 220.273 155.011 220.858C154.582 220.97 154.145 221.049 153.703 221.112C152.708 221.249 151.692 221.292 150.705 221.383C148.817 221.556 146.917 221.803 145.022 221.884C144.606 221.903 144.338 221.708 144.211 221.437C144.207 221.433 144.205 221.431 144.205 221.427C144.16 221.355 144.131 221.279 144.12 221.199C144.127 221.205 144.135 221.209 144.141 221.214C144.05 220.706 144.355 220.089 145.022 220.015C147.758 219.706 150.532 219.692 153.276 219.466L153.452 219.451C154.314 219.377 155.328 219.24 156.01 218.694C156.644 218.187 156.701 217.527 156.448 216.932C156.443 216.946 156.439 216.963 156.437 216.978C156.418 217.096 156.256 217.092 156.203 217.01C156.044 216.769 156.004 216.532 156.044 216.304C155.854 216.084 155.624 215.889 155.375 215.739C154.269 215.067 152.816 214.884 151.559 214.685C150.184 214.467 148.798 214.368 147.41 214.302C144.678 214.173 141.938 214.395 139.251 214.886C139.138 214.905 139.092 214.748 139.202 214.712C140.25 214.366 141.321 214.074 142.405 213.844C142.379 213.839 142.354 213.835 142.329 213.829C142.234 213.806 142.166 213.689 142.198 213.597C142.202 213.581 142.208 213.567 142.215 213.554C141.754 213.343 141.562 212.633 142.12 212.345C143.858 211.447 145.899 211.041 147.807 210.671C149.639 210.318 151.489 210.071 153.342 209.851C156.475 209.484 159.891 209.492 162.906 208.503L163.03 208.461C164.258 208.038 165.723 207.179 165.809 205.73C165.936 203.538 162.68 204.109 161.324 204.162C157.612 204.303 153.904 204.561 150.209 204.959C149.455 205.039 148.7 205.121 147.946 205.206C146.791 205.335 145.633 205.47 144.479 205.614C143.835 205.694 143.176 205.8 142.513 205.901C142.306 205.952 142.103 205.988 141.9 206.007C141.885 206.009 141.872 206.005 141.862 205.998C140.896 206.134 139.927 206.237 138.984 206.208C138.876 206.206 138.809 206.036 138.923 205.986C140.14 205.47 141.494 205.166 142.852 204.927C143.694 204.299 144.71 203.796 145.544 203.31C146.689 202.642 148.001 201.659 149.301 201.26C149.886 200.799 150.549 200.429 151.16 200.178C150.984 199.905 150.921 199.527 150.952 199.208C151.069 198.064 151.984 197.426 153.04 197.202C153.367 197.134 153.746 197.084 154.149 197.065C154.157 196.851 154.252 196.642 154.464 196.486L154.526 196.438L154.57 196.403C155.28 195.827 156.687 194.205 154.992 194.087C154.092 194.023 153.331 194.683 152.615 195.129C151.128 196.057 149.689 196.103 147.991 195.872L147.227 195.763L147.1 195.746C145.872 195.585 144.626 195.562 143.941 196.815C143.205 198.155 142.948 199.377 141.464 200.114C140.047 200.818 138.473 200.958 137.172 201.926C135.777 202.961 134.729 204.415 133.589 205.704C131.072 208.545 128.193 211.054 125.227 213.413L124.699 213.831C121.967 215.991 119.148 218.117 116.089 219.781C116.068 219.791 116.047 219.795 116.028 219.795C115.946 219.787 115.884 219.681 115.958 219.609C119.531 216.137 123.71 213.322 127.379 209.942C129.006 208.444 130.555 206.867 132.044 205.231C133.345 203.796 134.499 202.184 136.016 200.962C136.753 200.368 137.55 199.914 138.441 199.597C139.274 199.298 140.208 199.15 140.975 198.694C142.477 197.802 142.331 195.689 143.833 194.729C145.121 193.906 146.69 194.207 148.118 194.402L148.289 194.425C149.214 194.548 150.171 194.651 151.054 194.285C151.929 193.924 152.632 193.248 153.513 192.888C154.741 192.383 156.481 192.504 157.111 193.854C157.713 195.144 156.891 196.31 155.932 197.166C157.24 197.403 158.387 198.035 158.484 199.324C159.444 199.292 160.401 199.258 161.36 199.225C164.7 199.108 168.057 198.884 171.399 198.944C171.323 198.603 171.289 198.252 171.285 197.895C171.283 197.697 171.291 197.498 171.306 197.295C171.331 196.948 171.56 196.739 171.898 196.703L172.653 196.622L172.905 196.597C174.32 196.464 175.901 196.436 176.979 197.371C177.558 197.876 178.025 199.039 177.741 199.814C178.4 200.04 179.028 200.33 179.601 200.696C180.735 200.315 181.927 200.358 183.067 200.755L183.203 200.803C184.014 201.101 185.163 201.665 185.604 202.47C184.534 195.217 183.093 188.025 181.281 180.921C180.124 178.084 178.662 175.372 176.89 172.869C172.426 166.563 165.995 162.226 160.219 157.24C159.709 157.801 159.16 158.335 158.647 158.849L158.429 159.068C157.383 160.127 156.293 161.141 155.178 162.127C152.848 164.188 150.395 166.09 147.96 168.022C143.051 171.918 138.613 176.055 134.921 181.141C134.854 181.232 134.67 181.179 134.722 181.057C137.254 175.034 142.505 170.455 147.274 166.206C149.782 163.972 152.349 161.792 154.761 159.452C155.885 158.362 156.974 157.233 158.002 156.05L158.257 155.754C158.929 154.967 160.502 152.565 161.542 154.298C161.76 154.66 161.75 155.124 161.542 155.487C161.247 156.003 160.872 156.495 160.462 156.967C161.919 157.76 163.347 158.598 164.744 159.484C164.663 159.057 164.683 158.585 164.758 158.113L164.782 157.963L164.884 157.377C165.03 156.513 165.105 155.71 164.557 154.868C163.872 153.814 162.581 153.485 161.552 152.876C160.367 152.175 159.748 151.236 159.113 150.044C157.898 147.763 155.152 146.849 152.792 146.115L152.495 146.023C150.314 145.346 147.955 144.985 145.775 145.634C145.979 146.587 146.247 147.525 146.582 148.44C146.938 149.413 147.751 150.496 147.667 151.547C147.61 152.275 146.737 153.053 146.013 152.497C144.988 151.71 144.783 150.428 144.508 149.207C144.242 148.026 144.073 146.816 144.001 145.607C143.931 144.443 143.985 143.279 144.129 142.123L144.239 141.273L144.266 141.076C144.385 140.217 144.564 139.316 145.046 138.643C145.093 138.579 145.207 138.577 145.228 138.667ZM115.475 133.839C115.49 133.908 115.501 133.976 115.511 134.043C115.582 134.333 115.608 134.611 115.599 134.891C115.603 134.992 115.596 135.093 115.577 135.193C115.539 135.522 115.46 135.86 115.353 136.229C115.125 137.014 114.864 137.79 114.572 138.555C113.996 140.067 113.315 141.509 112.473 142.892C110.952 145.389 109.02 147.463 106.741 149.255C107.173 149.612 107.596 149.983 108.02 150.347C110.067 152.11 112.059 153.953 113.989 155.844C117.415 159.203 120.773 162.624 124.052 166.127C125.669 167.855 127.256 169.606 128.835 171.368L128.887 171.427L128.942 171.494C129.503 172.172 130.624 173.789 131.46 173.53C131.882 173.398 132.326 172.768 132.614 172.468L133.144 171.915C133.32 171.73 133.495 171.544 133.667 171.355C136.751 167.976 139.669 164.466 142.408 160.797C143.745 159.008 145.038 157.184 146.283 155.329C146.923 154.375 147.552 153.413 148.167 152.442C148.763 151.504 149.244 150.495 150.121 149.795C150.765 149.281 151.658 149.752 151.495 150.595C151.24 151.922 150.322 153.044 149.599 154.166C148.872 155.293 148.129 156.409 147.369 157.513C145.907 159.64 144.381 161.721 142.8 163.761C141.439 165.517 140.019 167.228 138.561 168.905L138.162 169.361C136.593 171.15 135.054 173.05 133.32 174.683C131.768 176.145 130.073 175.719 128.659 174.298C126.87 172.501 125.21 170.558 123.489 168.696C120.051 164.974 116.576 161.281 113.066 157.627L111.912 156.425C110.566 155.02 109.226 153.606 107.921 152.166L107.753 151.978C106.264 150.304 104.751 148.205 102.635 147.354C102.482 147.292 102.538 147.075 102.704 147.106C104.058 147.356 105.189 148.039 106.241 148.854C107.187 147.289 108.03 145.639 108.766 143.951L108.294 143.746C104.917 142.286 101.111 140.814 97.4856 141.051C96.0245 141.146 94.4655 141.7 93.4567 142.797C92.5432 143.791 92.0871 145.131 91.2488 146.19C90.2886 147.402 89.0362 147.948 87.4992 147.997L86.7518 148.02C85.8922 148.048 85.0679 148.093 84.196 148.282C81.8336 148.795 79.343 149.626 77.3617 151.046C76.643 151.56 75.901 152.268 75.5535 153.048C75.2089 153.821 75.1098 154.726 75.0762 155.56C75.06 155.967 75.1819 156.504 75.08 156.893C75.0917 156.848 75.0969 156.872 75.0984 156.918C75.4151 157.168 75.6308 157.583 75.6543 157.997C77.6292 156.968 79.6736 156.065 81.7578 155.252C84.0783 154.346 86.471 153.62 88.864 152.933C91.2061 152.261 93.6576 151.982 96.0452 151.503C96.3492 151.442 96.4548 151.853 96.1715 151.962C93.6621 152.926 91.234 154.069 88.7036 154.976C86.1745 155.883 83.6643 156.864 81.2085 157.955C76.4617 160.065 71.8766 162.749 68.1369 166.391C64.4845 169.948 61.6673 174.269 59.0471 178.613C56.4084 182.989 54.0534 187.523 51.9545 192.181C47.8022 201.396 44.6886 211.084 42.6386 220.98C40.6436 230.611 39.529 240.585 39.9002 250.428C40.0764 255.103 40.6472 259.782 41.9748 264.278C42.6091 266.427 43.403 268.525 44.4061 270.529C45.4639 272.642 46.8891 274.524 47.855 276.672C47.9345 276.849 47.9649 277.019 47.9605 277.176C52.0802 280.747 58.5285 278.341 62.9871 276.209C73.2462 271.302 83.3152 265.931 92.8857 259.768C102.331 253.685 111.283 246.897 120.023 239.85C119.347 239.153 118.751 238.371 118.227 237.663C117.146 236.2 116.332 234.543 115.772 232.814C115.117 230.79 114.914 228.623 115.1 226.508L115.153 225.91C115.331 223.912 115.537 221.885 115.975 219.933C115.979 219.907 115.998 219.897 116.019 219.897C116.04 219.897 116.062 219.91 116.07 219.933C117.251 223.714 117.346 227.778 118.673 231.511C119.207 233.011 120.035 234.461 121.029 235.706C121.458 236.245 121.96 236.712 122.473 237.168C122.508 236.936 122.554 236.706 122.623 236.479L122.679 236.3C122.748 236.083 122.833 235.841 122.951 235.627C122.784 235.579 122.622 235.526 122.461 235.467C122.334 235.421 122.307 235.216 122.461 235.182C122.881 235.085 123.315 235.036 123.756 235.015C123.826 235.004 123.893 235.002 123.961 235.006C124.787 234.981 125.628 235.04 126.424 235.053C127.804 235.074 129.179 235.099 130.557 235.161C133.193 235.275 136.17 235.78 138.765 235.167C141.122 234.609 143.446 233.036 145.337 231.557C146.989 230.264 148.263 228.727 149.634 227.195C149.536 227.21 149.438 227.225 149.341 227.238L148.457 227.36C147.341 227.509 146.016 227.626 145.13 227.089C144.792 226.884 144.889 226.419 145.234 226.292C146.138 225.961 147.26 226.235 148.223 226.189C148.979 226.153 149.744 226.073 150.49 225.916C150.735 225.865 150.978 225.806 151.219 225.737C152.985 225.227 155.06 223.435 153.657 221.478C153.604 221.404 153.663 221.336 153.735 221.323C153.767 221.317 153.8 221.323 153.828 221.347C155.425 222.67 154.595 225.041 153.084 226.058C152.565 226.409 151.977 226.654 151.369 226.833C151.485 227.047 151.506 227.309 151.366 227.558C150.184 229.668 148.181 231.521 146.304 233.011C144.378 234.541 142.155 235.985 139.766 236.661C137.007 237.439 133.975 236.854 131.176 236.606C129.659 236.473 128.146 236.314 126.631 236.139C126.226 236.093 125.805 236.057 125.378 236.017C125.78 236.545 126.099 237.154 126.308 237.519C126.988 238.707 126.361 240.271 125.043 240.634C124.905 240.673 124.764 240.694 124.624 240.698C124.269 241.41 123.424 241.934 122.643 241.666C122.303 241.55 121.975 241.391 121.66 241.201C116.744 245.521 111.568 249.575 106.244 253.375C96.3716 260.421 86.0235 266.857 75.2934 272.515C72.8765 273.789 70.4412 275.029 67.9852 276.221L65.8713 277.241C63.5314 278.367 61.1368 279.487 58.6519 280.186C58.1674 280.323 57.6602 280.433 57.1405 280.517C57.1337 280.564 57.132 280.608 57.1351 280.651C56.6678 280.713 56.2601 280.723 55.912 280.679L55.8327 280.669C52.7869 280.882 49.5289 280.138 47.5694 277.912C47.2428 278.141 46.7666 278.167 46.3464 277.837C44.2331 276.178 42.9733 273.652 41.8677 271.241C40.7467 268.795 39.8681 266.246 39.2224 263.635C37.9329 258.419 37.4214 253.039 37.3944 247.674C37.2969 227 42.4726 206.144 51.4624 187.583C53.7424 182.876 56.2557 178.256 59.0457 173.831C61.8281 169.418 65.059 165.317 69.1967 162.099C70.3865 161.173 71.6243 160.327 72.901 159.548C72.0441 159.123 71.7038 158.042 71.6438 157.083C71.5107 154.951 71.7646 152.495 73.0124 150.696C74.7627 148.172 77.896 146.616 80.8014 145.86C82.3181 145.465 83.8869 145.235 85.4514 145.157C86.258 145.117 87.0961 145.249 87.893 145.162C88.5961 145.086 89.0309 144.666 89.4353 144.114C90.4711 142.7 91.1455 141.216 92.6313 140.179C94.1558 139.115 96.1314 138.708 97.9679 138.818C100.107 138.947 102.059 139.79 103.944 140.76C105.644 141.634 107.295 142.603 108.904 143.636C109.199 142.945 109.477 142.248 109.735 141.55C110.236 140.194 110.672 138.796 111.026 137.395C111.384 135.975 111.332 134.099 112.415 133.031C113.356 132.102 115.17 132.467 115.475 133.839ZM188.464 228.622L188.456 228.624C186.266 229.922 185.218 233.167 184.187 234.586C184.272 235.061 184.331 235.545 184.447 235.995C184.713 237.029 185.062 238.054 185.465 239.039C186.175 240.778 187.065 242.435 187.887 244.122C188.548 245.478 189.196 246.859 189.7 248.287C189.645 248.342 189.595 248.406 189.552 248.487C189.005 249.511 188.577 249.31 187.568 249.086L187.568 249.084C186.991 247.318 186.158 245.658 185.41 243.963L185.229 243.549L185.049 243.135C184.424 241.684 183.854 240.22 183.522 238.665C183.31 237.674 183.224 236.655 183.211 235.642C182.664 236.093 182.007 236.416 181.179 236.541C179.407 236.808 177.802 235.698 176.358 234.808L176.033 234.608C175.129 234.058 174.233 233.55 173.191 233.29C172.007 232.994 170.784 232.994 169.582 232.844C169.438 232.825 169.293 232.806 169.147 232.783C169.616 234.336 169.833 236.023 170.113 237.579C170.501 239.76 170.818 241.96 171.122 244.154C171.714 248.406 172.126 252.692 172.335 256.981C172.537 261.133 172.435 265.269 172.285 269.42L172.21 271.444C172.15 273.093 172.101 274.742 172.13 276.391C172.21 276.397 172.291 276.41 172.371 276.429C173.203 276.623 173.772 277.473 174.532 277.851C176.138 278.65 178.077 278.64 179.787 278.236C183.674 277.314 186.906 274.601 189.036 271.285C191.592 267.307 192.53 262.625 192.5 257.942C192.465 252.671 191.612 247.631 190.424 242.543L190.348 242.218C189.348 237.978 188.722 228.663 188.464 228.622ZM79.6101 217.987C79.6323 219.405 79.0559 220.921 78.7392 222.299C78.3982 223.783 78.0581 225.267 77.7133 226.751L77.4032 228.08C77.145 229.188 76.8904 230.296 76.6623 231.411C76.4747 232.327 76.3961 233.535 76.0887 234.545C79.7451 233.065 83.4072 231.601 87.0632 230.126C91.5674 228.309 96.0928 226.542 100.608 224.754C105.105 222.974 109.578 220.949 114.167 219.428C115.259 219.064 115.999 220.808 114.953 221.292C110.292 223.454 105.361 225.147 100.586 227.041L93.6797 229.784C87.3483 232.297 81.0125 234.798 74.6449 237.213C70.3075 238.857 65.9871 240.55 61.6223 242.112C59.5413 242.856 57.4416 243.56 55.3709 244.331C53.6364 244.978 51.7604 245.937 51.1181 247.801C51.0843 247.899 50.9512 247.859 50.966 247.759C51.2259 245.954 52.5655 244.826 54.0759 243.972C56.0805 242.836 58.2823 242.009 60.3984 241.098L60.6864 240.973C65.0075 239.088 69.3634 237.279 73.7322 235.5C73.6889 235.394 73.6633 235.281 73.6614 235.163L73.649 235.166C73.5695 234.358 73.9399 233.638 74.2063 232.886L74.9704 230.729C75.4796 229.293 75.9363 227.839 76.4068 226.39C76.8989 224.876 77.3956 223.363 77.8914 221.849C78.3114 220.568 78.5937 219.04 79.3122 217.894C79.3988 217.756 79.6375 217.834 79.6101 217.987ZM163.755 214.799L163.701 215.074C163.637 215.396 163.578 215.721 163.563 216.046C163.521 216.898 163.618 217.749 163.844 218.572C164.066 219.385 164.376 220.172 164.818 220.892C165.236 221.571 165.843 222.103 166.229 222.799C166.269 222.872 166.294 222.946 166.305 223.018C166.453 222.957 166.599 222.902 166.74 222.858C167.919 222.484 169.123 222.171 170.344 221.936L170.151 221.923L170.026 221.913C167.985 221.741 166.06 221.073 166.476 218.69C166.712 217.343 167.769 216.439 168.901 215.799L169.043 215.721C169.104 215.687 169.168 215.653 169.229 215.623C168.204 215.45 167.461 215.237 166.204 215.025C165.388 214.888 164.571 214.812 163.755 214.799ZM70.5463 185.446C72.5525 189.501 74.0617 193.813 75.2005 198.187C75.7502 200.3 76.2168 202.433 76.5919 204.583L76.7151 205.301L76.7852 205.691C77.1356 207.608 77.5807 209.684 77.066 211.554C76.898 212.165 75.8839 212.407 75.6 211.746C74.7435 209.751 74.8639 207.457 74.6157 205.322C74.3548 203.082 73.9988 200.852 73.5551 198.641C72.703 194.392 71.5068 190.242 70.1735 186.124L70.0248 185.666C69.9116 185.361 70.4047 185.16 70.5463 185.446ZM147.659 203.587C147.061 203.868 146.463 204.126 145.935 204.384C145.895 204.405 145.853 204.424 145.81 204.445C146.408 204.344 147.008 204.249 147.608 204.16C147.602 203.965 147.621 203.773 147.659 203.587ZM171.053 201.556C170.963 201.585 170.884 201.632 170.815 201.697L170.781 201.731C170.699 201.808 170.64 201.898 170.606 202.003C170.554 202.104 170.529 202.212 170.534 202.329L170.564 202.553C170.604 202.697 170.676 202.821 170.781 202.926L170.952 203.058C171.067 203.125 171.191 203.163 171.322 203.172L171.379 203.174L171.55 203.174C171.648 203.171 171.739 203.147 171.826 203.101C171.916 203.072 171.995 203.025 172.064 202.96L172.098 202.926C172.18 202.85 172.238 202.759 172.272 202.654C172.318 202.568 172.342 202.476 172.345 202.378L172.345 202.329L172.315 202.104C172.28 201.978 172.22 201.868 172.136 201.771L172.098 201.731L171.927 201.598C171.812 201.532 171.688 201.494 171.557 201.485L171.5 201.483H171.379C171.262 201.479 171.154 201.503 171.053 201.556ZM165.556 201.27C165.107 201.352 164.853 201.897 164.966 202.31C165.092 202.767 165.526 202.97 165.962 202.907L166.005 202.9C166.516 202.806 167.017 202.843 167.503 203.022C167.931 203.18 168.429 202.845 168.543 202.431C168.673 201.959 168.382 201.55 167.953 201.392C167.181 201.107 166.354 201.123 165.556 201.27ZM76.5469 171.247C77.5691 172.745 78.2074 174.738 78.837 176.45L78.9 176.62C79.5693 178.42 80.2149 180.234 80.817 182.058C82.0189 185.699 83.5852 189.508 83.8747 193.354C83.9281 194.064 82.8424 194.348 82.5276 193.719C81.6232 191.911 81.1369 190.025 80.6017 188.086C80.0913 186.237 79.5595 184.395 79.0276 182.552C78.4958 180.71 77.9814 178.862 77.4576 177.018C76.9483 175.224 76.2391 173.229 76.1224 171.362C76.1072 171.119 76.4294 171.074 76.5469 171.247ZM99.6192 159.182C100.984 160.129 102.101 161.515 103.256 162.7C104.428 163.903 105.583 165.117 106.729 166.344C108.642 168.397 110.521 170.482 112.461 172.51C116.328 176.55 120.703 180.267 126.04 182.166C127.332 182.626 126.766 184.699 125.471 184.23C120.012 182.25 115.49 178.589 111.501 174.448C109.435 172.303 107.54 170.011 105.691 167.678C104.826 166.587 103.968 165.492 103.121 164.386L102.615 163.721C101.551 162.317 100.249 160.917 99.4702 159.331C99.4265 159.242 99.5224 159.115 99.6192 159.182Z" fill="black"/>
<path fill-rule="evenodd" clip-rule="evenodd" d="M163.535 85.4321C161.623 77.3683 157.443 69.8641 150.75 63.7993C130.61 43.8804 93.625 54.692 93.7926 84.7084C93.0703 88.2143 92.777 91.8191 93.0162 95.3945C93.115 96.92 93.775 99.049 92.8884 100.422C90.8883 102.99 89.7259 104.884 90.4066 108.3C90.9753 111.284 93.0048 113.397 95.7436 114.521C97.3862 114.992 98.9448 116.019 99.5532 117.585C103.209 124.281 105.918 129.851 111.682 134.415C113.169 135.59 128.424 142.637 133.45 142.637C148.166 142.637 166.712 137.304 167.02 120.861C167.073 117.25 166.439 113.596 166.042 110.013C165.075 101.836 165.416 93.3636 163.535 85.4321Z" fill="white"/>
<path fill-rule="evenodd" clip-rule="evenodd" d="M163.204 81.3988C163.208 81.299 163.351 81.2766 163.379 81.3751C163.926 83.3163 164.236 85.2939 164.664 87.2654C165.076 89.1644 165.465 91.0689 165.788 92.9846C166.399 96.6 166.914 100.225 167.392 103.859L167.511 104.768C168.343 111.163 169.717 117.825 168.516 124.257C167.491 129.746 164.053 134.169 159.623 137.412C155.428 140.483 150.342 142.454 145.293 143.574C139.873 144.777 133.449 145.136 129.039 141.16C127.274 139.568 129.68 136.409 131.595 137.846C136.092 141.218 141.813 140.224 146.887 138.882L147.041 138.841C151.495 137.654 155.978 135.856 159.514 132.821C163.423 129.466 165.356 124.809 165.579 119.702C165.704 116.833 165.437 113.967 165.149 111.115L165.116 110.798C164.785 107.536 164.438 104.275 164.118 101.012C163.825 98.0364 163.573 95.0434 163.439 92.0544L163.377 90.5469C163.248 87.5075 163.073 84.4236 163.204 81.3988ZM110.462 56.1441C117.78 52.3328 126.191 50.9687 134.334 52.2478C142.164 53.4775 149.349 57.5189 154.719 63.3139C157.341 66.1433 159.669 69.416 161.156 72.9914C161.895 74.7676 162.473 76.6205 162.781 78.5235C162.94 79.5019 163.096 80.5155 163.125 81.5074C163.153 82.4257 162.883 83.2869 162.915 84.2205C162.92 84.3665 162.696 84.3946 162.662 84.2547C162.408 83.2138 161.795 82.4267 161.411 81.438C161.123 80.6998 160.797 79.9791 160.465 79.2605L160.18 78.6448C159.352 76.8553 158.363 75.1394 157.384 73.4296C155.413 69.9858 152.884 66.8561 149.923 64.2153C144.724 59.5787 138.054 56.5858 131.093 56.0468C123.867 55.4872 116.538 57.2101 110.368 61.0267C104.197 64.843 99.5317 70.7756 97.1093 77.6063C95.8871 81.0532 95.2121 84.6446 95.0552 88.2964C94.9757 90.1448 95.0499 92.0087 95.1794 93.8536L95.2437 94.7334C95.3191 95.7884 95.3708 96.8394 95.2132 97.8688C96.3261 97.5216 97.4928 97.3777 98.6636 97.5495C100.403 97.8048 101.443 98.5183 102.223 100.073C102.264 100.155 102.182 100.236 102.101 100.195C101.09 99.6902 99.4527 99.9561 98.3811 100.221C97.2661 100.497 96.2617 100.976 95.3142 101.624C93.5613 102.822 92.1872 104.679 91.85 106.809C91.524 108.867 92.3685 110.95 93.7869 112.425C94.5171 113.185 95.3898 113.841 96.3669 114.25C97.5528 114.747 98.7266 114.732 99.7757 115.552C100.424 116.059 100.268 116.927 99.8277 117.49C102.041 119.918 104.004 122.574 106.217 125.011C107.243 126.141 108.261 127.272 109.244 128.439L109.611 128.878C110.592 130.063 112.154 131.315 112.603 132.805C112.882 133.732 111.889 134.945 110.886 134.522C109.347 133.874 108.248 132.188 107.208 130.894L107.141 130.81C106.05 129.47 105.082 128.054 104.197 126.571L103.905 126.083C102.305 123.39 100.718 120.597 99.6971 117.638C99.6297 117.707 99.5583 117.77 99.4831 117.824C98.0127 118.87 95.8751 118.066 94.4066 117.386C93.0202 116.745 91.7492 115.781 90.7586 114.618C88.6041 112.09 87.6109 108.816 88.3305 105.535C88.94 102.755 90.8657 100.051 93.3904 98.6455C92.225 97.3035 91.7425 95.4943 91.4214 93.7255C91.0115 91.4677 90.9297 89.1538 91.0411 86.8642C91.2631 82.3039 92.4363 77.8087 94.2498 73.6329C97.4945 66.161 103.231 59.911 110.462 56.1441ZM95.0608 106.004C96.5967 105.716 98.028 105.646 99.5094 106.297C101.116 107.002 102.247 108.167 103.299 109.532C104.495 111.085 101.429 112.781 100.656 110.72L100.633 110.656C100.426 110.046 100.056 109.456 99.5859 108.913C99.445 109.129 99.2565 109.319 99.0351 109.428C98.767 109.56 98.3576 109.469 98.2932 109.126C98.2217 108.746 98.3008 108.285 98.5201 107.963L98.5501 107.919C97.4844 107.061 96.2027 106.435 95.0608 106.233C94.9467 106.213 94.9479 106.025 95.0608 106.004Z" fill="black"/>
<path fill-rule="evenodd" clip-rule="evenodd" d="M143.152 128.274C141.732 127.695 140.465 126.728 139.538 125.493C139.216 125.063 139.133 124.61 139.2 124.195C139.276 123.729 139.552 123.306 139.928 123.023C140.305 122.739 140.777 122.598 141.233 122.67C141.63 122.732 142.024 122.949 142.337 123.399L142.402 123.489C142.953 124.235 143.67 124.846 144.488 125.241C145.276 125.621 146.158 125.798 147.07 125.695C148.808 125.499 150.005 124.559 151.278 123.282C151.436 123.121 151.594 122.955 151.752 122.786C151.852 122.633 151.992 122.534 152.146 122.483C152.317 122.425 152.511 122.429 152.689 122.491C152.86 122.55 153.013 122.664 153.116 122.815C153.213 122.958 153.269 123.135 153.251 123.339C153.134 124.661 152.443 125.842 151.461 126.769C150.37 127.799 148.924 128.511 147.563 128.761C146.064 129.036 144.536 128.839 143.152 128.274ZM148.271 107.866C149.866 108.836 152.297 111.098 150.581 113.503C148.56 115.624 145.652 113.193 144.219 112.093C142.89 111.241 141.396 113.433 142.629 114.428C152.986 122.099 157.19 108.12 149.078 106.726C148.184 106.572 147.853 107.566 148.271 107.866ZM129.711 98.9429C129.887 96.7541 133.219 96.257 133.551 98.423C133.847 100.363 133.498 102.145 132.624 103.892C131.79 105.561 129.692 104.783 129.533 103.263C129.32 101.226 129.601 100.304 129.711 98.9429ZM155.076 97.9738C155.541 97.3652 156.212 96.9496 157.015 97.1845C159.526 97.9185 158.786 101.485 157.904 103.22C157.425 104.163 155.876 104.402 155.176 103.572C154.035 102.219 153.489 99.5156 154.939 98.1825C154.979 98.1136 155.023 98.044 155.076 97.9738ZM132.589 89.3654L132.986 89.2959C134.213 89.0836 135.738 88.8796 136.606 89.8665C137.067 90.3898 137.225 91.3624 136.606 91.8633C135.518 92.7446 134.314 92.4031 133.01 92.4777C131.935 92.5394 130.902 92.7174 129.867 93.0135C127.595 93.663 125.744 94.8486 123.804 96.1506C123.55 96.3213 123.29 95.9956 123.411 95.7574C124.531 93.563 126.701 91.7604 128.875 90.6616C130.036 90.0751 131.305 89.5885 132.589 89.3654ZM152.787 88.3823L153.091 88.4445C156.395 89.1353 160.687 90.5153 162.251 93.7615C162.311 94.2205 162.248 94.3189 162.197 94.3832L162.18 94.4046C162.137 94.4595 162.104 94.5351 161.905 94.5976C161.85 94.5844 161.794 94.5705 161.738 94.5557C161.02 94.3677 160.453 94.1087 159.904 93.84L159.308 93.5465C158.617 93.2076 157.92 92.881 157.181 92.6399C155.605 92.1254 153.983 91.7631 152.337 91.5696C151.98 91.5277 151.636 91.4072 151.365 91.2006C151.108 91.0046 150.911 90.7332 150.821 90.3724C150.705 89.9056 150.739 89.5521 150.989 89.1309C151.177 88.8146 151.447 88.5953 151.756 88.4694C152.071 88.3411 152.43 88.3108 152.787 88.3823Z" fill="black"/>
<path fill-rule="evenodd" clip-rule="evenodd" d="M156.415 116.417C153.452 115.917 150.373 116.655 147.516 117.443C142.977 114.462 137.096 117.471 133.846 121.195C132.733 122.112 130.397 123.329 131.628 125.078C131.161 126.314 131.036 126.896 132.002 125.451C137.467 126.08 143.331 124.891 148.74 123.769C150.581 124.389 152.208 125.837 154.232 125.341C156.146 125.749 158.218 126.129 159.946 124.9C161.262 124.847 164.189 127.211 164.142 124.462C163.735 121.827 158.513 117.443 156.415 116.417Z" fill="white"/>
<path fill-rule="evenodd" clip-rule="evenodd" d="M158.637 124.875C155.42 125.231 152.157 124.708 149.463 122.839C149.182 122.644 148.905 122.646 148.679 122.761C148.404 122.73 148.123 122.84 147.96 123.154C147.283 124.457 145.041 124.167 143.808 124.194C139.777 124.271 135.604 124.049 131.725 125.268C135.435 118.012 140.567 114.879 148.508 117.728C147.791 118.305 151.369 116.953 151.683 116.927C157.177 115.55 161.71 120.16 163.924 124.728C162.249 124.33 160.372 124.683 158.637 124.875ZM166.311 126.11C163.889 120.651 159.112 114.649 152.449 115.592C151.081 115.794 149.642 116.729 148.265 116.56C144.277 115.087 140.986 114.338 136.992 116.72C135.298 116.847 125.763 128.657 130.294 127.692C135.856 124.497 145.526 127.507 148.98 124.649C155.761 129.102 161.274 124.265 165.095 127.048C165.76 127.658 166.692 126.899 166.311 126.11Z" fill="black"/>
<path fill-rule="evenodd" clip-rule="evenodd" d="M167.178 109.154C164.613 111.805 160.332 112.566 156.919 111.144C148.156 107.481 152.445 96.0578 159.203 92.9901C160.047 92.7796 161.175 92.2802 162.203 92.1669C162.296 92.1212 162.498 92.2533 162.744 92.1284C170.195 92.9607 171.892 104.533 167.178 109.154ZM138.915 109.832C136.039 113.649 130.69 114.827 126.32 113.052C117.687 109.651 120.749 99.5214 126.656 95.5501C139.133 90.8601 144.285 102.794 138.915 109.832ZM120.201 101.374C120.193 101.371 120.185 101.369 120.177 101.365C120.222 101.345 120.268 101.325 120.313 101.304C120.299 101.343 120.282 101.381 120.268 101.42C120.246 101.404 120.226 101.386 120.201 101.374ZM173.117 97.2481C172.413 97.2496 171.395 97.3654 170.812 97.8542C169.374 93.0031 164.067 88.5134 159.451 91.7872C155.816 92.9566 153.119 95.5501 151.586 98.9981C148.822 97.3533 144.476 98.0557 142.079 100.231C140.509 95.0418 136.646 93.2248 132.048 92.9566C127.029 92.1342 122.027 97.0103 120.466 100.922C119.168 100.774 117.229 100.361 116.008 101.162C108.084 99.0834 94.2299 97.9373 92.619 99.0923C91.471 99.533 90.841 102.244 92.4445 102.39C93.8418 102.192 92.2814 100.404 93.6899 100.209C101.195 99.7433 108.48 101.255 115.906 101.89C116.569 102.782 118.711 103.08 119.854 102.722C118.054 109.357 121.939 113.872 127.76 115.224C136.775 117.296 144.617 109.229 142.26 100.838C144.991 99.4791 148.132 99.5374 151.106 100.253C146.135 118.554 175.598 117.733 170.997 98.4813C174.059 100.005 174.724 97.5556 173.117 97.2481Z" fill="black"/>
</svg>
