<svg width="240" height="324" viewBox="0 0 240 324" fill="none" xmlns="http://www.w3.org/2000/svg">
<path fill-rule="evenodd" clip-rule="evenodd" d="M181.079 176.597C179.238 169.454 177.544 166.425 174.273 163.942C171.213 161.62 166.747 159.669 160.23 158.244C153.442 157.057 153.249 153.528 151.547 147.857C151.051 146.152 148.59 145.698 147.528 146.927C147.379 146.766 147.222 146.618 147.061 146.484C147.205 145.671 146.022 143.34 146.061 142.562C146.474 134.444 143.819 130.367 137.193 128.852C135.752 128.522 125.963 128.328 124.558 128.716C118.415 130.415 112.368 135.808 113.293 142.305C111.365 144.826 109.478 146.364 106.503 147.176C99.8828 148.017 93.2631 148.765 86.641 149.405C73.6784 151.438 61.5249 158.301 53.2182 168.309C52.4521 169.233 52.2307 170.487 52.9069 171.472C52.3772 173.742 49.3956 179.246 51.7417 180.802C47.8837 190.03 39.0072 207.868 38.9905 212.965C38.9205 234.373 41.2327 262.24 62.3546 274.087C63.2003 274.919 63.3212 275.839 63.6874 277.076C64.616 280.974 67.9885 283.759 71.6798 283.532C89.8636 283.936 107.476 281.717 125.66 281.61C133.679 281.563 143.323 282.76 150.29 283.557C157.256 284.355 164.288 283.65 170.973 281.61C171.537 282.498 172.677 283.015 173.833 282.76C180.763 281.383 186.368 277.111 191.249 272.442C192.74 269.728 198.566 261.995 196.25 259.304C198.349 250.428 198.24 240.892 194.51 232.441C195.039 230.892 194.075 229.189 194.51 227.59C194.825 226.432 195.631 225.953 196.037 224.807C196.608 223.194 195.987 221.029 195.344 219.383C195.081 218.563 195.829 217.68 196.037 216.843C197.023 212.894 194.765 213.242 193.136 210.602C193.161 210.594 193.584 208.71 193.582 208.719C193.831 207.374 193.207 205.65 192.662 204.527C192.294 203.768 191.505 203.293 190.721 203.38C191.51 200.7 192.509 198.47 193.582 195.887C195.481 191.336 197.884 186.977 200.61 182.857C201.726 181.17 200.227 179.216 198.42 179.101C192.573 178.729 186.789 177.887 181.079 176.597Z" fill="white"/>
<path fill-rule="evenodd" clip-rule="evenodd" d="M164.013 211.018C161.675 210.1 159.156 209.593 156.625 209.397C157.988 209.158 159.355 208.927 160.733 208.809C161.694 208.727 162.585 208.735 163.308 209.464C163.79 209.95 164.016 210.576 164.333 211.151C164.229 211.104 164.121 211.06 164.013 211.018ZM189.116 202.441C185.286 202.636 181.451 203.547 177.987 205.197C176.569 205.873 175.284 206.85 174.908 208.456C174.718 209.276 174.765 210.124 174.866 210.952C174.942 211.58 174.961 212.381 175.506 212.806C175.599 212.878 175.699 212.933 175.802 212.973C174.524 213.55 173.307 214.243 172.225 214.957C171.237 215.61 170.22 216.616 169.764 217.751C169.726 217.622 169.688 217.502 169.65 217.388C168.872 215.089 167.675 213.205 165.788 211.939C166.122 211.789 166.352 211.434 166.244 210.944C165.796 208.896 163.905 207.116 161.77 207.243C159.431 207.38 156.919 208.232 154.804 209.308C154.033 209.291 153.264 209.302 152.503 209.335C152.372 209.34 152.379 209.517 152.503 209.532C153.12 209.61 153.737 209.697 154.354 209.798C155.82 210.033 157.282 210.331 158.712 210.701C160.428 211.145 162.203 211.59 163.806 212.366C166.916 213.873 168.841 217.813 168.446 221.241C168.38 221.803 168.163 223.502 167.383 223.327C166.724 223.179 166.462 221.803 166.232 221.294C165.615 219.941 164.503 219.058 163.17 218.459C161.605 217.756 159.93 217.28 158.307 216.727C157.388 216.412 156.469 216.096 155.548 215.784C154.606 215.461 153.71 215.014 152.706 215.241C152.1 215.378 152.03 216.101 152.37 216.515C152.888 217.147 153.657 217.333 154.403 217.593C155.387 217.935 156.37 218.278 157.352 218.62C158.871 219.148 160.462 219.594 161.943 220.241L161.896 220.347C161.776 220.313 161.634 220.433 161.658 220.581C161.88 221.949 162.188 223.53 161.845 224.899C161.575 225.986 160.622 227.188 159.384 226.869C159.579 226.691 159.651 226.385 159.52 226.102C159.029 225.054 152.607 220.915 152.034 222.452C152.015 222.507 152.074 222.547 152.121 222.539C152.609 222.437 153.427 223.27 153.817 223.534C154.381 223.915 154.954 224.286 155.512 224.677C156.122 225.104 156.718 225.553 157.299 226.015C157.756 226.379 158.1 226.757 158.624 226.941C158.349 227.072 158.131 227.315 158.039 227.626C157.802 228.435 157.346 229.122 156.553 229.479C155.723 229.851 154.787 229.617 153.913 229.708C152.721 229.828 151.682 230.395 150.813 231.204C148.99 232.907 148.075 235.909 145.525 236.714C144.002 237.194 142.312 236.891 140.77 236.674C139.048 236.43 137.37 236.238 135.636 236.492C133.975 236.735 132.406 237.31 130.889 238.011C129.467 238.669 127.895 239.413 126.634 240.393C126.374 239.592 126.112 238.8 125.913 237.982C125.444 236.048 125.191 234.078 125.129 232.091C125.072 230.2 125.178 228.3 125.341 226.417C125.421 225.476 125.548 224.54 125.628 223.599C125.649 223.363 125.691 223.109 125.723 222.856C127.975 221.526 130.341 220.508 132.726 219.459C132.733 219.457 132.739 219.453 132.746 219.451C132.82 219.417 132.891 219.385 132.965 219.354C132.963 219.349 132.961 219.345 132.957 219.341C133.23 219.174 133.42 218.952 133.534 218.702C136.971 216.422 139.844 213.309 141.987 209.678C142.884 208.156 143.749 206.577 144.923 205.244C146.174 203.821 147.659 202.976 149.497 202.536C151.646 202.021 153.86 201.712 156.061 201.537C157.263 201.442 158.607 201.294 159.917 201.3C160.83 201.306 161.723 201.384 162.543 201.611C163.758 201.944 164.468 202.868 165.23 203.802C165.959 204.699 166.684 205.597 167.364 206.531C168.008 207.416 168.617 208.331 169.145 209.291C169.462 209.866 169.756 210.458 170.003 211.068C170.089 211.284 170.203 211.529 170.256 211.753C170.309 211.979 170.212 212.218 170.465 212.218C169.42 212.233 169.43 213.905 170.47 213.843C174.539 213.607 168.71 205.66 167.858 204.553C166.652 202.984 165.408 200.938 163.477 200.209C163.449 200.199 163.42 200.188 163.392 200.18C163.954 199.647 164.398 199.009 164.822 198.36C165.26 197.692 165.781 196.927 165.925 196.134C166.016 195.63 165.389 195.342 165.091 195.784C164.658 196.428 164.449 197.244 164.125 197.952C163.796 198.671 163.394 199.349 163.077 200.074C162.315 199.839 161.491 199.732 160.652 199.696C161.71 198.263 163.519 195.498 163.737 195.143C164.738 193.499 165.691 191.804 166.601 190.107C167.586 188.268 168.429 186.353 169.371 184.493C169.906 183.439 170.444 182.376 171.038 181.353C171.243 181.002 171.463 180.651 171.712 180.332C171.76 180.269 171.822 180.216 171.879 180.156C171.944 180.12 172.012 180.08 172.05 180.059C172.392 179.863 172.513 179.406 172.753 179.117C173.138 178.65 173.59 178.595 174.169 178.588C175.403 178.575 176.641 178.624 177.872 178.658C179.683 178.709 181.491 178.78 183.3 178.876C183.847 178.905 184.392 178.935 184.939 178.969C187.57 179.125 190.198 179.33 192.82 179.582C195.139 179.803 197.459 180.165 199.781 180.338C196.637 187.81 193.151 195.146 189.205 202.226C189.165 202.297 189.135 202.369 189.116 202.441ZM171.674 221.689C171.167 221.921 170.675 222.211 170.216 222.541C170.292 222.027 170.311 221.486 170.29 220.943C170.668 221.348 171.152 221.581 171.674 221.689ZM193.319 208.837C193.283 208.841 193.249 208.86 193.232 208.896C192.53 210.343 192.824 211.96 193.969 213.095C194.569 213.687 195.877 214.355 195.835 215.327C195.799 216.113 194.943 216.773 194.578 217.422C194.238 218.026 194.111 218.69 194.383 219.345C194.732 220.184 195.706 220.518 196.04 221.342C196.462 222.388 195.776 223.65 195.294 224.561C194.846 225.404 194.267 226.248 193.883 227.139C191.307 228.473 189.002 230.519 187.021 232.597C184.851 234.869 182.99 237.542 179.544 237.475C179.2 237.468 178.938 237.65 178.781 237.901C177.822 237.946 176.861 237.965 175.902 237.969C174.216 237.977 172.53 237.961 170.846 237.908C170.728 237.5 170.814 236.946 170.808 236.602C170.787 235.492 170.776 234.385 170.73 233.275C170.717 232.967 170.704 232.656 170.692 232.347C171.298 233.444 172.481 233.943 173.829 233.867C175.997 233.74 178.177 233.385 180.323 233.066C181.454 232.899 182.582 232.709 183.708 232.506C184.633 232.341 185.939 232.383 186.585 231.641C186.738 231.468 186.746 231.151 186.507 231.035C185.867 230.72 185.464 230.895 184.76 231.031C183.902 231.197 183.042 231.356 182.18 231.504C180.526 231.791 178.868 232.058 177.205 232.292C176.259 232.425 175.31 232.556 174.361 232.66C173.533 232.749 172.6 232.869 171.932 232.246C170.586 230.986 171.34 228.875 172.192 227.602C172.209 227.577 172.209 227.554 172.202 227.533C173.005 227.344 173.806 227.125 174.604 226.97C176.14 226.674 177.687 226.425 179.235 226.203C182.417 225.749 185.62 225.449 188.818 225.147C189.611 225.07 189.619 223.824 188.818 223.898C184.223 224.318 179.605 224.717 175.071 225.603C173.935 225.823 172.806 226.072 171.685 226.353C171.154 226.484 170.586 226.689 170.03 226.696C169.997 226.696 169.963 226.696 169.929 226.693C168.841 226.66 168.683 225.728 169.28 224.952C169.354 224.857 169.43 224.762 169.509 224.671C170.565 223.411 171.881 222.57 173.237 221.699C174.757 221.492 176.271 221.031 177.759 220.693C181.43 219.856 185.102 219.019 188.776 218.185C189.496 218.02 189.19 216.912 188.47 217.075C185.681 217.707 182.892 218.339 180.104 218.971L176.022 219.897C175.207 220.08 174.188 220.45 173.229 220.584C172.756 220.649 172.297 220.657 171.883 220.56C170.546 220.243 170.478 218.571 171.055 217.578C171.702 216.462 172.923 215.765 174.007 215.133C175.885 214.036 177.883 213.247 179.835 212.339C180.182 212.262 180.528 212.186 180.875 212.11C182.89 211.666 185.193 211.449 187.09 210.635C187.659 210.394 187.348 209.498 186.786 209.511C185.314 209.543 183.773 210.067 182.335 210.377C180.778 210.715 179.219 211.051 177.661 211.387C177.505 211.421 176.58 211.717 176.44 211.652C176.352 211.609 176.32 211.301 176.29 211.098C176.195 210.43 176.126 209.729 176.229 209.058C176.457 207.556 177.71 206.85 178.978 206.273C181.8 204.99 184.895 204.187 187.976 203.866C188.685 203.792 189.395 203.745 190.109 203.722C190.948 203.696 191.639 203.549 192.064 204.375C192.731 205.677 193.099 207.351 193.319 208.837ZM189.398 256.041C188.783 253.913 188.951 251.641 188.529 249.47C188.312 248.351 188.015 247.24 187.691 246.147C187.43 245.264 186.993 244.324 186.944 243.403C186.941 243.341 187.013 243.306 187.063 243.334C187.931 243.831 188.597 244.906 189.092 245.749C189.684 246.758 190.137 247.815 190.502 248.926C191.229 251.14 191.826 253.81 190.888 256.041C190.609 256.705 189.629 256.838 189.398 256.041ZM170.392 227.856C170.912 227.805 171.431 227.706 171.951 227.59C171.37 228.156 170.833 228.839 170.535 229.596C170.489 229.014 170.43 228.435 170.352 227.858C170.364 227.858 170.379 227.858 170.392 227.856ZM165.397 272.149C164.481 271.509 163.813 270.615 163.035 269.825C162.271 269.049 163.466 267.853 164.231 268.63C164.894 269.303 165.469 270.144 166.25 270.689C166.625 270.951 166.799 271.424 166.553 271.846C166.336 272.217 165.772 272.41 165.397 272.149ZM160.286 247.559C161.959 246.835 163.604 246.047 165.355 245.526C166.402 245.214 166.845 246.846 165.805 247.156C164.192 247.636 162.68 248.352 161.139 249.019C160.15 249.446 159.29 247.989 160.286 247.559ZM142.617 247.052C142.208 246.043 143.844 245.607 144.247 246.603C144.711 247.749 145.243 248.866 145.707 250.012C146.116 251.021 144.481 251.457 144.078 250.461C143.614 249.315 143.081 248.199 142.617 247.052ZM125.178 267.219C124.906 267.583 124.452 267.78 124.022 267.523C123.663 267.307 123.443 266.734 123.719 266.366C124.525 265.292 125.341 264.231 126.285 263.273C127.05 262.497 128.245 263.693 127.48 264.469C126.637 265.324 125.898 266.26 125.178 267.219ZM122.685 154.064C123.461 154.594 124.14 155.238 124.803 155.901C125.574 156.671 124.378 157.867 123.608 157.096C123.049 156.538 122.486 155.971 121.832 155.524C121.454 155.266 121.284 154.786 121.529 154.367C121.748 153.993 122.308 153.807 122.685 154.064ZM148.056 181.273C147.618 182.151 147.223 183.013 147.198 184.011C147.171 185.099 145.481 185.1 145.508 184.011C145.54 182.704 146.022 181.571 146.597 180.419C147.083 179.444 148.54 180.302 148.056 181.273ZM157.365 159.421C158.274 158.815 159.119 160.28 158.218 160.881C157.488 161.367 156.758 161.855 156.028 162.342C155.12 162.947 154.274 161.482 155.175 160.882C155.905 160.395 156.635 159.908 157.365 159.421ZM116.989 197.627C116.834 198.702 115.205 198.242 115.359 197.178C115.597 195.533 115.887 193.91 116.333 192.308C116.625 191.26 118.254 191.708 117.962 192.758C117.516 194.36 117.226 195.983 116.989 197.627ZM111.063 216.995C109.975 216.972 109.975 215.281 111.063 215.305C112.048 215.325 113.015 215.585 113.965 215.822C115.021 216.086 114.571 217.716 113.516 217.452C112.713 217.251 111.895 217.013 111.063 216.995ZM108.876 256.011C108.502 256.193 108.118 256.356 107.741 256.529C106.984 256.875 106.228 257.222 105.472 257.569C103.897 258.292 102.323 259.018 100.751 259.746C97.6029 261.204 94.4307 262.61 91.2752 264.052C88.0574 265.522 84.848 267.012 81.6427 268.51C80.1326 269.215 78.611 269.895 77.0924 270.582C75.794 271.169 74.189 272.195 72.7635 272.292C72.6902 272.297 72.6657 272.204 72.7076 272.157C73.2461 271.544 74.1051 271.188 74.8128 270.789C75.5358 270.382 76.2723 270 77.0054 269.611C78.5337 268.801 80.0639 267.998 81.607 267.216C84.6936 265.654 87.7861 264.102 90.8793 262.553C94.034 260.973 97.1846 259.382 100.367 257.858C101.865 257.14 103.365 256.424 104.866 255.711C105.679 255.325 106.492 254.939 107.305 254.554C107.657 254.388 108.004 254.208 108.364 254.059C108.841 253.862 109.204 253.902 109.696 253.78C110.499 253.582 110.846 254.603 110.23 255.048C109.722 255.414 109.455 255.728 108.876 256.011ZM97.5922 273.348C97.4187 272.926 97.7819 272.413 98.1824 272.308C98.6622 272.181 99.0469 272.473 99.2221 272.898C99.6854 274.026 100.345 275.06 101.195 275.934C101.954 276.715 100.76 277.911 99.9998 277.13C98.9352 276.034 98.1704 274.755 97.5922 273.348ZM89.2913 246.208C88.5208 245.437 89.7162 244.242 90.4864 245.013L92.6768 247.204C93.4473 247.975 92.2518 249.17 91.4817 248.399L89.2913 246.208ZM66.8187 242.636C65.2439 243.098 63.4072 243.523 62.3335 244.866C62.2811 244.932 62.193 244.848 62.2245 244.782C63.599 241.932 67.5408 240.932 70.27 239.933C72.2003 239.227 74.181 238.641 76.1783 238.117C75.9786 235.838 76.5292 233.395 76.7206 231.127C76.9249 228.705 77.0912 226.277 77.1765 223.848C77.2638 221.37 77.2849 218.875 77.2034 216.396C77.1222 213.927 76.8017 211.487 76.6615 209.026C76.6479 208.788 76.9792 208.777 77.0506 208.973C77.88 211.257 78.2343 213.787 78.5043 216.196C78.7824 218.677 78.8747 221.151 78.8392 223.646C78.8024 226.212 78.6533 228.772 78.4486 231.329C78.3516 232.541 78.239 233.752 78.1327 234.963C78.0516 235.888 78.014 236.805 77.8255 237.7C79.0302 237.404 80.2376 237.125 81.4412 236.853C85.2791 235.986 89.133 235.182 92.9548 234.245C94.8309 233.786 96.6801 233.235 98.5477 232.746C100.306 232.285 102.163 231.727 103.968 231.521C104.612 231.448 104.694 232.33 104.268 232.629C102.8 233.66 100.851 234.377 99.1564 234.954C97.4553 235.533 95.6869 235.95 93.9434 236.379C90.3072 237.273 86.6367 238.005 82.9716 238.767C79.3116 239.528 75.6446 240.283 72.0258 241.222C70.2831 241.674 68.5462 242.128 66.8187 242.636ZM58.1892 197.402C57.2482 197.955 56.3987 196.493 57.3363 195.942C58.5631 195.222 59.8707 194.68 61.1888 194.152C62.2003 193.747 62.6355 195.383 61.6381 195.783C60.4535 196.257 59.2916 196.755 58.1892 197.402ZM54.7816 260.218C53.8381 260.766 52.988 259.304 53.9288 258.759C55.25 257.992 56.697 257.481 58.0662 256.811C59.0404 256.333 59.896 257.792 58.9191 258.271C57.5501 258.941 56.1029 259.452 54.7816 260.218ZM53.2492 224.561C54.1614 225.428 55.379 225.836 56.527 226.291C57.528 226.688 57.089 228.322 56.0776 227.922C54.6474 227.354 53.1905 226.836 52.054 225.756C51.2635 225.005 52.4607 223.811 53.2492 224.561ZM63.3417 176.135C64.3446 176.529 63.9053 178.163 62.8923 177.766C61.7688 177.325 60.6085 176.989 59.485 176.548C58.4823 176.155 58.9213 174.52 59.9344 174.918C61.0579 175.359 62.2182 175.694 63.3417 176.135ZM81.1457 156.901C82.2114 156.721 82.6652 158.35 81.5951 158.531C80.2675 158.755 78.9602 159.018 77.701 159.505C76.6842 159.899 76.2479 158.263 77.2516 157.875C78.511 157.387 79.8183 157.125 81.1457 156.901ZM87.0285 203.732C86.0514 203.252 86.9088 201.794 87.8814 202.272C88.9065 202.776 89.9685 203.166 91.087 203.404C92.152 203.631 91.6984 205.261 90.6376 205.035C89.3789 204.767 88.1812 204.299 87.0285 203.732ZM92.5849 177.353C93.637 177.064 94.0819 178.696 93.0342 178.983C91.1909 179.488 89.2931 179.751 87.4363 180.2C86.378 180.457 85.9304 178.826 86.9869 178.57C88.8437 178.12 90.7418 177.858 92.5849 177.353ZM116.155 169.074C117.225 169.272 116.769 170.902 115.706 170.705C114.574 170.495 113.427 170.492 112.28 170.491C111.19 170.491 111.192 168.8 112.28 168.801C113.583 168.801 114.87 168.837 116.155 169.074ZM193.027 177.908C190.266 177.644 187.5 177.432 184.73 177.274C184.601 177.267 184.475 177.259 184.346 177.252C184.331 177.223 184.312 177.195 184.293 177.166C183.389 175.838 182.723 174.511 182.147 173.011C181.595 171.582 181.061 170.109 180.211 168.82C179.243 167.351 177.935 166.201 176.502 165.205C175.632 165.79 174.826 166.475 174.087 167.201C173.311 167.964 172.115 166.769 172.892 166.005C173.548 165.36 174.248 164.764 174.988 164.226C174.134 163.706 173.262 163.218 172.411 162.733C169.223 160.913 165.959 159.23 162.628 157.692C161.079 156.975 159.511 156.339 157.933 155.695C157.084 155.348 156.245 154.902 155.396 154.501C155.457 153.9 155.278 153.228 154.817 152.833C154.477 152.543 154.213 152.436 153.807 152.231C153.716 152.199 153.661 152.18 153.636 152.169C153.655 152.174 153.71 152.19 153.801 152.22C154.016 152.32 154.033 152.29 153.851 152.133C153.841 151.791 153.167 151.068 153.013 150.715C152.476 149.504 152.309 148.223 151.517 147.12C150.425 145.601 148.591 145.026 146.882 145.541C146.704 143.713 146.658 141.805 145.969 140.173C145.95 140.129 145.889 140.11 145.861 140.158C145.143 141.382 145.082 142.745 145.027 144.157C144.974 145.482 145.025 146.837 145.198 148.154C145.088 148.238 144.976 148.319 144.86 148.397C144.315 148.756 143.728 149.033 143.111 149.238C141.936 149.627 140.704 149.796 139.473 149.855C136.293 150.007 133.016 149.686 129.89 149.141C126.727 148.589 121.878 147.761 119.064 146.177C117.207 145.134 115.494 143.859 113.757 142.625C114.387 140.596 114.547 138.415 113.913 136.701C113.837 136.496 113.516 136.457 113.455 136.701C113.058 138.336 112.942 139.981 112.413 141.598C112.405 141.621 112.397 141.646 112.388 141.669C112.223 141.558 112.059 141.447 111.894 141.338C111.513 141.086 110.996 141.274 110.768 141.633C107.119 147.384 101.341 147.714 95.2733 148.741C88.633 149.866 81.9592 151.079 75.5747 153.279C69.4691 155.384 63.6339 158.449 59.0114 163.027C57.9649 164.063 56.9864 165.167 56.0627 166.32C56.9564 166.433 57.8426 166.608 58.7175 166.883C59.7533 167.209 59.3082 168.841 58.2681 168.514C57.1438 168.16 56.0069 167.985 54.8585 167.898C51.7176 172.197 49.2685 177.071 47.1508 181.868C43.0888 191.066 40.4447 200.862 39.228 210.835C39.8961 210.435 40.5761 210.053 41.2731 209.698C42.2416 209.206 43.0957 210.665 42.1262 211.158C41.0496 211.706 40.0038 212.31 38.9906 212.965C38.548 217.33 38.3764 221.724 38.4804 226.11C38.7276 236.568 40.1388 247.332 43.3311 257.31C44.8966 262.207 46.9712 267.064 50.0621 271.202C51.4607 273.076 53.0494 274.767 54.9212 276.177C55.8276 276.862 56.7867 277.473 57.7987 277.988C59.1022 278.656 60.8008 278.876 61.9247 279.821C62.2945 280.132 62.5797 280.541 62.7952 281.004C62.6705 281.883 62.6557 282.765 62.8966 283.644C62.9726 283.919 63.1797 284.143 63.4353 284.251C63.4395 284.327 63.4395 284.401 63.4395 284.472C63.4395 284.506 63.4902 284.515 63.4966 284.481C63.5071 284.415 63.5177 284.35 63.5283 284.282C63.6107 284.31 63.6973 284.323 63.786 284.323C66.9952 284.335 70.2083 284.256 73.4217 284.147C73.1733 283.386 72.9041 282.631 72.6457 281.869C72.2948 280.835 73.9277 280.395 74.2754 281.42C74.5778 282.31 74.8938 283.193 75.175 284.086C78.618 283.958 82.06 283.804 85.4959 283.691C92.8036 283.447 100.109 283.367 107.419 283.213C118.771 282.972 130.205 282.479 141.574 282.961C141.967 282.127 142.407 281.311 142.824 280.488C143.317 279.516 144.774 280.372 144.284 281.341C143.994 281.913 143.693 282.478 143.408 283.049C145.711 283.169 148.011 283.327 150.306 283.543C154.223 283.91 158.102 284.563 162.015 284.969C165.993 285.383 169.885 285.31 173.831 284.652C174.541 284.534 174.959 284.105 175.132 283.572C175.139 283.57 175.143 283.566 175.147 283.559C175.35 283.323 175.54 283.126 175.736 282.955C175.971 282.803 176.225 282.674 176.523 282.56C177.078 282.348 177.657 282.219 178.244 282.133C178.891 282.036 179.546 282.027 180.192 281.947C180.737 281.877 181.27 281.773 181.802 281.647C182.759 281.419 183.668 281.121 184.572 280.725C185.36 280.381 186.072 279.886 186.744 279.347C188.134 278.331 189.338 277.033 190.39 275.684C191.003 274.896 191.58 274.078 192.104 273.227C193.016 271.751 193.794 270.219 194.58 268.674C194.865 268.216 195.125 267.747 195.363 267.269C193.827 266.816 192.276 266.447 190.648 266.421C189.56 266.403 189.56 264.712 190.648 264.73C192.516 264.76 194.282 265.196 196.037 265.716C196.123 265.489 196.205 265.26 196.28 265.028C196.49 264.544 196.663 264.048 196.806 263.545C196.891 263.316 196.975 263.088 197.06 262.86C197.25 262.069 197.44 261.277 197.632 260.484C198.015 259.216 198.317 257.929 198.539 256.625C198.725 255.767 198.868 254.902 198.966 254.027C199.261 251.908 199.502 249.792 199.519 247.649C199.494 246.328 199.409 245.009 199.266 243.697C199.204 242.805 199.101 241.917 198.961 241.036C198.78 239.725 198.6 238.428 198.298 237.134C198.072 236.259 197.846 235.384 197.62 234.509C197.056 232.685 196.39 230.897 195.623 229.149C195.581 229.04 195.367 228.799 195.239 228.796C195.142 228.794 195.006 228.883 195.051 229.002C195.055 229.012 195.059 229.025 195.063 229.035C195.019 228.936 194.977 228.834 194.932 228.735C194.894 228.642 194.747 228.456 194.632 228.458C194.626 228.458 194.62 228.458 194.611 228.46C194.641 228.439 194.668 228.412 194.696 228.38C195.454 227.482 195.947 226.3 196.49 225.261C196.94 224.402 197.364 223.498 197.487 222.528C197.594 221.676 197.449 220.837 196.914 220.148C196.306 219.364 195.161 218.996 195.797 217.863C196.519 216.574 197.582 215.456 196.523 213.991C195.985 213.245 195.131 212.835 194.497 212.186C193.768 211.436 193.422 210.432 193.441 209.407C193.485 209.433 193.544 209.42 193.566 209.356C194.178 207.505 193.735 205.472 193.107 203.669C192.765 202.691 192.04 202.422 191.197 202.374C194.848 195.241 198.264 187.993 201.309 180.579C201.41 180.336 201.509 180.093 201.608 179.85C201.756 179.486 201.444 179.003 201.082 178.922C198.45 178.345 195.708 178.161 193.027 177.908Z" fill="black"/>
<path fill-rule="evenodd" clip-rule="evenodd" d="M164.761 68.5755C164.292 67.3909 163.462 65.9019 162.075 65.8425C161.002 62.5613 158.334 59.2196 154.624 59.3084C143.734 48.1673 130.023 48.6925 115.689 51.0509C108.126 52.4541 100.447 55.2017 94.8069 60.6236C88.0514 67.0068 85.4209 78.1448 90.7111 86.2165C86.139 88.6675 86.0503 94.4839 88.0056 98.6811C85.6552 100.307 85.5124 104.253 88.1589 105.494C88.0182 106.07 88.1177 106.666 88.3861 107.178C87.0739 108.271 85.366 109.078 83.9541 109.772C83.33 110.079 82.97 110.58 82.8204 111.144C78.1844 114.187 66.6242 121.622 66.762 127.541C66.6939 130.628 68.9832 132.66 71.7652 133.469C70.1099 136.779 68.8535 140.646 70.438 144.217C70.876 145.296 74.1574 148.467 74.3227 148.525C74.6115 148.773 79.3191 146.611 81.6071 145.508C82.0508 148.395 85.1368 149.908 87.7968 148.918C90.3192 148.158 91.8696 146.022 93.4605 144.078C95.5721 148.687 101.785 148.74 105.8 146.753C109.406 145.086 112.148 142.032 113.675 138.351C121.783 142.322 131.271 143.48 140.08 141.894C140.646 142.895 141.897 143.567 143.012 143.18C147.697 141.771 152.877 141.692 156.848 138.464C165.125 132.521 165.822 121.563 165.245 112.223C164.733 102.91 165.181 93.5201 163.489 84.308C164.223 81.5957 165.444 79.1979 166.575 76.6499C167.803 73.978 167.777 70.0061 164.761 68.5755Z" fill="white"/>
<path fill-rule="evenodd" clip-rule="evenodd" d="M87.805 108.105C88.2928 107.982 88.5548 108.638 88.1407 108.901C85.5117 110.574 82.7958 112.068 80.2562 113.888C77.8407 115.619 75.6096 117.59 73.5291 119.709L73.2985 119.945C71.4176 121.881 69.3345 124.343 69.3134 127.199C69.2971 129.418 71.0077 131.841 73.3944 131.549C74.2936 131.44 75.1201 132.581 74.8063 133.404L74.4762 134.271C73.1483 137.78 71.7972 141.757 72.8462 145.449L72.8846 145.581C73.1384 146.426 73.4058 147.173 74.3868 147.156C75.2971 147.14 76.2444 146.833 77.0967 146.54C78.8652 145.931 80.4679 144.917 81.8282 143.641C83.0315 142.512 84.5688 143.659 84.4068 145.093L84.4011 145.139C84.1794 146.748 86.7427 147.496 87.9081 147.266C90.209 146.81 91.8495 144.504 93.1562 142.746C93.7843 141.901 95.3099 141.569 95.8617 142.746C96.9552 145.078 99.2092 146.821 101.846 146.895C103.216 146.932 104.53 146.542 105.69 145.819C106.163 145.524 106.587 145.173 106.975 144.775L107.072 144.674C107.646 144.065 108.043 143.741 108.777 143.343C109.5 142.951 110.435 143.437 110.431 144.292C110.425 145.4 110.1 146.137 109.337 146.94C108.705 147.606 107.954 148.19 107.165 148.657C105.579 149.594 103.693 150.122 101.846 150.061C98.9352 149.964 96.1568 148.513 94.3558 146.256C92.5169 148.455 90.2358 150.476 87.2715 150.422C85.0524 150.381 82.9843 149.226 81.9935 147.435C80.5946 148.4 79.0594 149.154 77.417 149.647L77.2706 149.69C74.9458 150.367 72.2705 150.636 70.7741 148.327C69.3692 146.16 69.2644 143.158 69.5863 140.68C69.8739 138.467 70.5546 136.365 71.3363 134.292C69.1112 133.627 67.3841 131.536 66.7908 129.283C65.8934 125.874 67.6344 122.569 69.7868 120.037C72.1249 117.286 75.0677 114.959 78.0324 112.922C80.9893 110.891 84.3018 108.983 87.805 108.105ZM163.834 81.4464C163.839 81.3518 163.995 81.3186 164.009 81.4226C165.03 88.8363 165.622 96.2351 166.111 103.7C166.359 107.481 166.641 111.259 166.95 115.036C167.246 118.658 167.738 122.377 167.627 126.013C167.453 131.708 164.688 136.338 160.156 139.67C155.813 142.864 150.425 144.442 145.139 145.109C142.069 145.497 138.956 145.515 135.883 145.151C134.287 144.962 132.693 144.711 131.129 144.333L130.453 144.164C129.222 143.849 127.847 143.422 127.672 141.963C127.587 141.257 127.962 140.736 128.568 140.381C129.358 139.919 130.264 140.191 131.078 140.402C132.449 140.757 133.836 141.061 135.238 141.272C138.249 141.725 141.344 141.752 144.371 141.438C149.462 140.91 154.833 139.259 158.758 135.847C160.464 134.365 161.947 132.558 162.727 130.412C163.73 127.653 163.582 124.643 163.548 121.754C163.47 115.036 163.539 108.319 163.446 101.6C163.352 94.8613 163.434 88.1754 163.834 81.4464ZM112.636 50.0515C118.585 48.5167 124.622 48.1179 130.733 48.5799C136.496 49.0153 143.061 50.3051 147.767 53.851C147.996 54.023 147.859 54.3487 147.576 54.3037C144.43 53.8019 141.362 52.8893 138.229 52.2855C135.216 51.7047 132.148 51.2687 129.08 51.1677C118.702 50.8255 107.154 53.178 98.7857 59.6506C94.8619 62.6854 91.8673 66.7662 90.6756 71.6215C89.4534 76.6016 90.1147 81.9872 92.569 86.4921C92.9224 87.1408 92.7766 88.1669 92.0393 88.5122C89.802 89.5601 88.2084 91.8816 88.2431 94.3867C88.2597 95.6017 88.6785 96.7669 89.3514 97.7713C90.0629 98.8333 91.1461 99.5764 91.9419 100.568C92.2552 100.959 92.2673 101.497 92.019 101.856C92.4845 102.06 92.9864 102.17 93.4445 102.411C93.8328 102.615 93.8438 103.253 93.4445 103.454C92.4346 103.963 91.3428 103.423 90.6612 102.603C90.5395 102.456 90.4343 102.304 90.3384 102.149C89.5221 101.975 88.7907 101.566 88.152 101.005C86.9351 101.734 86.7684 103.357 87.8138 104.597C88.3476 105.23 89.1061 105.621 89.8727 105.901L89.9647 105.935C90.7107 106.2 91.3939 106.348 91.8785 106.945C92.1982 106.278 92.5652 105.65 92.9742 105.077C94.4613 102.996 96.7472 101.15 99.4597 101.384C101.584 101.567 103.425 103.089 103.861 105.189C103.893 105.344 103.659 105.465 103.589 105.303C102.57 102.925 99.3441 102.838 97.4228 104.077C95.1633 105.535 93.9285 108.281 93.4331 110.839C92.9454 113.359 93.2273 116.423 95.1124 118.34C95.8838 119.124 96.9331 119.667 98.0283 119.809C98.5637 119.88 99.0359 119.811 99.5479 119.707L99.8872 119.636C100.123 119.588 100.357 119.548 100.603 119.57L100.971 119.62L101.18 119.718C101.362 119.799 101.345 119.777 101.131 119.65C101.756 119.599 102.079 120.061 102.113 120.568C102.133 120.581 102.152 120.594 102.169 120.614C104.54 123.518 106.301 126.855 108.818 129.663L109.555 130.486C111.449 132.594 113.611 134.879 116.184 135.972L116.49 136.099C117.239 136.415 117.991 136.848 118.086 137.751C118.172 138.56 117.534 139.168 116.8 139.357C115.127 139.786 113.22 138.299 111.995 137.323C109.361 135.225 107.146 132.551 105.318 129.738L105.137 129.458C103.634 127.109 102.221 124.431 101.782 121.644L101.703 121.772C101.697 121.781 101.693 121.788 101.69 121.792C101.6 121.914 101.501 122.017 101.387 122.115C101.079 122.381 100.704 122.536 100.314 122.641C99.5826 122.839 98.7804 122.878 98.0283 122.801C96.5007 122.645 95.0727 122.063 93.8651 121.116C90.1882 118.231 89.754 112.863 91.2412 108.508C90.0209 108.8 88.6309 107.978 87.6781 107.274C86.5854 106.467 85.6844 105.301 85.4691 103.929C85.2553 102.568 86.1228 100.765 87.4094 100.24C86.0744 98.6367 85.2971 96.3611 85.2169 94.5391C85.0774 91.3697 86.7606 88.374 89.3448 86.6447C86.9146 81.4347 86.4464 75.3903 88.0827 69.8584C91.3297 58.8811 102.207 52.7424 112.636 50.0515ZM103.379 133.455L103.409 133.359C103.668 132.51 104.002 130.821 105.27 131.464C106.481 132.078 105.708 133.896 105.285 134.78C104.778 135.839 103.902 136.688 102.727 136.915C101.771 137.1 100.721 136.862 100.052 136.123C99.8568 135.908 99.7468 135.672 99.6312 135.411C99.5862 135.309 99.5659 135.24 99.5575 135.195C99.5465 135.244 99.5152 135.318 99.4354 135.405C98.9017 135.989 98.3976 136.668 98.0104 137.358C97.9187 137.521 97.6297 137.407 97.7027 137.228C98.1538 136.124 98.078 134.418 99.0834 133.619C99.9696 132.916 100.802 133.47 101.271 134.289L101.295 134.332C101.98 135.576 103.072 134.394 103.379 133.455ZM93.7383 129.468L93.8309 129.339C94.7785 128.043 96.3765 126.485 97.9755 127.69C98.484 128.073 98.5028 128.713 97.9755 129.093L97.776 129.235C97.0774 129.731 96.3819 130.199 95.8688 130.909C95.3112 131.682 94.8105 132.5 94.0609 133.105C92.7352 134.177 90.5928 134.388 89.4424 132.944L89.3293 132.8C89.233 132.676 89.1226 132.527 89.033 132.378L88.9632 132.475C88.9563 132.485 88.9499 132.494 88.944 132.503L88.928 132.527C88.4552 133.283 87.8579 133.905 87.114 134.397C85.7002 135.33 84.1071 135.459 82.5076 134.966C82.351 134.917 82.3931 134.707 82.5445 134.693C84.4398 134.516 86.2865 133.169 87.0574 131.435L87.1445 131.24C87.4564 130.55 87.8059 129.894 88.5767 129.623C89.3269 129.36 90.1145 129.638 90.6289 130.206C91.059 130.68 91.1698 131.623 91.9457 131.416C92.7955 131.188 93.2738 130.123 93.7383 129.468ZM88.3103 117.944C88.7301 117.625 89.3876 117.967 89.5032 118.43C90.0269 120.523 87.8517 122.99 85.7614 123.055C85.2233 123.072 84.7057 122.942 84.2291 122.692C83.8594 122.499 83.4218 122.006 83.016 121.924C82.4918 121.818 82.0275 122.517 81.6584 122.875C81.2006 123.32 80.7476 123.733 80.2346 124.112C80.0297 124.264 79.7118 124.009 79.7984 123.776L79.9719 123.314C80.6 121.667 81.6818 119.263 83.7062 119.946C84.6981 120.281 85.4447 121.41 86.4892 120.516C87.3256 119.8 87.4036 118.633 88.3103 117.944ZM97.2425 109.516C99.1297 107.348 103.566 108.493 104.407 111.13C104.593 111.712 104.399 112.469 103.945 112.881C103.346 113.424 102.491 113.588 101.764 113.162C101.138 112.796 100.882 112.197 100.422 111.683C99.7471 110.929 98.8295 110.511 97.8841 110.211C97.6477 110.335 97.4278 110.499 97.2304 110.696C97.1295 110.797 96.9387 110.658 97.0283 110.54C97.15 110.378 97.2987 110.226 97.4679 110.086L97.3866 110.062C97.1377 109.993 97.0838 109.698 97.2425 109.516ZM109.508 85.5877C109.931 85.5883 110.423 85.9857 110.369 86.4496L110.353 86.5784C110.231 87.4616 109.947 87.9617 109.064 88.372C108.314 88.7197 107.526 88.9118 106.704 88.9879C106.393 89.0166 106.064 89.0183 105.731 88.9936L105.66 89.399C105.521 90.2098 105.392 91.0212 105.368 91.8477C105.322 93.3797 105.894 94.6423 106.507 96.0102C107.683 98.6377 107.816 101.261 106.535 103.884C106.347 104.268 105.817 104.581 105.389 104.542C104.834 104.491 104.566 104.331 104.243 103.884C103.972 103.509 104.034 102.979 104.221 102.587L104.243 102.544C104.888 101.293 105.092 99.8798 104.762 98.5048C104.452 97.2124 103.751 96.0508 103.437 94.7624C102.927 92.6637 103.471 90.5819 104.533 88.7814C103.731 88.5504 102.99 88.1387 102.495 87.5108L102.497 87.5099C102.308 87.3081 102.411 86.8864 102.743 86.9118L103.117 86.9421C104.19 87.0317 105.177 87.125 106.261 86.826C106.817 86.6725 107.297 86.4167 107.774 86.1069L107.876 86.0398C108.473 85.6428 108.804 85.5868 109.508 85.5877ZM112.074 70.0761C114.763 69.9233 117.058 71.698 118.173 74.0605C119.385 76.6253 118.877 79.5683 117.807 82.0917L117.503 82.798C116.971 84.0217 116.273 85.4769 115.183 86.1335C113.96 86.8711 112.902 86.0157 113.263 84.6561C113.478 83.8464 114.06 83.2219 114.531 82.5536C114.97 81.9295 115.38 81.2836 115.74 80.6098C116.444 79.2885 116.97 77.8162 116.964 76.3023C116.955 73.5391 115.13 70.3724 112.074 70.413C111.856 70.4156 111.86 70.0882 112.074 70.0761ZM125.67 65.6175C125.503 65.4903 125.652 65.2073 125.84 65.3267C128.957 67.31 131.285 71.0355 131.753 74.6954C132.013 76.7261 131.815 78.8962 130.95 80.7703C130.454 81.8456 129.603 82.8722 128.413 83.167C127.319 83.4377 126.192 82.8128 125.852 81.7446C125.721 81.3301 125.947 80.8967 126.289 80.6703C127.398 79.9367 128.291 79.011 128.814 77.7657C129.358 76.471 129.574 75.097 129.581 73.7004C129.597 70.4297 128.292 67.611 125.67 65.6175ZM163.749 67.035C163.605 66.875 163.786 66.6392 163.977 66.7394C166.231 67.925 167.663 70.1962 168.073 72.6836C168.475 75.1188 167.934 78.434 166.05 80.1952C164.987 81.1894 163.082 79.8672 163.966 78.5866C164.589 77.6835 165.263 76.9398 165.62 75.8726C165.938 74.9205 166.05 73.9604 166.033 72.9598C165.995 70.777 165.216 68.6624 163.749 67.035ZM136.196 63.9857C140.046 63.8022 142.38 68.1994 142.914 71.4768C143.244 73.5017 142.996 75.5873 141.878 77.3437L141.812 77.4459C140.89 78.8489 139.214 80.4643 137.407 79.8C136.643 79.5191 136.439 78.6997 136.953 78.0781C137.739 77.1266 138.953 76.7388 139.692 75.7228C140.522 74.5834 140.793 73.156 140.745 71.7703L140.739 71.6173C140.61 69.0685 139.395 64.1766 136.196 64.2632C136.016 64.2678 136.019 63.9939 136.196 63.9857ZM148.239 63.2551C151.963 62.7789 154.231 67.1619 154.931 70.1812C155.368 72.0688 155.463 74.1745 154.904 76.0479L154.863 76.1814C154.408 77.5795 153.066 79.9752 151.314 79.2607C150.834 79.0649 150.344 78.5317 150.574 77.9568C150.867 77.222 151.291 77.0313 151.855 76.5611C152.29 76.199 152.594 75.6793 152.817 75.1674C153.413 73.8032 153.545 72.2094 153.464 70.7392L153.453 70.5652C153.242 67.6936 151.686 63.4141 148.239 63.4929C148.082 63.4964 148.092 63.2737 148.239 63.2551ZM155.058 59.1346C157.13 58.345 158.828 60.3276 160.02 61.7426C161.513 63.5157 162.867 65.4256 163.632 67.6328C164.314 69.5994 164.434 71.786 163.82 73.7879C163.516 74.7792 163.042 75.6983 162.396 76.5074L162.313 76.6094C161.64 77.4301 160.991 77.9345 159.888 77.6406C159.44 77.5208 159.25 77.0772 159.328 76.6532C159.494 75.7473 159.961 75.5121 160.565 74.8798C161.098 74.322 161.494 73.6351 161.76 72.9129C162.308 71.4231 162.337 69.809 161.968 68.2742C161.556 66.556 160.746 64.9693 159.807 63.4825L159.605 63.164C158.611 61.5921 157.194 59.1714 155.097 59.4264C154.917 59.4484 154.915 59.1887 155.058 59.1346Z" fill="black"/>
<path fill-rule="evenodd" clip-rule="evenodd" d="M147.4 121.301C149.908 121.301 150.97 121.709 152.602 122.668C154.233 123.627 155.977 124.863 156.39 126.715C156.775 128.44 156.018 130.122 154.341 130.78C153.404 131.148 142.599 132.011 140.905 132.123C139.21 132.236 137.592 132.097 136.504 130.968C133.692 128.05 137.597 124.267 140.092 122.87C142.321 121.622 144.892 121.301 147.4 121.301ZM146.819 123.268C144.933 123.268 141.842 124.649 141.842 125.321C141.842 125.993 150.85 125.326 151.043 124.751C151.236 124.176 148.706 123.268 146.819 123.268ZM148.271 107.866C149.866 108.836 152.297 111.098 150.581 113.503C148.561 115.624 145.652 113.192 144.219 112.093C142.89 111.241 141.396 113.432 142.63 114.428C152.987 122.099 157.19 108.12 149.078 106.725C148.185 106.572 147.853 107.566 148.271 107.866ZM130.256 99.0738C132.973 97.0668 137.038 98.6115 137.707 101.752C138.173 101.997 138.426 102.386 138.481 102.956L138.495 103.099C138.561 103.776 137.958 104.418 137.356 104.596C136.678 104.797 136.141 104.693 135.512 104.405C134.909 104.129 134.699 103.345 134.808 102.749L134.818 102.7C134.979 101.96 134.345 101.243 133.707 100.95C132.987 100.619 132.178 100.826 131.552 101.264C130.857 101.751 130.279 102.583 130.083 103.412L130.064 103.498C129.909 104.213 129.793 105.556 130.487 105.967C130.61 106.039 130.523 106.206 130.396 106.184C128.888 105.926 127.99 105.018 127.981 103.395C127.971 101.676 128.894 100.079 130.256 99.0738ZM155.278 98.5026C157.992 97.5397 161.386 100.126 160.34 103.114C159.654 105.076 156.999 104.289 157.246 102.323L157.255 102.263C157.412 101.24 156.637 100.758 155.688 101.093C154.281 101.591 153.522 103.803 154.181 105.094C154.262 105.252 154.036 105.386 153.942 105.233L153.851 105.088C153.115 103.915 152.443 103.049 152.685 101.551C152.908 100.17 153.965 98.9684 155.278 98.5026ZM149.774 91.3914C149.767 91.2593 149.906 91.1704 150.025 91.2002C150.989 91.443 151.863 92.1447 152.741 92.5999C153.7 93.0966 154.682 93.498 155.723 93.7922C156.737 94.0788 157.762 94.2216 158.817 94.2127C159.958 94.2032 161.075 93.7748 162.194 93.8101C163.877 93.8632 164.756 96.3106 163.099 97.1518C160.686 98.3761 157.108 97.4866 154.761 96.4687C152.872 95.6493 149.897 93.7131 149.774 91.3914ZM137.519 91.951C138.399 90.8173 140.18 90.7493 140.961 92.085C141.768 93.4651 140.798 94.8488 139.426 95.1344C136.923 96.2539 134.359 97.1107 131.625 97.466L131.255 97.5126C128.875 97.8023 125.872 97.9602 123.721 96.8621C123.511 96.7544 123.575 96.4333 123.785 96.3731C124.998 96.0262 126.355 96.0271 127.602 95.7995C128.788 95.5833 129.964 95.344 131.119 94.9934C133.4 94.3004 135.562 93.31 137.519 91.951Z" fill="black"/>
</svg>
