<svg width="240" height="324" viewBox="0 0 240 324" fill="none" xmlns="http://www.w3.org/2000/svg">
<path fill-rule="evenodd" clip-rule="evenodd" d="M192.796 271.477C192.283 266.715 191.967 261.919 191.786 257.133C191.605 252.353 191.842 247.514 191.946 242.732C192.158 233.003 192.502 223.252 191.728 213.539C190.996 204.359 189.316 195.243 186.666 186.422C185.375 182.127 184.015 177.658 181.892 173.689C179.757 169.698 176.375 167.041 172.661 164.604C168.706 162.009 164.783 159.365 160.844 156.746C157.537 154.548 151.586 151.989 148.873 149.051C146.018 145.958 145.481 138.293 143.58 134.63C141.729 131.062 136.488 128.735 132.452 128.735C125.772 128.735 120.711 128.393 115.219 134.574C112.478 137.659 114.659 140.777 111.786 143.737C109.145 146.458 102.392 149.255 98.988 150.834C94.9114 152.726 90.7319 154.396 86.4917 155.883C82.1664 157.401 77.7321 158.532 73.3826 159.964C69.2134 161.336 63.7694 166.995 60.5328 169.988C57.5237 172.772 56.7769 172.46 54.4893 175.841C49.4688 183.262 44.4427 190.768 40.4447 198.803C38.4533 202.805 36.525 207.015 35.8025 211.459C35.0318 216.2 35.7959 220.781 37.0458 225.371C38.3181 230.042 42.3581 234.489 43.6743 239.149C44.2809 241.296 42.1988 243.639 43.1565 245.662C43.6348 246.673 44.2371 247.572 44.9229 248.453C45.4513 249.131 47.5119 248.981 47.7785 249.811C48.0478 250.65 46.5571 252.39 46.5349 253.258C46.5034 254.501 46.454 255.743 46.4132 256.985L46.1724 264.328C46.0141 269.154 45.8559 273.979 45.6976 278.805C45.6459 280.38 45.5704 281.919 45.948 283.414C45.8117 283.287 45.6822 283.15 45.5639 282.995C45.2176 282.543 44.4833 282.926 44.7771 283.456C45.2677 284.338 45.9731 284.96 46.8019 285.406C47.7651 286.827 193.629 289.999 194.347 285.846C194.75 283.516 194.017 281.022 193.724 278.706C193.419 276.295 193.056 273.894 192.796 271.477Z" fill="white"/>
<path fill-rule="evenodd" clip-rule="evenodd" d="M44.6254 211.468C44.9823 210.445 46.6145 210.888 46.2552 211.917C44.4078 217.21 45.7183 222.971 47.7154 228.024C48.1162 229.038 46.481 229.473 46.0857 228.473C43.9849 223.158 42.6852 217.027 44.6254 211.468ZM57.012 241.704C62.2219 242.437 67.436 242.889 72.6818 243.255C72.9163 243.272 73.1191 243.236 73.2944 243.16C73.1381 245.563 73.0113 247.968 72.912 250.373C71.4818 250.333 70.0219 250.428 68.6043 250.39C66.7515 250.339 64.9008 250.246 63.0522 250.105C59.4733 249.834 55.9008 249.403 52.362 248.807C51.0395 248.585 49.3599 248.45 47.8536 248.01C46.4296 247.594 45.162 246.905 44.4965 245.607C43.9303 244.508 43.8268 243.162 43.8268 241.947C43.8268 241.11 43.9705 240.26 44.0571 239.417C44.1649 239.341 44.262 239.25 44.3402 239.149C45.912 239.645 47.543 239.994 49.1402 240.332C51.7409 240.886 54.3796 241.334 57.012 241.704ZM54.0735 222.162C54.1023 223.777 54.5491 225.244 55.4185 226.604C56.0066 227.525 54.5432 228.372 53.959 227.458C52.9356 225.856 52.4172 224.059 52.3834 222.162C52.364 221.071 54.0541 221.075 54.0735 222.162ZM187.622 239.784C188.327 239.824 189.037 239.848 189.744 239.886C190.369 240.42 191.233 240.693 192.022 240.523C192.049 240.592 192.074 240.668 192.096 240.757C192.236 241.3 192.305 241.883 192.386 242.437C192.466 242.982 192.527 243.532 192.57 244.081C192.591 244.358 192.724 244.984 192.555 245.225C192.403 245.442 192.067 245.423 191.834 245.451C191.209 245.518 190.575 245.55 189.946 245.603C188.756 245.707 187.567 245.81 186.379 245.914C185.215 246.015 183.937 245.984 182.798 246.29C182.604 244.005 182.427 241.721 182.262 239.434C184.026 239.694 185.87 239.687 187.622 239.784ZM39.7091 235.995C40.419 237.367 41.0739 238.715 42.4323 239.539C42.6098 239.645 42.8084 239.702 43.0112 239.717C42.8591 240.37 42.764 241.038 42.6795 241.655C42.4936 243.014 42.4535 244.419 42.7936 245.759C43.1253 247.063 43.6746 248.228 44.7521 249.063C45.2528 249.452 45.7999 249.748 46.3746 249.982C46.2774 250.255 46.2204 250.526 46.2499 250.824C46.1126 251.514 46.0218 252.218 45.9225 252.892C45.7049 254.389 45.4873 255.887 45.3161 257.392C44.9739 260.385 44.7056 263.378 44.4795 266.381C44.2535 269.376 44.0908 272.375 43.9556 275.376C43.8859 276.91 43.8246 278.445 43.7675 279.981C43.7105 281.56 43.4549 283.175 44.1521 284.64C44.714 285.823 46.6133 285.755 47.1964 284.64C47.9359 283.221 47.7183 281.537 47.7373 279.981C47.7563 278.517 47.7816 277.05 47.8133 275.585C47.8767 272.586 47.9697 269.589 48.0436 266.59C48.1154 263.663 48.2042 260.738 48.2633 257.811C48.2929 256.278 48.295 254.746 48.3035 253.214C48.3077 252.364 48.3436 251.458 48.2802 250.572C48.8084 250.696 49.3408 250.802 49.8668 250.91C53.883 251.734 57.9415 252.334 62.0253 252.706C64.0767 252.892 66.1344 253.023 68.1922 253.098C69.7049 253.152 71.2725 253.258 72.8084 253.201C72.688 256.87 72.633 260.541 72.6394 264.213C72.6436 266.861 72.6795 269.509 72.745 272.157C72.7809 273.55 72.8105 274.943 72.8528 276.335C72.8718 276.961 72.8718 277.593 72.914 278.216C72.9267 278.411 72.9542 278.599 72.9901 278.785C72.8506 279.18 72.7344 279.571 72.6394 279.937C72.1746 281.712 72.1746 283.418 72.3816 285.227C72.5591 286.761 73.8499 288.184 75.5549 287.645C75.8316 287.558 76.1084 287.467 76.383 287.374C78.8929 287.66 81.4175 287.725 83.9633 287.774C87.6837 287.846 91.4063 287.869 95.1288 287.888C102.43 287.926 109.734 287.945 117.037 287.966C131.714 288.008 146.391 288.048 161.068 288.091C165.141 288.104 169.214 288.114 173.287 288.127C175.396 288.133 177.5 288.135 179.606 288.216C180.589 288.254 181.573 288.306 182.556 288.321C183.694 288.34 184.702 288.012 185.79 287.715C186.405 287.543 186.648 286.926 186.517 286.404C187.501 286.639 188.695 286.14 189.031 285.031C189.276 284.225 189.185 283.352 188.82 282.606V282.604C188.114 278.147 187.218 273.71 186.515 269.251C185.744 264.367 185.002 259.472 184.349 254.569C183.859 250.866 183.456 253.491 183.107 249.771C184.626 249.889 186.344 249.426 187.848 249.23C188.927 249.09 190.015 248.978 191.097 248.83C191.017 249.921 191.04 251.033 191.011 252.079C190.953 254.156 190.979 256.225 191.032 258.303C191.133 262.312 191.359 259.979 191.72 263.971C192.086 267.993 192.534 272.001 193.077 276.004C193.356 278.064 193.653 280.123 193.968 282.179C194.114 283.139 194.264 284.096 194.418 285.056C194.602 286.186 194.661 287.258 195.508 288.108C196.153 288.752 197.469 288.697 197.896 287.799C198.437 286.664 198.191 285.692 197.991 284.5C197.828 283.542 197.672 282.585 197.518 281.628C197.188 279.575 196.875 277.521 196.582 275.465C196.015 271.502 195.481 267.533 195.003 263.559C194.522 259.554 194.023 261.894 193.55 257.889C193.311 255.868 193.072 253.852 192.794 251.838C192.652 250.802 192.563 249.699 192.377 248.632C192.437 248.623 192.496 248.613 192.555 248.602C193.839 248.367 194.936 247.642 195.259 246.319C195.568 245.053 195.2 243.597 194.94 242.355C194.718 241.296 194.518 239.945 193.837 239.038C196.237 235.98 197.798 232.132 198.793 228.432C199.878 224.401 200.332 220.194 200.428 216.029C200.54 211.203 200.176 206.406 199.349 201.687C199.33 200.687 199.284 199.688 199.21 198.69C198.483 188.892 195.432 177.295 185.761 172.717C185.722 172.698 185.682 172.681 185.642 172.664C184.884 171.757 183.937 170.941 183.172 170.179C181.818 168.826 180.403 167.532 178.903 166.34C175.932 163.98 172.675 162.094 169.288 160.397C165.863 158.679 162.388 157.066 159.041 155.192C156.126 153.556 153.502 151.586 151.011 149.362C148.212 146.862 146.22 143.491 145.438 139.812C145.398 139.619 145.113 139.672 145.108 139.856C144.903 146.6 149.454 152.56 154.691 156.331C160.953 160.835 168.515 162.967 174.865 167.334C176.444 168.418 177.92 169.642 179.325 170.941C177.172 170.722 174.982 170.861 172.964 171.457C172.17 171.408 171.371 171.394 170.575 171.356C168.753 171.265 166.93 171.18 165.107 171.1C161.391 170.935 157.672 170.785 153.954 170.654C146.659 170.396 139.362 170.202 132.065 170.073C117.401 169.813 102.718 169.762 88.0556 170.187C84.0795 170.301 63.1725 169.509 61.2373 169.732C64.083 167.268 67.2056 165.256 70.6387 163.601C74.9337 161.536 79.3725 160.158 83.9591 158.899C93.4049 156.305 103.214 153.805 110.773 147.217C112.651 145.579 114.32 143.696 115.687 141.61C116.993 139.619 118.444 137.07 118.48 134.642C118.506 132.918 116.106 132.29 115.252 133.767C114.722 134.682 114.46 135.686 114.027 136.646C113.596 137.597 113.084 138.514 112.516 139.391C111.399 141.116 110.013 142.654 108.504 144.043C105.289 147.006 101.393 149.177 97.3619 150.819C88.2098 154.545 78.1999 156.117 69.5274 161.029C65.733 163.178 62.1014 166.144 59.8218 169.927C59.4542 169.984 59.0887 170.052 58.7232 170.128C58.9957 169.783 59.2704 169.439 59.5471 169.096C59.7288 168.872 59.4478 168.577 59.226 168.775C54.914 172.613 50.9422 176.758 47.3422 181.276C43.8985 185.601 40.6873 190.132 38.414 195.196C34.3281 204.293 33.4281 214.697 35.5387 224.424C36.1133 227.074 36.9246 229.669 37.9577 232.178C38.4901 233.474 39.0668 234.75 39.7091 235.995Z" fill="black"/>
<path fill-rule="evenodd" clip-rule="evenodd" d="M161.371 73.4595C155.022 64.7167 143.331 62.2025 133.192 64.3289C113.371 67.9434 94.4339 83.0712 90.9317 103.645C85.4677 116.092 88.9569 135.696 104.848 137.161C107.11 137.289 109.351 136.768 111.617 137.049C125.449 139.259 141.794 148.721 154.038 137.563C154.652 138.002 155.46 138.215 156.148 137.949C161.36 135.934 161.605 130.106 162.049 125.315C162.623 119.124 163.161 112.93 163.663 106.733C163.843 96.0471 168.077 82.6934 161.371 73.4595Z" fill="white"/>
<path fill-rule="evenodd" clip-rule="evenodd" d="M122.943 51.1819C131.288 50.738 146.665 54.5618 153.945 59.0447C165.807 66.3488 166.726 80.9189 166.242 83.4382C166.059 84.3996 165.471 85.2894 164.552 84.9937C165.332 91.613 165.271 95.3964 165.402 102.054L165.492 106.499C165.55 109.462 165.6 112.425 165.613 115.39C165.913 115.278 166.209 115.415 166.319 115.703C166.346 115.773 166.251 115.811 166.204 115.771C165.676 115.31 166.052 116.36 166.234 116.574C166.485 116.867 166.904 117.144 167.197 117.396L167.995 118.087L168.792 118.776C169.823 119.665 170.819 120.556 171.78 121.514L172.042 121.777C173.793 123.557 175.988 125.279 177.078 127.581C178.12 129.779 177.799 132.27 176.069 134.023C175.439 134.659 174.704 135.145 173.905 135.513C175.327 137.855 175.534 140.951 174.051 143.36C172.566 145.778 169.709 147.044 166.959 146.85C166.874 147.194 166.743 147.53 166.57 147.849C165.479 149.854 163.31 150.115 161.252 150.007L161.172 150.003C156.541 149.736 152.085 148.576 148.029 146.321C146.622 146.416 145.367 145.26 145.092 143.992C144.353 143.965 143.609 143.903 142.851 143.816C140.601 143.557 138.294 143.073 136.31 141.929C136.006 141.754 136.147 141.291 136.485 141.282C138.902 141.227 141.321 141.395 143.734 141.133C145.948 140.894 148.308 140.283 150.372 139.452C154.082 137.956 157.264 135.418 159.019 131.901C161.292 127.348 161.085 121.881 161.333 116.935C161.606 111.461 161.944 105.991 162.304 100.523L162.479 97.9013C162.829 92.7917 163.119 90.0583 164.005 84.7549C161.333 84.9937 150.231 80.9963 146.778 74.4577C140.226 88.3676 107.028 82.6749 105.556 104.089C105.543 104.271 105.256 104.22 105.245 104.047L105.218 103.559C105.205 103.318 105.193 103.08 105.184 102.845L105.178 102.61L104.656 102.616C104.656 102.681 104.563 102.705 104.54 102.635C104.047 101.238 101.702 101.688 100.682 102.02C99.7629 102.32 98.8967 102.781 98.1192 103.349C96.558 104.491 95.3474 106.027 94.946 107.948C94.1833 111.596 96.5052 115.312 99.5876 117.072C101.531 118.182 103.661 118.899 105.524 120.156C107.17 121.266 108.704 122.565 110.033 124.043C115.297 129.895 118.395 138.772 115.904 146.497C115.714 147.086 115.211 147.76 114.545 147.856C113.445 148.014 112.344 147.854 111.727 146.805C111.486 146.395 111.372 145.928 111.397 145.467C110.971 146.934 109.587 148.384 108.311 148.929C106.572 149.673 104.614 149.451 103.08 148.492L102.886 148.635C100.392 150.472 97.6052 152.146 94.4094 151.808C92.0939 151.563 89.8206 150.383 88.5404 148.523C86.8376 149.481 85.0185 150.244 83.1425 150.764L82.9428 150.818C80.3617 151.521 77.0693 152.166 74.6601 150.738C72.3467 149.367 71.5777 146.372 72.1207 143.871C72.1861 143.574 72.2685 143.284 72.3699 143.003C70.6291 143.096 68.8904 142.929 67.2383 142.418C65.5502 141.895 63.9404 140.891 63.1312 139.264C62.2185 137.423 62.4615 135.331 63.1418 133.456C64.2298 130.449 65.9791 127.773 68.1573 125.442C70.2519 123.198 72.7785 121.295 75.4044 119.708L75.8471 119.443C78.2109 118.033 81.0614 116.38 83.8545 116.489C83.846 116.453 83.8397 116.419 83.8354 116.383C83.4129 113.27 83.4615 110.096 83.3622 106.957C83.2714 104.07 83.1678 101.183 83.1002 98.294C82.9904 93.382 83.0263 88.4493 83.6664 83.5713C84.2347 79.2429 85.2573 75.022 87.1228 71.0592C89.0812 66.8958 92.0305 63.343 95.6728 60.5489C103.316 54.6839 113.413 51.6891 122.943 51.1819ZM96.9806 108.874C97.813 107.304 99.7081 106.809 101.371 107.092C103.701 107.49 105.286 109.527 106.646 111.28C108.074 113.116 105.095 114.847 104.329 113.068L104.147 112.647C103.531 111.236 102.804 109.748 101.548 108.828C100.213 107.851 98.3285 107.708 97.1497 109.005C97.0652 109.1 96.9236 108.978 96.9806 108.874Z" fill="black"/>
<path fill-rule="evenodd" clip-rule="evenodd" d="M133.555 121.88C135.088 121.584 136.994 122.228 138.522 122.511L138.636 122.531C140.489 122.855 142.338 123.247 144.211 123.438C146 123.62 147.827 123.653 149.615 123.448C150.475 123.349 151.326 123.18 152.161 122.955C152.518 122.858 152.872 122.75 153.222 122.631L153.261 122.615C153.518 122.509 154.213 122.109 154.205 122.332C154.4 122.107 154.67 121.947 154.965 121.869C155.382 121.759 155.918 121.862 156.267 122.157C156.721 121.798 157.402 122.056 157.706 122.486C158.228 123.225 158.058 124.091 157.991 124.948L157.985 125.023C157.928 125.831 157.84 126.633 157.732 127.435L157.684 127.779C157.516 128.965 157.47 130.92 156.033 131.309C154.897 131.617 153.858 130.447 153.125 129.519L152.725 129.005C152.25 128.403 151.819 127.783 151.471 127.098C151.313 126.786 151.16 126.466 151.028 126.143C151.011 126.102 150.999 126.066 150.986 126.029C148.879 126.312 146.723 126.272 144.611 125.993C143.273 125.817 141.956 125.562 140.658 125.219L140.073 126.278C139.388 127.513 138.693 128.743 137.962 129.95L137.906 130.042C137.222 131.13 136.077 132.22 134.724 131.405C133.512 130.675 133.461 129.016 133.333 127.777C133.248 126.95 133.179 126.117 133.146 125.286L133.134 124.929C133.112 124.123 132.981 123.188 133.291 122.434C133.336 122.324 133.494 122.239 133.589 122.355C134.236 123.142 134.432 124.363 134.712 125.329C135.023 126.405 135.474 127.579 135.636 128.695L135.681 128.616C135.841 128.313 136.003 128.012 136.167 127.711L136.657 126.808C137.097 125.993 137.544 125.183 137.996 124.375C137.48 124.181 136.969 123.973 136.46 123.761L135.305 123.278C134.645 123 133.973 122.685 133.477 122.178C133.389 122.088 133.42 121.906 133.555 121.88ZM155.468 124.857C154.33 125.32 153.153 125.654 151.954 125.876C152.031 125.955 152.109 126.034 152.18 126.117C152.462 126.444 152.762 126.757 153.063 127.068L153.243 127.253C153.704 127.727 154.397 128.506 155.103 128.959L155.142 128.754C155.148 128.719 155.153 128.688 155.155 128.665L155.231 127.992C155.243 127.88 155.255 127.768 155.266 127.656C155.327 127.05 155.375 126.442 155.426 125.835C155.452 125.515 155.459 125.186 155.468 124.857ZM142 85.7855C144.71 84.6273 147.927 85.1741 150.262 86.9236C152.651 88.7139 153.696 91.6246 153.834 94.5286C155.723 92.9147 158.444 94.1363 160.035 95.6485C161.872 97.3937 162.8 100.027 162.372 102.527C161.946 105.018 160.144 107.215 157.706 107.956C156.54 108.311 155.24 108.319 154.066 107.989C153.668 107.877 153.18 107.703 152.729 107.461C152.754 107.564 152.781 107.668 152.805 107.772C153.391 110.251 153.723 113.037 152.844 115.488C151.432 119.428 146.417 121.633 143.286 118.136C142.057 116.764 141.101 114.614 141.176 112.742C141.215 111.759 141.772 110.621 142.921 110.688C143.813 110.739 144.236 111.486 144.008 112.276L143.994 112.321C143.51 113.831 144.335 116.013 145.531 117.043C147.364 118.623 149.88 117.248 150.883 115.396C152.051 113.238 151.909 110.47 151.535 108.122C151.169 105.816 150.351 103.707 149.483 101.573C149.391 101.59 149.297 101.605 149.202 101.618C147.475 101.853 143.963 101.941 142.055 100.69C142.26 102.621 141.858 104.609 140.761 106.244C139.539 108.066 137.698 109.031 135.556 109.326C133.475 109.614 131.062 109.672 129.008 109.179C124.633 108.128 123.09 102.725 124.413 98.8239C125.196 96.5166 127.38 94.4413 129.808 93.9172C131.058 93.0942 132.738 92.8505 134.181 92.9627C136.337 93.1307 138.46 94.0626 139.904 95.6991C140.456 96.3242 140.909 97.032 141.259 97.7895C141.376 97.6969 141.513 97.6274 141.668 97.5911C141.909 97.5344 142.121 97.5217 142.357 97.605C142.474 97.6466 142.644 97.7937 142.746 97.8893L142.979 98.1632C143.265 98.4964 143.537 98.7759 144.046 98.983C145.464 99.5606 147.388 99.686 148.895 99.5678C152.74 99.2669 152.256 94.1718 151.309 91.5543C150.187 88.4533 146.971 86.5243 143.7 87.0751C142.294 87.3116 140.953 88.06 139.925 89.0379C138.776 90.1298 138.284 91.4486 137.595 92.8306C137.555 92.9124 137.414 92.8946 137.396 92.8044C136.83 89.8903 139.515 86.8473 142 85.7855ZM121.52 109.28C121.403 109.143 121.557 108.901 121.724 109.015C122.949 109.848 124.312 110.449 125.794 110.612C126.49 110.688 127.191 110.693 127.884 110.586C128.475 110.495 129.007 110.315 129.597 110.478C129.91 110.564 129.967 110.928 129.776 111.157C128.885 112.217 126.693 111.934 125.498 111.65C123.952 111.282 122.55 110.491 121.52 109.28ZM162.762 107.344C163.363 106.971 164.08 107.709 163.724 108.306C162.81 109.837 160.162 109.961 158.626 109.595C158.506 109.567 158.534 109.378 158.655 109.381C159.538 109.403 160.336 109.233 161.097 108.773C161.747 108.379 162.134 107.733 162.762 107.344ZM133.404 95.1066L133.283 95.1077C131.879 95.1303 130.592 95.6661 129.239 95.9493C129.127 95.9729 129.014 95.9609 128.913 95.9237C127.264 97.0238 126.128 98.7535 125.974 101.03C125.867 102.606 126.252 104.324 127.187 105.617C128.252 107.09 129.968 107.317 131.658 107.361L131.829 107.365C135.023 107.427 138.537 107.238 139.676 103.666C140.518 101.022 139.618 97.8128 137.271 96.2291C136.132 95.46 134.77 95.1054 133.404 95.1066ZM159.136 97.0027L159.042 96.8932C157.789 95.4554 155.803 94.1458 153.845 94.8699L153.851 95.1121C153.851 95.1525 153.852 95.1929 153.852 95.2332C153.846 98.0099 152.77 100.601 150.127 101.416C150.836 102.428 151.406 103.551 151.862 104.717C152.023 104.612 152.219 104.545 152.446 104.522C153.377 104.428 153.91 105.302 154.717 105.628C155.473 105.934 156.329 106.013 157.127 105.855C158.872 105.51 160.096 104.004 160.525 102.334C161.009 100.446 160.369 98.4671 159.136 97.0027ZM132.578 99.3396C133.16 98.3565 134.595 98.4988 135.17 99.3655L135.198 99.4087L135.204 99.4007C136.162 100.643 135.699 102.605 134.308 103.304C133.192 103.864 131.772 103.717 131.03 102.627C130.864 102.382 130.757 102.095 130.718 101.804C130.692 101.606 130.707 101.408 130.751 101.211L130.74 101.257C130.762 101.158 130.797 101.002 130.806 100.965C130.904 100.565 131.139 100.135 131.433 99.8445C131.736 99.5457 132.158 99.3639 132.578 99.3396ZM156.486 98.3183C157.002 98.3183 157.459 98.5339 157.831 98.8756C158.361 99.3619 158.434 100.062 158.32 100.726C158.285 100.929 158.237 101.125 158.186 101.324L158.143 101.505C158.135 101.535 158.127 101.565 158.118 101.594C158.086 101.717 158.036 101.831 157.976 101.94C157.755 102.76 156.863 103.168 156.077 102.989C155.706 102.904 155.337 102.597 155.149 102.275C155.087 102.169 155.043 102.063 155.012 101.957L154.859 101.594C154.831 101.507 154.813 101.413 154.79 101.324C154.738 101.125 154.689 100.929 154.653 100.726C154.532 100.04 154.628 99.3892 155.142 98.8756C155.487 98.5305 155.999 98.3183 156.486 98.3183ZM145.137 91.1993C146.031 91.0793 146.942 91.496 147.405 92.2863C147.806 92.9732 147.805 93.8974 147.405 94.5843L147.371 94.6424C146.634 95.9076 144.915 96.0699 143.88 95.0924L143.83 95.045C143.165 94.4167 143.015 93.3745 143.36 92.5583C143.675 91.8118 144.335 91.3073 145.137 91.1993Z" fill="black"/>
</svg>
