<svg width="259" height="324" viewBox="0 0 259 324" fill="none" xmlns="http://www.w3.org/2000/svg">
<path fill-rule="evenodd" clip-rule="evenodd" d="M245.914 194.94C248.078 193.81 250.191 192.582 252.27 191.304C253.735 190.428 252.438 188.22 250.936 189.018C250.168 189.426 249.403 189.838 248.635 190.244C249.24 189.723 249.8 189.156 250.302 188.538L250.267 188.504C252.203 186.769 249.716 183.494 247.515 184.92C245.573 186.328 243.613 187.765 241.384 188.692C236.768 190.65 231.676 190.974 226.721 191.031C224.907 190.894 223.175 191.209 221.416 191.559C222.106 188.791 223.832 186.7 224.748 184.019C225.423 181.312 221.517 179.468 220.133 182.07C219.793 182.709 219.469 183.355 219.153 184.005C216.161 186.727 211.165 186.488 208.147 189.411C206.428 190.937 205.587 193.008 205.255 195.086C205.029 196.497 205.38 197.912 204.527 199.162C200.403 204.997 193.888 214.22 190.578 220.641C188.236 205.382 181.98 186.508 175.517 172.556C173.38 168.094 170.935 163.733 167.725 159.951C168.089 158.69 166.805 156.451 165.988 157.14C163.475 154.068 159.032 153.273 155.459 151.746C150.637 149.683 146.635 145.395 144.669 140.521C142.141 131.241 135.92 130.062 127.292 130.472C119.035 130.462 112.926 133.995 111.124 142.403C107.464 148.786 98.8218 147.73 92.6044 149.42C88.0477 150.461 83.6257 152.071 79.4232 154.115C74.748 149.679 58.004 168.297 56.482 173.089C57.378 173.263 58.2685 173.472 59.151 173.727C59.9369 173.954 59.6069 175.142 58.8142 174.952C57.8278 174.715 56.8351 174.551 55.8377 174.438C55.8072 174.534 55.7806 174.629 55.7608 174.722C55.6488 174.715 55.537 174.705 55.4251 174.698C55.6733 174.827 55.9122 174.977 56.1451 175.17C56.7079 175.638 55.9752 176.54 55.3771 176.168C54.8137 175.746 54.0757 175.812 53.3999 175.671C53.3597 177.061 48.4006 175.506 47.6303 175.045C44.2068 174.617 40.6847 175.076 37.4887 173.425C33.2361 172.529 28.9515 171.538 24.7467 170.397C23.6335 170.831 22.5873 172.385 23.4715 173.525C23.9688 174.043 23.3295 174.89 22.7033 174.522C20.6031 173.285 18.9789 171.355 17.6018 169.275C16.9537 168.621 15.8031 168.761 14.9323 168.49C14.8158 168.699 14.7472 168.932 14.7482 169.172C11.0542 169.78 13.6894 173.816 15.5464 175.074C14.5613 175.715 14.5239 176.972 14.6101 178.021C14.4013 178.395 14.3316 178.858 14.5133 179.277C15.208 180.879 16.7103 182.227 17.8526 183.525C19.1139 184.957 20.2384 186.398 21.7731 187.56C27.6227 192.02 34.6818 194.514 41.9236 195.49C44.4949 195.885 48.1936 196.489 49.7857 198.664C49.3951 201.246 48.6778 203.722 48.0271 206.239C47.1172 209.58 47.1791 213.078 47.167 216.485C47.0399 216.383 46.7956 216.404 46.7593 216.599C46.5476 218.011 46.3902 219.455 45.5322 220.641C44.7801 222.848 44.2796 225.201 43.9984 227.519C42.872 238.508 42.603 249.821 45.1429 260.639C46.123 264.653 47.717 268.467 49.8888 271.979C50.5363 273.026 51.5775 273.333 52.5123 273.128C55.6412 274.754 59.5828 275.275 62.9553 274.862C74.4527 271.606 70.4466 279.446 86.567 277.045C114.392 273.499 142.513 280.468 170.279 276.377C170.963 281.661 179.915 280.145 183.025 277.911C192.349 270.977 196.979 249.023 201.658 237.885C204.875 229.107 210.261 213.56 217.314 207.669C219.429 206.014 221.986 205.143 224.544 204.44C234.091 201.979 243.674 199.651 253.239 197.259C254.861 196.859 254.57 194.092 252.835 194.269C250.533 194.505 248.223 194.718 245.914 194.94Z" fill="white"/>
<path fill-rule="evenodd" clip-rule="evenodd" d="M33.3897 193.294C32.7432 193.214 32.1094 192.984 31.4798 192.802C30.5186 192.521 29.5763 192.193 28.6488 191.819C26.7348 191.052 24.8777 190.145 23.1369 189.035C20.3249 187.241 17.8404 184.942 15.9665 182.173L15.8378 181.98C14.768 180.35 12.7946 176.73 15.0073 175.492C13.5812 174.3 12.2333 172.159 12.3093 170.506C12.4171 168.169 15.2819 168.201 16.7629 169.192C17.7326 169.841 18.4593 170.749 19.1882 171.644C19.9953 172.637 20.8572 173.584 21.753 174.495C21.9907 174.735 22.2307 174.972 22.475 175.204L22.7206 175.435C22.6826 175.344 22.6488 175.251 22.6192 175.156C22.1248 173.615 22.7143 171.61 24.2544 170.904C25.1969 170.472 26.1758 170.735 27.0891 171.102L27.2291 171.159C28.4586 171.669 29.703 172.119 30.9833 172.48C36.2016 173.954 41.6481 174.199 46.9953 174.934C49.0551 175.22 51.153 175.579 53.2023 176.107C53.984 172.787 55.9002 169.604 57.979 166.985C67.934 154.458 84.3516 150.318 99.3706 147.638C100.74 147.395 101.874 149.209 102.671 148.78C104.181 147.968 105.51 146.818 106.676 145.569C109.163 142.904 110.927 139.77 113 136.8C114.024 135.333 116.382 136.646 115.431 138.221L114.965 138.99C113.048 142.142 110.924 145.39 108.174 147.835C106.712 149.133 105.09 150.158 103.235 150.798C101.83 151.282 99.8587 151.69 98.3207 151.22L98.1361 150.952C98.1971 151.041 98.2586 151.131 98.3206 151.221C102.335 157.039 107.371 161.964 112.678 166.611C118.035 171.3 123.814 175.498 129.628 179.603L130.112 179.945C139.583 173.034 147.584 164.02 153.197 153.721C152.021 153.579 150.857 152.825 149.851 152.263C148.64 151.582 147.502 150.77 146.614 149.688C144.681 147.332 144.933 144.295 144.584 141.435C144.563 141.258 144.797 141.213 144.905 141.302C145.953 142.173 146.321 143.599 146.758 144.832C147.24 146.186 147.785 147.302 148.89 148.255C149.919 149.143 151.173 149.796 152.392 150.377C153.021 150.676 156.142 151.442 156.497 152.077C161.889 150.811 167.141 152.998 171.136 156.688C174.996 160.254 177.829 164.889 180.331 169.464C182.999 174.347 185.185 179.436 187.07 184.667C188.98 189.976 190.444 195.401 191.249 200.989C191.928 205.701 192.345 210.486 192.614 215.25L192.647 215.845C196.636 209.583 200.724 203.386 204.897 197.244C203.948 194.71 204.998 192.123 206.775 190.166C208.744 188 211.467 186.994 214.072 185.823L214.414 185.668C215.67 185.095 216.921 184.464 218.006 183.606C219.049 182.777 219.816 181.636 220.915 180.873C222.512 179.761 225.411 179.998 225.485 182.427C225.523 183.76 224.95 185.223 224.426 186.421C223.833 187.776 223.032 189.004 222.081 190.132C222.037 190.185 221.989 190.226 221.94 190.259L221.904 190.282C223.218 190.5 224.542 190.676 225.892 190.737C228.616 190.862 231.368 190.661 234.035 190.086C236.764 189.498 239.409 188.543 241.864 187.212C243.962 186.074 245.906 184.603 248.289 184.257C248.509 184.223 248.73 184.202 248.959 184.189C249.339 184.168 249.719 184.616 249.569 184.992C249.487 185.199 249.4 185.405 249.305 185.612C248.481 187.427 247.217 189.188 245.641 190.525L245.519 190.627C246.075 190.435 246.622 190.219 247.161 189.976C250.328 188.549 253.201 186.394 256.596 185.527C256.757 185.485 256.919 185.447 257.082 185.411C258.132 185.185 258.685 186.326 258.069 187.108C257.969 187.235 257.87 187.359 257.766 187.484C256.252 189.365 254.581 191.111 252.738 192.679C252.107 193.216 251.456 193.736 250.792 194.233C250.513 194.443 250.232 194.649 249.948 194.852L249.808 194.951C250.14 194.717 250.467 194.478 250.792 194.233C252.871 193.603 254.921 192.857 256.926 192.03C257.722 191.703 258.341 192.51 258.426 193.174C258.709 195.397 256.241 197.006 254.635 198.075C253.026 199.149 251.253 199.965 249.438 200.62C245.949 201.881 242.284 202.454 238.625 202.967L236.848 203.215C229.813 204.199 222.466 205.375 217.418 210.851C214.59 213.92 212.676 217.733 210.924 221.484C209.175 225.231 207.639 229.078 206.181 232.946C204.671 236.949 203.354 241.025 201.956 245.069C200.671 248.781 199.137 252.446 197.617 256.074L197.378 256.646C194.152 264.357 190.298 271.618 184.928 278.056C184.042 279.119 182.612 277.61 183.43 276.558C189.047 269.313 192.956 260.764 196.182 252.235C197.65 248.355 198.88 244.382 200.291 240.48L201.131 238.162C202.252 235.073 203.383 231.987 204.563 228.922C206.057 225.043 207.698 221.211 209.576 217.504L209.775 217.114C211.614 213.538 213.799 210.013 216.806 207.307C222.218 202.433 229.42 201.264 236.383 200.338L238.573 200.049C241.517 199.658 244.469 199.226 247.332 198.438C248.984 197.986 250.598 197.407 252.115 196.608C252.719 196.291 253.309 195.943 253.879 195.562C252.252 196.04 250.602 196.431 248.923 196.737C248.101 196.887 247.287 196.999 246.476 197.077C244.387 197.284 242.314 197.276 240.174 197.164C239.993 197.153 239.933 196.868 240.128 196.832C241.618 196.567 243.11 196.236 244.596 195.876L245.042 195.767C245.05 195.52 245.147 195.258 245.35 195.008C246.09 194.108 247.495 193.647 248.469 193.011C249.489 192.345 250.478 191.627 251.42 190.857C252.282 190.154 253.11 189.409 253.907 188.632L254.145 188.397C254.066 188.476 253.986 188.554 253.907 188.632C251.756 189.625 249.717 190.9 247.471 191.686C245.686 192.314 243.814 192.736 241.926 192.886L241.808 192.896L241.691 192.903C239.72 193.045 237.736 192.988 235.795 193.415C235.577 193.463 235.509 193.172 235.704 193.089C237.4 192.383 239.164 192.111 240.947 191.781C240.985 191.641 241.083 191.517 241.252 191.436L241.708 191.218C243.066 190.566 244.333 189.907 245.462 188.847C246.459 187.911 247.29 186.816 247.913 185.603C245.418 186.151 243.227 188.042 240.958 189.105C238.486 190.266 235.871 191.098 233.183 191.572L232.877 191.624C227.855 192.462 221.816 192.356 217.317 189.743C217.173 189.659 217.277 189.467 217.425 189.49C218.701 189.699 219.964 189.946 221.228 190.166C220.98 189.94 220.871 189.534 221.156 189.209C222.291 187.908 223.188 186.421 223.761 184.794L223.871 184.476C224.135 183.721 224.582 182.549 224.126 181.869C223.691 181.22 222.666 181.308 222.054 181.583C220.78 182.158 219.933 183.593 218.859 184.46C217.689 185.407 216.358 186.108 214.995 186.736L214.708 186.867C212.351 187.927 209.832 188.82 207.979 190.692C206.982 191.698 206.124 192.956 205.837 194.366C205.706 195.012 205.706 195.678 205.879 196.319C206.016 196.819 206.304 197.128 206.139 197.637C205.923 198.295 205.161 199.081 204.768 199.666C204.311 200.343 203.857 201.021 203.403 201.7C202.497 203.056 201.595 204.418 200.692 205.777C198.888 208.499 197.103 211.234 195.333 213.977C194.757 214.87 194.182 215.764 193.61 216.66L192.753 218.003L192.3 218.711L191.528 219.926C191.555 220.038 191.553 220.157 191.517 220.26C191.385 220.635 191.139 220.892 190.832 221.078L190.778 221.11C186.269 228.239 181.833 235.414 177.352 242.56C177.113 244.741 176.889 246.924 176.695 249.107C176.253 254.049 175.951 259.003 175.854 263.963C175.807 266.364 175.999 268.78 176.103 271.179C176.154 272.324 176.223 273.467 176.314 274.61L176.38 275.421C176.47 276.534 176.52 277.64 176.12 278.701C175.765 279.633 174.683 279.842 174.043 279.132C165.692 278.796 157.334 278.54 148.976 278.382C134.016 278.094 119.05 278.139 104.088 278.428C96.5734 278.574 89.0565 278.779 81.5439 279.033C77.8424 279.155 74.1389 279.329 70.4354 279.379C68.4401 279.406 65.2997 278.68 65.1387 276.434L65.1347 276.365C64.8854 276.433 64.6277 276.488 64.3636 276.528C64.246 276.546 64.1331 276.541 64.0288 276.517L63.977 276.503C61.0026 277.41 57.2402 276.116 54.4138 275.362L54.1805 275.3C51.4826 274.596 49.315 273.59 47.5467 271.354C44.4516 267.438 43.3953 262.179 42.846 257.333C42.3305 252.772 42.3009 248.127 42.9284 243.575C42.5587 239.865 42.9199 236.038 43.3404 232.35C43.5474 230.526 43.7904 228.704 44.0819 226.89C44.2446 225.878 44.458 224.876 44.6756 223.876C44.7625 223.477 44.8348 223.047 44.9449 222.631L44.9946 222.454C44.6565 222.498 44.2868 222.425 43.9298 222.228C43.0805 221.761 42.8333 220.816 42.8185 219.912C42.772 217.185 43.0974 214.381 43.3847 211.671C43.6741 208.966 44.0713 206.25 44.591 203.578L44.7255 202.89C45.1193 200.891 45.5699 198.828 46.3636 196.95C43.3827 196.443 40.4101 195.904 37.5179 194.987C36.1066 194.537 34.7165 193.977 33.3897 193.294ZM188.98 221.668C188.933 221.679 188.889 221.691 188.845 221.704C187.653 222.038 186.449 222.321 185.249 222.625C183.174 223.147 181.146 223.731 179.217 224.638C178.813 229.74 178.214 234.825 177.645 239.913L177.531 240.931C178.406 239.307 179.302 237.697 180.238 236.106C183.088 231.255 186.003 226.442 188.98 221.668ZM45.7212 222.173C45.7276 222.78 45.6008 223.41 45.5332 223.993C45.4233 224.94 45.3346 225.891 45.2226 226.838C44.9945 228.74 44.8001 230.644 44.6585 232.555C44.5677 233.774 44.5085 234.998 44.4557 236.222C45.6536 231.743 47.2403 227.362 48.7487 222.974C48.4966 222.947 48.2388 222.886 47.9729 222.815L47.5253 222.695C47.2614 222.627 46.4052 222.416 45.7212 222.173ZM192.753 218.003L192.761 218.204C192.793 218.916 192.366 219.318 191.849 219.421C192.149 218.948 192.451 218.474 192.753 218.003ZM55.6827 184.246C56.944 184.358 58.1799 184.627 59.3588 185.092L59.4725 185.136C60.3445 185.473 61.6193 185.896 61.9045 186.827C61.9848 187.091 61.7693 187.309 61.5221 187.33C60.5757 187.406 59.4602 186.391 58.5834 186.049C57.6073 185.669 56.5848 185.385 55.5496 185.235C53.2235 184.895 50.7982 185.153 48.6095 186.001C48.4806 186.051 48.4003 185.846 48.5165 185.785C50.7221 184.584 53.1749 184.024 55.6827 184.246ZM28.9553 190.291C28.8095 190.162 28.6637 190.027 28.52 189.892C27.3873 188.82 26.3843 187.569 25.6416 186.194L25.4461 185.822C24.8413 184.65 24.0985 182.981 25.52 182.137C26.3693 181.632 27.3919 181.759 28.3383 182.065C28.3996 182.084 28.4609 182.105 28.5221 182.126C28.9447 182.275 29.3524 182.452 29.7158 182.621C31.294 183.346 32.6862 184.401 34.144 185.331C35.7235 186.339 37.2831 186.983 39.1061 187.361L39.2778 187.395C40.989 187.734 42.844 187.951 44.0376 189.359C44.3376 189.714 44.063 190.38 43.5454 190.204C40.2454 189.091 36.7531 188.845 33.7235 187.017C32.4686 186.26 31.2813 185.392 29.9989 184.675C29.3186 184.295 28.6162 183.962 27.8678 183.733L27.4588 183.613C27.2193 183.543 26.9334 183.474 26.7412 183.543C26.3752 183.669 26.492 183.865 26.6052 184.207L26.6165 184.242C27.5059 186.994 30.0412 189.297 32.3904 190.821C32.9292 191.172 33.4806 191.494 34.0426 191.792C37.8465 193.82 42.1029 194.764 46.2833 195.885C46.2833 195.885 48.7004 196.56 49.5011 196.813C50.3926 196.739 51.4088 197.054 52.0807 197.43C52.7335 197.796 53.2595 198.286 53.6567 198.863C53.6567 198.863 54.0391 199.182 54.1088 199.677C54.3095 200.136 54.4447 200.63 54.5123 201.146C54.5504 201.448 54.4743 201.68 54.3307 201.845C54.7628 208.48 52.9713 215.078 50.9516 221.383L50.7515 222.005L50.6229 222.399C48.4447 229.084 45.9454 235.721 44.8299 242.691C44.0842 247.347 44.1074 252.166 44.6546 256.843L44.6932 257.165C45.2323 261.588 46.2696 266.548 49.0807 270.107C50.5144 271.924 52.2132 272.731 54.385 273.316L54.5039 273.347C56.4687 273.865 58.4969 274.599 60.5229 274.821C62.4032 275.025 63.9792 274.326 65.6715 273.671L65.6736 273.669C69.2377 270.513 70.856 265.918 72.0518 261.281C75.1511 249.281 74.7665 236.824 73.0088 224.648C72.0919 218.286 70.8454 211.98 69.6032 205.675C68.982 202.524 68.3123 199.379 67.7567 196.217L67.4267 194.356C67.2446 193.323 67.0685 192.288 66.918 191.248C66.7151 189.851 66.6539 188.478 66.5842 187.072C64.8771 184.242 62.3989 181.911 59.5278 180.239C57.4722 179.041 55.2961 178.21 53.0504 177.608C46.6299 175.877 39.6306 175.999 33.17 174.668C30.9997 174.221 28.9395 173.558 26.8804 172.763L26.5996 172.654C25.6553 172.286 24.6919 172.081 24.2229 173.195C23.8891 173.987 24.0877 174.812 24.5884 175.477C25.8158 177.109 28.2834 177.866 30.1405 178.453C31.2581 178.808 32.3989 179.089 33.5524 179.299C34.706 179.508 35.8637 179.561 36.9708 179.969C37.3975 180.125 37.482 180.803 36.9708 180.924C35.5679 181.251 34.1567 180.97 32.7623 180.698C31.2306 180.395 29.7222 179.966 28.256 179.423C27.9855 179.324 27.7057 179.218 27.4206 179.107L27.206 179.022C27.4278 179.182 27.6496 179.341 27.8736 179.5C27.9327 179.542 27.8968 179.654 27.8186 179.626C24.3712 178.339 21.2344 176.018 18.8043 173.271L18.6834 173.134C17.8278 172.153 15.8778 169.185 14.2341 170.012C12.6907 170.787 15.3217 173.775 16.3216 174.996L16.4377 175.139C17.5743 175.169 18.675 175.877 19.5961 176.447C21.1954 177.439 22.8666 178.293 24.5694 179.091C27.9539 180.683 31.5476 181.805 34.8961 183.477C34.9405 183.5 34.9067 183.557 34.8645 183.551C32.7328 183.211 30.6243 182.667 28.5645 181.993L28.4726 181.965L28.3807 181.934C27.094 181.511 25.8243 181.034 24.5757 180.524C23.1877 179.958 21.8314 179.322 20.5152 178.601C19.3236 177.95 18.0011 176.777 16.6194 176.604C16.4715 176.585 16.3405 176.583 16.2264 176.593C14.6398 176.726 15.9518 179.356 16.3955 180.142C17.1201 181.433 17.9948 182.625 18.9983 183.714C21.0328 185.924 23.4983 187.676 26.1666 189.04C27.0772 189.505 28.0088 189.915 28.9553 190.291Z" fill="black"/>
<path fill-rule="evenodd" clip-rule="evenodd" d="M160.651 70.1278C159.156 64.7392 159.37 64.1564 157.141 59.0094C149.751 44.0563 100.365 49.063 95.3251 63.9894C92.5907 72.0871 93.2331 83.4913 92.5214 90.513C92.3035 94.2359 92.0896 97.959 91.8679 101.682C91.7914 102.967 91.7139 104.253 91.6351 105.538C91.4815 108.041 91.3321 110.543 91.1927 113.046C90.2642 120.757 94.138 121.542 100.783 121.314C102.539 125.553 105.384 129.093 108.899 131.972C108.051 134.281 111.127 135.476 112.786 136.399C121.814 141.441 132.904 144.518 142.904 141.682C145.842 140.849 157.976 137.963 161.707 129.03C163.539 124.644 167.263 101.926 162.352 81.4914L160.651 70.1278Z" fill="white"/>
<path fill-rule="evenodd" clip-rule="evenodd" d="M129.085 34.9797C130.481 34.7327 132.043 34.8278 132.843 36.1994C133.017 36.4951 133.126 36.7933 133.179 37.0871C136.995 36.229 140.956 36.136 144.854 36.6982C146.016 36.865 146.424 38.4142 145.912 39.3C145.86 39.3908 145.807 39.4794 145.75 39.5663C146.971 39.6654 148.19 39.8767 149.398 40.2024C150.258 40.4349 151.061 41.5487 150.679 42.4618C150.645 42.5421 150.609 42.6224 150.573 42.7025C152.472 43.0218 154.287 43.7679 155.874 44.9726C156.064 45.1142 156.239 45.2981 156.385 45.5073C159.932 45.1077 163.585 45.8412 166.752 47.5532C167.639 48.0327 168.068 49.4152 167.466 50.2775C167.278 50.5459 167.081 50.8016 166.87 51.0489C168.248 51.5583 169.467 52.3823 170.288 53.7246C171.182 55.1808 171.457 57.0555 170.977 58.6575C171.979 59.6784 172.502 61.2421 172.145 62.8104C171.82 64.2414 170.943 65.15 169.819 65.6955C170.048 66.393 169.864 67.1855 169.346 67.7242C168.552 68.5506 167.601 69.1847 166.566 69.6012C166.564 69.8697 166.496 70.1465 166.361 70.4044C165.427 72.1964 163.414 73.3865 161.367 73.5662C162.055 76.4594 162.621 79.3889 163.171 82.3013C164.147 87.4815 164.903 92.7124 165.364 97.9642L165.42 98.6137C166.17 107.501 166.344 116.811 164.538 125.577C163.386 131.159 159.896 135.864 155.24 139.051C150.505 142.293 144.721 143.906 139.029 144.161C136.126 144.29 133.196 144.045 130.353 143.449C129.002 143.166 127.699 142.764 126.417 142.253C125.037 141.701 123.901 140.888 122.734 139.972C122.128 139.497 122.475 138.375 123.193 138.233C123.706 138.129 124.213 138.017 124.724 137.924C125.193 137.838 125.705 138.307 125.607 138.74L126.597 138.995C126.926 139.08 127.256 139.166 127.585 139.254L128.077 139.389C129.478 139.78 130.91 140.11 132.347 140.344C135.271 140.82 138.313 140.831 141.252 140.461C146.193 139.841 151.24 138.079 155.083 134.83C156.968 133.237 158.538 131.349 159.676 129.158C161.124 126.374 161.561 123.273 161.924 120.194C162.974 111.29 162.651 102.373 161.836 93.4669C161.43 89.037 160.876 84.6156 160.289 80.2047C159.987 77.9432 159.662 75.6776 159.394 73.4077C158.795 73.247 158.225 72.9807 157.714 72.594C157.367 72.3319 157.164 72.0273 157.076 71.7169C156.559 71.6194 156.065 71.3361 155.708 70.8569L155.662 70.7933C154.726 69.4383 153.108 68.6628 151.61 68.0985C150.702 67.7562 149.776 67.4579 148.855 67.1538C147.896 66.8347 146.882 66.3634 145.874 66.2408C144.731 66.1055 143.58 66.45 142.426 66.3274C141.379 66.2133 140.455 65.8369 139.701 65.0847C139.437 64.8226 139.209 64.5204 139.027 64.1949C135.51 64.9471 131.814 63.9983 128.16 64.2266C125.755 64.3788 123.634 65.8667 121.205 65.8265C120.541 65.816 119.899 65.5835 119.432 65.1756C117.14 65.6131 114.81 66.454 112.655 67.1768C110.525 67.8914 108.476 68.8531 106.371 69.6329C106.369 69.6351 106.369 69.6351 106.369 69.6372C106.095 70.527 105.275 70.9114 104.402 70.7552C101.548 70.2459 99.144 68.445 96.3659 67.7857C95.6011 70.5735 94.7792 73.325 94.2175 76.1679C93.649 79.0359 93.2497 81.942 92.9856 84.8544C92.7194 87.7774 92.5926 90.7299 92.5863 93.6635C92.5842 95.1598 92.6222 96.6602 92.6729 98.1566C92.714 99.4102 92.9528 100.995 92.5 102.201L92.4595 102.303H92.4574C92.4025 102.479 92.1553 102.585 92.0159 102.422C91.1644 101.432 90.9616 99.8582 90.725 98.6152C90.4377 97.1064 90.2539 95.5825 90.1062 94.0543C89.8102 90.9876 89.7447 87.9338 89.9011 84.8544C90.2074 78.7929 91.1792 72.3909 93.2539 66.6614C92.6159 66.7203 92.3306 65.78 92.2884 65.2495C92.2076 64.1834 92.3745 63.0521 92.5554 61.9829L92.7446 60.876C92.9239 59.8311 93.1137 58.8136 93.4694 57.7973C94.3231 55.3581 95.5504 53.0673 97.0799 50.9855C100.2 46.7395 104.525 43.5246 109.45 41.6713C109.758 41.5551 110.05 41.5572 110.307 41.6457C114.788 39.2302 119.605 37.3703 124.498 36.0473C126.011 35.6394 127.543 35.2547 129.085 34.9797ZM91.872 103.125C93.9065 101.849 98.1044 101.515 99.2389 104.235C99.2854 104.345 99.1544 104.442 99.0572 104.417L98.7796 104.347C97.7131 104.082 96.7916 103.93 95.698 104.368C94.7368 104.753 93.803 105.355 93.167 106.184C91.6638 108.143 91.5008 110.804 91.641 113.181L91.648 113.296C91.779 115.382 92.3135 117.922 94.3523 118.953C95.3854 119.476 96.503 119.437 97.6248 119.429C98.903 119.421 100.209 119.56 101.43 119.953C102.112 120.173 102.433 121.078 101.867 121.608C101.679 121.784 101.483 121.948 101.275 122.096C101.895 122.756 102.503 123.424 103.092 124.128C104.092 125.321 105.154 126.475 106.264 127.568C107.337 128.623 108.473 129.644 109.699 130.519C110.987 131.436 112.53 132.08 113.645 133.205C114.372 133.936 114.247 134.957 113.645 135.697C112.15 137.535 109.606 135.602 108.177 134.515L108.004 134.384C106.519 133.26 105.108 132.047 103.906 130.618C102.68 129.16 101.62 127.608 100.836 125.869C100.375 124.846 100.082 123.88 99.9234 122.87C97.3544 123.986 94.1156 123.631 91.8128 122.06C88.7558 119.976 87.898 116.151 87.8873 112.659L87.8876 112.452C87.9103 109.059 88.8015 105.052 91.872 103.125ZM97.6682 108.045L97.7624 108.046C98.8938 108.07 99.9028 108.478 100.864 109.04L100.963 109.098C101.897 109.654 103.236 110.1 103.731 111.14C104.026 111.768 104.005 112.486 103.49 113.006C102.556 113.949 101.147 113.792 100.137 113.057C99.3828 112.505 98.8863 111.679 98.1469 111.121C96.7567 110.068 94.5638 110.128 93.1168 111.039C93.0279 111.096 92.9415 110.988 92.9814 110.903C93.87 109.084 95.6312 108.038 97.6682 108.045Z" fill="black"/>
<path fill-rule="evenodd" clip-rule="evenodd" d="M150.685 125.112L150.831 125.078C151.999 124.803 153.122 124.428 154.209 125.152C155.245 125.841 155.388 127.116 154.581 128.046C153.752 129.002 152.65 128.949 151.487 128.962L151.414 128.963C150.449 128.976 149.467 128.962 148.505 128.876C147.608 128.796 146.706 128.668 145.819 128.501L145.295 128.398C144.759 128.29 144.232 128.149 143.956 127.63C143.475 126.726 147.052 126.017 147.486 125.893C148.541 125.592 149.616 125.354 150.685 125.112ZM152.67 114.213C152.099 114.804 151.346 115.208 150.501 115.46C148.376 116.092 145.664 115.755 143.929 115.111C143.569 114.977 143.232 114.705 143.039 114.365C142.862 114.053 142.802 113.688 142.937 113.315C142.975 113.209 143.022 113.104 143.068 113.002C143.196 112.723 143.455 112.506 143.76 112.382C144.077 112.253 144.436 112.227 144.725 112.318C144.764 112.33 144.804 112.343 144.844 112.356C145.944 112.702 147.748 113.277 149.242 113.165C150.139 113.099 150.927 112.782 151.335 111.961C151.55 111.528 151.491 111.1 151.3 110.708C151.012 110.117 150.437 109.603 149.952 109.249C149.268 108.749 148.538 108.55 147.784 108.339C147.5 108.26 147.212 108.179 146.921 108.083C146.825 108.051 146.741 107.989 146.679 107.909C146.617 107.829 146.576 107.731 146.563 107.634C146.55 107.532 146.566 107.431 146.613 107.344C146.657 107.264 146.726 107.193 146.83 107.146C148.306 106.485 150.215 106.922 151.656 107.963C152.376 108.483 152.976 109.151 153.347 109.898C153.69 110.59 153.836 111.351 153.702 112.126C153.551 112.994 153.184 113.679 152.67 114.213ZM128.48 99.452C128.895 99.2691 129.235 100.125 129.321 100.358L129.497 100.842C129.785 101.623 130.116 102.416 130.721 102.996C131.228 103.481 132.04 103.892 132.628 103.324C133.186 102.786 132.914 102.18 132.996 101.519C133.145 100.325 134.773 99.1307 135.752 100.377C137.963 103.194 134.542 107.11 131.39 106.423C129.787 106.074 128.497 104.788 127.967 103.259L127.94 103.178C127.622 102.21 127.301 99.9721 128.48 99.452ZM157.018 101.413L157.003 101.378C155.95 98.9808 159.707 97.9507 160.026 100.103L160.046 100.248C160.356 102.637 159.703 105.85 156.778 106.088C153.494 106.356 152.127 102.691 152.42 100.001C152.473 99.52 153.057 99.4534 153.237 99.8909L153.276 99.9864C153.806 101.338 154.309 103.937 156.177 103.935C157.425 103.933 157.366 102.247 157.018 101.413ZM159.401 94.4748C161.288 94.4078 161.286 97.3629 159.401 97.4072C153.105 97.5554 146.804 97.7524 140.505 97.7862L139.361 97.7932C133.445 97.8329 127.509 97.9137 121.61 97.417C121.107 97.3747 121.2 96.6675 121.621 96.696C127.805 95.8156 134.064 95.5581 140.295 95.2236C146.658 94.8818 153.033 94.7009 159.401 94.4748Z" fill="black"/>
<path fill-rule="evenodd" clip-rule="evenodd" d="M159.38 76.3794C160.601 75.9607 161.575 77.2311 161.34 78.3384C161.063 79.6424 159.703 80.689 158.801 81.6082C157.854 82.5762 156.889 83.5251 155.887 84.4382C153.975 86.1841 151.994 87.8282 149.904 89.3605L149.265 89.8289C147.35 91.2307 145.44 92.6001 143.389 93.8137C142.277 94.4689 141.156 95.1029 140.019 95.7137C139.614 95.9314 139.119 96.2672 138.61 96.5168C140.471 97.954 141.904 100.148 142.214 102.192C142.983 107.268 139.713 111.973 135.098 113.843C132.798 114.775 130.237 115.046 127.778 114.765C125.277 114.479 122.742 113.74 121.117 111.69C119.674 109.87 119.154 107.547 119.051 105.267C119.002 104.185 119.013 103.119 119.241 102.162C118.246 102.17 117.251 102.166 116.264 102.177C113.826 102.2 111.384 102.211 108.944 102.143C106.427 102.071 103.924 101.959 101.416 101.735C100.315 101.636 99.2211 101.473 98.1266 101.317C97.0641 101.167 95.8916 101.109 94.8986 100.674C94.831 100.647 94.859 100.549 94.9176 100.53C95.9761 100.188 97.1782 100.249 98.281 100.182L99.3559 100.116C100.251 100.063 101.146 100.014 102.044 99.9849C104.118 99.9167 106.19 99.8999 108.264 99.8643L109.153 99.8477C111.593 99.7991 114.033 99.7716 116.473 99.6934C117.485 99.6617 118.499 99.6026 119.516 99.5476C119.634 99.279 119.807 99.0338 119.974 98.7952C120.473 98.0808 121.106 97.451 121.763 96.8804C123.109 95.7051 124.624 94.8324 126.314 94.2469C127.989 93.6688 130.439 93.3819 132.21 93.4193C133.982 93.4566 136.508 93.7066 137.319 95.1558C137.404 95.3058 138.948 95.0163 139.406 94.6652C140.477 93.8475 141.53 93.0063 142.562 92.144C144.481 90.5399 146.454 88.9611 148.271 87.2449C150.145 85.4738 152.004 83.6731 153.787 81.8132C154.683 80.8811 155.577 79.947 156.445 78.9917C157.332 78.0174 158.095 76.8169 159.38 76.3794Z" fill="black"/>
</svg>
