<svg width="240" height="324" viewBox="0 0 240 324" fill="none" xmlns="http://www.w3.org/2000/svg">
<path fill-rule="evenodd" clip-rule="evenodd" d="M127.586 126.829C133.74 127.133 143.323 129.773 143.803 131.46C144.551 134.094 142.943 143.97 145.632 149.289C146.778 151.557 151.131 151.354 152.817 152.092C158.46 154.563 175.165 159.249 178.61 165.15C179.99 167.514 188.47 196.848 192.976 211.812C193.484 213.5 194.058 215.06 194.681 216.505L194.911 215.382C196.748 206.337 197.667 200.862 197.667 198.956C197.667 195.977 195.292 183.41 197.667 180.215C200.018 177.051 205.684 174.464 208.234 174.412L208.31 174.412C209.984 174.412 211.436 173.888 212.667 172.841L214.472 171.933C223.653 167.324 229.018 164.796 230.564 164.349C233.033 163.635 237.234 165.156 235.134 167.439C233.733 168.962 230.214 171.655 224.577 175.518L222.451 177.208L222.708 177.342C225.455 178.789 227.07 180.007 227.554 180.996C228.052 182.015 227.813 183.22 226.836 184.612L226.984 184.757C228.219 185.969 228.837 186.782 228.837 187.196V189.219C230.065 191.019 230.373 192.52 229.758 193.722C229.144 194.925 228.17 195.966 226.836 196.848C225.854 199.434 224.683 201.274 223.325 202.369C221.968 203.464 219.621 204.376 216.285 205.104L213.267 212.324L210.821 222.468L209.588 233.786L209.946 234.045C211.605 235.254 212.667 236.15 212.667 237.076C212.667 238.518 205.975 272.435 195.563 273.953C193.311 274.281 181.633 272.671 177.798 269.551L177.855 269.888C178.757 275.339 178.566 278.17 177.282 278.381C161.503 280.968 116.69 281.768 42.8421 280.779C42.4028 241.569 44.3895 215.456 48.8023 202.439C60.0882 169.149 72.5314 157.779 76.8847 156.805C80.6979 155.952 93.9209 150.687 97.6172 149.289C100.03 148.377 100.547 145.642 103.297 145.642L103.519 145.644C106.178 145.67 108.536 146.146 109.861 144.778C113.337 141.188 112.366 136.218 113.808 131.46C114.603 128.838 120.033 126.457 127.586 126.829Z" fill="white"/>
<path fill-rule="evenodd" clip-rule="evenodd" d="M110.677 136.23C111.038 135.514 111.997 135.607 112.63 135.932C114.528 137.32 112.542 140.01 112.017 141.704C110.667 144.989 108.321 148.2 105.083 149.735C105.352 153.001 105.656 156.259 105.768 159.535C109.908 164.672 116.887 166.547 123.083 167.989C132.814 170.681 143.797 165.165 147.081 155.543C143.343 153.418 142.133 147.855 143.249 143.974C143.346 143.701 143.768 143.581 143.918 143.885C144.942 145.991 144.806 148.56 145.969 150.641C157.139 151.711 171.553 155.927 178.871 164.963C182.113 169.484 183.398 175.363 184.995 180.603C188.403 191.404 191.118 202.425 194.46 213.237L194.854 211.191C195.934 205.556 196.915 199.843 196.186 194.112L196.173 193.838C195.934 189.277 194.508 180.803 198.043 177.724C201.241 175.279 205.874 173.315 209.887 174.441C217.028 171.262 223.192 165.909 230.798 163.824C233.139 163.342 236.507 163.912 235.953 167.089C234.42 172.645 227.998 174.802 223.609 177.667C226.423 178.43 229.853 181.853 227.654 184.838C227.635 184.891 227.619 184.931 227.602 184.963C229.384 185.753 229.634 187.74 229.197 189.444C229.152 189.894 229.034 189.507 229.298 189.915C231.31 191.813 230.421 197.104 227.39 197.282C227.589 199.789 225.979 202.224 223.94 203.591C221.743 205.064 218.566 205.128 216.746 207.144C212.475 214.678 211.002 223.573 210.536 232.201C213.352 233.255 215.878 236.407 213.32 239.082C213.269 239.088 213.219 239.094 213.168 239.098C211.685 243.057 211.112 247.277 210.328 251.411C209.122 258.466 205.977 264.943 201.962 270.82C197.319 278.599 184.833 277.366 178.543 272.346C178.568 273.663 178.785 274.972 178.364 276.245C177.741 277.618 176.224 277.025 176.073 275.672C172.748 277.543 171.965 271.368 175.661 272.348C175.377 267.884 175.212 263.413 175.079 258.942C170.894 260.297 170.713 253.351 174.994 254.74L174.989 252.82C174.957 238.097 175.12 223.324 177.062 208.717C177.242 207.624 177.546 206.567 177.723 205.481C177.742 205.369 177.918 205.4 177.918 205.508C178.219 225.958 176.883 246.452 178.277 266.91C179.437 267.264 179.9 268.596 180.759 269.372C182.667 271.134 185.265 271.991 187.805 272.29C194.918 273.288 197.989 271.115 201.157 264.929C199.729 265.885 197.798 264.198 198.669 262.686L198.696 262.64C199.6 261.039 202.154 261.999 201.831 263.792C205.016 258.69 206.683 252.937 207.914 247.1L208.08 246.403C208.679 243.924 209.455 241.085 210.892 238.842C202.129 236.608 193.556 229.8 192.184 220.46C189.959 227.453 186.945 234.29 184.072 241.091C183.185 243.456 182.815 245.999 181.543 248.193C181.247 248.7 180.497 248.569 180.33 248.034C179.186 242.918 182.652 238.052 184.452 233.446C185.921 230.844 190.14 218.958 192.755 218.929C189.816 206.044 185.897 193.254 182.164 180.529C178.554 163.347 171.198 160.034 155.616 154.624C158.426 168.952 171.259 182.822 164.43 197.851L164.264 198.241C163.566 199.898 162.986 201.568 163.473 203.386C163.947 205.151 165.024 206.683 165.886 208.271C170.705 217.236 167.388 227.707 165.525 237.044C163.171 247.993 160.846 258.953 158.414 269.886C157.934 272.066 157.623 274.313 156.899 276.427C156.525 277.517 154.659 277.414 154.78 276.142C155.01 273.673 155.703 271.266 156.21 268.842C159.24 253.147 163.338 237.637 165.945 221.873C167.621 210.204 161.021 208.411 161.268 200.871C162.165 197.015 164.539 193.574 164.403 189.465C164.931 176.886 155.772 166.508 154.641 154.275L152.644 153.562C151.647 153.205 150.65 152.845 149.656 152.476C154.886 189.066 153.298 226.455 150.684 263.226C150.15 264.923 150.658 276.775 148.418 275.723C148.305 276.385 147.954 277.037 147.189 277.033C140.245 277.097 133.298 277.207 126.354 277.29C123.013 276.982 118.422 278.257 115.581 276.329C112.301 275.393 111.923 266.506 111.046 263.338L110.705 261.034C105.13 223.391 100.142 184.971 104.149 146.955C98.5745 147.169 97.424 153.187 97.0105 157.57C95.9768 167.242 89.73 175.571 89.4304 185.354C89.4051 187.727 89.853 190.027 90.8013 192.206C93.3175 197.545 97.6692 203.718 94.4168 209.681C90.5702 214.323 90.9032 215.544 92.3147 221.281C96.2859 240.246 102.881 258.478 109.154 276.763C107.791 283.87 99.5924 257.486 98.8211 255.497C95.1917 257.322 93.2092 251.264 97.372 250.832C94.6982 241.879 92.2375 232.859 90.1889 223.739L90.1346 223.482C89.2297 219.269 87.4497 214.335 90.4555 210.597C98.2061 202.757 85.335 193.992 86.9586 184.494C85.5566 185.534 83.4344 184.44 83.4663 182.693C83.4028 180.727 86.0432 179.719 87.3137 181.22C88.6201 173.513 93.165 166.785 94.5404 159.102L94.6025 158.741C95.0685 156.025 95.1999 153.168 96.5333 150.692C94.7183 151.872 92.7854 152.825 90.7973 153.666C94.3519 156.636 87.4686 159.347 88.0382 154.759C68.5449 160.401 64.1389 168.268 56.9818 186.337C58.3187 185.037 60.6089 186.719 59.8086 188.376C59.1701 190.122 56.385 189.611 56.3861 187.751L56.0599 188.529C51.7199 198.91 47.7697 209.544 45.7846 220.654C49.6787 220.104 48.6873 226.329 45.1591 224.574C43.7432 234.455 43.7208 244.475 43.8938 254.436C47.1784 252.713 47.2772 258.568 43.9255 256.898C44.048 265.06 44.2276 273.223 44.3628 281.385C44.3903 283.122 41.7114 283.114 41.6691 281.385C41.3563 268.843 40.7861 256.279 41.0571 243.733C40.8021 221.959 47.0594 200.972 56.3827 181.466C64.632 159.007 76.027 156.453 96.9917 149.923C98.9269 147.049 103.061 144.331 106.435 146.136C108.322 143.088 109.281 139.477 110.677 136.23ZM74.7578 214.505C74.8359 214.229 75.231 214.298 75.2437 214.571C75.419 218.094 75.2627 221.64 75.0218 225.179C74.8759 227.339 74.6965 229.496 74.5444 231.642C74.1409 237.302 73.8155 242.968 73.5683 248.639C73.6549 248.603 73.7437 248.571 73.8366 248.546C74.2634 248.429 74.6904 248.429 75.1169 248.546C75.4975 248.652 75.8302 248.838 76.1168 249.106L76.1775 249.165C76.412 249.382 76.5789 249.64 76.6761 249.938C76.8145 250.203 76.8846 250.487 76.8844 250.79L76.8829 250.866C76.881 251.301 76.7733 251.705 76.5535 252.081C76.3402 252.443 76.0528 252.73 75.6916 252.946C75.3155 253.164 74.9118 253.271 74.4768 253.273C74.4303 253.278 74.3836 253.282 74.3373 253.284C74.0139 253.297 73.712 253.229 73.4329 253.083L73.3909 253.071C73.2852 255.947 73.1986 258.826 73.1352 261.704C73.0782 264.213 73.0021 266.722 72.9514 269.23L72.9279 270.485L72.8819 273.259C72.8669 274.399 72.8743 275.491 72.4866 276.567L72.4401 276.691C72.1613 277.409 71.9439 278.409 71.1977 278.809C70.6021 279.128 69.7993 279.01 69.457 278.388C69.1697 277.868 69.4188 277.12 69.8437 276.769C69.8352 276.746 69.8225 276.725 69.812 276.702C69.7465 276.511 69.647 276.332 69.588 276.139C69.4019 275.531 69.4528 274.882 69.4507 274.25C69.4507 273.134 69.4885 272.018 69.5183 270.904C69.5838 268.533 69.6599 266.164 69.7526 263.794C70.0666 255.847 70.6579 247.899 71.3351 239.973L71.565 237.298C71.8712 233.741 72.188 230.18 72.6366 226.641C72.6575 226.472 72.6789 226.303 72.7021 226.134C72.4613 226.013 72.2373 225.847 72.0597 225.661C71.3479 224.913 70.9162 223.795 70.5114 222.832L70.4183 222.613C69.9789 221.586 69.5732 220.546 69.3641 219.443L69.3441 219.341C69.2487 218.871 69.0604 218.039 69.5585 217.811C69.8183 217.693 69.9829 217.777 70.0676 218.037C70.0784 218.071 70.0695 218.109 70.0507 218.139C70.2556 218.453 70.5768 218.747 70.7796 219.039L71.4737 220.032L71.8169 220.531C72.2521 221.171 72.7169 221.784 73.1965 222.389C73.5744 219.734 74.0373 217.09 74.7578 214.505ZM103.224 273.66C104.092 272.98 105.506 273.349 105.506 274.605C105.506 275.867 104.09 276.23 103.224 275.55L103.181 275.518L103.14 275.484C102.668 275.115 102.652 274.156 103.104 273.756L103.14 273.726C103.167 273.702 103.195 273.681 103.224 273.66ZM65.3982 271.207L65.4728 271.208C65.8657 271.208 66.2312 271.308 66.5714 271.507C66.7192 271.619 66.865 271.733 67.0129 271.847C67.2833 272.117 67.4692 272.439 67.5728 272.809L67.6511 273.387C67.6615 273.688 67.6002 273.967 67.4629 274.227C67.3742 274.497 67.2242 274.732 67.0129 274.928C66.8143 275.142 66.5819 275.292 66.3117 275.378C66.0733 275.504 65.8191 275.568 65.5473 275.568L65.4728 275.567C65.0779 275.567 64.7122 275.467 64.3721 275.269C64.2242 275.157 64.0784 275.042 63.9305 274.928C63.6622 274.658 63.4742 274.336 63.3709 273.967C63.3453 273.774 63.3202 273.58 63.2925 273.387C63.2821 273.087 63.3453 272.809 63.4805 272.548C63.5692 272.278 63.7192 272.044 63.9305 271.847C64.1293 271.633 64.3615 271.483 64.6319 271.397C64.8701 271.271 65.1261 271.207 65.3982 271.207ZM164.295 267.189L164.849 267.263C165.379 267.383 165.806 267.774 166.091 268.22C166.243 268.459 166.325 268.717 166.338 268.994C166.4 269.268 166.387 269.545 166.3 269.822C166.237 270.093 166.112 270.329 165.928 270.53C165.865 270.63 165.791 270.72 165.707 270.801C165.533 271.09 165.271 271.28 165.001 271.475C164.773 271.621 164.525 271.699 164.259 271.712C164.084 271.758 163.906 271.758 163.729 271.712C163.465 271.699 163.218 271.621 162.989 271.475C162.854 271.371 162.719 271.266 162.586 271.162C162.468 271.025 162.358 270.883 162.254 270.735C162.185 270.572 162.117 270.412 162.05 270.251C161.925 269.864 161.986 269.522 162.054 269.135C162.064 269.07 162.081 269.011 162.104 268.947L162.15 268.824C162.272 268.503 162.337 268.394 162.552 268.114L162.634 268.005C162.675 267.95 162.718 267.896 162.766 267.848C162.901 267.709 163.093 267.592 163.245 267.472C163.57 267.284 163.921 267.191 164.295 267.189ZM92.5669 265.835L92.6373 265.836C92.9437 265.838 93.2312 265.914 93.4972 266.069L93.8437 266.337C94.0549 266.55 94.2007 266.8 94.2831 267.09C94.3021 267.241 94.3234 267.394 94.3444 267.544C94.3528 267.778 94.3044 267.998 94.1965 268.203C94.1291 268.415 94.0106 268.596 93.8437 268.753C93.6896 268.918 93.5056 269.036 93.2944 269.106C93.11 269.202 92.9116 269.252 92.7009 269.253L92.6373 269.252C92.3289 269.252 92.0415 269.173 91.7753 269.019L91.4289 268.753C91.2176 268.539 91.0718 268.288 90.9894 267.998C90.9704 267.846 90.9493 267.696 90.9282 267.544C90.9197 267.309 90.9683 267.09 91.076 266.887C91.1458 266.675 91.262 266.491 91.4289 266.337C91.5831 266.17 91.7669 266.052 91.9782 265.984C92.1626 265.887 92.3573 265.838 92.5669 265.835ZM78.6242 265.137C79.0655 265.132 79.5136 265.257 79.8749 265.513C80.2256 265.762 80.4916 266.031 80.6629 266.434C80.7094 266.544 80.7557 266.652 80.796 266.762C80.9777 267.246 81.0115 267.732 80.7601 268.205C80.5171 268.664 79.9932 268.865 79.524 269.002C79.127 269.12 78.677 269.139 78.2819 268.998C78.0854 268.928 77.8932 268.854 77.7157 268.746C77.384 268.541 77.2045 268.298 76.9826 267.998C76.8094 267.702 76.7228 267.381 76.7228 267.039C76.7228 266.694 76.8094 266.375 76.9826 266.077C77.3226 265.496 77.9523 265.141 78.6242 265.137ZM56.2297 265.544C56.7876 265.544 57.2776 265.802 57.6137 266.237C57.9536 266.679 58.0783 267.229 57.9283 267.777C57.7698 268.355 57.2905 268.863 56.6966 269.008C56.2574 269.116 55.898 269.112 55.4607 269.038C55.0909 268.975 54.8081 268.755 54.5247 268.526C54.2015 268.262 54.1022 267.781 54.155 267.392C54.2057 267.003 54.3855 266.749 54.6581 266.519L54.66 266.512L54.5586 266.591C54.5968 266.557 54.6346 266.521 54.6728 266.485C54.6853 266.464 54.6959 266.441 54.7064 266.417C54.8628 266.151 55.074 265.942 55.3381 265.785C55.6149 265.625 55.9107 265.544 56.2297 265.544ZM186.284 259.143C186.59 259.06 186.899 259.06 187.205 259.143C187.431 259.196 187.627 259.299 187.795 259.453C187.964 259.564 188.102 259.705 188.206 259.88L188.24 259.939C188.481 260.35 188.519 260.819 188.415 261.275C188.287 261.839 187.767 262.353 187.205 262.486L187.186 262.49L187.167 262.495C186.939 262.567 186.708 262.577 186.48 262.524C186.25 262.514 186.037 262.446 185.84 262.319C185.591 262.159 185.382 261.952 185.221 261.702C185.094 261.503 185.027 261.29 185.016 261.059C184.976 260.907 184.976 260.755 185.016 260.603C185.027 260.373 185.094 260.159 185.221 259.961L185.491 259.612L185.519 259.589C185.735 259.373 185.99 259.225 186.284 259.143ZM165.013 247.958C167.783 247.958 167.779 252.257 165.013 252.257C162.244 252.257 162.248 247.958 165.013 247.958ZM63.6091 247.415C63.9009 247.349 64.1924 247.362 64.4818 247.453C64.6572 247.527 64.8304 247.601 65.0037 247.672L65.4473 248.015C65.5297 248.085 65.5699 248.161 65.6459 248.26L65.741 248.385C65.8784 248.569 65.8817 248.608 66.0325 249C66.1339 249.376 66.1339 249.752 66.0325 250.129C65.9837 250.31 65.91 250.481 65.8149 250.64C65.728 250.792 65.624 250.926 65.5069 251.049L65.4473 251.109C65.2487 251.323 65.0142 251.473 64.7438 251.561C64.5727 251.661 64.3889 251.709 64.1924 251.709C63.9009 251.775 63.6091 251.762 63.3199 251.671C63.1445 251.597 62.9713 251.523 62.7978 251.452L62.3544 251.109L62.0121 250.665L61.903 250.405L61.7924 250.143L61.7142 249.562C61.7037 249.26 61.7649 248.981 61.9021 248.719C61.9549 248.535 62.048 248.372 62.183 248.237C62.2804 248.072 62.4112 247.941 62.5762 247.844C62.7112 247.708 62.8741 247.616 63.0579 247.563C63.229 247.463 63.4128 247.415 63.6091 247.415ZM200.599 244.344C200.83 244.336 201.045 244.384 201.244 244.49C201.313 244.513 201.381 244.542 201.446 244.576C201.702 244.726 201.905 244.929 202.055 245.183C202.177 245.378 202.245 245.587 202.256 245.813C202.301 246.017 202.297 246.222 202.242 246.426L202.224 246.487C202.177 246.654 202.108 246.808 202.015 246.95C202.006 246.967 201.996 246.984 201.983 246.998C201.842 247.223 201.653 247.406 201.421 247.544C201.163 247.692 200.887 247.768 200.587 247.77C199.989 247.77 199.473 247.447 199.158 246.95C199.114 246.88 199.089 246.791 199.057 246.719C199.03 246.652 198.985 246.565 198.962 246.487C198.882 246.187 198.882 245.887 198.962 245.587C199.015 245.367 199.114 245.175 199.264 245.012C199.384 244.828 199.543 244.682 199.739 244.576C199.983 244.434 200.245 244.358 200.523 244.346L200.599 244.344ZM83.6584 242.241C83.9509 242.161 84.2418 242.155 84.5325 242.223L84.6051 242.241C84.8373 242.296 85.0382 242.402 85.2112 242.558C85.4035 242.685 85.5579 242.852 85.6697 243.059C85.8305 243.336 85.9107 243.636 85.9126 243.957C85.9107 244.278 85.8305 244.579 85.6697 244.855C85.5112 245.124 85.2979 245.335 85.0298 245.494L84.7974 245.606C84.603 245.728 84.396 245.794 84.1718 245.804C84.022 245.844 83.8718 245.844 83.7241 245.804C83.5718 245.804 83.4302 245.766 83.2995 245.69C83.1558 245.65 83.0331 245.578 82.9274 245.472C82.7436 245.354 82.6002 245.198 82.4945 245.001L82.3232 244.597L82.2643 244.149L82.3232 243.704L82.4164 243.484C82.5007 243.181 82.653 242.919 82.8746 242.697C83.0964 242.477 83.3584 242.325 83.6584 242.241ZM188.43 238.676C188.739 238.578 189.045 238.565 189.351 238.633C189.558 238.633 189.753 238.686 189.932 238.792C190.129 238.847 190.298 238.944 190.442 239.088C190.693 239.25 190.889 239.466 191.035 239.734L191.267 240.286C191.407 240.643 191.356 241.169 191.272 241.529C191.202 241.824 191.067 242.083 190.866 242.302C190.765 242.473 190.63 242.609 190.458 242.71C190.263 242.888 190.037 243.015 189.781 243.09L189.711 243.109L189.685 243.116C189.681 243.118 189.677 243.118 189.673 243.118C189.67 243.12 189.666 243.12 189.664 243.12C189.563 243.145 189.459 243.16 189.351 243.164C189.045 243.232 188.739 243.22 188.43 243.122C188.249 243.046 188.065 242.968 187.881 242.89C187.725 242.772 187.57 242.651 187.414 242.53C187.294 242.374 187.173 242.218 187.053 242.063C186.884 241.799 186.793 241.512 186.78 241.205C186.725 241 186.725 240.797 186.78 240.592C186.78 240.383 186.833 240.191 186.936 240.011C187.03 239.724 187.188 239.477 187.414 239.267C187.57 239.147 187.725 239.026 187.881 238.908C188.065 238.83 188.249 238.752 188.43 238.676ZM53.6841 231.109C54.0029 231.022 54.3221 231.022 54.6411 231.109L55.0698 231.289C55.281 231.403 55.4481 231.557 55.5749 231.754C55.7355 231.927 55.843 232.132 55.8979 232.367C56.0228 232.688 56.008 233.197 55.9087 233.525C55.7967 233.897 55.6235 234.193 55.3552 234.472C54.9094 234.932 54.2247 235.066 53.6186 234.926C53.4514 234.888 53.293 234.814 53.1493 234.723C52.6911 234.44 52.3826 233.945 52.3848 233.398C52.3848 233.339 52.389 233.28 52.3974 233.221C52.3679 233.1 52.3571 232.975 52.3615 232.844L52.4249 232.367L52.4289 232.354C52.5136 232.052 52.6657 231.79 52.8874 231.568C53.0923 231.365 53.3313 231.218 53.6045 231.13L53.6735 231.109H53.6841ZM213.104 183.651C212.527 178.917 210.357 173.824 203.739 176.604L203.247 176.788C201.61 177.408 199.701 178.223 198.705 179.656C198.018 180.643 198.25 182.556 198.155 183.708C197.724 187.453 197.955 191.192 198.405 194.922C198.985 203.663 197.148 212.72 193.49 220.664C197.151 226.589 202.05 232.116 208.733 234.586C209.016 227.849 210.334 221.236 211.738 214.662L211.793 214.375C212.354 211.411 212.635 208.369 214.581 205.903C218.54 201.604 223.985 204.037 226.59 197.13C226.042 196.853 226.345 195.907 227.004 196.089C229.289 196.494 229.66 192.257 228.096 191.236C226.467 190.242 228.107 188.408 227.414 187.085C227.027 186.514 226.192 186.495 225.814 185.838C224.811 183.418 229.829 181.867 223.928 179.139C222.721 178.71 221.37 178.976 220.152 178.971C218.36 179.139 216.936 180.402 215.297 180.799C217.082 185.421 212.579 189.872 208.516 186.18C206.304 188.271 203.831 193.037 209.207 190.815C211.838 189.059 214.103 186.788 217.157 185.707L217.221 185.687C218.355 185.315 223.316 182.904 223.07 184.991C221.212 186.785 218.147 186.764 215.995 188.22C213.011 189.6 211.103 192.945 207.531 192.899C206.708 197.901 212.382 194.857 214.495 193.478L215.08 193.16C218.061 191.549 221.086 190.057 224.561 190.037C225.521 190.031 225.516 191.511 224.561 191.523C220.032 191.552 216.345 194.384 212.551 196.49C212.177 199.41 216.452 198.131 218.073 197.701C219.774 197.462 222.505 195.622 223.993 196.594C224.575 198.09 222.014 197.978 221.122 198.432C225.194 200.389 221.626 201.62 220.535 198.614L220.215 198.723C217.489 199.64 210.877 201.526 211.664 196.906C210.666 197.348 209.449 197.612 208.347 197.367C205.597 201.436 201.211 199.861 207.586 197.088C206.15 196.42 205.67 193.839 207.05 192.878C202.031 192.572 205.757 187.304 207.834 185.549C207.638 185.351 207.448 185.149 207.271 184.944C206.073 185.515 204.815 185.861 203.468 185.984C202.18 186.1 201.893 183.906 203.164 183.727C204.527 183.534 205.782 183.171 206.982 182.486C208.801 181.7 209.421 185.076 211.241 185.195C212.234 185.392 212.906 184.521 213.104 183.651ZM170.855 227.208C171.295 227.208 171.685 227.392 172.004 227.683C172.323 227.975 172.461 228.412 172.48 228.831C172.488 229.055 172.442 229.264 172.34 229.458C172.275 229.659 172.163 229.832 172.004 229.981C171.709 230.274 171.271 230.456 170.855 230.456C170.416 230.456 170.025 230.272 169.706 229.981C169.387 229.687 169.25 229.251 169.23 228.831C169.222 228.609 169.269 228.4 169.37 228.205C169.429 228.024 169.525 227.864 169.66 227.728L169.706 227.683C170.002 227.387 170.439 227.208 170.855 227.208ZM184.171 217.184L184.241 217.185C184.613 217.188 184.957 217.28 185.278 217.466C185.418 217.574 185.557 217.68 185.695 217.788C185.95 218.045 186.125 218.348 186.223 218.697C186.322 219.06 186.322 219.426 186.223 219.789C186.189 219.999 186.111 220.201 185.988 220.377C185.806 220.679 185.566 220.922 185.261 221.102C184.947 221.286 184.606 221.376 184.241 221.378C183.876 221.376 183.535 221.286 183.221 221.102C182.916 220.922 182.675 220.679 182.496 220.377C182.371 220.201 182.293 219.999 182.259 219.789C182.16 219.426 182.16 219.06 182.259 218.697C182.35 218.373 182.507 218.089 182.734 217.844L182.787 217.788C182.973 217.587 183.193 217.445 183.449 217.363C183.673 217.245 183.914 217.185 184.171 217.184ZM82.5512 217.297C82.7077 217.255 82.862 217.255 83.0183 217.297C83.2507 217.308 83.4681 217.378 83.669 217.505C83.7873 217.597 83.9056 217.688 84.0239 217.779L84.1271 217.903C84.3476 218.172 84.3531 218.218 84.5223 218.627C84.5923 218.855 84.6028 219.083 84.5521 219.312C84.5521 219.466 84.512 219.61 84.4357 219.743C84.3937 219.889 84.3218 220.015 84.2141 220.121C84.1378 220.25 84.0366 220.353 83.9075 220.43C83.743 220.58 83.5486 220.683 83.3246 220.736L82.8702 220.797C82.8113 220.789 82.75 220.78 82.6908 220.774C82.6195 220.772 82.5503 220.764 82.4825 220.751L82.4139 220.736L82.3514 220.719C82.2687 220.695 82.1881 220.663 82.1098 220.622C81.962 220.58 81.8331 220.506 81.723 220.396C81.5331 220.273 81.381 220.108 81.2711 219.903L81.2415 219.836C81.2014 219.764 81.1676 219.69 81.142 219.61C81.0704 219.483 81.0345 219.348 81.0324 219.202C80.9904 219.008 80.9932 218.815 81.0434 218.623L81.062 218.559L81.2246 218.172C81.3091 218.041 81.3979 217.908 81.5117 217.8C81.5804 217.739 81.7481 217.608 81.8426 217.543L81.9005 217.505C82.1014 217.378 82.319 217.308 82.5512 217.297ZM57.0811 214.275C57.3853 213.077 58.9571 212.698 59.8128 213.554C60.6682 214.411 60.2902 215.983 59.0926 216.287L58.955 216.321C57.7973 216.615 56.7536 215.569 57.0473 214.411L57.0811 214.275ZM202.089 204.5C202.08 204.382 202.233 204.34 202.309 204.409C203.327 205.322 203.976 206.417 205.211 207.125C206.454 207.835 207.734 207.778 209.029 208.237C209.469 208.393 209.471 208.981 209.029 209.135C206.578 209.991 202.275 207.089 202.089 204.5ZM86.9375 204.314C87.2102 204.23 87.4848 204.217 87.7574 204.278C87.9433 204.278 88.1163 204.325 88.2748 204.418C88.4501 204.466 88.6003 204.555 88.729 204.682C88.8834 204.773 89.006 204.897 89.0987 205.052C89.2806 205.25 89.4032 205.483 89.4663 205.749L89.5382 206.297L89.4663 206.844C89.3966 207.007 89.3269 207.172 89.2593 207.334L89.0705 207.59C88.9175 207.794 88.893 207.796 88.522 208.072C88.2855 208.222 88.0299 208.304 87.7574 208.315C87.5755 208.366 87.3938 208.366 87.2102 208.315C87.0264 208.315 86.8529 208.269 86.6926 208.176C86.5191 208.127 86.3672 208.038 86.2382 207.911C86.0144 207.765 85.8391 207.573 85.71 207.334C85.6403 207.172 85.5708 207.007 85.5032 206.844L85.429 206.297L85.5032 205.749L85.5072 205.732C85.6044 205.39 85.7778 205.092 86.0269 204.84L86.437 204.523C86.5973 204.42 86.7642 204.367 86.9375 204.314ZM185.56 204.724C186.145 204.563 186.787 204.732 187.216 205.162C187.645 205.591 187.814 206.231 187.653 206.817C187.495 207.387 187.036 207.85 186.464 208.004C186.293 208.051 186.119 208.076 185.944 208.068C185.65 208.066 185.376 207.991 185.12 207.844L184.791 207.588C184.63 207.44 184.518 207.265 184.452 207.062C184.349 206.867 184.302 206.658 184.311 206.432L184.309 206.392C184.302 206.311 184.313 206.231 184.338 206.153C184.338 206.07 184.351 205.99 184.372 205.912C184.526 205.341 184.991 204.88 185.56 204.724ZM59.3987 199.001C59.5868 198.994 59.7621 199.032 59.9248 199.119C60.0959 199.174 60.2417 199.267 60.3642 199.402C60.4994 199.525 60.5924 199.673 60.6473 199.842C60.7339 200.005 60.772 200.18 60.7656 200.368C60.7656 200.615 60.7023 200.846 60.5797 201.057C60.5079 201.15 60.4361 201.243 60.3642 201.334C60.1952 201.505 59.9945 201.621 59.7621 201.687L59.6269 201.733C59.4283 201.805 59.2339 201.81 59.0269 201.782C58.8093 201.753 58.6084 201.693 58.4311 201.558C58.2577 201.457 58.1206 201.319 58.0192 201.146L57.903 200.871C57.8776 200.778 57.8671 200.639 57.8607 200.541C57.8607 200.527 57.8607 200.514 57.8586 200.499C57.8586 200.417 57.884 200.216 57.9049 200.134C57.9516 199.96 58.0464 199.795 58.1544 199.656C58.2473 199.51 58.3741 199.396 58.5304 199.311L58.5443 199.301L58.56 199.29C58.6084 199.256 58.6593 199.223 58.71 199.187C58.9213 199.064 59.1516 199.001 59.3987 199.001ZM168.495 197.5C168.833 197.5 169.148 197.587 169.44 197.756C169.45 197.76 169.46 197.764 169.469 197.769C169.748 197.933 169.97 198.156 170.135 198.434C170.304 198.724 170.388 199.037 170.388 199.371C170.388 199.707 170.304 200.017 170.135 200.307C169.97 200.586 169.748 200.808 169.469 200.973C169.46 200.979 169.45 200.983 169.44 200.987C169.148 201.157 168.833 201.241 168.495 201.243C168.159 201.241 167.844 201.157 167.553 200.987C166.982 200.654 166.625 200.03 166.625 199.371C166.625 198.711 166.982 198.088 167.553 197.756C167.844 197.587 168.159 197.5 168.495 197.5ZM80.7596 195.056L80.8172 195.055C81.0411 195.046 81.25 195.093 81.4423 195.197C81.643 195.262 81.8184 195.374 81.9665 195.533L82.2749 195.79L82.3644 195.863C82.3792 195.875 82.3937 195.888 82.4078 195.9C82.615 196.109 82.7566 196.355 82.8369 196.638C82.8622 196.801 82.8831 196.961 82.9003 197.124C82.9465 197.547 82.6974 197.98 82.4228 198.28C82.2749 198.439 82.0993 198.551 81.8967 198.618C81.7024 198.72 81.4911 198.766 81.2669 198.758C80.8085 198.718 80.3735 198.62 80.0439 198.265C80.0057 198.223 79.9698 198.179 79.932 198.134L79.6679 197.83C79.4672 197.627 79.3275 197.388 79.2517 197.113C79.2303 196.968 79.2115 196.824 79.1925 196.68C79.1733 196.247 79.3846 195.841 79.6679 195.533C79.9294 195.247 80.3731 195.072 80.7596 195.056ZM70.0954 190.606C72.2924 190.606 72.2882 194.015 70.0954 194.015C67.9001 194.015 67.9044 190.606 70.0954 190.606ZM180.563 185.826L180.632 185.827C180.996 185.829 181.336 185.92 181.651 186.104L182.06 186.419C182.31 186.673 182.483 186.969 182.58 187.311C182.603 187.49 182.627 187.67 182.652 187.848C182.663 188.127 182.603 188.387 182.477 188.628C182.397 188.877 182.257 189.095 182.06 189.279C181.877 189.475 181.661 189.615 181.41 189.695C181.169 189.822 180.909 189.881 180.632 189.87C180.267 189.868 179.927 189.777 179.612 189.594C179.475 189.488 179.34 189.382 179.202 189.279C178.972 189.045 178.807 188.774 178.708 188.465L178.685 188.387L178.611 187.848C178.6 187.571 178.659 187.311 178.786 187.07C178.866 186.819 179.006 186.603 179.202 186.419C179.386 186.222 179.604 186.083 179.853 186.003C180.074 185.887 180.31 185.827 180.563 185.826ZM170.667 179.445C170.863 179.438 171.045 179.478 171.216 179.567C171.392 179.624 171.544 179.723 171.673 179.861C171.945 180.079 172.112 180.514 172.112 180.867C172.112 181.22 171.945 181.655 171.673 181.873C171.495 182.048 171.286 182.171 171.045 182.238L170.667 182.289C170.299 182.306 169.925 182.114 169.663 181.873C169.611 181.824 169.56 181.776 169.507 181.729C169.269 181.509 169.165 181.182 169.15 180.867C169.144 180.7 169.18 180.544 169.256 180.398C169.304 180.246 169.389 180.117 169.507 180.005C169.56 179.958 169.611 179.91 169.663 179.861C169.949 179.597 170.282 179.464 170.667 179.445ZM233.367 168.076C234.755 166.384 233.947 165.18 231.861 165.599C228.267 166.085 224.885 168.357 221.72 169.986C218.265 171.812 214.705 173.317 211.181 175.032C212.635 175.925 213.717 177.323 214.543 178.918C216.192 177.666 218.3 177.067 220.357 176.989C224.09 173.412 230.272 172.593 233.367 168.076ZM69.3561 173.692C69.7325 173.694 70.0852 173.782 70.4157 173.959L70.4862 173.998L70.9383 174.349C71.158 174.552 71.3122 174.793 71.4031 175.07C71.5425 175.336 71.6059 175.625 71.5953 175.934C71.6059 176.243 71.5425 176.53 71.4031 176.796C71.3122 177.075 71.158 177.314 70.9383 177.517C70.8137 177.68 70.6531 177.807 70.4608 177.9C70.281 177.974 70.1038 178.05 69.9242 178.126C69.7235 178.189 69.4911 178.198 69.2735 178.208C68.8784 178.206 68.511 178.107 68.1684 177.908L67.7249 177.566C67.5115 177.367 67.3592 177.132 67.2705 176.86C67.1448 176.62 67.0811 176.363 67.0811 176.089L67.0827 176.014C67.0827 175.998 67.0827 175.978 67.085 175.959C67.1101 175.761 67.1378 175.562 67.1649 175.364C67.2348 175.072 67.3679 174.816 67.5665 174.6C67.6172 174.499 67.6848 174.417 67.7716 174.349C68.0503 174.07 68.3796 173.88 68.7601 173.772C68.9587 173.747 69.1573 173.719 69.3561 173.692ZM167.383 168.092L167.447 168.093C167.733 168.093 167.997 168.165 168.242 168.306C168.349 168.389 168.455 168.471 168.561 168.554C168.757 168.75 168.893 168.983 168.966 169.249L169.024 169.667C169.03 169.885 168.985 170.086 168.886 170.274C168.823 170.468 168.715 170.638 168.561 170.781C168.419 170.935 168.25 171.043 168.054 171.107C167.868 171.206 167.665 171.25 167.447 171.242C167.164 171.242 166.898 171.17 166.653 171.026C166.547 170.946 166.44 170.864 166.334 170.781C166.156 170.601 166.027 170.391 165.95 170.152L165.93 170.086L165.874 169.667C165.865 169.45 165.909 169.249 166.009 169.061C166.072 168.865 166.182 168.695 166.334 168.554C166.478 168.399 166.647 168.292 166.841 168.228C167.01 168.139 167.191 168.094 167.383 168.092ZM81.7046 165.803L81.7783 165.804C82.1987 165.806 82.5896 165.912 82.953 166.123C83.1093 166.244 83.2659 166.364 83.422 166.487C83.7114 166.776 83.91 167.119 84.0222 167.514L84.1044 168.131C84.117 168.452 84.0494 168.75 83.9037 169.027C83.8109 169.317 83.6501 169.566 83.422 169.777C83.213 170.004 82.9635 170.164 82.6741 170.257C82.3973 170.403 82.0994 170.471 81.7783 170.458C81.3579 170.458 80.9671 170.352 80.6037 170.141C80.4475 170.02 80.2912 169.898 80.1328 169.777C79.8452 169.486 79.6466 169.143 79.5347 168.75L79.4523 168.131C79.4396 167.812 79.5072 167.512 79.653 167.235C79.7459 166.948 79.9065 166.696 80.1328 166.487C80.344 166.259 80.5931 166.098 80.8825 166.005C81.138 165.87 81.4115 165.804 81.7046 165.803ZM159.933 159.992C160.125 159.941 160.317 159.941 160.509 159.992C160.796 160.004 161.065 160.091 161.314 160.25L161.752 160.588C161.758 160.594 161.764 160.601 161.771 160.609C162.035 160.875 162.218 161.19 162.32 161.552L162.396 162.12C162.406 162.414 162.345 162.689 162.212 162.942C162.133 163.186 162.002 163.398 161.821 163.582L161.752 163.65C161.555 163.862 161.325 164.012 161.056 164.098C160.887 164.198 160.703 164.246 160.509 164.246C160.222 164.312 159.933 164.299 159.645 164.208C159.474 164.134 159.301 164.062 159.128 163.991L159.072 163.959C158.42 163.602 158.016 162.854 158.016 162.12C158.016 161.387 158.42 160.636 159.072 160.279C159.092 160.271 159.108 160.26 159.128 160.25C159.377 160.091 159.645 160.004 159.933 159.992Z" fill="black"/>
<path fill-rule="evenodd" clip-rule="evenodd" d="M133.581 60.2713C165.379 61.2784 167.297 76.3883 167.297 101.728C167.297 127.068 150.801 143.036 144.727 145.824C138.653 148.612 122.66 160.588 108.226 155.069C93.7932 149.55 97.9729 126.233 97.9729 116.215C97.9729 106.196 101.782 59.2642 133.581 60.2713Z" fill="white"/>
<path fill-rule="evenodd" clip-rule="evenodd" d="M146.481 137.502C140.642 140.763 133.955 140.889 127.674 138.837C123.907 137.61 120.453 135.711 117.22 133.441C114.408 131.465 111.899 129.274 109.412 126.946C107.365 122.43 105.542 117.922 104.688 113.008C103.923 108.597 103.822 104.017 104.709 99.6149C111.271 94.2149 117.793 88.7705 124.306 83.3094C127.623 80.5278 130.949 77.7615 134.314 75.0391C136.023 73.6568 137.716 72.2535 139.418 70.8649C139.699 70.6366 139.978 70.4084 140.259 70.1801C143.775 72.7544 147.544 74.9611 151.034 77.5774C152.861 78.9491 154.638 80.4095 156.33 81.9458C157.218 82.7512 158.084 83.5818 158.929 84.4336C159.702 85.2116 160.448 86.3273 161.545 86.6213C161.695 86.6612 161.836 86.6697 161.969 86.6507C163.435 99.4923 164.477 113.359 158.196 125.021C155.456 130.108 151.571 134.657 146.481 137.502ZM108.493 142.221C107.689 141.484 108.887 140.292 109.688 141.025C114.718 145.634 121.293 148.077 127.934 149.208C129.006 149.391 128.549 151.02 127.485 150.838C120.551 149.658 113.736 147.025 108.493 142.221ZM102.458 149.292C101.498 148.777 102.353 147.318 103.311 147.832C107.23 149.935 111.527 151.027 115.887 151.764C116.959 151.946 116.502 153.575 115.438 153.395C110.93 152.632 106.507 151.465 102.458 149.292ZM118.405 78.0617C121.657 75.1427 125.151 72.3653 128.842 70.0217C132.577 67.6503 136.657 66.2322 141.066 66.1984C140.758 66.4456 140.464 66.7204 140.166 66.9759C139.334 67.6884 138.503 68.4049 137.673 69.1192C136.012 70.5501 134.348 71.9786 132.708 73.4329C129.48 76.2988 126.241 79.1499 123.02 82.0222C116.827 87.5426 110.768 93.1833 104.84 98.9872C104.872 98.8456 104.906 98.704 104.939 98.5626C106.902 90.362 112.241 83.5967 118.405 78.0617ZM143.893 66.5555C143.914 66.4921 143.929 66.4306 143.937 66.3716C152.399 67.4749 159.466 73.7031 161.802 81.9037C161.599 82.187 161.487 82.523 161.529 82.88C161.551 83.0598 161.572 83.2416 161.593 83.4212C161.303 83.134 161.005 82.8654 160.752 82.6097C159.909 81.7558 159.045 80.925 158.158 80.1155C156.343 78.4608 154.458 76.9138 152.472 75.4702C149.018 72.9594 145.279 70.6515 141.161 69.4468C141.432 69.2248 141.702 69.0029 141.975 68.7831C142.788 68.1214 143.542 67.5763 143.893 66.5555ZM159.062 57.7866C153.867 52.1076 146.673 47.9483 139.098 46.5026C131.864 45.1204 124.374 46.0313 117.54 48.7176C103.239 54.3395 91.9551 66.7016 86.6713 81.0267C83.591 89.3729 82.5811 98.5223 83.5067 107.357C84.4276 116.151 87.0748 125.233 91.8917 132.715C92.3332 133.399 92.817 134.057 93.3241 134.693C93.098 137.275 92.2361 139.807 90.8797 142.01C90.8068 142.128 90.7299 142.243 90.6539 142.359C89.265 143.4 87.8244 144.376 86.418 145.384C85.1992 146.258 83.9928 147.154 82.8467 148.121C81.7648 149.034 80.5084 150.051 79.7759 151.284C79.1757 152.293 78.9306 153.666 79.7499 154.629C80.7372 155.789 82.41 155.38 83.7473 155.38C83.8618 155.38 83.9761 155.382 84.0904 155.384C84.492 155.636 84.9057 155.865 85.3065 156.077C89.3565 158.224 93.4213 160.349 97.4903 162.462C105.595 166.674 113.665 171.056 121.936 174.934C125.769 176.732 129.871 178.305 134.164 178.299C138.191 178.292 141.831 176.692 144.975 174.26C148.558 171.489 151.554 167.97 154.461 164.521C155.623 163.14 156.761 161.743 157.879 160.327C160.025 159.611 162.155 159.402 164.069 160.784C165.605 161.894 167.629 160.384 167.665 158.719C167.678 158.127 167.652 157.544 167.589 156.969C167.205 153.418 165.468 150.206 163.511 147.226C162.443 145.596 161.317 143.996 160.184 142.411C159.918 142.037 159.656 141.663 159.402 141.282C163.951 134.583 167.559 127.154 169.778 119.391C172.108 111.222 172.9 102.751 172.381 94.2868C171.582 81.3141 168.024 67.5848 159.062 57.7866Z" fill="black"/>
<path fill-rule="evenodd" clip-rule="evenodd" d="M148.318 128.112C146.762 128.563 145.092 128.603 143.505 128.137C142.066 127.715 140.589 126.785 139.53 125.555C138.589 124.462 137.98 123.134 138.004 121.717C138.006 121.555 138.064 121.42 138.153 121.315C138.249 121.202 138.383 121.124 138.526 121.091C138.674 121.056 138.83 121.068 138.962 121.129C139.083 121.183 139.186 121.276 139.25 121.412C139.413 121.626 139.575 121.836 139.738 122.041C141.046 123.658 142.313 124.866 144.281 125.299C145.349 125.534 146.415 125.43 147.393 125.071C148.441 124.687 149.387 124.012 150.129 123.148C150.465 122.757 150.86 122.598 151.247 122.595C151.686 122.592 152.12 122.796 152.446 123.122C152.767 123.442 152.982 123.878 153.002 124.333C153.019 124.732 152.888 125.15 152.542 125.522C151.4 126.749 149.92 127.648 148.318 128.112ZM148.271 107.866C149.866 108.836 152.297 111.098 150.581 113.503C148.561 115.624 145.652 113.193 144.219 112.093C142.89 111.241 141.396 113.433 142.629 114.428C152.987 122.099 157.19 108.12 149.078 106.726C148.185 106.572 147.853 107.566 148.271 107.866ZM133.347 103.598C132.834 103.269 132.231 103.157 131.563 103.461C131.04 103.699 130.124 104.491 129.486 105.533C129.05 106.245 128.741 107.081 128.805 107.952C128.82 108.154 128.746 108.303 128.628 108.413C128.535 108.5 128.4 108.564 128.242 108.584C128.108 108.601 127.958 108.586 127.837 108.548C127.605 108.475 127.482 108.325 127.435 108.202C126.989 107.016 127.181 105.692 127.682 104.498C128.357 102.886 129.583 101.536 130.387 101.101C131.762 100.356 133.383 100.322 134.76 101.081C135.932 101.727 136.665 102.77 137.394 103.833C137.549 104.059 137.703 104.283 137.862 104.504C138.18 104.945 138.212 105.383 138.089 105.759C137.952 106.175 137.603 106.526 137.168 106.71C136.765 106.879 136.298 106.903 135.884 106.729C135.535 106.581 135.214 106.294 135.011 105.807C134.669 104.985 134.1 104.079 133.347 103.598ZM159.389 105.425C159.037 105.608 158.763 105.663 158.373 105.546C158.158 105.481 157.945 105.357 157.778 105.191C157.613 105.025 157.494 104.82 157.447 104.592C157.333 104.029 157.026 103.502 156.587 103.159C156.212 102.866 155.739 102.71 155.214 102.798C154.648 102.892 154.109 103.256 153.737 103.684C153.613 103.827 153.515 103.99 153.418 104.152C153.234 104.454 153.056 104.735 152.804 104.957C152.708 105.042 152.564 105.1 152.424 105.1C152.368 105.1 152.31 105.091 152.255 105.074C151.691 104.508 151.583 104.079 151.601 103.653C151.62 103.206 151.796 102.754 152.081 102.332C152.748 101.343 154.014 100.531 154.869 100.348C156.04 100.096 157.202 100.398 158.134 101.052C159.093 101.725 159.804 102.77 160.025 103.947C160.078 104.231 160.056 104.537 159.948 104.802C159.842 105.062 159.659 105.284 159.389 105.425ZM135.928 93.0475C135.226 93.7321 134.394 93.8382 133.553 93.9325C133.086 93.9854 132.713 94.0281 132.346 94.111C131.337 94.3388 130.339 94.682 129.429 95.1763C128.478 95.693 127.441 96.3161 126.696 97.1144C126.518 97.3044 126.351 97.5037 126.184 97.7035C126.031 97.8857 125.884 98.061 125.729 98.2301C125.551 98.4243 125.382 98.6279 125.214 98.8309C125.11 99.0022 125.089 99.0444 125.068 99.0882C125.037 99.1541 125 99.2279 124.958 99.307C124.901 99.4154 124.834 99.534 124.764 99.6416C124.647 99.8382 124.584 99.8923 124.53 99.9165C124.44 99.9566 124.354 99.9764 124.271 99.9657C124.194 99.9557 124.121 99.9183 124.048 99.8573C123.688 99.5524 123.581 99.0522 123.592 98.5212C123.609 97.7153 123.906 96.8231 124.18 96.2747C124.817 95.0003 125.7 93.6755 126.762 92.7244C127.974 91.6387 129.3 90.8167 130.822 90.2504C131.769 89.8983 132.864 89.5751 133.895 89.6159C134.637 89.6453 135.346 89.866 135.931 90.4171C136.29 90.7554 136.463 91.2366 136.463 91.7175C136.463 92.2079 136.284 92.7013 135.928 93.0475ZM160.817 99.3172C160.773 99.3904 160.711 99.4409 160.642 99.4712C160.57 99.503 160.49 99.5122 160.412 99.4991C160.335 99.4862 160.262 99.4513 160.204 99.398C160.149 99.3469 160.106 99.2791 160.087 99.1961C159.621 97.1469 158.715 95.6223 156.783 94.6392C155.832 94.1555 154.738 93.8482 153.703 93.6032C153.403 93.532 153.085 93.4859 152.765 93.4392C151.762 93.2926 150.751 93.1248 150.097 92.3137C149.703 91.8251 149.538 91.2003 149.632 90.6288C149.72 90.0908 150.034 89.5974 150.605 89.3018C152.028 88.5661 153.795 89.288 155.231 89.903C155.338 89.9486 155.443 89.9934 155.545 90.0366C156.95 90.6297 158.231 91.4127 159.284 92.5323C160.119 93.4206 160.894 94.7338 161.205 96.0847C161.465 97.2085 161.404 98.3559 160.817 99.3172Z" fill="black"/>
<path fill-rule="evenodd" clip-rule="evenodd" d="M163.095 111.465C159.925 112.993 155.501 110.74 153.369 108.379C152.593 107.52 151.995 105.061 152.293 103.502C153.102 99.2791 156.14 96.7446 159.347 95.8791C163.793 94.679 168.267 97.7191 167.745 101.307C167.251 104.707 166.501 109.638 163.095 111.465ZM141.514 103.353C141.26 107.955 137.566 111.983 133.15 113.177C126.036 115.163 122.52 110.16 120.928 104.77C120.769 104.235 120.397 102.6 121.396 101.198C125.322 95.6827 134.874 96.6228 139.644 98.1369C141.041 99.4729 141.612 101.401 141.514 103.353ZM166.54 95.4154C166.538 95.4181 166.536 95.4205 166.534 95.4232C166.517 95.4133 166.501 95.4031 166.485 95.3934C166.503 95.401 166.522 95.4076 166.54 95.4154ZM172.493 95.9474C172.079 91.2617 157.383 93.0559 155.665 93.4399C150.976 94.8196 146.925 98.5732 141.682 96.9232C136.25 90.8652 117.957 92.6025 114.122 95.6884C113.396 95.4035 112.513 95.5564 111.578 95.8252C106.775 95.6517 84.8487 97.308 89.3335 103.44C90.0142 103.913 90.6943 103.432 90.7131 102.459C114.093 94.0162 111.826 101.924 114.599 101.001C115.022 101.123 115.464 101.2 115.851 101.281C117.997 101.972 118.725 101.758 119.008 104.168C120.95 122.778 145.722 116.355 143.691 101.09C145.702 100.98 147.462 100.109 149.589 100.959C151.066 115.339 162.633 115.919 166.114 110.934C168.739 107.475 167.698 102.253 171.307 99.5316C172.731 100.724 172.823 96.6995 172.493 95.9474Z" fill="black"/>
</svg>
