<svg width="240" height="324" viewBox="0 0 240 324" fill="none" xmlns="http://www.w3.org/2000/svg">
<path fill-rule="evenodd" clip-rule="evenodd" d="M194.637 251.934C193.785 247.123 193.005 242.299 192.295 237.465C191.958 235.169 191.63 232.872 191.335 230.571C191.128 228.959 190.813 227.115 191.909 225.921C193.452 224.24 194.854 222.802 195.042 220.395C195.22 218.129 194.455 215.66 193.976 213.462C192.972 208.851 191.722 204.297 190.341 199.786C188.938 195.204 187.399 190.664 185.839 186.133C184.38 181.897 182.977 177.622 181.077 173.558C177.47 165.845 171.369 160.132 163.828 156.318C161.953 155.37 158.128 151.984 156.169 151.225C154.367 150.528 154.374 152.564 152.601 151.797C151.184 151.184 149.864 150.367 149.071 148.998C148.209 147.512 146.049 145.433 145.72 143.703C145.023 140.035 145.778 136.914 143.161 134.154C140.839 131.703 137.717 130.024 134.486 129.123C127.38 127.14 117.903 128.526 113.616 135.132C111.568 138.286 110.852 142.1 108.089 144.674C105.676 146.922 106.216 148.459 103.091 149.617C102.914 149.683 98.1168 148.654 97.9397 148.72C94.521 147.988 91.2535 150.037 88.117 151.225C83.441 152.998 78.9892 155.304 74.8067 158.045C66.3731 163.573 59.1499 170.752 53.1949 178.874C47.1906 187.064 42.532 196.244 39.2149 205.838C38.4093 208.168 37.6857 210.527 37.0475 212.908C36.6902 214.241 36.3085 215.624 36.7435 216.988C37.0992 218.105 37.8906 218.936 38.82 219.606C40.0798 220.514 42.6068 221.104 42.5575 222.931C42.5199 224.32 42.049 225.781 41.8192 227.153C41.5456 228.787 41.3208 230.431 41.096 232.073C40.0735 239.544 39.2776 247.057 38.9256 254.592C38.5792 262.011 38.2916 269.581 38.8061 276.998C38.8401 277.487 38.9859 277.936 39.221 278.315C39.0015 278.399 38.9846 278.808 39.2578 278.866C39.4492 278.907 39.6401 278.948 39.8316 278.988C40.2292 279.289 40.725 279.474 41.2956 279.492C41.6825 279.504 42.0691 279.521 42.4555 279.541C46.5332 280.394 50.6102 281.199 54.7411 281.809C59.7625 282.551 64.7987 283.155 69.8506 283.646C80.2312 284.656 90.5301 284.321 100.924 283.777C111.303 283.234 121.675 283.107 132.064 283.377C142.462 283.648 152.857 284.1 163.257 284.285C174.877 284.492 186.478 284.174 198.064 283.25C199.653 283.124 200.636 281.859 200.322 280.281C198.445 270.825 196.318 261.431 194.637 251.934Z" fill="white"/>
<path fill-rule="evenodd" clip-rule="evenodd" d="M94.6976 148.487C95.7721 148.44 96.8677 148.614 97.9397 148.72C98.0331 148.729 98.0686 148.873 97.9634 148.895C96.0449 149.296 94.1475 149.844 92.2633 150.401L91.4566 150.64C89.3318 151.269 87.2694 151.918 85.2125 152.756C81.1131 154.428 77.2197 156.684 73.6363 159.275C59.838 169.256 49.8514 184.366 43.5493 200.01C41.8378 204.259 40.3877 208.613 39.213 213.041C38.9274 214.118 38.6587 215.199 38.4039 216.284C38.3291 216.602 38.0031 217.417 38.1818 217.742C38.3399 218.03 38.9542 218.208 39.2396 218.357L40.2033 218.857C42.0829 219.826 45.2138 221.419 45.5278 221.575L46.0175 221.816C54.0268 225.744 62.5846 229.075 71.5976 229.305L71.6682 228.535C72.07 224.278 72.5973 219.999 73.7483 215.873C73.8102 215.651 74.0923 215.726 74.118 215.923C74.7592 220.808 74.5543 225.73 74.3306 230.637C73.9344 239.328 73.4084 248.015 72.9408 256.702C72.7068 261.048 72.4042 265.392 72.1311 269.735C71.8575 274.088 71.7689 278.544 71.1442 282.861C71.005 283.823 69.8785 284.346 69.0254 284.245C68.0815 284.132 67.3554 283.301 67.3509 282.347C67.3395 279.833 67.6554 277.288 67.8309 274.78C67.9976 272.397 68.1765 270.015 68.3599 267.633C69.0301 258.94 69.801 250.257 70.514 241.568C70.7667 238.486 71.0396 235.407 71.3206 232.328C61.7728 232.02 52.8529 228.482 44.3435 224.349C44.2203 227.146 43.9228 229.939 43.6349 232.725C42.831 240.5 42.1222 248.271 41.5917 256.07C41.3238 260.009 41.1288 263.953 40.9589 267.897C40.8755 269.836 40.8075 271.775 40.7553 273.714C40.7378 274.361 40.722 275.007 40.7081 275.654L40.6791 277.135C40.6553 278.073 40.5599 278.943 39.7706 279.626C38.9688 280.32 37.8858 280.357 37.0923 279.626C36.0301 278.647 36.2179 277.314 36.2494 276C36.2756 274.891 36.307 273.783 36.3436 272.675C36.4169 270.459 36.5105 268.243 36.6244 266.028C37.0228 258.285 37.819 250.573 38.8595 242.892L39.2657 239.927C40.0242 234.415 40.8569 228.777 42.5525 223.468C41.8923 223.139 41.234 222.808 40.5782 222.476C39.415 221.887 38.2123 221.334 37.0815 220.684C36.1845 220.168 35.4108 219.46 35.1611 218.416C34.8826 217.252 35.3085 215.98 35.5914 214.845L35.616 214.745C35.8934 213.602 36.1921 212.464 36.5073 211.331C37.7855 206.737 39.366 202.232 41.2156 197.837C44.9192 189.038 49.6995 180.679 55.5387 173.121C60.7949 166.317 67.004 160.148 74.2813 155.52C77.8391 153.258 81.6305 151.4 85.6401 150.087C87.5143 149.473 89.5535 148.939 91.5157 148.72C92.5742 148.601 93.6341 148.533 94.6976 148.487ZM113.736 134.544C115.013 133.173 117.549 134.592 116.936 136.408C115.494 140.682 113.198 144.58 109.614 147.388C106.245 150.027 102.228 151.742 97.9014 151.376C97.868 151.373 97.8391 151.364 97.8135 151.352L98.1863 151.858C101.113 155.819 104.201 159.725 107.923 162.963C115.506 169.559 125.831 173.117 135.8 170.586C143.644 168.595 150.555 162.39 152.587 154.482C152.296 154.613 151.95 154.658 151.57 154.575C149.944 154.222 148.334 152.511 147.285 151.284C146.15 149.957 145.264 148.524 144.615 146.904C143.426 143.94 143.045 140.123 144.668 137.252C144.868 136.898 145.33 137.096 145.37 137.442L145.431 137.981C145.744 140.672 146.134 143.275 147.402 145.729C148.023 146.929 148.767 148.101 149.673 149.106C150.158 149.644 150.683 150.158 151.25 150.609C151.803 151.049 152.472 151.366 152.967 151.871L153.058 151.967L153.061 151.95C153.186 150.885 153.933 150.415 154.664 150.445C155.371 150.473 156.202 150.785 156.523 150.934L156.554 150.948C161.487 153.317 166.031 156.405 170.307 159.831C179.15 166.917 185.775 176.179 188.986 187.086C190.561 192.44 191.465 197.956 192.42 203.446L193.007 206.81C193.898 211.879 194.893 217.047 196.904 221.762C197.424 222.981 197.023 224.125 195.748 224.605C194.155 225.204 192.557 225.784 190.956 226.356C191.742 229.73 192.221 233.221 192.81 236.611C194.062 243.818 195.596 250.979 196.912 258.176C197.584 261.856 198.191 265.549 198.863 269.229C199.186 271.001 199.524 272.771 199.852 274.543C200.029 275.498 200.189 276.456 200.358 277.413L200.387 277.572C200.484 278.076 200.605 278.598 200.467 279.103C200.308 279.679 199.859 280.086 199.458 280.499C199.128 280.839 198.65 280.841 198.246 280.656L198.113 280.594C197.39 280.256 196.824 279.919 196.568 279.103C196.406 278.587 196.347 278.005 196.241 277.473C196.038 276.454 195.845 275.433 195.663 274.409C195.298 272.36 194.943 270.31 194.595 268.258L194.271 266.337C193.157 259.715 192.1 253.054 191.565 246.362C191.328 243.394 191.077 240.428 190.823 237.461L190.633 235.236C190.392 232.42 190.098 229.533 190.056 226.678L189.099 227.018L184.427 228.67C183.269 229.08 181.795 229.919 180.548 229.766C179.938 229.691 179.473 229.499 179.114 229.15C179.544 235.223 180.126 241.285 180.902 247.316C181.608 252.804 182.391 258.285 183.315 263.74C183.773 266.442 184.244 269.141 184.755 271.832C185.01 273.179 185.274 274.523 185.546 275.866C185.681 276.536 185.842 277.206 185.948 277.882C186.069 278.655 185.856 279.131 185.424 279.768C185.069 280.29 184.359 280.559 183.784 280.198C183.022 279.72 182.625 279.305 182.401 278.434C182.197 277.643 182.073 276.817 181.916 276.016C181.625 274.537 181.343 273.056 181.072 271.574C180.504 268.473 179.981 265.364 179.514 262.246C177.867 251.263 176.822 240.187 176.294 229.093C176.034 223.62 175.953 218.142 175.999 212.663C176.023 209.854 176.115 207.038 176.313 204.237C176.514 201.401 176.933 198.622 177.306 195.813C177.319 195.714 177.459 195.709 177.465 195.813C177.642 198.962 177.919 202.107 178.055 205.264C178.184 208.276 178.241 211.293 178.344 214.307C178.48 218.268 178.668 222.232 178.916 226.192C179.366 225.7 180.045 225.415 180.724 225.526C181.708 225.32 182.767 224.804 183.704 224.49L187.24 223.309C189.098 222.688 190.957 222.071 192.822 221.473C191.154 215.861 190.012 210.165 189.037 204.387L188.602 201.788C187.741 196.672 186.812 191.554 185.253 186.6C183.613 181.392 181.159 176.55 177.904 172.165C174.696 167.844 170.792 164.039 166.773 160.48C163.332 157.433 159.651 154.682 156.142 151.719C156.178 151.915 156.186 152.131 156.154 152.369C155.408 157.832 152.559 162.92 148.588 166.704C140.612 174.307 128.805 175.884 118.596 172.319C108.721 168.871 99.9896 160.704 96.9048 150.597C96.852 150.425 97.0836 150.356 97.1765 150.483C97.3477 150.718 97.5196 150.952 97.6918 151.187C97.6802 151.094 97.7286 150.992 97.8435 150.948C101.443 149.557 104.977 147.586 107.675 144.797C108.99 143.437 110.137 141.897 111.043 140.235C111.477 139.44 111.867 138.616 112.178 137.764L112.257 137.544C112.634 136.477 112.949 135.389 113.736 134.544Z" fill="black"/>
<path fill-rule="evenodd" clip-rule="evenodd" d="M92.9523 59.6854C94.0479 58.5092 95.4492 57.633 96.9811 57.3529C95.5808 58.0527 94.212 58.7821 92.9523 59.6854ZM90.806 69.8268C90.6123 68.9305 90.4821 68.0255 90.4412 67.1207C90.686 67.4931 91.0771 67.7419 91.5163 67.8704C91.2326 68.5059 90.9913 69.1607 90.806 69.8268ZM164.12 83.8802C162.856 78.614 156.955 68.4846 155.561 66.535C154.047 61.7075 162.306 57.8361 157.814 54.0612C155.78 52.3579 153.093 51.7551 150.571 51.1511C133.114 46.9571 114.358 49.0722 98.1676 56.7846C95.7049 56.2662 93.139 57.2794 91.3481 59.059C82.9344 67.5189 94.4007 82.783 96.9081 92.3204C101.21 102.955 92.3485 104.744 93.2988 113.742C94.0371 118.39 98.7435 119.619 102.715 120.321C103.352 120.47 104.203 120.493 104.408 121.166C105.052 125.095 107.258 128.839 110.219 131.381C109.96 132.148 110.158 133.08 111.071 133.754C119.346 139.906 129.78 142.985 140.101 142.431C152.401 141.772 158.761 134.719 160.296 132.903C168.783 121.438 167.769 106.311 166.037 92.6476C164.831 83.1293 166.361 93.2093 164.12 83.8802Z" fill="white"/>
<path fill-rule="evenodd" clip-rule="evenodd" d="M126.195 40.0596C126.581 38.8506 127.676 38.1236 128.929 38.2737C130.038 38.4047 131.225 39.5058 131.09 40.7211C131.064 40.9557 131.031 41.1755 130.99 41.3826L130.996 41.3845L131.001 41.3847L130.974 41.465C130.891 41.8518 130.777 42.1984 130.608 42.526C130.393 43.1537 130.186 43.7836 129.981 44.4155C130.276 44.4028 130.579 44.4197 130.885 44.4768C131.202 43.6652 131.521 42.8557 131.838 42.042C132.178 41.1734 132.417 40.0575 133.088 39.3854C133.948 38.5273 135.44 38.3497 136.488 38.9627C137.595 39.6094 137.99 40.7591 137.749 41.9913C137.627 42.6198 137.207 43.0572 136.687 43.332L136.631 43.3609L136.232 44.3077C136.355 44.2549 136.481 44.2063 136.619 44.1661C136.834 44.1027 137.045 44.0625 137.252 44.0456C137.823 43.0121 138.45 42.0082 139.099 41.0233C139.845 39.8905 141.302 39.4086 142.526 40.1251C143.62 40.7655 144.207 42.4478 143.424 43.5532C142.828 44.3923 142.264 45.2482 141.708 46.1126C141.803 46.1295 141.898 46.1507 141.989 46.1782C142.031 46.1211 142.076 46.064 142.122 46.007C142.729 45.2546 143.434 44.6903 144.159 44.0647C144.837 43.4771 145.15 42.5535 146.041 42.1076C147.163 41.5475 148.515 41.8159 149.183 42.9318C150.615 45.3222 148.211 47.0679 146.673 48.5157C148.01 47.6809 149.402 46.9179 150.831 46.2585C151.633 45.8886 152.449 45.5314 153.277 45.2229C154.505 44.7663 155.498 44.9124 156.505 45.7618C156.955 46.1422 157.179 46.973 156.972 47.5266C156.571 48.5876 155.937 49.2322 154.826 49.5386C154.044 49.7542 153.243 49.9 152.462 50.1262C151.152 50.5024 149.88 50.961 148.646 51.5338C148.735 51.5887 148.819 51.6479 148.898 51.7155C149.819 51.4175 150.757 51.1597 151.699 50.9399C153.262 50.5733 154.852 50.3256 156.45 50.1707L156.98 50.1213C158.896 49.9374 161.199 49.5981 162.374 51.4323C162.761 52.0368 162.803 53.0344 162.374 53.6325C161.555 54.7822 160.739 55.0105 159.383 55.0316C160.718 55.1732 162.051 55.3486 163.378 55.5537C164.292 55.6932 165.207 55.8513 166.117 56.0267L166.572 56.1159C167.681 56.3378 168.919 56.4667 169.872 57.1092C171.951 58.5126 170.975 61.2453 168.672 61.537C167.559 61.6765 166.323 61.2052 165.231 60.9854C164.17 60.7719 163.105 60.5838 162.036 60.4189C161.483 60.3323 160.929 60.2562 160.374 60.1865C161.504 60.3492 162.626 60.5796 163.718 60.9051L164.021 60.9966C166.133 61.6404 168.983 62.6658 169.642 64.9228C170.041 66.2945 168.949 67.4907 167.626 67.571C166.397 67.645 165.372 66.9116 164.328 66.3706C163.568 65.9775 162.795 65.6837 161.975 65.4322C161.128 65.1722 160.264 64.9566 159.393 64.7812C160.129 65.1866 160.845 65.6322 161.533 66.1307L161.849 66.3643C163.677 67.7267 166.464 69.836 165.82 72.3898C165.617 73.1951 164.719 73.9644 163.857 73.882C161.614 73.6727 160.376 71.2823 158.683 70.0016C158.242 69.6676 157.758 69.3379 157.251 69.0167C159.816 72.077 161.857 75.615 163.409 79.2693C166.822 87.3086 167.869 94.7536 167.894 103.398L167.895 103.665C167.899 108.434 167.791 113.288 167.326 118.035C166.895 122.421 166.105 126.749 164.117 130.721C160.786 137.38 154.293 142.567 147.133 144.541C139.167 146.739 130.262 145.02 123.736 139.948C122.071 138.654 124.279 135.846 125.979 137.04C132.771 141.806 141.556 143.315 149.352 140.09C155.536 137.532 160.515 132.031 162.626 125.697C163.969 121.667 164.36 117.37 164.839 113.171L164.871 112.891C165.379 108.499 165.672 104.078 165.668 99.6561C165.662 91.4452 164.483 84.6862 160.872 77.2382C159.174 73.7298 156.97 70.4858 154.338 67.6387C153.539 67.8014 152.69 67.5731 151.883 67.4865C151.471 67.4421 151.059 67.3998 150.647 67.3618C151.068 67.634 151.48 67.9171 151.886 68.2067L152.418 68.5906C154.083 69.7835 156.196 71.1423 155.768 73.4487C155.652 74.0722 155.031 74.6449 154.428 74.7865C152.246 75.3065 150.746 73.1845 149.271 71.9249C147.989 70.8301 146.648 69.8494 145.281 68.8666C144.97 68.6447 144.657 68.4228 144.343 68.203C144.638 68.5479 144.926 68.8982 145.207 69.2518L145.622 69.7779C146.877 71.3493 148.687 73.3919 147.569 75.429C147.252 76.0039 146.576 76.3865 145.921 76.3738C143.669 76.3273 142.773 73.7699 141.717 72.1552C140.808 70.7709 139.821 69.4669 138.801 68.1628C138.52 67.8056 138.237 67.4485 137.95 67.0913C133.219 67.3364 128.506 67.962 123.875 68.9617C120.693 69.6486 117.564 70.5386 114.459 71.5127L114.201 71.5949C112.52 72.1362 110.788 72.8291 109.576 74.0172C109.403 74.8358 109.536 75.6992 109.702 76.5167L109.831 77.1424C110.362 79.7591 110.724 82.3273 110.453 85.0138C110.172 87.7846 109.338 90.2764 108.319 92.8506C107.838 94.0638 107.339 93.844 107.168 95.1459C107.037 96.1376 107.118 97.1613 107.207 98.1613L107.282 99.009C107.47 101.23 107.564 103.651 106.109 105.483C105.883 105.764 105.4 105.652 105.239 105.371C105.176 105.259 105.108 105.151 105.034 105.048C104.333 104.031 103.257 103.452 102.028 103.228C101.871 103.2 101.933 102.991 102.064 102.974C103.103 102.852 104.088 103.112 104.924 103.649C104.528 102.276 101.456 102.944 100.446 103.21L100.412 103.219C99.1525 103.558 97.9609 104.107 96.9109 104.885C94.7982 106.449 93.5771 108.888 93.6384 111.515C93.6996 114.098 95.0327 116.484 97.3229 117.72C98.4278 118.316 99.6848 118.604 100.936 118.591C102.241 118.578 103.403 118.006 104.711 118.086C105.467 118.132 106.046 118.944 105.609 119.652C105.317 120.125 104.937 120.497 104.498 120.783C105.569 123.253 106.936 125.61 108.512 127.785C109.384 128.992 110.373 130.105 111.461 131.122C112.31 131.917 114.15 132.836 114.047 134.161C114.011 134.639 113.764 134.93 113.329 135.108C111.975 135.661 110.33 133.756 109.425 132.837L109.352 132.764C108.224 131.64 107.195 130.397 106.3 129.078C104.711 126.736 103.724 124.097 103.317 121.324C101.147 121.977 98.2736 121.364 96.5032 120.563C90.9384 118.048 89.1194 110.551 92.5018 105.559C93.1567 104.593 93.9764 103.767 94.9102 103.099C94.7053 102.987 94.513 102.843 94.3419 102.662C93.3953 101.656 92.726 100.343 92.0617 99.1329L91.982 98.9883C91.3924 97.9231 90.8361 96.8411 90.3147 95.7425L90.1208 95.3298C88.9567 92.8253 87.9363 91.7305 87.106 89.0971C86.3074 86.5566 85.6778 83.9676 85.2701 81.3342L85.1617 80.6371C84.9259 79.1091 84.7029 77.4751 84.875 75.9236C83.6898 76.3104 82.4982 76.5492 81.3257 75.968C80.5525 75.5854 80.1257 74.4695 80.3898 73.6685C80.582 73.0788 80.9032 72.616 81.3109 72.2524C81.068 72.1299 80.8398 71.9735 80.6391 71.8002L80.4637 71.6482C79.7539 71.0308 79.7032 69.8578 80.1341 69.0843C80.1764 69.0103 80.2187 68.9342 80.2588 68.8603C80.6687 68.1269 81.5158 67.6471 82.3525 67.6598C82.4877 67.6619 82.6229 67.6619 82.7602 67.6598C82.3694 67.5732 81.987 67.44 81.6236 67.216C79.9841 66.2078 80.1912 63.4751 82.175 62.9932C83.0074 62.7924 83.9264 62.8748 84.8433 63.0904C84.8095 63.0714 84.7757 63.0524 84.7419 63.0312C84.0489 62.6064 83.468 61.7758 83.5334 60.9241C83.6053 59.9814 83.9095 59.3094 84.7419 58.8148C85.4644 58.3879 86.487 58.3477 87.2053 58.8148C87.8285 59.2227 88.4391 59.6729 89.0264 60.1569C88.437 59.4319 87.9257 58.6436 87.7187 57.8067C87.463 56.7647 87.8898 55.6297 88.8278 55.0802C89.5757 54.6427 90.3658 54.6914 91.0715 55.0295C91.0334 54.4821 91.1665 53.9241 91.5299 53.4296C92.2736 52.4153 93.6257 51.8318 94.8025 52.5715C94.9567 52.6687 95.1637 52.8357 95.3644 53.0407C94.9736 51.7959 95.3264 50.4897 96.6595 49.9275C97.4729 49.583 98.5736 49.7563 99.2792 50.3502C98.8313 47.926 102.408 46.1443 103.798 48.6488C104.114 49.2162 104.426 49.8136 104.705 50.4248L104.808 50.6546L104.819 50.6503L104.748 50.4823L104.675 50.3143C104.288 49.416 103.796 48.4819 103.661 47.5076C103.462 46.0661 104.105 44.6987 105.672 44.4874C106.481 44.3775 107.381 44.7452 107.924 45.3879C107.631 43.1516 110.128 41.5263 111.926 43.196C112.777 43.9865 113.231 45.1425 113.772 46.157C114.079 46.7298 114.391 47.3004 114.698 47.8753C114.776 47.7823 114.86 47.6893 114.949 47.5984C114.495 46.2373 114.142 44.8424 113.844 43.4391C113.561 42.116 114.222 40.7422 115.587 40.3684C116.827 40.0258 118.38 40.7911 118.657 42.112C118.851 43.0417 119.081 43.9613 119.335 44.8762C119.508 44.834 119.679 44.8044 119.848 44.7832C119.862 44.6114 119.878 44.4385 119.896 44.2666L119.963 43.6552C120.11 42.2583 120.259 40.6637 120.989 39.4762C122.233 37.4473 125.424 38.2885 125.457 40.6873C125.476 41.9279 124.971 43.158 124.796 44.3859C124.72 44.9206 124.676 45.4617 124.65 46.0027C124.99 44.2063 125.457 42.433 125.998 40.6873C126.062 40.478 126.129 40.2688 126.195 40.0596ZM98.6714 109.336C101.471 108.903 104.029 110.465 105.688 112.652C105.99 113.052 105.791 113.616 105.519 113.952C105.322 114.199 105.058 114.229 104.76 114.267C104.418 114.311 103.985 114.034 103.835 113.736C102.768 111.606 100.864 110.26 98.6714 109.431C98.6313 109.416 98.6186 109.344 98.6714 109.336ZM102.551 71.1652L102.635 71.0741C103.202 70.4864 102.307 69.5886 101.739 70.1776C101.141 70.7977 100.744 71.551 100.362 72.3144C99.9981 73.0422 101.091 73.6852 101.457 72.9545L101.623 72.6224C101.884 72.1061 102.163 71.5959 102.551 71.1652ZM94.6902 69.9589C95.493 69.8236 95.1527 68.6014 94.3532 68.7362C93.3176 68.9108 92.286 69.1093 91.2501 69.284C90.4475 69.4193 90.7879 70.6415 91.5873 70.5069C92.623 70.3321 93.6546 70.1337 94.6902 69.9589ZM142.514 61.6146C141.739 61.3557 141.406 62.58 142.177 62.8374C143.243 63.1931 144.3 63.5577 145.311 64.0516C146.042 64.4084 146.685 63.3151 145.951 62.9566C144.841 62.4145 143.684 62.0051 142.514 61.6146ZM94.5071 59.9711C93.7497 59.668 93.4207 60.8941 94.1701 61.194L96.9081 62.2894C97.6655 62.5925 97.9945 61.3666 97.2451 61.0667L94.5071 59.9711ZM152.075 56.9937L151.975 56.9306C151.288 56.4855 150.652 57.5828 151.335 58.0256C151.736 58.2854 152.223 58.4616 152.59 58.7711L152.667 58.8395C153.26 59.3996 154.158 58.5048 153.563 57.9428C153.128 57.532 152.578 57.3033 152.075 56.9937Z" fill="black"/>
<path fill-rule="evenodd" clip-rule="evenodd" d="M131.045 122.856C133.632 119.848 137.99 119.639 141.599 120.391C143.916 120.873 146.171 121.677 148.524 121.975C149.622 122.115 150.733 122.156 151.84 122.136C152.927 122.116 154.016 121.897 155.099 121.937C155.266 121.943 155.329 122.162 155.185 122.251C153.698 123.164 151.696 123.457 149.94 123.636C149.946 123.766 149.954 123.893 149.972 124C150.02 124.287 150.063 124.572 150.099 124.861C150.178 125.512 150.267 126.161 150.356 126.811C150.532 128.09 150.587 129.409 150.895 130.666L150.949 130.875C151.02 131.139 151.037 131.378 151.013 131.592L151.084 131.56L151.31 131.451L151.458 131.381C151.997 131.131 152.512 130.948 153.146 131.009C153.629 131.055 154.035 131.385 154.038 131.901C154.05 134.216 150.931 134.961 149.146 135.404L148.623 135.533C146.352 136.087 144.034 136.573 141.698 136.689C137.95 136.875 133.737 135.841 131.286 132.799C128.998 129.961 128.578 125.723 131.045 122.856ZM148.067 132.584C147.674 129.098 143.392 128.906 142.16 131.117C141.613 128.035 133.527 130.85 134.159 131.463C136.556 133.785 140.193 133.994 143.319 133.564C144.912 133.346 146.505 132.99 148.067 132.584ZM143.315 123.447L142.239 123.292L141.815 123.234C139.146 122.876 136.144 122.691 133.95 124.403C133.149 125.028 132.698 125.843 132.53 126.718C134.606 126.41 136.69 126.176 138.78 125.98L139.35 125.928C140.658 125.81 141.965 125.685 143.271 125.555L144.2 125.461L145.128 125.365C145.455 125.33 147.656 125.218 148.07 125.293C148.114 124.921 148.172 124.116 148.265 123.754C146.701 123.807 145.144 123.691 143.59 123.485L143.315 123.447ZM148.271 107.866C149.866 108.836 152.297 111.098 150.581 113.503C148.561 115.624 145.652 113.193 144.219 112.093C142.89 111.241 141.396 113.433 142.629 114.428C152.987 122.099 157.19 108.12 149.078 106.726C148.185 106.572 147.853 107.566 148.271 107.866ZM151.126 111.953L151.202 111.911L151.228 111.896C151.273 111.867 151.245 111.87 151.143 111.905L151.066 111.933V111.987C151.086 111.975 151.107 111.965 151.126 111.953ZM130.694 103.334L130.693 103.287C130.696 101.939 131.481 98.8616 133.42 98.8616C134.632 98.8616 135.368 100.956 135.495 103.115L135.499 103.203C135.556 104.545 135.187 107.479 133.42 107.479C131.635 107.479 130.712 104.7 130.694 103.334ZM159.248 102.911L159.248 102.864C159.245 101.516 158.46 98.4389 156.521 98.4389C155.34 98.4389 154.611 100.43 154.457 102.53L154.446 102.692C154.37 103.989 154.714 107.056 156.521 107.056C158.307 107.056 159.229 104.277 159.248 102.911ZM131.8 89.6727C133.383 89.4319 135.479 89.8893 136.217 91.4994C136.546 92.2167 136.156 93.0099 135.328 93.0496C133.325 93.1456 131.528 92.6996 129.77 94.0026C129.013 94.5634 128.377 95.34 127.843 96.1145L127.641 96.4093L127.474 96.6522C127.112 97.1853 126.768 97.7645 126.822 98.4078C126.838 98.5982 126.643 98.7789 126.458 98.7713C125.306 98.7239 125.182 97.2787 125.334 96.4107C125.615 94.7998 126.395 93.2876 127.475 92.0696C128.609 90.7905 130.107 89.9303 131.8 89.6727ZM153.601 91.6278C154.692 90.9259 156.088 90.6562 157.367 90.7595C159.888 90.9627 164.117 93.1066 163.561 96.187C163.389 97.137 162.068 97.6384 161.29 97.1113C160.453 96.5446 160.249 95.6639 159.626 94.9234C159.13 94.3318 158.5 93.9038 157.825 93.5392C157.161 93.1796 156.392 92.9617 155.637 92.8823L155.512 92.8703C155.058 92.8316 152.765 92.842 153.102 93.6982C153.168 93.8658 152.918 93.9985 152.804 93.8717C152.101 93.0939 152.897 92.0805 153.601 91.6278Z" fill="black"/>
</svg>
