<svg width="260" height="324" viewBox="0 0 260 324" fill="none" xmlns="http://www.w3.org/2000/svg">
<path fill-rule="evenodd" clip-rule="evenodd" d="M137.498 128.859C148.834 128.047 164.376 130.295 167.654 143.225C168.671 147.931 170.675 149.996 174.041 153.073C195.406 180.429 120.863 185.028 117.031 158.352C108.958 161.293 100.17 161.916 92.0921 164.889C87.711 166.508 83.7383 169.062 79.9315 171.734C64.4078 182.764 49.1038 194.109 33.6354 205.218C39.6212 207.975 51.0018 218.503 46.3645 225.578C45.2842 226.956 43.6807 227.906 42.2622 228.914L41.5142 229.448C39.9051 230.601 37.1963 232.568 35.6984 233.636L35.4222 233.837C35.3138 233.916 35.1916 234.004 35.0813 234.083C45.8834 249.882 58.5254 264.46 72.5485 277.475C73.7426 278.586 73.2536 281.068 71.5254 281.358L69.4665 281.66C62.8187 282.628 56.0445 283.5 49.3452 282.974C42.8207 282.264 38.889 276.486 34.4287 272.301C25.5219 263.194 17.2307 253.479 9.67868 243.216L9.52144 242.999C7.17103 239.786 4.0513 236.502 3.82298 232.353C3.40657 231.106 4.50242 229.318 5.55537 228.468L5.91485 227.949C11.5623 219.824 17.9539 211.988 25.9617 206.103C25.9319 205.226 26.3371 204.305 27.1395 203.724L60.606 179.495C69.2409 173.551 77.2668 166.564 86.6264 161.764C96.1968 157.154 106.997 156.973 116.805 153.126C117.013 150.353 122.84 149.645 122.656 150.073C128.804 146.361 131.97 141.943 132.946 137.883C133.922 133.824 132.709 130.121 137.498 128.859ZM220.258 215.845C230.607 200.268 240.471 217.502 244.779 227.89C249.869 242.105 239.328 259.59 232.518 271.845C230.01 275.248 226.711 282.426 222.29 282.947C211.152 282.901 199.999 282.117 188.854 281.883C181.658 280.097 191.754 269.279 198.729 273.23C200.842 274.021 201.897 276.421 203.958 277.191C204.709 277.351 204.76 277.016 205.066 276.269L205.109 276.164C205.654 274.87 206.182 273.569 206.718 272.271C211.255 261.093 216.052 250.013 220.822 238.938C221.841 236.534 220.411 234.553 218.554 233.122C217.131 231.95 211.017 229.091 216.778 230.349C214.559 225.198 217.225 219.97 220.258 215.845ZM194.566 194.522C195.563 194.397 196.842 195.402 196.996 196.375C198.266 204.441 196.85 212.416 195.153 220.306L194.84 221.751C194.214 224.629 193.515 227.564 191.953 230.086C190.359 232.66 187.949 234.601 185.181 235.78C176.303 239.319 165.261 235.819 158.729 229.202C154.551 223.476 158.224 216.284 158.926 210.008C158.263 208.317 158.018 206.362 157.635 204.618L157.588 204.41L156.099 197.906C155.771 196.472 156.816 194.509 158.533 194.706C170.506 196.08 182.608 196.018 194.566 194.522Z" fill="white"/>
<path fill-rule="evenodd" clip-rule="evenodd" d="M236.38 213.807C236.344 213.646 236.536 213.524 236.661 213.644C238.767 215.675 240.255 218.271 241.888 220.676C243.443 222.967 245.135 225.169 246.295 227.697C247.372 230.047 248.067 232.431 248.274 235.014C248.481 237.578 248.213 240.148 247.761 242.673C246.871 247.648 244.97 252.359 242.883 256.935C240.853 261.383 238.56 265.705 236.139 269.948L235.271 271.463C234.212 273.308 233.142 275.148 231.996 276.935C230.57 279.159 229.269 281.454 227.388 283.31C226.053 284.63 223.537 283.31 224.145 281.422C224.409 280.6 224.617 279.826 225.026 279.063C225.337 278.482 225.688 277.918 226.017 277.345C226.676 276.2 227.329 275.05 227.988 273.904C229.372 271.497 230.83 269.134 232.201 266.719C234.58 262.53 236.826 258.262 238.812 253.871L239.045 253.352C240.873 249.285 242.604 245.073 243.407 240.674C244.252 236.039 243.495 231.67 241.85 227.314C240.998 225.061 240.041 222.859 239.046 220.665L238.855 220.246C237.894 218.152 236.875 216.07 236.38 213.807ZM134.095 133.637C134.114 133.555 134.253 133.549 134.266 133.637C134.858 137.573 133.541 141.736 131.397 145.01C130.227 146.798 128.784 148.413 127.083 149.711L126.95 149.811C125.213 151.11 122.866 152.365 120.709 151.522C120.641 151.496 120.578 151.467 120.519 151.433C120.762 151.809 120.986 152.205 121.214 152.6C121.892 153.777 122.5 154.997 123.162 156.184C124.345 158.308 125.754 160.208 127.535 161.872C134.657 168.522 144.657 170.102 154.048 170.026L154.711 170.02C158.836 169.991 164.231 170.202 167.416 167.215C169.127 165.611 170.069 163.33 170.921 161.189C171.758 159.09 172.33 156.924 173.025 154.789C171.574 153.794 170.243 152.579 169.197 151.158C168.107 149.679 167.283 148.014 166.808 146.236L166.737 145.971C166.37 144.553 166 142.678 166.592 141.339C166.66 141.185 166.913 141.195 166.985 141.339C167.304 141.98 167.365 142.702 167.562 143.387C167.79 144.184 168.048 144.976 168.388 145.731C169.045 147.194 169.913 148.584 170.955 149.802C171.815 150.81 172.746 151.735 173.811 152.513C174.439 151.429 175.894 151.283 177.113 151.64C178.747 152.118 180.359 152.731 181.934 153.379L182.249 153.509C183.806 154.155 185.566 154.749 187.024 155.631C187.909 156.053 188.758 156.478 189.557 156.854C193.536 158.724 197.456 160.709 201.359 162.731L202.195 163.165C203.83 164.017 205.45 164.877 206.872 166.065C208.32 167.274 209.443 168.927 210.5 170.476C212.915 174.018 215.19 177.662 217.577 181.223C222.398 188.409 227.219 195.595 232.068 202.764C233.241 204.499 234.563 206.192 235.615 208.001C236.623 209.73 236.596 211.505 236.399 213.435L236.362 213.789C235.986 217.329 235.338 220.728 233.353 223.764C230.228 228.536 225.305 231.507 220.098 233.553C220.734 234.027 221.331 234.538 222.09 234.864C223.256 235.363 224.5 235.621 225.762 235.724C227.108 235.832 228.624 235.496 229.715 236.411C230.152 236.776 230.165 237.656 229.715 238.021C228.667 238.877 227.312 238.632 226.035 238.488L225.958 238.48C224.773 238.349 223.605 238.129 222.491 237.694C222.217 237.586 221.944 237.465 221.68 237.332C221.689 237.356 221.693 237.383 221.689 237.413C221.498 238.869 221.086 240.246 220.651 241.637L220.374 242.519C219.812 244.32 219.246 246.116 218.663 247.912C217.554 251.332 216.345 254.72 215.132 258.103L214.085 261.023C213.01 264.018 211.921 267.009 210.717 269.954C209.974 271.772 209.226 273.589 208.48 275.405C207.751 277.178 207.145 279.093 206.241 280.782C205.497 282.172 203.469 281.177 203.794 279.748C204.221 277.874 205.026 276.014 205.641 274.19C206.266 272.338 206.879 270.485 207.515 268.637C208.62 265.428 209.845 262.262 211.077 259.099L212.297 255.963C213.494 252.891 214.705 249.821 215.999 246.788L216.141 246.456C217.485 243.284 218.874 239.717 221.317 237.259C221.348 237.225 221.393 237.208 221.437 237.203C220.837 236.878 220.275 236.483 219.781 236.016L219.757 235.991C219.561 235.784 218.754 234.764 218.494 234.154C218.156 234.274 217.818 234.39 217.48 234.504C216.891 234.703 216.403 234.559 216.058 234.244L215.402 234.651C214.701 235.079 213.947 235.485 213.172 235.506C212.196 235.532 211.429 234.993 210.908 234.198C210.439 233.488 210.16 232.721 209.566 232.084C208.982 231.459 208.307 230.931 207.616 230.428L206.802 229.835C205.31 228.745 203.863 227.644 202.662 226.205C202.058 225.478 201.248 224.615 200.881 223.742C200.809 223.574 200.765 223.415 200.756 223.261C200.676 223.806 200.593 224.353 200.511 224.899C199.358 232.573 198.426 240.3 198.128 248.06C197.982 251.888 197.917 255.72 198.088 259.549C198.172 261.462 198.312 263.373 198.504 265.279C198.599 266.234 198.698 267.188 198.815 268.139L198.841 268.359C198.875 268.65 198.897 268.932 198.872 269.2C199.801 269.658 200.336 270.817 200.708 271.721C200.991 272.41 200.771 273.08 200.315 273.564C200.86 274.061 201.346 274.644 201.753 275.312C201.836 275.447 201.658 275.553 201.553 275.468C200.883 274.936 200.162 274.498 199.41 274.162C199.015 274.312 198.584 274.352 198.187 274.243C197.756 274.124 197.384 273.837 197.116 273.471C194.98 273.12 192.76 273.549 190.837 274.887C190.438 275.166 190.077 275.481 189.732 275.823C189.673 275.883 189.612 275.959 189.55 276.033L189.97 276.194C190.144 276.26 190.286 276.311 190.341 276.322C190.707 276.397 191.079 276.437 191.45 276.469L192.008 276.515C194.148 276.692 196.281 276.751 198.272 277.647C198.69 277.835 198.544 278.48 198.149 278.588C196.696 278.982 195.254 278.952 193.774 278.846L193.457 278.822C192.081 278.717 190.605 278.723 189.263 278.343C189.584 279.222 189.147 280.37 187.805 280.549C183.777 281.086 179.722 280.833 175.689 280.477C171.616 280.118 167.545 279.778 163.461 279.565C150.251 278.869 137.021 279.003 123.8 279.192L116.328 279.3C110.369 279.384 104.41 279.449 98.4515 279.404L95.6625 279.378C94.4838 279.366 93.3045 279.352 92.1271 279.317L91.4209 279.294C90.0181 279.243 88.161 279.454 86.942 278.624C85.9364 277.939 85.7125 276.684 86.3188 275.671C86.4941 275.38 86.735 275.12 86.9864 274.866C87.5019 270.46 87.7913 266.032 88.0871 261.606C89.1139 246.118 88.5139 230.711 86.1456 215.379C79.7906 217.322 73.5329 219.759 67.4357 222.373C64.1378 223.787 60.8568 225.254 57.6139 226.792C54.654 228.198 51.6815 229.954 48.5188 230.867C48.2313 231.122 47.8293 231.244 47.4728 231.131L47.4265 231.114H47.4244C47.0991 231.19 46.7378 231.144 46.3829 230.931C46.3111 230.887 46.2392 230.843 46.1674 230.798L46.0596 230.73C44.9463 230.028 43.8265 229.164 43.0385 228.107C42.0815 228.995 41.0526 229.808 40.0406 230.632C38.942 231.529 37.8477 232.429 36.7618 233.338C36.3308 233.699 35.8554 234.044 35.4751 234.46L35.4199 234.521C35.411 234.531 35.4026 234.541 35.3949 234.551C37.0406 235.616 38.4815 237.233 39.7723 238.638C41.1584 240.147 42.4967 241.703 43.8239 243.266L45.1088 244.782C54.1946 255.515 63.3734 266.637 75.1364 274.526C76.9956 275.773 75.223 278.81 73.3765 277.535C69.8822 275.128 66.5758 272.454 63.4005 269.641C57.8357 264.715 52.8287 259.188 48.1406 253.429C45.7681 250.514 43.4653 247.528 41.2089 244.522L40.4431 243.503C39.4226 242.143 38.4075 240.779 37.4357 239.385L37.2324 239.092C36.3799 237.862 35.4734 236.479 34.9237 235.062C34.7125 235.276 34.4737 235.455 34.1251 235.591C33.5294 235.823 32.7984 235.335 32.6526 234.754C32.2977 233.344 33.523 232.505 34.5202 231.757C35.7308 230.852 36.9646 229.979 38.2005 229.111L38.642 228.799C40.1875 227.702 41.7411 226.577 43.4251 225.71C43.4758 225.643 43.5371 225.579 43.6068 225.524C43.6871 225.461 43.7653 225.399 43.8456 225.338C41.8343 222.075 39.6287 218.938 37.1674 215.975C35.3167 213.746 33.3519 211.617 31.273 209.601L30.3391 208.696C28.9265 207.332 27.4577 205.947 25.8899 204.761L25.3991 205.318C24.7438 206.059 24.0819 206.795 23.3822 207.492C22.0047 208.861 20.6463 210.259 19.2941 211.655C17.0487 213.98 14.8793 216.375 12.7167 218.774L11.6357 219.974C9.38358 222.474 6.97091 224.928 4.92373 227.599L4.82149 227.735C3.92773 228.934 3.29151 230.261 3.70682 231.784C4.10755 233.253 5.0603 234.555 5.88151 235.823L5.96316 235.95C9.31598 241.175 12.9075 246.266 16.7547 251.138C24.4596 260.896 33.2484 270.144 43.7357 276.929C45.1892 277.869 43.8308 280.207 42.3751 279.256C36.2505 275.251 30.6244 270.441 25.4484 265.275C20.697 260.534 16.3913 255.314 12.3561 249.956C10.3892 247.342 8.50471 244.673 6.69837 241.944C4.94697 239.296 2.92091 236.572 1.65119 233.651C0.98575 232.114 0.740627 230.451 1.2857 228.832C1.78557 227.344 2.77414 226.108 3.80256 224.946L3.89908 224.837C6.26316 222.181 8.6695 219.556 11.097 216.956C13.5329 214.348 16.0808 211.833 18.6815 209.392C20.7244 207.471 22.854 205.777 25.1315 204.209C24.9265 204.064 24.7216 203.924 24.5125 203.789C23.8765 203.375 23.716 202.489 24.2737 201.927C25.797 200.388 27.5526 199.05 29.2047 197.649C30.7575 196.332 32.3103 195.014 33.8632 193.695C37.0237 191.015 40.1843 188.333 43.3449 185.651C49.0216 180.834 54.6667 175.984 60.3244 171.146C62.6836 169.129 65.0648 167.138 67.4398 165.14L71.6595 161.588L73.7233 159.854C74.7807 158.968 75.8607 158.092 77.0632 157.417C79.8925 155.827 83.2941 155.139 86.4114 154.296L86.6188 154.24C90.1153 153.283 93.6308 152.382 97.1653 151.579C100.704 150.776 104.258 150.045 107.826 149.383C111.033 148.787 114.316 148.276 117.586 148.2C118.398 147.891 119.416 147.783 120.215 148.113C120.544 148.25 120.889 148.451 121.195 148.705C122.794 148.142 124.372 147.874 125.866 146.923C127.358 145.974 128.678 144.727 129.789 143.353C132.086 140.509 133.288 137.148 134.095 133.637ZM170.858 229.969C169.59 229.88 168.449 230.404 167.317 230.962C167.955 231.239 168.593 231.514 169.231 231.786L173.477 233.6C174.88 234.198 176.365 234.718 177.698 235.455C177.794 235.508 177.87 235.572 177.927 235.646C179.313 234.758 180.779 233.966 182.184 233.122C182.505 232.93 182.828 232.738 183.151 232.545C181.478 233.105 179.763 233.386 177.946 232.86C175.522 232.161 173.418 230.149 170.858 229.969ZM174.331 225.717L174.103 225.562C172.874 224.718 171.406 223.633 169.913 224.391C169.21 224.749 168.633 225.326 167.94 225.71C167.243 226.099 166.476 226.397 165.698 226.577C164.408 226.875 162.929 226.919 161.541 226.631L161.562 228.508C162.612 228.942 163.655 229.386 164.699 229.834C165.377 229.602 166.029 229.324 166.715 229.018L167.177 228.811C168.498 228.217 169.831 227.82 171.291 228.008C174.039 228.361 176.116 230.404 178.744 231.085C181.966 231.922 184.873 229.517 187.917 228.923C188.419 228.824 188.937 228.766 189.451 228.757L189.622 228.756L189.698 228.711C190.353 228.327 191.334 227.959 191.79 227.312C192.286 226.611 192.329 225.435 192.491 224.611C192.508 224.529 192.525 224.444 192.54 224.362C192.253 224.362 191.961 224.376 191.665 224.432C190.736 224.603 189.861 224.932 188.995 225.3C187.358 225.996 185.756 226.788 184.032 227.251C182.344 227.705 180.58 227.921 178.841 227.669C177.145 227.424 175.736 226.659 174.331 225.717ZM174.595 219.118L174.341 218.954C173.669 218.525 172.899 218.081 172.076 218.239C171.341 218.381 170.71 218.966 170.069 219.327C168.664 220.12 167.088 220.553 165.481 220.663C164.143 220.754 162.755 220.591 161.469 220.194L161.513 224.349C161.984 224.499 162.472 224.607 162.986 224.645C164.545 224.761 166.066 224.387 167.374 223.527L168.035 223.088C169.167 222.343 170.23 221.753 171.728 222.024C173.211 222.295 174.455 223.246 175.668 224.074L175.867 224.208C177.259 225.128 178.671 225.721 180.379 225.736C182.224 225.75 184.047 225.237 185.764 224.605C187.469 223.979 189.09 223.229 190.913 222.999C191.471 222.929 192.151 222.908 192.791 223.018C192.876 222.546 192.956 222.077 193.032 221.606C193.197 220.593 193.338 219.583 193.461 218.571C190.226 217.7 187.239 220.517 184.235 221.386C182.492 221.889 180.595 221.883 178.852 221.397C177.239 220.946 175.971 220.012 174.595 219.118ZM174.603 212.12C173.912 211.987 173.23 212.306 172.643 212.634C171.145 213.465 169.852 214.621 168.155 215.058C165.973 215.62 163.586 215.136 161.418 214.217C161.427 215.5 161.437 216.783 161.448 218.066C161.855 218.22 162.274 218.345 162.701 218.444C164.217 218.79 165.825 218.744 167.319 218.306C168.842 217.86 170.01 216.656 171.538 216.28C173.1 215.894 174.572 216.645 175.831 217.498L176.21 217.757C177.648 218.733 179.044 219.582 180.844 219.748C182.748 219.923 184.402 219.327 186.103 218.537L186.499 218.354C188.652 217.364 191.447 216.238 193.596 217.364C193.765 215.766 193.888 214.168 193.97 212.568C193.674 212.458 193.368 212.378 193.015 212.376C192.172 212.372 191.287 212.638 190.501 212.915C188.784 213.522 187.184 214.426 185.484 215.075C183.872 215.692 182.086 216.013 180.367 215.737C178.774 215.481 177.578 214.648 176.477 213.507L176.317 213.338C175.835 212.824 175.318 212.259 174.603 212.12ZM175.865 206.188C175.068 205.767 174.099 205.376 173.177 205.499C172.299 205.615 171.713 206.211 171.172 206.849L170.879 207.198C169.91 208.344 168.957 209.307 167.465 209.779C165.918 210.265 164.279 210.074 162.84 209.362C162.329 209.109 161.853 208.794 161.376 208.483L161.401 211.854C162.356 212.329 163.328 212.759 164.395 213.019C166.364 213.498 168.037 213.143 169.721 212.057L169.898 211.942C171.166 211.109 172.466 210.117 174.033 210.024C175.562 209.932 176.709 210.78 177.716 211.818L177.834 211.941C179.104 213.28 180.386 213.934 182.275 213.779C184.106 213.63 185.819 212.821 187.497 212.124L187.649 212.061C189.183 211.431 190.951 210.782 192.635 211.023C193.039 211.08 193.561 211.205 194.025 211.423C194.093 209.846 194.125 208.267 194.131 206.687C193.174 205.856 191.684 205.719 190.487 206.059C188.611 206.591 187.075 207.965 185.283 208.711C183.694 209.373 182.038 209.521 180.418 208.895C178.744 208.248 177.432 207.016 175.865 206.188ZM194.025 199.547C191.222 199.644 188.479 201.468 185.803 202.164C182.812 202.94 180.372 201.882 177.708 200.707L177.364 200.556C175.998 199.955 174.529 199.416 173.014 199.661C171.538 199.902 170.232 200.72 168.962 201.46L168.719 201.6C166.406 202.917 164.051 203.819 161.35 203.594C161.365 204.442 161.359 205.287 161.361 206.116C161.805 206.37 162.231 206.657 162.637 206.919L162.783 207.011C164.07 207.817 165.397 208.346 166.932 207.849C168.415 207.367 169.112 206.076 170.131 205.013C171.067 204.036 172.288 203.443 173.657 203.499C175.129 203.558 176.522 204.207 177.738 205C178.955 205.793 180.132 206.817 181.556 207.215C184.75 208.102 187.486 204.723 190.507 204.197C191.775 203.975 193.174 204.256 194.131 205.021C194.12 203.199 194.08 201.373 194.025 199.547ZM169.894 198.782C169.499 198.797 169.104 198.814 168.709 198.831C167.247 198.894 165.785 198.966 164.323 199.048C163.311 199.103 162.067 199.414 161.074 199.105C161.049 199.207 161.015 199.304 160.97 199.399C161.12 200.147 161.213 200.921 161.27 201.703C162.187 201.802 163.119 201.768 164.023 201.58C166.193 201.13 167.955 199.761 169.894 198.782ZM193.983 198.154C188.644 198.522 183.265 198.396 177.917 198.511L177.276 198.526C177.25 198.526 177.225 198.529 177.2 198.529C177.813 198.766 178.421 199.038 179.028 199.316L179.633 199.594C181.066 200.253 182.524 200.792 184.127 200.676C185.845 200.551 187.463 199.849 189.069 199.283C190.6 198.742 192.364 198.378 193.998 198.615C193.993 198.461 193.989 198.309 193.983 198.154Z" fill="black"/>
<path fill-rule="evenodd" clip-rule="evenodd" d="M180.017 74.6533C179.201 69.7164 181.879 68.692 180.017 63.999C175.88 55.3033 164.606 55.678 156.333 55.0094C147.105 54.6556 137.765 55.8743 129.258 59.5742C127.226 60.4579 125.272 61.4971 123.398 62.6779C121.778 63.699 122.001 65.6405 123.022 66.6995C115.657 77.1343 119.869 91.1408 113.992 102.125C112.906 104.088 111.47 105.849 110.527 107.891C109.092 110.997 109 115.446 112.253 117.509C116.835 119.969 119.392 115.098 121.643 122.159C132.886 146.779 155.492 148.166 176.952 135.33C178.808 134.296 180.703 133.129 182.105 131.506C185.287 127.923 184.913 122.885 184.983 118.411C185.022 115.789 185.029 113.167 185.003 110.544C184.903 99.9223 181.384 85.1878 180.017 74.6533Z" fill="white"/>
<path fill-rule="evenodd" clip-rule="evenodd" d="M134.31 45.1248C147.267 39.245 161.963 37.0152 176.097 38.4778C183.073 39.1985 189.957 40.7449 196.509 43.2567L197.083 43.4787C198.7 44.1014 200.444 44.7195 201.673 45.9871C203.103 47.4602 203.504 49.6878 202.482 51.5075C201.687 52.9215 200.259 53.9357 198.736 54.477C199.273 54.9166 199.782 55.4069 200.259 55.9543C201.064 56.8716 201.125 58.1797 200.259 59.0844C198.59 60.8281 196.425 62.0896 194.092 62.6943C194.354 63.9603 194.213 65.3615 193.651 66.6233C192.038 70.2452 187.496 70.6769 184 70.4618L183.894 70.4551L183.7 72.6806C183.597 73.8663 182.887 74.7857 181.682 74.9674C181.64 74.9738 181.598 74.978 181.556 74.982C183.461 81.8765 184.613 88.984 185.675 96.0496C186.231 99.7379 186.728 103.435 187.203 107.134L187.361 108.367C187.868 112.355 188.502 116.384 188.722 120.401C188.918 124.047 188.223 127.528 185.978 130.47C183.962 133.108 181.213 135.084 178.258 136.551C171.58 139.867 164.551 142.335 157.165 143.481L156.672 143.557C153.821 143.992 150.884 144.359 148.063 143.57C145.586 142.876 142.987 141.088 143.547 138.216C143.735 137.246 145.091 137.204 145.556 137.954L145.663 138.126C146.22 139.011 146.831 139.833 147.804 140.289C148.942 140.826 150.263 140.976 151.507 140.991C154.982 141.031 158.602 140.165 161.948 139.296C168.197 137.673 174.616 135.027 179.735 131.018C181.913 129.314 183.662 127.184 184.279 124.442C185.042 121.063 184.34 117.369 183.994 113.972C183.281 106.964 182.432 99.9686 181.537 92.9812L181.357 91.5838C180.603 85.7421 179.811 79.8982 179.435 74.0227C179.278 73.8092 179.173 73.5662 179.13 73.2999L179.071 72.9173C179.021 72.5897 179.012 72.2896 179.048 72.0127C179.05 70.9518 179.08 69.8971 179.141 68.8359C179.151 68.6459 179.16 68.4557 179.166 68.2676C178.063 68.5107 176.952 68.7072 175.837 68.8742C167.994 70.0556 160.03 70.3515 152.124 69.764C148.18 69.47 144.265 68.9651 140.363 68.3331C138.377 68.0119 136.397 67.6568 134.424 67.2595C132.998 66.9741 131.602 66.5874 130.199 66.2239C128.752 68.331 127.97 70.9243 128.122 73.4711C128.293 76.3771 130.228 79.0127 129.685 81.9821C129.176 84.7612 126.796 85.6229 124.446 86.3111L123.447 86.6C122.678 86.8245 122.12 87.0412 121.98 87.9655C121.742 89.5527 122.035 91.3386 122.097 92.9343C122.171 94.8217 122.268 96.709 122.312 98.5964C122.335 99.5728 122.373 100.553 122.371 101.53C122.369 102.223 122.266 102.697 121.997 103.144C122.204 103.405 122.39 103.686 122.555 103.984C122.608 104.081 122.477 104.184 122.399 104.104C122.19 103.886 121.968 103.69 121.733 103.514C121.615 103.66 121.478 103.808 121.317 103.967L121.304 103.95C120.802 104.451 120.003 104.499 119.379 103.967L119.216 103.825C118.76 103.425 118.446 103.092 118.319 102.43C118.313 102.396 118.306 102.363 118.302 102.329C117.142 102.289 115.963 102.563 114.92 103.14C113.266 104.056 112.102 105.36 111.413 106.97C111.687 107.291 112.009 107.579 112.383 107.82C112.435 107.856 112.389 107.934 112.332 107.906C111.949 107.727 111.607 107.505 111.301 107.245C111.054 107.879 110.88 108.559 110.775 109.28C110.403 111.825 111.066 114.934 113.365 116.384C114.36 117.011 115.497 117.352 116.675 117.356C117.25 117.358 117.747 117.261 118.304 117.123C118.683 117.03 119.059 116.895 119.454 116.895C119.792 116.895 120.104 116.98 120.394 117.149L120.313 117.156C120.118 117.174 120.156 117.182 120.428 117.182C121.273 117.218 121.756 118.077 121.368 118.823L121.317 118.938C121.306 118.961 121.297 118.98 121.29 118.996L121.259 119.194C121.256 119.212 121.253 119.232 121.249 119.252L121.238 119.292C121.236 119.298 121.233 119.304 121.23 119.311L122.498 121.244C124.052 123.61 125.64 125.966 127.448 128.126C128.716 129.642 130.059 131.127 131.479 132.503C132.755 133.74 134.285 134.336 135.73 135.308C136.501 135.824 136.727 136.904 136.026 137.599C133.968 139.643 131.054 138.02 129.366 136.358C127.769 134.784 126.39 132.89 125.2 130.994C123.09 127.623 121.41 124.039 120.675 120.148C120.368 120.429 119.978 120.604 119.583 120.742C118.79 121.016 117.918 121.131 117.081 121.16C115.478 121.213 113.872 120.824 112.429 120.135C106.558 117.335 105.696 108.948 109.285 104.003C108.801 102.599 108.531 101.075 108.237 99.7759L108.104 99.1951C106.619 92.7082 105.623 85.8784 108.254 79.522C108.592 78.702 108.973 77.9031 109.423 77.138C109.784 76.523 110.405 75.8678 110.576 75.1682C110.956 73.6317 108.609 72.017 107.925 70.7975C107.12 69.3666 107.006 67.6779 108.102 66.3695C108.242 66.2048 108.394 66.0525 108.559 65.9195C107.519 64.0343 107.471 61.6629 108.84 59.803C109.74 58.5772 111.113 57.7191 112.613 57.4592C113.53 57.3006 114.633 57.3598 115.64 57.643C121.158 52.5178 127.454 48.2358 134.31 45.1248ZM113.119 109.255C114.592 107.955 116.218 107.274 118.226 107.446C120.243 107.619 122.673 108.454 123.858 110.185C124.794 111.552 122.886 113.558 121.513 112.531C120.262 111.594 119.427 110.538 117.875 110.035C116.48 109.585 114.754 109.295 113.294 109.553C113.134 109.58 112.973 109.382 113.119 109.255Z" fill="black"/>
<path fill-rule="evenodd" clip-rule="evenodd" d="M153.555 121.88C155.088 121.584 156.994 122.228 158.522 122.511L158.636 122.531C160.489 122.855 162.338 123.247 164.211 123.438C166 123.62 167.827 123.653 169.615 123.448C170.475 123.349 171.326 123.18 172.161 122.955C172.518 122.858 172.872 122.75 173.222 122.631L173.261 122.615C173.518 122.509 174.213 122.109 174.205 122.332C174.4 122.107 174.67 121.947 174.965 121.869C175.382 121.759 175.918 121.862 176.267 122.157C176.721 121.798 177.402 122.056 177.706 122.486C178.228 123.225 178.058 124.091 177.991 124.948L177.985 125.023C177.928 125.831 177.84 126.633 177.732 127.435L177.684 127.779C177.516 128.965 177.47 130.92 176.033 131.309C174.897 131.617 173.858 130.447 173.125 129.519L172.725 129.005C172.25 128.403 171.819 127.783 171.471 127.098C171.313 126.786 171.16 126.466 171.028 126.143C171.011 126.102 170.999 126.066 170.986 126.029C168.879 126.312 166.723 126.272 164.611 125.993C163.273 125.817 161.956 125.562 160.658 125.219L160.073 126.278C159.388 127.513 158.693 128.743 157.962 129.95L157.906 130.042C157.222 131.13 156.077 132.22 154.724 131.405C153.512 130.675 153.461 129.016 153.333 127.777C153.248 126.95 153.179 126.117 153.146 125.286L153.134 124.929C153.112 124.123 152.981 123.188 153.291 122.434C153.336 122.324 153.494 122.239 153.589 122.355C154.236 123.142 154.432 124.363 154.712 125.329C155.023 126.405 155.474 127.579 155.636 128.695L155.681 128.616C155.841 128.313 156.003 128.012 156.167 127.711L156.657 126.808C157.097 125.993 157.544 125.183 157.996 124.375C157.48 124.181 156.969 123.973 156.46 123.761L155.305 123.278C154.645 123 153.973 122.685 153.477 122.178C153.389 122.088 153.42 121.906 153.555 121.88ZM175.468 124.857C174.33 125.32 173.153 125.654 171.954 125.876C172.031 125.955 172.109 126.034 172.18 126.117C172.462 126.444 172.762 126.757 173.063 127.068L173.243 127.253C173.704 127.727 174.397 128.506 175.103 128.959L175.142 128.754C175.148 128.719 175.153 128.688 175.155 128.665L175.231 127.992C175.243 127.88 175.255 127.768 175.266 127.656C175.327 127.05 175.375 126.442 175.426 125.835C175.452 125.515 175.459 125.186 175.468 124.857ZM162 85.7855C164.71 84.6273 167.927 85.1741 170.262 86.9236C172.651 88.7139 173.696 91.6246 173.834 94.5286C175.723 92.9147 178.444 94.1363 180.035 95.6485C181.872 97.3937 182.8 100.027 182.372 102.527C181.946 105.018 180.144 107.215 177.706 107.956C176.54 108.311 175.24 108.319 174.066 107.989C173.668 107.877 173.18 107.703 172.729 107.461C172.754 107.564 172.781 107.668 172.805 107.772C173.391 110.251 173.723 113.037 172.844 115.488C171.432 119.428 166.417 121.633 163.286 118.136C162.057 116.764 161.101 114.614 161.176 112.742C161.215 111.759 161.772 110.621 162.921 110.688C163.813 110.739 164.236 111.486 164.008 112.276L163.994 112.321C163.51 113.831 164.335 116.013 165.531 117.043C167.364 118.623 169.88 117.248 170.883 115.396C172.051 113.238 171.909 110.47 171.535 108.122C171.169 105.816 170.351 103.707 169.483 101.573C169.391 101.59 169.297 101.605 169.202 101.618C167.475 101.853 163.963 101.941 162.055 100.69C162.26 102.621 161.858 104.609 160.761 106.244C159.539 108.066 157.698 109.031 155.556 109.326C153.475 109.614 151.062 109.672 149.008 109.179C144.633 108.128 143.09 102.725 144.413 98.8239C145.196 96.5166 147.38 94.4413 149.808 93.9172C151.058 93.0942 152.738 92.8505 154.181 92.9627C156.337 93.1307 158.46 94.0626 159.904 95.6991C160.456 96.3242 160.909 97.032 161.259 97.7895C161.376 97.6969 161.513 97.6274 161.668 97.5911C161.909 97.5344 162.121 97.5217 162.357 97.605C162.474 97.6466 162.644 97.7937 162.746 97.8893L162.979 98.1632C163.265 98.4964 163.537 98.7759 164.046 98.983C165.464 99.5606 167.388 99.686 168.895 99.5678C172.74 99.2669 172.256 94.1718 171.309 91.5543C170.187 88.4533 166.971 86.5243 163.7 87.0751C162.294 87.3116 160.953 88.06 159.925 89.0379C158.776 90.1298 158.284 91.4486 157.595 92.8306C157.555 92.9124 157.414 92.8946 157.396 92.8044C156.83 89.8903 159.515 86.8473 162 85.7855ZM141.52 109.28C141.403 109.143 141.557 108.901 141.724 109.015C142.949 109.848 144.312 110.449 145.794 110.612C146.49 110.688 147.191 110.693 147.884 110.586C148.475 110.495 149.007 110.315 149.597 110.478C149.91 110.564 149.967 110.928 149.776 111.157C148.885 112.217 146.693 111.934 145.498 111.65C143.952 111.282 142.55 110.491 141.52 109.28ZM182.762 107.344C183.363 106.971 184.08 107.709 183.724 108.306C182.81 109.837 180.162 109.961 178.626 109.595C178.506 109.567 178.534 109.378 178.655 109.381C179.538 109.403 180.336 109.233 181.097 108.773C181.747 108.379 182.134 107.733 182.762 107.344ZM153.404 95.1066L153.283 95.1077C151.879 95.1303 150.592 95.6661 149.239 95.9493C149.127 95.9729 149.014 95.9609 148.913 95.9237C147.264 97.0238 146.128 98.7535 145.974 101.03C145.867 102.606 146.252 104.324 147.187 105.617C148.252 107.09 149.968 107.317 151.658 107.361L151.829 107.365C155.023 107.427 158.537 107.238 159.676 103.666C160.518 101.022 159.618 97.8128 157.271 96.2291C156.132 95.46 154.77 95.1054 153.404 95.1066ZM179.136 97.0027L179.042 96.8932C177.789 95.4554 175.803 94.1458 173.845 94.8699L173.851 95.1121C173.851 95.1525 173.852 95.1929 173.852 95.2332C173.846 98.0099 172.77 100.601 170.127 101.416C170.836 102.428 171.406 103.551 171.862 104.717C172.023 104.612 172.219 104.545 172.446 104.522C173.377 104.428 173.91 105.302 174.717 105.628C175.473 105.934 176.329 106.013 177.127 105.855C178.872 105.51 180.096 104.004 180.525 102.334C181.009 100.446 180.369 98.4671 179.136 97.0027ZM152.578 99.3396C153.16 98.3565 154.595 98.4988 155.17 99.3655L155.198 99.4087L155.204 99.4007C156.162 100.643 155.699 102.605 154.308 103.304C153.192 103.864 151.772 103.717 151.03 102.627C150.864 102.382 150.757 102.095 150.718 101.804C150.692 101.606 150.707 101.408 150.751 101.211L150.74 101.257C150.762 101.158 150.797 101.002 150.806 100.965C150.904 100.565 151.139 100.135 151.433 99.8445C151.736 99.5457 152.158 99.3639 152.578 99.3396ZM176.486 98.3183C177.002 98.3183 177.459 98.5339 177.831 98.8756C178.361 99.3619 178.434 100.062 178.32 100.726C178.285 100.929 178.237 101.125 178.186 101.324L178.143 101.505C178.135 101.535 178.127 101.565 178.118 101.594C178.086 101.717 178.036 101.831 177.976 101.94C177.755 102.76 176.863 103.168 176.077 102.989C175.706 102.904 175.337 102.597 175.149 102.275C175.087 102.169 175.043 102.063 175.012 101.957L174.859 101.594C174.831 101.507 174.813 101.413 174.79 101.324C174.738 101.125 174.689 100.929 174.653 100.726C174.532 100.04 174.628 99.3892 175.142 98.8756C175.487 98.5305 175.999 98.3183 176.486 98.3183ZM165.137 91.1993C166.031 91.0793 166.942 91.496 167.405 92.2863C167.806 92.9732 167.805 93.8974 167.405 94.5843L167.371 94.6424C166.634 95.9076 164.915 96.0699 163.88 95.0924L163.83 95.045C163.165 94.4167 163.015 93.3745 163.36 92.5583C163.675 91.8118 164.335 91.3073 165.137 91.1993Z" fill="black"/>
</svg>
