<svg width="240" height="324" viewBox="0 0 240 324" fill="none" xmlns="http://www.w3.org/2000/svg">
<path fill-rule="evenodd" clip-rule="evenodd" d="M55.2056 285.479C57.7347 285.636 60.2637 285.759 62.7925 285.853C95.8623 287.086 128.905 283.315 161.955 282.49C173.464 282.186 184.914 282.338 196.394 283.262C197.519 283.353 198.805 282.142 198.667 280.989C196.546 262.674 193.892 244.408 192.517 226.019C192.516 225.046 192.642 224.075 192.976 223.159C193.039 223.087 193.366 222.281 193.656 222.231C193.561 222.301 193.991 222.178 193.717 222.199C195.377 221.927 197.005 220.135 195.8 218.42C183.392 199.395 166.454 182.03 161.005 159.433C159.717 153.324 155.067 152.946 150.113 150.426C148.567 149.506 144.787 146.959 144.172 145.188C142.703 138.804 145.29 132.55 137.73 129.968C132.74 128.583 123.919 127.412 118.869 128.872C112.71 130.923 113.171 137.867 109.598 142.644C107.75 145.407 104.6 149.19 101.692 149.613C100.282 149.819 99.2435 146.966 97.8359 147.162C75.8949 152.493 46.0018 188.859 36.5716 208.99C34.4465 215.326 41.3001 213.415 40.8791 219.783C40.36 231.864 39.2247 247.329 39.898 259.425C40.5287 266.445 40.062 273.801 42.2433 280.557C41.6562 281.27 42.4998 281.99 43.1881 282.3C44.0554 283.776 52.5889 285.275 55.2056 285.479Z" fill="white"/>
<path fill-rule="evenodd" clip-rule="evenodd" d="M112.328 135.035C112.898 132.467 116.982 133.569 116.282 136.126C115.199 140.08 112.951 143.817 109.778 146.44C107.327 148.465 103.987 150.271 100.674 150.605C100.985 150.908 101.282 151.231 101.595 151.539C102.301 152.241 103.051 152.892 103.824 153.518C105.413 154.803 107.065 155.959 108.869 156.927C116.075 160.795 124.216 161.687 132.265 160.786C136.085 160.359 139.961 159.634 143.553 158.237C145.218 157.591 146.836 156.741 148.264 155.667L148.638 155.387C149.389 154.819 150.391 154.019 150.861 153.144C149.432 153.465 147.626 151.943 146.635 151.058C145.552 150.086 144.639 148.832 143.965 147.547C142.644 145.026 141.945 141.773 143.052 139.07C143.126 138.89 143.363 138.92 143.384 139.114C143.711 142.266 144.561 145.22 146.821 147.554C147.825 148.587 149.027 149.454 150.339 150.056L150.523 150.141C151.082 150.399 151.671 150.703 151.906 151.256C151.997 151.246 152.088 151.254 152.175 151.278C152.253 151.299 152.325 151.322 152.394 151.347C152.238 151.041 152.156 150.679 152.17 150.252C152.226 148.597 154.497 148.547 154.811 150.02C154.754 149.826 154.678 150.014 154.822 150.073C154.82 150.056 154.816 150.037 154.811 150.02L154.816 150.036L154.824 150.073L154.822 150.073C154.828 150.1 154.832 150.127 154.835 150.155L154.838 150.192L154.837 150.161C154.835 150.138 154.832 150.118 154.829 150.099L154.824 150.073C154.845 150.083 154.875 150.09 154.909 150.09L154.922 150.095C154.975 150.118 155.162 150.205 155.217 150.227C155.595 150.367 156.018 150.411 156.404 150.531C157.243 150.789 157.983 151.216 158.494 151.943C158.862 152.465 159.066 153.063 159.151 153.685C162.863 155.471 166.376 157.791 169.319 160.664C175.888 167.072 180.468 175.092 184.226 183.394C186.139 187.621 187.844 191.937 189.511 196.265L189.774 196.948C191.561 201.6 193.142 206.302 193.53 211.303C193.566 211.751 193.418 212.172 193.163 212.521C193.254 212.897 193.3 213.273 193.287 213.641C193.285 213.698 193.281 213.755 193.277 213.812C193.877 213.801 194.464 214.053 195.022 214.759C195.248 214.687 195.493 214.678 195.734 214.756C197.202 215.226 197.439 216.838 197.716 218.189C198.001 219.584 198.125 221.013 198.128 222.435C198.128 222.944 197.836 223.587 197.342 223.805C196.412 224.214 195.411 224.483 194.449 224.855C193.727 225.134 193.002 225.398 192.271 225.645C192.677 226.353 192.808 227.338 193.028 228.084C193.372 229.249 193.649 230.418 193.881 231.61C195.457 239.715 196.549 247.907 198.024 256.029C198.761 260.098 199.619 264.139 200.494 268.18C200.925 270.166 201.383 272.149 201.875 274.123C202.138 275.175 202.41 276.228 202.691 277.274C202.773 277.58 202.855 277.884 202.939 278.189L203.086 278.722C203.407 278.899 203.682 279.168 203.872 279.535C204.567 280.88 204.168 282.395 202.835 283.152C201.385 283.976 199.655 283.198 198.856 281.86C198.294 280.916 198.111 279.664 197.834 278.614C197.521 277.435 197.223 276.249 196.936 275.063C194.984 267.008 193.677 258.812 192.692 250.585L192.622 249.997C192.121 245.762 191.637 241.516 191.325 237.261C191.171 235.171 191.048 233.081 190.972 230.986C190.934 229.908 190.995 228.824 191.056 227.748C191.084 227.277 191.124 226.803 191.139 226.332L191.144 226.265C191.147 226.217 191.153 226.155 191.157 226.089L191.162 226.009C189.704 226.465 188.225 226.846 186.732 227.167C183.554 227.854 180.303 228.237 177.06 228.042C177.512 233.415 178.101 238.774 178.925 244.098C179.72 249.226 180.637 254.342 181.672 259.428C182.19 261.983 182.749 264.532 183.339 267.072C183.656 268.429 184.017 269.777 184.302 271.141C184.471 271.952 184.524 272.63 184.184 273.389C184.558 274.41 184.891 275.435 185.218 276.401L185.316 276.689C185.895 278.379 186.994 280.108 185.847 281.769C185.253 282.627 184.286 283.118 183.311 283.147C183.294 283.158 183.275 283.171 183.256 283.181C182.732 283.462 182.128 283.517 181.554 283.397C180.681 283.568 179.806 283.733 178.93 283.883C176.764 284.257 174.588 284.565 172.408 284.826C168.256 285.32 164.078 285.591 159.901 285.741C144.609 286.292 129.301 285.324 114.003 285.603C106.209 285.745 98.4155 286.096 90.6346 286.561C86.7515 286.793 82.8662 287.043 78.981 287.235L77.7784 287.294C74.3039 287.46 70.8269 287.588 67.355 287.334C67.2874 287.33 67.2345 287.302 67.1986 287.265C66.0007 287.129 64.7967 286.026 64.9169 284.752C65.4345 279.324 65.9522 273.897 66.4719 268.467C67.3951 258.794 68.3268 249.12 69.2691 239.448L69.4052 238.052C69.7218 234.793 70.0241 231.527 70.1775 228.255C69.4043 228.201 68.6334 228.131 67.862 228.046C59.5052 227.131 51.494 224.602 43.8018 221.281L43.4902 221.146C42.7972 220.843 42.0388 220.541 41.2613 220.218C41.2742 221.695 41.2254 223.175 41.219 224.637C41.2085 227.066 41.2275 229.494 41.2338 231.92C41.2486 236.921 41.4388 241.923 41.6881 246.916C42.1254 255.733 42.6388 264.538 43.4162 273.334C43.6127 275.547 43.8791 277.756 44.0669 279.969C44.1791 281.273 43.9106 282.359 42.7171 283.044C42.1296 283.382 41.6754 283.24 41.0923 282.968C39.6683 282.3 39.6282 280.721 39.493 279.347C39.3897 278.312 39.2944 277.276 39.2014 276.238C39.0031 274.026 38.8317 271.813 38.6923 269.595C38.1411 260.786 37.9803 251.986 38.3606 243.166C38.5371 239.041 38.792 234.907 39.1303 230.789L39.2099 229.839C39.4888 226.548 39.6683 223.094 40.2451 219.783C37.919 218.751 35.6141 217.439 34.5451 215.257C33.1594 212.425 34.6824 210.003 36.8521 208.336C36.831 208.055 36.8521 207.776 36.9113 207.522C37.5345 204.823 38.5782 202.156 39.5859 199.582C40.6021 196.995 41.724 194.448 42.9578 191.956C47.9099 181.974 54.6747 172.852 62.7388 165.167C66.7444 161.351 71.1282 157.823 75.8078 154.864C78.1275 153.4 80.5064 152.047 82.9698 150.842L83.334 150.665C85.0488 149.832 86.9722 148.947 88.8791 148.484C89.0775 148.336 89.2782 148.196 89.481 148.063C90.231 147.564 91.2493 147.925 91.693 148.638C91.9087 148.471 92.1578 148.323 92.443 148.19L92.7249 148.061C94.436 147.29 96.4906 146.569 98.3479 147.076C99.5015 147.391 100.41 148.24 100.818 149.323C101.754 148.828 102.673 148.319 103.57 147.695C105.013 146.698 106.321 145.459 107.496 144.159C109.851 141.545 111.563 138.482 112.328 135.035ZM194.065 217.462C193.904 217.508 193.735 217.525 193.56 217.504C193.877 217.541 193.242 217.729 193.068 217.818L193.055 217.825C192.738 218.007 192.419 218.182 192.096 218.352C191.342 218.749 190.571 219.106 189.787 219.442C188.242 220.1 186.647 220.605 185.01 220.975C183.408 221.336 181.729 221.547 180.087 221.581C178.989 221.602 177.685 221.552 176.549 221.228C176.68 223.221 176.825 225.212 176.988 227.201L179.233 226.686C181.478 226.171 183.72 225.643 185.935 225.001C187.598 224.519 189.237 223.955 190.858 223.346C191.707 223.027 192.55 222.689 193.382 222.325C193.797 222.144 194.185 221.929 194.569 221.711L194.897 221.524C194.821 220.634 194.682 219.761 194.479 218.882C194.373 218.417 194.194 217.94 194.065 217.462ZM40.3507 208.076C40.0655 209.002 39.6282 209.866 38.631 210.075C38.2782 210.149 37.9826 210.109 37.7373 209.989L37.6785 210.107C36.8586 211.791 36.6178 213.568 38.5042 214.864C39.3558 215.45 40.2831 215.957 41.2422 216.411C42.9575 217.228 44.7841 217.884 46.5063 218.552L46.8493 218.686C49.9296 219.895 53.0584 220.996 56.2359 221.917C59.4601 222.849 62.7408 223.597 66.0622 224.073C67.4627 224.272 68.8739 224.411 70.2875 224.502C70.3106 222.6 70.3 220.696 70.2936 218.793C69.7908 218.73 69.2922 218.662 68.8108 218.605C67.3444 218.434 65.8824 218.225 64.4289 217.965C61.3929 217.422 58.3887 216.671 55.4584 215.712C50.0289 213.93 44.9775 211.383 40.3507 208.076ZM99.8798 149.811C98.646 148.505 96.2861 148.976 94.7969 149.61C94.3467 149.802 93.8924 149.997 93.4615 150.231L93.378 150.278C92.8761 150.567 92.8786 150.739 93.1236 151.315C93.4425 152.074 93.8861 152.807 94.3086 153.511C96.1173 156.532 98.4981 159.161 101.217 161.382C110.847 169.244 124.68 172.017 136.723 169.384C142.502 168.121 148.077 165.573 152.332 161.393L152.719 161.008C154.435 159.29 156.789 156.805 156.624 154.26C156.546 153.036 155.547 152.966 154.526 152.729C154.108 152.632 153.709 152.495 153.362 152.3C153.641 153.503 152.156 155.291 151.389 156.041C149.781 157.616 147.846 158.846 145.799 159.765C141.903 161.517 137.665 162.346 133.446 162.87C128.659 163.466 123.768 163.413 119.016 162.532C114.882 161.765 110.807 160.313 107.249 158.051C105.618 157.015 104.01 155.834 102.649 154.458L102.36 154.166C101.378 153.17 100.235 151.967 99.6474 150.66C99.4234 150.662 99.2016 150.656 98.9798 150.641C98.8234 150.633 98.7391 150.411 98.8953 150.328C99.0706 150.235 99.246 150.143 99.4213 150.052C99.392 149.954 99.3664 149.859 99.3453 149.762C99.3284 149.68 99.415 149.604 99.491 149.65C99.5967 149.713 99.6981 149.781 99.7974 149.853C99.8248 149.84 99.8523 149.826 99.8798 149.811Z" fill="black"/>
<path fill-rule="evenodd" clip-rule="evenodd" d="M110.173 51.5414C142.195 49.9661 163.922 75.2293 164.857 85.3035C165.506 92.2965 165.065 101.623 165.065 107.872C165.065 111.061 166.674 120.757 164.857 125.406C160.812 135.753 156.242 143.858 143.579 143.858C130.916 143.858 111.612 137.293 104.984 128.824C103.773 127.278 88.7343 115.96 88.7343 107.064C88.7343 88.0838 87.3244 52.6655 110.173 51.5414Z" fill="white"/>
<path fill-rule="evenodd" clip-rule="evenodd" d="M88.3282 31.0414C90.1532 30.4708 91.3179 31.2923 92.1488 32.5651C92.332 32.5294 92.5092 32.5317 92.7065 32.5792C92.7553 32.5911 92.8734 32.6357 92.9628 32.6707C93.0319 32.6997 93.0942 32.7348 93.1542 32.772L93.1899 32.7532C93.3268 32.6037 93.4707 32.4674 93.626 32.3575C93.975 32.1107 94.3346 32.0388 94.6758 32.0895L94.8338 32.0314C96.1846 31.5605 97.6491 31.7791 98.565 32.9432C98.7422 33.1681 98.8855 33.4185 99.0078 33.6827C99.2824 33.7727 99.5402 33.9029 99.7622 34.0631C99.9182 33.9898 100.083 33.9281 100.259 33.8826C101.256 33.6269 102.303 33.8683 103.115 34.4795C103.511 34.7769 103.801 35.1492 104.022 35.5745C104.273 35.6335 104.521 35.7396 104.754 35.882C104.954 35.7825 105.157 35.689 105.365 35.625C106.126 35.3912 106.942 35.3052 107.734 35.3642C109.44 35.4908 111.09 37.4404 109.95 39.1147L109.914 39.1653C109.77 39.3672 109.644 39.5758 109.527 39.7878C109.936 39.9655 110.329 40.2033 110.692 40.5013C112.47 41.9586 112.63 44.2052 112.297 46.3245L112.283 46.4127H112.287C113.232 46.5024 114.047 47.4892 113.489 48.4173L113.462 48.4607C112.707 49.628 112.059 50.9175 111.338 52.1458C109.341 52.8659 107.416 53.7527 105.603 54.8272C104.474 55.8168 103.399 56.863 102.453 58.0269C101.981 58.6081 101.547 59.2233 101.148 59.8612C101.467 60.0144 101.861 60.0066 102.194 59.698C105.156 56.9524 108.734 55.0255 112.544 53.7341C112.819 53.6409 112.999 53.4655 113.1 53.258C114.791 52.7759 116.512 52.402 118.251 52.1374C118.73 51.6806 119.232 51.244 119.709 50.7892C120.318 50.2088 121.081 50.2173 121.651 50.5818C121.934 50.4527 122.223 50.3388 122.517 50.2363L122.7 50.1741C122.776 50.1492 122.849 50.1202 122.923 50.0974C124.963 49.4736 126.828 49.7052 128.835 50.2178L129.092 50.2847C130.027 50.5329 130.616 50.4932 131.521 50.2648L131.623 50.2386C132.586 49.9875 133.615 49.8015 134.599 50.0659C135.628 50.3427 136.311 50.9581 137.012 51.7016L137.082 51.7764C137.409 52.1265 137.598 52.1647 138.026 52.1561L138.485 52.1425C140.216 52.0951 141.911 52.1681 143.208 53.5076C143.687 54.0029 144.202 54.704 144.51 55.3438L144.555 55.4393C144.569 55.4704 144.582 55.4964 144.594 55.5196C144.78 55.4896 145.069 55.3719 145.207 55.345C147.094 54.979 148.668 55.5431 149.879 57.0303C150.144 57.3558 150.545 57.9949 150.822 58.3462C150.919 58.4286 151.011 58.517 151.098 58.6098C151.553 58.9004 152.197 58.882 152.707 58.9839C154.097 59.2607 155.583 59.7895 156.289 61.1128C156.585 61.665 156.694 62.2693 156.819 62.8729C157.286 63.18 157.652 63.6226 157.936 64.1017C158.282 64.6833 158.429 65.3958 158.827 65.9451C159.116 66.3441 159.558 66.5572 159.978 66.8011L160.139 66.8954C161.384 67.6372 162.359 68.4604 162.769 69.9138L162.804 70.0431C162.871 70.2658 163.104 70.9012 162.901 70.8057C163.076 70.9023 163.374 70.9363 163.533 70.9892C164.397 71.2751 165.148 71.7372 165.608 72.5485C165.959 73.1661 166.022 73.8098 166.122 74.4906L166.165 74.7654C166.176 74.8319 166.189 74.9091 166.202 74.984L166.216 75.0577L166.219 75.0594C166.375 75.127 166.529 75.2003 166.68 75.2794C167.396 75.701 167.885 76.4329 167.885 77.2802C167.885 77.6915 167.757 78.0119 167.57 78.2979C167.721 78.527 167.838 78.7711 167.927 79.0431C168.1 79.5742 168.112 80.155 168.054 80.7045C167.984 81.3639 167.815 81.9644 167.615 82.5942C167.539 82.8373 167.508 83.1769 167.392 83.409C167.605 83.681 167.733 84.0134 167.693 84.3414C167.637 84.8106 167.423 85.3591 166.998 85.6222C166.79 86.6473 166.343 87.6947 165.903 88.5327C165.852 88.63 165.791 88.7166 165.723 88.7885C165.785 92.1342 165.54 95.5033 165.523 98.8445C165.504 102.482 165.58 106.122 165.706 109.754C165.92 115.776 166.683 122.002 164.906 127.874C163.452 132.68 160.541 136.805 156.637 139.933C152.64 143.133 147.821 144.985 142.704 145.274C140.101 145.42 137.454 145.124 134.935 144.45L134.666 144.377C132.23 143.707 129.408 142.684 127.615 140.893C126.668 139.946 127.625 137.94 129.014 138.492C130.389 139.039 131.623 139.849 132.987 140.419C134.206 140.929 135.479 141.32 136.767 141.607C139.351 142.188 142.091 142.315 144.717 141.954C154.199 140.656 161.587 132.779 163.044 123.439C163.448 120.853 163.44 118.224 163.413 115.61L163.383 112.747C163.36 110.351 163.352 107.954 163.44 105.559C163.552 102.478 163.769 99.3983 164.061 96.3297L164.213 94.7329C164.393 92.8646 164.596 90.9821 164.946 89.1393C164.659 89.1543 162.397 85.2832 161.142 83.1201C160.684 82.7565 160.297 82.3049 160.147 81.7205C160.116 81.5985 160.1 81.4755 160.091 81.3523C159.818 80.9239 159.53 80.5065 159.227 80.1016L159.161 80.0719C159.11 80.0487 159.07 80.0293 159.047 80.0162C158.385 79.6406 157.832 79.0716 157.454 78.4122C157.326 78.1899 157.222 77.9578 157.137 77.7205C156.597 77.1906 156.032 76.6851 155.439 76.211C155.381 76.1645 155.32 76.121 155.262 76.0751C154.506 75.7932 153.843 75.3684 153.36 74.7565C153.158 74.6314 152.955 74.5088 152.749 74.3888C152.134 74.383 151.512 74.2395 150.907 73.9908C149.8 73.536 148.916 72.6371 147.803 72.2205C146.627 71.7803 145.388 72.7808 144.139 72.6003C143.82 72.5542 143.503 72.4572 143.209 72.3165C142.505 73.0621 141.759 73.7651 140.935 74.3803C139.74 75.2735 138.518 75.6816 137.133 76.0851C136.447 76.7366 135.678 77.3684 134.751 77.4612C132.606 79.1765 130.312 80.6234 127.898 81.9667C127.51 82.1827 127.124 82.2802 126.757 82.2827C126 82.7582 125.174 83.1241 124.301 83.3773C124.027 83.4565 123.745 83.4732 123.468 83.4392L122.71 84.0566C122.183 84.486 121.62 84.6912 121.082 84.7046C120.755 84.9554 120.415 85.1928 120.066 85.421C119.692 85.666 119.207 85.7674 118.719 85.7378C117.974 86.4666 117.009 86.5431 116.2 86.2075C116.089 86.2726 115.974 86.3343 115.846 86.3949C115.672 86.4776 115.489 86.5473 115.304 86.6037C114.46 87.513 113.226 87.9898 111.989 87.8651C111.065 88.4311 109.99 88.7255 108.939 88.6593C108.779 89.465 108.646 90.2736 108.534 91.085L108.522 91.6794C108.521 91.7757 108.521 91.8508 108.522 91.9002L108.523 91.9198C108.626 94.5256 108.682 97.1326 108.784 99.7387L108.793 99.9444C108.909 102.221 109.469 106.373 106.123 106.282C104.876 106.248 103.64 105.33 102.669 104.575L102.532 104.468C102.458 104.41 102.381 104.351 102.305 104.291C101.579 104.196 100.864 104.02 100.131 103.993C99.2269 103.961 98.2762 104.054 97.3952 104.259C95.8403 104.621 94.336 105.329 93.322 106.612C93.2332 106.724 93.1508 106.842 93.0727 106.96C93.0008 107.203 92.8783 107.427 92.7156 107.622C91.7565 109.78 92.3102 112.631 93.3705 114.605C94.634 116.956 96.6333 118.582 99.1472 119.4L99.2734 119.441C100.991 119.977 101.648 121.017 102.582 122.463C103.456 123.82 104.46 125.084 105.537 126.284C107.623 128.607 110.549 130.524 111.761 133.464C112.006 134.056 111.305 134.613 110.762 134.461C108.635 133.863 107.143 132.348 105.597 130.841C104.526 129.797 103.497 128.712 102.531 127.572C102.329 127.665 102.106 127.728 101.874 127.757C100.849 127.882 99.7922 127.83 98.8952 127.277C98.4817 127.315 98.051 127.171 97.7311 126.878C97.4377 126.609 97.1846 126.317 96.9708 126.006C96.6458 126.035 96.3268 126.044 96.0224 125.993C95.8755 125.979 95.7334 125.941 95.603 125.877C95.3609 125.782 95.1313 125.634 94.9204 125.408C94.4932 124.949 94.3295 124.301 94.4083 123.685C94.3238 123.667 94.2399 123.646 94.1571 123.618C93.5884 123.425 93.1506 123.043 92.8709 122.522C92.3704 122.241 91.9198 121.861 91.5786 121.456C91.163 120.964 90.8495 120.409 90.6653 119.796C90.4749 119.708 90.2901 119.605 90.113 119.485C88.8443 118.626 88.118 117.014 88.6162 115.524L88.6331 115.477C88.6584 115.41 88.7042 115.295 88.7603 115.166C88.7522 115.061 88.7438 114.956 88.7381 114.851L88.7205 114.533L88.4664 114.425C87.1988 113.921 86.3419 113.24 86.1896 111.814C86.1579 111.519 86.2724 111.218 86.453 110.966L86.4522 110.887C86.3698 110.844 86.2914 110.801 86.2223 110.757C85.5312 110.315 85.1066 109.524 85.1541 108.705C85.1978 107.96 85.6108 107.365 86.0753 106.815L86.208 106.661C86.219 106.648 86.2313 106.634 86.2445 106.619L85.9375 106.523C85.7383 106.459 85.5558 106.396 85.4246 106.323C84.9167 106.038 84.4861 105.653 84.2205 105.164C84.1819 105.103 84.1426 105.044 84.1071 104.979C83.7642 104.353 83.7194 103.551 83.9406 102.879C83.9668 102.8 84.0006 102.726 84.0353 102.651C83.1015 102.322 82.3825 101.642 82.2959 100.387C82.2619 99.8941 82.3698 99.4027 82.6046 98.9819C82.5526 98.6985 82.5418 98.4047 82.5754 98.1141C82.2469 97.8036 81.9917 97.4295 81.8776 96.9732C81.6619 96.1111 82.0567 95.2909 82.6436 94.5387C82.4265 93.9439 82.4153 93.2729 82.6633 92.6741C82.5678 92.3753 82.5135 92.0593 82.5105 91.7349C82.504 91.0165 82.7252 90.4165 83.0824 89.9061C82.5803 89.2919 82.3417 88.4757 82.6384 87.7108C82.8494 87.1672 83.0907 86.6699 83.3687 86.2092C83.2227 85.8587 83.1378 85.4663 83.1378 85.0269C83.1378 84.2364 83.434 83.6102 83.8872 83.0977C83.6905 82.1616 84.0904 81.0216 84.9621 80.6094C85.2906 80.4539 85.7305 80.2916 86.2151 80.1652C86.397 79.5966 86.587 79.0304 86.7874 78.4682C87.1033 77.5833 87.443 76.7107 87.803 75.8481C87.5958 76.0297 87.3784 76.199 87.1536 76.3524C86.4427 77.2566 85.5002 78.0398 84.7082 78.5084C83.138 79.4375 81.3422 78.8863 80.5671 77.3318C79.8386 77.8758 78.9644 78.1979 78.0317 78.0878C76.9741 77.9629 76.0071 77.2777 75.743 76.2089C75.7048 76.0542 75.6817 75.887 75.6794 75.7188C75.0729 76.1508 74.4382 76.5483 73.7421 76.776C72.8554 77.0659 71.9503 76.3704 71.8333 75.5038C71.787 75.1604 71.8513 74.8569 71.9879 74.6005L71.9014 74.5664C71.887 74.5604 71.8727 74.5542 71.8584 74.5475C71.3934 74.3296 71.0324 73.9301 70.8608 73.4694C69.8539 73.8591 68.7013 73.4024 68.3818 72.2947C68.0015 70.978 67.9785 69.6444 68.2762 68.3617C67.2093 67.586 66.5142 66.282 66.3959 64.9188C66.3095 63.9402 66.5429 63.0369 66.9543 62.2017C65.9453 61.8242 65.5984 60.5011 66.0779 59.5479C65.441 59.1832 65.0256 58.4098 65.0163 57.657C64.7317 57.2258 64.6407 56.6706 64.8767 56.0484C65.1879 55.2286 65.8217 54.5428 66.5474 54.0049C66.2309 53.4537 65.9958 52.8526 65.8498 52.2314C65.2485 52.0554 64.7632 51.5688 64.6644 50.8382C64.5405 49.9222 65.1433 49.1457 65.9546 48.9407C66.0446 48.6617 66.1544 48.3889 66.2903 48.1268C65.8889 47.1757 65.948 45.9731 66.4656 44.9333C66.9241 44.0139 67.6698 43.4517 68.5677 43.0628C68.3396 42.2808 68.6417 41.501 69.4022 40.9197C70.3308 40.2094 71.3491 39.6664 72.4191 39.2828C72.3241 38.0099 72.856 36.7063 74.1133 36.2624C74.4494 36.1439 74.7993 36.1001 75.1548 36.1016C75.413 35.54 75.8438 35.0835 76.406 34.6794C77.2567 34.0682 78.8465 34.4416 79.3183 35.4001L79.3413 35.4494C79.3654 35.5037 79.3914 35.5534 79.4161 35.606C79.5112 35.1406 79.7334 34.701 80.0907 34.3406C80.9837 33.4396 81.9266 33.4227 82.834 33.808C83.0005 33.395 83.202 33.0024 83.4471 32.6433C84.3367 31.3405 85.8065 31.1746 86.8827 31.8801C87.3141 31.5007 87.7956 31.2082 88.3282 31.0414ZM94.6886 109.382C96.48 108.681 98.6539 108.888 100.424 109.562L100.554 109.613C102.118 110.231 104.658 111.607 104.964 113.366C105.123 114.278 104.257 115.066 103.378 114.586C102.613 114.17 102.184 113.33 101.576 112.722C100.974 112.12 100.3 111.636 99.5647 111.211C98.0309 110.325 96.4187 109.981 94.6886 109.725C94.4943 109.698 94.5471 109.437 94.6886 109.382Z" fill="black"/>
<path fill-rule="evenodd" clip-rule="evenodd" d="M150.577 122.332C150.724 122.292 150.853 122.489 150.732 122.597C150.234 123.038 149.919 123.861 149.556 124.422C149.21 124.955 148.878 125.483 148.574 126.041C148.234 126.667 147.905 127.291 147.64 127.953L147.588 128.087C147.667 128.275 147.729 128.462 147.775 128.584L147.788 128.619C148.24 129.775 147.291 131.06 146.219 131.383C144.387 131.935 142.814 130.43 142.771 128.64C142.736 127.231 143.691 125.976 144.66 125.045C145.509 124.231 146.458 123.538 147.521 123.03C147.99 122.806 148.477 122.619 148.986 122.51C149.506 122.399 150.068 122.47 150.577 122.332ZM147.124 127.436C147.259 127.499 147.373 127.654 147.47 127.835C147.422 127.682 147.322 127.529 147.124 127.436ZM148.271 107.866C149.866 108.836 152.297 111.099 150.581 113.504C148.561 115.624 145.652 113.193 144.219 112.093C142.89 111.241 141.396 113.433 142.629 114.428C152.987 122.099 157.19 108.12 149.078 106.726C148.184 106.572 147.853 107.566 148.271 107.866ZM135.156 98.5512L135.438 98.5275C136.661 98.4197 137.899 98.2554 139.105 98.5321C140.724 98.9041 140.606 101.262 139.105 101.695C137.782 102.077 136.316 101.912 134.95 101.925C134.735 101.927 134.521 101.932 134.306 101.936C134.264 102.447 134.096 102.887 133.84 103.327C133.656 103.643 133.422 103.943 133.191 104.223C132.642 104.89 131.349 104.875 130.795 104.223C130.386 103.741 130.06 103.186 130.055 102.533C130.053 102.366 130.074 102.189 130.114 102.014L129.368 102.027C127.544 102.055 125.706 102.043 123.914 101.753C123.277 101.885 122.756 100.734 123.635 100.39C126.026 99.4547 128.697 99.1793 131.234 98.8984C132.538 98.7538 133.849 98.6543 135.156 98.5512ZM155.525 97.5845L155.59 97.578C157.172 97.4159 158.916 97.1352 160.502 97.2967C162.869 97.5374 162.865 100.739 160.502 100.978C159.634 101.066 158.72 101.023 157.809 100.939C158.275 101.928 157.722 103.109 156.6 103.26C155.557 103.4 154.475 102.386 154.818 101.298L154.834 101.25C154.9 101.061 154.96 100.85 155.032 100.642L154.654 100.61C153.526 100.511 151.96 100.307 151.544 99.4155C151.419 99.1469 151.448 98.8975 151.641 98.6679C152.432 97.7261 154.382 97.6951 155.525 97.5845ZM138.7 90.2553C139.846 89.8391 141.036 90.813 141.184 91.9106C141.355 93.1753 140.443 94.0081 139.287 94.1591L139.229 94.1661C136.678 94.4472 134.146 94.9612 131.592 95.2518C130.431 95.3836 129.262 95.4704 128.094 95.5016L127.26 95.5203C126.237 95.5462 125.14 95.5695 124.195 95.2171L124.199 95.2108C123.948 95.1381 123.833 94.7763 124.112 94.5784C125.117 93.8673 126.473 93.5984 127.643 93.2605C128.82 92.9204 130.005 92.607 131.194 92.3126C133.69 91.695 136.282 91.1341 138.7 90.2553ZM149.262 90.5509C149.565 88.9508 151.831 88.7792 152.663 89.9435C153.201 90.1282 153.989 90.321 154.478 90.466C155.33 90.7185 156.182 90.9696 157.036 91.2129C158.804 91.7167 160.529 92.3554 162.268 92.9508C162.447 93.0123 162.398 93.2397 162.226 93.2624C159.799 93.5783 157.413 93.7253 154.972 93.624L154.472 93.6014C152.321 93.5176 148.669 93.6775 149.262 90.5509Z" fill="black"/>
</svg>
