<svg width="240" height="324" viewBox="0 0 240 324" fill="none" xmlns="http://www.w3.org/2000/svg">
<path fill-rule="evenodd" clip-rule="evenodd" d="M55.9682 287.806C63.0177 287.828 69.8676 288.069 76.9369 288.093C105.673 288.189 134.674 288.049 163.515 286.884C171.666 286.554 173.701 286.562 181.817 286.051C186.609 286.034 201.004 285.638 200.284 279.108C199.965 266.946 196.956 254.836 196.008 242.707C194.188 219.907 192.639 196.393 183.502 175.067C181.388 169.974 176.846 166.643 172.35 163.648C167.841 160.417 166.734 156.83 162.573 153.18C161.693 152.409 156.696 152.095 154.008 150.137C150.095 147.288 148.155 142.623 146.695 141.829C145.62 141.244 145.64 137.213 143.487 135.786C140.597 133.872 131.39 132.448 128.04 132.182C124.825 131.926 119.232 132.463 116.215 133.641C111.185 135.605 109.178 139.352 106.963 144.179C77.692 153.229 50.9382 168.553 42.6294 199.464C35.4643 225.389 35.2017 253.182 37.9697 279.77C38.5235 281.715 38.1354 284.763 39.8149 286.051C33.978 286.386 55.1764 287.59 55.9682 287.806Z" fill="white"/>
<path fill-rule="evenodd" clip-rule="evenodd" d="M189.101 262.208C188.547 261.931 187.97 261.615 187.337 261.593C186.251 261.555 186.25 259.864 187.337 259.902C188.286 259.935 189.119 260.331 189.954 260.748C190.929 261.234 190.072 262.692 189.101 262.208ZM187.337 214.615C188.079 214.616 188.826 214.71 189.395 215.228C189.734 215.537 189.707 216.112 189.395 216.424C189.062 216.757 188.537 216.731 188.2 216.424C188.31 216.524 188.201 216.425 188.161 216.402C188.151 216.397 188.146 216.394 188.144 216.391C188.135 216.389 188.127 216.388 188.113 216.384C188.025 216.362 187.937 216.34 187.848 216.324C187.847 216.328 187.659 216.312 187.615 216.31C187.523 216.307 187.43 216.306 187.337 216.306C186.879 216.306 186.492 215.92 186.492 215.461C186.492 215.004 186.88 214.615 187.337 214.615ZM179.391 233.581C179.148 234.643 177.519 234.191 177.761 233.132C178.112 231.591 178.048 230.013 177.761 228.468C177.563 227.403 179.192 226.95 179.391 228.019C179.735 229.872 179.812 231.733 179.391 233.581ZM177.256 172.816C175.997 172.517 174.752 172.481 173.465 172.481C172.376 172.48 172.377 170.789 173.465 170.79C174.901 170.79 176.303 170.852 177.705 171.185C178.765 171.437 178.313 173.067 177.256 172.816ZM173.038 213.999C172.308 213.634 171.578 213.269 170.848 212.904C169.874 212.417 170.731 210.959 171.701 211.444L173.891 212.54C174.865 213.027 174.008 214.485 173.038 213.999ZM172.734 247.296C171.808 248.631 170.506 249.461 168.943 249.876C167.889 250.155 167.443 248.524 168.494 248.245C169.612 247.949 170.604 247.409 171.275 246.442C171.891 245.553 173.355 246.4 172.734 247.296ZM166.894 187.766C166.643 187.298 166.266 187.1 165.798 187.089C164.711 187.064 164.71 185.373 165.798 185.398C166.865 185.423 167.843 185.958 168.353 186.913C168.866 187.873 167.407 188.726 166.894 187.766ZM156.174 199.259C155.871 199.589 155.283 199.581 154.979 199.259C154.792 199.062 154.635 198.842 154.512 198.601C154.465 198.509 154.421 198.416 154.369 198.327C154.346 198.287 154.321 198.248 154.295 198.21C154.286 198.202 154.267 198.183 154.248 198.163C153.924 197.82 153.932 197.313 154.248 196.967C154.552 196.637 155.139 196.646 155.444 196.967C155.63 197.164 155.787 197.384 155.91 197.626C155.957 197.717 156.001 197.81 156.053 197.9C156.076 197.939 156.102 197.978 156.128 198.016C156.137 198.024 156.155 198.043 156.174 198.063C156.499 198.407 156.491 198.914 156.174 199.259ZM155.273 224.225C154.172 224.729 152.965 224.729 151.864 224.225C151.447 224.035 151.348 223.432 151.561 223.069C151.807 222.647 152.302 222.576 152.717 222.765C153.216 222.994 153.921 222.994 154.42 222.765C154.836 222.575 155.326 222.642 155.576 223.069C155.79 223.435 155.688 224.035 155.273 224.225ZM152.27 241.897C152.081 242.345 151.673 242.583 151.195 242.601C150.722 242.619 150.37 242.2 150.35 241.756C150.338 241.469 150.493 241.224 150.715 241.073C150.715 241.057 150.716 241.041 150.716 241.025C150.716 240.552 151.103 240.201 151.561 240.18C152.017 240.16 152.406 240.583 152.406 241.025C152.406 241.324 152.387 241.62 152.27 241.897ZM147.91 269.992C146.561 270.014 145.243 270.336 143.894 270.358C142.804 270.375 142.808 268.684 143.894 268.667C145.243 268.645 146.561 268.323 147.91 268.302C149 268.284 148.996 269.975 147.91 269.992ZM142.301 161.642C141.511 162.394 140.536 162.765 139.574 163.235C138.6 163.711 137.744 162.253 138.721 161.775C139.536 161.377 140.438 161.083 141.106 160.446C141.894 159.695 143.09 160.89 142.301 161.642ZM140.182 181.13C139.628 180.854 139.051 180.537 138.418 180.515C137.332 180.477 137.33 178.787 138.418 178.825C139.367 178.858 140.2 179.253 141.035 179.67C142.01 180.157 141.152 181.615 140.182 181.13ZM130.022 259.348C129.772 258.879 129.395 258.681 128.926 258.671C127.839 258.646 127.838 256.955 128.926 256.98C129.993 257.004 130.972 257.54 131.481 258.494C131.994 259.455 130.535 260.308 130.022 259.348ZM126.503 222.632C126.167 222.323 126.191 221.75 126.503 221.437C126.869 221.072 127.234 220.706 127.599 220.341C127.933 220.007 128.456 220.031 128.794 220.341C129.13 220.65 129.107 221.224 128.794 221.537C128.429 221.902 128.064 222.267 127.699 222.632C127.364 222.967 126.841 222.942 126.503 222.632ZM122.355 279.853C121.135 279.825 119.992 279.475 118.844 279.092C117.816 278.75 118.259 277.118 119.294 277.462C120.292 277.794 121.294 278.138 122.355 278.162C123.442 278.188 123.443 279.878 122.355 279.853ZM116.879 243.697C115.777 243.666 114.864 243.105 114.091 242.354C113.31 241.594 114.506 240.399 115.286 241.158C115.728 241.588 116.239 241.988 116.879 242.006C117.966 242.036 117.967 243.727 116.879 243.697ZM120.279 197.2C120.293 197.65 120.483 198.133 120.762 198.428C121.509 199.22 120.315 200.417 119.567 199.624C118.95 198.97 118.615 198.095 118.589 197.2C118.558 196.11 120.248 196.115 120.279 197.2ZM107.388 160.375C107.034 159.682 106.57 158.87 105.865 158.487C104.908 157.967 105.762 156.508 106.718 157.027C107.677 157.548 108.363 158.573 108.847 159.522C109.341 160.49 107.882 161.344 107.388 160.375ZM105.197 177.959C104.804 177.948 104.415 177.88 104.037 177.778C103.876 177.734 103.716 177.683 103.554 177.639C103.485 177.621 103.19 177.584 103.371 177.594C102.914 177.569 102.526 177.226 102.526 176.748C102.526 176.309 102.915 175.878 103.371 175.903C103.998 175.936 104.569 176.25 105.197 176.268C106.284 176.299 106.284 177.989 105.197 177.959ZM99.7206 204.984H97.8952C96.8059 204.984 96.8078 203.294 97.8952 203.294H99.7206C100.81 203.294 100.808 204.984 99.7206 204.984ZM97.5916 279.738C97.0381 280.015 96.3857 280.277 95.9374 280.701C95.1468 281.449 93.9502 280.255 94.7422 279.506C95.3133 278.966 96.0434 278.626 96.7387 278.278C97.1484 278.073 97.652 278.165 97.895 278.581C98.1145 278.957 97.9998 279.533 97.5916 279.738ZM93.513 258.374C93.4422 258.355 93.3674 258.341 93.2958 258.331C93.0084 258.292 92.7078 258.306 92.4192 258.306C91.3299 258.305 91.3316 256.614 92.4192 256.615C93.2763 256.615 94.1683 256.627 94.8422 257.228C95.1843 257.533 95.1511 258.114 94.8422 258.423C94.5063 258.759 93.9877 258.727 93.6471 258.423C93.683 258.455 93.5599 258.387 93.513 258.374ZM92.4198 229.643C92.6653 229.136 92.6691 228.806 92.6695 228.243C92.6704 227.153 94.3605 227.155 94.3597 228.243C94.3592 229.06 94.2378 229.756 93.8792 230.496C93.6792 230.909 93.0935 231.016 92.7232 230.799C92.3078 230.556 92.221 230.053 92.4198 229.643ZM87.5327 189.981C86.5524 190.314 85.6773 190.786 84.8141 191.356C83.9029 191.958 83.0572 190.493 83.961 189.896C84.9461 189.246 85.9651 188.731 87.0833 188.35C88.1173 187.998 88.5569 189.632 87.5327 189.981ZM81.8322 161.524C81.104 161.545 80.3523 161.824 79.7032 162.139C78.7278 162.613 77.872 161.155 78.8504 160.679C79.7774 160.229 80.7917 159.863 81.8322 159.834C82.9221 159.803 82.9175 161.494 81.8322 161.524ZM79.2766 237.488C78.9901 237.501 78.7452 237.346 78.5935 237.124C78.5777 237.124 78.562 237.123 78.5464 237.123C78.0727 237.123 77.722 236.736 77.7013 236.278C77.6808 235.821 78.1044 235.432 78.5464 235.432C78.8447 235.433 79.1407 235.451 79.4179 235.568C79.8656 235.757 80.1035 236.165 80.1216 236.643C80.1396 237.116 79.72 237.469 79.2766 237.488ZM75.1204 179.024C74.0824 179.364 73.6417 177.73 74.671 177.394C75.8792 176.999 77.1139 176.693 78.3219 176.298C79.3599 175.959 79.8006 177.592 78.7711 177.929C77.5632 178.323 76.3284 178.629 75.1204 179.024ZM71.33 210.938C71.008 211.975 69.3773 211.53 69.7001 210.488C70.0119 209.483 70.0343 208.471 70.035 207.426C70.0356 206.336 71.7257 206.338 71.7251 207.426C71.7245 208.615 71.6845 209.793 71.33 210.938ZM60.0301 249.162C59.9686 249.583 59.6348 249.886 59.1979 249.906C58.7532 249.926 58.3368 249.503 58.3528 249.06C58.3839 248.209 59.0775 247.516 59.928 247.484C60.4013 247.467 60.7532 247.886 60.7731 248.33C60.7925 248.762 60.4321 249.099 60.0301 249.162ZM54.3113 200.572C53.4183 200.87 52.464 201.154 51.7639 201.815C50.9727 202.562 49.7761 201.368 50.5687 200.62C51.492 199.748 52.6795 199.336 53.8622 198.941C54.8978 198.596 55.3379 200.229 54.3113 200.572ZM50.4359 233.418C50.1904 233.837 49.6933 233.913 49.2798 233.721C48.7254 233.463 48.1134 233.472 47.5157 233.471C46.4266 233.47 46.4283 231.779 47.5157 231.78C48.4377 231.781 49.2883 231.868 50.1329 232.261C50.5485 232.454 50.6497 233.052 50.4359 233.418ZM48.2457 273.279C47.7724 273.297 47.4205 272.878 47.4006 272.434C47.3812 272.002 47.7414 271.665 48.1438 271.602C48.2051 271.181 48.5391 270.877 48.9758 270.858C49.4207 270.838 49.8372 271.261 49.8209 271.703C49.7898 272.555 49.0967 273.248 48.2457 273.279ZM202.223 279.672C201.936 278.639 201.279 277.804 200.782 276.874C200.616 276.561 200.558 276.366 200.468 276.136C200.345 276.382 200.107 276.566 199.75 276.566C199.064 276.566 198.261 276.522 197.621 276.816C197.204 277.007 196.714 276.939 196.465 276.513C196.251 276.147 196.353 275.546 196.768 275.356C197.711 274.923 198.726 274.876 199.75 274.875C200.003 274.875 200.194 274.968 200.329 275.108C200.721 269.749 200.711 264.385 200.341 259.021C199.946 253.289 199.037 247.672 198.086 242.014C197.626 239.271 197.028 236.5 197.144 233.706C197.261 230.931 198.45 228.344 197.607 225.56C197.269 224.444 196.69 223.421 196.314 222.318C195.911 221.13 195.946 219.957 196.13 218.727C196.508 216.223 197.136 213.748 196.132 211.303C195.689 210.218 194.97 209.25 194.624 208.13C194.193 206.737 194.252 205.197 194.18 203.753C194.035 200.841 193.997 197.909 193.755 195.003C193.648 193.701 193.413 192.467 192.879 191.273C192.365 190.123 191.603 189.077 191.263 187.857C190.925 186.657 190.895 185.391 190.713 184.163C190.523 182.865 190.225 181.587 189.824 180.34C188.273 175.512 185.432 171.176 182.075 167.416C178.506 163.419 174.241 160.409 169.713 157.605C167.333 156.13 164.952 154.655 162.573 153.18C162.522 153.457 162.346 153.711 162.007 153.825C161.114 154.123 160.16 154.407 159.46 155.068C158.669 155.815 157.472 154.621 158.264 153.873C159.091 153.091 160.131 152.68 161.188 152.319C160.104 151.636 159.008 150.928 157.785 150.533C156.714 150.186 155.134 150.489 154.265 149.702C153.583 149.083 153.367 147.936 153.106 147.094C152.778 146.05 152.495 144.949 152.079 143.935C151.796 143.241 151.384 142.576 150.864 142.039C150.636 141.16 150.217 140.356 149.478 139.868C147.543 138.587 145.166 139.86 144.315 141.686C143.611 141.684 142.87 141.838 142.185 141.88C140.778 141.969 139.369 142.009 137.96 142.005C135.203 141.997 132.444 141.817 129.71 141.451C124.821 140.796 120.078 139.475 115.272 138.446C115.244 138.382 115.213 138.319 115.175 138.256C114.139 136.518 111.56 136.812 109.935 137.469C109.238 137.751 108.528 138.106 108.129 138.765C107.706 139.05 107.341 139.397 107.098 139.763C106.595 140.517 106.206 142.039 105.186 142.166C104.514 142.248 103.832 142.119 103.149 142.216C102.296 142.335 101.531 142.635 100.743 142.977C94.743 145.583 88.5402 148.481 82.0287 149.491C80.5014 149.728 78.9465 149.973 77.6197 150.829C76.5423 151.524 75.7097 152.48 74.8204 153.386C73.9542 154.27 73.2402 154.661 72.0042 154.819C70.5042 155.012 69.2049 155.426 68.1085 156.516C67.1979 157.423 66.6042 158.581 65.8902 159.634C65.1632 160.707 64.0965 161.312 62.9895 161.935C60.3719 163.411 57.9338 165.192 55.8106 167.329C51.338 171.835 48.6296 177.626 45.9 183.269C42.9486 189.373 40.1895 195.551 38.2754 202.069C36.3993 208.468 35.2838 215.052 34.7683 221.697C34.2254 228.669 34.1493 235.669 33.6972 242.646C33.4711 246.131 33.3 249.62 33.1268 253.108C32.9578 256.553 32.7106 260.004 32.7505 263.453C32.8268 270.121 34.1597 276.811 36.4902 283.054C37.0711 284.607 37.7153 286.14 38.4019 287.649C39.0042 288.974 41.0641 288.826 41.7106 287.649C41.8585 287.378 41.9747 287.099 42.0719 286.816C43.762 286.831 45.469 286.7 47.1486 286.856C50.1148 287.133 53.0871 287.287 56.0618 287.471C61.9479 287.837 67.8444 288.08 73.7324 288.416C74.3037 288.448 74.875 288.481 75.446 288.515C71.25 275.523 71.7942 261.477 71.1302 247.965C71.0768 246.875 72.7673 246.882 72.8204 247.965C73.4871 261.535 72.9195 275.617 77.2638 288.63C78.9492 288.744 80.6324 288.884 82.3099 289.088C83.666 289.251 85.0289 289.443 86.3979 289.375C87.9507 289.301 89.4676 288.946 90.9824 288.638C93.7352 288.078 96.3866 288.331 99.15 288.676C102.106 289.046 105.072 289.251 108.046 289.38C119.958 289.902 131.949 290.377 143.856 289.58C146.738 289.388 149.613 289.118 152.476 288.75C155.425 288.371 158.343 287.735 161.29 287.374C164.195 287.019 166.866 287.993 169.737 288.173C172.665 288.357 175.671 287.746 178.572 287.395C179.518 287.28 180.465 287.169 181.413 287.058C180.193 278.694 179.5 270.267 178.826 261.843C178.739 260.756 180.43 260.766 180.516 261.843C181.184 270.201 181.862 278.565 183.08 286.863C188.103 286.279 193.131 285.687 198.101 284.776C199.517 284.519 200.924 284.098 201.771 282.834C202.398 281.898 202.525 280.75 202.223 279.672Z" fill="black"/>
<path fill-rule="evenodd" clip-rule="evenodd" d="M176.592 92.0542C174.659 81.508 169.892 71.4733 162.571 63.6219C161.726 62.6896 160.967 61.2191 159.678 60.984C158.384 58.3462 155.917 56.4814 153.946 54.3512C149.642 50.0585 145.524 45.2615 139.973 42.5507C114.226 31.9574 89.4495 62.1627 84.1916 84.8789C78.9693 103.147 84.6731 128.348 107.305 129.088C110.506 133.324 114.924 136.256 119.463 138.875C125.66 142.845 132.421 144.456 139.591 142.247C146.731 144.114 154.133 138.123 158.425 132.87C161.817 128.801 164.141 123.835 167.244 119.623C170.907 119.531 174.072 116.429 174.562 112.792C177.983 106.503 177.828 98.9666 176.592 92.0542Z" fill="white"/>
<path fill-rule="evenodd" clip-rule="evenodd" d="M120.51 38.9614C125.195 37.8664 130.108 38.0934 134.749 39.2968C143.946 41.6823 151.514 47.8857 157.789 54.8021C163.91 61.5484 168.957 69.2822 172.644 77.6134L172.83 78.0372C175.438 83.976 177.704 90.1489 177.801 96.6882C177.885 102.316 177.316 108.179 175.499 113.533C173.88 118.301 170.901 123.107 165.778 124.25C162.823 131.763 157.043 138.269 149.761 141.75C145.245 143.91 140.286 144.874 135.293 144.394C130.198 143.906 125.44 141.457 121.459 138.334C121.349 138.249 121.49 138.083 121.603 138.147C126.396 140.911 132.065 141.899 137.556 141.717C146.578 141.419 154.85 136.547 159.603 128.889C160.786 126.983 161.84 124.973 162.68 122.881C162.631 122.709 162.603 122.535 162.603 122.365C162.603 121.644 162.944 121.094 163.454 120.738C163.691 119.999 163.9 119.251 164.075 118.495C164.471 116.783 164.692 115.046 164.825 113.295C164.933 111.872 164.873 110.363 165.016 108.904C164.964 107.735 164.892 106.567 164.786 105.402C164.445 101.647 163.756 97.9007 162.429 94.3614C161.084 90.7765 158.96 87.6151 156.281 84.894C150.534 79.0578 143.379 74.7965 137.791 68.8011L137.498 68.4839L137.478 68.4775C136.785 69.1887 136.092 69.8999 135.397 70.6096L132.222 73.849C125.743 80.4677 119.316 87.1506 113.679 94.5157C110.433 98.7569 107.517 103.203 105.005 107.917C103.815 110.15 102.736 112.438 101.761 114.773L101.377 115.702C100.92 116.814 100.427 118.059 100.153 119.315C100.968 120.125 101.565 121.314 102.224 122.232C102.973 123.274 103.835 124.266 104.723 125.191C105.622 126.128 106.607 127.026 107.653 127.796L107.779 127.886C108.979 128.739 110.357 129.327 110.537 130.95C110.616 131.654 109.986 132.221 109.403 132.44C107.807 133.04 106.154 131.317 105.091 130.326C104.428 129.708 103.818 129.042 103.253 128.339C102.702 128.418 102.148 128.457 101.6 128.392C100.751 128.291 99.9094 128.143 99.0818 127.925C92.2182 126.122 87.1378 120.422 84.3968 114.074C80.717 105.551 80.8025 95.7263 82.3323 86.7135C85.1276 70.243 94.1745 54.8613 107.835 45.1233C111.661 42.3961 115.904 40.038 120.51 38.9614ZM127.906 41.1648C119.081 40.6996 111.035 45.2521 104.58 50.919C92.8259 61.2371 85.5862 76.3444 84.1298 91.8582C83.3559 100.101 83.935 108.985 88.2313 116.268C89.8982 119.093 92.0451 121.555 94.5793 123.631C96.9672 125.588 99.6892 126.715 102.599 127.483C102.467 127.3 102.336 127.116 102.209 126.929C101.532 125.938 100.994 124.884 100.544 123.78C100.504 123.82 100.429 123.828 100.385 123.767C98.5483 121.246 99.1232 118.238 99.9987 115.465C100.917 112.557 102.08 109.728 103.408 106.983C108.248 96.98 115.447 88.2659 122.919 80.1341C126.735 75.9813 130.678 71.9488 134.607 67.9025C136.568 65.882 138.525 63.8555 140.457 61.8059C141.418 60.7855 142.374 59.7598 143.321 58.7258C144.257 57.7035 145.1 56.6208 146.265 55.8551C147.195 55.2449 148.122 56.4111 147.688 57.2785C147.02 58.6126 145.871 59.6703 144.854 60.7551L144.75 60.8675C143.759 61.9377 142.758 62.9993 141.752 64.0553C140.595 65.2697 139.428 66.4758 138.258 67.6789C139.256 67.5632 140.266 67.4967 141.258 67.346C142.605 67.1414 143.934 66.84 145.256 66.5122C146.649 66.1671 148.024 65.7264 149.352 65.1786C150.599 64.6642 151.778 63.8399 153.15 63.7592C154.311 63.6907 154.674 65.1293 154.031 65.8864C153.144 66.9296 151.549 67.3402 150.252 67.7276L150.069 67.7828C148.635 68.2208 147.167 68.5494 145.684 68.769C143.732 69.0581 141.476 69.1904 139.388 68.8945C143.558 71.3407 147.396 74.3723 151.222 77.3288L151.898 77.8497C155.636 80.7274 159.285 83.8296 161.951 87.7669C164.44 91.4424 165.942 95.7217 166.785 100.058C167.201 102.197 167.476 104.358 167.66 106.529C168.346 108.454 168.236 110.742 168.063 112.859L168.001 113.589L168.006 113.804C168.032 115.127 168.564 118.075 167.311 119.075C167.29 119.181 167.27 119.288 167.248 119.395C167.404 119.299 167.558 119.2 167.71 119.098C167.773 119.056 167.834 119.009 167.895 118.964L168.069 118.822C168.075 118.816 168.081 118.811 168.085 118.807C168.474 118.466 168.845 118.11 169.191 117.724C169.829 117.012 170.436 116.107 171.011 115.065C172.275 112.774 173.082 110.283 173.707 107.708C174.848 103.001 175.319 97.944 174.798 93.1159C174.726 92.4419 174.576 91.5969 174.345 90.73C173.796 88.6714 173.164 86.6347 172.456 84.6253C171.041 80.6057 169.306 76.706 167.283 72.9558C163.175 65.3388 157.889 58.2966 151.556 52.387C145.142 46.4022 136.824 41.6348 127.906 41.1648ZM115.461 65.5017C115.779 65.3073 116.106 65.6849 115.948 65.9897C115.184 67.4647 113.899 68.71 112.832 69.9739C111.727 71.2826 110.63 72.5984 109.535 73.9162C107.307 76.5993 105.132 79.3316 103.043 82.1248L102.491 82.8637C100.654 85.3303 98.8399 87.8359 97.2343 90.4567C96.3943 91.8277 95.654 93.2457 94.9817 94.7059C94.3418 96.0959 94.0467 97.7738 93.2776 99.0796C93.2293 99.162 93.0793 99.1552 93.0607 99.051C92.8097 97.6451 93.4298 95.9518 93.8728 94.6353C94.3995 93.0696 95.149 91.5783 95.9514 90.138C97.6251 87.1334 99.6305 84.3172 101.645 81.5349C103.691 78.7098 105.816 75.9424 108.044 73.2587C109.091 71.9981 110.161 70.7627 111.264 69.5517L111.678 69.0987C112.833 67.8458 113.997 66.3957 115.461 65.5017ZM110.11 61.1338C110.633 60.746 111.08 61.5386 110.746 61.9587C108.752 64.4683 106.483 66.7232 104.3 69.0637C102.204 71.3114 100.201 73.6432 98.3109 76.0668C94.4568 81.0088 91.3716 86.4316 88.7587 92.115C88.7095 92.2222 88.5544 92.1423 88.5776 92.0387C89.9617 85.8912 93.1974 80.3078 96.8817 75.263L97.0218 75.0717C100.748 69.9987 105.032 64.899 110.11 61.1338Z" fill="black"/>
<path fill-rule="evenodd" clip-rule="evenodd" d="M131.904 116.766C135.526 116.326 139.036 117.435 142.577 117.995C144.446 118.29 146.318 118.51 148.209 118.592C148.59 118.608 148.97 118.618 149.351 118.626C149.387 118.291 149.574 117.983 149.981 117.798C150.814 117.421 151.481 117.25 152.395 117.287C153.233 117.32 154.073 117.406 154.897 117.557C156.395 117.831 157.899 118.455 158.994 119.537C161.528 122.042 161.143 126.066 159.184 128.795C155.138 134.433 147.753 134.695 141.428 134.621L140.844 134.614C135.085 134.531 126.846 135.39 124.23 128.836C123.267 126.425 123.401 123.631 124.579 121.319C125.984 118.562 128.942 117.126 131.904 116.766ZM149.893 126.154L149.842 126.156C147.187 126.258 144.532 126.33 141.875 126.377C141.955 127.06 142.036 127.742 142.129 128.424C142.201 128.959 142.279 129.495 142.36 130.029C142.395 130.256 142.521 130.607 142.485 130.832L142.472 130.92C142.609 130.982 142.733 131.081 142.825 131.226C142.857 131.276 142.88 131.326 142.903 131.376C144.966 131.392 147.185 131.352 149.288 130.977L149.292 130.931C149.33 130.663 149.442 130.482 149.59 130.358C149.738 129.501 149.725 128.588 149.782 127.738C149.818 127.209 149.856 126.682 149.893 126.154ZM139.846 126.413C137.932 126.446 136.018 126.471 134.104 126.448L133.236 126.434C133.419 127.419 133.619 128.4 133.785 129.391C133.958 130.424 133.049 131.081 132.262 131.054C132.351 131.069 132.439 131.084 132.527 131.096C134.984 131.444 137.536 131.351 140.03 131.349C139.896 130.565 139.95 129.681 139.93 129.027L139.926 128.926C139.888 128.088 139.861 127.251 139.846 126.413ZM126.846 126.233C126.913 126.745 127.042 127.246 127.235 127.712C128.052 129.683 129.925 130.603 131.907 130.99C131.563 130.871 131.29 130.586 131.221 130.097C131.049 128.882 130.987 127.646 130.983 126.412C129.602 126.399 128.211 126.37 126.846 126.233ZM157.095 125.812C156.112 126.044 154.97 125.938 154.005 125.982C153.101 126.023 152.197 126.058 151.293 126.095C151.336 126.712 151.377 127.329 151.422 127.946C151.481 128.743 151.486 129.586 151.639 130.38C153.458 129.759 155.087 128.763 156.31 127.171C156.615 126.774 156.887 126.308 157.095 125.812ZM131.489 119.999C129.852 120.387 128.303 121.206 127.47 122.704C126.976 123.594 126.759 124.647 126.801 125.686C128.184 125.525 129.591 125.464 130.992 125.413C130.996 125.161 131.002 124.909 131.01 124.657L131.031 124.013C131.069 122.783 131.089 121.24 131.489 119.999ZM139.96 120.149L139.24 120.068C137.239 119.84 135.238 119.601 133.237 119.738C132.947 119.758 132.653 119.79 132.359 119.833C132.712 121.11 132.683 122.61 132.83 123.874C132.887 124.363 132.96 124.847 133.039 125.33L133.387 125.314C135.534 125.198 137.684 125.126 139.833 125.041C139.833 124.637 139.835 124.233 139.842 123.829L139.85 123.425C139.874 122.393 139.807 121.23 139.96 120.149ZM150.011 119.985C147.915 120.324 145.748 120.396 143.689 120.398C142.867 120.399 142.045 120.349 141.224 120.276C141.277 120.714 141.305 121.156 141.345 121.588C141.426 122.46 141.519 123.331 141.62 124.2L141.71 124.961C144.351 124.842 146.993 124.712 149.634 124.578L150.007 124.558L150.111 123.095C150.182 122.12 150.26 121.145 150.371 120.174L150.288 120.144C150.191 120.104 150.098 120.049 150.011 119.985ZM150.921 120.349C151.037 121.728 151.1 123.113 151.185 124.494L152.926 124.401C153.217 124.385 153.507 124.369 153.797 124.352C154.925 124.287 156.375 123.945 157.49 124.264C157.576 123.25 157.286 122.262 156.371 121.58C154.764 120.383 152.718 120.809 150.921 120.349ZM144.972 108.02C147.565 106.534 154.07 105.016 154.482 109.684C154.672 111.832 153.076 113.612 151.212 114.406L151.142 114.435C149.393 115.154 146.295 115.966 144.782 114.407C143.523 113.109 145.193 110.782 146.757 111.846C147.561 112.392 149.254 111.989 150.151 111.729L150.207 111.713C151.176 111.428 152.466 110.517 152.066 109.325C151.712 108.27 150.204 108.077 149.26 108.043C147.851 107.992 146.479 108.319 145.083 108.426C144.861 108.443 144.793 108.122 144.972 108.02ZM155.712 100.514C159.23 100.349 161.419 104.193 160.61 107.342C160.47 107.886 159.863 108.419 159.276 108.358L159.129 108.344C159.053 108.337 158.978 108.328 158.909 108.309C158.352 108.154 157.853 107.575 157.893 106.974L157.904 106.799C157.986 105.311 157.825 103.597 156.057 103.237C154.558 102.931 153.722 104.375 153.704 105.703C153.701 105.939 153.436 106.104 153.227 105.977C152.143 105.317 151.956 104.005 152.37 102.875C152.894 101.443 154.207 100.584 155.712 100.514ZM129.599 101.338C132.16 100.484 134.922 101.849 136.162 104.114C136.597 104.24 137.032 104.576 136.971 105.089C136.884 105.828 136.753 106.294 136.24 106.854C135.439 107.731 133.939 107.282 133.606 106.203L133.592 106.155C133.214 104.76 131.679 103.84 130.281 104.328C128.648 104.898 128.696 106.624 127.55 107.629C127.416 107.747 127.254 107.766 127.093 107.688C125.876 107.1 126.095 105.329 126.528 104.316C127.097 102.987 128.203 101.804 129.599 101.338ZM126.111 93.5592C128.186 91.4411 133.597 89.3914 135.017 93.3029C135.287 94.0479 134.711 95.0524 133.936 95.2069C132.666 95.4597 131.54 94.9083 130.279 95.0072C129.258 95.0877 128.193 95.429 127.376 96.0618C125.115 97.8143 124.618 100.779 123.042 103.009C122.966 103.118 122.817 103.072 122.803 102.944C122.444 99.6966 123.838 95.879 126.111 93.5592ZM153.173 91.4741C154.55 90.9875 156.11 91.0292 157.494 91.4607C158.888 91.8957 160.168 92.7217 161.155 93.8008C161.602 94.2907 162.016 94.8314 162.348 95.4069C162.525 95.7118 162.71 96.3419 162.911 96.717C163.995 97.3436 164.459 98.7713 163.488 99.787L163.444 99.8315L163.314 99.9604C162.792 100.477 162.005 100.701 161.292 100.495C159.698 100.033 159.504 98.7769 158.952 97.4432C158.587 96.5623 157.963 95.7829 157.205 95.2103C155.415 93.8577 152.48 93.4267 150.325 94.0642C150.21 94.0982 150.075 93.9519 150.157 93.8458C150.565 93.3166 150.801 92.8823 151.348 92.4554C151.903 92.0221 152.508 91.7091 153.173 91.4741Z" fill="black"/>
</svg>
