<svg width="240" height="324" viewBox="0 0 240 324" fill="none" xmlns="http://www.w3.org/2000/svg">
<path fill-rule="evenodd" clip-rule="evenodd" d="M49.1622 285.363C50.2762 287.056 52.4675 286.796 53.4083 285.485C64.1208 287.981 75.1031 286.997 85.9646 286.385C116.572 285.139 147.351 289.045 177.834 284.959C181.068 284.312 184.832 284.622 187.478 282.378C191.71 277.417 190.798 269.885 190.124 263.842C184.72 229.78 177.038 195.406 173.206 161.125C172.992 157.859 174.337 153.802 175.543 150.732C175.841 150.161 177.723 149.602 178.7 148.943C181.698 146.79 181.212 142.932 178.613 140.668C170.198 134.734 158.484 136.808 149.557 138.997C147.847 132.569 145.924 128.342 142.666 127.923C136.467 127.126 121.428 124.691 116.796 127.923C114.58 129.469 113.157 134.917 111.562 137.571C99.9281 137.365 76.3162 121.794 71.4619 139.328C67.518 139.6 63.6116 143.045 64.3661 147.178C59.2511 151.7 63.2854 158.48 63.2147 164.108C62.5422 176.049 56.0833 186.728 53.3962 198.263C47.254 220.636 40.3021 261.331 47.9202 283.169C47.7562 283.083 47.3981 283.212 47.6301 283.394C48.4927 283.637 48.6049 284.724 49.1622 285.363Z" fill="white"/>
<path fill-rule="evenodd" clip-rule="evenodd" d="M182.916 279.674C181.487 268.199 180.493 254.346 180.482 242.775C180.481 241.686 182.171 241.687 182.172 242.775C182.184 254.346 183.177 268.199 184.606 279.674C184.74 280.752 183.049 280.739 182.916 279.674ZM172.332 208.524C170.124 209.874 167.225 208.937 165.04 208.043C164.045 207.636 164.483 206.001 165.489 206.413C167.152 207.093 169.582 208.096 171.337 207.146C173.089 206.199 173.168 203.592 173.181 201.872C173.189 200.782 174.879 200.783 174.871 201.872C174.853 204.212 174.54 207.172 172.332 208.524ZM168.245 261.035C166.018 259.893 164.117 258.332 162.588 256.35C161.923 255.488 163.392 254.647 164.047 255.496C165.393 257.241 167.147 258.575 169.098 259.575C170.067 260.072 169.211 261.531 168.245 261.035ZM157.539 202.026C153.717 217.347 151.152 232.942 149.895 248.684C149.639 251.879 149.46 255.071 149.358 258.264C149.257 259.097 149.16 259.932 149.069 260.766C148.725 263.924 148.461 267.132 148.484 270.311C148.494 271.738 148.539 273.158 148.636 274.58C148.467 274.105 148.311 273.627 148.158 273.152C147.848 272.177 147.643 271.167 147.326 270.199C147.064 269.398 146.726 268.631 146.411 267.855V267.853C146.506 264.676 146.291 261.47 146.181 258.308C146.039 254.212 145.864 250.121 145.773 246.023C145.592 237.826 145.682 229.624 145.978 221.432C146.572 204.926 148.072 188.497 149.585 172.058C150.005 167.487 150.457 162.918 150.77 158.337C151.085 153.709 151.211 149.072 151.247 144.431C151.249 144.097 150.742 144.008 150.649 144.331C150.567 143.23 150.421 142.131 150.178 141.068C153.823 143.393 157.666 145.403 161.432 147.516C163.416 148.63 165.392 149.763 167.437 150.761C168.561 151.31 169.695 151.815 170.853 152.293C172.053 152.788 173.2 153.468 174.52 153.123C174.635 153.094 174.742 153.052 174.846 152.997C174.696 153.282 174.546 153.565 174.402 153.853C173.904 154.844 173.428 155.839 172.968 156.843C172.845 156.934 172.737 157.059 172.653 157.222C172.429 157.659 172.211 158.101 172 158.549C171.958 158.509 171.916 158.469 171.873 158.428C171.696 158.262 171.451 158.513 171.607 158.695C171.679 158.777 171.749 158.858 171.818 158.94C170.441 161.905 169.321 165.023 168.168 168.066C166.75 171.807 165.406 175.575 164.141 179.369C161.646 186.832 159.444 194.392 157.539 202.026ZM102.899 257.627C95.8549 261.4 89.2726 265.91 82.9418 270.775C82.0788 271.438 81.2379 269.968 82.0887 269.315C88.4195 264.45 95.002 259.94 102.046 256.167C103.005 255.653 103.858 257.113 102.899 257.627ZM79.1078 213.43C78.7417 213.402 78.3859 213.19 78.2929 212.809C77.7223 210.472 77.2755 207.926 77.8062 205.542C78.0428 204.479 79.6719 204.932 79.4359 205.992C79.0174 207.871 79.3499 209.903 79.7845 211.778C85.9279 212.047 91.989 209.841 97.8667 208.36C98.9236 208.094 99.37 209.725 98.316 209.991C92.0811 211.562 85.6319 213.913 79.1078 213.43ZM201.411 275.77C201.417 275.755 201.423 275.738 201.427 275.724C201.789 274.629 201.797 273.357 201.837 272.209C201.907 270.167 201.833 268.121 201.649 266.086C201.261 261.802 200.424 257.588 199.425 253.409C197.445 245.133 194.648 237.08 193.129 228.692C190.148 212.226 190.856 195.081 185.006 179.198C182.574 172.595 179.101 166.248 174.381 161.003C174.725 159.954 175.061 158.904 175.389 157.849C175.961 156.015 176.546 154.121 176.899 152.232C176.908 152.181 176.918 152.128 176.925 152.075C178.934 151.209 180.761 149.575 181.074 147.402C181.209 146.464 181.053 145.424 180.647 144.517C181.475 143.752 182.008 142.759 181.881 141.427C181.644 138.921 178.718 138.276 176.682 137.786C174.366 137.23 171.964 137.076 169.596 137.338C168.4 137.469 167.217 137.689 166.061 138.018C165.058 138.304 163.965 138.597 163.161 139.286C163.066 139.367 163.144 139.523 163.258 139.523C164.887 139.517 166.509 138.919 168.155 138.84C169.879 138.76 171.599 138.902 173.289 139.257C174.941 139.604 176.589 140.111 178.091 140.895C178.513 141.117 179.132 141.267 178.636 141.715C178.273 142.043 177.558 142.07 177.092 142.119C176.058 142.226 175.167 142.831 175.036 143.934C174.92 144.908 175.501 146.012 176.536 146.231C176.593 146.244 176.646 146.259 176.692 146.278C176.72 146.331 176.762 146.375 176.758 146.303C176.758 146.303 176.76 146.301 176.76 146.303C176.785 146.458 176.794 146.519 176.794 146.529C176.787 146.517 176.777 146.464 176.768 146.422C176.775 146.46 176.787 146.521 176.804 146.612C176.781 146.513 176.8 146.756 176.781 146.794C176.232 147.808 174.607 148.094 173.661 148.531C173.477 148.615 173.318 148.715 173.183 148.827C172.959 148.749 172.731 148.67 172.501 148.584C171.366 148.159 170.234 147.747 169.085 147.364C166.866 146.622 164.62 145.961 162.402 145.217C158.202 143.809 154.142 142.032 150.02 140.421C149.889 139.935 149.737 139.46 149.557 138.997C149.521 138.9 149.348 138.868 149.329 138.997C149.265 139.407 149.215 139.819 149.173 140.233C149.156 140.271 149.151 140.314 149.16 140.354C148.921 142.763 148.985 145.23 148.862 147.637C148.71 150.638 148.285 153.618 148.165 156.621V156.676C147.721 159.24 147.32 161.812 146.956 164.393C146.549 164.266 146.082 164.291 145.604 164.547C142.228 166.35 138.434 167.354 134.616 167.578C132.694 167.69 130.79 167.627 128.878 167.405C127.621 167.261 126.383 166.999 125.143 166.749C125.796 164.012 126.497 161.288 127.289 158.591C127.942 156.374 128.669 154.168 129.567 152.035C130.473 149.881 131.601 147.825 132.651 145.737C133.135 144.771 132.565 143.294 131.308 143.395C130.936 143.425 130.564 143.448 130.19 143.465C126.552 143.638 122.768 143.233 119.177 142.871C115.089 142.457 110.946 142.028 106.894 141.354C106.594 141.305 106.471 141.713 106.767 141.812C108.689 142.459 110.589 143.19 112.56 143.674C114.588 144.175 116.629 144.632 118.687 144.989C120.658 145.329 122.637 145.614 124.623 145.855C125.918 146.014 127.228 146.094 128.532 146.2C126.776 149.007 125.566 152.172 124.511 155.29C123.157 159.293 122.162 163.412 121.188 167.523C119.105 176.334 117.387 185.234 116.044 194.189C115.08 200.61 114.301 207.056 113.715 213.519C113.542 211.556 113.331 209.599 113.092 207.644C112.294 201.153 111.127 194.705 109.568 188.354C109.708 188.108 109.773 187.815 109.727 187.529C109.446 185.784 108.706 184.264 108.058 182.645C107.413 180.384 106.718 178.137 105.97 175.907C105.121 172.87 104.168 169.879 102.949 166.959C102.018 164.733 100.955 162.564 99.7718 160.462C98.3585 157.522 96.8056 154.646 95.1007 151.896C95.012 151.64 94.8683 151.401 94.6634 151.2C94.3528 150.71 94.038 150.226 93.7169 149.746C93.5078 149.433 92.9078 149.624 93.0662 150.021C93.1401 150.207 93.2141 150.393 93.2901 150.577C86.3458 148.84 79.5366 151.496 72.9218 153.458C71.2528 153.954 69.5669 154.402 67.8556 154.726C66.5099 154.979 64.9423 155.288 63.6007 155.009C62.7028 154.823 62.3056 154.415 62.743 153.455C63.1951 152.462 64.4289 151.809 65.5 151.37C65.9035 151.283 66.3007 151.128 66.6831 150.896C67.5747 150.355 67.9655 149.226 67.5451 148.265C67.1627 147.396 66.0472 146.648 65.0606 147.045C64.919 147.102 64.7796 147.157 64.6401 147.212C64.6254 147.191 64.6085 147.161 64.5937 147.119C64.4521 146.732 64.3909 147.195 64.4521 146.641C64.5535 145.737 65.5106 144.915 66.1655 144.397C67.7944 143.106 70.1479 142.15 72.25 142.639C72.4085 142.674 72.5669 142.719 72.7232 142.774C74.8887 143.524 75.943 140.405 74.2127 139.242C74.107 139.172 73.9739 139.084 73.8282 138.98C73.1077 138.479 72.0535 137.636 72.3409 136.875C72.6958 135.93 74.7894 135.387 75.5817 135.066C78.4465 133.903 81.5416 133.244 84.6303 133.109C87.738 132.973 90.8859 133.316 93.8838 134.155C95.3542 134.565 96.8648 135.188 98.2549 135.818C99.5035 136.383 102.22 137.129 102.394 138.71C102.432 139.058 102.928 139.177 103.036 138.796C103.887 135.761 100.583 133.802 98.4028 132.549C96.9725 131.724 95.35 131.211 93.7803 130.706C92.2761 130.22 90.7402 129.862 89.1725 129.647C85.8071 129.186 82.4014 129.245 79.0634 129.892C76.0232 130.482 72.6409 131.488 70.1838 133.445C68.6754 134.645 67.993 136.556 68.5993 138.42C68.6204 138.481 68.6416 138.545 68.6627 138.606C65.9479 139.092 63.3789 140.648 61.6613 142.816C60.25 144.598 59.5106 147.077 60.7739 149.15C60.7211 149.188 60.6683 149.228 60.6176 149.271C59.4134 150.234 58.5176 151.634 58.2514 153.164C57.7296 156.182 59.5528 158.293 62.1028 159.101C61.4711 159.718 60.8648 160.373 60.2711 161.028C58.9423 162.497 57.6725 164.097 56.5528 165.729C54.2838 169.034 52.3444 172.633 50.6479 176.26C47.1599 183.708 44.9606 191.725 43.7944 199.853C43.207 203.949 42.8141 208.066 42.6641 212.2C42.4908 216.913 42.6662 221.629 42.5754 226.344C42.4866 230.875 41.9859 235.297 40.9739 239.714C40.0042 243.939 38.7113 248.079 37.5408 252.249C36.2204 256.945 34.7669 261.62 34.0697 266.462C33.7169 268.926 33.4634 271.397 33.6599 273.889C33.8585 276.427 34.7796 278.598 35.6289 280.959C35.8444 281.561 36.5014 281.804 37.0275 281.675C37.1458 282.806 37.5725 283.909 38.2085 284.865C39.5585 286.889 41.6373 288.181 44.0183 288.65C46.7014 289.176 49.4669 289.051 52.1838 288.954C55.131 288.849 58.0803 288.753 61.0275 288.631C64.113 288.503 67.1984 288.372 70.2839 288.241C70.1819 285.077 70.0602 281.914 69.9227 278.752C69.1788 261.657 68.0073 244.552 67.9763 227.435C67.9165 227.4 67.8577 227.358 67.8016 227.304C66.4125 225.961 64.7071 225.078 63.1049 224.027C62.1981 223.432 63.0457 221.969 63.958 222.567C65.3088 223.454 66.7165 224.241 67.9824 225.234C67.9898 223.452 68.0054 221.671 68.0407 219.889C68.0623 218.8 69.7524 218.8 69.7309 219.889C69.6248 225.259 69.6603 230.631 69.7818 236.001C70.1749 253.403 71.4109 270.773 71.9737 288.168C80.2554 287.814 88.5375 287.458 96.8204 287.155C103.558 286.91 110.295 286.665 117.032 286.42C118.446 286.37 119.24 285.359 119.413 284.038C119.73 281.607 119.135 279.095 117.787 277.051C117.647 276.84 117.482 276.652 117.299 276.491C117.33 275.035 117.389 273.576 117.307 272.12C117.185 269.897 117.001 267.673 116.84 265.452C116.515 261.003 116.263 256.546 116.164 252.086C115.961 243.167 116.109 234.24 116.614 225.334C117.626 207.54 119.982 189.861 123.837 172.456C124.118 171.188 124.401 169.92 124.695 168.654C127.693 170.211 131.339 170.771 134.616 170.792C138.723 170.818 142.739 169.873 146.449 168.155C146.424 168.347 146.399 168.537 146.375 168.73C145.34 176.972 144.468 185.232 143.707 193.502C142.19 209.99 141.261 226.545 141.389 243.106C141.425 247.694 141.601 252.268 141.818 256.85C142.04 261.51 142.38 266.435 143.677 270.93C143.821 271.427 144.14 271.712 144.508 271.816C144.527 272.471 144.569 273.128 144.616 273.775C144.766 275.878 145.194 280.247 146.111 282.153C147.005 284.013 148.494 285.488 150.394 286.3C152.806 287.329 155.415 287.033 157.963 286.868C169.042 286.145 180.113 285.177 191.185 284.328C192.727 284.209 194.27 284.093 195.81 283.973C197.181 283.867 198.599 283.774 199.816 283.062C201.199 282.252 202.279 278.277 201.801 276.632C201.715 276.332 201.584 276.036 201.411 275.77Z" fill="black"/>
<path fill-rule="evenodd" clip-rule="evenodd" d="M167.024 97.8957C166.94 93.161 166.847 88.3317 166.143 83.6431C165.456 79.0593 163.563 74.916 160.311 71.5875C153.404 64.5172 143.392 62.7902 134.073 61.2076L118.139 58.5017C113.278 57.6764 108.092 56.3571 103.181 57.5276C100.761 58.1044 98.7058 59.4443 96.8274 61.0297C95.0169 62.5577 93.0702 64.1987 91.8434 66.2545C90.6145 68.3132 90.1917 70.7199 89.7922 73.0483C89.3416 75.6735 88.9915 78.3192 88.7429 80.9712C88.2445 86.2846 88.1764 91.6378 88.5379 96.9622C88.7131 99.5447 88.9917 102.12 89.3475 104.683C89.5239 105.955 89.7233 107.223 89.9486 108.486C90.0149 108.859 90.0654 109.272 90.1334 109.688C89.6308 111.118 89.3452 112.599 89.3682 114.074C89.436 118.418 93.1009 121.152 96.7955 122.621C98.9378 123.472 101.177 124.05 103.282 125.001C105.497 126.002 107.004 127.623 108.518 129.473C111.405 133.002 114.663 136.173 118.384 138.818C126.272 144.428 136.264 147.081 145.835 145.067C148.131 144.584 150.448 143.834 152.512 142.703C154.692 141.51 156.331 139.78 157.707 137.735C160.262 133.939 162.095 129.665 163.481 125.315C164.895 120.878 165.899 116.433 166.446 111.806C166.992 107.194 167.107 102.536 167.024 97.8957Z" fill="white"/>
<path fill-rule="evenodd" clip-rule="evenodd" d="M116.178 42.0087C122.772 41.1014 131.873 44.0503 135.156 49.9965C150.834 46.2991 170.607 46.178 183.528 58.4864C197.011 73.0869 180.076 92.3378 168.846 96.678C169.664 100.653 168.389 126.117 159.369 137.476C152.21 147.1 135.54 151.542 127.826 140.046L127.766 139.952C126.939 138.624 127.651 138.667 128.499 139.654C136.053 146.299 146.324 146.413 154.238 139.4C169.07 126.582 167.541 95.1517 160.483 76.969C140.385 74.7608 118.867 80.8547 104.985 95.9893L105.924 101.642C106.084 102.606 106.266 103.568 106.404 104.534C106.493 105.154 106.503 105.769 106.074 106.271C104.658 107.926 102.271 105.439 100.308 104.45C99.7278 104.368 99.147 104.337 98.5775 104.377C89.1427 105.593 91.0016 123.902 101.371 120.693C102.242 120.15 102.991 120.315 103.329 121.103C105.8 123.368 107.43 127.407 111.537 131.298C112.985 132.757 114.304 133.978 115.934 135.149C116.891 136.117 119.779 137.105 118.864 138.762C117.132 142.533 106.921 130.688 105.116 127.412C99.4599 129.646 93.1916 128.887 87.33 128.341C56.4068 126.733 60.5349 94.1237 85.882 73.5358C90.6532 70.0219 95.9174 67.1554 101.389 64.9495C102.136 64.6483 101.81 63.4212 101.052 63.7266C97.4317 65.1864 93.9021 66.9239 90.5375 68.9349L90.5324 67.7327C90.5274 65.7077 90.5592 63.5994 90.9108 61.7492C91.0865 60.4672 91.3821 59.0979 91.8372 58.0677C92.3998 54.9095 101.213 44.0689 116.178 42.0087ZM98.1645 108.58C98.642 108.127 99.5333 108.668 99.9584 108.654C101.045 108.803 102.078 109.262 102.883 109.829C103.415 110.127 103.788 110.407 104.099 110.664L104.108 110.662C104.105 110.662 104.102 110.664 104.1 110.665L104.129 110.685C104.583 111.007 106.243 112.822 105.194 112.334C105.116 112.233 105.036 112.135 104.955 112.039C104.946 112.052 104.934 112.065 104.92 112.078L104.979 112.165C105.87 113.506 104.331 112.093 104.094 111.718C104.083 111.727 104.071 111.733 104.058 111.74L104.366 112.115C104.409 112.168 104.443 112.211 104.471 112.247L104.537 112.31C105.567 113.323 105.599 114.235 104.402 112.737C104.449 112.807 104.487 112.882 104.492 112.949L104.563 113.039C105.503 114.251 104.739 113.821 104.271 113.303L104.232 113.258L104.24 113.271C104.675 113.94 103.813 113.47 103.66 113.112L103.654 113.096C103.488 112.96 103.386 112.808 103.351 112.77L103.344 112.763C102.536 111.935 101.364 111.234 100.369 110.915C100.225 110.888 100.079 110.866 99.9311 110.85C99.3326 110.717 98.7275 110.625 98.1161 110.576C98.0413 110.567 97.9655 110.512 97.9089 110.441C96.9843 110.41 97.2697 110.031 97.6533 109.96L97.66 109.959L97.5839 109.953C96.9906 109.895 96.5854 109.682 97.1853 109.551L97.2613 109.536C97.2521 109.521 97.2438 109.507 97.2358 109.492C96.722 109.436 97.0573 108.936 97.3425 109.057C97.2225 108.665 97.7709 108.86 97.8394 108.802C97.8916 108.744 97.9564 108.693 97.9938 108.69C98.159 108.574 98.079 108.584 98.1645 108.58ZM101.309 102.226L101.188 102.296C101.091 102.353 100.991 102.391 100.89 102.413C101.032 102.474 101.173 102.539 101.311 102.609C101.309 102.524 101.308 102.438 101.308 102.353L101.309 102.226Z" fill="black"/>
<path fill-rule="evenodd" clip-rule="evenodd" d="M143.152 128.274C141.732 127.695 140.465 126.728 139.538 125.493C139.216 125.063 139.133 124.61 139.2 124.195C139.276 123.729 139.552 123.306 139.928 123.023C140.305 122.739 140.777 122.598 141.233 122.67C141.63 122.732 142.024 122.949 142.337 123.399L142.402 123.489C142.953 124.235 143.67 124.846 144.488 125.241C145.276 125.621 146.158 125.798 147.07 125.695C148.808 125.499 150.005 124.559 151.278 123.282C151.436 123.121 151.594 122.955 151.752 122.786C151.852 122.633 151.991 122.534 152.146 122.483C152.317 122.425 152.511 122.429 152.689 122.491C152.86 122.55 153.013 122.664 153.116 122.815C153.213 122.958 153.269 123.135 153.251 123.339C153.134 124.661 152.443 125.842 151.461 126.769C150.37 127.799 148.924 128.511 147.563 128.761C146.064 129.036 144.536 128.839 143.152 128.274ZM148.271 107.866C149.866 108.836 152.297 111.098 150.581 113.503C148.56 115.624 145.652 113.193 144.219 112.093C142.89 111.241 141.396 113.433 142.629 114.428C152.987 122.099 157.19 108.12 149.078 106.726C148.184 106.572 147.853 107.566 148.271 107.866ZM129.711 98.9429C129.887 96.7541 133.219 96.257 133.551 98.423C133.847 100.363 133.498 102.145 132.624 103.892C131.79 105.561 129.692 104.783 129.533 103.263C129.32 101.226 129.601 100.304 129.711 98.9429ZM155.076 97.9738C155.541 97.3652 156.212 96.9496 157.015 97.1845C159.526 97.9185 158.786 101.485 157.904 103.22C157.425 104.163 155.876 104.402 155.176 103.572C154.036 102.219 153.489 99.5156 154.94 98.1825C154.979 98.1136 155.023 98.044 155.076 97.9738ZM132.589 89.3654L132.986 89.2959C134.213 89.0836 135.738 88.8796 136.606 89.8665C137.067 90.3898 137.225 91.3624 136.606 91.8633C135.518 92.7446 134.314 92.4031 133.01 92.4777C131.935 92.5394 130.902 92.7174 129.867 93.0135C127.595 93.663 125.744 94.8486 123.804 96.1506C123.55 96.3213 123.29 95.9956 123.411 95.7574C124.531 93.563 126.701 91.7604 128.875 90.6616C130.036 90.0751 131.305 89.5885 132.589 89.3654ZM152.787 88.3823L153.091 88.4445C156.395 89.1353 160.687 90.5153 162.251 93.7615C162.311 94.2205 162.248 94.3189 162.197 94.3832L162.18 94.4046C162.137 94.4595 162.104 94.5351 161.905 94.5976C161.85 94.5844 161.794 94.5705 161.737 94.5557C161.02 94.3677 160.453 94.1087 159.904 93.84L159.308 93.5465C158.617 93.2076 157.92 92.881 157.181 92.6399C155.605 92.1254 153.983 91.7631 152.337 91.5696C151.98 91.5277 151.636 91.4072 151.365 91.2006C151.108 91.0046 150.911 90.7332 150.821 90.3724C150.705 89.9056 150.739 89.5521 150.989 89.1309C151.177 88.8146 151.447 88.5953 151.756 88.4694C152.071 88.3411 152.43 88.3108 152.787 88.3823Z" fill="black"/>
<path fill-rule="evenodd" clip-rule="evenodd" d="M169.071 112.228C168.37 111.288 167.112 110.054 165.839 110.12C165.676 110.129 165.615 110.305 165.713 110.424C166.129 110.933 166.698 111.295 167.115 111.814C167.609 112.429 167.965 113.17 168.197 113.92C168.534 115.009 168.627 116.241 168.327 117.349C167.798 119.301 166.125 120.732 164.3 121.462C162.494 122.186 160.32 122.433 158.612 121.373C156.091 119.809 153.952 117.554 150.783 117.509C150.041 117.499 149.519 117.838 149.208 118.323C148.895 117.856 148.379 117.525 147.656 117.517C144.103 117.477 141.452 119.923 138.47 121.449C136.454 122.48 133.847 122.16 131.768 121.478C129.806 120.836 127.677 119.546 126.938 117.51C126.529 116.385 126.621 115.071 127.04 113.963C127.316 113.234 127.741 112.529 128.268 111.956C128.814 111.362 129.532 110.988 130.092 110.425C130.206 110.309 130.116 110.13 129.965 110.12C127.589 109.959 125.444 112.797 124.996 114.856C124.554 116.884 125.213 118.906 126.546 120.453C129.257 123.599 134.277 124.636 138.184 123.712C141.347 122.964 144.35 121.241 147.656 121.488C148.381 121.543 148.901 121.241 149.215 120.782C149.529 121.254 150.053 121.562 150.783 121.492C153.864 121.193 156.614 123.376 159.605 123.909C161.986 124.333 164.558 123.761 166.598 122.478C168.731 121.136 170.232 118.984 170.331 116.419C170.388 114.943 169.955 113.416 169.071 112.228Z" fill="black"/>
</svg>
