<svg width="247" height="324" viewBox="0 0 247 324" fill="none" xmlns="http://www.w3.org/2000/svg">
<path fill-rule="evenodd" clip-rule="evenodd" d="M241.496 179.325C238.48 179.621 235.463 179.917 232.446 180.213C217.998 181.317 203.555 183.624 189.218 185.008C188.861 184.427 188.162 184.522 187.738 184.926C186.307 184.801 184.704 183.707 183.408 184.845C183.366 184.839 183.324 184.832 183.281 184.828C180.974 180.397 179.379 175.672 177.831 170.94C176.843 168.031 175.513 165.214 173.057 163.261C168.864 160.35 159.258 154.446 154.335 154.694C154.254 153.813 153.843 152.904 153.168 152.317C154.655 149.781 148.71 148.126 148.29 148.42C148.559 139.947 144.575 132.589 135.791 130.902C127.921 129.262 116.728 128.986 112.495 137.214C112.03 137.161 107.274 137.137 106.814 137.188C106.098 136.282 98.2413 144.871 101.462 147.862C72.6716 160.602 56.3015 159.082 48.3329 194.899C47.2556 198.264 47.1772 201.946 46.0396 205.236C41.9925 214.69 38.7099 224.756 37.893 235.043C35.9198 235.549 35.6929 239.029 37.9784 239.533C38.8514 239.725 39.5814 239.988 40.218 240.487C39.7204 248.917 41.7584 268.174 43.0425 268.114C45.6609 276.451 57.3401 278.803 65.6086 275.874C64.1832 278.557 65.6086 280.243 65.6086 281.677C95.3608 282.803 127.892 282.154 157.636 283.698C161.44 283.644 165.442 284.633 169.195 284.064C171.484 283.515 171.487 279.915 169.166 279.47L179.31 277.266C179.083 277.181 183.491 274.248 186.822 268.767C189.923 262.635 187.813 255.234 189.218 248.565C200.192 247.667 211.348 247.283 222.202 245.424C223.682 249.854 230.088 244.556 232.124 242.425C232.122 242.422 232.119 242.418 232.117 242.415C233.102 242.145 233.892 241.221 233.919 240.127C234.61 239.139 234.755 237.747 234.092 236.792C237.13 219.257 241.761 201.353 243.435 183.653C244.027 183.522 244.584 183.263 245.056 182.863L245.018 182.824C245.819 181.932 245.974 180.391 244.64 179.632C243.563 179.02 242.665 179.21 241.496 179.325Z" fill="white"/>
<path fill-rule="evenodd" clip-rule="evenodd" d="M113.043 135.303C113.94 133.049 116.97 133.925 116.632 136.293C116.43 137.711 115.654 139.209 114.956 140.452C114.388 141.463 113.741 142.451 112.862 143.209C114.426 144.668 116.048 146.074 117.712 147.409C119.528 148.866 121.437 150.208 123.411 151.442C125.141 152.524 126.95 153.483 128.581 154.717C130.098 155.865 131.479 157.246 132.183 159.048C132.931 160.967 132.606 162.949 132.054 164.867L131.991 165.084C131.428 166.984 130.452 169.274 131.805 171.064C132.493 171.976 133.494 172.621 134.359 173.35C135.127 173.997 135.848 174.701 136.509 175.458C137.951 177.107 139.124 178.962 139.864 181.03L139.93 181.218C140.564 183.048 141.028 185.29 140.171 187.087C139.925 187.602 139.132 187.434 138.994 186.933C138.683 185.797 138.699 184.607 138.438 183.454C138.166 182.256 137.714 181.119 137.123 180.042C135.981 177.96 134.434 176.182 132.606 174.678L132.058 174.233C130.632 173.062 129.322 171.82 129.033 169.883C128.723 167.81 129.553 165.835 130.087 163.873C130.459 162.505 130.58 161.194 130.178 159.959C129.687 160.761 129.017 161.522 128.487 162.201C127.431 163.554 126.366 164.898 125.303 166.246C124.213 167.627 123.15 169.03 122.138 170.47C121.685 171.114 121.237 171.761 120.791 172.41C120.455 172.897 119.987 173.384 119.621 173.881C119.71 174.147 119.703 174.454 119.542 174.671C117.602 177.294 114.841 171.821 114.121 170.439C112.655 167.623 111.564 164.632 110.093 161.816C108.568 158.898 106.833 156.057 104.898 153.393C103.728 151.782 102.416 150.268 101.346 148.605C98.8238 150.893 95.5052 152.426 92.457 153.817C89.1079 155.345 85.6285 156.593 82.1947 157.918L81.1804 158.312C75.2639 160.622 69.2029 163.16 64.2851 167.263C58.5063 172.085 55.0876 178.805 52.5424 185.764C49.6126 193.775 47.1887 202.002 44.9292 210.224C43.7729 214.431 42.6758 218.657 41.6444 222.897C40.7355 226.632 39.9822 230.404 38.93 234.1C41.0638 234.025 43.4974 234.851 45.3192 235.09C53.6218 236.177 61.8126 237.91 69.6513 240.911C70.6195 241.281 70.8997 242.249 70.6888 243.033C71.2472 242.875 71.8052 242.715 72.3636 242.559C71.7518 241.621 72.0438 239.944 72.0919 238.905L72.0948 238.834C72.1443 237.449 72.2945 236.062 72.3919 234.68C72.5773 232.044 72.8188 229.428 73.1398 226.808L73.2217 226.153C73.5855 223.302 73.8545 220.435 74.2514 217.589L74.2984 217.263C74.108 216.535 73.8864 215.816 73.6538 215.1C73.0339 213.193 72.1591 211.397 71.3924 209.55C71.3019 209.332 71.6117 209.207 71.7564 209.338C73.0548 210.506 74.0862 211.989 74.9148 213.539C74.9292 213.466 74.9419 213.393 74.9569 213.32L75.0514 212.854C75.2846 211.719 75.5682 210.524 76.2644 209.603C76.3386 209.505 76.4852 209.485 76.5553 209.603C77.2217 210.731 77.2962 212.16 77.3987 213.443C77.5147 214.895 77.5293 216.366 77.5088 217.822C77.4688 220.667 77.2684 223.52 77.1086 226.361C76.9519 229.153 76.6442 231.909 76.2477 234.673L76.1723 235.191C75.9784 236.507 75.8197 237.839 75.564 239.146L75.4918 239.501C75.3551 240.149 75.271 241.063 74.9989 241.822C81.9999 239.869 89.0117 237.96 96.0367 236.084C101.114 234.729 106.197 233.393 111.277 232.05C111.545 231.566 111.879 231.115 112.296 230.711C113.668 229.382 115.488 228.788 117.156 229.812C117.292 229.895 117.303 230.108 117.156 230.189C116.836 230.363 116.516 230.543 116.201 230.729L119.252 229.903C121.532 229.285 123.84 228.512 126.174 228.081C130.472 225.959 135.096 224.423 139.624 222.905L140.158 222.724C142.476 221.933 144.874 221.048 147.27 220.61C149.024 220.289 151.082 220.676 151.788 222.473C152.68 223.062 153.52 223.754 154.331 224.434C154.917 224.926 155.479 225.448 156.05 225.957L156.155 226.05C156.622 226.455 156.992 226.727 157.107 227.372C157.166 227.705 156.954 228.156 156.544 228.112C155.286 227.977 154.264 226.519 153.411 225.649C152.753 224.976 152.089 224.28 151.487 223.54C151.137 223.731 150.656 223.697 150.433 223.274C149.276 221.083 146.107 222.601 144.354 223.121L141.842 223.865C140.586 224.237 139.33 224.611 138.077 224.992C134.633 226.039 131.205 227.21 127.729 228.171C128.04 228.513 127.997 229.121 127.407 229.352C124.686 230.42 121.701 230.973 118.875 231.705C117.09 232.168 115.306 232.634 113.524 233.103C113.218 233.598 112.998 234.159 112.905 234.811C112.565 237.21 113.221 239.978 113.861 242.298L113.957 242.644C114.482 244.51 115.255 246.797 116.864 247.975C117.257 248.262 117.757 248.462 118.261 248.507C121.41 246.885 124.56 245.264 127.711 243.645C128.294 243.345 128.834 243.751 128.965 244.234C130.076 244.052 131.184 243.764 132.194 243.421C133.89 242.845 135.215 241.746 136.805 240.986C139.883 239.515 143.025 241.321 145.781 242.695L146.416 243.007C147.651 243.607 150.222 244.759 150.815 243.119C151.388 241.532 149.575 239.836 148.404 239.122C147.009 238.27 145.384 237.815 143.806 237.435C142.906 237.218 141.994 237.041 141.077 236.912C140.037 236.766 138.962 236.788 137.96 236.45C137.463 236.283 137.386 235.492 137.96 235.361C139.502 235.01 141.343 235.393 142.952 235.784L143.793 235.992C145.414 236.39 147.05 236.889 148.527 237.683C149.6 238.26 150.734 239.137 151.474 240.211C152.117 239.614 152.917 239.634 153.75 239.855L154.203 239.981C154.95 240.188 155.555 240.331 156.282 240.187C156.379 239.658 156.478 239.129 156.583 238.6C157.619 233.398 158.755 228.215 160.009 223.061C162.171 214.17 164.672 205.376 167.493 196.673L167.776 195.803C168.427 193.812 168.95 191.643 169.999 189.815C170.991 188.085 172.58 187.089 174.468 186.562C176.611 185.963 178.862 185.65 181.048 185.246C181.535 185.156 182.024 185.07 182.512 184.981C182.1 184.236 181.792 183.391 181.515 182.742L181.466 182.629C180.87 181.271 180.335 179.888 179.819 178.497L179.432 177.452C178.499 174.934 177.536 172.458 176.224 170.104C174.843 167.626 173.011 165.6 170.728 163.923C166.072 160.505 160.46 158.761 155.944 155.107C155.759 154.958 155.996 154.702 156.184 154.796C159.233 156.329 162.525 157.371 165.697 158.619L166.322 158.866C168.829 159.86 171.375 160.942 173.544 162.552C175.963 164.347 177.869 166.576 179.301 169.226C180.712 171.839 181.615 174.763 182.61 177.554L182.877 178.297C183.278 179.412 183.693 180.524 184.168 181.609C184.546 182.471 185.25 183.454 185.57 184.438C186.446 184.286 187.321 184.134 188.198 183.987C207.184 180.816 226.382 178.953 245.623 178.408C246.375 178.387 246.765 179.105 246.654 179.762C244.807 190.685 243.166 201.645 241.366 212.576C240.58 217.347 239.779 222.114 238.958 226.879C238.543 229.293 238.062 231.698 237.669 234.115C237.351 236.068 237.12 238.036 236.575 239.943C236.085 241.653 235.335 243.302 234.101 244.606C232.772 246.013 230.917 246.694 229.049 247.015C224.308 247.831 219.445 248.165 214.666 248.709L189.219 251.605C189.591 254.986 189.619 258.315 189.448 261.735L189.351 263.603C189.271 265.105 189.176 266.609 188.961 268.096C188.69 269.96 187.838 271.539 186.582 272.932C185.428 274.211 184.027 275.303 182.664 276.348C181.25 277.434 179.788 278.482 178.125 279.154L177.909 279.239C176.449 279.809 173.712 280.692 171.718 280.369C171.978 281.676 172.483 283.081 172.036 284.374C171.828 284.975 171.043 285.274 170.562 284.763C169.61 283.751 169.535 282.413 169.31 281.092C169.075 279.718 168.873 278.338 168.693 276.956C168.345 274.282 168.075 271.583 167.992 268.887C167.907 266.118 167.94 263.345 168.089 260.579C168.166 259.158 168.261 257.739 168.441 256.327C168.518 255.725 168.596 255.123 168.686 254.523C168.719 254.304 168.755 254.086 168.794 253.868L166.51 254.126C163.008 254.517 159.504 254.87 155.978 254.925C155.56 254.932 155.239 254.741 155.029 254.464C154.805 254.829 154.415 255.09 153.857 255.088C148.932 255.069 144.345 253.458 139.866 251.559C137.608 250.602 135.385 249.565 133.123 248.616C131.013 247.73 128.756 247.098 126.696 246.1L121.283 248.94C121.244 249.08 121.193 249.212 121.139 249.323C120.786 250.042 120.091 250.433 119.382 250.727C118.701 251.009 117.995 251.097 117.308 251.026C113.203 253.178 109.097 255.328 104.988 257.473L100.879 259.616C92.6909 263.881 84.5353 268.215 76.2959 272.38L75.6893 272.685C72.8434 274.113 69.7874 275.56 66.6291 276.64C66.5729 277.44 66.6084 278.217 66.6754 279.064L66.6915 279.248C66.7857 280.249 66.9876 281.502 66.1855 282.214C65.7682 282.584 65.0229 282.586 64.7391 282.028C64.2243 281.015 64.6865 279.419 64.8496 278.319C64.9075 277.927 64.9781 277.525 65.0824 277.135C61.4617 278.213 57.7314 278.736 54.0469 278.131C50.4595 277.542 47.6812 275.281 45.4413 272.515C43.0774 269.597 41.3976 266.197 40.4964 262.551C39.4707 258.403 39.4037 254.118 39.4278 249.869C39.4534 245.344 39.6207 240.797 40.1708 236.303C39.5681 236.161 38.8996 236.039 38.2905 236.081C37.9888 236.564 37.4036 236.767 36.8748 236.704C35.7249 237.973 38.6417 239.27 39.5738 239.594C39.8974 239.707 39.8628 240.233 39.4895 240.217L39.2543 240.206C37.814 240.129 36.326 239.883 35.4792 238.544C34.8006 237.471 35.0045 236.2 35.8134 235.324C36.3477 230.271 37.625 225.349 38.8138 220.419C39.9805 215.58 41.2779 210.773 42.653 205.989L43.2695 203.848C45.4346 196.348 47.6977 188.787 50.6843 181.584C52.1757 177.988 53.8937 174.458 56.2225 171.322C58.3933 168.399 60.9562 165.897 63.9021 163.761C69.394 159.778 75.8382 157.371 82.1699 155.078L82.4533 154.976C85.7345 153.788 89.0076 152.587 92.2514 151.3C95.1203 150.163 97.8686 148.72 100.724 147.565C100.631 147.397 100.542 147.227 100.455 147.054L100.403 147.099C100.394 147.106 100.384 147.113 100.375 147.119C100.088 147.319 99.6648 147.221 99.4282 146.997C98.7601 146.367 98.9863 145.667 99.4323 145.012L99.4903 144.929C100.036 144.165 100.522 143.357 101.026 142.564L101.341 142.069C102.186 140.746 103.074 139.413 104.201 138.32C104.723 137.813 105.294 137.434 105.899 137.151C105.848 137.042 106.301 136.818 106.43 136.93C108.348 136.228 110.554 136.375 112.645 136.569M187.988 251.745L185.322 252.048C182.388 252.382 179.454 252.705 176.519 253.024L170.145 253.717C170.129 254.081 170.084 254.436 170.076 254.711C170.035 256.126 170.004 257.542 169.974 258.958C169.915 261.796 169.98 264.637 170.167 267.47C170.348 270.214 170.586 272.959 170.957 275.685L171.033 276.23L171.077 276.517C171.379 276.546 171.676 276.69 171.923 276.985C172.462 277.629 174.414 277.003 175.177 276.732C176.431 276.285 177.611 275.531 178.701 274.775C179.765 274.036 180.723 273.175 181.644 272.268L182.397 271.523C183.146 270.778 183.896 269.985 184.356 269.048C184.978 267.777 185.059 266.217 185.241 264.833C185.466 263.131 185.734 261.429 186.016 259.735M110.589 233.877L110.312 233.949C100.266 236.62 90.2352 239.369 80.1584 241.922C75.1716 243.185 70.1612 244.356 65.1683 245.596L64.3599 245.798C60.4211 246.794 56.4349 247.992 53.4186 250.85C53.3073 250.956 53.1457 250.794 53.2505 250.682C56.5012 247.22 61.1246 245.755 65.5638 244.484C66.3843 244.25 67.206 244.02 68.0267 243.787C61.9896 241.634 55.8571 239.76 49.5831 238.424C47.9675 238.08 46.3331 237.828 44.7189 237.483C43.593 237.242 42.4936 236.893 41.3796 236.604L40.5034 236.384L40.4918 239.154C40.4772 243.078 40.4842 246.998 40.6843 250.921L40.7222 251.648C40.9556 256.014 41.32 260.471 42.8688 264.587C44.1273 267.933 46.1333 271.084 48.7566 273.521C50.084 274.753 51.5111 275.713 53.2752 276.187C54.9131 276.627 56.6293 276.678 58.3131 276.561C66.3896 275.997 73.5791 271.608 80.5948 267.974C92.0703 262.031 103.547 256.09 115.034 250.169C114.723 249.956 114.431 249.712 114.165 249.437C112.625 247.845 111.812 245.667 111.278 243.557C110.71 241.311 110.371 238.904 110.331 236.585M125.205 252.463C125.307 252.409 125.424 252.477 125.429 252.592C125.464 253.469 124.979 254.335 124.617 255.125L124.579 255.21C124.139 256.189 123.657 257.156 123.158 258.107C122.162 260.007 121.127 261.887 120.047 263.74C117.874 267.469 115.46 271.04 112.606 274.286C111.961 275.02 110.901 274.079 111.315 273.29C113.309 269.483 115.634 265.889 118.027 262.327C119.225 260.543 120.423 258.757 121.633 256.982C122.137 256.241 122.649 255.502 123.174 254.775L123.49 254.34M244.35 180.588C234.269 180.893 224.2 181.55 214.167 182.581C204.836 183.539 195.539 184.815 186.295 186.406C184.364 186.738 182.436 187.084 180.51 187.443L179.355 187.661C177.428 188.026 175.075 188.177 173.36 189.206C171.552 190.291 171.063 192.56 170.461 194.43C169.754 196.63 169.065 198.836 168.394 201.047C165.73 209.827 163.297 218.684 161.126 227.598C160.049 232.023 159.093 236.473 158.086 240.914C157.191 244.86 156.203 248.762 155.172 252.668C155.299 252.569 155.455 252.494 155.643 252.454C160.766 251.363 165.995 250.889 171.194 250.287L171.697 250.228C177.076 249.596 182.455 248.967 187.837 248.362L223.469 244.353C225.57 244.117 227.822 244.085 229.867 243.521C233.344 242.561 234.159 238.673 234.742 235.576L234.76 235.482C236.518 226.125 237.918 216.686 239.559 207.306M156.001 241.791C154.617 241.699 152.724 240.432 151.675 240.523C152.226 241.448 152.474 242.502 152.157 243.629C151.273 246.764 147.276 245.142 145.351 244.184C143.773 243.399 142.249 242.437 140.501 242.069C138.522 241.653 137.181 242.44 135.508 243.348C134.135 244.094 132.639 244.629 131.1 244.906C130.282 245.054 129.505 245.069 128.73 245.012C128.683 245.05 128.63 245.085 128.57 245.117L128.16 245.332C130.015 245.417 131.905 245.99 133.631 246.514C135.42 247.057 137.177 247.712 138.923 248.382L140.642 249.042C144.881 250.666 149.269 252.208 153.857 252.195C154.187 252.194 154.457 252.285 154.67 252.434M148.261 231.968C149.628 231.801 150.889 231.98 151.981 232.87C153.298 233.944 154.183 235.724 156.076 235.84C156.628 235.874 156.757 236.651 156.208 236.813C154.799 237.231 153.658 236.468 152.697 235.478L152.052 234.803C151.103 233.82 150.228 233.06 148.618 233.119C146.893 233.182 145.166 233.58 143.453 233.783C141.512 234.012 139.572 234.208 137.625 234.377C137.534 234.385 137.519 234.242 137.604 234.221L139.784 233.679M146.942 226.379L147.167 226.356C149.152 226.164 150.967 226.156 152.739 227.224L153.079 227.43C154.677 228.401 156.417 229.546 157.416 231.119C157.58 231.377 157.309 231.68 157.036 231.614C155.115 231.153 153.711 229.743 152.096 228.688C150.283 227.504 148.411 227.7 146.344 227.884C144.343 228.062 142.343 228.306 140.361 228.64C138.499 228.953 136.631 229.448 134.751 229.606L134.751 229.602C134.536 229.601 134.414 229.279 134.633 229.169C136.541 228.216 138.752 227.765 140.828 227.329M207.23 206.756C207.038 205.838 208.167 205.413 208.69 206.141L208.801 206.294C209.931 207.843 211.566 209.787 211.483 211.757C212.476 211.778 213.506 212.382 213.893 213.279C214.072 213.694 214.133 214.185 214.093 214.694C214.996 214.764 215.981 215.358 216.533 215.935C217.448 216.892 217.52 218.245 216.864 219.363C215.432 221.801 212.306 222.688 209.666 222.886L209.572 222.893C206.846 223.082 202.918 223.031 201.049 220.691C199.245 218.434 201.238 216.606 203.282 215.614C202.75 215.128 202.474 214.431 202.733 213.697C203.188 212.405 204.794 211.906 205.702 211.008C206.808 209.913 207.539 208.412 207.247 206.842M208.729 208.741C208.428 210.048 207.689 211.243 206.661 212.191C206.267 212.553 205.837 212.875 205.38 213.152L205.325 213.184C204.919 213.412 203.922 213.839 203.998 214.35C204.077 214.876 205.702 215.698 206.145 215.699C206.246 215.699 206.303 215.856 206.2 215.902C205.398 216.256 204.697 216.408 203.912 216.034C203.387 216.569 202.878 217.123 202.373 217.673C201.481 218.645 201.787 219.671 202.841 220.395C204.535 221.557 207.11 221.529 209.086 221.445C211.075 221.36 213.202 220.916 214.756 219.59L214.823 219.531C215.668 218.78 216.439 217.507 215.146 216.783C214.639 216.5 214.092 216.516 213.611 216.379C213.161 217.261 212.431 217.968 211.541 218.104C210.821 218.214 210.325 217.309 210.98 216.876L211.127 216.785C211.949 216.26 212.651 215.451 212.632 214.398C212.62 213.667 211.599 212.744 210.934 213.431L210.904 213.463C210.348 214.091 209.368 213.3 209.734 212.605L209.751 212.574M78.9849 172.393C78.9824 172.236 79.2032 172.177 79.2803 172.313C80.5716 174.586 81.2466 177.372 81.9345 179.875C82.6549 182.498 83.2365 185.148 83.759 187.817C84.8172 193.221 85.3811 198.595 85.4194 204.103C85.4246 204.889 84.1439 205.098 84.0186 204.293C83.1869 198.935 82.39 193.571 81.5519 188.215C81.1302 185.521 80.6394 182.837 80.1697 180.151M91.7686 176.352C91.6735 176.038 92.1294 175.933 92.246 176.22C94.8374 182.583 95.715 189.795 94.0513 196.509C93.7967 197.536 92.2931 197.091 92.4852 196.077M125.195 170.697C125.182 170.463 125.486 170.426 125.601 170.587C126.829 172.318 127.338 174.636 129.492 175.53C130.568 175.977 131.778 175.899 132.728 176.653C133.364 177.158 133.851 177.954 133.374 178.718C133.22 178.965 132.79 179.089 132.581 178.82C132.276 178.43 132.115 177.962 131.701 177.669C131.118 177.256 130.33 177.23 129.661 177.036C128.795 176.785 128.032 176.345 127.407 175.692M145.708 141.83C145.835 141.766 145.956 141.807 146.037 141.916C146.153 142.072 146.139 142.224 145.997 142.331C146.186 142.718 146.41 143.686 146.441 143.827C146.571 144.398 146.708 144.967 146.852 145.534C147.142 146.679 147.397 147.833 147.687 148.978C147.995 150.192 148.362 151.393 148.771 152.577C148.797 152.654 148.826 152.732 148.856 152.811L148.903 152.931L148.914 152.913C148.997 152.782 149.17 152.874 149.15 153.012C149.131 153.139 149.105 153.264 149.084 153.391L149.126 153.504C149.393 154.223 149.576 154.981 149.086 155.615C148.903 155.853 148.701 155.993 148.45 156.035C148.047 157.365 147.541 158.669 146.999 159.922L146.841 160.288C146.044 162.116 145.195 163.92 143.926 165.477C142.542 167.176 140.637 168.336 139.431 170.198C138.87 171.064 138.48 171.975 138.163 172.953L138.043 173.325C137.818 174.016 137.559 174.687 136.91 175.093C136.703 175.222 136.393 175.181 136.226 175.004C134.896 173.597 136.288 170.968 137.091 169.605C138.206 167.71 139.82 166.497 141.436 165.067C143.178 163.526 144.289 161.464 145.363 159.432C146.022 158.188 146.657 156.917 147.326 155.667C146.627 155.049 146.403 153.821 146.167 152.968L146.145 152.891C145.754 151.525 145.443 150.122 145.246 148.714C145.057 147.36 144.978 146.026 145.028 144.664L145.043 144.317M148.307 148.275C148.153 148.063 148.409 147.823 148.621 147.867C149.909 148.134 151.169 148.914 152.325 149.545L152.448 149.612C153.371 150.109 154.3 150.719 154.785 151.687C155.312 152.738 155.268 153.949 155.197 155.092L155.19 155.199C155.102 156.569 155.087 157.992 154.798 159.338C154.649 160.026 154.026 160.22 153.493 160.058C152.859 162.061 151.077 163.537 149.776 165.118C148.116 167.134 148.429 169.855 148.602 172.282C148.672 173.265 147.45 173.544 146.821 173.02L145.37 171.815C145.129 171.614 144.888 171.412 144.647 171.21C144.441 171.036 144.237 170.861 144.034 170.684L143.732 170.417C143.598 170.297 143.006 169.636 142.833 169.608C142.414 169.542 141.418 170.647 141.077 170.993L141.034 171.037C140.393 171.666 139.813 172.343 139.273 173.061C139.174 173.193 138.98 173.083 139.051 172.931C139.535 171.894 140.097 170.903 140.765 169.976L140.9 169.791C141.344 169.192 141.941 168.134 142.725 167.958C143.682 167.742 144.638 168.702 145.335 169.236L145.379 169.269C145.711 169.518 146.038 169.771 146.366 170.026C146.331 168.219 146.559 166.393 147.492 164.835C148.15 163.737 149.135 162.923 149.978 161.979C150.917 160.928 151.407 159.637 152.257 158.542C152.366 158.401 152.517 158.325 152.681 158.301C152.713 157.421 152.843 156.532 152.943 155.662L152.972 155.401C153.073 154.456 153.312 153.3 152.849 152.415C152.412 151.578 151.409 150.987 150.666 150.42L150.059 149.949M106.495 138.274C106.107 138.498 105.744 138.777 105.415 139.126C104.38 140.225 103.639 141.593 102.919 142.908C102.531 143.616 102.157 144.333 101.766 145.039C101.596 145.347 101.421 145.651 101.244 145.955C101.163 146.095 100.92 146.373 100.799 146.544C100.933 146.732 101.071 146.917 101.212 147.099C101.266 147.169 104.981 151.217 106.275 152.801C108.258 155.227 110.03 157.79 111.545 160.534C113.028 163.22 114.158 166.064 115.532 168.803C116.22 170.174 116.988 171.535 117.967 172.722C118.005 172.768 118.045 172.812 118.084 172.857C118.458 171.847 119.415 170.766 119.886 170.145L119.929 170.086C120.996 168.648 122.123 167.253 123.274 165.881C124.325 164.629 125.403 163.404 126.507 162.199L126.922 161.748C127.691 160.917 128.669 159.673 129.795 159.079C129.674 158.864 129.534 158.651 129.374 158.441C128.319 157.062 126.827 156.061 125.356 155.157L124.401 154.577C120.804 152.384 117.262 150.089 114.139 147.239C112.487 145.731 110.857 144.152 109.469 142.393L108.977 141.772M112.497 137.188C110.812 137.33 108.993 137.296 107.436 137.845C108.82 139.154 110.136 140.567 111.487 141.898C111.608 140.998 111.854 140.109 112.062 139.231" fill="black"/>
<path fill-rule="evenodd" clip-rule="evenodd" d="M129.726 53.9492C141.722 53.9492 154.13 63.2512 158.527 69.187C162.224 74.1775 164.215 96.7446 164.215 111.996C164.215 115.185 165.974 121.198 165.461 124.249C163.579 135.429 155.381 144.806 139.156 144.806C122.931 144.806 111.298 138.372 99.2386 121.098C93.3872 121.098 90.5514 116.609 90.5102 109.525C90.469 102.44 96.1583 99.863 96.1583 99.863C96.1583 99.863 94.1298 71.9058 99.2386 64.6271C104.347 57.3483 117.73 53.9492 129.726 53.9492Z" fill="white"/>
<path fill-rule="evenodd" clip-rule="evenodd" d="M124.679 49.9962C132.253 49.229 139.675 49.8736 147.139 51.2074C147.709 51.3108 148.033 51.6851 148.153 52.135C151.668 52.2957 155.188 52.5537 158.699 52.7461C159.973 52.8158 160.696 54.0752 160.115 55.2125C159.999 55.4384 159.878 55.6582 159.756 55.8781L159.909 55.8273C160.966 55.4883 162.107 55.3212 163.136 55.8592C164.446 56.544 164.959 58.055 164.67 59.4456C164.596 59.8007 164.471 60.141 164.33 60.473C164.617 60.454 164.906 60.4603 165.194 60.4984C166.723 60.7013 167.86 61.8743 167.94 63.4362C168.059 65.7946 166.54 68.1873 164.75 69.8758C165.01 70.4107 165.109 71.0405 165.001 71.6788C164.786 72.9406 163.857 73.6961 162.78 74.189C163.229 75.6158 163.441 77.1076 163.316 78.632C163.274 79.141 162.829 79.5613 162.359 79.6645C164.11 84.4862 164.996 89.663 165.633 94.7073C166.087 98.2963 166.311 101.906 166.339 105.522C166.352 107.155 166.325 108.789 166.257 110.422L166.229 111.034C166.144 112.799 166.14 114.652 165.823 116.398C166.905 118.239 167.34 120.524 167.524 122.587C167.752 125.14 167.391 127.773 166.586 130.202C163.548 139.378 154.379 145.169 145.17 146.674C136.645 148.067 126.781 146.192 121.799 138.446C121.721 138.324 121.888 138.222 121.985 138.303C125.549 141.202 129.684 142.496 134.175 143.126C141.942 144.212 150.671 142.369 156.903 137.483C159.895 135.137 162.052 131.721 163.001 128.046C163.485 126.167 163.652 124.208 163.461 122.274C163.267 120.313 162.399 118.639 161.852 116.785C161.668 116.159 161.862 115.578 162.244 115.164C162.352 113.659 162.606 112.142 162.703 110.641C162.81 108.935 162.876 107.23 162.899 105.522C162.944 101.98 162.796 98.4313 162.498 94.9041C161.953 88.445 160.506 82.1428 159.656 75.7386C159.342 76.0208 158.891 76.1366 158.419 75.8901L158.37 75.8633L158.112 75.7156C158.097 75.7156 158.08 75.7177 158.065 75.7196C156.302 75.891 154.472 75.6459 152.782 75.1194C151.013 74.5701 149.372 73.7247 147.906 72.5982C147.627 74.0119 147.51 75.4406 147.509 76.882C147.506 77.7824 146.554 78.2497 145.797 77.865C142.444 76.1613 139.242 74.1981 136.202 71.9916C135.846 73.8113 135.492 75.6308 135.134 77.4527C134.997 78.1546 134.103 78.4378 133.531 78.1039C131.254 76.7785 129.287 75.0435 127.685 72.9805C127.366 73.5922 127.045 74.2037 126.722 74.8139L126.236 75.7281C125.756 76.6263 125.114 77.6199 124.064 77.9071C122.953 78.2114 122.025 77.4909 121.652 76.4847C121.537 76.1721 121.432 75.8507 121.335 75.5273C120.388 77.6896 119.319 79.8031 118.111 81.8194C116.298 84.8436 114.122 87.5383 111.952 90.3028C111.293 91.1421 110.165 90.3408 110.074 89.5252C110.021 89.0455 109.977 88.5636 109.939 88.0836C108.674 90.6359 107.355 93.1643 105.918 95.6193L106.124 96.426C106.717 98.8096 107.209 101.21 107.745 103.606C107.917 104.38 107.507 105.485 106.604 105.617C105.525 105.774 104.504 106.325 103.4 105.946C102.195 105.532 101.957 104.49 101.388 103.503C101.274 103.306 101.142 103.125 101 102.954L100.964 103.001C100.875 103.117 100.664 102.99 100.717 102.857L100.779 102.703C100.29 102.184 99.7055 101.752 99.1678 101.286C97.8901 101.071 96.4528 101.307 95.5725 101.826C93.5675 103.009 92.6466 105.448 92.6276 107.691C92.6044 110.316 93.4175 113.266 94.7908 115.511C95.3952 116.498 96.2234 117.389 97.3175 117.827C98.4037 118.262 99.5804 118.127 100.685 118.537C101.416 118.81 101.866 119.622 101.425 120.357C101.395 120.408 101.361 120.454 101.33 120.503L101.658 120.939C101.884 121.241 102.12 121.565 102.34 121.902C102.902 122.549 103.493 123.172 104.066 123.808C105.124 124.981 106.151 126.186 107.192 127.376C108.175 128.498 109.214 129.553 110.285 130.59C111.297 131.573 112.561 132.4 113.49 133.448C114.394 134.471 114.64 136.257 113.152 136.849C111.506 137.505 110.05 135.967 108.942 134.941L108.895 134.898C106.865 133.028 105.031 130.892 103.574 128.54C102.132 129.522 100.045 129.616 98.609 128.634C97.8531 128.117 97.2732 127.249 96.9913 126.304C96.7256 126.364 96.46 126.398 96.201 126.394C96.0677 126.472 95.9339 126.547 95.7987 126.617C94.7274 127.175 93.4114 126.926 92.9213 125.74C92.4749 124.663 92.9349 123.441 93.3369 122.403L93.4199 122.189C93.648 121.598 93.8994 120.953 94.2121 120.346C93.3417 119.691 92.5978 118.877 91.9684 117.952C89.8537 114.834 88.7973 110.275 89.2642 106.556C89.5452 104.311 90.5992 101.986 92.3253 100.473L92.2621 100.308C91.7783 99.0804 91.3387 97.848 91.0537 96.5505C90.7199 95.033 90.557 93.4606 90.4093 91.9156C90.0966 88.6524 90.1811 85.3151 90.5973 82.0646C91.379 75.946 93.3607 69.9394 96.8783 64.848C95.8809 63.6536 95.091 62.2482 95.5027 60.6315C95.691 59.8895 96.1196 59.1859 96.7663 58.7609C97.1232 58.5265 97.548 58.4906 97.9051 58.2961L98.0124 58.237C98.1693 58.1454 98.0493 58.1551 97.9558 57.7297C97.5861 56.0302 97.8924 54.3882 99.7621 53.8239C101.522 53.2935 103.187 54.4199 104.228 55.762C106.954 53.828 110.545 52.8158 113.704 51.9556C117.295 50.9811 120.979 50.3726 124.679 49.9962ZM95.2407 106.997C95.2278 105.613 96.5398 104.759 97.8309 104.986C98.6978 105.137 99.421 105.654 100.1 106.189L100.431 106.451C101.258 107.101 102.207 107.801 102.7 108.72C103.423 110.077 101.896 111.903 100.47 110.952C99.4914 110.296 98.8643 109.245 98.2227 108.269L98.1562 108.168C97.8647 107.731 97.609 107.266 97.2095 106.915L97.1232 106.839C96.9919 106.727 96.8509 106.625 96.6814 106.577C96.3542 106.483 95.7483 106.615 95.6041 107.004L95.5912 107.044C95.5384 107.241 95.2428 107.198 95.2407 106.997Z" fill="black"/>
<path fill-rule="evenodd" clip-rule="evenodd" d="M149.973 126.159C148.539 126.723 146.845 126.856 145.365 126.375C143.95 125.916 142.665 124.893 141.887 123.607C141.195 122.461 140.906 121.102 141.315 119.747C141.334 119.682 141.398 119.64 141.459 119.624C141.794 119.929 142.001 120.232 142.208 120.534C142.556 121.042 142.905 121.545 143.385 121.979C144.082 122.611 145.022 123.124 145.955 123.294C146.868 123.46 147.803 123.313 148.62 122.876C149.118 122.61 149.52 122.255 149.918 121.898C150.351 121.509 150.778 121.115 151.375 120.895C151.854 120.719 152.356 120.868 152.743 121.162C153.158 121.478 153.456 121.973 153.439 122.491C153.414 123.293 153.063 123.961 152.554 124.513C151.866 125.259 150.892 125.797 149.973 126.159ZM148.271 106.175C149.866 107.146 152.297 109.408 150.581 111.813C148.561 113.933 145.652 111.502 144.219 110.402C142.89 109.55 141.396 111.742 142.63 112.737C152.987 120.408 157.19 106.429 149.078 105.035C148.185 104.881 147.853 105.875 148.271 106.175ZM131.491 92.7338C133.665 92.6298 135.581 93.6067 137.653 94.0505C139.568 94.4609 141.455 94.2145 143.317 93.6925C146.34 92.8452 147.589 97.4737 144.608 98.3758C142.437 99.0327 140.151 99.0783 137.923 98.7397C135.944 98.4388 134.285 97.475 132.398 96.9139C130.779 96.4326 128.874 96.6326 127.164 96.8592L126.5 96.9485C125.514 97.0815 124.522 97.2148 123.545 97.4078C122.697 97.5754 121.851 97.8821 120.986 97.9176C120.888 97.9218 120.805 97.7941 120.867 97.709C121.872 96.3287 123.809 95.2397 125.349 94.5133L125.454 94.4643C127.355 93.5773 129.373 92.8348 131.491 92.7338ZM130.694 102.911L130.693 102.864C130.696 101.516 131.481 98.439 133.42 98.439C134.632 98.439 135.368 100.533 135.495 102.692L135.499 102.78C135.556 104.122 135.188 107.056 133.42 107.056C131.635 107.056 130.712 104.277 130.694 102.911ZM159.248 102.911L159.248 102.864C159.245 101.516 158.46 98.439 156.521 98.439C155.34 98.439 154.611 100.43 154.457 102.53L154.446 102.692C154.37 103.989 154.714 107.056 156.521 107.056C158.307 107.056 159.229 104.277 159.248 102.911ZM159.218 91.0923L159.357 91.0953C161.623 91.174 163.955 92.5171 164.56 94.7733C164.591 94.8903 164.447 94.9692 164.361 94.8889C162.497 93.1434 159.991 94.8112 158.125 95.6855L157.44 96.0022C155.034 97.1219 152.298 98.4383 149.626 97.6039C148.358 97.2076 147.552 95.9036 147.914 94.5864C148.236 93.4145 149.65 92.4296 150.875 92.8526L150.93 92.8728C151.925 93.2536 153.149 92.8678 154.176 92.4874L155.021 92.1703C156.378 91.6549 157.742 91.0784 159.218 91.0923Z" fill="black"/>
</svg>
