<svg width="240" height="324" viewBox="0 0 240 324" fill="none" xmlns="http://www.w3.org/2000/svg">
<path fill-rule="evenodd" clip-rule="evenodd" d="M200.256 272.088C199.919 265.825 199.505 259.567 199.009 253.314C198.022 240.859 196.729 228.394 194.577 216.083C192.454 203.935 189.482 192.123 185.202 180.547C183.216 175.177 181.065 170.596 177.945 165.768C174.995 161.203 171.23 158.111 166.54 155.355C162.314 152.873 157.405 148.565 153.352 145.785C151.66 144.625 148.179 144.702 147.019 142.985C145.499 140.737 146.484 137.296 144.953 135.055C143.202 132.493 140.749 130.503 137.983 129.057C134.964 127.012 131.409 126.087 127.843 126.214C122.586 125.895 117.292 127.569 113.916 131.85C112.232 133.986 111.249 136.451 111.113 139.18C111.077 139.89 111.305 140.45 111.68 140.854C111.458 141.152 111.236 141.449 111.016 141.749C110.326 140.726 108.712 140.182 107.637 140.954C104.119 143.481 100.317 145.489 96.3038 146.962C95.3649 146.517 94.2283 146.723 93.424 147.449C93.0976 147.743 92.7513 147.995 92.3894 148.208C90.9014 148.612 89.3905 148.949 87.8571 149.21C87.3771 149.291 86.9704 149.564 86.6619 149.931C86.205 149.504 85.5769 149.299 84.8755 149.566C76.7765 152.655 69.1282 157.452 63.3147 163.953C56.874 171.154 53.4912 180.112 50.9159 189.29C48.128 199.225 46.3464 209.407 44.85 219.606C43.3337 229.941 41.8402 240.315 40.797 250.71C40.2099 256.559 39.9859 262.461 40.2517 268.336C40.3842 271.273 40.6523 274.199 41.0793 277.108C41.1788 277.788 41.2829 278.572 41.4507 279.354C40.9409 279.255 40.3337 279.686 40.437 280.376C41.1566 285.182 46.9652 286.582 50.9712 287.135C57.5241 288.041 64.111 288.543 70.7269 288.581C77.2282 288.619 83.7285 288.202 90.2163 287.828C96.8679 287.445 103.519 287.06 110.171 286.669C136.82 285.106 163.47 283.56 190.119 281.997C192.554 281.854 195.334 281.661 197.42 280.248C200.278 278.311 200.425 275.233 200.256 272.088Z" fill="white"/>
<path fill-rule="evenodd" clip-rule="evenodd" d="M70.3425 218.33C70.25 218.157 70.4647 218.001 70.6071 218.126C73.8422 220.966 75.5359 225.527 75.8911 229.743C76.2673 234.214 75.7339 238.843 75.53 243.311C75.3031 248.289 75.0992 253.269 74.8223 258.244C74.5411 263.292 74.2381 268.338 73.9785 273.387L73.3943 284.745C73.3322 285.955 73.4668 287.444 73.0024 288.573C72.2828 290.325 70.1454 290.053 69.6962 288.59L69.6821 288.542L69.6411 288.573C69.2448 287.254 69.5414 285.688 69.6086 284.324L70.2206 271.915C70.653 263.144 71.0387 254.373 71.5032 245.603L71.6611 242.68C71.8782 238.745 72.0447 234.82 72.1784 230.886L72.2218 229.575C72.3487 225.625 72.248 221.896 70.3425 218.33ZM148.767 145.517C150.57 145.346 151.931 145.944 153.567 146.573C154.28 146.847 154.955 147.164 155.639 147.492C156.495 147.903 157.045 148.629 157.572 149.397L157.854 149.81C160.05 153.028 161.526 156.74 163.193 160.243C165.142 164.341 167.11 168.43 169.018 172.547L169.959 174.576C170.43 175.59 170.899 176.605 171.361 177.623L172.16 179.395C172.962 181.192 173.682 183.094 172.538 184.947C171.475 186.672 169.59 188.006 168.097 189.338C166.852 190.451 165.606 191.562 164.36 192.674C166.936 195.254 168.664 198.502 169.681 201.986C171.124 201.384 172.887 201.268 174.379 201.008C176.469 200.644 176.725 203.809 174.753 203.77C173.296 203.741 171.588 203.89 170.094 203.583C170.353 204.728 170.542 205.89 170.662 207.055C171.289 213.162 169.917 219.305 168.487 225.213L168.369 225.698C166.815 232.094 165.342 238.506 164.024 244.955C162.702 251.417 161.514 257.906 160.459 264.417C159.386 271.045 158.626 277.709 157.809 284.371C157.686 285.379 157.051 286.244 155.938 286.244C155.01 286.244 153.949 285.377 154.066 284.371C154.908 277.116 156.103 269.899 157.29 262.693C159.335 250.284 161.909 237.983 164.869 225.763L165.386 223.635C166.718 218.115 167.927 212.428 167.259 206.735C166.714 202.099 164.777 197.156 160.947 194.277L160.831 194.19C159.936 193.534 159.592 192.279 160.473 191.415C161.034 190.865 161.595 190.316 162.157 189.767L165.528 186.474L166.207 185.809C166.774 185.256 167.343 184.706 167.93 184.172C168.285 183.85 169.247 183.235 169.317 182.704C169.363 182.358 168.953 181.75 168.787 181.431L168.026 179.895C167.594 179.019 167.176 178.136 166.754 177.255C165.879 175.43 164.993 173.61 164.137 171.776L158.999 160.762C157.55 157.655 156.258 154.374 154.363 151.502L153.99 150.942C153.678 150.47 153.402 150.016 153.205 149.44C153.016 148.885 152.778 148.276 152.427 147.802C151.607 146.691 150.038 146.061 148.725 145.828C148.535 145.795 148.604 145.532 148.767 145.517ZM109.249 142.624C109.363 142.624 109.38 142.787 109.275 142.819C107.691 143.295 106.178 144.064 104.944 145.173C104.353 145.704 103.758 146.307 103.393 147.022C103.254 147.295 103.177 147.584 103.12 147.884L103.102 147.984C103.008 148.525 102.873 148.826 102.598 149.26L102.551 149.333C100.982 151.757 99.8824 154.449 98.877 157.145L96.6874 163.023L94.4993 168.902C93.7943 170.796 93.0889 172.69 92.3837 174.584C91.9941 175.63 91.5935 176.671 91.1932 177.713C91.0199 178.164 90.8336 178.612 90.6752 179.069C90.6534 179.131 90.5841 179.507 90.5321 179.598L90.5499 179.63C90.9912 180.372 92.1682 180.993 92.8354 181.532L95.1327 183.39C96.7706 184.715 98.4506 186.003 100.039 187.387C101.037 188.256 100.416 189.813 99.3035 190.176C97.4385 190.783 95.6112 191.511 93.774 192.199C93.0319 192.476 92.2592 192.718 91.5257 193.024L91.0792 193.217C90.9048 193.296 90.9887 193.295 90.9956 193.617C91.0026 193.955 91.0983 194.307 91.1533 194.638C91.7721 198.381 92.428 202.118 93.1204 205.848C95.5694 219.039 98.4952 232.133 101.832 245.127C103.518 251.688 105.325 258.218 107.048 264.77C108.766 271.304 111.027 277.745 113.186 284.145C113.795 285.95 110.934 286.727 110.34 284.93C107.852 277.403 105.576 269.81 103.226 262.24C99.0496 248.79 95.7589 235.048 92.8485 221.272C91.4059 214.445 90.0866 207.591 88.8916 200.716C88.6654 199.414 88.4435 198.112 88.2262 196.809L87.9095 194.892C87.6924 193.526 87.5688 192.103 88.6303 191.021C89.6668 189.966 91.4463 189.592 92.8103 189.097L92.9093 189.061C93.7772 188.737 94.6514 188.424 95.5223 188.103C94.2395 187.092 92.9725 186.06 91.6928 185.05C90.6606 184.236 89.6121 183.437 88.5946 182.604C87.7556 181.917 87.0716 181.035 86.9841 179.917C86.8949 178.775 87.3842 177.715 87.7788 176.667L87.8167 176.566C88.2042 175.52 88.5927 174.475 88.9911 173.433L91.4566 166.982C93.0234 162.884 94.524 158.752 96.1719 154.685C96.8239 153.075 97.5344 151.491 98.374 149.97C98.7787 149.237 99.2129 148.519 99.6847 147.826C100.213 147.05 100.693 146.671 101.512 146.243C102.822 145.558 103.85 144.409 105.165 143.703C106.456 143.01 107.784 142.64 109.249 142.624ZM113.501 135.312C113.551 135.226 113.683 135.264 113.685 135.362C113.719 137.399 113.235 139.48 112.938 141.495C112.639 143.516 112.543 145.649 112.11 147.649C112.101 147.742 112.083 147.834 112.058 147.924L112.037 147.993C111.855 148.553 111.38 149.028 110.798 149.176C110.981 150.192 111.153 151.209 111.298 152.231C111.548 153.989 111.775 155.749 111.999 157.51L112.267 159.623C112.52 161.614 112.766 163.606 113.009 165.599C113.627 165.857 114.258 166.071 114.905 166.256C116.393 166.682 117.917 166.855 119.453 167.006C122.581 167.313 125.733 167.455 128.872 167.629L129.545 167.667C133.074 167.869 136.622 167.905 140.142 167.543C141.887 167.363 143.619 167.062 145.321 166.635C146.186 166.418 147.027 166.094 147.89 165.881C148.177 165.811 148.432 165.649 148.719 165.475C148.847 165.314 149.025 165.192 149.258 165.145L149.321 165.134L149.384 165.125L149.405 165.115L149.404 165.122C149.58 165.098 149.748 165.099 149.906 165.12C149.969 163.567 150.037 162.013 150.123 160.46C150.353 156.289 150.987 151.938 150.14 147.803C150.112 147.664 150.301 147.615 150.35 147.745C152.011 152.122 151.824 156.909 151.908 161.516C151.99 166.021 151.94 170.53 151.918 175.036C152.241 175.173 152.528 175.36 152.756 175.621C153.212 176.143 153.343 177.05 152.756 177.554C152.497 177.778 152.209 177.933 151.904 178.04C151.888 181.955 151.86 185.87 151.821 189.786C152.565 190.361 152.634 191.726 151.793 192.294C151.652 204.972 151.422 217.651 151.231 230.328L150.831 256.923C150.778 260.467 150.69 264.01 150.658 267.553L150.683 267.563L150.772 267.604C150.921 267.674 151.143 267.788 151.189 267.904C151.201 267.934 151.204 267.955 151.202 267.97C151.447 268.005 151.688 268.12 151.898 268.319C152.415 268.81 152.31 269.55 151.898 270.05L151.788 270.184C151.531 270.496 151.044 270.616 150.646 270.553C150.65 272.764 150.664 274.976 150.657 277.187C150.655 277.863 150.644 278.538 150.633 279.213L150.605 280.833C150.586 281.757 150.504 282.932 149.558 283.347C148.491 283.815 147.533 283.432 147.101 282.347C146.984 282.053 147.009 281.78 147.052 281.489C147.039 281.053 146.97 280.547 146.979 280.142L147.014 278.454C147.02 278.193 147.03 277.933 147.038 277.673L147.007 277.676C143.214 277.86 139.394 277.77 135.594 277.768L133.905 277.77C132.495 277.771 131.082 277.764 129.674 277.71L129.146 277.688C128.092 277.638 126.984 277.622 125.891 277.528C126.03 278.65 126.16 279.773 126.276 280.897C126.386 281.963 125.287 282.868 124.306 282.868C123.141 282.868 122.474 281.952 122.335 280.897C121.677 275.918 121.407 270.893 120.778 265.912C120.215 261.45 119.726 256.977 119.23 252.507L119.064 251.017C117.247 234.748 115.483 218.473 113.796 202.19L113.01 194.578C112.217 186.906 111.418 179.233 110.745 171.55C110.36 167.158 110.006 162.764 109.672 158.367C109.427 155.137 109.273 151.924 109.173 148.701C108.778 148.294 108.58 147.701 108.755 147.088C108.857 146.73 108.976 146.374 109.102 146.019C109.094 145.67 109.086 145.322 109.079 144.972C109.073 144.642 109.408 144.472 109.677 144.526C110.165 143.344 110.702 142.172 111.151 141.002C111.877 139.107 112.475 137.065 113.501 135.312ZM72.9592 155.792C80.5477 151.034 89.5807 147.611 98.6278 147.979C98.8336 147.988 98.8915 148.301 98.6779 148.349C93.8521 149.427 88.9733 150.74 84.4047 152.651C79.8227 154.567 75.4659 157.148 71.5856 160.249C64.4261 165.971 58.8613 173.413 55.1971 181.802C53.0508 186.716 51.5464 191.905 50.2327 197.095C48.8426 202.587 47.6969 208.139 46.7443 213.725C44.8627 224.757 43.7673 235.912 43.1844 247.085C42.5914 258.451 42.8358 269.825 42.4129 281.193C42.3398 283.162 39.5257 283.124 39.3827 281.193C38.4244 268.269 38.9553 255.138 39.8415 242.223C40.6384 230.612 42.0301 219.026 44.271 207.603L44.4662 206.613C46.5611 196.044 49.0879 185.219 54.1524 175.648C58.4762 167.476 65.1514 160.687 72.9592 155.792ZM178.337 206.304C178.377 206.191 178.526 206.192 178.566 206.304C179.431 208.726 179.462 211.46 179.692 214.014L179.71 214.21C179.931 216.539 180.097 218.871 180.251 221.205L180.309 222.08C180.928 231.601 181.703 241.112 182.87 250.583C184.033 260.019 185.606 269.389 187.306 278.74C187.496 279.781 187.035 280.842 185.943 281.142C184.981 281.406 183.746 280.813 183.543 279.778C182.487 274.411 181.633 269.036 180.872 263.622C179.531 254.089 178.53 244.511 177.887 234.905C177.564 230.081 177.365 225.258 177.286 220.424C177.25 218.18 177.308 215.932 177.428 213.691L177.456 213.174C177.588 210.883 177.575 208.488 178.337 206.304ZM96.3384 266.949C96.4398 266.894 96.5653 267.007 96.5011 267.112C95.0317 269.501 93.0439 271.561 91.1227 273.591C89.1141 275.713 87.1553 277.899 85.1062 279.98C83.6256 281.483 81.244 279.058 82.8065 277.679C85.0035 275.741 87.2998 273.899 89.5358 272.003L90.5137 271.174C92.3471 269.625 94.2349 268.089 96.3384 266.949ZM166.129 265.753C166.019 265.544 166.27 265.374 166.44 265.513C167.625 266.477 168.688 267.627 169.832 268.645C170.966 269.652 172.141 270.593 173.349 271.509C174.562 272.43 175.801 273.314 177.074 274.15C178.13 274.844 179.218 275.399 180.323 275.975C180.835 276.041 181.309 276.293 181.689 276.769C182.289 277.523 182.352 278.944 181.52 279.598L181.371 279.716C180.4 280.479 179.247 280.572 178.291 279.716C177.223 278.759 176.214 277.707 175.189 276.697L174.881 276.395C173.78 275.324 172.705 274.218 171.692 273.062L170.774 272.019C169.073 270.077 167.301 267.985 166.129 265.753ZM160.669 153.836C160.472 153.705 160.594 153.353 160.837 153.437L161.284 153.592C163.149 154.24 165.068 154.959 166.761 155.957C168.581 157.03 170.261 158.308 171.867 159.679C175.189 162.516 178.016 166.005 180.418 169.642C185.239 176.939 188.22 185.297 190.626 193.66C193.193 202.576 195.168 211.684 196.782 220.819C198.421 230.101 199.685 239.468 200.517 248.858C200.926 253.483 201.201 258.112 201.339 262.753C201.41 265.141 201.408 267.527 201.388 269.916C201.383 270.53 201.387 271.144 201.394 271.758L201.417 273.601C201.43 274.765 201.569 275.989 201.293 277.127C200.847 278.959 197.82 278.617 197.919 276.745C197.828 276.122 197.824 275.478 197.848 274.833C197.834 274.75 197.818 274.666 197.801 274.579C197.751 274.332 197.793 274.102 197.891 273.906C197.906 273.596 197.92 273.289 197.925 272.986C197.945 271.757 197.944 270.532 197.91 269.302C197.838 266.71 197.735 264.117 197.631 261.526C197.423 256.348 197.134 251.168 196.714 246.002C195.254 228.023 192.171 209.941 186.994 192.643C184.589 184.61 181.273 176.725 176.519 169.784C174.408 166.703 172.027 163.856 169.387 161.215C166.731 158.556 163.803 155.912 160.669 153.836ZM124.841 269.74L125.2 272.337C125.379 273.635 125.557 274.934 125.725 276.234C126.871 276.077 128.042 276.011 129.146 275.913C131.078 275.742 133.023 275.659 134.961 275.579C138.968 275.414 142.995 275.127 147.007 275.147C147.048 275.147 147.087 275.15 147.125 275.153L147.324 270.03L144.506 270.026C142.118 270.022 139.731 270.002 137.343 269.981C135.193 269.963 133.042 269.96 130.891 269.915L129.97 269.893C128.34 269.849 126.539 269.94 124.841 269.74ZM147.561 262.304C147.446 262.318 147.329 262.329 147.204 262.334C146.646 262.358 146.084 262.342 145.525 262.346C144.336 262.357 143.146 262.365 141.957 262.364C139.578 262.364 137.199 262.379 134.821 262.407C132.372 262.437 129.925 262.479 127.476 262.484C126.29 262.486 125.107 262.455 123.921 262.422C124.113 264.108 124.314 265.793 124.535 267.474C126.377 267.225 128.358 267.35 130.158 267.333L130.392 267.33C132.848 267.288 135.307 267.319 137.765 267.322C140.293 267.325 142.821 267.333 145.349 267.354L147.426 267.371L147.43 267.266C147.491 265.614 147.53 263.959 147.561 262.304ZM123.008 254.238C123.238 256.228 123.454 258.222 123.674 260.215C123.821 260.192 123.969 260.173 124.12 260.157C125.308 260.033 126.494 259.926 127.686 259.852C130.063 259.705 132.44 259.627 134.821 259.563C137.269 259.497 139.718 259.447 142.167 259.413C143.357 259.396 144.545 259.398 145.735 259.406C146.293 259.41 146.857 259.392 147.414 259.429C147.481 259.434 147.544 259.441 147.607 259.448L147.649 256.456C147.656 255.957 147.664 255.458 147.672 254.96C145.833 255.073 143.963 255.03 142.126 255.031L141.702 255.032C139.393 255.042 137.084 255.011 134.775 254.963C132.393 254.913 130.017 254.835 127.639 254.682C126.676 254.621 125.72 254.539 124.762 254.433L124.283 254.378C123.866 254.329 123.437 254.289 123.008 254.238ZM147.862 245.793C143.433 246.145 139.028 246.292 134.587 246.336L133.921 246.341C129.997 246.371 126.04 246.533 122.107 246.429C122.342 248.469 122.577 250.509 122.813 252.548C123.376 252.522 123.942 252.522 124.493 252.502C125.613 252.461 126.729 252.451 127.849 252.449C130.158 252.443 132.467 252.463 134.775 252.459C137.155 252.454 139.533 252.414 141.912 252.369C143.841 252.333 145.79 252.187 147.724 252.193L147.862 245.793ZM148.049 237.091C147.536 237.262 146.93 237.273 146.266 237.303L144.551 237.389C143.757 237.428 142.962 237.464 142.167 237.493C139.517 237.59 136.868 237.681 134.218 237.765C131.502 237.852 128.774 237.902 126.058 237.816C124.728 237.774 123.409 237.704 122.082 237.593C121.754 237.566 121.42 237.548 121.085 237.524C121.394 240.227 121.704 242.929 122.015 245.631C125.929 245.15 129.874 244.851 133.784 244.354L137.319 243.902C140.853 243.451 144.383 243.009 147.93 242.635L148.049 237.091ZM148.238 228.293C147.485 228.479 146.627 228.47 145.903 228.515L145.77 228.525C144.399 228.629 143.026 228.681 141.653 228.715C138.961 228.781 136.268 228.814 133.575 228.831L131.956 228.841C129.798 228.853 127.641 228.859 125.482 228.808C124.097 228.776 122.715 228.708 121.332 228.639C120.917 228.618 120.493 228.604 120.068 228.583C120.357 231.142 120.65 233.7 120.941 236.258C121.396 236.186 121.853 236.131 122.288 236.057C123.403 235.869 124.516 235.718 125.64 235.583C128.073 235.292 130.518 235.082 132.963 234.905C135.472 234.723 137.984 234.569 140.494 234.393L142.271 234.268C142.864 234.226 143.456 234.187 144.049 234.15C145.061 234.088 146.238 234.158 147.242 233.938C147.514 233.825 147.816 233.799 148.118 233.863L148.238 228.293ZM148.466 217.995C148.205 218.326 147.816 218.499 147.352 218.559C144.935 218.873 142.456 218.923 140.019 219.071L139.59 219.098C137.073 219.264 134.555 219.394 132.037 219.528C129.45 219.665 126.863 219.777 124.274 219.868C123.175 219.906 122.071 219.91 120.97 219.896L120.498 219.889C120.046 219.882 119.573 219.883 119.098 219.867C119.361 222.26 119.626 224.652 119.895 227.044C120.379 226.991 120.862 226.951 121.331 226.901C122.714 226.755 124.096 226.61 125.482 226.501C128.108 226.294 130.737 226.169 133.368 226.039C136.06 225.906 138.754 225.817 141.446 225.691C142.752 225.63 144.057 225.554 145.358 225.434C146.271 225.35 147.354 225.04 148.306 225.154C148.358 222.767 148.412 220.381 148.466 217.995ZM148.678 208.769C148.637 208.833 148.589 208.895 148.53 208.952C147.466 210.004 146.155 209.923 144.745 210.033L144.658 210.04C143.277 210.156 141.894 210.267 140.511 210.367C137.745 210.566 134.975 210.706 132.205 210.831C129.371 210.958 126.519 211.046 123.682 210.988C121.865 210.951 119.963 210.957 118.11 210.78C118.394 213.415 118.68 216.05 118.969 218.684C119.49 218.586 120.014 218.511 120.511 218.432C121.763 218.235 123.016 218.037 124.275 217.892C126.79 217.603 129.307 217.332 131.827 217.087C133.983 216.878 136.138 216.666 138.295 216.475L139.59 216.363C142.164 216.146 144.77 215.789 147.352 215.736C147.778 215.727 148.259 215.959 148.503 216.325C148.56 213.806 148.619 211.288 148.678 208.769ZM148.857 201.301C148.2 201.381 147.491 201.335 146.885 201.355C145.351 201.405 143.817 201.452 142.284 201.497L133.081 201.769C129.947 201.861 126.803 201.93 123.668 201.886C122.29 201.866 120.905 201.864 119.526 201.789L119.067 201.761C118.5 201.724 117.804 201.718 117.124 201.649L117.926 209.086C119.77 208.819 121.671 208.72 123.499 208.563L123.89 208.529C126.586 208.283 129.296 208.121 131.997 207.938C134.769 207.75 137.536 207.522 140.303 207.289C141.686 207.173 143.069 207.057 144.451 206.93L144.622 206.913C145.928 206.776 147.155 206.486 148.312 207.256C148.481 207.369 148.613 207.519 148.704 207.688C148.755 205.559 148.804 203.43 148.857 201.301ZM149.071 192.622C143.466 192.847 137.861 193.019 132.252 193.094C129.095 193.136 125.942 193.106 122.785 193.04C121.416 193.012 120.036 192.946 118.668 192.841L118.156 192.8C117.505 192.745 116.822 192.705 116.142 192.64C116.423 195.197 116.702 197.754 116.979 200.312C117.648 200.188 118.347 200.13 118.934 200.055L119.067 200.037C120.524 199.837 121.995 199.72 123.459 199.591C126.31 199.34 129.176 199.178 132.035 199.04C134.962 198.899 137.891 198.78 140.819 198.65L143.748 198.519C144.236 198.497 144.724 198.476 145.212 198.455C145.909 198.426 146.606 198.398 147.303 198.369C147.647 198.354 148.005 198.308 148.349 198.326L148.447 198.312C148.492 198.307 148.532 198.302 148.569 198.298C148.662 198.227 148.763 198.168 148.87 198.123L148.935 198.097L149.071 192.622ZM115.223 184.397C115.483 186.699 115.741 189.001 115.995 191.304C116.794 191.212 117.603 191.162 118.366 191.093C119.905 190.955 121.452 190.834 122.995 190.763L126.081 190.62C128.137 190.525 130.194 190.433 132.252 190.358C137.885 190.152 143.518 189.916 149.147 189.629C149.187 188.067 149.228 186.505 149.27 184.944C148.999 185.233 148.609 185.424 148.096 185.422C142.186 185.407 136.271 185.441 130.362 185.344C127.404 185.295 124.449 185.223 121.495 185.071C120.049 184.997 118.595 184.846 117.161 184.647C116.549 184.562 115.879 184.502 115.223 184.397ZM114.277 176.194C114.555 178.552 114.828 180.911 115.096 183.27C115.83 183.139 116.588 183.069 117.273 182.976C118.744 182.776 120.224 182.616 121.706 182.533C124.589 182.37 127.474 182.287 130.362 182.226C136.271 182.101 142.186 182.101 148.096 182.055C148.651 182.05 149.063 182.27 149.334 182.598C149.375 181.126 149.418 179.653 149.463 178.18C148.892 178.12 148.326 178.035 147.802 177.998C146.193 177.886 144.582 177.783 142.971 177.691C139.61 177.498 136.245 177.333 132.881 177.187C129.516 177.04 126.15 176.897 122.784 176.772L121.312 176.719C118.971 176.632 116.591 176.522 114.277 176.194ZM113.219 167.314C113.508 169.702 113.793 172.091 114.077 174.48L114.163 175.219C116.978 174.671 119.945 174.511 122.784 174.39C126.151 174.247 129.511 174.173 132.881 174.184C136.247 174.194 139.608 174.273 142.971 174.413C144.652 174.482 146.332 174.562 148.012 174.653C148.474 174.678 149.015 174.665 149.572 174.673C149.585 174.298 149.595 173.922 149.608 173.547C149.659 172.027 149.709 170.506 149.761 168.986C148.625 169.57 147.148 169.805 146.006 170.054L145.876 170.083C143.991 170.506 142.066 170.781 140.142 170.949C136.363 171.278 132.545 171.155 128.77 170.836L128.109 170.779C124.794 170.492 121.357 170.127 118.143 169.307C116.612 168.916 115.03 168.369 113.658 167.576C113.515 167.494 113.368 167.406 113.219 167.314ZM145.138 138.935C145.171 138.806 145.364 138.776 145.428 138.897C145.874 139.745 146.041 140.764 146.35 141.673C146.684 142.65 146.995 143.634 147.363 144.6C148.132 146.617 149.039 148.555 150.12 150.424C151.191 152.274 148.193 153.595 147.405 151.569C146.591 149.479 145.922 147.318 145.518 145.109C145.32 144.031 145.144 142.939 145.087 141.844C145.038 140.903 144.906 139.852 145.138 138.935Z" fill="black"/>
<path fill-rule="evenodd" clip-rule="evenodd" d="M163.535 85.4321C161.623 77.3683 157.443 69.8641 150.75 63.7993C130.61 43.8804 93.625 54.692 93.7926 84.7084C93.0703 88.2143 92.777 91.8191 93.0162 95.3945C93.115 96.92 93.775 99.049 92.8884 100.422C90.8883 102.99 89.7259 104.884 90.4066 108.3C90.9753 111.284 93.0048 113.397 95.7436 114.521C97.3862 114.992 98.9448 116.019 99.5532 117.585C103.209 124.281 105.918 129.851 111.682 134.415C113.169 135.59 128.424 142.637 133.45 142.637C148.166 142.637 166.712 137.304 167.02 120.861C167.073 117.25 166.439 113.596 166.042 110.013C165.075 101.836 165.416 93.3636 163.535 85.4321Z" fill="white"/>
<path fill-rule="evenodd" clip-rule="evenodd" d="M163.204 81.3988C163.208 81.299 163.351 81.2766 163.379 81.3751C163.926 83.3163 164.236 85.2939 164.664 87.2654C165.076 89.1644 165.465 91.0689 165.788 92.9846C166.399 96.6 166.914 100.225 167.392 103.859L167.511 104.768C168.343 111.163 169.717 117.825 168.516 124.257C167.491 129.746 164.053 134.169 159.623 137.412C155.428 140.483 150.342 142.454 145.293 143.574C139.873 144.777 133.449 145.136 129.039 141.16C127.274 139.568 129.68 136.409 131.595 137.846C136.092 141.218 141.813 140.224 146.887 138.882L147.041 138.841C151.495 137.654 155.978 135.856 159.514 132.821C163.423 129.466 165.356 124.809 165.579 119.702C165.704 116.833 165.437 113.967 165.149 111.115L165.116 110.798C164.785 107.536 164.438 104.275 164.118 101.012C163.825 98.0364 163.573 95.0434 163.439 92.0544L163.377 90.5469C163.248 87.5075 163.073 84.4236 163.204 81.3988ZM110.462 56.1441C117.78 52.3328 126.191 50.9687 134.334 52.2478C142.164 53.4775 149.349 57.5189 154.719 63.3139C157.341 66.1433 159.669 69.416 161.156 72.9914C161.895 74.7676 162.473 76.6205 162.781 78.5235C162.94 79.5019 163.096 80.5155 163.125 81.5074C163.153 82.4257 162.883 83.2869 162.915 84.2205C162.92 84.3665 162.696 84.3946 162.662 84.2547C162.408 83.2138 161.795 82.4267 161.411 81.438C161.123 80.6998 160.797 79.9791 160.465 79.2605L160.18 78.6448C159.352 76.8553 158.363 75.1394 157.384 73.4296C155.413 69.9858 152.884 66.8561 149.923 64.2153C144.724 59.5787 138.054 56.5858 131.093 56.0468C123.867 55.4872 116.538 57.2101 110.368 61.0267C104.197 64.843 99.5317 70.7756 97.1093 77.6063C95.8871 81.0532 95.2121 84.6446 95.0552 88.2964C94.9757 90.1448 95.0499 92.0087 95.1794 93.8536L95.2437 94.7334C95.3191 95.7884 95.3708 96.8394 95.2132 97.8688C96.3261 97.5216 97.4928 97.3777 98.6636 97.5495C100.403 97.8048 101.443 98.5183 102.223 100.073C102.264 100.155 102.182 100.236 102.101 100.195C101.09 99.6902 99.4527 99.9561 98.3811 100.221C97.2661 100.497 96.2617 100.976 95.3142 101.624C93.5613 102.822 92.1872 104.679 91.85 106.809C91.524 108.867 92.3685 110.95 93.7869 112.425C94.5171 113.185 95.3898 113.841 96.3669 114.25C97.5528 114.747 98.7266 114.732 99.7757 115.552C100.424 116.059 100.268 116.927 99.8277 117.49C102.041 119.918 104.004 122.574 106.217 125.011C107.243 126.141 108.261 127.272 109.244 128.439L109.611 128.878C110.592 130.063 112.154 131.315 112.603 132.805C112.882 133.732 111.889 134.945 110.886 134.522C109.347 133.874 108.248 132.188 107.208 130.894L107.141 130.81C106.05 129.47 105.082 128.054 104.197 126.571L103.905 126.083C102.305 123.39 100.718 120.597 99.6971 117.638C99.6297 117.707 99.5583 117.77 99.4831 117.824C98.0127 118.87 95.8751 118.066 94.4066 117.386C93.0202 116.745 91.7492 115.781 90.7586 114.618C88.6041 112.09 87.6109 108.816 88.3305 105.535C88.94 102.755 90.8657 100.051 93.3904 98.6455C92.225 97.3035 91.7425 95.4943 91.4214 93.7255C91.0115 91.4677 90.9297 89.1538 91.0411 86.8642C91.2631 82.3039 92.4363 77.8087 94.2498 73.6329C97.4945 66.161 103.231 59.911 110.462 56.1441ZM95.0608 106.004C96.5967 105.716 98.028 105.646 99.5094 106.297C101.116 107.002 102.247 108.167 103.299 109.532C104.495 111.085 101.429 112.781 100.656 110.72L100.633 110.656C100.426 110.046 100.056 109.456 99.5859 108.913C99.445 109.129 99.2565 109.319 99.0351 109.428C98.767 109.56 98.3576 109.469 98.2932 109.126C98.2217 108.746 98.3008 108.285 98.5201 107.963L98.5501 107.919C97.4844 107.061 96.2027 106.435 95.0608 106.233C94.9467 106.213 94.9479 106.025 95.0608 106.004Z" fill="black"/>
<path fill-rule="evenodd" clip-rule="evenodd" d="M132.112 117.319C132.156 117.278 132.226 117.263 132.28 117.297C133.194 117.875 133.302 119.82 133.313 120.943C133.691 121.041 134.064 121.153 134.418 121.232C135.168 121.398 135.922 121.542 136.675 121.695L137.239 121.812C139.125 122.209 141.046 122.503 142.967 122.651C144.832 122.793 146.752 122.846 148.611 122.605C149.41 122.502 150.204 122.33 150.976 122.099C151.888 121.827 152.614 121.376 153.463 120.981C155.587 119.991 157.367 122.891 155.323 124.164C153.568 125.256 151.174 125.65 149.148 125.819C147.078 125.992 145.016 125.802 142.97 125.474C140.759 125.12 138.593 124.576 136.496 123.787C135.609 123.453 134.751 123.049 133.913 122.606L133.685 122.485C133.545 122.41 133.4 122.334 133.254 122.257C133.097 123.658 132.645 125.011 132.098 126.311L132.086 126.288C131.787 127.314 130.707 127.949 129.632 127.496C128.371 126.964 128.275 125.569 129.009 124.578L129.044 124.532C129.907 123.422 130.447 122.044 130.917 120.731C131.158 120.058 131.381 119.369 131.575 118.68C131.715 118.182 131.72 117.681 132.112 117.319ZM164.612 106.165C163.864 108.425 162.234 110.166 159.963 110.931C157.712 111.689 155.208 111.413 152.908 111.003C152.404 110.913 151.894 110.814 151.385 110.699C151.802 110.957 152.17 111.32 152.522 111.705C153.043 112.273 153.515 112.872 153.659 113.583C153.801 114.289 153.577 114.826 153.168 115.231C152.54 115.854 151.526 116.19 150.667 116.376C148.744 116.791 146.818 116.727 144.905 116.301C144.416 116.192 144.085 115.93 143.899 115.588C143.673 115.173 143.655 114.656 143.784 114.186C143.914 113.716 144.194 113.283 144.6 113.043C144.934 112.845 145.353 112.791 145.827 112.949C146.78 113.266 147.726 113.476 148.733 113.501C149.159 113.511 149.588 113.498 150.013 113.459C150.253 113.437 150.493 113.406 150.732 113.368C150.592 113.181 150.455 112.99 150.322 112.797C150.164 112.57 150.01 112.339 149.864 112.104C149.44 111.425 149.087 110.727 148.777 109.99C148.677 109.754 148.585 109.517 148.497 109.28C148.484 109.245 148.471 109.211 148.459 109.177C148.431 109.154 148.404 109.131 148.377 109.107C147.771 108.582 147.262 107.936 146.902 107.135C145.928 104.965 146.087 102.272 146.678 100.019C147.152 98.2131 148.197 96.5428 149.578 95.4081C149.819 95.0112 149.978 94.7704 150.173 94.5676C150.967 93.7415 152.075 93.1843 153.156 92.8454C155.57 92.0881 158.199 92.6314 160.245 94.0733C162.135 95.4046 163.614 97.4012 164.413 99.6219C165.17 101.725 165.318 104.032 164.612 106.165ZM131.73 92.4301C134.601 92.4056 137.522 93.2536 139.852 94.9505C142.081 96.5743 143.83 98.9716 143.828 101.827C143.826 104.608 142.341 107.341 140.693 109.494C138.843 111.91 136.427 113.075 133.388 113.102C131.808 113.116 130.217 112.976 128.649 112.784L127.807 112.678C126.649 112.529 125.478 112.352 124.38 111.953C119.152 110.057 118.99 103.211 120.926 98.8357C122.421 95.4575 126.205 92.163 129.978 92.5584C130.546 92.4788 131.13 92.4354 131.73 92.4301ZM136.579 95.6492C132.984 94.0349 128.616 94.5183 125.128 96.241C123.747 97.7488 122.737 99.649 122.328 101.394C121.892 103.256 121.956 105.262 122.612 107.067C123.413 109.27 125.385 109.816 127.513 110.154L128.338 110.284L128.685 110.336C130.775 110.648 133.061 110.891 135.07 110.501C137.309 110.065 138.731 108.256 139.85 106.401L139.902 106.314C141.064 104.37 142.037 102.006 141.062 99.7786C140.233 97.8855 138.423 96.4773 136.579 95.6492ZM157.799 96.2117C156.565 95.5278 155.158 95.4035 153.826 95.8613C153.253 96.0582 152.757 96.3774 152.277 96.7352L152.086 96.8802C151.495 97.3337 150.943 97.5634 150.5 98.1759L150.443 98.258C150.22 98.5919 149.829 98.7255 149.472 98.6811C149.057 99.826 148.886 101.064 148.882 102.283L148.883 102.444L148.885 102.609C148.912 104.05 149.163 105.812 150.296 106.778C151.329 107.659 152.894 107.87 154.292 107.993L155.368 108.082L155.655 108.104C157.127 108.206 158.741 108.171 159.975 107.299C161.05 106.54 161.557 105.251 161.688 103.978C161.999 100.97 160.478 97.6964 157.799 96.2117ZM130.943 96.4895C132.922 95.4784 135.301 95.7319 136.978 96.9991C136.829 97.0283 136.682 97.0655 136.536 97.1388C136.155 97.3297 135.919 97.7118 135.829 98.1184C135.728 98.5781 135.966 99.0133 136.419 99.1583C136.814 99.2842 137.282 99.3419 137.649 99.102C137.841 98.9765 137.975 98.811 138.063 98.6026L138.075 98.572L138.091 98.5495L138.097 98.539C138.098 98.535 138.091 98.5426 138.08 98.5597C138.091 98.5337 138.102 98.5077 138.112 98.4813C138.128 98.4498 138.142 98.4181 138.154 98.3854C138.176 98.367 138.195 98.3465 138.215 98.326C138.519 98.795 138.759 99.3246 138.911 99.9138C139.885 103.696 135.888 107.621 132.317 108.014C130.968 108.162 129.737 107.841 128.716 107.207C128.725 107.194 128.735 107.183 128.744 107.17C129.154 107.244 129.644 107.06 129.793 106.602C130.173 105.435 129.783 104.069 128.511 103.687C127.693 103.442 126.855 103.713 126.27 104.273C125.828 103.19 125.67 101.97 125.879 100.749C126.174 99.0255 127.213 97.4727 128.83 96.7558C129.618 96.4065 130.296 96.3331 130.943 96.4895ZM151.792 98.823L151.853 98.728C152.464 97.7862 153.634 96.6309 154.846 96.9486C155.016 96.9931 155.183 97.065 155.333 97.1582C155.999 97.0678 156.697 97.2191 157.269 97.5714L157.254 97.6109C157.251 97.6175 157.249 97.6242 157.247 97.6312C157.195 97.8603 157.225 98.0721 157.332 98.2826C157.448 98.5106 157.614 98.7269 157.838 98.8577C157.991 98.9473 158.172 98.9944 158.349 98.9908C158.609 98.9862 158.837 98.8718 159.025 98.6973C159.127 98.6026 159.198 98.4637 159.237 98.3208C159.33 98.4096 159.42 98.5085 159.505 98.6208C160.91 100.469 160.716 103.44 159.068 105.087C159.001 105.154 158.93 105.214 158.86 105.275C158.191 106.197 157.159 106.822 155.92 106.949C154.773 107.066 153.626 106.727 152.746 106.031C152.817 105.993 152.883 105.944 152.94 105.88C153.09 105.71 153.214 105.542 153.305 105.334C153.328 105.282 153.35 105.229 153.371 105.176L153.402 105.096C153.407 105.081 153.454 104.946 153.442 104.97L153.439 104.975L153.455 104.936C153.613 104.543 153.549 104.094 153.175 103.847L153.134 103.821C153.012 103.75 152.861 103.717 152.708 103.716C152.326 103.249 151.758 103.142 151.225 103.278L151.206 103.127C151.204 103.102 151.201 103.077 151.199 103.052C150.786 101.682 150.986 100.125 151.792 98.823ZM133.455 85.0324L133.592 85.0111C134.629 84.8611 135.334 85.0338 136.009 85.9203C136.33 86.3428 136.231 86.9808 136.009 87.4126C135.291 88.8078 133.316 88.5193 131.986 88.7963C130.687 89.0667 129.392 89.4346 128.176 89.9702C126.936 90.5167 125.773 91.1633 124.638 91.9015C123.611 92.5696 122.68 93.5737 121.507 93.9624C121.454 93.9799 121.391 93.9326 121.394 93.8766C121.478 92.5423 122.592 91.3175 123.455 90.3673C124.453 89.2685 125.666 88.2929 126.93 87.5173C128.235 86.7171 129.645 86.0583 131.105 85.5988C131.873 85.3568 132.66 85.1645 133.455 85.0324ZM149.252 86.8441C150.558 84.9341 153.804 85.3004 155.719 85.8108C158.12 86.4503 160.722 87.744 162.406 89.6166C163.914 91.2941 161.658 93.4735 159.962 92.0619L159.509 91.6864L159.219 91.4484C157.917 90.3845 156.628 89.4217 155.041 88.7124C153.181 87.8812 151.296 87.4762 149.329 87.0332C149.252 87.0159 149.207 86.9111 149.252 86.8441Z" fill="black"/>
<path fill-rule="evenodd" clip-rule="evenodd" d="M129.449 129.599C131.159 125.59 134.893 122.644 139.191 121.566C142.347 120.778 145.66 120.803 148.877 121.116C150.563 121.279 152.371 121.412 153.96 122.039C155.317 122.574 156.422 123.585 157.254 124.772C158.243 126.179 158.916 127.789 159.389 129.439C159.456 129.674 159.519 129.91 159.578 130.148C159.372 131.393 158.936 132.453 157.783 133.236C156.658 134 155.316 134.313 153.978 134.424C153.847 134.361 153.72 134.296 153.603 134.23C151.518 133.035 150.051 130.213 147.419 130.595C145.07 130.936 143.524 133.893 142.127 135.626C137.644 136.149 133.164 134.801 129.516 132.236C129.33 131.359 129.32 130.473 129.449 129.599ZM162.625 126.558C162.266 125.551 161.814 124.576 161.279 123.657C159.509 120.619 156.791 118.198 153.565 116.814C145.934 113.546 136.06 115.85 129.897 121.211C127.792 123.044 125.663 125.737 125.019 128.634C124.827 128.672 124.645 128.772 124.496 128.913C120.043 126.108 115.458 123.41 111.87 119.523C109.264 116.698 107.452 113.355 106.342 109.682C106.251 109.38 105.764 109.424 105.779 109.759C105.783 109.837 105.787 109.915 105.791 109.993C105.745 109.849 105.526 109.923 105.509 110.063C104.912 114.525 104.165 119.256 104.853 123.742C105.264 126.418 106.479 128.377 108.104 130.493C109.845 132.761 111.815 134.87 113.83 136.893C115.109 138.177 116.444 139.658 118.01 140.6C119.831 141.694 121.896 142.525 123.839 143.369C125.816 144.231 127.823 145.026 129.867 145.716C133.954 147.1 138.178 148.056 142.476 148.475C145.917 148.809 149.85 149.173 153.148 147.878C155.675 146.886 157.715 145.092 159.334 142.934C161.095 140.583 162.488 137.905 163.258 135.082C164.058 132.149 162.793 127.03 162.625 126.558Z" fill="black"/>
</svg>
