<svg width="240" height="324" viewBox="0 0 240 324" fill="none" xmlns="http://www.w3.org/2000/svg">
<path fill-rule="evenodd" clip-rule="evenodd" d="M192.796 271.477C192.283 266.715 191.968 261.919 191.786 257.133C191.605 252.353 191.842 247.514 191.946 242.732C192.158 233.003 192.502 223.252 191.728 213.539C190.996 204.359 189.317 195.243 186.666 186.422C185.375 182.127 184.015 177.658 181.892 173.689C179.757 169.698 176.375 167.041 172.661 164.604C168.706 162.009 164.783 159.365 160.844 156.746C157.537 154.548 151.586 151.989 148.873 149.051C146.018 145.958 145.482 138.293 143.58 134.63C141.729 131.062 136.488 128.735 132.452 128.735C125.772 128.735 120.711 128.393 115.219 134.574C112.478 137.659 114.659 140.777 111.786 143.737C109.146 146.458 102.392 149.255 98.9881 150.834C94.9115 152.726 90.732 154.396 86.4918 155.883C82.1666 157.401 77.7323 158.532 73.3827 159.964C69.2135 161.336 63.7695 166.995 60.5329 169.988C57.5238 172.772 56.7771 172.46 54.4894 175.841C49.4689 183.262 44.4428 190.768 40.4448 198.803C38.4534 202.805 36.5251 207.015 35.8026 211.459C35.0319 216.2 35.7961 220.781 37.0459 225.371C38.3182 230.042 42.3582 234.489 43.6744 239.149C44.281 241.296 42.199 243.639 43.1566 245.662C43.6349 246.673 44.2373 247.572 44.923 248.453C45.4514 249.131 47.512 248.981 47.7786 249.811C48.048 250.65 46.5572 252.39 46.535 253.258C46.5035 254.501 46.4541 255.743 46.4133 256.985L46.1725 264.328C46.0142 269.154 45.856 273.979 45.6978 278.805C45.646 280.38 45.5706 281.919 45.9481 283.414C45.8118 283.287 45.6823 283.15 45.564 282.995C45.2178 282.543 44.4834 282.926 44.7773 283.456C45.2678 284.338 45.9732 284.96 46.8021 285.406C47.7652 286.827 193.629 289.999 194.347 285.846C194.75 283.516 194.017 281.022 193.724 278.706C193.419 276.295 193.056 273.894 192.796 271.477Z" fill="white"/>
<path fill-rule="evenodd" clip-rule="evenodd" d="M44.6256 211.468C44.9824 210.445 46.6146 210.888 46.2553 211.917C44.408 217.21 45.7184 222.971 47.7156 228.024C48.1163 229.038 46.4811 229.473 46.0858 228.473C43.985 223.158 42.6853 217.027 44.6256 211.468ZM57.0122 241.704C62.222 242.437 67.4361 242.889 72.6819 243.255C72.9164 243.272 73.1192 243.236 73.2946 243.16C73.1382 245.563 73.0115 247.968 72.9122 250.373C71.4819 250.333 70.022 250.428 68.6044 250.39C66.7516 250.339 64.9009 250.246 63.0523 250.105C59.4734 249.834 55.9009 249.403 52.3622 248.807C51.0396 248.585 49.36 248.45 47.8537 248.01C46.4298 247.594 45.1622 246.905 44.4967 245.607C43.9305 244.508 43.8269 243.162 43.8269 241.947C43.8269 241.11 43.9706 240.26 44.0572 239.417C44.165 239.341 44.2622 239.25 44.3403 239.149C45.9122 239.645 47.5431 239.994 49.1403 240.332C51.741 240.886 54.3798 241.334 57.0122 241.704ZM54.0737 222.162C54.1024 223.777 54.5492 225.244 55.4186 226.604C56.0068 227.525 54.5433 228.372 53.9592 227.458C52.9358 225.856 52.4173 224.059 52.3835 222.162C52.3641 221.071 54.0542 221.075 54.0737 222.162ZM187.622 239.784C188.327 239.824 189.037 239.848 189.745 239.886C190.369 240.42 191.233 240.693 192.022 240.523C192.049 240.592 192.074 240.668 192.096 240.757C192.236 241.3 192.306 241.883 192.386 242.437C192.466 242.982 192.527 243.532 192.57 244.081C192.591 244.358 192.724 244.984 192.555 245.225C192.403 245.442 192.067 245.423 191.834 245.451C191.209 245.518 190.575 245.55 189.946 245.603C188.756 245.707 187.567 245.81 186.38 245.914C185.215 246.015 183.937 245.984 182.799 246.29C182.604 244.005 182.427 241.721 182.262 239.434C184.026 239.694 185.87 239.687 187.622 239.784ZM39.7092 235.995C40.4191 237.367 41.074 238.715 42.4325 239.539C42.6099 239.645 42.8085 239.702 43.0113 239.717C42.8592 240.37 42.7641 241.038 42.6796 241.655C42.4937 243.014 42.4536 244.419 42.7937 245.759C43.1254 247.063 43.6747 248.228 44.7522 249.063C45.2529 249.452 45.8001 249.748 46.3747 249.982C46.2775 250.255 46.2205 250.526 46.2501 250.824C46.1127 251.514 46.0219 252.218 45.9226 252.892C45.705 254.389 45.4874 255.887 45.3163 257.392C44.974 260.385 44.7057 263.378 44.4796 266.381C44.2536 269.376 44.0909 272.375 43.9557 275.376C43.886 276.91 43.8247 278.445 43.7677 279.981C43.7106 281.56 43.455 283.175 44.1522 284.64C44.7141 285.823 46.6134 285.755 47.1965 284.64C47.936 283.221 47.7184 281.537 47.7374 279.981C47.7564 278.517 47.7818 277.05 47.8134 275.585C47.8768 272.586 47.9698 269.589 48.0437 266.59C48.1156 263.663 48.2043 260.738 48.2634 257.811C48.293 256.278 48.2951 254.746 48.3036 253.214C48.3078 252.364 48.3437 251.458 48.2803 250.572C48.8085 250.696 49.3409 250.802 49.867 250.91C53.8832 251.734 57.9416 252.334 62.0254 252.706C64.0768 252.892 66.1346 253.023 68.1923 253.098C69.705 253.152 71.2726 253.258 72.8085 253.201C72.6881 256.87 72.6332 260.541 72.6395 264.213C72.6437 266.861 72.6796 269.509 72.7451 272.157C72.781 273.55 72.8106 274.943 72.8529 276.335C72.8719 276.961 72.8719 277.593 72.9142 278.216C72.9268 278.411 72.9543 278.599 72.9902 278.785C72.8508 279.18 72.7346 279.571 72.6395 279.937C72.1747 281.712 72.1747 283.418 72.3818 285.227C72.5592 286.761 73.8501 288.184 75.555 287.645C75.8318 287.558 76.1085 287.467 76.3832 287.374C78.893 287.66 81.4177 287.725 83.9634 287.774C87.6839 287.846 91.4064 287.869 95.1289 287.888C102.43 287.926 109.734 287.945 117.037 287.966C131.714 288.008 146.391 288.048 161.068 288.091C165.141 288.104 169.214 288.114 173.287 288.127C175.396 288.133 177.5 288.135 179.606 288.216C180.589 288.254 181.573 288.306 182.556 288.321C183.694 288.34 184.702 288.012 185.79 287.715C186.405 287.543 186.648 286.926 186.517 286.404C187.501 286.639 188.695 286.14 189.031 285.031C189.276 284.225 189.185 283.352 188.82 282.606V282.604C188.114 278.147 187.218 273.71 186.515 269.251C185.744 264.367 185.002 259.472 184.349 254.569C183.859 250.866 183.456 253.491 183.107 249.771C184.626 249.889 186.344 249.426 187.848 249.23C188.928 249.09 190.016 248.978 191.097 248.83C191.017 249.921 191.04 251.033 191.011 252.079C190.954 254.156 190.979 256.225 191.032 258.303C191.133 262.312 191.359 259.979 191.72 263.971C192.086 267.993 192.534 272.001 193.077 276.004C193.356 278.064 193.654 280.123 193.968 282.179C194.114 283.139 194.264 284.096 194.418 285.056C194.602 286.186 194.661 287.258 195.509 288.108C196.153 288.752 197.469 288.697 197.896 287.799C198.437 286.664 198.192 285.692 197.991 284.5C197.828 283.542 197.672 282.585 197.518 281.628C197.188 279.575 196.875 277.521 196.582 275.465C196.016 271.502 195.481 267.533 195.004 263.559C194.522 259.554 194.023 261.894 193.55 257.889C193.311 255.868 193.073 253.852 192.794 251.838C192.652 250.802 192.563 249.699 192.378 248.632C192.437 248.623 192.496 248.613 192.555 248.602C193.84 248.367 194.936 247.642 195.259 246.319C195.568 245.053 195.2 243.597 194.94 242.355C194.718 241.296 194.518 239.945 193.837 239.038C196.237 235.98 197.798 232.132 198.794 228.432C199.878 224.401 200.332 220.194 200.428 216.029C200.54 211.203 200.176 206.406 199.35 201.687C199.33 200.687 199.284 199.688 199.21 198.69C198.483 188.892 195.432 177.295 185.761 172.717C185.723 172.698 185.682 172.681 185.642 172.664C184.884 171.757 183.937 170.941 183.173 170.179C181.818 168.826 180.403 167.532 178.903 166.34C175.932 163.98 172.675 162.094 169.288 160.397C165.863 158.679 162.388 157.066 159.042 155.192C156.126 153.556 153.502 151.586 151.011 149.362C148.212 146.862 146.22 143.491 145.438 139.812C145.398 139.619 145.113 139.672 145.109 139.856C144.904 146.6 149.454 152.56 154.692 156.331C160.954 160.835 168.515 162.967 174.866 167.334C176.444 168.418 177.92 169.642 179.325 170.941C177.173 170.722 174.982 170.861 172.964 171.457C172.17 171.408 171.371 171.394 170.575 171.356C168.754 171.265 166.93 171.18 165.107 171.1C161.391 170.935 157.673 170.785 153.954 170.654C146.659 170.396 139.362 170.202 132.065 170.073C117.401 169.813 102.718 169.762 88.0557 170.187C84.0796 170.301 63.1726 169.509 61.2374 169.732C64.0832 167.268 67.2057 165.256 70.6388 163.601C74.9339 161.536 79.3726 160.158 83.9592 158.899C93.405 156.305 103.214 153.805 110.773 147.217C112.651 145.579 114.32 143.696 115.687 141.61C116.993 139.619 118.444 137.07 118.48 134.642C118.506 132.918 116.106 132.29 115.252 133.767C114.722 134.682 114.46 135.686 114.027 136.646C113.596 137.597 113.085 138.514 112.516 139.391C111.399 141.116 110.013 142.654 108.504 144.043C105.289 147.006 101.393 149.177 97.362 150.819C88.2099 154.545 78.2001 156.117 69.5275 161.029C65.7332 163.178 62.1015 166.144 59.8219 169.927C59.4543 169.984 59.0888 170.052 58.7233 170.128C58.9958 169.783 59.2705 169.439 59.5472 169.096C59.7289 168.872 59.448 168.577 59.2261 168.775C54.9141 172.613 50.9423 176.758 47.3423 181.276C43.8987 185.601 40.6874 190.132 38.4141 195.196C34.3282 204.293 33.4282 214.697 35.5388 224.424C36.1134 227.074 36.9247 229.669 37.9578 232.178C38.4902 233.474 39.067 234.75 39.7092 235.995Z" fill="black"/>
<path fill-rule="evenodd" clip-rule="evenodd" d="M132.798 46.2808C144.794 46.2808 159.818 59.9701 164.215 65.7955C167.912 70.6932 167.389 95.9244 167.389 110.892C167.389 114.022 165.975 119.946 165.461 122.941C163.58 133.913 155.382 143.115 139.157 143.115C125.946 143.115 115.779 138.929 105.948 128.222C103.705 125.779 92.751 134.524 90.5108 131.375C84.6594 131.375 79.7667 76.6819 91.2551 60.2772C102.744 43.8726 120.802 46.2808 132.798 46.2808Z" fill="white"/>
<path fill-rule="evenodd" clip-rule="evenodd" d="M96.7431 50.1333C103.675 43.8245 112.909 40.7895 122.226 41.0135C127.052 41.1297 131.86 42.0491 136.417 43.6237C138.697 44.4141 140.904 45.4455 143.015 46.6122C143.775 47.0316 144.477 47.5231 145.152 48.0451L145.32 48.1762H145.322C147.133 48.8271 148.749 49.9959 150.215 51.3633C153.154 51.1287 156.116 51.3929 158.957 52.2996C162.912 53.5635 166.573 55.8778 169.144 59.1643C172.139 62.9904 173.135 67.6314 172.78 72.4224L172.714 73.2363C172.363 77.4685 171.734 82.9121 168.261 85.693C167.997 85.9043 167.706 86.0649 167.404 86.1622C169.641 89.996 171.477 94.2526 172.575 98.5515C176.769 114.971 173.545 132.095 168.502 147.921C168.088 149.225 166.117 150.091 165.114 148.817C163.322 146.539 160.719 144.801 157.791 144.476C155.985 144.275 154.187 144.639 152.48 143.819C151.81 143.495 151.164 142.967 150.699 142.324C147.817 143.417 144.714 143.933 141.635 143.806C136.584 143.599 131.184 141.849 127.709 138.011C127.151 137.395 127.009 136.703 127.138 136.079C127.574 135.924 128.021 135.808 128.482 135.735C132.889 138.334 137.747 140.07 142.968 140.179C145.985 140.242 148.927 139.82 151.373 137.936C151.903 137.528 152.389 137.076 152.839 136.591C157.953 133.3 161.559 127.71 163.273 121.722C164.871 116.138 164.674 110.324 164.125 104.596L163.835 101.574C163.413 97.1376 163.021 92.6883 162.911 88.2334L162.944 88.2317C164.024 88.1619 164.032 86.4705 162.944 86.5409C160.13 86.7231 157.338 86.2613 154.532 86.4625C154.509 85.1358 154.413 83.8151 154.024 82.5356C153.801 81.8045 152.529 81.6604 152.394 82.5356C152.214 83.7065 152.148 84.8708 152.128 86.047C147.93 85.9912 143.736 85.6378 139.537 85.783C138.763 84.9566 138.516 83.4913 138.154 82.472C138.101 82.3219 138.048 82.174 137.993 82.0239C137.675 83.4805 137.223 84.9052 136.63 86.2999L135.6 86.3034C129.757 86.3309 123.796 86.5056 118.091 87.7194C117.694 87.4148 117.458 86.8835 117.394 86.401C116.981 83.2612 116.39 80.2049 115.343 77.2128L115.194 76.7907C115.181 76.7556 115.168 76.7184 115.155 76.6793C114.384 77.9248 113.463 79.0857 112.459 80.1668C111.868 80.804 111.248 81.4133 110.611 82.0053C109.993 82.6922 109.354 83.3687 108.734 84.0577C108.759 84.1831 108.78 84.3103 108.797 84.4399C108.986 85.8696 109.006 87.3197 108.867 88.755C108.616 91.3497 107.884 93.85 106.708 96.163L106.67 96.3946C106.492 97.4786 106.238 98.5988 105.644 99.4151C106.385 100.245 106.955 101.237 107.286 102.339C107.581 103.32 106.224 104.17 105.521 103.367C104.962 102.729 104.341 102.202 103.659 101.781C103.616 101.839 103.538 101.868 103.451 101.819C101.552 100.764 98.3255 101.083 96.4283 102.077C94.0684 103.311 93.1473 105.845 93.4093 108.413C93.6607 110.867 94.7339 113.735 96.8149 114.992C97.7699 115.569 98.5135 115.618 99.5276 115.341C99.8518 115.253 100.254 114.983 100.426 114.849L100.596 114.712C101.261 114.187 101.88 113.827 102.665 113.813C103.468 113.563 104.274 113.91 104.581 114.752L104.6 114.806C104.744 115.235 105.006 115.774 104.949 116.43C104.89 117.131 104.568 117.77 104.089 118.283C104.006 118.372 103.918 118.461 103.827 118.543C112.087 127.49 113.148 141.43 108.912 152.606C108.728 153.097 108.532 153.581 108.327 154.061C107.619 155.705 104.894 155.195 104.547 153.566C104.444 153.078 104.33 152.592 104.205 152.11C103.976 151.219 103.713 150.337 103.418 149.468L103.305 149.142C103.054 148.424 102.819 147.699 102.566 146.98L102.54 146.898C102.531 146.866 102.52 146.828 102.509 146.786L102.08 147.722L100.776 150.548C100.166 151.867 98.2282 151.15 98.1561 149.879L98.1544 149.836C98.148 149.601 98.1396 149.369 98.1248 149.138C98.0318 147.411 97.7339 145.733 97.2607 144.091L97.09 144.303C94.5476 147.448 91.5638 150.395 87.4706 151.121C86.4438 151.302 85.2818 150.229 85.9875 149.191C86.279 148.762 86.56 148.322 86.8262 147.876C86.5959 147.769 86.3783 147.657 86.1776 147.542C84.6248 146.67 83.3318 145.427 82.2628 144.017C79.9959 141.029 79.1846 137.267 78.9861 133.585C78.7748 129.694 79.117 125.592 80.1797 121.838C80.6403 120.215 81.2635 118.657 81.9839 117.146C81.9332 117.011 81.8846 116.876 81.8361 116.74C81.0586 114.572 80.4206 112.355 79.8903 110.112C78.8213 105.585 78.2466 100.914 78.1769 96.2626C78.0501 87.929 79.4868 79.4623 82.5142 71.691C85.641 63.6766 90.3438 55.956 96.7431 50.1333ZM92.8497 122.994C92.2756 122.09 90.839 122.905 91.3721 123.815L91.392 123.848C92.3026 125.283 92.7293 126.915 93.2533 128.515C93.5892 129.544 95.2223 129.104 94.8821 128.064L94.7695 127.717C94.2482 126.095 93.7726 124.446 92.8497 122.994ZM97.8499 105.731L98.2314 105.546C99.4346 104.972 100.489 104.581 101.91 105.082C103.814 105.752 105.853 107.885 104.566 109.954C104.093 110.717 103.252 111.021 102.386 110.841C100.926 110.539 100.549 109.223 99.8077 108.143L99.6802 107.96C99.2284 107.307 98.657 106.404 97.9049 106.147C97.7337 106.088 97.6619 105.822 97.8499 105.731ZM98.9234 61.8001L99.0462 61.6899C99.8638 60.9671 98.6638 59.7751 97.8505 60.4937C94.1279 63.7844 92.835 68.935 90.904 73.3248C90.4709 74.3118 91.9265 75.1741 92.3638 74.1786C94.2058 69.9898 95.4284 64.9789 98.9234 61.8001ZM143.657 60.3605C142.685 59.9221 141.834 61.3381 142.769 61.8043L142.804 61.821C146.091 63.3068 147.49 66.6715 148.829 69.7952C149.256 70.7928 150.712 69.9326 150.289 68.9435L150.047 68.383C148.65 65.1638 147.02 61.8825 143.657 60.3605ZM148.81 58.3273C147.779 57.9701 147.337 59.6018 148.36 59.9589C151.146 60.929 153.058 63.0214 154.67 65.4139C155.274 66.31 156.738 65.4646 156.128 64.56C154.256 61.7829 152.034 59.4517 148.81 58.3273Z" fill="black"/>
<path fill-rule="evenodd" clip-rule="evenodd" d="M143.152 128.274C141.732 127.695 140.465 126.728 139.538 125.493C139.216 125.063 139.133 124.61 139.2 124.195C139.276 123.729 139.552 123.306 139.928 123.023C140.305 122.739 140.777 122.598 141.233 122.67C141.63 122.732 142.024 122.949 142.337 123.399L142.402 123.489C142.953 124.235 143.67 124.846 144.488 125.241C145.276 125.621 146.158 125.798 147.07 125.695C148.808 125.499 150.005 124.559 151.278 123.282C151.436 123.121 151.594 122.955 151.752 122.786C151.852 122.633 151.991 122.534 152.146 122.483C152.317 122.425 152.511 122.429 152.689 122.491C152.86 122.55 153.013 122.664 153.116 122.815C153.213 122.958 153.269 123.135 153.251 123.339C153.134 124.661 152.443 125.842 151.461 126.769C150.37 127.799 148.924 128.511 147.563 128.761C146.064 129.036 144.536 128.839 143.152 128.274ZM148.271 107.866C149.866 108.836 152.297 111.098 150.581 113.503C148.56 115.624 145.652 113.193 144.219 112.093C142.89 111.241 141.396 113.433 142.629 114.428C152.987 122.099 157.19 108.12 149.078 106.726C148.184 106.572 147.853 107.566 148.271 107.866ZM129.711 98.9429C129.887 96.7541 133.219 96.257 133.551 98.423C133.847 100.363 133.498 102.145 132.624 103.892C131.79 105.561 129.692 104.783 129.533 103.263C129.32 101.226 129.601 100.304 129.711 98.9429ZM155.076 97.9738C155.541 97.3652 156.212 96.9496 157.015 97.1845C159.526 97.9185 158.786 101.485 157.904 103.22C157.425 104.163 155.876 104.402 155.176 103.572C154.036 102.219 153.489 99.5156 154.94 98.1825C154.979 98.1136 155.023 98.044 155.076 97.9738ZM132.589 89.3654L132.986 89.2959C134.213 89.0836 135.738 88.8796 136.606 89.8665C137.067 90.3898 137.225 91.3624 136.606 91.8633C135.518 92.7446 134.314 92.4031 133.01 92.4777C131.935 92.5394 130.902 92.7174 129.867 93.0135C127.595 93.663 125.744 94.8486 123.804 96.1506C123.55 96.3213 123.29 95.9956 123.411 95.7574C124.531 93.563 126.701 91.7604 128.875 90.6616C130.036 90.0751 131.305 89.5885 132.589 89.3654ZM152.787 88.3823L153.091 88.4445C156.395 89.1353 160.687 90.5153 162.251 93.7615C162.311 94.2205 162.248 94.3189 162.197 94.3832L162.18 94.4046C162.137 94.4595 162.104 94.5351 161.905 94.5976C161.85 94.5844 161.794 94.5705 161.737 94.5557C161.02 94.3677 160.453 94.1087 159.904 93.84L159.308 93.5465C158.617 93.2076 157.92 92.881 157.181 92.6399C155.605 92.1254 153.983 91.7631 152.337 91.5696C151.98 91.5277 151.636 91.4072 151.365 91.2006C151.108 91.0046 150.911 90.7332 150.821 90.3724C150.705 89.9056 150.739 89.5521 150.989 89.1309C151.177 88.8146 151.447 88.5953 151.756 88.4694C152.071 88.3411 152.43 88.3108 152.787 88.3823Z" fill="black"/>
<path fill-rule="evenodd" clip-rule="evenodd" d="M166.085 109.758C164.662 111.67 162.025 112.279 159.593 112.068C154.347 111.563 152.696 105.603 152.524 100.97C156.042 101.96 152.226 94.9491 164.251 94.178C168.49 93.8247 167.322 96.3858 169.195 98.2571C169.156 102.184 168.503 106.452 166.085 109.758ZM141.098 105.245C138.001 119.755 121.04 116.304 119.259 103.224C120.904 102.063 120.471 99.1945 122.514 98.1553C125.754 96.0849 129.803 96.1734 133.481 96.222C138.183 96.5452 139.523 98.4936 141.938 100.619C141.822 102.039 141.487 103.722 141.098 105.245ZM172.803 91.775C172.629 91.7461 172.455 91.7188 172.281 91.6932C172.145 91.6161 171.986 91.5567 171.8 91.521C171.377 91.4134 170.956 91.3409 170.536 91.3018C164.508 89.9447 150.563 91.8716 149.987 97.0176C148.068 97.6586 146.407 97.0846 144.182 97.1416C142.488 90.0603 113.21 91.0598 111.802 95.3291C111.797 95.3276 111.792 95.3263 111.786 95.3246C110.433 94.9057 108.439 95.0068 106.89 94.9404C103.584 94.8711 100.273 95.1659 97.038 95.8636C90.9799 96.8267 82.712 97.9543 86.9253 105.522C86.9261 105.524 86.9268 105.525 86.9278 105.526L86.9285 105.526C87.6546 106.27 88.8869 105.671 88.9328 104.663C87.5162 101.077 90.7156 100.647 93.1773 99.6165C99.3026 97.4151 105.539 97.1099 111.874 97.7909C112.351 98.3522 113.074 98.8417 113.838 99.0979C118.074 99.8013 115.841 102.944 118.519 103.402C118.027 114.358 131.324 120.339 139.029 113.137C142.105 110.128 142.839 105.671 143.552 101.653C143.929 101.568 144.169 101.362 144.309 101.089C145.216 100.183 145.786 99.3466 147.579 99.0979C149.373 98.8493 150.753 99.3483 150.94 99.5011C150.987 99.596 151.038 99.6911 151.096 99.7862C151.178 99.9281 151.29 100.041 151.417 100.13C149.646 111.041 158.113 117.941 166.66 112.282C170.374 108.787 171.159 103.436 171.314 98.66C171.818 98.356 172.137 97.767 171.962 97.0264C171.722 96.0056 172.285 95.1217 173.182 94.6779C174.348 94.1016 174.142 91.9967 172.803 91.775Z" fill="black"/>
</svg>
