<svg width="260" height="324" viewBox="0 0 260 324" fill="none" xmlns="http://www.w3.org/2000/svg">
<path fill-rule="evenodd" clip-rule="evenodd" d="M137.498 128.859C148.834 128.047 164.376 130.295 167.654 143.225C168.671 147.931 170.675 149.996 174.041 153.073C195.406 180.429 120.863 185.028 117.031 158.352C108.958 161.293 100.17 161.916 92.092 164.889C87.7109 166.508 83.7382 169.062 79.9314 171.734C64.4077 182.764 49.1037 194.109 33.6353 205.218C39.6211 207.975 51.0017 218.503 46.3644 225.578C45.2841 226.956 43.6806 227.906 42.2621 228.914L41.5142 229.448C39.905 230.601 37.1962 232.568 35.6983 233.636L35.4221 233.837C35.3137 233.916 35.1916 234.004 35.0812 234.083C45.8833 249.882 58.5254 264.46 72.5485 277.475C73.7425 278.586 73.2535 281.068 71.5253 281.358L69.4664 281.66C62.8186 282.628 56.0444 283.5 49.3451 282.974C42.8206 282.264 38.8889 276.486 34.4286 272.301C25.5218 263.194 17.2306 253.479 9.67859 243.216L9.52135 242.999C7.17093 239.786 4.05121 236.502 3.82289 232.353C3.40648 231.106 4.50233 229.318 5.55528 228.468L5.91476 227.949C11.5622 219.824 17.9538 211.988 25.9616 206.103C25.9318 205.226 26.337 204.305 27.1394 203.724L60.6059 179.495C69.2408 173.551 77.2667 166.564 86.6263 161.764C96.1967 157.154 106.997 156.973 116.805 153.126C117.012 150.353 122.84 149.645 122.656 150.073C128.804 146.361 131.97 141.943 132.946 137.883C133.922 133.824 132.709 130.121 137.498 128.859ZM220.258 215.845C230.607 200.268 240.47 217.502 244.779 227.89C249.869 242.105 239.328 259.59 232.518 271.845C230.01 275.248 226.711 282.426 222.29 282.947C211.152 282.901 199.999 282.117 188.854 281.883C181.658 280.097 191.754 269.279 198.729 273.23C200.842 274.021 201.897 276.421 203.958 277.191C204.709 277.351 204.76 277.016 205.066 276.269L205.109 276.164C205.654 274.87 206.181 273.569 206.718 272.271C211.255 261.093 216.052 250.013 220.821 238.938C221.84 236.534 220.411 234.553 218.554 233.122C217.131 231.95 211.017 229.091 216.778 230.349C214.559 225.198 217.225 219.97 220.258 215.845ZM194.566 194.522C195.562 194.397 196.842 195.402 196.995 196.375C198.266 204.441 196.85 212.416 195.153 220.306L194.84 221.751C194.214 224.629 193.515 227.564 191.953 230.086C190.359 232.66 187.949 234.601 185.181 235.78C176.302 239.319 165.261 235.819 158.729 229.202C154.551 223.476 158.224 216.284 158.925 210.008C158.263 208.317 158.018 206.362 157.635 204.618L157.588 204.41L156.099 197.906C155.771 196.472 156.816 194.509 158.533 194.706C170.506 196.08 182.608 196.018 194.566 194.522Z" fill="white"/>
<path fill-rule="evenodd" clip-rule="evenodd" d="M236.38 213.807C236.344 213.646 236.536 213.524 236.661 213.644C238.767 215.675 240.254 218.271 241.888 220.676C243.443 222.967 245.135 225.169 246.295 227.697C247.372 230.047 248.067 232.431 248.274 235.014C248.481 237.578 248.213 240.148 247.761 242.673C246.871 247.648 244.97 252.359 242.883 256.935C240.853 261.383 238.56 265.705 236.139 269.948L235.271 271.463C234.212 273.308 233.142 275.148 231.996 276.935C230.57 279.159 229.269 281.454 227.388 283.31C226.053 284.63 223.537 283.31 224.145 281.422C224.409 280.6 224.616 279.826 225.026 279.063C225.337 278.482 225.688 277.918 226.017 277.345C226.676 276.2 227.329 275.05 227.988 273.904C229.372 271.497 230.83 269.134 232.201 266.719C234.58 262.53 236.826 258.262 238.812 253.871L239.045 253.352C240.873 249.285 242.604 245.073 243.407 240.674C244.252 236.039 243.495 231.67 241.85 227.314C240.998 225.061 240.041 222.859 239.046 220.665L238.855 220.246C237.894 218.152 236.875 216.07 236.38 213.807ZM134.095 133.637C134.114 133.555 134.253 133.549 134.266 133.637C134.857 137.573 133.541 141.736 131.397 145.01C130.227 146.798 128.784 148.413 127.083 149.711L126.95 149.811C125.213 151.11 122.866 152.365 120.709 151.522C120.641 151.496 120.578 151.467 120.519 151.433C120.762 151.809 120.986 152.205 121.214 152.6C121.892 153.777 122.5 154.997 123.162 156.184C124.345 158.308 125.754 160.208 127.535 161.872C134.657 168.522 144.657 170.102 154.048 170.026L154.711 170.02C158.836 169.991 164.231 170.202 167.416 167.215C169.127 165.611 170.069 163.33 170.921 161.189C171.757 159.09 172.33 156.924 173.025 154.789C171.574 153.794 170.243 152.579 169.197 151.158C168.107 149.679 167.283 148.014 166.807 146.236L166.737 145.971C166.37 144.553 166 142.678 166.592 141.339C166.66 141.185 166.913 141.195 166.985 141.339C167.304 141.98 167.365 142.702 167.562 143.387C167.79 144.184 168.048 144.976 168.388 145.731C169.045 147.194 169.913 148.584 170.955 149.802C171.815 150.81 172.746 151.735 173.811 152.513C174.438 151.429 175.894 151.283 177.113 151.64C178.747 152.118 180.359 152.731 181.934 153.379L182.249 153.509C183.806 154.155 185.566 154.749 187.024 155.631C187.909 156.053 188.758 156.478 189.557 156.854C193.536 158.724 197.456 160.709 201.359 162.731L202.195 163.165C203.83 164.017 205.45 164.877 206.872 166.065C208.319 167.274 209.443 168.927 210.5 170.476C212.915 174.018 215.19 177.662 217.577 181.223C222.398 188.409 227.219 195.595 232.068 202.764C233.241 204.499 234.563 206.192 235.615 208.001C236.623 209.73 236.596 211.505 236.399 213.435L236.362 213.789C235.986 217.329 235.338 220.728 233.353 223.764C230.228 228.536 225.305 231.507 220.098 233.553C220.734 234.027 221.331 234.538 222.09 234.864C223.256 235.363 224.5 235.621 225.762 235.724C227.107 235.832 228.624 235.496 229.715 236.411C230.152 236.776 230.165 237.656 229.715 238.021C228.666 238.877 227.312 238.632 226.035 238.488L225.958 238.48C224.773 238.349 223.605 238.129 222.491 237.694C222.217 237.586 221.944 237.465 221.68 237.332C221.688 237.356 221.693 237.383 221.688 237.413C221.498 238.869 221.086 240.246 220.651 241.637L220.374 242.519C219.812 244.32 219.246 246.116 218.663 247.912C217.553 251.332 216.345 254.72 215.132 258.103L214.085 261.023C213.01 264.018 211.921 267.009 210.717 269.954C209.974 271.772 209.226 273.589 208.48 275.405C207.751 277.178 207.145 279.093 206.241 280.782C205.497 282.172 203.469 281.177 203.794 279.748C204.221 277.874 205.026 276.014 205.641 274.19C206.266 272.338 206.879 270.485 207.515 268.637C208.62 265.428 209.845 262.262 211.077 259.099L212.297 255.963C213.494 252.891 214.705 249.821 215.999 246.788L216.14 246.456C217.485 243.284 218.873 239.717 221.317 237.259C221.348 237.225 221.393 237.208 221.437 237.203C220.837 236.878 220.275 236.483 219.781 236.016L219.757 235.991C219.561 235.784 218.754 234.764 218.494 234.154C218.156 234.274 217.818 234.39 217.48 234.504C216.891 234.703 216.403 234.559 216.058 234.244L215.402 234.651C214.701 235.079 213.947 235.485 213.172 235.506C212.196 235.532 211.429 234.993 210.907 234.198C210.438 233.488 210.16 232.721 209.566 232.084C208.982 231.459 208.307 230.931 207.616 230.428L206.802 229.835C205.31 228.745 203.863 227.644 202.662 226.205C202.057 225.478 201.248 224.615 200.881 223.742C200.809 223.574 200.765 223.415 200.756 223.261C200.676 223.806 200.593 224.353 200.511 224.899C199.357 232.573 198.426 240.3 198.128 248.06C197.982 251.888 197.917 255.72 198.088 259.549C198.172 261.462 198.312 263.373 198.504 265.279C198.599 266.234 198.698 267.188 198.815 268.139L198.841 268.359C198.875 268.65 198.897 268.932 198.872 269.2C199.801 269.658 200.336 270.817 200.707 271.721C200.991 272.41 200.771 273.08 200.315 273.564C200.86 274.061 201.346 274.644 201.753 275.312C201.836 275.447 201.658 275.553 201.553 275.468C200.883 274.936 200.162 274.498 199.41 274.162C199.015 274.312 198.584 274.352 198.187 274.243C197.756 274.124 197.384 273.837 197.116 273.471C194.98 273.12 192.76 273.549 190.837 274.887C190.438 275.166 190.077 275.481 189.732 275.823C189.673 275.883 189.612 275.959 189.55 276.033L189.97 276.194C190.144 276.26 190.286 276.311 190.341 276.322C190.707 276.397 191.079 276.437 191.45 276.469L192.007 276.515C194.148 276.692 196.281 276.751 198.272 277.647C198.69 277.835 198.544 278.48 198.149 278.588C196.696 278.982 195.254 278.952 193.774 278.846L193.457 278.822C192.081 278.717 190.605 278.723 189.263 278.343C189.584 279.222 189.147 280.37 187.805 280.549C183.777 281.086 179.722 280.833 175.689 280.477C171.616 280.118 167.545 279.778 163.461 279.565C150.251 278.869 137.021 279.003 123.8 279.192L116.328 279.3C110.369 279.384 104.41 279.449 98.4515 279.404L95.6625 279.378C94.4838 279.366 93.3044 279.352 92.127 279.317L91.4209 279.294C90.018 279.243 88.161 279.454 86.942 278.624C85.9364 277.939 85.7124 276.684 86.3187 275.671C86.4941 275.38 86.7349 275.12 86.9864 274.866C87.5018 270.46 87.7913 266.032 88.0871 261.606C89.1138 246.118 88.5138 230.711 86.1455 215.379C79.7906 217.322 73.5328 219.759 67.4357 222.373C64.1378 223.787 60.8568 225.254 57.6138 226.792C54.654 228.198 51.6814 229.954 48.5187 230.867C48.2313 231.122 47.8293 231.244 47.4727 231.131L47.4265 231.114H47.4244C47.099 231.19 46.7378 231.144 46.3828 230.931C46.311 230.887 46.2392 230.843 46.1673 230.798L46.0596 230.73C44.9462 230.028 43.8265 229.164 43.0385 228.107C42.0814 228.995 41.0526 229.808 40.0406 230.632C38.942 231.529 37.8476 232.429 36.7617 233.338C36.3307 233.699 35.8554 234.044 35.4751 234.46L35.4198 234.521C35.411 234.531 35.4026 234.541 35.3948 234.551C37.0406 235.616 38.4814 237.233 39.7723 238.638C41.1584 240.147 42.4966 241.703 43.8239 243.266L45.1088 244.782C54.1946 255.515 63.3734 266.637 75.1364 274.526C76.9955 275.773 75.223 278.81 73.3765 277.535C69.8821 275.128 66.5758 272.454 63.4004 269.641C57.8356 264.715 52.8286 259.188 48.1406 253.429C45.768 250.514 43.4652 247.528 41.2089 244.522L40.4431 243.503C39.4226 242.143 38.4075 240.779 37.4356 239.385L37.2323 239.092C36.3799 237.862 35.4734 236.479 34.9237 235.062C34.7124 235.276 34.4737 235.455 34.1251 235.591C33.5293 235.823 32.7983 235.335 32.6526 234.754C32.2976 233.344 33.523 232.505 34.5202 231.757C35.7307 230.852 36.9645 229.979 38.2004 229.111L38.6419 228.799C40.1874 227.702 41.7411 226.577 43.4251 225.71C43.4758 225.643 43.5371 225.579 43.6068 225.524C43.6871 225.461 43.7652 225.399 43.8455 225.338C41.8342 222.075 39.6286 218.938 37.1673 215.975C35.3166 213.746 33.3518 211.617 31.273 209.601L30.3391 208.696C28.9265 207.332 27.4577 205.947 25.8899 204.761L25.3991 205.318C24.7437 206.059 24.0819 206.795 23.3821 207.492C22.0047 208.861 20.6462 210.259 19.2941 211.655C17.0486 213.98 14.8792 216.375 12.7167 218.774L11.6357 219.974C9.38354 222.474 6.97086 224.928 4.92368 227.599L4.82144 227.735C3.92769 228.934 3.29146 230.261 3.70678 231.784C4.10751 233.253 5.06025 234.555 5.88146 235.823L5.96312 235.95C9.31593 241.175 12.9075 246.266 16.7547 251.138C24.4596 260.896 33.2483 270.144 43.7357 276.929C45.1892 277.869 43.8307 280.207 42.3751 279.256C36.2504 275.251 30.6244 270.441 25.4483 265.275C20.6969 260.534 16.3913 255.314 12.3561 249.956C10.3892 247.342 8.50467 244.673 6.69833 241.944C4.94692 239.296 2.92086 236.572 1.65114 233.651C0.985704 232.114 0.740581 230.451 1.28565 228.832C1.78552 227.344 2.77409 226.108 3.80251 224.946L3.89903 224.837C6.26312 222.181 8.66945 219.556 11.0969 216.956C13.5328 214.348 16.0807 211.833 18.6814 209.392C20.7244 207.471 22.854 205.777 25.1314 204.209C24.9265 204.064 24.7216 203.924 24.5124 203.789C23.8765 203.375 23.7159 202.489 24.2737 201.927C25.7969 200.388 27.5526 199.05 29.2047 197.649C30.7575 196.332 32.3103 195.014 33.8631 193.695C37.0237 191.015 40.1842 188.333 43.3448 185.651C49.0216 180.834 54.6666 175.984 60.3244 171.146C62.6835 169.129 65.0647 167.138 67.4398 165.14L71.6594 161.588L73.7233 159.854C74.7807 158.968 75.8606 158.092 77.0631 157.417C79.8925 155.827 83.294 155.139 86.4114 154.296L86.6188 154.24C90.1152 153.283 93.6307 152.382 97.1652 151.579C100.704 150.776 104.257 150.045 107.826 149.383C111.033 148.787 114.316 148.276 117.586 148.2C118.398 147.891 119.416 147.783 120.215 148.113C120.544 148.25 120.888 148.451 121.195 148.705C122.794 148.142 124.372 147.874 125.866 146.923C127.357 145.974 128.678 144.727 129.789 143.353C132.086 140.509 133.288 137.148 134.095 133.637ZM170.858 229.969C169.59 229.88 168.449 230.404 167.317 230.962C167.955 231.239 168.593 231.514 169.231 231.786L173.477 233.6C174.88 234.198 176.365 234.718 177.698 235.455C177.793 235.508 177.87 235.572 177.927 235.646C179.312 234.758 180.779 233.966 182.184 233.122C182.505 232.93 182.828 232.738 183.151 232.545C181.478 233.105 179.762 233.386 177.946 232.86C175.522 232.161 173.418 230.149 170.858 229.969ZM174.331 225.717L174.103 225.562C172.874 224.718 171.406 223.633 169.913 224.391C169.21 224.749 168.633 225.326 167.94 225.71C167.243 226.099 166.476 226.397 165.698 226.577C164.407 226.875 162.929 226.919 161.541 226.631L161.562 228.508C162.612 228.942 163.655 229.386 164.699 229.834C165.377 229.602 166.029 229.324 166.714 229.018L167.177 228.811C168.498 228.217 169.831 227.82 171.291 228.008C174.039 228.361 176.116 230.404 178.744 231.085C181.966 231.922 184.873 229.517 187.917 228.923C188.419 228.824 188.937 228.766 189.451 228.757L189.622 228.756L189.698 228.711C190.353 228.327 191.334 227.959 191.79 227.312C192.286 226.611 192.329 225.435 192.491 224.611C192.508 224.529 192.525 224.444 192.54 224.362C192.253 224.362 191.961 224.376 191.665 224.432C190.736 224.603 189.861 224.932 188.995 225.3C187.357 225.996 185.756 226.788 184.032 227.251C182.344 227.705 180.58 227.921 178.841 227.669C177.145 227.424 175.736 226.659 174.331 225.717ZM174.595 219.118L174.341 218.954C173.669 218.525 172.899 218.081 172.076 218.239C171.341 218.381 170.709 218.966 170.069 219.327C168.664 220.12 167.088 220.553 165.481 220.663C164.143 220.754 162.755 220.591 161.469 220.194L161.513 224.349C161.984 224.499 162.472 224.607 162.986 224.645C164.545 224.761 166.066 224.387 167.374 223.527L168.035 223.088C169.167 222.343 170.229 221.753 171.728 222.024C173.211 222.295 174.455 223.246 175.668 224.074L175.867 224.208C177.259 225.128 178.671 225.721 180.379 225.736C182.224 225.75 184.047 225.237 185.764 224.605C187.469 223.979 189.09 223.229 190.913 222.999C191.471 222.929 192.151 222.908 192.791 223.018C192.876 222.546 192.956 222.077 193.032 221.606C193.197 220.593 193.338 219.583 193.461 218.571C190.226 217.7 187.239 220.517 184.235 221.386C182.492 221.889 180.595 221.883 178.852 221.397C177.239 220.946 175.971 220.012 174.595 219.118ZM174.603 212.12C173.912 211.987 173.23 212.306 172.643 212.634C171.145 213.465 169.852 214.621 168.155 215.058C165.973 215.62 163.586 215.136 161.418 214.217C161.427 215.5 161.437 216.783 161.448 218.066C161.855 218.22 162.274 218.345 162.7 218.444C164.217 218.79 165.825 218.744 167.319 218.306C168.842 217.86 170.01 216.656 171.538 216.28C173.1 215.894 174.572 216.645 175.831 217.498L176.21 217.757C177.648 218.733 179.044 219.582 180.844 219.748C182.748 219.923 184.402 219.327 186.103 218.537L186.498 218.354C188.652 217.364 191.447 216.238 193.596 217.364C193.765 215.766 193.888 214.168 193.97 212.568C193.674 212.458 193.368 212.378 193.015 212.376C192.172 212.372 191.287 212.638 190.501 212.915C188.784 213.522 187.184 214.426 185.484 215.075C183.872 215.692 182.086 216.013 180.367 215.737C178.774 215.481 177.578 214.648 176.477 213.507L176.317 213.338C175.835 212.824 175.318 212.259 174.603 212.12ZM175.865 206.188C175.068 205.767 174.099 205.376 173.177 205.499C172.299 205.615 171.713 206.211 171.172 206.849L170.878 207.198C169.91 208.344 168.957 209.307 167.465 209.779C165.918 210.265 164.279 210.074 162.84 209.362C162.329 209.109 161.853 208.794 161.376 208.483L161.401 211.854C162.356 212.329 163.328 212.759 164.395 213.019C166.364 213.498 168.037 213.143 169.721 212.057L169.898 211.942C171.166 211.109 172.466 210.117 174.033 210.024C175.562 209.932 176.709 210.78 177.716 211.818L177.834 211.941C179.103 213.28 180.386 213.934 182.275 213.779C184.106 213.63 185.819 212.821 187.497 212.124L187.649 212.061C189.183 211.431 190.951 210.782 192.635 211.023C193.039 211.08 193.561 211.205 194.025 211.423C194.093 209.846 194.125 208.267 194.131 206.687C193.174 205.856 191.684 205.719 190.487 206.059C188.61 206.591 187.075 207.965 185.283 208.711C183.694 209.373 182.038 209.521 180.418 208.895C178.744 208.248 177.432 207.016 175.865 206.188ZM194.025 199.547C191.221 199.644 188.479 201.468 185.802 202.164C182.812 202.94 180.372 201.882 177.708 200.707L177.364 200.556C175.998 199.955 174.529 199.416 173.014 199.661C171.538 199.902 170.232 200.72 168.962 201.46L168.719 201.6C166.406 202.917 164.051 203.819 161.35 203.594C161.365 204.442 161.359 205.287 161.361 206.116C161.805 206.37 162.231 206.657 162.637 206.919L162.783 207.011C164.07 207.817 165.397 208.346 166.932 207.849C168.415 207.367 169.112 206.076 170.131 205.013C171.067 204.036 172.288 203.443 173.657 203.499C175.129 203.558 176.521 204.207 177.738 205C178.955 205.793 180.132 206.817 181.556 207.215C184.75 208.102 187.486 204.723 190.507 204.197C191.775 203.975 193.174 204.256 194.131 205.021C194.12 203.199 194.08 201.373 194.025 199.547ZM169.894 198.782C169.499 198.797 169.104 198.814 168.709 198.831C167.247 198.894 165.785 198.966 164.323 199.048C163.311 199.103 162.067 199.414 161.074 199.105C161.048 199.207 161.015 199.304 160.97 199.399C161.12 200.147 161.213 200.921 161.27 201.703C162.187 201.802 163.119 201.768 164.023 201.58C166.193 201.13 167.955 199.761 169.894 198.782ZM193.983 198.154C188.644 198.522 183.265 198.396 177.917 198.511L177.276 198.526C177.25 198.526 177.225 198.529 177.2 198.529C177.813 198.766 178.421 199.038 179.028 199.316L179.633 199.594C181.066 200.253 182.524 200.792 184.127 200.676C185.845 200.551 187.463 199.849 189.069 199.283C190.6 198.742 192.364 198.378 193.998 198.615C193.993 198.461 193.989 198.309 193.983 198.154Z" fill="black"/>
<path fill-rule="evenodd" clip-rule="evenodd" d="M185.731 90.9295C185.489 86.3045 185.277 81.5257 184.391 76.9715C183.956 74.739 183.087 72.6779 181.681 70.8859C180.395 69.246 178.776 67.9741 177.134 66.7109C173.834 64.1719 170.661 61.3609 166.967 59.3971C163.423 57.5127 159.591 56.3752 155.62 55.8644C147.973 54.8805 139.94 56.5181 133.299 60.4469C126.858 64.2579 121.68 70.1721 118.475 76.9148C116.883 80.2656 115.687 83.8019 115.042 87.4589C114.274 91.8182 114.344 96.1898 114.371 100.598C114.381 102.079 114.368 103.56 114.294 105.038C114.174 105.755 114.107 106.482 114.108 107.261C112.65 109.18 112.057 111.745 112.971 114.108C114.428 117.878 118.564 119.592 122.318 118.934C122.486 119.914 122.891 120.88 123.396 121.82C124.258 123.426 125.222 125 126.245 126.508C128.361 129.629 130.776 132.458 133.657 134.899C139.369 139.738 146.605 142.908 154.109 143.367C160.941 143.785 168.146 141.841 173.717 137.832C176.609 135.751 179.112 133.201 180.971 130.148C183.143 126.581 184.322 122.474 184.933 118.369C186.276 109.357 186.204 100.008 185.731 90.9295Z" fill="white"/>
<path fill-rule="evenodd" clip-rule="evenodd" d="M131.859 43.1346C131.601 40.2239 134.283 38.0339 136.771 38.849C137.228 38.9059 137.672 39.05 138.068 39.2924C139.214 39.9922 139.464 41.1208 139.165 42.0964C139.703 42.5024 140.126 43.0528 140.339 43.7166C140.559 44.4006 140.536 45.064 140.329 45.642C141.11 46.158 141.7 46.9364 141.837 47.9007C141.902 48.3587 141.876 48.8129 141.767 49.2304C142.949 49.6317 143.913 50.5308 143.899 51.8913C144.585 51.9352 145.273 51.9449 145.972 51.906C146.072 51.6243 146.194 51.3496 146.376 51.0966C146.742 50.5869 147.263 50.2368 147.839 50.0185L147.918 49.9895L147.917 49.8348C147.475 49.3455 147.269 48.7284 147.739 48.0563C147.819 47.9411 147.918 47.846 148.027 47.7644C148.066 47.4728 148.129 47.1841 148.206 46.9002C147.817 46.357 147.859 45.4558 148.513 45.1862C148.422 44.6565 148.416 44.1072 148.514 43.5537C148.918 41.2859 151.105 39.7414 153.36 39.828C153.642 39.8388 153.917 39.8813 154.182 39.9489C154.731 40.0064 155.277 40.1292 155.814 40.3118C156.434 40.5227 156.594 41.0405 156.457 41.4782C157.299 42.6041 157.538 44.1336 156.69 45.5083C156.658 45.5605 156.623 45.6101 156.588 45.6602C156.758 45.7881 156.906 45.9567 157.015 46.1734C157.291 46.7187 157.223 47.4106 156.802 47.8657C156.69 47.987 156.545 48.0781 156.387 48.1366L156.384 48.1814C156.329 48.9116 156.213 49.6438 155.994 50.3334C156.886 51.1625 157.479 52.2909 157.584 53.5068C157.917 53.5377 158.249 53.5738 158.581 53.6114C158.63 53.2781 158.832 52.978 159.139 52.7455C159.395 52.5511 159.669 52.3955 159.951 52.2791C160.086 51.5801 160.418 50.9106 160.979 50.3793C161.187 50.1823 161.414 50.0085 161.656 49.8591C161.642 49.1014 161.811 48.3444 162.23 47.6275C162.579 47.0313 163.088 46.5988 163.667 46.3236C164.089 45.474 164.872 44.7808 166.01 44.3868C166.861 44.0926 167.761 44.4423 168.408 44.9922L168.553 45.119C169.146 45.6429 169.361 46.6056 169.142 47.3483C169.039 47.6972 168.867 48.1049 168.618 48.4361C168.881 49.5979 168.357 50.5671 167.554 51.1118C167.829 51.5024 168.059 51.9356 168.254 52.3983C168.591 53.1982 168.212 54.1943 167.605 54.8246C167.871 55.2486 168.043 55.7431 168.107 56.2398C168.378 56.2556 168.647 56.3038 168.912 56.3793C169.056 55.8906 169.327 55.4364 169.741 55.0655C169.922 54.7111 170.138 54.3812 170.379 54.0927C170.759 53.6374 171.251 53.3094 171.788 53.1758C171.86 53.007 171.961 52.8453 172.088 52.6976C171.96 51.2164 172.941 49.6871 174.452 49.6858C174.559 49.3405 174.689 48.9989 174.846 48.6639C175.152 48.0068 175.801 47.6133 176.504 47.484C176.918 46.4767 177.729 45.7441 179.123 45.622C182.235 45.3493 184.193 49.1249 183.433 51.8357C183.207 52.6409 182.678 53.3819 181.975 53.8369C181.792 53.9559 181.606 54.0424 181.419 54.1138C181.232 54.3757 180.979 54.6084 180.655 54.798C180.583 54.84 180.509 54.8778 180.433 54.9117C180.441 56.1214 179.606 57.1053 178.57 57.4183C178.636 58.181 178.441 58.9457 177.862 59.5366L177.821 59.5763L177.737 59.6518L177.73 59.6852C177.936 60.2161 177.914 60.8009 177.619 61.2822C177.645 61.7243 177.723 62.1565 177.871 62.5674C178.443 63.0305 178.948 63.5624 179.4 64.1398C179.701 63.8668 180.156 63.7436 180.55 63.8928C180.659 63.8556 180.772 63.8315 180.88 63.8207C181.059 63.8025 181.235 63.8032 181.408 63.8158C181.488 63.6998 181.579 63.5895 181.684 63.4861C182.419 62.7593 183.486 62.7743 184.332 63.2258C184.484 63.1152 184.655 63.0176 184.848 62.9358C187.007 62.0255 188.422 64.7657 188.632 66.4736C188.747 67.4054 187.945 67.9801 187.123 68.0285C186.955 68.5934 186.419 69.0001 185.819 69.1381C185.926 69.8359 185.463 70.5482 184.833 70.8137C184.552 70.9322 184.28 70.9646 184.024 70.9301L184.036 71.0954C184.086 71.7508 183.755 72.168 183.301 72.3529C183.221 72.6776 182.999 72.913 182.722 73.0337C183.782 75.4904 184.619 78.0642 185.294 80.6028C186.408 84.7934 187.157 89.0604 187.66 93.366C188.544 100.935 188.578 108.66 187.693 116.232C187.243 120.085 186.495 123.852 184.964 127.43C183.688 130.415 181.912 133.006 179.869 135.513C175.809 140.491 169.997 144.159 163.592 145.07C160.23 145.548 156.782 145.393 153.501 144.476C150.234 143.564 146.751 141.999 144.693 139.221C144.135 138.468 144.407 137.248 145.027 136.627C145.735 135.919 146.755 135.873 147.619 136.293C149.153 137.037 150.532 138.054 152.092 138.764C153.499 139.405 155.021 139.816 156.536 140.106C159.537 140.68 162.801 140.533 165.793 139.732C171.22 138.28 176.001 134.774 179.037 130.046C182.622 124.461 183.902 117.916 184.488 111.394C185.129 104.255 185.063 97.0175 184.212 89.8988C183.79 86.3686 183.141 82.8701 182.373 79.4004C181.826 76.9299 181.209 74.4759 180.628 72.0139C180.101 71.5111 179.592 70.9918 179.102 70.4537L179.087 70.4527C179.024 70.4681 178.96 70.4797 178.891 70.485C175.976 70.7073 172.817 70.4146 170.331 68.7344C169.321 68.0515 168.466 67.1871 167.83 66.1918C166.936 65.5724 166.122 64.7908 165.511 63.8877C165.077 63.4117 164.666 62.9144 164.276 62.399C163.303 61.1144 162.786 59.7662 162.207 58.284C162.193 58.2499 162.184 58.2165 162.177 58.1838C162.066 58.0022 161.988 57.8034 161.95 57.6026C160.656 57.4489 159.357 57.347 158.07 57.2858C157.615 57.2642 157.158 57.2471 156.701 57.2323C156.821 57.6789 156.893 58.1421 156.909 58.6179C157.278 58.6344 157.654 58.6773 158.039 58.7388C159.844 59.0264 161.002 59.9513 162.099 61.4005C163.166 62.8111 164.017 64.5076 164.649 66.1576C165.036 67.1679 164.519 68.2846 163.67 68.935C161.464 69.1224 159.296 69.5967 157.266 70.5364C157.194 70.5695 157.143 70.6277 157.108 70.6961C155.487 71.1793 153.854 71.6212 152.222 71.9964C150.646 72.3586 149.054 72.5093 147.47 72.1097C146.789 71.9378 146.123 71.6834 145.468 71.398C145.116 71.4407 144.734 71.3735 144.347 71.1512C143.76 70.8149 143.169 70.4472 142.588 70.0515C141.561 69.5587 140.55 69.0292 139.585 68.4241L139.58 68.4167C138.81 67.4828 137.712 66.5313 136.483 65.8108C136.347 65.603 136.227 65.3845 136.131 65.1509C135.602 63.864 135.823 62.3074 136.939 61.4223C136.955 61.1169 137.088 60.8178 137.383 60.578C137.616 60.388 137.856 60.2075 138.102 60.0354C138.051 59.9972 137.999 59.9602 137.948 59.9211C137.846 59.8444 137.749 59.7617 137.654 59.6766C136.909 60.0849 136.158 60.4845 135.389 60.8405C135.37 60.8546 135.351 60.8696 135.331 60.8829C133.886 61.8317 132.519 62.9214 131.056 63.8357C130.705 64.0545 130.357 64.2667 130.01 64.4795C129.88 64.6568 129.754 64.8367 129.631 65.0199C129.579 65.3018 129.499 65.5834 129.4 65.8575C129.591 66.0099 129.747 66.2107 129.853 66.4486C130.308 66.6217 130.735 66.8413 131.135 67.1032L131.488 67.2602C131.943 66.8954 132.424 66.5657 132.94 66.2916C134.561 66.3969 136.312 67.5455 137.544 68.7166C137.63 68.8139 137.714 68.9119 137.795 69.0115C137.873 69.0745 137.951 69.1414 138.029 69.2072C138.157 69.3443 138.276 69.48 138.385 69.6121C138.507 69.7607 138.645 69.8425 138.786 69.8767C139.54 70.5852 140.247 71.3824 140.73 72.2107C141.506 73.5405 140.962 75.1981 140.394 76.503C140.301 76.716 140.203 76.9257 140.101 77.133C139.014 78.5971 137.984 80.1021 136.955 81.6075C136.261 82.2781 135.573 82.953 134.914 83.6547C134.806 83.7269 134.692 83.7963 134.568 83.8605C132.65 84.8478 130.795 83.7364 128.969 83.0443L128.765 82.9688C126.882 82.2878 124.538 81.8402 124.419 79.3877C124.403 79.0536 124.416 78.7112 124.449 78.365C124.913 77.1362 125.444 75.93 126.036 74.7551C125.917 74.626 125.81 74.4829 125.719 74.3233C125.529 74.0816 125.369 73.8207 125.248 73.5456C124.373 75.2207 123.54 77.0174 122.416 78.4871C121.797 79.2973 121.025 79.5891 120.207 79.5872C119.861 79.7616 119.474 79.8201 119.102 79.7762L119.142 80.2245C119.176 80.5984 119.215 80.9719 119.273 81.3385C120.065 81.3256 120.892 81.5426 121.63 81.8345C123.794 82.6907 125.88 83.8764 127.968 84.9042C128.977 85.4004 130.362 85.8164 131.186 86.5914C131.817 87.1859 131.745 87.9222 131.505 88.6882C131.464 88.8188 131.419 88.9484 131.376 89.0783L131.374 89.1208C130.7 89.9694 130.239 90.982 129.905 92.0273C129.358 92.9572 128.976 94.0009 128.717 95.0236C128.506 95.8546 128.356 96.7025 128.259 97.5585L128.234 97.7921L128.22 97.8196L128.213 98.0214C128.074 99.5286 128.09 101.055 128.216 102.55C128.251 102.966 128.294 103.383 128.349 103.798C128.113 104.534 126.996 104.637 126.417 104.185C125.779 103.688 125.11 103.236 124.415 102.828C123.467 103.26 122.371 103.333 121.312 102.979C121.236 102.954 121.164 102.924 121.092 102.895C120.298 102.994 119.512 103.179 118.76 103.398L118.534 103.465C117.334 103.826 116.191 104.278 115.287 105.195C113.682 106.825 113.165 109.459 113.493 111.664C113.811 113.809 115.056 116.261 117.298 116.885C118.215 117.14 119.204 117.133 120.096 116.776C120.435 116.641 120.726 116.444 121.012 116.229C121.363 115.964 121.64 115.667 122.057 115.499C122.438 115.346 123.095 115.358 123.28 115.349C123.86 115.321 124.351 115.775 124.522 116.295C125.042 117.88 124.261 119.045 123.005 119.824C123.533 120.624 124.028 121.46 124.551 122.216C125.529 123.629 126.561 124.994 127.63 126.337C128.728 127.717 129.899 129.03 131.175 130.247C131.751 130.797 132.344 131.328 132.955 131.839L133.293 132.118C133.863 132.594 134.362 133.079 134.342 133.911C134.331 134.376 134.022 134.809 133.564 134.933C131.945 135.371 130.247 133.247 129.192 132.158L129.109 132.073C127.833 130.781 126.645 129.393 125.571 127.927C124.464 126.417 123.558 124.748 122.827 123.027C122.488 122.227 122.119 121.313 121.858 120.388C120.451 120.934 118.817 121.129 117.698 121.001C116.666 120.883 115.723 120.586 114.872 120.153C114.698 120.543 114.464 120.906 114.179 121.208C113.125 122.328 111.59 122.647 110.103 122.633C108.199 122.616 106.491 121.415 106.422 119.389C106.377 118.075 107.057 116.948 108.05 116.179C108.418 115.27 109.117 114.521 110.13 114.277C109.46 112.204 109.342 109.92 109.846 107.827C110.344 105.755 111.482 103.792 113.165 102.499L113.261 102.427L113.221 102.448C112.823 102.667 112.435 102.904 112.042 103.13L111.865 103.231C110.118 104.218 108.094 105.066 106.06 104.538C102.831 103.7 102.552 99.6716 105.33 98.0816C106.29 97.5321 107.399 97.3248 108.494 97.1874C108.668 96.9617 108.873 96.7601 109.1 96.5969C109.134 95.8565 109.506 95.1164 110.165 94.6514C110.836 94.1772 111.591 94.1302 112.293 94.3479C112.555 94.1514 112.838 93.9793 113.15 93.8449C113.421 93.7278 113.696 93.6429 113.971 93.5841C113.966 93.363 113.964 93.142 113.96 92.9207C113.916 92.7146 113.89 92.4986 113.862 92.274C113.812 92.2655 113.762 92.2575 113.713 92.2469C112.998 92.0905 112.352 91.7695 111.789 91.3366C110.889 91.9054 109.797 92.1205 108.498 91.7359C107.293 91.3787 106.156 90.2564 105.594 88.967C104.824 88.812 104.077 88.5869 103.422 88.16C102.21 88.4483 100.903 87.9821 100.412 86.7266C100.047 85.7959 100.486 84.6706 101.267 84.0936C101.494 83.9256 101.74 83.9571 101.936 84.0871C101.982 83.936 102.037 83.7863 102.103 83.6401C102.13 83.5811 102.159 83.5236 102.189 83.4664C102.16 82.2333 102.607 81.0413 103.726 80.3798C104.556 79.8888 105.547 79.8354 106.439 80.119C106.93 79.6618 107.551 79.3127 108.322 79.121C109.679 78.7837 111.107 79.1683 112.072 80.186C112.281 80.1245 112.497 80.0807 112.719 80.053C112.799 79.4854 112.992 78.9394 113.395 78.5134C113.684 78.2075 114.031 77.9641 114.405 77.7933C114.576 77.1501 114.857 76.5744 115.326 76.0926C115.097 75.8987 114.888 75.6806 114.71 75.438C114.513 75.405 114.317 75.3625 114.126 75.3013C113.106 74.9734 112.402 74.3301 111.925 73.5282C111.041 73.7546 110.105 73.6717 109.186 73.0945C108.521 72.6771 108.019 72.0097 107.755 71.264L107 70.9992C106.288 70.7473 105.777 70.2768 105.485 69.717C105.115 69.8503 104.706 69.8455 104.373 69.5885C102.424 68.0828 103.755 65.588 105.842 65.0926C106.691 64.8912 107.433 65.006 108.092 65.3131C108.561 64.861 109.149 64.5215 109.823 64.3685C110.608 64.1901 111.435 64.321 112.16 64.6676L112.347 64.6651C113.077 64.1229 114.013 63.8801 115.158 64.142C116.454 64.4385 117.337 65.164 117.936 66.109C118.128 65.9351 118.345 65.7818 118.581 65.6531C119.251 65.2883 119.967 65.1983 120.653 65.3124C120.883 64.9836 121.12 64.6591 121.364 64.3404C120.785 63.8879 120.389 63.186 120.368 62.4072C120.193 62.2981 120.023 62.1741 119.861 62.0599C119.068 61.5014 118.396 60.8009 118.09 59.8594C117.938 59.3897 117.882 58.9003 117.9 58.4095C117.815 58.3909 117.73 58.371 117.646 58.3469C114.276 57.3773 112.879 52.7312 115.542 50.2376C116.941 48.9281 119.067 49.6697 120.45 50.6367C121.393 51.2961 122.143 52.1159 122.822 53.0218C122.854 53.0283 122.885 53.0304 122.917 53.0382C123.892 53.2688 124.668 53.8946 125.241 54.6948C126.253 54.519 127.33 54.7145 128.29 55.4172C128.99 55.9295 129.429 56.5636 129.658 57.2526C130.567 56.7779 131.503 56.3617 132.459 55.9942C132.522 55.8435 132.587 55.6926 132.663 55.5427C132.811 55.2517 133.003 54.9987 133.226 54.7848C132.983 54.5126 132.767 54.2085 132.594 53.8701C131.771 52.2651 132.068 50.6407 132.978 49.4117C132.58 48.5156 132.458 47.4994 132.693 46.5327C132.737 46.3532 132.792 46.1808 132.857 46.0149C132.305 45.154 131.951 44.1632 131.859 43.1346ZM117.084 108.059C117.668 107.917 117.805 107.731 118.462 107.784C118.971 107.826 119.491 107.913 119.984 108.041C121.16 108.345 122.258 108.961 123.225 109.686C124.596 110.715 122.955 112.627 121.863 111.53L121.83 111.496C121.096 110.709 120.272 110.094 119.35 109.545C118.882 109.268 118.4 109.067 117.911 108.834C117.573 108.672 117.378 108.408 117.06 108.24C116.985 108.201 117.003 108.079 117.084 108.059ZM120.228 92.568C119.905 92.4541 119.535 92.6973 119.448 93.0108C119.356 93.3485 119.552 93.6539 119.857 93.7776L119.891 93.7906C120.305 93.9366 120.682 94.1792 121.004 94.4763L121.072 94.5407C121.657 95.1097 122.555 94.214 121.968 93.644C121.471 93.1606 120.881 92.7983 120.228 92.568ZM135.392 69.4858C135.059 68.7558 133.994 69.3687 134.283 70.0918L134.298 70.1257C134.598 70.7832 134.475 71.5461 134.147 72.1654L134.115 72.2249C133.717 72.938 134.811 73.5781 135.21 72.8648C135.801 71.8064 135.899 70.5945 135.392 69.4858ZM144.598 60.3974L144.583 60.3244C144.433 59.5231 143.211 59.8623 143.361 60.6612C143.609 61.9896 144.574 62.8623 145.811 63.2955C146.583 63.5656 146.914 62.3411 146.148 62.0726C145.328 61.7856 144.78 61.2416 144.598 60.3974ZM164.573 59.1143L164.357 59.105L164.521 59.3214C164.537 59.2519 164.554 59.1828 164.573 59.1143Z" fill="black"/>
<path fill-rule="evenodd" clip-rule="evenodd" d="M164.271 120.836C166.24 120.13 168.331 120.396 170.318 121.129L170.496 121.196C172.321 121.892 174.551 123.101 175.298 124.989C175.445 125.363 175.515 125.746 175.524 126.127C175.768 126.151 176.01 126.183 176.25 126.225C176.743 126.312 176.72 127.096 176.25 127.199C175.952 127.265 175.648 127.312 175.342 127.348C175.059 128.229 174.473 129.028 173.733 129.588C172.002 130.9 169.615 131.147 167.521 131.348C165.206 131.57 162.879 131.515 160.572 131.235L159.76 131.131C157.872 130.885 155.765 130.57 154.16 129.559C152.648 128.608 151.614 126.771 152.254 124.987C152.909 123.16 155.155 122.385 156.822 121.798C159.217 120.955 161.766 120.625 164.271 120.836ZM160.929 126.959C160.953 127.492 160.973 128.027 160.994 128.561C161 128.725 160.953 128.873 160.873 129.001C162.018 129.135 163.174 129.199 164.326 129.198C164.116 128.561 164.104 127.829 164.092 127.149C163.037 127.097 161.983 127.036 160.929 126.959ZM165.171 127.199L165.263 127.544C165.405 128.085 165.535 128.641 165.515 129.175C166.053 129.154 166.588 129.122 167.121 129.076L167.8 129.018C167.955 129.005 168.111 128.991 168.269 128.976C168.304 128.423 168.369 127.862 168.426 127.309C167.341 127.28 166.256 127.245 165.171 127.199ZM169.477 127.333C169.526 127.822 169.572 128.322 169.592 128.817C170.464 128.681 171.319 128.469 172.05 128.096C172.418 127.907 172.712 127.68 172.932 127.428C172.194 127.411 171.458 127.373 170.744 127.362C170.603 127.359 170.462 127.357 170.321 127.353L169.477 127.333ZM154.328 126.208C154.385 127.229 155.997 127.957 156.827 128.196C157.619 128.425 158.425 128.611 159.24 128.758C159.224 128.69 159.217 128.623 159.222 128.561C159.274 127.985 159.325 127.41 159.379 126.835L158.942 126.8C157.406 126.682 155.809 126.587 154.328 126.208ZM164.389 122.321C164.518 123.6 164.697 124.871 164.936 126.133L165.373 126.142C166.422 126.159 167.472 126.166 168.521 126.167C168.524 126.115 168.527 126.064 168.529 126.013C168.568 124.945 168.553 123.877 168.514 122.81C167.181 122.516 165.785 122.42 164.389 122.321ZM169.061 122.944C169.178 124.016 169.276 125.089 169.364 126.164L170.284 126.163C170.437 126.162 170.59 126.162 170.744 126.16C171.605 126.152 172.49 126.096 173.374 126.072C173.308 125.611 173.036 125.141 172.536 124.714C171.476 123.81 170.3 123.277 169.061 122.944ZM163.569 122.076C162.556 122.185 161.55 122.363 160.559 122.612C160.818 123.362 160.768 124.221 160.823 125.005C160.847 125.35 160.867 125.696 160.885 126.041C161.945 126.067 163.006 126.092 164.066 126.114C164.032 124.843 164.054 123.573 164.125 122.303L164.01 122.294C163.838 122.282 163.685 122.197 163.569 122.076ZM159.887 122.792C159.424 122.924 158.964 123.072 158.509 123.236L158.012 123.416C156.815 123.852 155.231 124.484 154.564 125.46C154.451 125.624 154.384 125.783 154.351 125.936C156.029 125.781 157.769 125.937 159.462 126.001C159.485 125.78 159.509 125.558 159.534 125.337L159.573 125.005C159.66 124.288 159.659 123.492 159.887 122.792ZM168.271 107.444C169.866 108.414 172.297 110.676 170.581 113.081C168.561 115.201 165.652 112.77 164.219 111.67C162.89 110.818 161.396 113.01 162.63 114.005C172.987 121.676 177.19 107.697 169.078 106.303C168.185 106.149 167.853 107.144 168.271 107.444ZM148.716 95.6811C150.983 91.7394 156.592 91.694 159.801 94.704C162.865 97.5782 163.244 102.482 160.797 105.843C158.189 109.425 153.122 110.416 149.014 109.14C145.163 107.943 143.092 103.762 144.413 99.9324C145.127 97.8607 146.77 96.4284 148.716 95.6811ZM146.604 89.079C148.52 87.3823 152.001 85.7437 154.585 86.5787C156.07 87.0587 156.718 89.4531 155.06 90.212C153.14 91.0908 150.926 90.7332 148.971 91.6441C148.151 92.0269 147.379 92.5052 146.807 93.2067C146.357 93.7595 145.899 94.487 145.248 94.8057C145.077 94.8896 144.845 94.8917 144.708 94.7362C143.28 93.1211 145.358 90.1824 146.604 89.079ZM173.973 86.4945C175.157 86.162 176.47 86.1688 177.673 86.3776C178.876 86.5864 180.097 87.085 181.079 87.8123L181.192 87.8974C182.264 88.7054 183.543 89.8809 183.475 91.3122C183.417 92.5074 182.161 93.3158 181.076 92.6894C180.191 92.1785 179.775 91.1552 179.026 90.4738C178.408 89.9114 177.682 89.468 176.907 89.1573C176.047 88.8122 175.185 88.6505 174.262 88.635C173.551 88.6232 172.836 88.8565 172.139 88.9311C172.196 89.0491 171.645 88.9941 171.329 88.8895C171.094 88.7898 171.093 88.4936 171.174 88.3015C171.577 87.3498 173.041 86.7557 173.973 86.4945ZM175.261 93.1825C177.245 92.7885 179.45 93.2199 181.111 94.3831C184.087 96.469 185.423 100.783 184.039 104.156C182.667 107.505 178.914 109.635 175.336 108.995C171.684 108.342 168.858 104.663 169.252 100.955C169.42 99.3773 170.108 97.955 171.126 96.8798C171.134 96.8428 171.142 96.8054 171.157 96.767C171.873 94.8612 173.229 93.5863 175.261 93.1825ZM157.111 96.213C154.836 94.8435 151.493 95.6082 149.539 97.2616C149.151 97.59 148.713 97.4938 148.475 97.2072C147.149 98.2779 146.213 99.7758 146.063 101.6C145.794 104.871 148.122 107.023 151.26 107.27C154.467 107.523 157.785 106.628 159.296 103.554C160.6 100.901 159.643 97.7375 157.111 96.213ZM178.64 96.3546C176.859 95.6561 174.305 96.0689 172.751 97.2643C171.567 98.7911 170.991 100.886 171.446 102.602C172.103 105.08 174.48 107.01 177.091 106.735C179.508 106.481 181.691 104.546 181.95 102.089C182.2 99.7261 180.903 97.2423 178.64 96.3546ZM177.129 100.063C177.535 99.7731 178.019 100.099 178.168 100.485L178.253 100.66C178.298 100.754 178.344 100.851 178.346 100.854L178.362 100.901C178.383 100.941 178.409 100.979 178.433 101.017C178.452 101.03 178.61 101.228 178.631 101.254C178.886 101.568 179.021 101.856 179.013 102.27C178.998 103.088 178.235 103.664 177.443 103.466C176.592 103.253 176.23 102.372 176.308 101.564C176.369 100.924 176.602 100.439 177.129 100.063ZM154.025 100.219C154.401 99.8773 154.98 99.8486 155.351 100.219C155.554 100.422 155.636 100.649 155.782 100.885L155.852 100.994C156.004 101.227 156.162 101.451 156.203 101.738C156.3 102.412 156.091 103.039 155.427 103.319C154.767 103.598 154.156 103.313 153.754 102.771C153.278 102.128 153.422 100.767 154.025 100.219Z" fill="black"/>
</svg>
