<svg width="260" height="324" viewBox="0 0 260 324" fill="none" xmlns="http://www.w3.org/2000/svg">
<path fill-rule="evenodd" clip-rule="evenodd" d="M137.498 128.859C148.834 128.047 164.376 130.295 167.654 143.225C168.671 147.931 170.675 149.996 174.041 153.073C195.406 180.429 120.863 185.028 117.031 158.352C108.958 161.293 100.17 161.916 92.092 164.889C87.711 166.508 83.7383 169.062 79.9314 171.734C64.4077 182.764 49.1037 194.109 33.6353 205.218C39.6212 207.975 51.0017 218.503 46.3644 225.578C45.2841 226.956 43.6806 227.906 42.2622 228.914L41.5142 229.448C39.905 230.601 37.1963 232.568 35.6983 233.636L35.4221 233.837C35.3138 233.916 35.1916 234.004 35.0812 234.083C45.8833 249.882 58.5254 264.46 72.5485 277.475C73.7426 278.586 73.2535 281.068 71.5253 281.358L69.4665 281.66C62.8186 282.628 56.0444 283.5 49.3452 282.974C42.8206 282.264 38.8889 276.486 34.4286 272.301C25.5218 263.194 17.2306 253.479 9.67862 243.216L9.52138 242.999C7.17097 239.786 4.05124 236.502 3.82292 232.353C3.40651 231.106 4.50236 229.318 5.55531 228.468L5.91479 227.949C11.5623 219.824 17.9539 211.988 25.9617 206.103C25.9319 205.226 26.3371 204.305 27.1395 203.724L60.6059 179.495C69.2409 173.551 77.2667 166.564 86.6263 161.764C96.1967 157.154 106.997 156.973 116.805 153.126C117.012 150.353 122.84 149.645 122.656 150.073C128.804 146.361 131.97 141.943 132.946 137.883C133.922 133.824 132.709 130.121 137.498 128.859ZM220.258 215.845C230.607 200.268 240.47 217.502 244.779 227.89C249.869 242.105 239.328 259.59 232.518 271.845C230.01 275.248 226.711 282.426 222.29 282.947C211.152 282.901 199.999 282.117 188.854 281.883C181.658 280.097 191.754 269.279 198.729 273.23C200.842 274.021 201.897 276.421 203.958 277.191C204.709 277.351 204.76 277.016 205.066 276.269L205.109 276.164C205.654 274.87 206.182 273.569 206.718 272.271C211.255 261.093 216.052 250.013 220.822 238.938C221.84 236.534 220.411 234.553 218.554 233.122C217.131 231.95 211.017 229.091 216.778 230.349C214.559 225.198 217.225 219.97 220.258 215.845ZM194.566 194.522C195.562 194.397 196.842 195.402 196.995 196.375C198.266 204.441 196.85 212.416 195.153 220.306L194.84 221.751C194.214 224.629 193.515 227.564 191.953 230.086C190.359 232.66 187.949 234.601 185.181 235.78C176.302 239.319 165.261 235.819 158.729 229.202C154.551 223.476 158.224 216.284 158.925 210.008C158.263 208.317 158.018 206.362 157.635 204.618L157.588 204.41L156.099 197.906C155.771 196.472 156.816 194.509 158.533 194.706C170.506 196.08 182.608 196.018 194.566 194.522Z" fill="white"/>
<path fill-rule="evenodd" clip-rule="evenodd" d="M236.38 213.807C236.344 213.646 236.536 213.524 236.661 213.644C238.767 215.675 240.255 218.271 241.888 220.676C243.443 222.967 245.135 225.169 246.295 227.697C247.372 230.047 248.067 232.431 248.274 235.014C248.481 237.578 248.213 240.148 247.761 242.673C246.871 247.648 244.97 252.359 242.883 256.935C240.853 261.383 238.56 265.705 236.139 269.948L235.271 271.463C234.212 273.308 233.142 275.148 231.996 276.935C230.57 279.159 229.269 281.454 227.388 283.31C226.053 284.63 223.537 283.31 224.145 281.422C224.409 280.6 224.617 279.826 225.026 279.063C225.337 278.482 225.688 277.918 226.017 277.345C226.676 276.2 227.329 275.05 227.988 273.904C229.372 271.497 230.83 269.134 232.201 266.719C234.58 262.53 236.826 258.262 238.812 253.871L239.045 253.352C240.873 249.285 242.604 245.073 243.407 240.674C244.252 236.039 243.495 231.67 241.85 227.314C240.998 225.061 240.041 222.859 239.046 220.665L238.855 220.246C237.894 218.152 236.875 216.07 236.38 213.807ZM134.095 133.637C134.114 133.555 134.253 133.549 134.266 133.637C134.858 137.573 133.541 141.736 131.397 145.01C130.227 146.798 128.784 148.413 127.083 149.711L126.95 149.811C125.213 151.11 122.866 152.365 120.709 151.522C120.641 151.496 120.578 151.467 120.519 151.433C120.762 151.809 120.986 152.205 121.214 152.6C121.892 153.777 122.5 154.997 123.162 156.184C124.345 158.308 125.754 160.208 127.535 161.872C134.657 168.522 144.657 170.102 154.048 170.026L154.711 170.02C158.836 169.991 164.231 170.202 167.416 167.215C169.127 165.611 170.069 163.33 170.921 161.189C171.758 159.09 172.33 156.924 173.025 154.789C171.574 153.794 170.243 152.579 169.197 151.158C168.107 149.679 167.283 148.014 166.808 146.236L166.737 145.971C166.37 144.553 166 142.678 166.592 141.339C166.66 141.185 166.913 141.195 166.985 141.339C167.304 141.98 167.365 142.702 167.562 143.387C167.79 144.184 168.048 144.976 168.388 145.731C169.045 147.194 169.913 148.584 170.955 149.802C171.815 150.81 172.746 151.735 173.811 152.513C174.439 151.429 175.894 151.283 177.113 151.64C178.747 152.118 180.359 152.731 181.934 153.379L182.249 153.509C183.806 154.155 185.566 154.749 187.024 155.631C187.909 156.053 188.758 156.478 189.557 156.854C193.536 158.724 197.456 160.709 201.359 162.731L202.195 163.165C203.83 164.017 205.45 164.877 206.872 166.065C208.32 167.274 209.443 168.927 210.5 170.476C212.915 174.018 215.19 177.662 217.577 181.223C222.398 188.409 227.219 195.595 232.068 202.764C233.241 204.499 234.563 206.192 235.615 208.001C236.623 209.73 236.596 211.505 236.399 213.435L236.362 213.789C235.986 217.329 235.338 220.728 233.353 223.764C230.228 228.536 225.305 231.507 220.098 233.553C220.734 234.027 221.331 234.538 222.09 234.864C223.256 235.363 224.5 235.621 225.762 235.724C227.108 235.832 228.624 235.496 229.715 236.411C230.152 236.776 230.165 237.656 229.715 238.021C228.667 238.877 227.312 238.632 226.035 238.488L225.958 238.48C224.773 238.349 223.605 238.129 222.491 237.694C222.217 237.586 221.944 237.465 221.68 237.332C221.689 237.356 221.693 237.383 221.689 237.413C221.498 238.869 221.086 240.246 220.651 241.637L220.374 242.519C219.812 244.32 219.246 246.116 218.663 247.912C217.554 251.332 216.345 254.72 215.132 258.103L214.085 261.023C213.01 264.018 211.921 267.009 210.717 269.954C209.974 271.772 209.226 273.589 208.48 275.405C207.751 277.178 207.145 279.093 206.241 280.782C205.497 282.172 203.469 281.177 203.794 279.748C204.221 277.874 205.026 276.014 205.641 274.19C206.266 272.338 206.879 270.485 207.515 268.637C208.62 265.428 209.845 262.262 211.077 259.099L212.297 255.963C213.494 252.891 214.705 249.821 215.999 246.788L216.141 246.456C217.485 243.284 218.874 239.717 221.317 237.259C221.348 237.225 221.393 237.208 221.437 237.203C220.837 236.878 220.275 236.483 219.781 236.016L219.757 235.991C219.561 235.784 218.754 234.764 218.494 234.154C218.156 234.274 217.818 234.39 217.48 234.504C216.891 234.703 216.403 234.559 216.058 234.244L215.402 234.651C214.701 235.079 213.947 235.485 213.172 235.506C212.196 235.532 211.429 234.993 210.908 234.198C210.439 233.488 210.16 232.721 209.566 232.084C208.982 231.459 208.307 230.931 207.616 230.428L206.802 229.835C205.31 228.745 203.863 227.644 202.662 226.205C202.058 225.478 201.248 224.615 200.881 223.742C200.809 223.574 200.765 223.415 200.756 223.261C200.676 223.806 200.593 224.353 200.511 224.899C199.358 232.573 198.426 240.3 198.128 248.06C197.982 251.888 197.917 255.72 198.088 259.549C198.172 261.462 198.312 263.373 198.504 265.279C198.599 266.234 198.698 267.188 198.815 268.139L198.841 268.359C198.875 268.65 198.897 268.932 198.872 269.2C199.801 269.658 200.336 270.817 200.708 271.721C200.991 272.41 200.771 273.08 200.315 273.564C200.86 274.061 201.346 274.644 201.753 275.312C201.836 275.447 201.658 275.553 201.553 275.468C200.883 274.936 200.162 274.498 199.41 274.162C199.015 274.312 198.584 274.352 198.187 274.243C197.756 274.124 197.384 273.837 197.116 273.471C194.98 273.12 192.76 273.549 190.837 274.887C190.438 275.166 190.077 275.481 189.732 275.823C189.673 275.883 189.612 275.959 189.55 276.033L189.97 276.194C190.144 276.26 190.286 276.311 190.341 276.322C190.707 276.397 191.079 276.437 191.45 276.469L192.008 276.515C194.148 276.692 196.281 276.751 198.272 277.647C198.69 277.835 198.544 278.48 198.149 278.588C196.696 278.982 195.254 278.952 193.774 278.846L193.457 278.822C192.081 278.717 190.605 278.723 189.263 278.343C189.584 279.222 189.147 280.37 187.805 280.549C183.777 281.086 179.722 280.833 175.689 280.477C171.616 280.118 167.545 279.778 163.461 279.565C150.251 278.869 137.021 279.003 123.8 279.192L116.328 279.3C110.369 279.384 104.41 279.449 98.4515 279.404L95.6625 279.378C94.4838 279.366 93.3045 279.352 92.1271 279.317L91.4209 279.294C90.0181 279.243 88.161 279.454 86.942 278.624C85.9364 277.939 85.7125 276.684 86.3188 275.671C86.4941 275.38 86.735 275.12 86.9864 274.866C87.5019 270.46 87.7913 266.032 88.0871 261.606C89.1139 246.118 88.5139 230.711 86.1456 215.379C79.7906 217.322 73.5329 219.759 67.4357 222.373C64.1378 223.787 60.8568 225.254 57.6139 226.792C54.654 228.198 51.6815 229.954 48.5188 230.867C48.2313 231.122 47.8293 231.244 47.4728 231.131L47.4265 231.114H47.4244C47.0991 231.19 46.7378 231.144 46.3829 230.931C46.3111 230.887 46.2392 230.843 46.1674 230.798L46.0596 230.73C44.9463 230.028 43.8265 229.164 43.0385 228.107C42.0815 228.995 41.0526 229.808 40.0406 230.632C38.942 231.529 37.8477 232.429 36.7618 233.338C36.3308 233.699 35.8554 234.044 35.4751 234.46L35.4199 234.521C35.411 234.531 35.4026 234.541 35.3949 234.551C37.0406 235.616 38.4815 237.233 39.7723 238.638C41.1584 240.147 42.4967 241.703 43.8239 243.266L45.1088 244.782C54.1946 255.515 63.3734 266.637 75.1364 274.526C76.9956 275.773 75.223 278.81 73.3765 277.535C69.8822 275.128 66.5758 272.454 63.4005 269.641C57.8357 264.715 52.8287 259.188 48.1406 253.429C45.7681 250.514 43.4653 247.528 41.2089 244.522L40.4431 243.503C39.4226 242.143 38.4075 240.779 37.4357 239.385L37.2324 239.092C36.3799 237.862 35.4734 236.479 34.9237 235.062C34.7125 235.276 34.4737 235.455 34.1251 235.591C33.5294 235.823 32.7984 235.335 32.6526 234.754C32.2977 233.344 33.523 232.505 34.5202 231.757C35.7308 230.852 36.9646 229.979 38.2005 229.111L38.642 228.799C40.1875 227.702 41.7411 226.577 43.4251 225.71C43.4758 225.643 43.5371 225.579 43.6068 225.524C43.6871 225.461 43.7653 225.399 43.8456 225.338C41.8343 222.075 39.6287 218.938 37.1674 215.975C35.3167 213.746 33.3519 211.617 31.273 209.601L30.3391 208.696C28.9265 207.332 27.4577 205.947 25.8899 204.761L25.3991 205.318C24.7438 206.059 24.0819 206.795 23.3822 207.492C22.0047 208.861 20.6463 210.259 19.2941 211.655C17.0487 213.98 14.8793 216.375 12.7167 218.774L11.6357 219.974C9.38358 222.474 6.97091 224.928 4.92373 227.599L4.82149 227.735C3.92773 228.934 3.29151 230.261 3.70682 231.784C4.10755 233.253 5.0603 234.555 5.88151 235.823L5.96316 235.95C9.31598 241.175 12.9075 246.266 16.7547 251.138C24.4596 260.896 33.2484 270.144 43.7357 276.929C45.1892 277.869 43.8308 280.207 42.3751 279.256C36.2505 275.251 30.6244 270.441 25.4484 265.275C20.697 260.534 16.3913 255.314 12.3561 249.956C10.3892 247.342 8.50471 244.673 6.69837 241.944C4.94697 239.296 2.92091 236.572 1.65119 233.651C0.98575 232.114 0.740627 230.451 1.2857 228.832C1.78557 227.344 2.77414 226.108 3.80256 224.946L3.89908 224.837C6.26316 222.181 8.6695 219.556 11.097 216.956C13.5329 214.348 16.0808 211.833 18.6815 209.392C20.7244 207.471 22.854 205.777 25.1315 204.209C24.9265 204.064 24.7216 203.924 24.5125 203.789C23.8765 203.375 23.716 202.489 24.2737 201.927C25.797 200.388 27.5526 199.05 29.2047 197.649C30.7575 196.332 32.3103 195.014 33.8632 193.695C37.0237 191.015 40.1843 188.333 43.3449 185.651C49.0216 180.834 54.6667 175.984 60.3244 171.146C62.6836 169.129 65.0648 167.138 67.4398 165.14L71.6595 161.588L73.7233 159.854C74.7807 158.968 75.8607 158.092 77.0632 157.417C79.8925 155.827 83.2941 155.139 86.4114 154.296L86.6188 154.24C90.1153 153.283 93.6308 152.382 97.1653 151.579C100.704 150.776 104.258 150.045 107.826 149.383C111.033 148.787 114.316 148.276 117.586 148.2C118.398 147.891 119.416 147.783 120.215 148.113C120.544 148.25 120.889 148.451 121.195 148.705C122.794 148.142 124.372 147.874 125.866 146.923C127.358 145.974 128.678 144.727 129.789 143.353C132.086 140.509 133.288 137.148 134.095 133.637ZM170.858 229.969C169.59 229.88 168.449 230.404 167.317 230.962C167.955 231.239 168.593 231.514 169.231 231.786L173.477 233.6C174.88 234.198 176.365 234.718 177.698 235.455C177.794 235.508 177.87 235.572 177.927 235.646C179.313 234.758 180.779 233.966 182.184 233.122C182.505 232.93 182.828 232.738 183.151 232.545C181.478 233.105 179.763 233.386 177.946 232.86C175.522 232.161 173.418 230.149 170.858 229.969ZM174.331 225.717L174.103 225.562C172.874 224.718 171.406 223.633 169.913 224.391C169.21 224.749 168.633 225.326 167.94 225.71C167.243 226.099 166.476 226.397 165.698 226.577C164.408 226.875 162.929 226.919 161.541 226.631L161.562 228.508C162.612 228.942 163.655 229.386 164.699 229.834C165.377 229.602 166.029 229.324 166.715 229.018L167.177 228.811C168.498 228.217 169.831 227.82 171.291 228.008C174.039 228.361 176.116 230.404 178.744 231.085C181.966 231.922 184.873 229.517 187.917 228.923C188.419 228.824 188.937 228.766 189.451 228.757L189.622 228.756L189.698 228.711C190.353 228.327 191.334 227.959 191.79 227.312C192.286 226.611 192.329 225.435 192.491 224.611C192.508 224.529 192.525 224.444 192.54 224.362C192.253 224.362 191.961 224.376 191.665 224.432C190.736 224.603 189.861 224.932 188.995 225.3C187.358 225.996 185.756 226.788 184.032 227.251C182.344 227.705 180.58 227.921 178.841 227.669C177.145 227.424 175.736 226.659 174.331 225.717ZM174.595 219.118L174.341 218.954C173.669 218.525 172.899 218.081 172.076 218.239C171.341 218.381 170.71 218.966 170.069 219.327C168.664 220.12 167.088 220.553 165.481 220.663C164.143 220.754 162.755 220.591 161.469 220.194L161.513 224.349C161.984 224.499 162.472 224.607 162.986 224.645C164.545 224.761 166.066 224.387 167.374 223.527L168.035 223.088C169.167 222.343 170.23 221.753 171.728 222.024C173.211 222.295 174.455 223.246 175.668 224.074L175.867 224.208C177.259 225.128 178.671 225.721 180.379 225.736C182.224 225.75 184.047 225.237 185.764 224.605C187.469 223.979 189.09 223.229 190.913 222.999C191.471 222.929 192.151 222.908 192.791 223.018C192.876 222.546 192.956 222.077 193.032 221.606C193.197 220.593 193.338 219.583 193.461 218.571C190.226 217.7 187.239 220.517 184.235 221.386C182.492 221.889 180.595 221.883 178.852 221.397C177.239 220.946 175.971 220.012 174.595 219.118ZM174.603 212.12C173.912 211.987 173.23 212.306 172.643 212.634C171.145 213.465 169.852 214.621 168.155 215.058C165.973 215.62 163.586 215.136 161.418 214.217C161.427 215.5 161.437 216.783 161.448 218.066C161.855 218.22 162.274 218.345 162.701 218.444C164.217 218.79 165.825 218.744 167.319 218.306C168.842 217.86 170.01 216.656 171.538 216.28C173.1 215.894 174.572 216.645 175.831 217.498L176.21 217.757C177.648 218.733 179.044 219.582 180.844 219.748C182.748 219.923 184.402 219.327 186.103 218.537L186.499 218.354C188.652 217.364 191.447 216.238 193.596 217.364C193.765 215.766 193.888 214.168 193.97 212.568C193.674 212.458 193.368 212.378 193.015 212.376C192.172 212.372 191.287 212.638 190.501 212.915C188.784 213.522 187.184 214.426 185.484 215.075C183.872 215.692 182.086 216.013 180.367 215.737C178.774 215.481 177.578 214.648 176.477 213.507L176.317 213.338C175.835 212.824 175.318 212.259 174.603 212.12ZM175.865 206.188C175.068 205.767 174.099 205.376 173.177 205.499C172.299 205.615 171.713 206.211 171.172 206.849L170.879 207.198C169.91 208.344 168.957 209.307 167.465 209.779C165.918 210.265 164.279 210.074 162.84 209.362C162.329 209.109 161.853 208.794 161.376 208.483L161.401 211.854C162.356 212.329 163.328 212.759 164.395 213.019C166.364 213.498 168.037 213.143 169.721 212.057L169.898 211.942C171.166 211.109 172.466 210.117 174.033 210.024C175.562 209.932 176.709 210.78 177.716 211.818L177.834 211.941C179.104 213.28 180.386 213.934 182.275 213.779C184.106 213.63 185.819 212.821 187.497 212.124L187.649 212.061C189.183 211.431 190.951 210.782 192.635 211.023C193.039 211.08 193.561 211.205 194.025 211.423C194.093 209.846 194.125 208.267 194.131 206.687C193.174 205.856 191.684 205.719 190.487 206.059C188.611 206.591 187.075 207.965 185.283 208.711C183.694 209.373 182.038 209.521 180.418 208.895C178.744 208.248 177.432 207.016 175.865 206.188ZM194.025 199.547C191.222 199.644 188.479 201.468 185.803 202.164C182.812 202.94 180.372 201.882 177.708 200.707L177.364 200.556C175.998 199.955 174.529 199.416 173.014 199.661C171.538 199.902 170.232 200.72 168.962 201.46L168.719 201.6C166.406 202.917 164.051 203.819 161.35 203.594C161.365 204.442 161.359 205.287 161.361 206.116C161.805 206.37 162.231 206.657 162.637 206.919L162.783 207.011C164.07 207.817 165.397 208.346 166.932 207.849C168.415 207.367 169.112 206.076 170.131 205.013C171.067 204.036 172.288 203.443 173.657 203.499C175.129 203.558 176.522 204.207 177.738 205C178.955 205.793 180.132 206.817 181.556 207.215C184.75 208.102 187.486 204.723 190.507 204.197C191.775 203.975 193.174 204.256 194.131 205.021C194.12 203.199 194.08 201.373 194.025 199.547ZM169.894 198.782C169.499 198.797 169.104 198.814 168.709 198.831C167.247 198.894 165.785 198.966 164.323 199.048C163.311 199.103 162.067 199.414 161.074 199.105C161.049 199.207 161.015 199.304 160.97 199.399C161.12 200.147 161.213 200.921 161.27 201.703C162.187 201.802 163.119 201.768 164.023 201.58C166.193 201.13 167.955 199.761 169.894 198.782ZM193.983 198.154C188.644 198.522 183.265 198.396 177.917 198.511L177.276 198.526C177.25 198.526 177.225 198.529 177.2 198.529C177.813 198.766 178.421 199.038 179.028 199.316L179.633 199.594C181.066 200.253 182.524 200.792 184.127 200.676C185.845 200.551 187.463 199.849 189.069 199.283C190.6 198.742 192.364 198.378 193.998 198.615C193.993 198.461 193.989 198.309 193.983 198.154Z" fill="black"/>
<path fill-rule="evenodd" clip-rule="evenodd" d="M124.035 43.648C137.348 42.9209 149.143 39.1789 158.514 47.5537C158.514 47.5537 173.674 36.228 176.204 40.5415C177.898 43.4319 175.548 47.312 176.178 50.8787C180.288 57.8872 180.055 69.7498 180.288 72.5298C180.873 79.5368 184.562 105.904 184.562 112.166C184.562 115.362 181.928 123.732 180.288 128.39C176.637 138.758 169.667 144.042 158.237 144.042C146.807 144.042 128.152 134.485 122.169 126C121.644 125.257 118.253 127.426 114.707 123.663C110.864 119.586 108.733 111.81 108.733 107.175C108.733 101.293 104.933 97.2137 105.375 89.6846C106.362 72.8698 109.79 44.4259 124.035 43.648Z" fill="white"/>
<path fill-rule="evenodd" clip-rule="evenodd" d="M122.547 24.0984C122.721 24.0878 122.896 24.0963 123.071 24.1134C123.263 24.1219 123.456 24.1407 123.648 24.1789C124.626 24.3668 125.499 24.8846 126.175 25.6138C126.194 25.6328 126.209 25.6542 126.225 25.673C126.542 25.9118 126.836 26.1825 127.1 26.4698C127.147 26.4254 127.191 26.3812 127.24 26.3368C127.379 26.214 127.525 26.0978 127.677 25.9881C128.313 25.4421 129.06 25.0451 129.863 24.8193L129.973 24.7895C129.994 24.7832 130.016 24.779 130.037 24.7747C130.607 24.5847 131.207 24.4875 131.811 24.4894C132.534 24.4662 133.259 24.5847 133.935 24.8635C134.735 25.1955 135.432 25.7195 136.018 26.3495C136.402 26.6623 136.738 27.0066 137.093 27.3851C137.826 28.169 138.405 29.0863 138.771 30.0967C138.821 30.2383 138.866 30.384 138.906 30.5298C139.799 30.4264 140.697 30.3525 141.595 30.3163C142.603 30.2552 143.611 30.2339 144.621 30.2679C147.403 30.3586 150.124 30.8491 152.759 31.7474C153.287 31.9036 153.8 32.1022 154.294 32.3474C155.07 32.656 155.803 33.0491 156.494 33.5246L157.082 33.8738C157.378 34.0495 157.673 34.2276 157.96 34.4102C158.642 34.8479 159.289 35.338 159.902 35.8664C160.548 36.3886 161.159 36.9572 161.74 37.553C161.897 37.7142 162.05 37.8776 162.2 38.042C163.539 38.7651 164.729 39.6908 165.838 40.7949C166.718 40.2885 167.629 39.8294 168.57 39.4213C169.54 39.0007 170.771 38.5674 171.787 38.2823C172.7 38.0266 173.602 37.8512 174.517 37.722C174.933 37.6502 175.352 37.5931 175.772 37.5445L175.755 37.5511C176.051 37.5191 176.344 37.4917 176.642 37.4663L176.634 37.4642C176.761 37.4538 176.89 37.4431 177.016 37.4346L177.325 37.4095C177.418 37.401 177.553 37.6185 177.561 37.6946L177.572 37.7728C177.642 37.8512 177.705 37.9378 177.749 37.9907C177.804 37.9862 177.859 37.9822 177.914 37.9799C178.079 37.9653 178.269 38.2589 178.366 38.3709L178.454 38.4742C178.554 38.5946 178.654 38.7333 178.671 38.8845C178.778 39.7618 178.88 40.6408 178.973 41.52C179.009 42.1858 178.973 42.8452 178.863 43.4982C178.78 44.1323 178.696 44.7663 178.611 45.3983C178.476 45.8423 178.343 46.2862 178.21 46.7298C178.157 46.8991 178.098 47.0658 178.041 47.2328C177.703 48.3479 177.307 49.4334 176.835 50.4853C177.179 50.8661 177.5 51.2609 177.799 51.6686C177.87 51.742 177.942 51.8149 178.009 51.891C178.028 51.8616 178.056 51.8341 178.085 51.8191C178.187 51.7747 178.261 51.8276 178.324 51.9144C178.99 52.5504 179.473 53.2924 179.773 54.1397L179.96 54.5816C179.991 54.6555 180.022 54.7295 180.052 54.8034C180.291 55.4461 180.475 56.1055 180.627 56.7732C180.763 57.2986 180.861 57.8312 180.923 58.3695C181.38 59.9024 181.741 61.4706 182.081 63.0177C182.135 63.2612 182.109 63.4785 182.031 63.6636L182.23 63.8576L182.57 64.1964C183.142 64.7661 183.724 65.3651 184.149 66.043C184.588 66.7468 184.911 67.4992 185.271 68.2455L185.348 68.404L185.506 68.7219C185.677 69.0689 185.759 69.2607 185.911 69.6803C186.162 70.3801 186.297 71.0837 186.361 71.8257C186.454 72.9055 186.441 74.0827 185.968 75.0867C185.966 75.0951 185.961 75.1017 185.957 75.1078C185.742 76.0781 185.209 76.9782 184.4 77.5531C184.227 77.7161 184.041 77.8619 183.842 77.9779C183.366 78.2579 182.928 78.283 182.408 78.1534L182.342 78.1364C182.277 78.1195 182.218 78.1047 182.161 78.0921C182.245 78.1618 182.287 78.2444 182.161 78.3034C182.038 78.3626 181.928 78.3964 181.825 78.4091C181.869 78.4662 181.873 78.5274 181.78 78.5782C181.578 78.686 181.413 78.72 181.244 78.6902L181.279 78.984C181.556 81.2074 181.804 81.6472 182.021 84.0354C182.165 86.4806 182.393 88.9195 182.708 91.3482L182.816 92.2306C183.164 95.0275 183.555 97.845 184.153 100.597C184.455 101.799 184.715 103.01 184.935 104.23C185.245 105.158 185.463 106.107 185.583 107.075C185.759 108.059 185.879 109.053 185.949 110.055C186.192 110.695 186.31 111.346 186.304 112.01C186.335 112.901 186.306 113.791 186.211 114.677C186.158 115.598 186.031 116.511 185.83 117.416C185.651 118.657 185.323 119.855 184.854 121.018C184.478 122.315 184.018 123.588 183.494 124.832C182.68 126.76 181.698 128.55 180.58 130.315C179.532 131.969 178.409 133.563 177.124 135.045C175.463 136.959 173.571 138.714 171.496 140.193C170.313 141.068 169.064 141.854 167.759 142.527C166.161 143.351 164.539 144.093 162.809 144.593C161.729 144.906 160.63 145.122 159.519 145.287C157.337 145.61 155.076 145.561 152.881 145.183C151.466 144.993 150.073 144.663 148.757 144.192C147.675 143.803 146.644 143.357 145.613 142.854C145.083 142.598 144.572 142.302 144.082 141.971C143.258 141.436 142.487 140.832 141.768 140.164C141.534 139.963 141.306 139.758 141.082 139.542C140.974 139.447 141.033 139.305 141.158 139.272L141.196 139.267C141.147 139.223 141.097 139.179 141.048 139.132C141.037 139.124 141.029 139.113 141.021 139.103C140.997 139.081 140.972 139.06 140.951 139.039C140.868 138.967 140.951 138.807 141.023 138.769C141.05 138.754 141.086 138.752 141.126 138.756C141.118 138.747 141.111 138.741 141.103 138.735C141.094 138.728 141.092 138.712 141.094 138.695L141.063 138.669C140.955 138.574 141.01 138.435 141.137 138.399C141.199 138.38 141.301 138.39 141.407 138.413L141.447 138.422L141.375 138.354C141.249 138.244 141.289 138.122 141.445 138.084C141.562 138.091 141.677 138.107 141.791 138.135L141.876 138.158C141.918 138.168 141.959 138.181 142.001 138.194C141.929 138.128 141.857 138.065 141.787 137.999C141.718 137.938 141.792 137.763 141.855 137.727C141.942 137.678 142.111 137.746 142.189 137.803C142.381 137.824 142.635 137.908 142.728 137.989C142.983 138.234 143.247 138.468 143.516 138.697C143.678 138.747 143.832 138.815 143.951 138.917C144.255 139.208 144.572 139.483 144.895 139.749L145.141 139.919C145.182 139.947 145.223 139.974 145.265 140.001C145.73 140.273 146.194 140.544 146.657 140.817C148.354 141.391 150.05 141.967 151.744 142.539L151.968 142.607L153.614 142.81C154.696 142.924 155.78 142.918 156.861 142.793C157.673 142.803 158.478 142.723 159.27 142.558C160.616 142.33 161.936 141.994 163.221 141.525C164.699 140.986 166.109 140.276 167.484 139.511C167.978 139.234 168.464 138.94 168.942 138.629C169.096 138.519 169.25 138.407 169.404 138.293C170.421 137.53 171.392 136.716 172.328 135.856C172.768 135.453 173.19 135.032 173.598 134.597C173.657 134.533 173.714 134.472 173.771 134.408C174.162 133.982 174.54 133.54 174.902 133.083L175.246 132.695C176.636 130.964 177.872 129.102 178.983 127.185C180.086 125.284 180.994 123.285 181.717 121.216C181.949 120.478 182.152 119.73 182.321 118.974C182.634 118.065 182.839 117.133 182.934 116.182C182.966 115.996 182.991 115.81 183.016 115.624L183.031 115.33C183.033 115.282 183.035 115.233 183.035 115.184C183.078 114.888 183.113 114.592 183.141 114.296C183.158 113.999 183.168 113.7 183.171 113.402L183.147 111.574C183.141 111.517 183.135 111.458 183.13 111.399L183.084 110.995C182.982 110.162 182.904 109.328 182.803 108.495C182.803 108.491 182.803 108.484 182.801 108.478C182.763 108.167 182.723 107.854 182.676 107.542C182.653 107.356 182.623 107.17 182.596 106.984L182.543 106.658C182.445 106.092 182.326 105.531 182.182 104.975L182.118 104.737L181.751 102.888L181.337 101.068C181.068 99.8485 180.844 98.6205 180.667 97.382C180.346 95.4082 180.071 93.4319 179.832 91.4473C179.82 91.3522 179.807 91.255 179.797 91.1598C179.554 89.3192 179.378 87.4718 179.264 85.6182C179.11 83.7924 179.021 81.9619 178.998 80.1297C178.996 80.0471 179.051 79.9796 179.116 79.9414L179.11 79.5891C179.103 79.2774 179.097 79.6513 179.094 79.296L179.09 78.3188C179.091 78.2373 179.091 78.1806 179.093 78.1766C177.964 78.2547 177.205 78.1907 176.115 78.1333L175.93 78.1238C174.931 78.0775 173.938 77.9676 172.952 77.8025C172.947 77.8534 172.913 77.8892 172.856 77.8997C172.755 77.904 172.66 77.904 172.563 77.9063L172.599 78.0434C172.601 78.1134 172.569 78.1576 172.502 78.1766L172.22 78.1893C171.843 78.2051 171.466 78.2125 171.092 78.1618C170.756 78.1176 170.429 78.0392 170.104 77.9462C169.903 77.9124 169.698 77.8661 169.489 77.8067C168.952 77.6525 168.42 77.4453 167.881 77.2807C167.332 77.1642 166.774 77.1264 166.191 77.2657C165.574 77.4115 165.052 77.6757 164.406 77.5151C164.277 77.4836 164.152 77.435 164.028 77.384L163.912 77.376C163.893 77.3743 163.873 77.3721 163.852 77.3692C163.178 77.2722 162.578 76.8453 161.936 76.6168C161.712 76.5622 161.489 76.576 161.272 76.6667L161.218 76.691L161.004 76.8495C160.918 76.9508 160.833 77.0532 160.749 77.1559L160.624 77.3101C160.394 77.5954 160.149 77.8511 159.851 78.0371C159.492 78.3689 159.065 78.5634 158.556 78.576C158.266 78.5845 157.979 78.5232 157.7 78.4347C156.648 78.7601 155.522 78.8257 154.472 78.5086C154.056 78.445 153.648 78.3332 153.257 78.1576C153.073 78.0751 152.89 77.9779 152.712 77.8701C151.971 78.1832 151.269 78.5993 150.553 78.9588L150.392 79.0398C149.66 79.4045 148.85 79.7601 148.022 79.707C146.978 79.6391 145.954 79.4999 144.931 79.3242C144.923 79.3242 144.912 79.3221 144.904 79.32L144.763 79.2966L144.251 79.2068L143.839 79.13L143.628 79.2108C141.935 79.8517 140.079 80.3517 138.378 79.9033C137.636 79.8127 136.941 79.5631 136.313 79.1382C136.292 79.1234 136.271 79.1087 136.25 79.0917C136.151 79.041 136.058 78.9842 135.975 78.9229L135.958 78.909L135.942 78.8952L135.933 78.891C135.006 78.4642 134.473 77.5552 134.566 76.5367C134.509 76.2132 134.511 75.8961 134.575 75.5582C134.273 75.9152 133.964 76.2683 133.652 76.6189C132.508 77.9967 131.388 79.4019 130.351 80.8647L130.113 81.2033C129.542 82.0084 129.012 82.8413 128.522 83.6992C128.025 84.5467 127.516 85.386 126.99 86.2145C126.306 86.9706 125.645 87.745 125.008 88.5382L124.736 88.8794L123.819 90.0862C123.171 90.8557 122.632 91.6969 122.207 92.6097C121.859 93.2588 121.537 93.9203 121.248 94.5987C121.155 94.8035 121.066 95.0107 120.98 95.2178C120.682 96.0272 120.43 96.8517 120.234 97.7032C120.076 98.3195 119.963 98.9444 119.895 99.578L119.875 99.7895C119.849 100.039 119.83 100.288 119.82 100.537C119.881 100.574 119.932 100.609 119.97 100.645L120.124 100.7L120.249 100.737C120.443 100.798 120.779 100.922 120.699 101.076L120.291 101.854C120.333 101.899 120.352 101.945 120.325 101.996C120.052 102.518 119.778 103.04 119.503 103.562C119.494 103.581 119.48 103.596 119.465 103.606C119.699 103.714 119.928 103.832 120.145 103.961C120.57 104.215 120.882 104.509 121.172 104.851C121.476 105.033 121.763 105.232 122.034 105.46C122.368 105.811 122.659 106.196 122.906 106.612C123.135 107.005 123.321 107.415 123.464 107.844C123.528 108.07 123.557 108.305 123.555 108.543C123.299 110.349 121.235 109.112 121.195 108.953C120.912 107.863 120.587 107.174 119.856 106.362L119.837 106.35C119.414 106.164 118.996 105.98 118.559 105.836C118.493 105.849 118.425 105.857 118.358 105.868C118.434 105.976 118.396 106.081 118.242 106.1C117.576 106.231 116.904 106.267 116.228 106.21L115.202 106.064C114.776 106.228 114.369 106.438 113.985 106.688L113.858 106.772L113.835 106.789C112.844 107.586 112.079 108.645 111.555 109.799C111.509 109.902 111.464 110.005 111.421 110.11L111.359 110.268L111.354 110.276C110.67 112.967 111.28 115.922 112.531 118.363C113.213 119.455 113.925 120.527 114.669 121.577L115.392 122.522C115.818 122.924 116.237 123.336 116.644 123.759C116.708 123.822 116.775 123.885 116.843 123.947C117.059 124.088 117.278 124.213 117.502 124.319C117.589 124.348 117.678 124.376 117.766 124.399C118.197 124.606 118.649 124.716 119.125 124.729C119.753 124.77 120.362 124.697 120.951 124.51L121.068 124.471L121.155 124.439C121.476 124.234 121.774 123.978 122.057 123.678C122.121 123.613 122.239 123.613 122.374 123.649C122.448 123.573 122.522 123.492 122.592 123.406C122.64 123.353 122.716 123.351 122.775 123.391C122.976 123.368 123.519 123.676 123.378 123.839C123.354 123.877 123.325 123.911 123.299 123.947C123.394 123.995 123.49 124.05 123.574 124.107C124.018 124.231 124.673 124.673 124.62 124.807L124.613 124.817C124.511 125.012 124.377 125.175 124.213 125.304L124.157 125.346L124.032 125.432C124.208 125.543 124.356 125.669 124.282 125.758C124.248 125.823 124.212 125.887 124.17 125.944C124.529 126.388 124.886 126.836 125.241 127.284C125.596 128.053 126.035 128.772 126.559 129.438C126.997 130.16 127.523 130.809 128.137 131.388C128.188 131.439 128.241 131.488 128.292 131.536C128.745 131.871 129.218 132.185 129.712 132.486L129.925 132.614C130.037 132.682 130.225 132.766 130.136 132.929C130.125 132.95 130.113 132.967 130.098 132.98C130.409 133.183 130.73 133.375 131.061 133.553L131.093 133.572C131.218 133.652 131.388 133.797 131.209 133.916C131.057 134.017 130.654 133.743 130.463 133.616C130.428 133.616 130.385 133.606 130.343 133.593C130.406 133.627 130.469 133.663 130.532 133.699L130.628 133.751C130.702 133.796 131.066 134.036 130.812 134.138C130.687 134.148 130.573 134.117 130.468 134.045C130.343 133.984 130.221 133.918 130.1 133.85C130.142 133.916 130.142 133.982 130.037 134.024C130.001 134.026 129.965 134.024 129.929 134.02C130.178 134.178 130.434 134.326 130.698 134.466L130.741 134.492C130.852 134.565 131.03 134.702 130.901 134.821C130.755 134.952 130.354 134.673 130.25 134.609L129.942 134.425C129.918 134.436 129.893 134.44 129.866 134.442C129.959 134.5 130.045 134.561 130.14 134.616L130.27 134.686C130.432 134.776 130.661 134.923 130.578 135.07C130.495 135.216 130.248 135.096 130.089 135.001L129.918 134.895C129.91 134.891 129.903 134.886 129.895 134.882L129.889 134.907C129.887 134.911 129.885 134.916 129.882 134.92C129.803 135.058 129.604 134.967 129.467 134.888L129.356 134.821C129.169 134.708 128.984 134.596 128.799 134.483L128.524 134.314H128.52C127.567 133.741 126.686 133.17 125.856 132.435C125.359 131.995 124.897 131.53 124.457 131.033C123.574 130.038 122.917 128.899 122.283 127.736C122.273 127.717 122.287 127.668 122.313 127.616C122.243 127.472 122.175 127.326 122.108 127.176C121.457 127.358 120.73 127.411 120.061 127.366C119.702 127.343 119.347 127.28 118.994 127.185C117.868 127.028 116.782 126.515 115.844 125.899C115.785 125.861 115.732 125.819 115.677 125.781C115.29 125.563 114.923 125.31 114.574 125.02C113.894 124.458 113.245 123.832 112.656 123.179C112.229 122.672 111.825 122.146 111.447 121.601C111.063 121.062 110.674 120.523 110.285 119.984C109.206 118.293 108.515 116.346 108.247 114.358C108.116 113.624 108.048 112.882 108.063 112.143C108.073 111.608 108.133 111.067 108.236 110.528C108.175 110.469 108.113 110.41 108.052 110.349C108.018 110.408 107.985 110.45 107.963 110.429L107.479 109.944C107.136 109.597 106.905 109.342 106.51 108.782C105.88 107.888 105.411 106.905 105.063 105.87C104.811 105.13 104.644 104.289 104.579 103.475C104.558 103.34 104.537 103.203 104.52 103.063C104.385 101.962 104.509 100.907 104.676 99.821C104.687 99.7493 104.723 99.7049 104.771 99.6815C104.783 99.5955 104.798 99.5071 104.812 99.419C103.413 97.937 102.406 96.1509 102.488 93.9938C102.514 93.3141 102.653 92.6442 102.919 92.0186L102.952 91.948C101.784 91.7683 100.857 90.9474 100.161 89.93C100.099 89.8812 100.039 89.8319 99.982 89.7829C98.7372 88.7194 97.8742 87.2135 97.2833 85.6229C96.8601 84.6993 96.5798 83.7123 96.4608 82.6885C96.4524 82.6154 96.4473 82.5429 96.4407 82.4702C96.1517 80.8515 96.0782 79.2164 96.2117 77.6057C95.9217 76.6088 95.6857 75.5943 95.5241 74.5562C95.448 74.0618 95.3952 73.5671 95.355 73.0725L95.3508 73.0452L95.3445 72.9562L95.3266 72.7344C95.3238 72.6977 95.3212 72.6611 95.3191 72.6244C94.9621 68.0973 95.9741 63.642 97.6473 59.4489C97.7931 59.0718 97.9436 58.6956 98.0989 58.3225L98.2636 57.9326C99.9431 55.2231 102.465 53.0316 104.601 50.7171C105.338 49.9186 104.146 48.7199 103.406 49.5215C101.987 51.0593 100.465 52.5322 99.0898 54.1129C98.8471 54.1306 98.6039 54.1372 98.3614 54.1251C97.9388 54.1038 97.529 54.0364 97.1318 53.9284C96.141 53.7826 95.2388 53.3831 94.4191 52.7955C93.3226 52.2843 92.3867 51.3203 92.2938 50.0628C92.2832 49.936 92.2853 49.8113 92.2938 49.6868C92.1924 49.0716 92.2832 48.4271 92.541 47.833C92.5853 47.6703 92.6424 47.5097 92.7142 47.3512C92.9233 46.8799 93.2677 46.4278 93.6881 46.1211C93.6987 46.1148 93.7071 46.1107 93.7156 46.1042C93.76 46.0579 93.8022 46.0112 93.8508 45.9691C93.9226 45.9034 93.9987 45.8423 94.079 45.7853C93.7938 45.3159 93.536 44.8342 93.3163 44.3204C93.0776 43.7624 92.955 43.1962 92.8874 42.5979C92.86 42.3612 92.8494 42.1266 92.8452 41.8922C92.8325 41.7842 92.8241 41.6743 92.8156 41.5644C92.7628 40.7274 92.86 39.859 93.1726 39.0768C93.1959 39.0178 93.2255 38.9584 93.2529 38.8972C93.3121 38.7196 93.3776 38.5423 93.4579 38.3688C93.7705 37.703 94.2142 37.1387 94.7614 36.6759C95.0571 36.3779 95.3888 36.1137 95.7501 35.8896C95.9635 35.7565 96.2064 35.6381 96.4621 35.5409C96.9184 35.3 97.5036 35.0802 97.979 35.0635C98.036 35.0611 98.0867 35.0677 98.1417 35.0677C98.186 33.8543 98.3424 32.5334 98.8219 31.4344C99.1008 30.6378 99.5191 29.9298 100.149 29.4202C100.514 29.039 100.964 28.7293 101.525 28.527L101.625 28.4924L101.663 28.4818C102.168 28.2366 102.713 28.1394 103.273 28.1417C103.926 28.1077 104.592 28.2305 105.16 28.5304C105.278 28.5938 105.405 28.672 105.525 28.7566C105.616 28.5748 105.718 28.3909 105.834 28.2073C106.242 27.554 106.734 26.9854 107.304 26.4676C107.372 26.4064 107.446 26.3514 107.518 26.2924C107.794 26.0409 108.088 25.8084 108.392 25.5971C109.049 25.1404 109.77 24.8003 110.526 24.5803C111.399 24.2575 112.321 24.1076 113.242 24.1392L113.433 24.1472C113.475 24.1512 113.518 24.1534 113.558 24.1555C114.473 24.2149 115.375 24.4389 116.237 24.7768C117.13 25.13 117.887 25.6645 118.59 26.2774C118.755 26.0494 118.943 25.8336 119.173 25.6307C119.239 25.5738 119.309 25.5229 119.374 25.4701C119.425 25.4193 119.478 25.3707 119.532 25.3221C119.784 25.1002 120.05 24.9079 120.342 24.7367C120.669 24.5446 121.022 24.4114 121.387 24.329C121.759 24.202 122.15 24.1238 122.547 24.0984ZM118.206 111.228C118.243 111.226 120.2 111.96 121.175 112.434L121.223 112.458C122.347 113.016 122.888 113.417 123.898 114.134C123.965 114.182 124.035 114.256 124.035 114.328C124.035 115.372 123.781 116.648 122.905 116.082C122.778 116.001 122.65 115.921 122.522 115.842L122.328 115.725L122.322 115.727C122.324 115.727 122.326 115.725 122.328 115.723C120.418 114.558 118.4 113.645 116.271 112.992C116.125 112.94 117.205 111.308 117.503 111.399C117.331 111.331 118.178 111.229 118.206 111.228ZM138.272 65.1352C137.002 65.2711 135.732 65.4049 134.462 65.5358C133.653 65.6287 132.842 65.7112 132.031 65.7809C130.812 65.872 129.593 65.8866 128.378 65.7196C127.947 65.6607 127.524 65.5759 127.106 65.4724C126.821 65.6816 126.525 65.8781 126.223 66.0665L122.868 68.6342C120.618 70.4034 118.417 72.2778 116.435 74.3469C112.974 77.9619 110.155 82.191 108.383 86.8756C108.222 86.9705 108.098 87.136 108.056 87.3898C107.743 89.3099 106.828 91.0612 106.497 92.9735C106.171 94.857 106.604 96.4582 107.787 97.9512C108.039 98.2701 108.557 98.2532 108.874 98.0378C108.948 98.1828 109.267 98.1767 109.379 97.5363C109.905 96.9667 110.355 96.3697 110.66 95.6303C110.884 95.0859 110.507 94.7084 110.049 94.6343C110.239 93.9495 110.454 93.2708 110.695 92.5994C111.409 90.604 112.317 88.6978 113.46 86.9098C114.466 85.3372 115.63 83.9676 116.881 82.5938C116.896 82.5748 116.921 82.5687 116.948 82.5645L117.208 82.2768C117.244 82.2367 117.318 82.2409 117.4 82.262C117.479 82.1796 117.555 82.0951 117.635 82.0126C117.713 81.9281 117.8 81.9534 117.848 82.0211C117.981 81.9915 118.224 82.1352 118.298 82.1819C118.425 82.2662 118.465 82.3614 118.358 82.4818C118.338 82.5032 118.319 82.5243 118.3 82.5431C118.446 82.6046 118.59 82.6868 118.702 82.7674C119.093 82.8538 119.642 83.2173 119.547 83.3253C119.346 83.5343 119.152 83.748 118.96 83.9655C119.129 84.0841 119.238 84.2001 119.194 84.251C118.37 85.1195 117.61 86.0391 116.912 87.0132C116.382 87.7402 115.903 88.4968 115.474 89.2852C114.836 90.4011 114.295 91.5487 113.815 92.7281C113.748 92.9079 113.682 93.0874 113.619 93.267C112.917 95.2305 112.393 97.2679 112.172 99.3433L112.162 99.4833C112.121 100.231 112.105 102.233 112.028 102.71C112.495 102.941 112.981 103.137 113.486 103.298C113.581 103.325 113.678 103.351 113.775 103.374C113.83 103.351 113.887 103.332 113.944 103.315C114.409 103.127 114.895 102.991 115.391 102.926C115.726 102.882 116.059 102.866 116.392 102.876L116.534 102.881C116.682 102.886 116.828 102.896 116.976 102.911C116.967 102.826 116.963 102.744 116.957 102.659C116.915 102.632 116.883 102.594 116.881 102.543C116.781 101.592 116.779 100.641 116.874 99.69C116.938 99.1933 117.012 98.6987 117.092 98.2044C117.174 97.7984 117.269 97.3991 117.373 96.9995C117.648 95.8795 118.013 94.7866 118.457 93.7174C119.72 90.6674 121.531 87.9178 123.352 85.1829C124.681 83.1858 125.938 81.144 127.313 79.1805C128.484 77.5088 129.713 75.8623 131.025 74.2983C132.335 72.7367 133.719 71.2338 135.212 69.8433C135.453 69.6212 135.696 69.4056 135.943 69.1923C137.359 67.9242 138.897 66.8821 140.498 65.8593C140.56 65.8192 140.669 65.8636 140.76 65.9394L141.019 65.7805C141.062 65.7542 141.105 65.7281 141.149 65.7027C141.189 65.6776 141.234 65.7196 141.257 65.7556C141.367 65.6985 141.477 65.6438 141.586 65.5886C141.666 65.5239 141.749 65.4626 141.83 65.3988C140.642 65.339 139.456 65.2502 138.272 65.1352ZM153.166 51.0456C152.207 50.8535 151.243 50.8258 150.276 50.9695C149.87 51.0289 149.467 51.1003 149.067 51.1868C149.975 51.9793 150.706 52.9936 151.18 54.1609C151.693 55.4226 149.649 55.9664 149.143 54.7229C148.656 53.5232 147.733 52.603 146.619 52.0514C146.378 52.186 146.144 52.3319 145.922 52.4933C145.63 52.73 145.355 52.9858 145.098 53.2669C144.536 53.8779 144.02 54.6935 143.682 55.5008C143.551 55.9404 143.454 56.3927 143.393 56.8577C143.38 56.9634 143.367 57.0712 143.357 57.179C143.148 59.3662 143.774 61.4943 144.849 63.3774L144.891 63.3781C145.851 62.8573 146.856 62.4185 147.891 62.0611C148.719 61.5034 149.579 60.9875 150.464 60.5204C152.346 59.5272 154.333 58.7616 156.381 58.238L156.618 58.1786C157.1 58.0554 157.587 57.9467 158.076 57.8517L158.369 57.7963H158.374L158.342 57.4812C158.177 56.2448 157.693 55.0972 157.068 54.0364C156.599 53.2354 155.891 52.4153 155.105 51.7601L155.101 51.7578C154.744 51.5549 154.369 51.3871 153.983 51.2484L153.838 51.1977L153.166 51.0456ZM127.413 49.1669C125.419 48.9786 123.424 48.9976 121.43 49.1603C120.126 49.2895 118.831 49.4689 117.542 49.6972C116.67 49.8472 115.814 50.0586 114.973 50.3209L115.454 51.2938C116.258 52.9143 117.082 54.524 118.052 56.0546C118.552 56.8429 119.095 57.5934 119.687 58.3139C120.086 58.8296 120.526 59.3075 121.007 59.7469C121.134 59.9014 121.269 60.0472 121.407 60.1886C121.846 60.5648 122.319 60.8945 122.837 61.1671C123.252 61.4696 123.685 61.7338 124.137 61.9655L124.307 62.0508L125.892 62.6593C125.976 62.6832 126.062 62.7072 126.147 62.7299L126.276 62.763L126.517 62.8136L126.698 62.7154C126.728 62.6992 126.759 62.6832 126.79 62.6677C126.84 62.6405 126.876 62.6933 126.887 62.7311C126.891 62.7461 126.885 62.7671 126.874 62.7882L127.105 62.6633C127.502 62.8245 127.923 62.9535 128.375 63.0384C128.58 63.0767 128.785 63.1061 128.99 63.1312L129.017 63.1496C129.022 63.1528 129.026 63.1563 129.031 63.1604H129.256C130.835 63.3128 132.437 63.1113 134.014 62.8279C136.245 62.6035 138.476 62.356 140.706 62.1246C140.748 62.1205 140.765 62.1393 140.765 62.1691L140.902 62.1565C141.101 62.1351 141.333 62.4669 141.183 62.5876C141.304 62.6593 141.42 62.763 141.507 62.8434L141.557 62.8389C141.251 62.2387 141.014 61.611 140.845 60.9581L140.63 59.8631C140.571 59.4552 140.537 59.02 140.531 58.5908C140.516 58.3942 140.505 58.2106 140.505 58.0497C140.505 57.8975 140.507 57.7454 140.514 57.5934C140.093 57.4199 139.666 57.2679 139.231 57.1388C137.995 56.9868 136.761 56.8345 135.526 56.6844C134.784 56.7119 134.042 56.7647 133.303 56.8471C132.464 56.9211 131.628 57.0162 130.793 57.1303C130.715 57.1388 130.576 57.0331 130.491 56.9105L130.134 56.9594C129.948 56.9826 129.754 56.6104 129.999 56.5343C130.088 56.4991 130.176 56.4658 130.265 56.4337L130.398 56.3864L130.322 56.3948C130.297 56.3972 130.265 56.3906 130.229 56.3782C130.033 56.4033 129.836 56.4287 129.642 56.4519C129.395 56.4827 129.451 56.1576 129.624 56.081L129.707 56.0503C129.561 55.9592 129.433 55.71 129.613 55.6285L129.638 55.6192C129.722 55.5856 129.804 55.5579 129.889 55.5262C129.883 55.4989 129.883 55.4734 129.891 55.4503L129.542 55.4945C129.511 55.4987 129.662 55.2761 129.735 55.2321L129.747 55.2261L129.914 55.1754C129.94 55.1035 130.075 54.945 130.121 54.9304C130.734 54.7379 131.304 54.5648 131.9 54.4314C131.93 54.3955 131.964 54.368 132.002 54.3595C132.373 54.2708 132.75 54.201 133.126 54.1421C133.151 54.1038 133.176 54.0765 133.206 54.0742C134.138 53.9559 135.071 53.9284 136.009 53.992C136.189 54.0087 136.369 54.0279 136.548 54.051C136.892 54.0892 137.237 54.1378 137.579 54.2034C138.436 54.3505 139.274 54.5743 140.089 54.8761L140.277 54.9471C140.482 55.0234 140.685 55.1035 140.885 55.1904C140.987 54.829 141.114 54.4737 141.264 54.1252C141.287 54.0573 141.312 53.992 141.34 53.9265L141.135 53.8037C141.09 53.8882 141 53.9538 140.94 53.918C139.472 52.9268 137.919 52.1002 136.282 51.4408C135.365 51.035 134.427 50.6907 133.466 50.4031C132.986 50.249 132.502 50.1095 132.016 49.9764C131.773 49.9254 131.531 49.8747 131.283 49.8324C130.014 49.49 128.723 49.2683 127.413 49.1669ZM175.796 52.5216C175.617 52.8298 175.432 53.135 175.235 53.4359C174.28 54.8983 173.135 56.2706 171.837 57.467C172.175 57.4662 172.513 57.4791 172.847 57.5103C173.422 57.5647 173.985 57.6602 174.535 57.794C174.579 57.7583 174.629 57.7403 174.669 57.7686L174.812 57.8677C175.99 58.1858 177.097 58.6859 178.099 59.3558L178.081 59.2235C178.078 59.2015 178.074 59.1794 178.07 59.1574C178.087 58.8974 178.092 58.6373 178.083 58.3794C177.876 56.8556 177.358 55.4522 176.767 54.0321C176.756 54.0047 176.764 53.969 176.781 53.9326C176.482 53.4448 176.155 52.9731 175.796 52.5216ZM176.068 40.5415C175.626 40.6218 175.189 40.7253 174.754 40.8543C173.936 40.977 173.144 41.1926 172.379 41.4989C171.325 41.873 170.302 42.3083 169.284 42.7693C167.307 43.6652 165.452 44.7983 163.764 46.1636C163.656 46.2458 163.552 46.3305 163.449 46.4151C163.071 46.7425 162.703 47.0849 162.355 47.4463C161.989 47.8436 161.621 48.2412 161.256 48.6404C160.808 49.1098 160.293 49.5344 159.887 50.0416C159.805 50.1452 159.733 50.2593 159.667 50.3737L159.906 50.4559C160.107 50.5235 160.073 50.8997 159.874 50.8448C159.807 50.8258 159.743 50.8025 159.68 50.7774C159.707 50.8133 159.726 50.8492 159.731 50.8807C159.743 50.9822 159.665 51.1219 159.54 51.0859C159.483 51.0709 159.426 51.0498 159.369 51.0265C159.352 51.0921 159.34 51.1576 159.34 51.221C159.35 51.2252 159.361 51.2294 159.374 51.2318C159.513 51.2804 159.775 51.4979 159.813 51.646C159.843 51.7601 159.745 51.8825 159.621 51.8487C159.528 51.8233 159.437 51.7853 159.348 51.743C159.407 51.8003 159.454 51.8616 159.458 51.9144C159.467 52.0116 159.382 52.1488 159.266 52.1173C159.05 52.0579 158.877 51.9673 158.733 51.8531C158.695 51.9036 158.64 51.9438 158.596 51.9313L158.514 51.906C158.536 51.927 158.557 51.9491 158.577 51.9708L158.607 52.003C159.19 52.6328 159.699 53.3303 160.107 54.0808C160.126 54.0594 160.149 54.0404 160.179 54.0171C160.369 53.8565 160.565 53.7001 160.762 53.5482L160.821 53.4962L160.882 53.4444L160.44 53.5902L160.45 53.5788C160.481 53.5388 160.579 53.4056 160.624 53.3612L160.635 53.3514C161.241 52.8084 161.902 52.3475 162.617 51.9715C163.079 51.6712 163.565 51.4175 164.074 51.2083C165.289 50.644 166.527 50.2152 167.799 49.8178C167.989 49.7565 168.179 49.691 168.369 49.6316C168.424 49.6126 168.435 49.6359 168.426 49.6739L168.526 49.6443C168.703 49.5872 169.005 49.9 168.885 50.0459C168.958 50.1051 169.029 50.171 169.091 50.2329L169.136 50.2784L169.187 50.2636C169.338 50.217 169.593 50.4524 169.754 50.6191L169.874 50.7454C169.964 50.8427 170.142 51.0434 169.924 51.1219L169.652 51.2146C169.66 51.2696 169.637 51.3161 169.552 51.3478C169.457 51.3795 169.364 51.4133 169.271 51.4473C169.328 51.4965 169.383 51.5477 169.438 51.5995L169.519 51.6775C169.614 51.7752 169.841 51.9905 169.641 52.0855L169.616 52.096L169.356 52.189C169.39 52.2651 169.381 52.3371 169.267 52.3792C167.75 52.8949 166.269 53.4995 164.822 54.1864C163.738 54.7865 162.593 55.2347 161.387 55.5283C161.288 55.5602 161.072 55.4102 160.983 55.2601L160.803 55.3131C160.773 55.3219 160.743 55.3303 160.713 55.3381L160.683 55.3446C160.909 55.947 161.076 56.5998 161.169 57.2318C161.18 57.2888 161.188 57.3482 161.195 57.4053C161.431 57.3861 161.666 57.3692 161.902 57.3567C163.54 57.2698 165.196 57.3227 166.838 57.5171C167.501 57.1219 168.139 56.6886 168.75 56.2196C168.936 56.0757 169.119 55.9277 169.301 55.7777C170.391 54.8308 171.378 53.768 172.252 52.6201C173.062 51.557 173.765 50.4157 174.357 49.2197C174.881 48.0972 175.314 46.9306 175.641 45.7259C175.941 44.6247 176.045 43.5532 176.121 42.414C176.146 42.228 176.163 42.0423 176.178 41.8561L176.176 41.7764L176.174 41.7377C176.152 41.3385 176.112 40.9388 176.068 40.5415ZM160.588 54.6956C160.54 54.7125 160.489 54.7294 160.438 54.7442C160.468 54.8097 160.495 54.8734 160.523 54.9387L160.526 54.9374L160.725 54.7801C160.683 54.7611 160.635 54.7318 160.588 54.6956ZM175.772 37.5446C176.152 37.403 176.439 37.3755 176.634 37.4642C176.346 37.4854 176.059 37.5129 175.772 37.5446Z" fill="black"/>
<path fill-rule="evenodd" clip-rule="evenodd" d="M153.555 121.88C155.088 121.584 156.994 122.228 158.522 122.511L158.636 122.531C160.489 122.855 162.338 123.247 164.211 123.438C166 123.62 167.827 123.653 169.615 123.448C170.475 123.349 171.326 123.18 172.161 122.955C172.518 122.858 172.872 122.75 173.222 122.631L173.261 122.615C173.518 122.509 174.213 122.109 174.205 122.332C174.4 122.107 174.67 121.947 174.965 121.869C175.382 121.759 175.918 121.862 176.267 122.157C176.721 121.798 177.402 122.056 177.706 122.486C178.228 123.225 178.058 124.091 177.991 124.948L177.985 125.023C177.928 125.831 177.84 126.633 177.732 127.435L177.684 127.779C177.516 128.965 177.47 130.92 176.033 131.309C174.897 131.617 173.858 130.447 173.125 129.519L172.725 129.005C172.25 128.403 171.819 127.783 171.471 127.098C171.313 126.786 171.16 126.466 171.028 126.143C171.011 126.102 170.999 126.066 170.986 126.029C168.879 126.312 166.723 126.272 164.611 125.993C163.273 125.817 161.956 125.562 160.658 125.219L160.073 126.278C159.388 127.513 158.693 128.743 157.962 129.95L157.906 130.042C157.222 131.13 156.077 132.22 154.724 131.405C153.512 130.675 153.461 129.016 153.333 127.777C153.248 126.95 153.179 126.117 153.146 125.286L153.134 124.929C153.112 124.123 152.981 123.188 153.291 122.434C153.336 122.324 153.494 122.239 153.589 122.355C154.236 123.142 154.432 124.363 154.712 125.329C155.023 126.405 155.474 127.579 155.636 128.695L155.681 128.616C155.841 128.313 156.003 128.012 156.167 127.711L156.657 126.808C157.097 125.993 157.544 125.183 157.996 124.375C157.48 124.181 156.969 123.973 156.46 123.761L155.305 123.278C154.645 123 153.973 122.685 153.477 122.178C153.389 122.088 153.42 121.906 153.555 121.88ZM175.468 124.857C174.33 125.32 173.153 125.654 171.954 125.876C172.031 125.955 172.109 126.034 172.18 126.117C172.462 126.444 172.762 126.757 173.063 127.068L173.243 127.253C173.704 127.727 174.397 128.506 175.103 128.959L175.142 128.754C175.148 128.719 175.153 128.688 175.155 128.665L175.231 127.992C175.243 127.88 175.255 127.768 175.266 127.656C175.327 127.05 175.375 126.442 175.426 125.835C175.452 125.515 175.459 125.186 175.468 124.857ZM162 85.7855C164.71 84.6273 167.927 85.1741 170.262 86.9236C172.651 88.7139 173.696 91.6246 173.834 94.5286C175.723 92.9147 178.444 94.1363 180.035 95.6485C181.872 97.3937 182.8 100.027 182.372 102.527C181.946 105.018 180.144 107.215 177.706 107.956C176.54 108.311 175.24 108.319 174.066 107.989C173.668 107.877 173.18 107.703 172.729 107.461C172.754 107.564 172.781 107.668 172.805 107.772C173.391 110.251 173.723 113.037 172.844 115.488C171.432 119.428 166.417 121.633 163.286 118.136C162.057 116.764 161.101 114.614 161.176 112.742C161.215 111.759 161.772 110.621 162.921 110.688C163.813 110.739 164.236 111.486 164.008 112.276L163.994 112.321C163.51 113.831 164.335 116.013 165.531 117.043C167.364 118.623 169.88 117.248 170.883 115.396C172.051 113.238 171.909 110.47 171.535 108.122C171.169 105.816 170.351 103.707 169.483 101.573C169.391 101.59 169.297 101.605 169.202 101.618C167.475 101.853 163.963 101.941 162.055 100.69C162.26 102.621 161.858 104.609 160.761 106.244C159.539 108.066 157.698 109.031 155.556 109.326C153.475 109.614 151.062 109.672 149.008 109.179C144.633 108.128 143.09 102.725 144.413 98.8239C145.196 96.5166 147.38 94.4413 149.808 93.9172C151.058 93.0942 152.738 92.8505 154.181 92.9627C156.337 93.1307 158.46 94.0626 159.904 95.6991C160.456 96.3242 160.909 97.032 161.259 97.7895C161.376 97.6969 161.513 97.6274 161.668 97.5911C161.909 97.5344 162.121 97.5217 162.357 97.605C162.474 97.6466 162.644 97.7937 162.746 97.8893L162.979 98.1632C163.265 98.4964 163.537 98.7759 164.046 98.983C165.464 99.5606 167.388 99.686 168.895 99.5678C172.74 99.2669 172.256 94.1718 171.309 91.5543C170.187 88.4533 166.971 86.5243 163.7 87.0751C162.294 87.3116 160.953 88.06 159.925 89.0379C158.776 90.1298 158.284 91.4486 157.595 92.8306C157.555 92.9124 157.414 92.8946 157.396 92.8044C156.83 89.8903 159.515 86.8473 162 85.7855ZM141.52 109.28C141.403 109.143 141.557 108.901 141.724 109.015C142.949 109.848 144.312 110.449 145.794 110.612C146.49 110.688 147.191 110.693 147.884 110.586C148.475 110.495 149.007 110.315 149.597 110.478C149.91 110.564 149.967 110.928 149.776 111.157C148.885 112.217 146.693 111.934 145.498 111.65C143.952 111.282 142.55 110.491 141.52 109.28ZM182.762 107.344C183.363 106.971 184.08 107.709 183.724 108.306C182.81 109.837 180.162 109.961 178.626 109.595C178.506 109.567 178.534 109.378 178.655 109.381C179.538 109.403 180.336 109.233 181.097 108.773C181.747 108.379 182.134 107.733 182.762 107.344ZM153.404 95.1066L153.283 95.1077C151.879 95.1303 150.592 95.6661 149.239 95.9493C149.127 95.9729 149.014 95.9609 148.913 95.9237C147.264 97.0238 146.128 98.7535 145.974 101.03C145.867 102.606 146.252 104.324 147.187 105.617C148.252 107.09 149.968 107.317 151.658 107.361L151.829 107.365C155.023 107.427 158.537 107.238 159.676 103.666C160.518 101.022 159.618 97.8128 157.271 96.2291C156.132 95.46 154.77 95.1054 153.404 95.1066ZM179.136 97.0027L179.042 96.8932C177.789 95.4554 175.803 94.1458 173.845 94.8699L173.851 95.1121C173.851 95.1525 173.852 95.1929 173.852 95.2332C173.846 98.0099 172.77 100.601 170.127 101.416C170.836 102.428 171.406 103.551 171.862 104.717C172.023 104.612 172.219 104.545 172.446 104.522C173.377 104.428 173.91 105.302 174.717 105.628C175.473 105.934 176.329 106.013 177.127 105.855C178.872 105.51 180.096 104.004 180.525 102.334C181.009 100.446 180.369 98.4671 179.136 97.0027ZM152.578 99.3396C153.16 98.3565 154.595 98.4988 155.17 99.3655L155.198 99.4087L155.204 99.4007C156.162 100.643 155.699 102.605 154.308 103.304C153.192 103.864 151.772 103.717 151.03 102.627C150.864 102.382 150.757 102.095 150.718 101.804C150.692 101.606 150.707 101.408 150.751 101.211L150.74 101.257C150.762 101.158 150.797 101.002 150.806 100.965C150.904 100.565 151.139 100.135 151.433 99.8445C151.736 99.5457 152.158 99.3639 152.578 99.3396ZM176.486 98.3183C177.002 98.3183 177.459 98.5339 177.831 98.8756C178.361 99.3619 178.434 100.062 178.32 100.726C178.285 100.929 178.237 101.125 178.186 101.324L178.143 101.505C178.135 101.535 178.127 101.565 178.118 101.594C178.086 101.717 178.036 101.831 177.976 101.94C177.755 102.76 176.863 103.168 176.077 102.989C175.706 102.904 175.337 102.597 175.149 102.275C175.087 102.169 175.043 102.063 175.012 101.957L174.859 101.594C174.831 101.507 174.813 101.413 174.79 101.324C174.738 101.125 174.689 100.929 174.653 100.726C174.532 100.04 174.628 99.3892 175.142 98.8756C175.487 98.5305 175.999 98.3183 176.486 98.3183ZM165.137 91.1993C166.031 91.0793 166.942 91.496 167.405 92.2863C167.806 92.9732 167.805 93.8974 167.405 94.5843L167.371 94.6424C166.634 95.9076 164.915 96.0699 163.88 95.0924L163.83 95.045C163.165 94.4167 163.015 93.3745 163.36 92.5583C163.675 91.8118 164.335 91.3073 165.137 91.1993Z" fill="black"/>
<path fill-rule="evenodd" clip-rule="evenodd" d="M186.085 109.758C184.662 111.67 182.025 112.279 179.593 112.068C174.347 111.563 172.696 105.603 172.524 100.97C176.042 101.96 172.226 94.9491 184.251 94.178C188.491 93.8247 187.322 96.3858 189.195 98.2571C189.156 102.184 188.503 106.452 186.085 109.758ZM161.098 105.245C158.001 119.755 141.041 116.304 139.259 103.224C140.904 102.063 140.471 99.1945 142.515 98.1553C145.754 96.0849 149.803 96.1734 153.481 96.222C158.183 96.5452 159.523 98.4936 161.938 100.619C161.822 102.039 161.487 103.722 161.098 105.245ZM192.803 91.775C192.629 91.7461 192.455 91.7188 192.281 91.6932C192.145 91.6161 191.986 91.5567 191.8 91.521C191.377 91.4134 190.956 91.3409 190.536 91.3018C184.508 89.9447 170.563 91.8716 169.987 97.0176C168.068 97.6586 166.407 97.0846 164.182 97.1416C162.489 90.0603 133.21 91.0598 131.802 95.3291C131.797 95.3276 131.792 95.3263 131.786 95.3246C130.433 94.9057 128.439 95.0068 126.89 94.9404C123.584 94.8711 120.273 95.1659 117.038 95.8636C110.98 96.8267 102.712 97.9543 106.925 105.522C106.926 105.524 106.927 105.525 106.928 105.526L106.929 105.526C107.655 106.27 108.887 105.671 108.933 104.663C107.516 101.077 110.716 100.647 113.177 99.6165C119.303 97.4151 125.539 97.1099 131.874 97.7909C132.351 98.3522 133.074 98.8417 133.838 99.0979C138.074 99.8013 135.842 102.944 138.519 103.402C138.027 114.358 151.325 120.339 159.029 113.137C162.106 110.128 162.839 105.671 163.552 101.653C163.929 101.568 164.169 101.362 164.309 101.089C165.216 100.183 165.786 99.3466 167.579 99.0979C169.373 98.8493 170.753 99.3483 170.94 99.5011C170.987 99.596 171.038 99.6911 171.096 99.7862C171.178 99.9281 171.29 100.041 171.417 100.13C169.646 111.041 178.113 117.941 186.66 112.282C190.374 108.787 191.159 103.436 191.314 98.66C191.818 98.356 192.137 97.767 191.962 97.0264C191.722 96.0056 192.285 95.1217 193.182 94.6779C194.348 94.1016 194.142 91.9967 192.803 91.775Z" fill="black"/>
</svg>
