<svg width="240" height="324" viewBox="0 0 240 324" fill="none" xmlns="http://www.w3.org/2000/svg">
<path fill-rule="evenodd" clip-rule="evenodd" d="M186.455 183.12C183.523 169.221 173.122 158.436 159.135 153.064C156.446 151.542 153.84 145.014 150.226 143.819C149.647 143.627 150.561 145.152 150.226 145.244C149.031 145.568 147.692 145.602 146.373 144.429C144.015 142.332 143.275 136.207 141.841 133.438C134.28 118.837 115.4 124.55 112.871 140.691C111.108 141.841 108.615 142.854 106.695 143.781C104.718 144.735 102.979 147.046 100.942 147.873C99.1244 148.61 96.1294 148.088 94.2979 148.73C85.8737 151.687 78.7388 155.417 73.145 162.975C71.9664 164.569 70.6377 166.528 69.5651 168.138C64.0354 174.507 60.1945 181.644 56.6571 189.302C46.76 211.78 44.0681 236.667 41.6529 260.885C41.7078 265.122 38.8971 276.872 43.0542 278.903C42.8057 279.161 42.8957 279.679 43.3567 279.674C53.8975 279.568 64.4138 280.511 74.791 282.346C79.7979 283.231 84.7779 284.445 89.8779 284.645C100.465 284.572 111.013 282.797 121.586 284.476C134.297 284.476 149.744 284.106 163.884 283.562C177.099 283.054 190.385 284.202 203.437 281.954C204.47 281.79 204.974 280.53 204.758 279.626C203.227 274.044 202.475 268.3 201.616 262.587C201.787 258.922 201.481 255.097 200.126 251.684C196.585 228.643 192.045 205.752 186.455 183.12Z" fill="white"/>
<path fill-rule="evenodd" clip-rule="evenodd" d="M182.19 213.406C181.912 214.761 181.521 216.116 181.001 217.399C180.5 218.637 179.746 219.747 179.227 220.97C179.157 221.135 179.043 221.26 178.905 221.355L178.948 221.688L178.988 222.021C179.247 224.267 179.538 226.507 179.791 228.753L179.913 229.877C180.41 234.567 181.193 239.233 181.802 243.91C182.398 248.49 183.004 253.07 183.652 257.644C184.322 262.359 185.005 267.068 185.801 271.764C186.137 273.748 186.488 275.729 186.854 277.709L187.136 279.225C190.043 279.924 190.838 283.978 187.878 285.474C186.534 286.151 184.808 285.988 183.701 284.925C182.55 283.817 182.503 281.82 182.236 280.32L181.978 278.925C180.053 268.442 178.383 257.837 177.602 247.205C177.401 244.46 177.232 241.713 177.122 238.963C177.018 236.376 177.068 233.79 177.028 231.203L177.014 230.498C176.953 227.74 177.004 224.986 177.076 222.228C177.084 221.892 177.099 221.556 177.116 221.218C177.019 221.104 176.949 220.968 176.92 220.837L176.881 220.664C176.786 220.218 176.894 219.696 177.236 219.377C177.384 217.498 177.579 215.621 177.631 213.744C177.636 213.59 177.857 213.594 177.87 213.744C177.995 215.342 178.244 216.944 178.493 218.544C180.097 217.255 181.282 215.129 181.981 213.349C182.032 213.22 182.22 213.267 182.19 213.406ZM144.251 138.711C144.517 139.928 145.043 141.021 145.749 142.037C146.085 142.524 146.467 142.976 146.926 143.354C147.319 143.677 147.767 143.889 148.185 144.17C148.793 144.075 149.429 144.305 149.856 144.753L149.789 144.098C149.767 143.887 150.118 143.845 150.158 144.049C152.007 153.374 153.692 162.706 155.151 172.098L155.791 176.246L156.393 180.14C157.392 186.629 158.359 193.115 159.086 199.651C160.056 208.374 160.871 217.12 161.467 225.878C162.065 234.698 162.433 243.523 162.695 252.36C162.76 254.588 162.83 256.813 162.898 259.041L163.349 256.378C163.799 253.714 164.241 251.048 164.619 248.372C165.978 238.796 167.064 229.152 167.594 219.493C168.08 210.654 167.917 201.64 165.67 193.03C165.103 190.863 164.41 188.731 163.574 186.653C162.762 184.633 161.655 182.76 160.783 180.77C159.769 178.453 159.464 176.268 159.986 173.774C160.443 171.601 161.244 169.557 161.387 167.321C161.655 163.17 160.305 159.15 158.398 155.517C157.895 154.56 157.364 153.615 156.811 152.679C155.136 149.849 153.247 147.122 151.286 144.508C151.181 144.369 151.405 144.214 151.519 144.328C153.306 146.095 155.26 147.833 156.868 149.762C157.65 150.701 158.412 151.658 159.135 152.641C167.062 153.966 173.873 158.905 178.529 165.428C183.813 172.829 186.486 181.738 188.463 190.51C190.663 200.26 192.517 210.099 194.493 219.897C196.538 230.035 198.572 240.174 200.63 250.31C201.652 255.342 202.675 260.375 203.695 265.409C204.213 267.958 204.756 270.5 205.324 273.041C205.616 274.343 205.929 275.643 206.199 276.949C206.503 278.422 206.22 279.364 205.223 280.447C204.855 280.848 204.274 280.842 203.818 280.628L203.675 280.561L203.537 280.495C202.973 280.217 202.53 279.929 202.179 279.311C201.792 278.633 201.731 277.881 201.598 277.126C201.352 275.737 201.11 274.349 200.865 272.958C200.498 270.879 200.1 268.805 199.695 266.732L197.662 256.371C197.12 253.608 196.577 250.846 196.031 248.085C194.081 238.21 192.129 228.338 190.177 218.466C188.302 208.987 186.644 199.442 184.51 190.018L184.389 189.487L184.266 188.957C182.358 180.832 179.692 172.974 174.855 166.089C171.133 160.795 165.963 156.067 159.874 153.674C160.303 154.292 160.715 154.921 161.108 155.564C163.576 159.596 165.378 164.384 164.955 169.185C164.748 171.531 163.857 173.837 163.941 176.202C164.019 178.303 165.319 180.148 166.217 181.976C168.255 186.119 169.73 190.521 170.681 195.038C172.589 204.107 172.582 213.438 171.925 222.644C171.211 232.652 169.855 242.657 168.31 252.567C167.518 257.65 166.464 262.691 165.657 267.766C165.258 270.268 164.714 272.764 164.239 275.254L164.013 276.443C163.886 277.103 163.754 277.761 163.602 278.412L163.508 278.802V278.872C163.504 279.352 163.373 279.749 163.162 280.066C162.872 280.994 162.513 281.899 162.036 282.767C161.791 283.211 161.436 283.46 161.049 283.551C160.66 284.441 159.779 285.126 158.727 285.122L144.891 285.069C136.855 285.037 128.818 284.984 120.781 284.94C118.753 284.929 116.727 284.891 114.701 284.838C112.802 284.786 110.981 284.557 109.103 284.321C106.981 284.054 105.832 282.552 106.149 280.432C106.219 279.964 106.295 279.5 106.367 279.035C105.944 279.174 105.441 279.109 105.101 278.777L104.782 278.465C104.34 278.027 103.945 277.598 103.665 277.014C103.375 276.414 103.14 275.78 102.885 275.167C102.333 273.848 101.797 272.525 101.275 271.196C100.229 268.537 99.1837 265.868 98.2116 263.181C96.2872 257.861 94.5842 252.461 93.1034 247C90.4625 237.257 88.5525 227.326 87.3482 217.306L87.0603 214.917L86.9766 214.212C86.52 210.328 86.1356 206.384 86.3172 202.509C86.4294 200.082 86.8053 197.637 87.7118 195.371C88.5482 193.281 89.8391 191.493 91.0665 189.625L91.207 189.409L91.3482 189.189C92.4217 187.492 93.2759 185.717 93.3187 183.657C93.362 181.565 92.753 179.53 92.072 177.572L91.9023 177.089L91.7884 176.77C90.3398 172.723 88.6912 168.734 89.2349 164.331C90.0379 157.846 93.9672 152.62 98.9111 148.589C94.5144 149.46 90.1625 151.18 86.3217 153.362C81.7856 155.94 77.7018 159.343 74.1799 163.183C67.525 170.441 62.7736 179.148 58.8844 188.139C54.813 197.549 51.794 207.408 49.5189 217.397C47.2308 227.442 45.6992 237.648 44.6532 247.894C44.1315 252.994 43.7215 258.107 43.3815 263.221C43.2083 265.842 43.0773 268.467 42.8745 271.084C42.6717 273.698 42.5806 276.352 41.9426 278.897C41.6447 280.083 39.6356 280.203 39.4203 278.897C38.9425 275.98 39.076 272.964 39.2094 270.01L39.2215 269.742C39.3527 266.8 39.5238 263.86 39.7264 260.92C40.1407 254.911 40.694 248.911 41.4165 242.93C43.9496 221.934 48.621 201.049 57.7837 181.883C62.0977 172.857 67.6351 164.086 75.3379 157.567C79.0053 154.467 83.1398 151.992 87.5954 150.2C91.5801 148.596 95.628 147.837 99.8618 147.839C101.985 146.212 104.265 144.793 106.542 143.582C106.679 143.508 106.823 143.686 106.709 143.8C106.65 143.857 106.593 143.916 106.534 143.971C106.791 143.988 107.057 144.109 107.296 144.36C108.133 145.237 108.839 146.334 109.47 147.473C110.431 148.674 111.348 149.914 112.308 151.102C113.843 153.004 115.415 154.879 117.006 156.739C119.678 159.865 122.437 162.931 125.314 165.874L125.795 166.364C127.286 167.875 128.797 169.684 130.561 170.88L130.655 170.943C131.399 171.428 131.927 171.516 132.562 170.792C133.139 170.132 133.619 169.367 134.112 168.64L134.227 168.473C136.747 164.81 139.084 161.012 141.198 157.103C142.162 155.323 143.079 153.518 143.949 151.693L144.209 151.145C144.682 150.139 145.196 149.152 145.586 148.116C145.677 147.873 145.766 147.63 145.852 147.389C144.521 146.516 143.491 144.627 143.117 143.147C142.728 141.611 142.924 140.034 143.617 138.628C143.748 138.364 144.188 138.429 144.251 138.711ZM78.5915 201.15C78.4074 206.992 78.2956 212.84 78.0207 218.677L77.9259 220.67C78.3545 221.148 78.6059 221.699 78.4052 222.456C78.3273 222.746 78.0968 223.008 77.8095 223.105L77.7199 224.958C77.3122 233.295 76.8342 241.614 75.9609 249.93C74.8686 260.337 73.6052 270.726 72.3442 281.114C72.1646 282.585 71.1419 283.752 69.551 283.537C67.9414 283.319 67.2885 281.917 67.4998 280.457C68.3301 274.727 69.1285 268.993 69.828 263.245L70.6244 256.695C71.6232 248.508 72.6454 240.322 73.8231 232.161C74.3153 228.75 74.8266 225.341 75.3398 221.932L75.1604 221.699C74.4271 220.746 73.6686 219.814 72.9186 218.876C71.478 217.067 70.0562 215.272 68.7357 213.379C68.67 213.283 68.8033 213.144 68.8982 213.216C70.7489 214.583 72.5005 216.046 74.2625 217.532L75.8048 218.838C76.6921 212.947 77.5709 207.055 78.3545 201.15C78.3738 201.002 78.5956 200.991 78.5915 201.15ZM105.213 145.244C104.1 146.294 102.961 147.321 101.839 148.365L101.428 148.75L101.019 149.136C99.0471 151.006 97.1578 152.954 95.5836 155.19C92.6934 159.296 90.9716 164.303 92.1735 169.316C93.1709 173.469 95.4589 177.234 96.0737 181.49C96.382 183.623 96.2322 185.766 95.4291 187.78C94.6094 189.834 93.2996 191.595 92.1228 193.448C89.5665 197.477 89.2179 201.898 89.4716 206.565C89.7378 211.439 90.2975 216.314 90.9885 221.144C92.3869 230.929 94.4953 240.613 97.2862 250.097C98.6829 254.846 100.333 259.493 101.974 264.16C102.792 266.483 103.745 268.75 104.727 271.007C105.245 272.195 105.775 273.377 106.314 274.556C106.115 272.891 106.115 271.181 106.018 269.526C105.878 267.155 105.701 264.788 105.538 262.418C105.207 257.61 104.911 252.798 104.647 247.985C103.711 230.824 103.022 213.647 103.073 196.458C103.098 187.862 103.274 179.267 103.643 170.679C103.817 166.636 104.152 162.596 104.456 158.557L104.52 157.692C104.789 154.068 105.11 150.434 105.661 146.841C105.498 146.473 105.356 146.1 105.251 145.717L105.213 145.573L105.241 145.578C105.215 145.465 105.207 145.354 105.213 145.244ZM114.843 130.474C114.866 130.375 115.007 130.384 115.033 130.474C115.66 132.588 115.438 134.913 114.898 137.039C114.606 138.191 114.192 139.309 113.691 140.387L113.516 140.764C113.087 141.682 112.604 142.628 111.769 143.2C111.42 143.439 110.797 143.453 110.448 143.2L110.27 143.065C110.241 143.042 110.212 143.019 110.184 142.995C109.859 142.722 109.698 142.12 109.848 141.723C110.235 140.697 111.112 139.945 111.718 139.032C112.255 138.22 112.73 137.364 113.125 136.475C113.976 134.549 114.359 132.506 114.843 130.474Z" fill="black"/>
<path fill-rule="evenodd" clip-rule="evenodd" d="M139.501 145.49C135.128 145.478 131.125 144.625 127.327 142.759C122.741 141.262 117.734 140.447 114.012 137.133C112.2 137.518 110.342 135.656 108.839 134.548C106.387 143.574 93.6265 142.072 88.2347 136.239C84.9364 133.453 83.6096 126.56 89.3373 124.736C79.953 118.36 76.5634 107.345 77.2084 95.4264C77.8872 75.4331 93.2519 54.6472 113 51.1794C116.896 50.4937 120.897 50.5662 124.776 51.3816C126.942 51.8517 129.036 52.763 131.354 52.7216C140.345 51.2998 150.22 51.4632 157.647 57.2197C169.517 65.1642 171.166 81.0596 169.779 93.8396L169.836 93.9592C169.146 98.6503 167.999 102.947 165.83 105.775C165.661 109.841 164.249 118.521 164.144 121.953C164.398 137.92 155.332 145.007 139.501 145.49Z" fill="white"/>
<path fill-rule="evenodd" clip-rule="evenodd" d="M87.2707 124.516C58.8445 99.3897 88.0068 42.8446 124.993 50.3469C128.736 51.6008 132.537 52.036 136.414 51.1069C155.949 48.0552 171.93 64.638 171.104 83.8233C171.242 87.1047 171.215 90.3891 170.861 93.6574C170.455 97.9533 169.348 102.548 166.879 106.119C166.85 108.518 165.439 117.516 165.212 121.749L165.168 122.633C164.943 126.984 164.458 131.421 162.546 135.388C156.667 146.045 141.522 148.332 130.663 145.228L130.211 145.079C128.194 144.408 125.908 143.514 124.627 141.824C123.95 140.931 125.071 139.791 126.002 140.034C127.202 140.347 128.196 141.079 129.316 141.598C136.621 144.828 145.26 143.746 152.471 140.73L152.689 140.638C165.602 135.394 162.065 116.739 163.765 106.103C164.151 92.596 152.89 83.3981 144.406 74.4647L144.152 74.1817C143.28 73.2147 142.36 72.2721 141.148 72.0659C140.816 73.0734 140 73.9308 139.242 74.6657L137.53 76.5169C135.817 78.3659 134.101 80.2074 132.361 82.0323C123.909 90.6214 115.297 102.283 102.269 103.161C103.07 103.886 103.772 104.714 104.611 105.397C104.965 105.751 104.604 106.346 104.129 106.225C103.244 105.998 102.677 105.158 102.096 104.501C95.0598 101.546 89.2812 112.466 95.2427 116.986C97.4543 119.329 103.917 117.547 102.422 120.435C104.053 125.552 106.564 130.698 110.811 134.121C112.057 135.063 114.005 135.54 114.832 136.926C115.032 137.26 114.93 137.806 114.555 137.983C112.751 138.825 110.813 137.41 109.428 136.344C102.111 150.651 75.2809 134.844 87.2707 124.516ZM130.749 54.6026L130.016 54.4591C122.199 52.912 117.045 51.3804 108.781 54.1776C90.3596 60.3327 78.484 79.9399 78.9974 98.9967C79.0094 109.823 84.3742 123.627 96.4578 125.164C98.2848 125.309 98.3134 128.145 96.5131 128.06L96.458 128.057C93.4794 127.871 90.596 126.79 88.1381 125.127C84.8406 130.47 88.1453 135.318 93.2829 137.614C98.4885 140.362 104.054 139.486 107.532 134.631C104.357 131.103 102.017 125.829 101.476 121.152C92.5606 124.612 85.8365 111.858 91.6371 105.094C93.6784 102.183 97.6409 100.363 100.908 102.43C114.961 97.0208 124.773 85.525 134.167 74.2641L134.669 73.6935C136.313 71.835 140.095 67.6371 140.515 67.0945C140.986 66.4843 141.938 67.0336 141.95 67.689C141.958 68.155 141.932 68.6276 141.88 69.0991C143.629 70.2275 145.046 71.9409 146.351 73.5229C156.09 81.1693 164.01 89.1776 166.474 101.308C168.004 99.5221 168.697 97.1772 169.198 94.9375C170.247 80.1633 167.427 62.4714 152.19 56.0624C144.867 52.4282 138.334 54.0937 130.749 54.6026ZM96.1954 110.089C95.5609 109.523 99.7527 109.454 100.148 109.898L100.239 109.929C101.739 110.457 104.488 112.158 103.138 113.925C101.214 115.739 99.8738 110.354 96.1954 110.089Z" fill="#221E1F"/>
<path fill-rule="evenodd" clip-rule="evenodd" d="M143.152 128.274C141.732 127.695 140.465 126.728 139.538 125.493C139.216 125.063 139.133 124.61 139.2 124.195C139.276 123.729 139.552 123.306 139.928 123.023C140.305 122.739 140.777 122.598 141.233 122.67C141.63 122.732 142.024 122.949 142.337 123.399L142.402 123.489C142.953 124.235 143.67 124.846 144.488 125.241C145.276 125.621 146.158 125.798 147.07 125.695C148.808 125.499 150.005 124.559 151.278 123.282C151.436 123.121 151.594 122.955 151.752 122.786C151.852 122.633 151.991 122.534 152.146 122.483C152.317 122.425 152.511 122.429 152.689 122.491C152.86 122.55 153.013 122.664 153.116 122.815C153.213 122.958 153.269 123.135 153.251 123.339C153.134 124.661 152.443 125.842 151.461 126.769C150.37 127.799 148.924 128.511 147.563 128.761C146.064 129.036 144.536 128.839 143.152 128.274ZM148.271 107.866C149.866 108.836 152.297 111.098 150.581 113.503C148.56 115.624 145.652 113.193 144.219 112.093C142.89 111.241 141.396 113.433 142.629 114.428C152.987 122.099 157.19 108.12 149.078 106.726C148.184 106.572 147.853 107.566 148.271 107.866ZM129.711 98.9429C129.887 96.7541 133.219 96.257 133.551 98.423C133.847 100.363 133.498 102.145 132.624 103.892C131.79 105.561 129.692 104.783 129.533 103.263C129.32 101.226 129.601 100.304 129.711 98.9429ZM155.076 97.9738C155.541 97.3652 156.212 96.9496 157.015 97.1845C159.526 97.9185 158.786 101.485 157.904 103.22C157.425 104.163 155.876 104.402 155.176 103.572C154.036 102.219 153.489 99.5156 154.94 98.1825C154.979 98.1136 155.023 98.044 155.076 97.9738ZM132.589 89.3654L132.986 89.2959C134.213 89.0836 135.738 88.8796 136.606 89.8665C137.067 90.3898 137.225 91.3624 136.606 91.8633C135.518 92.7446 134.314 92.4031 133.01 92.4777C131.935 92.5394 130.902 92.7174 129.867 93.0135C127.595 93.663 125.744 94.8486 123.804 96.1506C123.55 96.3213 123.29 95.9956 123.411 95.7574C124.531 93.563 126.701 91.7604 128.875 90.6616C130.036 90.0751 131.305 89.5885 132.589 89.3654ZM152.787 88.3823L153.091 88.4445C156.395 89.1353 160.687 90.5153 162.251 93.7615C162.311 94.2205 162.248 94.3189 162.197 94.3832L162.18 94.4046C162.137 94.4595 162.104 94.5351 161.905 94.5976C161.85 94.5844 161.794 94.5705 161.737 94.5557C161.02 94.3677 160.453 94.1087 159.904 93.84L159.308 93.5465C158.617 93.2076 157.92 92.881 157.181 92.6399C155.605 92.1254 153.983 91.7631 152.337 91.5696C151.98 91.5277 151.636 91.4072 151.365 91.2006C151.108 91.0046 150.911 90.7332 150.821 90.3724C150.705 89.9056 150.739 89.5521 150.989 89.1309C151.177 88.8146 151.447 88.5953 151.756 88.4694C152.071 88.3411 152.43 88.3108 152.787 88.3823Z" fill="black"/>
</svg>
