<svg width="240" height="324" viewBox="0 0 240 324" fill="none" xmlns="http://www.w3.org/2000/svg">
<path fill-rule="evenodd" clip-rule="evenodd" d="M198.116 286.313C202.199 286.116 200.557 278.971 200.264 276.347C197.031 266.764 197.791 256.308 196.52 246.263C195.728 236.886 194.71 227.538 193.854 218.168C192.173 199.147 180.099 160.427 166.321 154.2C164.586 146.582 157.417 139.47 148.348 139.47C142.162 132.145 134.716 126.99 125.166 128.031C121.22 128.21 117.392 132.398 113.611 133.206C111.494 133.498 92.7034 132.746 88.9395 134.983C86.3176 136.329 83.9508 138.818 84.7217 141.986C85.9517 145.825 82.1292 141.672 74.1554 145.769C57.8955 155.538 67.6117 168.607 68.0423 169.012C57.8955 183.135 49.0268 194.593 44.9233 211.855C42.2639 224.671 42.5633 237.902 40.335 250.784C39.5483 255.25 38.3413 259.564 37.0352 263.902C35.6197 269.578 34.9315 283.727 34.1512 283.853C32.73 284.206 34.9726 287.126 36.4785 287.128C78.2301 294.056 120.64 287.415 162.615 286.33C174.445 285.918 186.287 285.823 198.116 286.313Z" fill="white"/>
<path fill-rule="evenodd" clip-rule="evenodd" d="M134.835 170.259C134.854 170.067 135.112 170.068 135.132 170.259L135.427 173.105C135.785 176.582 136.131 180.052 136.381 183.545C136.693 187.901 136.902 192.255 137.002 196.621C137.353 211.825 137.423 227.037 137.452 242.244C139.508 242.102 141.564 241.965 143.621 241.832C145.017 241.742 146.413 241.655 147.808 241.57L151.368 241.354L152.833 241.264C153.823 241.203 154.948 240.954 155.641 241.831C155.918 242.182 156.057 242.639 155.798 243.056C155.202 244.018 154.287 243.984 153.252 244.026C152.275 244.065 151.298 244.104 150.321 244.142C148.227 244.223 146.134 244.3 144.04 244.358C141.843 244.42 139.646 244.47 137.449 244.508C137.427 250.928 137.161 257.34 136.874 263.753L136.744 266.639C136.393 274.443 136.015 282.254 135.478 290.048C135.434 290.686 134.532 290.685 134.488 290.048C133.883 281.271 133.485 272.475 133.089 263.686C132.802 257.314 132.635 250.94 132.556 244.565C132.265 244.566 131.975 244.57 131.685 244.572C123.44 244.607 115.197 244.643 106.951 244.566C106.965 244.582 106.979 244.599 106.988 244.62C107.584 246.029 107.641 247.827 107.627 249.34C107.61 251.074 107.377 252.787 106.977 254.474C105.547 260.516 101.857 265.928 97.6541 270.402L97.5169 270.547C96.5256 271.595 95.3884 272.648 94.7797 273.983C94.158 275.345 93.9422 276.939 93.6354 278.404L93.5996 278.572L92.4 284.115C92.0189 285.876 91.9107 288.443 90.5176 289.713C89.2179 290.899 87.4961 290.28 86.8844 288.754C86.4068 287.563 86.8825 286.255 87.1654 285.064L89.3819 275.744C89.746 274.224 90.144 272.694 90.93 271.328C91.7351 269.93 92.9155 268.916 94.1199 267.879C96.4006 265.915 98.4942 263.666 100.265 261.231C102.035 258.797 103.548 256.114 104.608 253.293C105.139 251.881 105.575 250.414 105.875 248.935C106.16 247.531 106.158 246.077 106.463 244.689C106.484 244.593 106.565 244.527 106.658 244.498C106.636 244.436 106.669 244.352 106.756 244.347L113.499 243.913C119.493 243.527 125.487 243.13 131.475 242.677L132.534 242.6C132.451 234.094 132.521 225.587 132.675 217.078C132.816 209.275 132.818 201.47 133.05 193.668C133.166 189.796 133.414 185.933 133.691 182.069C133.974 178.117 134.427 174.199 134.835 170.259ZM71.5196 215.501C71.4477 215.068 71.9926 214.8 72.2438 215.196C75.1151 219.724 76.4996 224.641 77.0831 229.94C77.5986 234.616 77.4467 239.359 77.19 244.048C76.9162 249.048 76.5968 254.048 76.2737 259.045L75.7774 266.71L74.532 285.923C74.4429 287.298 74.1311 288.547 72.9482 289.186C72.7984 289.311 72.6423 289.424 72.4604 289.521C71.8213 289.863 70.9737 289.69 70.6042 289.034L70.7523 289.131C70.8814 289.213 70.7365 289.099 70.3175 288.791L69.9619 288.331C69.7035 287.943 69.5385 287.561 69.4722 287.099C69.3691 286.381 69.5026 285.594 69.5495 284.873L70.3658 272.274C71.0007 262.479 71.742 252.688 72.3008 242.888C72.5611 238.321 72.7435 233.749 72.6201 229.174C72.4971 224.624 72.2654 219.997 71.5196 215.501ZM96.3593 131.161L96.5186 131.134C102.222 130.186 108.423 130.364 113.635 133.114C113.679 133.137 113.659 133.208 113.611 133.206L111.933 133.139C106.622 132.931 101.327 132.808 96.1051 134.056L95.5705 134.185C93.6899 134.644 91.726 135.206 90.2154 136.448C88.7716 137.636 88.0527 139.468 87.3614 141.155L87.2689 141.378C86.5676 143.044 85.6798 144.624 84.1425 145.665C82.1513 147.014 79.7566 146.849 77.4734 147.032C73.4534 147.356 70.1667 150.27 68.5315 153.837C67.5413 155.996 67.119 158.417 67.0353 160.779C66.9925 161.981 66.9863 163.231 67.1465 164.425C67.1976 164.807 67.6696 166.198 67.9102 166.165C68.4449 166.091 68.9338 166.37 69.1005 166.797C70.4213 165.521 71.7802 164.281 73.1828 163.086C76.6791 160.107 80.4449 157.408 84.4108 155.088C87.4377 153.317 90.6303 151.563 93.9365 150.237C93.6745 150.231 93.4161 150.283 93.1662 150.413C93.0568 150.47 92.948 150.333 93.0344 150.242C94.0757 149.146 95.323 148.99 96.5805 149.282C96.8488 149.197 97.1173 149.114 97.3869 149.036C97.521 148.997 97.5878 149.182 97.4784 149.253L97.1695 149.451C98.5413 149.91 99.8881 150.814 100.954 151.527C104.017 153.575 106.713 156.078 109.446 158.535L109.943 158.98C112.349 161.129 114.816 163.217 117.549 164.941C118.98 165.843 120.482 166.678 122.059 167.298C123.41 167.831 125.612 168.167 126.245 169.596C126.808 170.28 126.572 171.153 125.913 171.613C124.802 172.837 122.578 172.046 121.253 171.537C119.656 170.922 118.109 170.183 116.634 169.317C113.769 167.635 111.128 165.543 108.667 163.318C106.098 160.994 103.674 158.525 101.175 156.128C100.092 155.089 99.0337 154.027 97.9492 152.99L97.4044 152.473C96.8509 151.954 96.0622 151.145 95.2191 150.655C93.6306 151.603 92.0175 152.511 90.4434 153.484C88.246 154.841 86.1132 156.296 84.0134 157.799C79.971 160.693 76.1403 163.934 72.5841 167.408C66.0618 173.778 60.5051 181.053 55.6508 188.756L55.2821 189.343C52.5236 193.752 49.915 198.303 48.0654 203.174C46.0303 208.535 45.0405 214.173 44.5028 219.863C43.9691 225.513 43.7891 231.191 43.1927 236.836C42.5811 242.625 41.376 248.286 40.0053 253.937L39.6784 255.277C38.4382 260.337 37.158 265.398 36.5205 270.578C36.1801 273.345 35.9754 276.15 36.0217 278.939C36.0681 281.745 36.5089 284.488 36.8644 287.265C37.0007 288.328 35.9545 289.216 35.0184 289.357C33.9417 289.518 33.0168 288.831 32.6822 287.831C31.6389 284.712 31.4494 281.264 31.4822 277.991C31.5151 274.667 31.9391 271.365 32.5358 268.099C33.7091 261.674 35.5199 255.383 37.0347 249.035C38.3697 243.44 39.2657 237.836 39.7486 232.104C40.25 226.157 40.5502 220.191 41.4648 214.287C42.3675 208.459 44.0661 202.892 46.6277 197.578C48.9601 192.739 51.8676 188.185 54.9158 183.77C58.6174 178.41 62.6828 173.309 67.2272 168.661C66.819 168.644 66.3998 168.512 66.0149 168.272C64.8373 167.537 64.2889 166.099 64.1203 164.787C63.7256 161.717 63.8209 158.511 64.6102 155.509C65.8835 150.667 69.1882 146.364 73.9776 144.619C75.2103 144.169 76.5208 144.005 77.8273 143.973C79.067 143.942 80.421 144.104 81.6172 143.711C83.5213 143.085 84.3374 140.841 85.0523 139.141L85.0852 139.063C86.0019 136.896 87.1022 135.038 89.0877 133.685C91.206 132.242 93.8601 131.585 96.3593 131.161ZM150.549 139.731C152.263 139.136 154.405 139.676 156.081 140.195C157.949 140.774 159.674 141.841 161.153 143.108C162.714 144.443 164.004 146.093 164.915 147.935L165.002 148.113C165.834 149.822 166.782 152.168 166.363 154.046C166.35 154.099 166.337 154.151 166.321 154.2C169.721 155.875 172.862 157.972 175.596 160.631C178.781 163.726 181.477 167.248 183.758 171.053C192.821 186.166 194.416 204.317 195.486 221.552L195.753 225.922C196.334 235.359 197.014 244.773 198.781 254.08L198.91 254.751C200.798 264.495 203.501 274.313 203.227 284.309C203.145 287.304 198.721 287.283 198.593 284.309C198.11 273.113 195.498 262.303 193.729 251.283C190.618 231.893 192.177 211.904 187.768 192.708C186.037 185.175 183.357 177.868 179.53 171.144C177.639 167.822 175.476 164.613 172.942 161.747C170.762 159.281 168.496 156.908 165.948 154.835C165.134 155.651 163.507 155.235 163.082 154.046C162.79 153.229 162.876 152.273 162.688 151.417C162.514 150.622 162.274 149.835 161.955 149.087C161.318 147.596 160.384 146.164 159.305 144.957C158.139 143.652 156.799 142.569 155.301 141.674C153.791 140.773 152.141 140.504 150.549 139.845C150.495 139.823 150.49 139.751 150.549 139.731ZM157.207 243.355C157.21 243.276 157.303 243.239 157.36 243.292C157.961 243.845 158.324 244.638 158.766 245.319C159.276 246.103 159.812 246.872 160.373 247.62C161.498 249.12 162.751 250.534 164.013 251.919C165.188 253.207 166.439 254.44 167.737 255.603C169.144 256.863 170.72 257.988 171.998 259.383C174.665 262.294 175.096 266.291 175.658 270.043L175.72 270.449C176.063 272.675 176.37 274.908 176.648 277.144C176.782 278.232 176.917 279.32 177.027 280.411L177.06 280.756C177.158 281.824 177.185 282.906 176.572 283.839C175.916 284.837 174.424 285.187 173.538 284.23C172.014 282.586 172.3 279.667 172.102 277.552C171.938 275.804 171.752 274.057 171.544 272.313L171.439 271.442C171.194 269.458 170.995 267.435 170.541 265.485C170.141 263.769 169.379 262.473 168.129 261.23C166.869 259.977 165.56 258.808 164.398 257.459C163.165 256.028 162.052 254.494 161.05 252.892C160.193 251.523 159.506 250.032 158.876 248.544L158.772 248.296C158.163 246.844 157.16 244.954 157.207 243.355ZM179.203 180.997C179.216 180.795 179.515 180.791 179.52 180.997C179.558 182.739 179.594 184.48 179.63 186.222C179.921 200.256 179.742 214.323 181.149 228.309C181.813 234.903 183.035 241.401 184.45 247.871C185.174 251.182 185.933 254.485 186.654 257.796C187.357 261.023 188.111 264.266 188.669 267.523C189.217 270.724 189.708 273.95 189.928 277.192L189.956 277.615C190.05 279.186 190.503 281.496 189.639 282.888C188.702 284.396 186.908 284.423 185.905 282.984C184.962 281.632 185.197 279.228 185.03 277.615C184.861 275.973 184.682 274.328 184.479 272.689C184.082 269.492 183.56 266.302 183.016 263.127C181.885 256.514 180.243 249.985 179.031 243.383C177.789 236.618 176.907 229.804 176.87 222.916C176.833 215.97 177.568 209.037 177.939 202.106C178.316 195.066 178.744 188.032 179.203 180.997ZM112.932 137.346C113.309 136.077 114.638 135.284 115.935 135.64C117.123 135.967 118.105 137.41 117.64 138.645C117.133 139.992 116.247 141.14 115.5 142.365C114.81 143.496 113.803 144.387 113.1 145.498L113.875 146.334C114.263 146.75 114.651 147.165 115.044 147.572L116.395 148.972C117.447 150.059 118.506 151.142 119.595 152.192C122.796 155.281 126.048 158.268 129.633 160.913C130.449 161.515 131.271 162.114 132.117 162.674L132.432 162.883C133.012 163.263 133.659 163.637 134.36 163.572C136.063 163.416 137.601 161.607 138.771 160.481L138.832 160.423C141.732 157.662 144.417 154.645 146.764 151.4C147.286 150.679 147.79 149.946 148.282 149.204C147.147 147.878 147.418 145.289 147.355 143.681C147.311 142.55 147.308 141.419 147.302 140.287L147.299 140.059C147.285 139.326 147.252 138.624 147.727 138.021C147.755 137.986 147.812 137.987 147.847 138.005C148.498 138.347 148.699 138.918 148.976 139.559L149.005 139.625C149.343 140.394 149.667 141.171 149.995 141.944C150.337 142.754 150.652 143.576 150.97 144.395C151.119 144.777 151.26 145.159 151.399 145.544C151.483 145.79 151.57 146.035 151.66 146.279L151.681 146.298C151.799 146.398 151.9 146.504 151.986 146.614C152.349 146.795 152.638 147.126 152.773 147.613C153.068 148.672 152.458 149.536 151.914 150.376C149.704 153.792 147.185 157.046 144.385 159.999C142.994 161.465 141.531 162.866 140.007 164.195L139.741 164.426C138.373 165.602 136.887 166.716 135.06 166.992C132.921 167.313 131.181 166.249 129.544 165.024L129.38 164.901C127.828 163.726 126.308 162.509 124.834 161.236C121.83 158.642 118.972 155.856 116.436 152.8C113.969 149.827 111.53 146.503 110.01 142.926C109.917 142.708 110.161 142.48 110.352 142.662C111.094 143.369 111.809 144.115 112.515 144.87C112.535 143.758 112.33 142.637 112.444 141.518C112.583 140.158 112.543 138.656 112.932 137.346Z" fill="black"/>
<path fill-rule="evenodd" clip-rule="evenodd" d="M163.535 85.4321C161.623 77.3683 157.442 69.8641 150.75 63.7993C130.61 43.8804 93.6249 54.692 93.7925 84.7084C93.0701 88.2143 92.7769 91.8191 93.0161 95.3945C93.1149 96.92 93.7749 99.049 92.8882 100.422C90.8882 102.99 89.7258 104.884 90.4065 108.3C90.9752 111.284 93.0046 113.397 95.7435 114.521C97.3861 114.992 98.9446 116.019 99.5531 117.585C103.209 124.281 105.918 129.851 111.682 134.415C113.169 135.59 128.424 142.637 133.45 142.637C148.165 142.637 166.712 137.304 167.019 120.861C167.073 117.25 166.439 113.596 166.042 110.013C165.074 101.836 165.416 93.3636 163.535 85.4321Z" fill="white"/>
<path fill-rule="evenodd" clip-rule="evenodd" d="M163.204 81.3988C163.208 81.299 163.351 81.2766 163.379 81.3751C163.926 83.3163 164.236 85.2939 164.664 87.2654C165.076 89.1644 165.465 91.0689 165.788 92.9846C166.399 96.6 166.914 100.225 167.392 103.859L167.511 104.768C168.343 111.163 169.717 117.825 168.516 124.257C167.491 129.746 164.053 134.169 159.623 137.412C155.428 140.483 150.342 142.454 145.293 143.574C139.873 144.777 133.449 145.136 129.039 141.16C127.274 139.568 129.68 136.409 131.595 137.846C136.092 141.218 141.813 140.224 146.887 138.882L147.041 138.841C151.495 137.654 155.978 135.856 159.514 132.821C163.423 129.466 165.356 124.809 165.579 119.702C165.704 116.833 165.437 113.967 165.149 111.115L165.116 110.798C164.785 107.536 164.438 104.275 164.118 101.012C163.825 98.0364 163.573 95.0434 163.439 92.0544L163.377 90.5469C163.248 87.5075 163.073 84.4236 163.204 81.3988ZM110.462 56.1441C117.78 52.3328 126.191 50.9687 134.334 52.2478C142.164 53.4775 149.349 57.5189 154.719 63.3139C157.341 66.1433 159.669 69.416 161.156 72.9914C161.895 74.7676 162.473 76.6205 162.781 78.5235C162.94 79.5019 163.096 80.5155 163.125 81.5074C163.153 82.4257 162.883 83.2869 162.915 84.2205C162.92 84.3665 162.696 84.3946 162.662 84.2547C162.408 83.2138 161.795 82.4267 161.411 81.438C161.123 80.6998 160.797 79.9791 160.465 79.2605L160.18 78.6448C159.352 76.8553 158.363 75.1394 157.384 73.4296C155.413 69.9858 152.884 66.8561 149.923 64.2153C144.724 59.5787 138.054 56.5858 131.093 56.0468C123.867 55.4872 116.538 57.2101 110.368 61.0267C104.197 64.843 99.5317 70.7756 97.1093 77.6063C95.8871 81.0532 95.2121 84.6446 95.0552 88.2964C94.9757 90.1448 95.0499 92.0087 95.1794 93.8536L95.2437 94.7334C95.3191 95.7884 95.3708 96.8394 95.2132 97.8688C96.3261 97.5216 97.4928 97.3777 98.6636 97.5495C100.403 97.8048 101.443 98.5183 102.223 100.073C102.264 100.155 102.182 100.236 102.101 100.195C101.09 99.6902 99.4527 99.9561 98.3811 100.221C97.2661 100.497 96.2617 100.976 95.3142 101.624C93.5613 102.822 92.1872 104.679 91.85 106.809C91.524 108.867 92.3685 110.95 93.7869 112.425C94.5171 113.185 95.3898 113.841 96.3669 114.25C97.5528 114.747 98.7266 114.732 99.7757 115.552C100.424 116.059 100.268 116.927 99.8277 117.49C102.041 119.918 104.004 122.574 106.217 125.011C107.243 126.141 108.261 127.272 109.244 128.439L109.611 128.878C110.592 130.063 112.154 131.315 112.603 132.805C112.882 133.732 111.889 134.945 110.886 134.522C109.347 133.874 108.248 132.188 107.208 130.894L107.141 130.81C106.05 129.47 105.082 128.054 104.197 126.571L103.905 126.083C102.305 123.39 100.718 120.597 99.6971 117.638C99.6297 117.707 99.5583 117.77 99.4831 117.824C98.0127 118.87 95.8751 118.066 94.4066 117.386C93.0202 116.745 91.7492 115.781 90.7586 114.618C88.6041 112.09 87.6109 108.816 88.3305 105.535C88.94 102.755 90.8657 100.051 93.3904 98.6455C92.225 97.3035 91.7425 95.4943 91.4214 93.7255C91.0115 91.4677 90.9297 89.1538 91.0411 86.8642C91.2631 82.3039 92.4363 77.8087 94.2498 73.6329C97.4945 66.161 103.231 59.911 110.462 56.1441ZM95.0608 106.004C96.5967 105.716 98.028 105.646 99.5094 106.297C101.116 107.002 102.247 108.167 103.299 109.532C104.495 111.085 101.429 112.781 100.656 110.72L100.633 110.656C100.426 110.046 100.056 109.456 99.5859 108.913C99.445 109.129 99.2565 109.319 99.0351 109.428C98.767 109.56 98.3576 109.469 98.2932 109.126C98.2217 108.746 98.3008 108.285 98.5201 107.963L98.5501 107.919C97.4844 107.061 96.2027 106.435 95.0608 106.233C94.9467 106.213 94.9479 106.025 95.0608 106.004Z" fill="black"/>
<path fill-rule="evenodd" clip-rule="evenodd" d="M143.152 128.274C141.732 127.695 140.465 126.728 139.538 125.493C139.216 125.063 139.133 124.61 139.2 124.195C139.276 123.729 139.552 123.306 139.928 123.023C140.305 122.739 140.777 122.598 141.233 122.67C141.63 122.732 142.024 122.949 142.337 123.399L142.402 123.489C142.953 124.235 143.67 124.846 144.488 125.241C145.276 125.621 146.158 125.798 147.07 125.695C148.807 125.499 150.005 124.559 151.278 123.282C151.436 123.121 151.593 122.955 151.752 122.786C151.852 122.633 151.991 122.534 152.146 122.483C152.317 122.425 152.511 122.429 152.689 122.491C152.86 122.55 153.013 122.664 153.116 122.815C153.213 122.958 153.269 123.135 153.251 123.339C153.134 124.661 152.443 125.842 151.461 126.769C150.37 127.799 148.924 128.511 147.563 128.761C146.064 129.036 144.536 128.839 143.152 128.274ZM148.271 107.866C149.866 108.836 152.297 111.098 150.581 113.503C148.56 115.624 145.652 113.193 144.218 112.093C142.889 111.241 141.396 113.433 142.629 114.428C152.986 122.099 157.19 108.12 149.077 106.726C148.184 106.572 147.853 107.566 148.271 107.866ZM129.711 98.9429C129.887 96.7541 133.219 96.257 133.551 98.423C133.847 100.363 133.498 102.145 132.624 103.892C131.79 105.561 129.692 104.783 129.533 103.263C129.32 101.226 129.601 100.304 129.711 98.9429ZM155.076 97.9738C155.541 97.3652 156.211 96.9496 157.015 97.1845C159.526 97.9185 158.786 101.485 157.904 103.22C157.425 104.163 155.876 104.402 155.176 103.572C154.035 102.219 153.489 99.5156 154.939 98.1825C154.979 98.1136 155.022 98.044 155.076 97.9738ZM132.589 89.3654L132.986 89.2959C134.213 89.0836 135.738 88.8796 136.606 89.8665C137.067 90.3898 137.225 91.3624 136.606 91.8633C135.518 92.7446 134.314 92.4031 133.01 92.4777C131.935 92.5394 130.902 92.7174 129.867 93.0135C127.595 93.663 125.744 94.8486 123.804 96.1506C123.549 96.3213 123.29 95.9956 123.411 95.7574C124.531 93.563 126.701 91.7604 128.875 90.6616C130.036 90.0751 131.305 89.5885 132.589 89.3654ZM152.787 88.3823L153.091 88.4445C156.394 89.1353 160.687 90.5153 162.251 93.7615C162.311 94.2205 162.248 94.3189 162.196 94.3832L162.179 94.4046C162.137 94.4595 162.104 94.5351 161.905 94.5976C161.849 94.5844 161.794 94.5705 161.737 94.5557C161.02 94.3677 160.453 94.1087 159.904 93.84L159.308 93.5465C158.617 93.2076 157.92 92.881 157.181 92.6399C155.605 92.1254 153.983 91.7631 152.337 91.5696C151.98 91.5277 151.636 91.4072 151.365 91.2006C151.107 91.0046 150.911 90.7332 150.821 90.3724C150.705 89.9056 150.738 89.5521 150.989 89.1309C151.177 88.8146 151.446 88.5953 151.756 88.4694C152.071 88.3411 152.43 88.3108 152.787 88.3823Z" fill="black"/>
<path fill-rule="evenodd" clip-rule="evenodd" d="M152.745 131.526C150.778 129.772 148.572 126.247 145.746 129.036C145.047 129.824 144.764 131.591 143.695 131.938C142.275 132.398 140.868 130.896 140.384 129.742C138.404 123.33 146.588 121.571 151.25 122.607C153.527 123.543 155.204 127.309 155.306 129.275C155.371 130.596 154.254 132.538 152.745 131.526ZM167.589 121.643C167.57 121.558 167.543 121.481 167.511 121.411C166.64 121.082 165.952 121.417 165.526 122.044C165.54 122.2 165.587 122.358 165.616 122.512C165.288 123.204 164.992 124.06 164.547 124.658C164.459 124.665 164.368 124.656 164.28 124.63C156.904 125.401 160.505 117.681 153.024 115.763C147.241 114.809 136.789 115.902 134.061 121.923C131.909 131.542 120.969 124.84 117.377 119.838C113.545 115.285 111.067 109.723 108.677 104.325C108.172 103.182 106.596 103.999 106.768 105.095C104.559 109.528 104.633 114.851 104.086 119.707C103.155 129.394 102.249 142.979 111.246 148.894C122.968 162.15 152.241 166.827 165.762 154.648C170.442 144.581 169.865 132.301 167.589 121.643Z" fill="black"/>
</svg>
