<svg width="240" height="324" viewBox="0 0 240 324" fill="none" xmlns="http://www.w3.org/2000/svg">
<path fill-rule="evenodd" clip-rule="evenodd" d="M49.162 285.363C50.276 287.056 52.4672 286.796 53.408 285.485C64.1205 287.981 75.1029 286.997 85.9643 286.385C116.571 285.139 147.351 289.045 177.834 284.959C181.068 284.312 184.831 284.622 187.477 282.378C191.709 277.417 190.798 269.885 190.124 263.842C184.72 229.78 177.038 195.406 173.206 161.125C172.992 157.859 174.337 153.802 175.543 150.732C175.841 150.161 177.723 149.602 178.7 148.943C181.698 146.79 181.212 142.932 178.613 140.668C170.198 134.734 158.484 136.808 149.557 138.997C147.846 132.569 145.923 128.342 142.666 127.923C136.467 127.126 121.428 124.691 116.796 127.923C114.579 129.469 113.157 134.917 111.562 137.571C99.9279 137.365 76.316 121.794 71.4617 139.328C67.5177 139.6 63.6114 143.045 64.3658 147.178C59.2508 151.7 63.2852 158.48 63.2144 164.108C62.542 176.049 56.0831 186.728 53.396 198.263C47.2538 220.636 40.3018 261.331 47.9199 283.169C47.756 283.083 47.3979 283.212 47.6298 283.394C48.4924 283.637 48.6046 284.724 49.162 285.363Z" fill="white"/>
<path fill-rule="evenodd" clip-rule="evenodd" d="M182.916 279.674C181.487 268.199 180.493 254.346 180.482 242.775C180.481 241.686 182.171 241.687 182.172 242.775C182.184 254.346 183.177 268.199 184.606 279.674C184.74 280.752 183.049 280.739 182.916 279.674ZM172.332 208.524C170.124 209.874 167.225 208.937 165.04 208.043C164.045 207.636 164.483 206.001 165.489 206.413C167.152 207.093 169.582 208.096 171.337 207.146C173.089 206.199 173.168 203.592 173.181 201.872C173.189 200.782 174.879 200.783 174.871 201.872C174.853 204.212 174.54 207.172 172.332 208.524ZM168.245 261.035C166.018 259.893 164.117 258.332 162.588 256.35C161.923 255.488 163.392 254.647 164.047 255.496C165.393 257.241 167.147 258.575 169.098 259.575C170.067 260.072 169.211 261.531 168.245 261.035ZM157.539 202.026C153.717 217.347 151.152 232.942 149.895 248.684C149.639 251.879 149.46 255.071 149.358 258.264C149.257 259.097 149.16 259.932 149.069 260.766C148.725 263.924 148.461 267.132 148.484 270.311C148.494 271.738 148.539 273.158 148.636 274.58C148.467 274.105 148.311 273.627 148.158 273.152C147.848 272.177 147.643 271.167 147.326 270.199C147.064 269.398 146.726 268.631 146.411 267.855V267.853C146.506 264.676 146.291 261.47 146.181 258.308C146.039 254.212 145.864 250.121 145.773 246.023C145.592 237.826 145.682 229.624 145.978 221.432C146.572 204.926 148.072 188.497 149.585 172.058C150.005 167.487 150.457 162.918 150.77 158.337C151.085 153.709 151.211 149.072 151.247 144.431C151.249 144.097 150.742 144.008 150.649 144.331C150.567 143.23 150.421 142.131 150.178 141.068C153.823 143.393 157.666 145.403 161.432 147.516C163.416 148.63 165.392 149.763 167.437 150.761C168.561 151.31 169.695 151.815 170.853 152.293C172.053 152.788 173.2 153.468 174.52 153.123C174.635 153.094 174.742 153.052 174.846 152.997C174.696 153.282 174.546 153.565 174.402 153.853C173.904 154.844 173.428 155.839 172.968 156.843C172.845 156.934 172.737 157.059 172.653 157.222C172.429 157.659 172.211 158.101 172 158.549C171.958 158.509 171.916 158.469 171.873 158.428C171.696 158.262 171.451 158.513 171.607 158.695C171.679 158.777 171.749 158.858 171.818 158.94C170.441 161.905 169.321 165.023 168.168 168.066C166.75 171.807 165.406 175.575 164.141 179.369C161.646 186.832 159.444 194.392 157.539 202.026ZM102.899 257.627C95.8549 261.4 89.2726 265.91 82.9418 270.775C82.0788 271.438 81.2379 269.968 82.0887 269.315C88.4195 264.45 95.002 259.94 102.046 256.167C103.005 255.653 103.858 257.113 102.899 257.627ZM79.1078 213.43C78.7417 213.402 78.3859 213.19 78.2929 212.809C77.7223 210.472 77.2755 207.926 77.8062 205.542C78.0428 204.479 79.6719 204.932 79.4359 205.992C79.0174 207.871 79.3499 209.903 79.7845 211.778C85.9279 212.047 91.989 209.841 97.8667 208.36C98.9236 208.094 99.37 209.725 98.316 209.991C92.0811 211.562 85.6319 213.913 79.1078 213.43ZM201.411 275.77C201.417 275.755 201.423 275.738 201.427 275.724C201.789 274.629 201.797 273.357 201.837 272.209C201.907 270.167 201.833 268.121 201.649 266.086C201.261 261.802 200.424 257.588 199.425 253.409C197.445 245.133 194.648 237.08 193.129 228.692C190.148 212.226 190.856 195.081 185.006 179.198C182.574 172.595 179.101 166.248 174.381 161.003C174.725 159.954 175.061 158.904 175.389 157.849C175.961 156.015 176.546 154.121 176.899 152.232C176.908 152.181 176.918 152.128 176.925 152.075C178.934 151.209 180.761 149.575 181.074 147.402C181.209 146.464 181.053 145.424 180.647 144.517C181.475 143.752 182.008 142.759 181.881 141.427C181.644 138.921 178.718 138.276 176.682 137.786C174.366 137.23 171.964 137.076 169.596 137.338C168.4 137.469 167.217 137.689 166.061 138.018C165.058 138.304 163.965 138.597 163.161 139.286C163.066 139.367 163.144 139.523 163.258 139.523C164.887 139.517 166.509 138.919 168.155 138.84C169.879 138.76 171.599 138.902 173.289 139.257C174.941 139.604 176.589 140.111 178.091 140.895C178.513 141.117 179.132 141.267 178.636 141.715C178.273 142.043 177.558 142.07 177.092 142.119C176.058 142.226 175.167 142.831 175.036 143.934C174.92 144.908 175.501 146.012 176.536 146.231C176.593 146.244 176.646 146.259 176.692 146.278C176.72 146.331 176.762 146.375 176.758 146.303C176.758 146.303 176.76 146.301 176.76 146.303C176.785 146.458 176.794 146.519 176.794 146.529C176.787 146.517 176.777 146.464 176.768 146.422C176.775 146.46 176.787 146.521 176.804 146.612C176.781 146.513 176.8 146.756 176.781 146.794C176.232 147.808 174.607 148.094 173.661 148.531C173.477 148.615 173.318 148.715 173.183 148.827C172.959 148.749 172.731 148.67 172.501 148.584C171.366 148.159 170.234 147.747 169.085 147.364C166.866 146.622 164.62 145.961 162.402 145.217C158.202 143.809 154.142 142.032 150.02 140.421C149.889 139.935 149.737 139.46 149.557 138.997C149.521 138.9 149.348 138.868 149.329 138.997C149.265 139.407 149.215 139.819 149.173 140.233C149.156 140.271 149.151 140.314 149.16 140.354C148.921 142.763 148.985 145.23 148.862 147.637C148.71 150.638 148.285 153.618 148.165 156.621V156.676C147.721 159.24 147.32 161.812 146.956 164.393C146.549 164.266 146.082 164.291 145.604 164.547C142.228 166.35 138.434 167.354 134.616 167.578C132.694 167.69 130.79 167.627 128.878 167.405C127.621 167.261 126.383 166.999 125.143 166.749C125.796 164.012 126.497 161.288 127.289 158.591C127.942 156.374 128.669 154.168 129.567 152.035C130.473 149.881 131.601 147.825 132.651 145.737C133.135 144.771 132.565 143.294 131.308 143.395C130.936 143.425 130.564 143.448 130.19 143.465C126.552 143.638 122.768 143.233 119.177 142.871C115.089 142.457 110.946 142.028 106.894 141.354C106.594 141.305 106.471 141.713 106.767 141.812C108.689 142.459 110.589 143.19 112.56 143.674C114.588 144.175 116.629 144.632 118.687 144.989C120.658 145.329 122.637 145.614 124.623 145.855C125.918 146.014 127.228 146.094 128.532 146.2C126.776 149.007 125.566 152.172 124.511 155.29C123.157 159.293 122.162 163.412 121.188 167.523C119.105 176.334 117.387 185.234 116.044 194.189C115.08 200.61 114.301 207.056 113.715 213.519C113.542 211.556 113.331 209.599 113.092 207.644C112.294 201.153 111.127 194.705 109.568 188.354C109.708 188.108 109.773 187.815 109.727 187.529C109.446 185.784 108.706 184.264 108.058 182.645C107.413 180.384 106.718 178.137 105.97 175.907C105.121 172.87 104.168 169.879 102.949 166.959C102.018 164.733 100.955 162.564 99.7718 160.462C98.3585 157.522 96.8056 154.646 95.1007 151.896C95.012 151.64 94.8683 151.401 94.6634 151.2C94.3528 150.71 94.038 150.226 93.7169 149.746C93.5078 149.433 92.9078 149.624 93.0662 150.021C93.1401 150.207 93.2141 150.393 93.2901 150.577C86.3458 148.84 79.5366 151.496 72.9218 153.458C71.2528 153.954 69.5669 154.402 67.8556 154.726C66.5099 154.979 64.9423 155.288 63.6007 155.009C62.7028 154.823 62.3056 154.415 62.743 153.455C63.1951 152.462 64.4289 151.809 65.5 151.37C65.9035 151.283 66.3007 151.128 66.6831 150.896C67.5747 150.355 67.9655 149.226 67.5451 148.265C67.1627 147.396 66.0472 146.648 65.0606 147.045C64.919 147.102 64.7796 147.157 64.6401 147.212C64.6254 147.191 64.6085 147.161 64.5937 147.119C64.4521 146.732 64.3909 147.195 64.4521 146.641C64.5535 145.737 65.5106 144.915 66.1655 144.397C67.7944 143.106 70.1479 142.15 72.25 142.639C72.4085 142.674 72.5669 142.719 72.7232 142.774C74.8887 143.524 75.943 140.405 74.2127 139.242C74.107 139.172 73.9739 139.084 73.8282 138.98C73.1077 138.479 72.0535 137.636 72.3409 136.875C72.6958 135.93 74.7894 135.387 75.5817 135.066C78.4465 133.903 81.5416 133.244 84.6303 133.109C87.738 132.973 90.8859 133.316 93.8838 134.155C95.3542 134.565 96.8648 135.188 98.2549 135.818C99.5035 136.383 102.22 137.129 102.394 138.71C102.432 139.058 102.928 139.177 103.036 138.796C103.887 135.761 100.583 133.802 98.4028 132.549C96.9725 131.724 95.35 131.211 93.7803 130.706C92.2761 130.22 90.7402 129.862 89.1725 129.647C85.8071 129.186 82.4014 129.245 79.0634 129.892C76.0232 130.482 72.6409 131.488 70.1838 133.445C68.6754 134.645 67.993 136.556 68.5993 138.42C68.6204 138.481 68.6416 138.545 68.6627 138.606C65.9479 139.092 63.3789 140.648 61.6613 142.816C60.25 144.598 59.5106 147.077 60.7739 149.15C60.7211 149.188 60.6683 149.228 60.6176 149.271C59.4134 150.234 58.5176 151.634 58.2514 153.164C57.7296 156.182 59.5528 158.293 62.1028 159.101C61.4711 159.718 60.8648 160.373 60.2711 161.028C58.9423 162.497 57.6725 164.097 56.5528 165.729C54.2838 169.034 52.3444 172.633 50.6479 176.26C47.1599 183.708 44.9606 191.725 43.7944 199.853C43.207 203.949 42.8141 208.066 42.6641 212.2C42.4908 216.913 42.6662 221.629 42.5754 226.344C42.4866 230.875 41.9859 235.297 40.9739 239.714C40.0042 243.939 38.7113 248.079 37.5408 252.249C36.2204 256.945 34.7669 261.62 34.0697 266.462C33.7169 268.926 33.4634 271.397 33.6599 273.889C33.8585 276.427 34.7796 278.598 35.6289 280.959C35.8444 281.561 36.5014 281.804 37.0275 281.675C37.1458 282.806 37.5725 283.909 38.2085 284.865C39.5585 286.889 41.6373 288.181 44.0183 288.65C46.7014 289.176 49.4669 289.051 52.1838 288.954C55.131 288.849 58.0803 288.753 61.0275 288.631C64.113 288.503 67.1984 288.372 70.2839 288.241C70.1819 285.077 70.0602 281.914 69.9227 278.752C69.1788 261.657 68.0073 244.552 67.9763 227.435C67.9165 227.4 67.8577 227.358 67.8016 227.304C66.4125 225.961 64.7071 225.078 63.1049 224.027C62.1981 223.432 63.0457 221.969 63.958 222.567C65.3088 223.454 66.7165 224.241 67.9824 225.234C67.9898 223.452 68.0054 221.671 68.0407 219.889C68.0623 218.8 69.7524 218.8 69.7309 219.889C69.6248 225.259 69.6603 230.631 69.7818 236.001C70.1749 253.403 71.4109 270.773 71.9737 288.168C80.2554 287.814 88.5375 287.458 96.8204 287.155C103.558 286.91 110.295 286.665 117.032 286.42C118.446 286.37 119.24 285.359 119.413 284.038C119.73 281.607 119.135 279.095 117.787 277.051C117.647 276.84 117.482 276.652 117.299 276.491C117.33 275.035 117.389 273.576 117.307 272.12C117.185 269.897 117.001 267.673 116.84 265.452C116.515 261.003 116.263 256.546 116.164 252.086C115.961 243.167 116.109 234.24 116.614 225.334C117.626 207.54 119.982 189.861 123.837 172.456C124.118 171.188 124.401 169.92 124.695 168.654C127.693 170.211 131.339 170.771 134.616 170.792C138.723 170.818 142.739 169.873 146.449 168.155C146.424 168.347 146.399 168.537 146.375 168.73C145.34 176.972 144.468 185.232 143.707 193.502C142.19 209.99 141.261 226.545 141.389 243.106C141.425 247.694 141.601 252.268 141.818 256.85C142.04 261.51 142.38 266.435 143.677 270.93C143.821 271.427 144.14 271.712 144.508 271.816C144.527 272.471 144.569 273.128 144.616 273.775C144.766 275.878 145.194 280.247 146.111 282.153C147.005 284.013 148.494 285.488 150.394 286.3C152.806 287.329 155.415 287.033 157.963 286.868C169.042 286.145 180.113 285.177 191.185 284.328C192.727 284.209 194.27 284.093 195.81 283.973C197.181 283.867 198.599 283.774 199.816 283.062C201.199 282.252 202.279 278.277 201.801 276.632C201.715 276.332 201.584 276.036 201.411 275.77Z" fill="black"/>
<path fill-rule="evenodd" clip-rule="evenodd" d="M162.856 78.6399C155.423 59.0779 142.025 44.7554 119.438 53.7513C118.79 53.31 117.945 53.1916 117.135 53.7084C104.831 61.4373 95.9703 73.8285 92.1305 87.8011C89.7937 88.2456 87.523 89.0208 85.4948 90.2921C81.0869 93.055 78.1214 97.4515 75.3415 101.734C74.5055 103.021 75.2796 105.152 76.8506 105.444C77.533 105.572 78.2093 105.647 78.8817 105.667C78.718 106.262 78.5025 106.836 78.2281 107.363C77.2345 109.27 79.1116 111.295 80.8708 110.774C81.066 110.877 81.2705 110.962 81.4824 111.026C81.5065 112.106 82.0615 113.553 83.1599 113.771C84.9362 114.152 87.2969 112.792 86.8778 110.805C87.4144 110.899 87.9491 110.911 88.4703 110.845C88.5286 111.88 88.5105 112.96 88.6533 113.915C89.1202 118.414 93.6138 121.437 97.8992 120.068C98.162 121.47 98.4707 123.44 99.8509 124.2C101.465 128.729 104.251 133.897 108.815 135.96C108.408 137.002 108.629 138.268 109.852 138.965C118.206 143.73 128.233 145.342 137.677 143.571C141.452 143.346 145.13 142.492 148.659 140.675C151.233 139.349 153.6 137.666 155.91 135.93C158.221 134.194 160.692 132.504 162.537 130.25C164.541 127.802 165.474 124.921 166.079 121.856C168.853 107.941 167.895 94.2775 162.856 81.0221C156.619 64.6139 169.091 95.0489 162.856 78.6399Z" fill="white"/>
<path fill-rule="evenodd" clip-rule="evenodd" d="M126.923 49.9393C130.727 49.6706 134.6 50.3121 138.222 51.4595C144 53.2889 149.306 56.5175 153.665 60.7207C158.157 65.0523 161.48 70.3929 163.5 76.2915C165.937 83.4051 166.301 91.0006 166.987 98.4264C167.333 102.178 167.904 105.873 168.498 109.588L168.592 110.175C169.171 113.795 169.497 117.456 168.697 121.071C167.365 127.078 163.374 132.177 158.636 135.944C148.904 143.685 133.753 148.403 122.421 141.281C120.668 140.179 122.329 137.361 124.041 138.509C125.245 139.318 126.521 140.026 127.89 140.516C133.607 142.56 139.886 141.832 145.537 139.93C151.105 138.057 156.448 134.891 160.557 130.666C164.873 126.229 167.264 120.748 166.919 114.512C166.713 110.801 165.868 107.159 165.399 103.479C164.983 100.219 164.734 96.9414 164.447 93.6685L164.342 92.4912C163.733 85.823 162.859 78.9718 159.826 72.9189C157.275 67.8267 153.539 63.2964 149.048 59.7977C144.345 56.1348 138.729 53.573 132.836 52.6175C125.906 51.4939 119.272 53.5371 113.491 57.3405C108.364 60.7137 103.956 65.2214 100.576 70.336C98.9373 72.816 97.541 75.4644 96.3353 78.1805C95.1991 80.7395 94.4157 83.4216 93.502 86.0592C94.2539 86.0368 95.0182 86.0658 95.7944 86.1516C99.7756 86.5929 103.485 88.6569 105.846 91.9115C108.732 95.8885 107.952 100.77 109.079 105.293C109.166 105.644 109.018 105.988 108.717 106.182C107.008 107.287 104.721 107.324 103.067 106.08C101.632 105 100.958 103.048 101.539 101.342C101.615 101.119 101.938 101.159 101.947 101.397C102.057 104.3 104.749 106.535 107.388 105.154C106.256 101.254 106.852 96.8983 104.536 93.3755C100.438 87.1407 91.958 86.8831 86.0018 90.3978C82.8671 92.2473 80.3859 95.0282 78.5383 98.1388L78.0061 99.0418C77.2979 100.248 76.5479 101.613 76.4009 102.942C76.3162 103.709 76.5991 104.429 77.4784 104.043C78.1897 103.73 78.7405 103.001 79.163 102.375C79.8837 101.306 81.5396 102.229 80.9444 103.368L80.9242 103.405C80.0579 104.94 79.5245 106.632 79.4266 108.395L79.4017 108.883C79.3854 109.239 79.3736 109.744 79.4489 109.763C79.5391 109.785 80.1659 109.061 80.2703 108.961C80.7731 108.478 81.2909 108.083 81.9909 107.954C82.911 107.786 83.8393 108.924 83.0406 109.671L83.0073 109.701C82.2944 110.321 82.3261 111.557 83.1135 112.137C84.2248 112.955 85.5929 111.62 85.7542 110.52L85.7597 110.479C85.9023 109.291 87.5516 109.249 87.6412 110.479C87.8358 113.149 84.659 115.386 82.2418 114.039C81.2861 113.507 80.6785 112.533 80.4881 111.488C80.183 111.65 79.8539 111.761 79.5059 111.792C78.3731 111.893 77.5678 111.096 77.3846 110.026C77.1712 108.78 77.2978 107.446 77.6259 106.153C77.0106 106.301 76.3635 106.244 75.713 105.869C73.7451 104.733 74.3102 102.206 75.0532 100.5C78.2254 93.2179 84.7975 86.6104 92.9398 86.0859C92.9844 84.8011 93.1585 83.5864 93.4432 82.2999C96.2282 69.7164 105.25 58.0642 116.996 52.6181C120.134 51.1628 123.463 50.1838 126.923 49.9393ZM96.1212 100.206L96.2328 100.181C97.5017 99.9073 100.841 99.586 100.439 101.722C100.42 101.823 100.274 101.81 100.248 101.722C99.8534 100.379 97.1754 101.453 96.3935 101.777C95.3156 102.222 94.2523 102.879 93.3722 103.643C91.4452 105.316 90.1535 107.674 89.957 110.235C89.7622 112.775 90.4989 115.519 92.3306 117.356C93.2285 118.257 94.3746 118.868 95.6621 118.913C96.8188 118.954 98.0968 118.053 99.1641 118.58C99.3745 118.684 99.5412 118.97 99.5222 119.205C99.4863 119.65 99.2872 119.996 98.991 120.265C100.778 123.522 102.24 126.97 104.52 129.933C105.664 131.419 106.96 132.795 108.427 133.966C109.125 134.523 109.883 135.012 110.665 135.442C111.582 135.946 112.375 136.261 113.029 137.115C113.587 137.843 113.029 139.251 112.109 139.377C109.944 139.672 107.84 137.921 106.25 136.609C104.662 135.298 103.29 133.681 102.155 131.966C99.9772 128.671 98.4872 124.785 97.8914 120.853C97.1997 121.073 96.421 121.14 95.8351 121.141C94.2764 121.144 92.788 120.584 91.5631 119.636C87.0787 116.166 86.5803 109.042 89.7449 104.549C91.2593 102.4 93.5604 100.812 96.1212 100.206ZM96.1491 108.468C97.1889 108.377 98.2279 108.541 99.2053 108.896L99.6082 109.042C100.459 109.353 101.365 109.719 101.98 110.358C102.919 111.333 101.984 113.024 100.646 112.65C99.167 112.236 97.9649 110.99 96.4863 110.468C95.1646 110 93.6675 110.067 92.4946 110.871C92.3397 110.977 92.136 110.768 92.2372 110.613C93.1345 109.247 94.551 108.609 96.1491 108.468Z" fill="black"/>
<path fill-rule="evenodd" clip-rule="evenodd" d="M138.834 118.841C140.016 116.896 142.535 121.66 142.803 122.479C143.04 123.205 143.197 123.948 143.276 124.7C144.192 124.906 145.144 124.906 146.083 124.726C147.478 124.458 148.331 123.708 149.544 123.064C150.381 122.618 151.437 123.14 151.873 123.879C152.385 124.748 152.059 125.65 151.385 126.298C150.107 127.527 147.592 127.809 145.924 127.483C144.968 127.296 144.092 126.937 143.319 126.416C143.314 126.514 143.31 126.611 143.303 126.708L143.288 126.876C143.16 128.239 142.785 129.953 141.727 130.84C139.992 132.294 137.85 129.497 139.536 128.044L139.588 128C140.637 127.153 140.865 124.88 140.809 123.628C140.772 122.811 140.623 121.983 140.365 121.205L140.312 121.05C140.234 120.83 139.388 118.744 139.082 119.01L139.068 119.025C138.941 119.176 138.738 119 138.834 118.841ZM148.271 107.866C149.866 108.837 152.297 111.099 150.581 113.504C148.561 115.624 145.652 113.193 144.219 112.093C142.89 111.241 141.396 113.433 142.63 114.428C152.987 122.099 157.19 108.12 149.078 106.726C148.185 106.572 147.853 107.566 148.271 107.866ZM131.235 98.8995C132.794 98.6228 134.392 99.0106 135.682 99.9232L135.78 99.9936C137.023 100.903 138.413 102.5 137.7 104.067C137.414 104.697 136.556 104.795 136.012 104.51C135.107 104.035 134.943 102.866 134.135 102.219C133.472 101.689 132.579 101.367 131.726 101.445C129.721 101.627 128.487 103.605 127.865 105.31C127.785 105.528 127.465 105.613 127.34 105.379C125.871 102.633 128.471 99.3902 131.235 98.8995ZM156.209 97.8632C159.196 97.617 162.692 100.715 161.905 103.868C161.528 105.382 159.284 105.338 158.885 103.868C158.666 103.059 158.688 102.344 158.106 101.672C157.625 101.118 156.943 100.795 156.209 100.845C155.4 100.899 154.654 101.304 154.088 101.872C153.576 102.385 153.27 103.136 152.739 103.59C152.609 103.702 152.434 103.709 152.305 103.59C151.392 102.749 151.94 100.996 152.519 100.117C153.347 98.8597 154.696 97.9881 156.209 97.8632ZM125.548 93.306C127.464 91.6093 130.945 89.9707 133.529 90.8058C135.014 91.2857 135.662 93.6801 134.003 94.4391C132.083 95.3179 129.869 94.9603 127.915 95.8712C127.094 96.2539 126.322 96.7322 125.751 97.4337C125.3 97.9866 124.842 98.7141 124.191 99.0328C124.02 99.1167 123.788 99.1188 123.651 98.9632C122.224 97.3481 124.301 94.4095 125.548 93.306ZM152.916 90.7215C154.1 90.3891 155.414 90.3958 156.617 90.6047C157.819 90.8135 159.04 91.3121 160.022 92.0393L160.136 92.1245C161.208 92.9324 162.487 94.108 162.418 95.5393C162.361 96.7345 161.104 97.5429 160.019 96.9164C159.135 96.4056 158.718 95.3822 157.969 94.7008C157.352 94.1384 156.626 93.695 155.851 93.3843C154.991 93.0392 154.129 92.8775 153.206 92.8621C152.495 92.8503 151.78 93.0836 151.082 93.1582C151.14 93.2761 150.588 93.2212 150.272 93.1166C150.038 93.0168 150.037 92.7207 150.118 92.5286C150.52 91.5769 151.985 90.9828 152.916 90.7215Z" fill="black"/>
<path fill-rule="evenodd" clip-rule="evenodd" d="M166.773 116.395C166.491 115.554 165.042 115.627 165.131 116.618C165.233 117.75 164.846 119.012 163.762 119.561C162.627 120.137 161.35 119.619 160.658 118.632C160.056 117.775 159.641 116.841 158.884 116.093C158.18 115.397 157.323 114.861 156.386 114.542C155.656 114.294 154.899 114.228 154.165 114.31C152.336 113.896 150.216 114.837 149.076 116.264C149.002 116.356 148.934 116.45 148.868 116.546C148.755 116.392 148.637 116.239 148.511 116.089C148.188 115.702 147.787 115.619 147.425 115.724C145.363 114.19 142.473 113.987 140.131 115.371C138.255 116.481 136.702 118.116 134.395 118.243C132.567 118.344 130.576 117.301 130.448 115.291C130.38 114.242 128.951 113.368 128.149 114.339C126.464 116.382 126.127 119.095 127.059 121.564C128.043 124.17 130.048 126.006 132.587 127.085C135.328 128.251 138.541 128.656 141.506 128.564C144.463 128.472 147.151 127.335 148.933 124.915C149.146 124.627 149.333 124.333 149.496 124.036C151.227 126.24 153.939 127.167 156.702 127.233C159.592 127.303 163.008 126.795 165.052 124.55C167.021 122.386 167.701 119.167 166.773 116.395Z" fill="black"/>
<path fill-rule="evenodd" clip-rule="evenodd" d="M163.096 111.465C159.925 112.993 155.501 110.74 153.369 108.379C152.593 107.52 151.995 105.061 152.293 103.502C153.102 99.2791 156.14 96.7446 159.347 95.8791C163.793 94.679 168.267 97.7191 167.746 101.307C167.251 104.707 166.502 109.638 163.096 111.465ZM141.514 103.353C141.26 107.955 137.566 111.983 133.15 113.177C126.036 115.163 122.52 110.16 120.928 104.77C120.769 104.235 120.397 102.6 121.396 101.198C125.322 95.6827 134.874 96.6228 139.645 98.1369C141.041 99.4729 141.612 101.401 141.514 103.353ZM166.54 95.4154C166.538 95.4181 166.536 95.4205 166.534 95.4232C166.517 95.4133 166.501 95.4031 166.485 95.3934C166.503 95.401 166.523 95.4076 166.54 95.4154ZM172.493 95.9474C172.08 91.2617 157.383 93.0559 155.665 93.4399C150.976 94.8196 146.925 98.5732 141.683 96.9232C136.25 90.8652 117.957 92.6025 114.122 95.6884C113.396 95.4035 112.513 95.5564 111.578 95.8252C106.775 95.6517 84.8488 97.308 89.3336 103.44C90.0143 103.913 90.6944 103.432 90.7132 102.459C114.093 94.0162 111.826 101.924 114.599 101.001C115.023 101.123 115.464 101.2 115.851 101.281C117.997 101.972 118.725 101.758 119.008 104.168C120.95 122.778 145.722 116.355 143.691 101.09C145.702 100.98 147.462 100.109 149.589 100.959C151.066 115.339 162.633 115.919 166.114 110.934C168.739 107.475 167.699 102.253 171.307 99.5316C172.731 100.724 172.823 96.6995 172.493 95.9474Z" fill="black"/>
</svg>
