<svg width="260" height="324" viewBox="0 0 260 324" fill="none" xmlns="http://www.w3.org/2000/svg">
<path fill-rule="evenodd" clip-rule="evenodd" d="M137.498 128.859C148.834 128.047 164.376 130.295 167.654 143.225C168.671 147.931 170.675 149.996 174.041 153.073C195.406 180.429 120.863 185.028 117.031 158.352C108.958 161.293 100.17 161.916 92.092 164.889C87.7109 166.508 83.7382 169.062 79.9314 171.734C64.4077 182.764 49.1037 194.109 33.6353 205.218C39.6211 207.975 51.0017 218.503 46.3644 225.578C45.2841 226.956 43.6806 227.906 42.2621 228.914L41.5142 229.448C39.905 230.601 37.1962 232.568 35.6983 233.636L35.4221 233.837C35.3137 233.916 35.1916 234.004 35.0812 234.083C45.8833 249.882 58.5254 264.46 72.5485 277.475C73.7425 278.586 73.2535 281.068 71.5253 281.358L69.4664 281.66C62.8186 282.628 56.0444 283.5 49.3451 282.974C42.8206 282.264 38.8889 276.486 34.4286 272.301C25.5218 263.194 17.2306 253.479 9.67859 243.216L9.52135 242.999C7.17093 239.786 4.05121 236.502 3.82289 232.353C3.40648 231.106 4.50233 229.318 5.55528 228.468L5.91476 227.949C11.5622 219.824 17.9538 211.988 25.9616 206.103C25.9318 205.226 26.337 204.305 27.1394 203.724L60.6059 179.495C69.2408 173.551 77.2667 166.564 86.6263 161.764C96.1967 157.154 106.997 156.973 116.805 153.126C117.012 150.353 122.84 149.645 122.656 150.073C128.804 146.361 131.97 141.943 132.946 137.883C133.922 133.824 132.709 130.121 137.498 128.859ZM220.258 215.845C230.607 200.268 240.47 217.502 244.779 227.89C249.869 242.105 239.328 259.59 232.518 271.845C230.01 275.248 226.711 282.426 222.29 282.947C211.152 282.901 199.999 282.117 188.854 281.883C181.658 280.097 191.754 269.279 198.729 273.23C200.842 274.021 201.897 276.421 203.958 277.191C204.709 277.351 204.76 277.016 205.066 276.269L205.109 276.164C205.654 274.87 206.181 273.569 206.718 272.271C211.255 261.093 216.052 250.013 220.821 238.938C221.84 236.534 220.411 234.553 218.554 233.122C217.131 231.95 211.017 229.091 216.778 230.349C214.559 225.198 217.225 219.97 220.258 215.845ZM194.566 194.522C195.562 194.397 196.842 195.402 196.995 196.375C198.266 204.441 196.85 212.416 195.153 220.306L194.84 221.751C194.214 224.629 193.515 227.564 191.953 230.086C190.359 232.66 187.949 234.601 185.181 235.78C176.302 239.319 165.261 235.819 158.729 229.202C154.551 223.476 158.224 216.284 158.925 210.008C158.263 208.317 158.018 206.362 157.635 204.618L157.588 204.41L156.099 197.906C155.771 196.472 156.816 194.509 158.533 194.706C170.506 196.08 182.608 196.018 194.566 194.522Z" fill="white"/>
<path fill-rule="evenodd" clip-rule="evenodd" d="M236.38 213.807C236.344 213.646 236.536 213.524 236.661 213.644C238.767 215.675 240.254 218.271 241.888 220.676C243.443 222.967 245.135 225.169 246.295 227.697C247.372 230.047 248.067 232.431 248.274 235.014C248.481 237.578 248.213 240.148 247.761 242.673C246.871 247.648 244.97 252.359 242.883 256.935C240.853 261.383 238.56 265.705 236.139 269.948L235.271 271.463C234.212 273.308 233.142 275.148 231.996 276.935C230.57 279.159 229.269 281.454 227.388 283.31C226.053 284.63 223.537 283.31 224.145 281.422C224.409 280.6 224.616 279.826 225.026 279.063C225.337 278.482 225.688 277.918 226.017 277.345C226.676 276.2 227.329 275.05 227.988 273.904C229.372 271.497 230.83 269.134 232.201 266.719C234.58 262.53 236.826 258.262 238.812 253.871L239.045 253.352C240.873 249.285 242.604 245.073 243.407 240.674C244.252 236.039 243.495 231.67 241.85 227.314C240.998 225.061 240.041 222.859 239.046 220.665L238.855 220.246C237.894 218.152 236.875 216.07 236.38 213.807ZM134.095 133.637C134.114 133.555 134.253 133.549 134.266 133.637C134.857 137.573 133.541 141.736 131.397 145.01C130.227 146.798 128.784 148.413 127.083 149.711L126.95 149.811C125.213 151.11 122.866 152.365 120.709 151.522C120.641 151.496 120.578 151.467 120.519 151.433C120.762 151.809 120.986 152.205 121.214 152.6C121.892 153.777 122.5 154.997 123.162 156.184C124.345 158.308 125.754 160.208 127.535 161.872C134.657 168.522 144.657 170.102 154.048 170.026L154.711 170.02C158.836 169.991 164.231 170.202 167.416 167.215C169.127 165.611 170.069 163.33 170.921 161.189C171.757 159.09 172.33 156.924 173.025 154.789C171.574 153.794 170.243 152.579 169.197 151.158C168.107 149.679 167.283 148.014 166.807 146.236L166.737 145.971C166.37 144.553 166 142.678 166.592 141.339C166.66 141.185 166.913 141.195 166.985 141.339C167.304 141.98 167.365 142.702 167.562 143.387C167.79 144.184 168.048 144.976 168.388 145.731C169.045 147.194 169.913 148.584 170.955 149.802C171.815 150.81 172.746 151.735 173.811 152.513C174.438 151.429 175.894 151.283 177.113 151.64C178.747 152.118 180.359 152.731 181.934 153.379L182.249 153.509C183.806 154.155 185.566 154.749 187.024 155.631C187.909 156.053 188.758 156.478 189.557 156.854C193.536 158.724 197.456 160.709 201.359 162.731L202.195 163.165C203.83 164.017 205.45 164.877 206.872 166.065C208.319 167.274 209.443 168.927 210.5 170.476C212.915 174.018 215.19 177.662 217.577 181.223C222.398 188.409 227.219 195.595 232.068 202.764C233.241 204.499 234.563 206.192 235.615 208.001C236.623 209.73 236.596 211.505 236.399 213.435L236.362 213.789C235.986 217.329 235.338 220.728 233.353 223.764C230.228 228.536 225.305 231.507 220.098 233.553C220.734 234.027 221.331 234.538 222.09 234.864C223.256 235.363 224.5 235.621 225.762 235.724C227.107 235.832 228.624 235.496 229.715 236.411C230.152 236.776 230.165 237.656 229.715 238.021C228.666 238.877 227.312 238.632 226.035 238.488L225.958 238.48C224.773 238.349 223.605 238.129 222.491 237.694C222.217 237.586 221.944 237.465 221.68 237.332C221.688 237.356 221.693 237.383 221.688 237.413C221.498 238.869 221.086 240.246 220.651 241.637L220.374 242.519C219.812 244.32 219.246 246.116 218.663 247.912C217.553 251.332 216.345 254.72 215.132 258.103L214.085 261.023C213.01 264.018 211.921 267.009 210.717 269.954C209.974 271.772 209.226 273.589 208.48 275.405C207.751 277.178 207.145 279.093 206.241 280.782C205.497 282.172 203.469 281.177 203.794 279.748C204.221 277.874 205.026 276.014 205.641 274.19C206.266 272.338 206.879 270.485 207.515 268.637C208.62 265.428 209.845 262.262 211.077 259.099L212.297 255.963C213.494 252.891 214.705 249.821 215.999 246.788L216.14 246.456C217.485 243.284 218.873 239.717 221.317 237.259C221.348 237.225 221.393 237.208 221.437 237.203C220.837 236.878 220.275 236.483 219.781 236.016L219.757 235.991C219.561 235.784 218.754 234.764 218.494 234.154C218.156 234.274 217.818 234.39 217.48 234.504C216.891 234.703 216.403 234.559 216.058 234.244L215.402 234.651C214.701 235.079 213.947 235.485 213.172 235.506C212.196 235.532 211.429 234.993 210.908 234.198C210.438 233.488 210.16 232.721 209.566 232.084C208.982 231.459 208.307 230.931 207.616 230.428L206.802 229.835C205.31 228.745 203.863 227.644 202.662 226.205C202.057 225.478 201.248 224.615 200.881 223.742C200.809 223.574 200.765 223.415 200.756 223.261C200.676 223.806 200.593 224.353 200.511 224.899C199.357 232.573 198.426 240.3 198.128 248.06C197.982 251.888 197.917 255.72 198.088 259.549C198.172 261.462 198.312 263.373 198.504 265.279C198.599 266.234 198.698 267.188 198.815 268.139L198.841 268.359C198.875 268.65 198.897 268.932 198.872 269.2C199.801 269.658 200.336 270.817 200.707 271.721C200.991 272.41 200.771 273.08 200.315 273.564C200.86 274.061 201.346 274.644 201.753 275.312C201.836 275.447 201.658 275.553 201.553 275.468C200.883 274.936 200.162 274.498 199.41 274.162C199.015 274.312 198.584 274.352 198.187 274.243C197.756 274.124 197.384 273.837 197.116 273.471C194.98 273.12 192.76 273.549 190.837 274.887C190.438 275.166 190.077 275.481 189.732 275.823C189.673 275.883 189.612 275.959 189.55 276.033L189.97 276.194C190.144 276.26 190.286 276.311 190.341 276.322C190.707 276.397 191.079 276.437 191.45 276.469L192.007 276.515C194.148 276.692 196.281 276.751 198.272 277.647C198.69 277.835 198.544 278.48 198.149 278.588C196.696 278.982 195.254 278.952 193.774 278.846L193.457 278.822C192.081 278.717 190.605 278.723 189.263 278.343C189.584 279.222 189.147 280.37 187.805 280.549C183.777 281.086 179.722 280.833 175.689 280.477C171.616 280.118 167.545 279.778 163.461 279.565C150.251 278.869 137.021 279.003 123.8 279.192L116.328 279.3C110.369 279.384 104.41 279.449 98.4515 279.404L95.6625 279.378C94.4838 279.366 93.3044 279.352 92.1271 279.317L91.4209 279.294C90.0181 279.243 88.161 279.454 86.942 278.624C85.9364 277.939 85.7124 276.684 86.3188 275.671C86.4941 275.38 86.735 275.12 86.9864 274.866C87.5019 270.46 87.7913 266.032 88.0871 261.606C89.1138 246.118 88.5138 230.711 86.1455 215.379C79.7906 217.322 73.5329 219.759 67.4357 222.373C64.1378 223.787 60.8568 225.254 57.6138 226.792C54.654 228.198 51.6814 229.954 48.5188 230.867C48.2313 231.122 47.8293 231.244 47.4727 231.131L47.4265 231.114H47.4244C47.099 231.19 46.7378 231.144 46.3829 230.931C46.311 230.887 46.2392 230.843 46.1674 230.798L46.0596 230.73C44.9462 230.028 43.8265 229.164 43.0385 228.107C42.0814 228.995 41.0526 229.808 40.0406 230.632C38.942 231.529 37.8476 232.429 36.7617 233.338C36.3307 233.699 35.8554 234.044 35.4751 234.46L35.4199 234.521C35.411 234.531 35.4026 234.541 35.3948 234.551C37.0406 235.616 38.4814 237.233 39.7723 238.638C41.1584 240.147 42.4966 241.703 43.8239 243.266L45.1088 244.782C54.1946 255.515 63.3734 266.637 75.1364 274.526C76.9955 275.773 75.223 278.81 73.3765 277.535C69.8821 275.128 66.5758 272.454 63.4005 269.641C57.8357 264.715 52.8286 259.188 48.1406 253.429C45.7681 250.514 43.4652 247.528 41.2089 244.522L40.4431 243.503C39.4226 242.143 38.4075 240.779 37.4357 239.385L37.2323 239.092C36.3799 237.862 35.4734 236.479 34.9237 235.062C34.7124 235.276 34.4737 235.455 34.1251 235.591C33.5293 235.823 32.7983 235.335 32.6526 234.754C32.2976 233.344 33.523 232.505 34.5202 231.757C35.7307 230.852 36.9645 229.979 38.2005 229.111L38.6419 228.799C40.1875 227.702 41.7411 226.577 43.4251 225.71C43.4758 225.643 43.5371 225.579 43.6068 225.524C43.6871 225.461 43.7652 225.399 43.8455 225.338C41.8343 222.075 39.6286 218.938 37.1674 215.975C35.3167 213.746 33.3519 211.617 31.273 209.601L30.3391 208.696C28.9265 207.332 27.4577 205.947 25.8899 204.761L25.3991 205.318C24.7437 206.059 24.0819 206.795 23.3821 207.492C22.0047 208.861 20.6462 210.259 19.2941 211.655C17.0486 213.98 14.8792 216.375 12.7167 218.774L11.6357 219.974C9.38355 222.474 6.97088 224.928 4.9237 227.599L4.82146 227.735C3.9277 228.934 3.29148 230.261 3.70679 231.784C4.10752 233.253 5.06027 234.555 5.88148 235.823L5.96313 235.95C9.31595 241.175 12.9075 246.266 16.7547 251.138C24.4596 260.896 33.2483 270.144 43.7357 276.929C45.1892 277.869 43.8307 280.207 42.3751 279.256C36.2505 275.251 30.6244 270.441 25.4483 265.275C20.6969 260.534 16.3913 255.314 12.3561 249.956C10.3892 247.342 8.50468 244.673 6.69834 241.944C4.94693 239.296 2.92088 236.572 1.65116 233.651C0.985719 232.114 0.740597 230.451 1.28567 228.832C1.78554 227.344 2.77411 226.108 3.80253 224.946L3.89905 224.837C6.26313 222.181 8.66947 219.556 11.0969 216.956C13.5328 214.348 16.0807 211.833 18.6814 209.392C20.7244 207.471 22.854 205.777 25.1314 204.209C24.9265 204.064 24.7216 203.924 24.5124 203.789C23.8765 203.375 23.7159 202.489 24.2737 201.927C25.7969 200.388 27.5526 199.05 29.2047 197.649C30.7575 196.332 32.3103 195.014 33.8631 193.695C37.0237 191.015 40.1843 188.333 43.3448 185.651C49.0216 180.834 54.6666 175.984 60.3244 171.146C62.6836 169.129 65.0647 167.138 67.4398 165.14L71.6595 161.588L73.7233 159.854C74.7807 158.968 75.8606 158.092 77.0631 157.417C79.8925 155.827 83.2941 155.139 86.4114 154.296L86.6188 154.24C90.1152 153.283 93.6307 152.382 97.1652 151.579C100.704 150.776 104.257 150.045 107.826 149.383C111.033 148.787 114.316 148.276 117.586 148.2C118.398 147.891 119.416 147.783 120.215 148.113C120.544 148.25 120.888 148.451 121.195 148.705C122.794 148.142 124.372 147.874 125.866 146.923C127.357 145.974 128.678 144.727 129.789 143.353C132.086 140.509 133.288 137.148 134.095 133.637ZM170.858 229.969C169.59 229.88 168.449 230.404 167.317 230.962C167.955 231.239 168.593 231.514 169.231 231.786L173.477 233.6C174.88 234.198 176.365 234.718 177.698 235.455C177.793 235.508 177.87 235.572 177.927 235.646C179.312 234.758 180.779 233.966 182.184 233.122C182.505 232.93 182.828 232.738 183.151 232.545C181.478 233.105 179.762 233.386 177.946 232.86C175.522 232.161 173.418 230.149 170.858 229.969ZM174.331 225.717L174.103 225.562C172.874 224.718 171.406 223.633 169.913 224.391C169.21 224.749 168.633 225.326 167.94 225.71C167.243 226.099 166.476 226.397 165.698 226.577C164.408 226.875 162.929 226.919 161.541 226.631L161.562 228.508C162.612 228.942 163.655 229.386 164.699 229.834C165.377 229.602 166.029 229.324 166.714 229.018L167.177 228.811C168.498 228.217 169.831 227.82 171.291 228.008C174.039 228.361 176.116 230.404 178.744 231.085C181.966 231.922 184.873 229.517 187.917 228.923C188.419 228.824 188.937 228.766 189.451 228.757L189.622 228.756L189.698 228.711C190.353 228.327 191.334 227.959 191.79 227.312C192.286 226.611 192.329 225.435 192.491 224.611C192.508 224.529 192.525 224.444 192.54 224.362C192.253 224.362 191.961 224.376 191.665 224.432C190.736 224.603 189.861 224.932 188.995 225.3C187.358 225.996 185.756 226.788 184.032 227.251C182.344 227.705 180.58 227.921 178.841 227.669C177.145 227.424 175.736 226.659 174.331 225.717ZM174.595 219.118L174.341 218.954C173.669 218.525 172.899 218.081 172.076 218.239C171.341 218.381 170.709 218.966 170.069 219.327C168.664 220.12 167.088 220.553 165.481 220.663C164.143 220.754 162.755 220.591 161.469 220.194L161.513 224.349C161.984 224.499 162.472 224.607 162.986 224.645C164.545 224.761 166.066 224.387 167.374 223.527L168.035 223.088C169.167 222.343 170.229 221.753 171.728 222.024C173.211 222.295 174.455 223.246 175.668 224.074L175.867 224.208C177.259 225.128 178.671 225.721 180.379 225.736C182.224 225.75 184.047 225.237 185.764 224.605C187.469 223.979 189.09 223.229 190.913 222.999C191.471 222.929 192.151 222.908 192.791 223.018C192.876 222.546 192.956 222.077 193.032 221.606C193.197 220.593 193.338 219.583 193.461 218.571C190.226 217.7 187.239 220.517 184.235 221.386C182.492 221.889 180.595 221.883 178.852 221.397C177.239 220.946 175.971 220.012 174.595 219.118ZM174.603 212.12C173.912 211.987 173.23 212.306 172.643 212.634C171.145 213.465 169.852 214.621 168.155 215.058C165.973 215.62 163.586 215.136 161.418 214.217C161.427 215.5 161.437 216.783 161.448 218.066C161.855 218.22 162.274 218.345 162.7 218.444C164.217 218.79 165.825 218.744 167.319 218.306C168.842 217.86 170.01 216.656 171.538 216.28C173.1 215.894 174.572 216.645 175.831 217.498L176.21 217.757C177.648 218.733 179.044 219.582 180.844 219.748C182.748 219.923 184.402 219.327 186.103 218.537L186.498 218.354C188.652 217.364 191.447 216.238 193.596 217.364C193.765 215.766 193.888 214.168 193.97 212.568C193.674 212.458 193.368 212.378 193.015 212.376C192.172 212.372 191.287 212.638 190.501 212.915C188.784 213.522 187.184 214.426 185.484 215.075C183.872 215.692 182.086 216.013 180.367 215.737C178.774 215.481 177.578 214.648 176.477 213.507L176.317 213.338C175.835 212.824 175.318 212.259 174.603 212.12ZM175.865 206.188C175.068 205.767 174.099 205.376 173.177 205.499C172.299 205.615 171.713 206.211 171.172 206.849L170.879 207.198C169.91 208.344 168.957 209.307 167.465 209.779C165.918 210.265 164.279 210.074 162.84 209.362C162.329 209.109 161.853 208.794 161.376 208.483L161.401 211.854C162.356 212.329 163.328 212.759 164.395 213.019C166.364 213.498 168.037 213.143 169.721 212.057L169.898 211.942C171.166 211.109 172.466 210.117 174.033 210.024C175.562 209.932 176.709 210.78 177.716 211.818L177.834 211.941C179.103 213.28 180.386 213.934 182.275 213.779C184.106 213.63 185.819 212.821 187.497 212.124L187.649 212.061C189.183 211.431 190.951 210.782 192.635 211.023C193.039 211.08 193.561 211.205 194.025 211.423C194.093 209.846 194.125 208.267 194.131 206.687C193.174 205.856 191.684 205.719 190.487 206.059C188.611 206.591 187.075 207.965 185.283 208.711C183.694 209.373 182.038 209.521 180.418 208.895C178.744 208.248 177.432 207.016 175.865 206.188ZM194.025 199.547C191.221 199.644 188.479 201.468 185.802 202.164C182.812 202.94 180.372 201.882 177.708 200.707L177.364 200.556C175.998 199.955 174.529 199.416 173.014 199.661C171.538 199.902 170.232 200.72 168.962 201.46L168.719 201.6C166.406 202.917 164.051 203.819 161.35 203.594C161.365 204.442 161.359 205.287 161.361 206.116C161.805 206.37 162.231 206.657 162.637 206.919L162.783 207.011C164.07 207.817 165.397 208.346 166.932 207.849C168.415 207.367 169.112 206.076 170.131 205.013C171.067 204.036 172.288 203.443 173.657 203.499C175.129 203.558 176.521 204.207 177.738 205C178.955 205.793 180.132 206.817 181.556 207.215C184.75 208.102 187.486 204.723 190.507 204.197C191.775 203.975 193.174 204.256 194.131 205.021C194.12 203.199 194.08 201.373 194.025 199.547ZM169.894 198.782C169.499 198.797 169.104 198.814 168.709 198.831C167.247 198.894 165.785 198.966 164.323 199.048C163.311 199.103 162.067 199.414 161.074 199.105C161.048 199.207 161.015 199.304 160.97 199.399C161.12 200.147 161.213 200.921 161.27 201.703C162.187 201.802 163.119 201.768 164.023 201.58C166.193 201.13 167.955 199.761 169.894 198.782ZM193.983 198.154C188.644 198.522 183.265 198.396 177.917 198.511L177.276 198.526C177.25 198.526 177.225 198.529 177.2 198.529C177.813 198.766 178.421 199.038 179.028 199.316L179.633 199.594C181.066 200.253 182.524 200.792 184.127 200.676C185.845 200.551 187.463 199.849 189.069 199.283C190.6 198.742 192.364 198.378 193.998 198.615C193.993 198.461 193.989 198.309 193.983 198.154Z" fill="black"/>
<path fill-rule="evenodd" clip-rule="evenodd" d="M182.509 74.7506C175.542 64.8794 158.036 63.7675 146.972 63.83C125.123 63.648 120.548 88.7722 119.407 106.378C117.076 106.774 114.81 107.587 113.272 109.419C111.399 111.65 110.753 115.48 112.508 117.975C113.674 119.632 115.516 120.185 117.442 120.278C123.82 119.669 125.128 125.356 128.269 129.621C136.33 140.515 150.295 144.049 163.103 144.103C167.454 144.219 172.694 144.546 175.48 140.451C184.28 125.192 184.472 104.955 185.014 87.6635C185.089 83.2366 185.07 78.5502 182.509 74.7506Z" fill="white"/>
<path fill-rule="evenodd" clip-rule="evenodd" d="M197.544 83.3131C197.632 83.4803 197.697 83.6654 197.733 83.8668C197.848 84.5062 197.612 84.995 197.303 85.4697C197.344 85.8007 197.366 86.1215 197.384 86.4037C197.482 87.9879 197.12 90.1596 195.723 90.8063C195.701 90.8325 195.679 90.8585 195.656 90.8845C195.549 91.0599 195.384 91.2117 195.168 91.3224C195.114 91.3598 195.06 91.3953 195.005 91.4258C194.991 91.4381 194.976 91.449 194.96 91.46C194.949 91.4681 194.938 91.4761 194.927 91.4847C194.956 91.4541 194.984 91.4222 195.013 91.3911C194.241 91.6993 193.495 91.7629 192.699 91.6693C192.206 91.8472 191.713 91.9801 191.297 92.0831C189.997 92.4041 188.321 92.6611 187.055 92.1137C186.686 91.9544 186.38 91.7432 186.149 91.4915C186.168 92.4722 186.197 93.4526 186.24 94.4333C186.326 96.9124 186.322 99.3895 186.303 101.871C186.282 104.663 186.204 107.457 186.054 110.247C185.984 111.648 185.872 113.047 185.722 114.442C185.595 115.801 185.447 117.158 185.276 118.51C184.873 121.292 184.207 124.094 183.396 126.783C183.043 127.949 182.657 129.131 182.217 130.285C182.031 130.815 181.835 131.339 181.621 131.859C180.495 134.583 179.092 137.213 177.197 139.483C176.162 140.721 175.019 141.835 173.743 142.771C172.719 143.57 171.609 144.246 170.39 144.779C167.771 145.925 164.847 146.182 162.014 146.14C160.933 146.126 159.787 145.935 158.716 145.756L158.65 145.745C157.814 145.608 156.966 145.424 156.128 145.208C155.384 145.035 154.649 144.834 153.924 144.599C153.052 144.369 152.215 144.037 151.419 143.608L150.007 143.078C149.418 142.856 148.845 142.592 148.29 142.289L146.756 141.573C146.12 141.266 145.501 140.93 144.897 140.56C144.833 140.527 144.761 140.47 144.734 140.406C144.669 140.37 144.603 140.335 144.537 140.299C144.446 140.25 144.354 140.2 144.263 140.148C144.238 140.136 144.257 140.062 144.29 139.99C144.263 139.933 144.267 139.869 144.343 139.812C144.4 139.768 144.491 139.781 144.586 139.81C144.578 139.804 144.571 139.798 144.565 139.791C144.459 139.734 144.356 139.679 144.252 139.622C144.147 139.565 144.13 139.417 144.229 139.339C144.257 139.318 144.288 139.307 144.32 139.305C144.318 139.305 144.317 139.304 144.316 139.303C144.315 139.303 144.314 139.303 144.314 139.303C144.295 139.29 144.309 139.231 144.337 139.166C144.284 139.098 144.267 139.016 144.36 138.944C144.488 138.844 144.773 139.007 144.907 139.084C144.917 139.09 144.926 139.095 144.935 139.1C145.018 139.146 145.101 139.191 145.185 139.235C145.236 139.262 145.286 139.289 145.336 139.316C145.345 139.297 145.361 139.28 145.389 139.263C145.193 139.159 144.998 139.054 144.804 138.948L144.804 138.948C144.683 138.884 144.527 138.751 144.685 138.627C144.812 138.525 145.14 138.698 145.296 138.787C145.315 138.772 145.336 138.766 145.361 138.762C145.334 138.747 145.306 138.732 145.278 138.717C145.237 138.694 145.195 138.672 145.154 138.648C144.964 138.542 145.093 138.212 145.29 138.322C145.313 138.337 145.336 138.35 145.359 138.365C145.494 138.353 145.68 138.457 145.776 138.511L145.79 138.519C146.452 138.935 147.14 139.299 147.854 139.612C148.336 139.84 148.82 140.066 149.306 140.286C149.783 140.522 150.276 140.727 150.78 140.901C152.05 141.395 153.333 141.856 154.628 142.283C156.442 142.78 158.321 143.179 160.205 143.336C160.45 143.355 160.695 143.371 160.94 143.38C161.208 143.378 161.475 143.376 161.743 143.375C162.011 143.373 162.28 143.371 162.548 143.369C163.496 143.271 164.445 143.175 165.391 143.079L165.671 143.05C166.034 142.999 166.389 142.936 166.74 142.862C166.923 142.818 167.107 142.771 167.289 142.718C167.331 142.713 167.373 142.705 167.416 142.698C167.437 142.694 167.458 142.69 167.479 142.687C167.925 142.568 168.362 142.427 168.8 142.262C169.074 142.15 169.347 142.031 169.617 141.907C170.511 141.49 171.39 140.941 172.218 140.311C172.736 139.794 173.255 139.278 173.774 138.762C174.292 138.246 174.811 137.729 175.33 137.213L176.278 135.919C177.504 134.167 178.473 132.214 179.278 130.221L180.559 126.531C180.692 126.087 180.819 125.643 180.939 125.197C181.182 124.2 181.425 123.202 181.668 122.207C181.748 121.841 181.826 121.478 181.902 121.114C182.369 118.851 182.627 116.553 182.849 114.256C183.254 110.075 183.364 105.882 183.394 101.685C183.413 99.176 183.392 96.6673 183.341 94.1606C183.311 92.7066 183.29 91.2525 183.269 89.7984C183.242 88.2555 183.212 86.7105 183.172 85.1677C183.17 85.1339 183.183 85.1043 183.2 85.0789C183.195 84.8972 183.193 84.7154 183.191 84.5315C183.189 84.4111 183.235 84.3582 183.303 84.3477C183.29 83.2465 183.282 82.1475 183.28 81.0485C183.28 80.9766 183.314 80.9301 183.358 80.9026V80.6237C183.174 79.8586 182.925 79.1083 182.602 78.3939C182.492 78.1361 182.369 77.8846 182.234 77.6394C182.067 77.2716 181.85 76.9377 181.583 76.6313C181.361 76.2572 181.089 75.9253 180.772 75.6295C180.708 75.583 180.643 75.5365 180.578 75.49C180.513 75.4435 180.448 75.397 180.383 75.3505C180.276 75.2934 180.117 75.1941 179.978 75.0799C179.852 75.0029 179.727 74.9252 179.602 74.8476C179.477 74.7699 179.351 74.6922 179.226 74.615C179.08 74.5389 179.175 74.3487 179.278 74.2979V74.2916C179.255 74.281 179.23 74.2684 179.202 74.2451C178.898 73.9577 178.581 73.6871 178.252 73.4335C178.192 73.4568 178.123 73.4483 178.07 73.4039C177.876 73.2222 177.677 73.0468 177.474 72.8777C177.02 72.5797 176.545 72.307 176.048 72.0661C175.252 71.6899 174.436 71.3665 173.6 71.0918C173.437 71.0382 173.273 70.9898 173.11 70.9416L173.057 70.9259C172.958 70.9212 172.859 70.9162 172.761 70.9113C172.602 70.9033 172.444 70.8954 172.285 70.8884C162.712 70.4683 153.114 70.6448 143.563 71.4156C141.209 71.6056 138.859 71.8319 136.513 72.0942C136.071 72.1437 135.61 72.1822 135.139 72.2215C133.415 72.3656 131.567 72.5199 130.076 73.2632C129.996 73.3033 129.92 73.3458 129.845 73.3896C129.973 74.214 130.282 75.0216 130.582 75.8061C130.628 75.9254 130.673 76.0441 130.718 76.1623C131.238 77.5437 131.704 78.9517 131.658 80.4476C131.625 81.4908 131.401 82.4939 131.079 83.4741C130.913 84.8718 130.478 86.2217 130.015 87.5479C127.741 94.0731 126.502 100.754 126.63 107.681C126.633 107.866 126.59 108.028 126.517 108.166L126.521 108.193C126.561 108.487 126.601 108.781 126.649 109.074C126.839 110.241 125.3 110.822 124.769 110.048C124.733 110.083 124.684 110.107 124.638 110.111C124.503 110.124 124.281 109.902 124.218 109.801C124.135 109.648 124.049 109.5 123.956 109.359C123.943 109.353 123.933 109.348 123.922 109.344C123.95 109.402 123.978 109.46 124.006 109.518C124.036 109.578 124.065 109.639 124.093 109.697C124.186 109.883 123.829 109.974 123.723 109.803C123.628 109.653 123.533 109.509 123.438 109.372C123.383 109.412 123.322 109.422 123.282 109.357C122.942 108.795 122.549 108.313 122.118 107.903C121.44 107.349 120.698 107.013 119.855 106.816C119.192 106.721 118.511 106.717 117.854 106.793C117.1 106.882 116.306 107.07 115.623 107.414C115.068 107.797 114.51 108.18 113.952 108.562C113.815 108.706 113.684 108.856 113.561 109.012C113.175 109.513 112.864 110.048 112.609 110.616C112.598 110.652 112.588 110.688 112.577 110.722C112.421 111.2 112.319 111.69 112.275 112.193C112.272 112.511 112.269 112.829 112.266 113.146C112.264 113.464 112.261 113.781 112.258 114.099C112.342 114.926 112.554 115.729 112.877 116.492C113.029 116.942 113.268 117.344 113.591 117.699C113.764 117.999 113.961 118.271 114.181 118.525C114.626 118.821 115.112 119.073 115.63 119.271L115.63 119.271C115.757 119.305 115.883 119.339 116.012 119.364C116.678 119.62 117.366 119.757 118.078 119.776C118.978 119.838 119.859 119.759 120.721 119.542C121.254 119.447 121.769 119.292 122.268 119.079C122.745 118.838 123.195 118.548 123.616 118.21C123.662 118.181 123.732 118.198 123.808 118.236C123.901 118.168 123.994 118.102 124.085 118.028C124.127 117.999 124.165 118.035 124.184 118.073L124.209 118.054C124.376 117.94 124.835 118.297 124.628 118.508C124.716 118.563 124.805 118.629 124.885 118.696C125.253 118.711 125.995 119.387 125.855 119.493C125.648 119.673 125.431 119.838 125.209 119.994C125.405 120.14 125.663 120.366 125.542 120.457C125.327 120.662 125.092 120.839 124.843 120.992C124.674 121.12 124.501 121.243 124.319 121.355C124.123 121.471 123.922 121.571 123.715 121.664C124.076 122.363 124.421 123.069 124.742 123.788C124.955 124.297 125.202 124.79 125.488 125.263C125.851 125.984 126.286 126.66 126.795 127.29C127.209 127.987 127.695 128.628 128.251 129.213C128.938 129.995 129.675 130.731 130.459 131.411C130.771 131.633 131.09 131.849 131.422 132.047C132.269 132.686 133.171 133.233 134.128 133.689C134.24 133.751 134.329 133.886 134.198 133.992C134.194 133.994 134.19 133.994 134.185 133.998C134.498 134.176 134.813 134.351 135.13 134.524L135.14 134.53C135.268 134.599 135.505 134.727 135.32 134.877C135.197 134.979 134.819 134.797 134.593 134.679C134.608 134.687 134.623 134.695 134.639 134.704C134.657 134.713 134.675 134.723 134.692 134.734C134.696 134.735 134.7 134.737 134.704 134.74C134.798 134.79 135.152 134.98 134.916 135.103C134.792 135.125 134.673 135.103 134.559 135.042C134.441 134.998 134.323 134.949 134.207 134.898C134.211 134.936 134.19 134.972 134.128 135.002C134.08 135.01 134.033 135.01 133.987 135.006C134.245 135.152 134.502 135.296 134.762 135.437C134.838 135.478 135.197 135.676 134.961 135.799C134.845 135.822 134.733 135.803 134.625 135.744C134.428 135.67 134.234 135.583 134.046 135.488C134.002 135.463 133.957 135.439 133.913 135.414C133.879 135.414 133.845 135.41 133.811 135.404C134.019 135.516 134.228 135.623 134.439 135.729C134.564 135.797 134.773 135.934 134.593 136.074C134.469 136.169 134.133 135.997 133.934 135.885C133.921 135.9 133.907 135.917 133.885 135.934C133.756 136.032 133.448 135.855 133.293 135.765C133.271 135.752 133.252 135.741 133.237 135.733C132.189 135.171 131.177 134.59 130.203 133.924C129.607 133.542 129.026 133.14 128.458 132.702C127.37 131.861 126.381 130.883 125.475 129.851C124.856 129.145 124.52 128.748 123.92 127.892C122.957 126.514 122.23 125.077 121.531 123.553C121.52 123.53 121.541 123.471 121.573 123.412C121.429 123.059 121.29 122.701 121.15 122.332C120.787 122.38 120.421 122.414 120.06 122.435C119.209 122.484 118.383 122.408 117.582 122.232C116.612 122.107 115.653 121.833 114.804 121.402C114.295 121.146 113.804 120.873 113.34 120.569C112.923 120.347 112.522 120.093 112.138 119.797C110.5 118.546 109.611 116.604 109.393 114.588C109.226 113.7 109.19 112.787 109.29 111.906C109.361 111.265 109.505 110.631 109.714 110.02C110.101 108.666 110.821 107.412 111.865 106.463C112.04 106.284 112.224 106.113 112.421 105.952C113.002 105.476 113.661 105.094 114.362 104.815C114.497 104.749 114.635 104.688 114.772 104.631L114.605 104.246C114.546 104.263 114.341 104.229 114.316 104.158C114.274 104.045 114.234 103.93 114.195 103.816C114.17 103.744 114.145 103.673 114.119 103.602C114.081 103.625 114.033 103.638 113.98 103.64V103.853C113.982 103.914 113.866 104.295 113.802 104.096C113.762 103.985 113.725 103.872 113.687 103.76C113.663 103.688 113.639 103.616 113.614 103.545C113.561 103.511 113.521 103.471 113.507 103.424L113.507 103.424C113.5 103.405 113.494 103.386 113.485 103.367C113.482 103.365 113.478 103.365 113.474 103.364C113.473 103.364 113.472 103.363 113.471 103.363V103.428C113.473 103.469 113.367 103.773 113.348 103.714C112.983 102.708 112.685 101.68 112.452 100.636C112.294 100.062 112.169 99.4803 112.074 98.8907C111.971 98.3602 111.88 97.8276 111.802 97.2907L111.783 97.1576C111.782 97.1523 111.781 97.1476 111.779 97.1428C111.778 97.1381 111.777 97.1333 111.776 97.128C111.77 97.0709 111.764 97.0118 111.755 96.9547C111.671 96.3481 111.601 95.7394 111.548 95.1265C111.436 93.8669 111.392 92.6009 111.404 91.337C111.387 91.3436 111.371 91.3519 111.354 91.3602C111.344 91.3652 111.334 91.3703 111.324 91.375C110.775 91.6088 110.195 91.7999 109.605 91.952C108.59 93.4197 106.97 94.4128 105.027 94.5172C104.37 94.5527 103.68 94.4726 103.042 94.2868C102.975 94.302 102.907 94.3143 102.836 94.3236C102.502 94.3672 102.234 94.2958 101.956 94.2218C101.8 94.1804 101.642 94.1382 101.467 94.115C101.404 94.1066 101.342 94.0986 101.28 94.0907C100.582 94.001 99.9869 93.9245 99.5236 93.5086C99.3679 93.5122 99.2192 93.4896 99.0778 93.4473C97.7411 93.768 96.3208 93.0612 95.8507 91.5801C95.049 91.11 94.4101 90.4128 93.9806 89.6037C93.1533 88.5427 92.4918 87.2419 92.0815 85.8751C92.079 85.8699 92.0763 85.8648 92.0737 85.8598C92.0697 85.8521 92.0657 85.8444 92.0621 85.8364C91.854 85.385 91.7549 84.9008 91.7464 84.4151C91.525 83.0316 91.5833 81.6464 92.0044 80.4288C91.9866 79.7687 92.1417 79.0808 92.4256 78.4567C92.7698 77.6998 93.2946 76.8297 93.9755 76.325C93.9772 75.5494 94.3104 74.6955 94.7471 74.1168C95.6185 72.9609 96.8823 72.3499 98.2501 72.2616C98.9456 70.478 101.053 70.0614 102.871 70.6551C103.626 69.8833 104.732 69.5147 105.836 69.6459C106.769 69.7569 107.567 70.2035 108.227 70.8189C108.401 70.8686 108.575 70.9204 108.748 70.9743C109.326 70.7204 110.001 70.6629 110.618 70.8221C111.688 71.0979 112.385 71.9086 112.868 72.8386C113.022 72.9447 113.173 73.0542 113.319 73.1685C113.481 73.2408 113.627 73.3374 113.76 73.4511C113.953 73.554 114.117 73.7233 114.217 73.9689C114.489 74.25 114.743 74.5473 114.967 74.8663C115.135 74.4776 115.308 74.0917 115.487 73.7085C115.779 73.7962 116.131 73.6827 116.278 73.2934L116.315 73.1943C117.252 70.7066 118.92 66.2773 120.494 64.2216C118.633 65.4891 116.361 66.1572 114.104 66.09C114.007 66.087 113.91 66.083 113.812 66.0777C112.599 66.2869 111.366 66.3064 110.235 66.0794C109.473 65.8027 108.731 65.473 108.011 65.1C107.837 65.0091 107.663 64.9136 107.49 64.8172C107.436 64.7715 107.385 64.7221 107.334 64.6726C107.313 64.6532 107.293 64.6337 107.273 64.6145C107.124 64.6253 106.968 64.6137 106.803 64.5697C106.18 64.4051 105.604 63.9906 105.243 63.458C105.176 63.3589 105.122 63.2568 105.073 63.1539C104.681 62.7705 104.342 62.3362 104.092 61.8283C103.799 61.2344 103.619 60.5665 103.6 59.8987C103.478 59.2435 103.486 58.5693 103.714 57.9437C103.73 57.9011 103.748 57.8593 103.766 57.8173C103.776 57.7926 103.787 57.7679 103.797 57.7429C103.802 57.7256 103.806 57.7079 103.811 57.6902C103.817 57.6646 103.824 57.6389 103.833 57.614C103.899 57.391 103.984 57.1923 104.087 57.0042C104.126 56.8108 104.188 56.6191 104.276 56.4325C104.286 56.3423 104.299 56.252 104.313 56.1622C103.642 54.8951 103.88 53.2382 104.885 52.2083C104.746 51.5425 104.887 50.8366 105.292 50.2459C105.59 49.8118 106.003 49.4692 106.472 49.2314C106.52 49.2067 106.65 49.1642 106.804 49.1154C106.978 48.9621 107.16 48.8171 107.36 48.6895C107.408 47.451 108.644 46.7366 109.714 46.118C109.765 46.0881 109.817 46.0585 109.867 46.029C110.216 45.8266 110.469 45.5358 110.722 45.2448C110.987 44.9393 111.253 44.6337 111.63 44.4299C112.289 44.0739 113.1 43.992 113.86 43.9151C114.028 43.8982 114.194 43.8814 114.355 43.862C116.452 43.6093 118.685 43.414 120.793 43.6424C121.963 43.7692 122.932 44.3346 123.333 45.2607C124.34 45.3797 125.237 46.1064 125.947 46.8537C126.833 47.7864 127.587 48.7793 127.847 50.0049C128.021 50.0986 128.178 50.2131 128.32 50.3425C128.315 51.2043 128.203 52.0677 127.965 52.8812C128.035 53.3675 127.888 53.8318 127.641 54.2529C127.678 54.6515 127.651 55.0439 127.568 55.4351C128.05 56.2901 127.599 57.582 126.924 58.4298L126.919 58.9078C126.959 58.8869 126.998 58.8622 127.035 58.8311C128.976 57.1789 130.951 56.7234 133.084 56.2315C134.317 55.9474 135.601 55.6511 136.963 55.1052C140.317 54.4574 143.741 54.0451 147.177 53.9079C147.132 53.9012 147.086 53.8963 147.041 53.8889C145.31 53.6053 143.647 52.8928 142.216 51.8692C141.838 51.7733 141.479 51.6023 141.157 51.3164C140.845 51.0386 140.629 50.7182 140.505 50.3746C140.448 50.3139 140.392 50.2528 140.337 50.1907C139.263 49.9269 138.446 48.9976 138.583 47.776C137.903 46.971 137.653 45.977 137.883 44.942C137.503 44.3002 137.47 43.4909 137.753 42.8131C137.156 42.0877 137.11 41.058 137.578 40.2374C137.151 39.6297 137.056 38.8245 137.583 38.1048C137.832 37.765 138.177 37.5507 138.553 37.4471C138.659 37.0555 138.875 36.6918 139.213 36.4109C139.388 36.2665 139.57 36.1594 139.757 36.0795C139.827 35.6752 140.055 35.2918 140.495 34.9902C140.694 34.8534 140.898 34.7651 141.101 34.7161C141.293 34.2405 141.628 33.8235 142.1 33.5528C142.669 33.2262 143.331 33.1829 143.934 33.3541C144.721 32.1634 146.45 31.7018 147.648 32.585C148.645 31.9674 149.9 32.0976 150.797 32.8486C151.881 32.2075 153.227 32.4662 154.078 33.36C155.44 32.6152 157.239 33.1654 157.968 34.5766C159.343 34.424 160.639 35.3243 161.005 36.6275C161.065 36.6759 161.124 36.7257 161.183 36.7755L161.198 36.7886C162.022 36.8281 162.805 37.151 163.266 37.9174C163.497 38.3001 163.603 38.7499 163.588 39.1906C164.08 39.4569 164.478 39.8937 164.649 40.4599C164.808 40.9908 164.748 41.516 164.538 41.9736C165.224 42.7034 165.405 43.8409 164.919 44.7575C165.12 45.1024 165.225 45.5101 165.208 45.9339C165.184 46.5614 164.893 47.0672 164.497 47.4989C164.995 48.3972 164.801 49.5495 163.992 50.1793C163.528 51.827 162.352 52.9232 160.55 53.5958C159.645 53.9335 158.699 54.1937 157.734 54.3847C161.595 54.9044 165.393 55.8179 169.042 57.1798C169.24 57.254 169.409 57.2251 169.537 57.1386C169.572 57.1572 169.608 57.1751 169.643 57.1931C169.688 57.2159 169.733 57.2388 169.778 57.2631C170.783 57.8147 171.768 58.4129 172.727 59.0533C172.727 58.9476 172.729 58.8419 172.733 58.7341C172.715 57.8644 172.806 57.0078 173.037 56.1821C172.735 55.7701 172.509 55.3005 172.386 54.8165C172.079 53.6089 172.663 51.8904 173.712 51.4778C174.08 50.4578 174.915 49.7198 175.94 49.4294C176.021 49.3561 176.108 49.2849 176.204 49.2187C176.42 49.0703 176.656 48.9691 176.899 48.9103C177.025 48.3577 177.333 47.8489 177.844 47.492C178.566 46.9879 179.419 46.9332 180.169 47.2081C180.311 47.1601 180.456 47.1185 180.602 47.0824C181.809 46.0548 183.69 46.1305 184.751 47.3328C185.48 46.9995 186.339 46.9847 187.086 47.4332C187.683 47.7921 188.054 48.3708 188.2 49.0059C189.33 49.0405 190.364 49.7908 190.69 50.9106C191.731 51.0285 192.583 51.8439 192.764 52.8702C193.429 52.9628 194.042 53.2751 194.416 53.8963C194.588 54.1835 194.682 54.4978 194.706 54.8125C195.042 54.9738 195.343 55.2179 195.571 55.5368C195.969 56.0956 196.046 56.7481 195.9 57.362C195.914 57.3899 195.928 57.4174 195.942 57.445C195.963 57.4848 195.983 57.5246 196.002 57.5653C196.111 57.7961 196.198 58.0436 196.275 58.2949C196.626 58.8003 196.787 59.418 196.755 60.0386C196.83 60.3011 196.902 60.5642 196.961 60.8286C197.198 61.8663 197.287 62.9717 197.124 64.0284C197.044 64.5399 196.928 65.0429 196.763 65.5311C196.746 65.6241 196.719 65.7108 196.687 65.7932C196.596 66.1779 196.48 66.5562 196.332 66.926C195.977 67.3974 195.605 67.856 195.214 68.2998C194.885 68.7944 194.509 69.2509 194.084 69.6694C193.778 69.9716 193.442 70.2527 193.085 70.5063C192.376 71.0746 191.583 71.5178 190.737 71.8061C190.586 71.7744 190.434 71.7497 190.282 71.7254C189.321 72.2546 187.809 72.3144 186.884 72.3108C185.866 72.307 184.933 72.0496 184.157 71.5633C184.247 71.7423 184.337 71.9215 184.427 72.1012C184.404 72.1141 184.38 72.1257 184.361 72.1407C184.193 71.8628 184.006 71.6159 183.785 71.4384C183.484 71.1955 182.999 71.1738 182.79 71.5667C182.786 71.5734 182.782 71.5804 182.779 71.5874C182.668 71.7968 182.683 71.9978 182.768 72.1618C182.799 72.2064 182.83 72.2514 182.861 72.2962C182.872 72.3089 182.882 72.3225 182.894 72.3343L182.889 72.3349C183.177 72.5672 183.461 73.1362 183.73 73.6893C183.913 74.0124 184.086 74.3402 184.248 74.6737C184.343 74.8136 184.511 74.9364 184.691 74.9722C184.656 75.2385 184.778 75.5138 184.979 75.6504C185.032 75.5439 185.096 75.4348 185.179 75.3224C186.087 74.0885 187.871 73.5561 189.214 74.12C189.482 74.0748 189.751 74.0374 190.023 74.016C190.91 73.9575 191.809 74.0272 192.685 74.2109C192.957 74.374 193.217 74.5577 193.459 74.7671C193.664 74.9447 193.854 75.1307 194.031 75.323C194.169 75.4259 194.304 75.535 194.436 75.6487C194.973 75.9376 195.367 76.4918 195.699 77.0434C195.962 77.4152 196.191 77.8102 196.39 78.2286C197.311 79.8053 198.374 81.7628 197.544 83.3131ZM123.668 113.782C124.006 114.173 124.27 114.609 124.46 115.089C124.536 115.243 124.444 115.336 124.287 115.308C124.217 115.298 124.122 115.247 124.025 115.179C124.033 115.197 124.041 115.214 124.048 115.231C124.056 115.248 124.064 115.265 124.072 115.283C124.154 115.446 124.084 115.562 123.896 115.501C123.886 115.494 123.875 115.488 123.867 115.482C123.964 115.655 124.053 115.833 124.129 116.019C124.211 116.183 124.137 116.297 123.951 116.234C123.854 116.179 123.761 116.116 123.672 116.046C123.683 116.07 123.694 116.094 123.705 116.118C123.735 116.182 123.765 116.246 123.791 116.312C123.875 116.479 123.778 116.566 123.613 116.528C123.472 116.45 123.341 116.357 123.218 116.249C123.206 116.239 123.194 116.229 123.183 116.218C123.177 116.213 123.171 116.207 123.165 116.202C123.22 116.34 123.117 116.424 122.979 116.397C122.785 116.359 122.42 116.031 122.331 115.858C122.325 115.847 122.32 115.837 122.314 115.826C122.21 115.756 122.098 115.659 122.014 115.566C121.946 115.663 121.815 115.735 121.756 115.617C121.579 115.133 121.302 114.719 120.924 114.37C120.708 114.055 120.446 113.787 120.14 113.565C119.975 113.425 119.804 113.292 119.629 113.165C119.318 113.024 118.995 112.916 118.657 112.844C118.619 112.832 118.58 112.823 118.541 112.814C118.511 112.806 118.481 112.799 118.452 112.791L118.427 112.787C118.286 112.761 118.146 112.735 118.004 112.715C117.394 112.631 116.781 112.616 116.168 112.671C116.058 112.675 115.953 112.59 115.906 112.493C115.769 112.5 115.634 112.506 115.496 112.519C115.27 112.527 115.319 112.208 115.49 112.176C115.705 112.136 115.921 112.106 116.132 112.081C116.128 112.062 116.126 112.041 116.13 112.024C115.744 112.005 115.359 112.013 114.97 112.054C114.801 112.062 115.002 111.749 115.095 111.732C115.117 111.728 115.139 111.725 115.161 111.721C115.182 111.718 115.202 111.715 115.224 111.711C115.22 111.705 115.217 111.701 115.215 111.694H115.205C114.972 111.705 114.814 111.335 115.093 111.284C115.126 111.278 115.159 111.273 115.192 111.268C115.227 111.263 115.263 111.257 115.298 111.25C115.285 111.215 115.283 111.183 115.296 111.153C115.175 111.151 115.057 111.151 114.936 111.151C114.968 111.149 114.996 111.082 115.025 111.012C115.056 110.937 115.088 110.859 115.129 110.853L115.315 110.828C115.319 110.75 115.437 110.568 115.488 110.557C115.889 110.49 116.282 110.443 116.671 110.428C116.709 110.34 116.764 110.221 116.817 110.221C117.258 110.215 117.683 110.219 118.105 110.263C118.122 110.251 118.139 110.244 118.154 110.247C118.179 110.252 118.202 110.258 118.226 110.264C118.269 110.274 118.311 110.284 118.355 110.295C118.589 110.329 118.824 110.378 119.063 110.447C119.627 110.614 120.191 110.878 120.679 111.206C121.139 111.515 121.598 111.836 121.999 112.221C122.141 112.341 122.274 112.472 122.401 112.607C122.605 112.776 122.804 112.95 122.994 113.121C123.227 113.334 123.453 113.554 123.668 113.782Z" fill="black"/>
<path fill-rule="evenodd" clip-rule="evenodd" d="M163.152 128.274C161.732 127.695 160.465 126.728 159.538 125.493C159.216 125.063 159.133 124.61 159.2 124.195C159.276 123.729 159.552 123.306 159.928 123.023C160.305 122.739 160.777 122.598 161.233 122.67C161.63 122.732 162.024 122.949 162.337 123.399L162.402 123.489C162.953 124.235 163.67 124.846 164.488 125.241C165.276 125.621 166.158 125.798 167.07 125.695C168.808 125.499 170.005 124.559 171.278 123.282C171.436 123.121 171.594 122.955 171.752 122.786C171.852 122.633 171.991 122.534 172.146 122.483C172.317 122.425 172.511 122.429 172.689 122.491C172.86 122.55 173.013 122.664 173.116 122.815C173.213 122.958 173.269 123.135 173.251 123.339C173.134 124.661 172.443 125.842 171.461 126.769C170.37 127.799 168.924 128.511 167.563 128.761C166.064 129.036 164.536 128.839 163.152 128.274ZM168.271 107.866C169.866 108.836 172.297 111.098 170.581 113.503C168.56 115.624 165.652 113.193 164.219 112.093C162.889 111.241 161.396 113.433 162.629 114.428C172.986 122.099 177.19 108.12 169.078 106.726C168.184 106.572 167.853 107.566 168.271 107.866ZM149.711 98.9429C149.887 96.7541 153.219 96.257 153.551 98.423C153.847 100.363 153.498 102.145 152.624 103.892C151.79 105.561 149.692 104.783 149.533 103.263C149.32 101.226 149.601 100.304 149.711 98.9429ZM175.076 97.9738C175.541 97.3652 176.212 96.9496 177.015 97.1845C179.526 97.9185 178.786 101.485 177.904 103.22C177.425 104.163 175.876 104.402 175.176 103.572C174.035 102.219 173.489 99.5156 174.939 98.1825C174.979 98.1136 175.023 98.044 175.076 97.9738ZM152.589 89.3654L152.986 89.2959C154.213 89.0836 155.738 88.8796 156.606 89.8665C157.067 90.3898 157.225 91.3624 156.606 91.8633C155.518 92.7446 154.314 92.4031 153.01 92.4777C151.935 92.5394 150.902 92.7174 149.867 93.0135C147.595 93.663 145.744 94.8486 143.804 96.1506C143.55 96.3213 143.29 95.9956 143.411 95.7574C144.531 93.563 146.701 91.7604 148.875 90.6616C150.036 90.0751 151.305 89.5885 152.589 89.3654ZM172.787 88.3823L173.091 88.4445C176.394 89.1353 180.687 90.5153 182.251 93.7615C182.311 94.2205 182.248 94.3189 182.196 94.3832L182.179 94.4046C182.137 94.4595 182.104 94.5351 181.905 94.5976C181.849 94.5844 181.794 94.5705 181.737 94.5557C181.02 94.3677 180.453 94.1087 179.904 93.84L179.308 93.5465C178.617 93.2076 177.92 92.881 177.181 92.6399C175.605 92.1254 173.983 91.7631 172.337 91.5696C171.98 91.5277 171.636 91.4072 171.365 91.2006C171.107 91.0046 170.911 90.7332 170.821 90.3724C170.705 89.9056 170.738 89.5521 170.989 89.1309C171.177 88.8146 171.447 88.5953 171.756 88.4694C172.071 88.3411 172.43 88.3108 172.787 88.3823Z" fill="black"/>
</svg>
