<svg width="240" height="324" viewBox="0 0 240 324" fill="none" xmlns="http://www.w3.org/2000/svg">
<path fill-rule="evenodd" clip-rule="evenodd" d="M55.2055 285.479C57.7346 285.636 60.2636 285.759 62.7923 285.853C95.8622 287.086 128.905 283.315 161.955 282.49C173.464 282.186 184.914 282.338 196.394 283.262C197.519 283.353 198.805 282.142 198.667 280.989C196.546 262.674 193.892 244.408 192.517 226.019C192.516 225.046 192.642 224.075 192.976 223.159C193.039 223.087 193.365 222.281 193.656 222.231C193.561 222.301 193.991 222.178 193.717 222.199C195.377 221.927 197.005 220.135 195.8 218.42C183.392 199.395 166.454 182.03 161.005 159.433C159.717 153.324 155.067 152.946 150.112 150.426C148.567 149.506 144.787 146.959 144.172 145.188C142.702 138.804 145.29 132.55 137.73 129.968C132.74 128.583 123.919 127.412 118.869 128.872C112.71 130.923 113.171 137.867 109.598 142.644C107.75 145.407 104.6 149.19 101.691 149.613C100.282 149.819 99.2434 146.966 97.8357 147.162C75.8947 152.493 46.0016 188.859 36.5715 208.99C34.4464 215.326 41.3 213.415 40.879 219.783C40.3599 231.864 39.2246 247.329 39.8979 259.425C40.5285 266.445 40.0619 273.801 42.2432 280.557C41.6561 281.27 42.4997 281.99 43.188 282.3C44.0552 283.776 52.5888 285.275 55.2055 285.479Z" fill="white"/>
<path fill-rule="evenodd" clip-rule="evenodd" d="M112.327 135.035C112.898 132.467 116.982 133.569 116.282 136.126C115.198 140.08 112.951 143.817 109.777 146.44C107.327 148.465 103.987 150.271 100.674 150.605C100.984 150.908 101.282 151.231 101.595 151.539C102.301 152.241 103.051 152.892 103.824 153.518C105.413 154.803 107.065 155.959 108.869 156.927C116.075 160.795 124.216 161.687 132.265 160.786C136.084 160.359 139.961 159.634 143.553 158.237C145.218 157.591 146.836 156.741 148.264 155.667L148.638 155.387C149.389 154.819 150.391 154.019 150.86 153.144C149.432 153.465 147.626 151.943 146.635 151.058C145.551 150.086 144.639 148.832 143.965 147.547C142.644 145.026 141.945 141.773 143.052 139.07C143.126 138.89 143.362 138.92 143.384 139.114C143.711 142.266 144.56 145.22 146.821 147.554C147.825 148.587 149.027 149.454 150.339 150.056L150.523 150.141C151.082 150.399 151.671 150.703 151.906 151.256C151.997 151.246 152.088 151.254 152.174 151.278C152.253 151.299 152.324 151.322 152.394 151.347C152.238 151.041 152.156 150.679 152.17 150.252C152.225 148.597 154.497 148.547 154.811 150.02C154.754 149.826 154.678 150.014 154.822 150.073C154.819 150.056 154.815 150.037 154.811 150.02L154.815 150.036L154.824 150.073L154.822 150.073C154.827 150.1 154.832 150.127 154.835 150.155L154.838 150.192L154.836 150.161C154.834 150.138 154.832 150.118 154.829 150.099L154.824 150.073C154.845 150.083 154.874 150.09 154.908 150.09L154.922 150.095C154.975 150.118 155.162 150.205 155.217 150.227C155.595 150.367 156.017 150.411 156.404 150.531C157.243 150.789 157.982 151.216 158.494 151.943C158.861 152.465 159.066 153.063 159.151 153.685C162.863 155.471 166.376 157.791 169.319 160.664C175.887 167.072 180.467 175.092 184.226 183.394C186.139 187.621 187.844 191.937 189.511 196.265L189.774 196.948C191.561 201.6 193.142 206.302 193.53 211.303C193.566 211.751 193.418 212.172 193.163 212.521C193.253 212.897 193.3 213.273 193.287 213.641C193.285 213.698 193.281 213.755 193.277 213.812C193.877 213.801 194.464 214.053 195.022 214.759C195.248 214.687 195.493 214.678 195.734 214.756C197.202 215.226 197.439 216.838 197.715 218.189C198.001 219.584 198.125 221.013 198.127 222.435C198.127 222.944 197.836 223.587 197.341 223.805C196.412 224.214 195.411 224.483 194.449 224.855C193.727 225.134 193.002 225.398 192.271 225.645C192.677 226.353 192.808 227.338 193.027 228.084C193.372 229.249 193.648 230.418 193.881 231.61C195.457 239.715 196.549 247.907 198.024 256.029C198.761 260.098 199.619 264.139 200.493 268.18C200.924 270.166 201.383 272.149 201.875 274.123C202.137 275.175 202.41 276.228 202.691 277.274C202.772 277.58 202.855 277.884 202.939 278.189L203.086 278.722C203.407 278.899 203.682 279.168 203.872 279.535C204.567 280.88 204.167 282.395 202.834 283.152C201.385 283.976 199.655 283.198 198.856 281.86C198.294 280.916 198.11 279.664 197.834 278.614C197.521 277.435 197.223 276.249 196.936 275.063C194.984 267.008 193.677 258.812 192.691 250.585L192.622 249.997C192.121 245.762 191.637 241.516 191.324 237.261C191.17 235.171 191.048 233.081 190.972 230.986C190.934 229.908 190.995 228.824 191.056 227.748C191.084 227.277 191.124 226.803 191.139 226.332L191.143 226.265C191.147 226.217 191.153 226.155 191.157 226.089L191.162 226.009C189.704 226.465 188.225 226.846 186.732 227.167C183.554 227.854 180.303 228.237 177.06 228.042C177.512 233.415 178.101 238.774 178.925 244.098C179.72 249.226 180.636 254.342 181.672 259.428C182.189 261.983 182.749 264.532 183.339 267.072C183.655 268.429 184.017 269.777 184.302 271.141C184.471 271.952 184.524 272.63 184.184 273.389C184.558 274.41 184.891 275.435 185.218 276.401L185.316 276.689C185.895 278.379 186.993 280.108 185.846 281.769C185.253 282.627 184.285 283.118 183.311 283.147C183.294 283.158 183.275 283.171 183.256 283.181C182.732 283.462 182.128 283.517 181.553 283.397C180.681 283.568 179.806 283.733 178.929 283.883C176.764 284.257 174.588 284.565 172.408 284.826C168.256 285.32 164.077 285.591 159.901 285.741C144.609 286.292 129.301 285.324 114.003 285.603C106.209 285.745 98.4153 286.096 90.6343 286.561C86.7512 286.793 82.866 287.043 78.9808 287.235L77.7782 287.294C74.3037 287.46 70.8267 287.588 67.3547 287.334C67.2871 287.33 67.2343 287.302 67.1984 287.265C66.0005 287.129 64.7965 286.026 64.9167 284.752C65.4343 279.324 65.9519 273.897 66.4716 268.467C67.3949 258.794 68.3266 249.12 69.2688 239.448L69.405 238.052C69.7216 234.793 70.0238 231.527 70.1773 228.255C69.404 228.201 68.6331 228.131 67.8618 228.046C59.505 227.131 51.4937 224.602 43.8016 221.281L43.4899 221.146C42.797 220.843 42.0385 220.541 41.2611 220.218C41.2739 221.695 41.2251 223.175 41.2188 224.637C41.2082 227.066 41.2272 229.494 41.2336 231.92C41.2484 236.921 41.4385 241.923 41.6878 246.916C42.1251 255.733 42.6385 264.538 43.416 273.334C43.6125 275.547 43.8789 277.756 44.0667 279.969C44.1789 281.273 43.9103 282.359 42.7169 283.044C42.1294 283.382 41.6751 283.24 41.092 282.968C39.6681 282.3 39.628 280.721 39.4927 279.347C39.3894 278.312 39.2941 277.276 39.2012 276.238C39.0028 274.026 38.8315 271.813 38.692 269.595C38.1408 260.786 37.9801 251.986 38.3603 243.166C38.5369 239.041 38.7918 234.907 39.1301 230.789L39.2096 229.839C39.4885 226.548 39.6681 223.094 40.2449 219.783C37.9188 218.751 35.6139 217.439 34.5449 215.257C33.1591 212.425 34.6822 210.003 36.8519 208.336C36.8308 208.055 36.8519 207.776 36.9111 207.522C37.5343 204.823 38.578 202.156 39.5857 199.582C40.6019 196.995 41.7237 194.448 42.9575 191.956C47.9096 181.974 54.6744 172.852 62.7385 165.167C66.7442 161.351 71.128 157.823 75.8075 154.864C78.1273 153.4 80.5061 152.047 82.9695 150.842L83.3337 150.665C85.0486 149.832 86.9719 148.947 88.8789 148.484C89.0773 148.336 89.278 148.196 89.4808 148.063C90.2308 147.564 91.2491 147.925 91.6928 148.638C91.9085 148.471 92.1576 148.323 92.4428 148.19L92.7247 148.061C94.4357 147.29 96.4903 146.569 98.3477 147.076C99.5012 147.391 100.41 148.24 100.818 149.323C101.753 148.828 102.672 148.319 103.57 147.695C105.013 146.698 106.321 145.459 107.496 144.159C109.851 141.545 111.562 138.482 112.327 135.035ZM194.065 217.462C193.904 217.508 193.735 217.525 193.56 217.504C193.876 217.541 193.242 217.729 193.068 217.818L193.055 217.825C192.738 218.007 192.419 218.182 192.096 218.352C191.341 218.749 190.57 219.106 189.786 219.442C188.242 220.1 186.647 220.605 185.01 220.975C183.408 221.336 181.729 221.547 180.087 221.581C178.989 221.602 177.685 221.552 176.548 221.228C176.68 223.221 176.825 225.212 176.988 227.201L179.233 226.686C181.477 226.171 183.72 225.643 185.935 225.001C187.598 224.519 189.237 223.955 190.858 223.346C191.707 223.027 192.55 222.689 193.382 222.325C193.796 222.144 194.185 221.929 194.569 221.711L194.897 221.524C194.821 220.634 194.681 219.761 194.479 218.882C194.373 218.417 194.193 217.94 194.065 217.462ZM40.3504 208.076C40.0652 209.002 39.6279 209.866 38.6307 210.075C38.2779 210.149 37.9824 210.109 37.7371 209.989L37.6783 210.107C36.8584 211.791 36.6176 213.568 38.504 214.864C39.3556 215.45 40.2828 215.957 41.242 216.411C42.9572 217.228 44.7839 217.884 46.5061 218.552L46.849 218.686C49.9293 219.895 53.0582 220.996 56.2357 221.917C59.4598 222.849 62.7406 223.597 66.0619 224.073C67.4624 224.272 68.8737 224.411 70.2873 224.502C70.3103 222.6 70.2997 220.696 70.2934 218.793C69.7906 218.73 69.292 218.662 68.8105 218.605C67.3441 218.434 65.8821 218.225 64.4286 217.965C61.3927 217.422 58.3885 216.671 55.4582 215.712C50.0286 213.93 44.9772 211.383 40.3504 208.076ZM99.8795 149.811C98.6457 148.505 96.2859 148.976 94.7966 149.61C94.3464 149.802 93.8922 149.997 93.4612 150.231L93.3777 150.278C92.8758 150.567 92.8783 150.739 93.1234 151.315C93.4422 152.074 93.8859 152.807 94.3084 153.511C96.1171 156.532 98.4978 159.161 101.217 161.382C110.846 169.244 124.68 172.017 136.722 169.384C142.502 168.121 148.077 165.573 152.331 161.393L152.719 161.008C154.434 159.29 156.789 156.805 156.624 154.26C156.546 153.036 155.546 152.966 154.526 152.729C154.108 152.632 153.708 152.495 153.362 152.3C153.641 153.503 152.156 155.291 151.389 156.041C149.781 157.616 147.846 158.846 145.799 159.765C141.903 161.517 137.665 162.346 133.446 162.87C128.658 163.466 123.768 163.413 119.016 162.532C114.882 161.765 110.806 160.313 107.249 158.051C105.618 157.015 104.01 155.834 102.649 154.458L102.36 154.166C101.378 153.17 100.235 151.967 99.6471 150.66C99.4232 150.662 99.2014 150.656 98.9795 150.641C98.8232 150.633 98.7389 150.411 98.895 150.328C99.0704 150.235 99.2457 150.143 99.4211 150.052C99.3917 149.954 99.3661 149.859 99.345 149.762C99.3281 149.68 99.4147 149.604 99.4908 149.65C99.5964 149.713 99.6978 149.781 99.7971 149.853C99.8246 149.84 99.8521 149.826 99.8795 149.811Z" fill="black"/>
<path fill-rule="evenodd" clip-rule="evenodd" d="M162.571 89.5609C162.069 83.0632 162.847 76.2526 160.342 70.0765C155.976 59.8292 143.732 56.4125 134.239 52.5112C130.436 51.3871 117.64 51.23 113.187 49.7422C103.11 46.375 100.702 42.363 92.6947 48.7743C91.343 49.8695 90.4973 51.0599 89.8804 52.6862L89.9057 52.6932C89.7295 53.3712 89.9184 54.0477 90.3154 54.5645C86.8434 58.1147 85.3905 63.4374 87.1719 68.1634C92.9854 80.4616 92.712 87.1114 90.8389 100.333C88.3928 112.675 93.9823 117.184 103.239 123.9C102.862 124.631 102.784 125.603 103.276 126.248C113.98 141.296 134.163 148.48 151.456 140.843C158.475 137.717 161.609 130.239 163.397 123.491C165.481 115.936 166.121 107.974 164.425 100.277C163.741 96.7179 162.849 93.1841 162.571 89.5609Z" fill="white"/>
<path fill-rule="evenodd" clip-rule="evenodd" d="M100.826 17.5709C102.125 17.3757 103.107 18.1822 103.573 19.3189L103.598 19.3801C103.748 19.7669 103.915 20.1431 104.094 20.5129C107.346 18.9172 111.985 19.3272 114.043 22.5588C115.511 24.8667 114.615 27.6058 114.062 30.0533L113.699 31.6659C114.401 32.113 114.931 32.9138 114.906 33.743L114.903 33.8069L114.755 36.0556C115.224 35.5801 115.653 35.0623 116.035 34.5107C116.299 34.0267 116.584 33.5511 116.891 33.0904C118.693 30.3788 122.739 32.7353 121.251 35.6393C120.966 36.1993 120.645 36.7298 120.301 37.2413C119.912 37.9958 119.593 38.7715 119.348 39.5683C120.051 39.8747 120.592 40.5553 120.649 41.5824C120.782 43.9813 119.523 45.9827 117.52 47.2403C116.931 47.6101 116.323 47.682 115.771 47.5446C115.674 47.6757 115.577 47.8067 115.484 47.9399C116.282 48.5887 117.003 49.3284 117.622 50.1485C119.485 49.8695 121.359 49.7384 123.233 49.7342C125.523 48.6119 128.265 48.6352 130.727 49.0558C132.311 49.3263 133.832 49.8526 135.392 50.2309C137.035 50.6282 138.704 50.643 140.367 50.9135C142.463 51.2538 144.301 52.2218 145.456 53.7668C146.726 53.8048 148.061 54.3247 149.168 55.0307C151.746 56.675 154.308 58.3425 156.88 59.9974C157.866 60.6327 158.235 61.647 158.054 62.7782L158.042 62.8506L157.955 63.3198L158.158 63.6086C158.945 64.7202 159.801 65.8845 160.311 67.1114C161.253 68.4704 162.104 69.8949 162.858 71.3638C163.875 73.3378 164.713 75.4302 165.282 77.5775C165.423 78.1207 165.565 78.6681 165.658 79.2218C165.791 80.0038 165.586 80.6104 165.474 81.3607C165.334 82.3118 165.284 83.2755 165.136 84.2287C165.037 84.8606 164.5 85.1713 163.938 85.1882C164.149 86.7966 164.301 88.4155 164.447 90.0218C164.652 92.3171 164.792 94.6187 164.912 96.9203C165.533 97.8227 166.803 98.5371 167.72 98.7844C168.989 99.1247 170.32 98.7548 171.52 98.3215C172.275 98.0489 172.894 98.9978 172.526 99.6319C171.37 101.623 168.899 101.614 167.027 100.733C166.234 100.361 165.539 99.8221 165.024 99.1204C165.056 99.7883 165.089 100.456 165.123 101.126L165.155 101.733C165.535 108.82 166.357 116.151 165.026 123.168C162.721 135.323 152.666 144.578 140.384 145.296C133.938 145.673 128.571 143.769 125.902 142.707C123.233 141.644 124.27 139.478 126.123 140.097C129.315 141.164 135.179 142.753 140.426 142.067C152.794 140.449 163.281 134.266 162.203 107.632C162.051 103.855 161.58 100.076 161.479 96.2989C161.382 92.6066 161.418 88.9122 161.255 85.222L161.201 83.963C161.137 82.4918 161.069 81.0138 160.959 79.5409C160.826 78.9703 160.716 78.3912 160.553 77.8311C160.112 76.3073 159.535 74.8257 158.819 73.4118C158.661 73.5323 158.483 73.6189 158.291 73.6527C156.831 73.9148 155.462 73.8408 154.095 73.2321C153.457 72.951 152.895 72.577 152.371 72.1141C152.122 71.8964 151.955 71.6851 151.824 71.4653C151.163 71.4758 150.501 71.2771 150.087 70.8016C149.615 70.2596 149.536 69.6998 149.721 69.1815L149.741 69.1298L149.694 69.1129C149.137 70.5564 148.025 71.8267 146.806 72.6847C144.88 74.0458 142.469 74.4389 140.158 74.4749C137.606 74.5129 134.914 74.1198 132.396 73.7182C131.73 73.6126 131.069 73.4921 130.42 73.3294C130.395 73.3547 130.37 73.3843 130.342 73.4097C128.181 75.4788 125.141 76.0114 122.399 74.83C120.814 74.1473 119.485 73.0483 118.311 71.7886C118.294 72.448 118.26 73.1074 118.203 73.7605L118.179 74.0199C118.062 75.2362 117.837 76.5264 116.918 77.4042C115.433 78.8266 113.278 78.2559 111.565 77.3302C111.567 77.3746 111.567 77.4211 111.567 77.4676C112.03 79.04 112.494 80.6146 112.959 82.1892L113.059 82.5246C113.397 83.6426 113.768 84.7621 113.87 85.9322C114.064 88.1683 112.577 90.3769 110.092 89.6266C108.789 89.2344 107.745 88.1383 106.743 87.2603L106.112 86.7142C107.745 92.055 108.877 97.586 108.983 103.159C108.989 103.462 108.73 103.69 108.442 103.7C107.77 103.728 107.048 103.595 106.372 103.326C106.334 103.324 106.296 103.322 106.256 103.316C105.102 103.149 104.031 102.732 103.087 102.117C103.304 102.809 103.401 103.55 103.344 104.326C103.33 104.514 103.036 104.58 102.994 104.372C102.449 101.69 99.3112 99.6636 96.607 100.177C93.7042 100.729 91.5662 103.227 91.0422 106.07C90.4803 109.124 91.5556 112.655 93.5479 115.012C94.4648 116.098 95.6711 117.005 97.1035 117.233C97.7584 117.337 98.4387 117.301 99.0746 117.115C99.3451 117.034 99.5986 116.922 99.8563 116.817C100.232 116.665 100.672 116.641 101.027 116.481C101.832 116.119 102.641 116.861 102.233 117.688C101.878 118.408 101.559 118.894 100.97 119.266C101.447 119.85 101.88 120.661 102.041 120.879C102.861 121.986 103.693 123.033 104.627 124.045C105.577 125.072 106.615 126.011 107.711 126.879L108.172 127.243C109.228 128.081 110.148 128.858 110.893 130.06C111.48 131.009 110.72 132.296 109.619 132.281C106.175 132.233 103.672 129.206 101.889 126.562C101.635 126.184 101.396 125.784 101.175 125.374C101.094 125.503 101.006 125.624 100.906 125.734L101.103 126.262C101.686 127.818 99.1739 128.834 98.4451 127.382C97.9148 126.33 97.3 125.328 96.6155 124.381C96.212 124.324 95.8169 124.079 95.5972 123.762C95.0415 122.957 94.4183 122.143 93.8922 121.285C93.6007 121.008 93.3007 120.742 92.9943 120.482C92.9056 120.56 92.8148 120.638 92.7281 120.72C92.3436 121.598 91.8683 122.399 91.2789 123.153L91.1525 123.314C90.0233 124.738 88.5524 126.195 86.7324 126.543C86.1767 126.649 85.6422 125.958 86.1345 125.516C87.4084 124.37 88.9148 123.591 90.0894 122.312C90.6681 121.682 91.1995 120.988 91.6564 120.261L91.7605 120.093C91.8366 119.968 91.9148 119.843 91.9951 119.717C91.4648 119.355 90.9345 118.992 90.4042 118.628C88.9444 119.876 87.0434 120.446 85.4288 121.48L85.2683 121.585C83.8084 122.561 82.2704 120.401 83.4408 119.216C84.731 117.913 85.8081 116.361 86.951 114.913C86.4136 113.923 86.1592 112.752 86.0639 111.568C86.0263 111.233 85.997 110.898 85.9676 110.563C85.1479 110.576 84.3239 110.295 83.6267 109.811L83.3627 109.622C82.5155 109.893 81.626 110.024 80.7746 110.001C78.7718 109.942 77.9521 107.653 79.2049 106.205C80.4831 104.725 82.7204 104.402 84.4929 105.121C84.55 105.091 84.6091 105.059 84.6662 105.028C84.5817 104.639 84.6005 104.286 84.6966 103.976L84.6687 103.787C84.2789 103.189 84.0227 102.506 83.9255 101.784C83.8486 101.212 83.8642 100.646 83.9965 100.081C84.0404 99.8933 84.1319 99.6987 84.2018 99.5028C84.0577 99.1388 83.973 98.7626 83.9468 98.3843C83.9065 98.3363 83.8663 98.2871 83.8283 98.2338C82.9488 96.9985 83.1265 95.5099 83.9635 94.5103C83.9673 94.4466 83.9732 94.383 83.9819 94.3198C83.9329 94.2095 83.8879 94.0981 83.8469 93.9855C83.0291 93.1601 82.4286 92.167 82.5406 90.9363C82.6063 90.2122 82.9038 89.5604 83.354 89.0733C83.2741 88.837 83.2665 88.5633 83.3633 88.3348C82.6448 86.4229 82.7356 84.1203 83.2528 81.982C83.1387 81.6566 83.0796 81.3036 83.0922 80.9295C83.1514 79.3423 84.5246 77.884 86.1514 77.903C86.3472 77.9047 86.5306 77.9302 86.7068 77.9677L86.7091 77.9298C86.7715 77.4534 86.9024 77.0132 87.0936 76.6182C86.9996 76.5842 86.9126 76.5353 86.8363 76.4705C85.7939 77.0267 84.6909 77.452 83.5344 77.7417C82.6841 77.9548 81.813 76.9878 82.3416 76.1894C82.5869 75.8189 82.8575 75.4862 83.1491 75.1823C82.7346 75.1846 82.3137 75.2127 81.888 75.2674C81.1232 75.3668 80.2697 74.8447 79.7732 74.1388C79.1563 74.7391 78.5373 75.3372 77.9183 75.9353C76.3507 77.4549 73.9824 76.3369 73.7352 74.3333C73.2683 74.2086 72.8331 73.9972 72.4507 73.695C69.9789 74.7687 67.319 75.3583 64.6 75.4703C62.6479 75.5507 61.507 73.2765 62.4197 71.6703C63.0324 70.5924 63.7929 69.6244 64.6697 68.7832C63.3091 69.1996 61.9042 69.4997 60.4697 69.692C59.6943 69.7956 58.5979 69.1531 58.2873 68.4408C57.1 65.7017 57.2014 62.8464 58.5683 60.1813C58.6211 60.0756 58.6803 59.9741 58.7373 59.8727C58.8789 59.5197 59.0331 59.171 59.2 58.8286C57.5183 57.0744 57.3725 54.4664 58.2789 52.2831C57.9155 51.6934 57.776 50.9833 58.0232 50.3408C58.7267 48.4915 59.7408 46.7838 61.0211 45.317C60.8986 45.0803 60.7908 44.8288 60.7 44.5582C59.9796 42.3708 60.8141 39.731 62.4979 38.2072C63.5563 37.2476 64.7732 36.6728 66.0725 36.305C66.6197 35.337 67.3232 34.4642 68.1429 33.7287C68.1746 33.6589 68.2063 33.5892 68.2422 33.5194C69.5183 31.1143 71.8422 29.825 74.3331 29.527C74.4303 28.5865 75.0641 27.6883 75.9852 27.3966C76.2387 26.5829 76.6169 25.8051 77.1366 25.0992C77.9542 23.9875 79.3127 23.4634 80.5929 24.1925C81.2943 24.592 81.9662 25.0506 82.5958 25.5579C82.8785 25.4252 83.1991 25.3394 83.5608 25.312L83.6521 25.3063L85.7352 25.2007C86.6077 24.8139 87.4782 24.4081 88.3507 24.0129C88.8746 23.5796 89.4598 23.2182 90.0979 22.9498C90.8204 22.6476 91.5598 22.4764 92.3014 22.4193C92.9035 22.2227 93.5098 22.0494 94.1267 21.9142C95.576 21.5972 97.0929 21.4196 98.5972 21.4344C98.6279 21.0449 98.6432 20.6508 98.6403 20.252L98.6373 20.0522C98.6035 18.7735 99.6239 17.7527 100.826 17.5709ZM99.3663 119.875C99.1592 119.919 98.9501 119.955 98.7409 119.981C98.8043 120.137 98.8677 120.293 98.9289 120.45C99.098 120.545 99.2691 120.636 99.4402 120.72C99.3895 120.433 99.3599 120.143 99.3663 119.875ZM88.5115 116.648L88.3711 116.907C88.3483 116.949 88.3259 116.991 88.3038 117.032C88.6017 117.009 88.9017 117.015 89.1975 117.049L89.1967 117.018C89.1586 117.005 89.1206 116.993 89.0843 116.975C88.8802 116.877 88.6905 116.767 88.5115 116.648ZM94.3783 104.844C96.2474 104.953 97.831 105.239 99.5309 106.057L99.6769 106.129C101.179 106.875 103.664 108.253 103.454 110.229C103.395 110.791 102.987 111.383 102.345 111.339C100.585 111.218 99.5797 109.443 98.3882 108.335C97.1861 107.219 95.7093 106.072 94.2537 105.305C94.0479 105.197 94.129 104.855 94.3529 104.844L94.3783 104.844ZM85.9019 78.8076C85.454 78.8224 85.604 79.2578 85.8342 78.8942C85.8533 78.8646 85.8765 78.835 85.9019 78.8076ZM110.078 49.7422C105.837 49.8538 101.567 52.3594 98.3898 54.892C95.6254 57.0953 93.2382 59.7161 91.1245 62.5408C90.5807 63.9475 90.1138 65.3836 89.7194 66.8303C89.4595 67.7856 89.2968 68.7515 89.0792 69.7153L89.0116 70.0107C88.8407 70.3303 88.7137 70.6742 88.6212 71.0294C89.0063 71.4158 89.506 71.6924 90.0561 71.8237C90.2334 71.866 90.3806 71.9575 90.497 72.0788C90.9399 71.3395 91.3269 70.5592 91.5521 69.732L91.5604 69.6937C92.4116 68.299 93.3361 66.9476 94.3271 65.6425C97.0609 62.039 100.071 58.7546 103.69 56.0219C106.435 53.9506 109.502 52.3275 112.764 51.2728C111.966 50.6284 111.059 50.1186 110.078 49.7422Z" fill="black"/>
<path fill-rule="evenodd" clip-rule="evenodd" d="M143.152 128.274C141.732 127.695 140.465 126.728 139.538 125.493C139.216 125.063 139.133 124.61 139.2 124.195C139.276 123.729 139.552 123.306 139.928 123.023C140.305 122.739 140.777 122.598 141.233 122.67C141.63 122.732 142.024 122.949 142.337 123.399L142.402 123.489C142.953 124.235 143.67 124.846 144.488 125.241C145.276 125.621 146.158 125.798 147.07 125.695C148.807 125.499 150.005 124.559 151.278 123.282C151.436 123.121 151.593 122.955 151.752 122.786C151.852 122.633 151.991 122.534 152.146 122.483C152.317 122.425 152.511 122.429 152.689 122.491C152.86 122.55 153.013 122.664 153.116 122.815C153.213 122.958 153.269 123.135 153.251 123.339C153.134 124.661 152.443 125.842 151.461 126.769C150.37 127.799 148.924 128.511 147.563 128.761C146.064 129.036 144.536 128.839 143.152 128.274ZM148.271 107.866C149.866 108.836 152.297 111.098 150.581 113.503C148.56 115.624 145.652 113.193 144.218 112.093C142.889 111.241 141.396 113.433 142.629 114.428C152.986 122.099 157.19 108.12 149.077 106.726C148.184 106.572 147.853 107.566 148.271 107.866ZM129.711 98.9429C129.887 96.7541 133.219 96.257 133.551 98.423C133.847 100.363 133.498 102.145 132.624 103.892C131.79 105.561 129.692 104.783 129.533 103.263C129.32 101.226 129.601 100.304 129.711 98.9429ZM155.076 97.9738C155.541 97.3652 156.211 96.9496 157.015 97.1845C159.526 97.9185 158.786 101.485 157.904 103.22C157.425 104.163 155.876 104.402 155.176 103.572C154.035 102.219 153.489 99.5156 154.939 98.1825C154.979 98.1136 155.022 98.044 155.076 97.9738ZM132.589 89.3654L132.986 89.2959C134.213 89.0836 135.738 88.8796 136.606 89.8665C137.067 90.3898 137.225 91.3624 136.606 91.8633C135.518 92.7446 134.314 92.4031 133.01 92.4777C131.935 92.5394 130.902 92.7174 129.867 93.0135C127.595 93.663 125.744 94.8486 123.804 96.1506C123.549 96.3213 123.29 95.9956 123.411 95.7574C124.531 93.563 126.701 91.7604 128.875 90.6616C130.036 90.0751 131.305 89.5885 132.589 89.3654ZM152.787 88.3823L153.091 88.4445C156.394 89.1353 160.687 90.5153 162.251 93.7615C162.311 94.2205 162.248 94.3189 162.196 94.3832L162.179 94.4046C162.137 94.4595 162.104 94.5351 161.905 94.5976C161.849 94.5844 161.794 94.5705 161.737 94.5557C161.02 94.3677 160.453 94.1087 159.904 93.84L159.308 93.5465C158.617 93.2076 157.92 92.881 157.181 92.6399C155.605 92.1254 153.983 91.7631 152.337 91.5696C151.98 91.5277 151.636 91.4072 151.365 91.2006C151.107 91.0046 150.911 90.7332 150.821 90.3724C150.705 89.9056 150.738 89.5521 150.989 89.1309C151.177 88.8146 151.446 88.5953 151.756 88.4694C152.071 88.3411 152.43 88.3108 152.787 88.3823Z" fill="black"/>
<path fill-rule="evenodd" clip-rule="evenodd" d="M172.803 91.775C172.629 91.7461 172.455 91.7188 172.281 91.6932C172.145 91.6161 171.986 91.5567 171.8 91.521C171.377 91.4134 170.956 91.3409 170.536 91.3018C164.508 89.9447 150.563 91.8716 149.988 97.0176C148.068 97.6586 146.407 97.0846 144.182 97.1416C142.489 90.0603 113.21 91.0598 111.802 95.3291C111.797 95.3276 111.792 95.3263 111.786 95.3246C110.433 94.9057 108.439 95.0068 106.89 94.9404C103.584 94.8711 100.273 95.1659 97.0382 95.8636C90.9801 96.8267 82.7121 97.9543 86.9254 105.522C86.9263 105.524 86.9269 105.525 86.9279 105.526L86.9286 105.526C87.6547 106.27 88.887 105.671 88.9329 104.663C87.5163 101.077 90.7158 100.647 93.1775 99.6165C99.3027 97.4151 105.539 97.1099 111.874 97.7909C112.351 98.3522 113.074 98.8417 113.838 99.0979C118.074 99.8013 115.842 102.944 118.519 103.402C118.027 114.358 131.325 120.339 139.029 113.137C142.106 110.128 142.839 105.671 143.552 101.653C143.929 101.568 144.169 101.362 144.309 101.089C145.216 100.183 145.786 99.3466 147.579 99.0979C149.373 98.8493 150.753 99.3483 150.94 99.5011C150.987 99.596 151.038 99.6911 151.096 99.7862C151.178 99.9281 151.29 100.041 151.417 100.13C149.646 111.041 158.113 117.941 166.66 112.282C170.374 108.787 171.159 103.436 171.314 98.66C171.818 98.356 172.137 97.767 171.962 97.0264C171.722 96.0056 172.285 95.1217 173.182 94.6779C174.348 94.1016 174.142 91.9967 172.803 91.775ZM136.075 96.9512C135.014 96.7177 134.561 98.3542 135.625 98.5883C136.379 98.754 137.018 99.1343 137.449 99.7784L137.495 99.8484C138.074 100.77 139.538 99.9193 138.955 98.9915C138.299 97.9473 137.279 97.216 136.075 96.9512ZM167.149 95.9365C166.775 95.673 166.209 95.8686 165.992 96.2411C165.753 96.6512 165.91 97.1079 166.26 97.3762L166.296 97.4024C166.617 97.6289 166.93 98.035 166.969 98.4511L166.973 98.5032C167.015 99.5921 168.707 99.5976 168.664 98.5032C168.623 97.4325 168.003 96.538 167.149 95.9365Z" fill="black"/>
</svg>
