<svg width="240" height="324" viewBox="0 0 240 324" fill="none" xmlns="http://www.w3.org/2000/svg">
<path fill-rule="evenodd" clip-rule="evenodd" d="M47.4645 286.051C75.0656 290.245 103.167 290.456 130.998 288.933C142.012 288.108 153.06 287.96 164.065 289.014C170.568 289.498 199.081 291.678 201.411 285.852C199.944 254.825 196.975 223.533 187.865 193.693C184.119 183.097 180.901 174.303 173.589 165.535C171.284 163.141 166.315 158.12 163.467 156.482C161 155.064 159.969 155.57 158.552 153.174C157.144 150.527 156.106 146.107 154.107 144.24C152.072 142.338 149.056 143.018 145.317 143.631C146.004 134.346 141.72 131.981 135.818 130.216C125.444 126.255 115.198 128.245 112.587 140.879C107.746 140.879 105.026 142.963 102.086 144.966C100.884 145.784 101.72 147.87 100.285 148.513C97.6289 149.459 92.9354 149.228 90.3781 150.392C78.7492 155.686 68.3917 163.364 61.5897 174.576C46.3403 198.515 35.8652 248.942 37.6779 277.315C36.8837 278.561 37.9819 280.348 38.2611 281.687C38.6135 282.853 39.7545 283.628 40.9454 283.495C42.6072 285.283 45.1775 285.681 47.4645 286.051Z" fill="white"/>
<path fill-rule="evenodd" clip-rule="evenodd" d="M161.709 155.78C161.54 155.686 161.689 155.444 161.859 155.524C170.045 159.365 176.324 166.105 180.743 173.892C185.318 181.955 187.926 191.11 190.174 200.058L190.255 200.382C192.652 209.954 194.691 219.625 196.526 229.319C198.384 239.137 199.876 249.015 201.076 258.934C201.67 263.838 202.199 268.751 202.612 273.674C202.818 276.135 203.005 278.597 203.174 281.06C203.241 282.045 203.304 283.03 203.359 284.016L203.398 284.755C203.431 285.426 203.511 286.099 203.345 286.76C203.202 287.331 202.9 287.847 202.635 288.371C202.109 289.406 200.67 289.236 200.104 288.371L199.939 288.119C199.564 287.539 199.252 287 199.134 286.277C199.02 285.578 199.016 284.845 198.965 284.139C198.871 282.839 198.791 281.539 198.7 280.239C198.508 277.502 198.293 274.767 198.055 272.034C197.583 266.639 197.078 261.249 196.457 255.869C195.354 246.308 193.969 236.772 192.337 227.286C190.742 218.02 188.727 208.848 186.624 199.688L186.406 198.74C182.723 182.746 177.048 164.327 161.709 155.78ZM74.5219 218.408C74.5821 218.248 74.8411 218.211 74.8848 218.408C75.4362 220.892 75.4907 223.45 75.575 225.992C75.6581 228.501 75.6547 231.02 75.6181 233.53C75.4833 242.754 75.2302 251.97 75.0114 261.193C74.9019 265.806 74.7993 270.42 74.7205 275.033C74.6907 276.764 74.6656 278.494 74.6448 280.225L74.6193 282.507C74.6067 283.516 74.5802 284.513 74.4572 285.521C74.3761 286.184 74.2033 286.816 73.8374 287.385C73.5777 287.788 73.2076 287.993 72.8468 288.267L72.7793 288.319C72.3192 288.683 71.8345 288.686 71.3788 288.319L71.2465 288.215C70.8112 287.874 70.435 287.608 70.1571 287.069C69.7704 286.321 69.7085 285.507 69.6428 284.682C69.5431 283.431 69.6093 282.161 69.6221 280.906C69.6479 278.389 69.6828 275.873 69.7269 273.356C69.889 264.126 70.2093 254.894 70.793 245.681C71.068 241.341 71.4409 236.987 71.941 232.665L72.0363 231.855C72.188 230.583 72.3264 229.289 72.4823 227.99C70.1547 226.353 68.1088 224.365 66.3642 222.111C66.2357 221.945 66.4472 221.713 66.6023 221.873C68.385 223.72 70.429 225.192 72.6919 226.349C73.0626 223.631 73.5724 220.928 74.5219 218.408ZM113.406 136.132C113.438 136.108 113.488 136.097 113.518 136.132C114.019 136.716 113.917 137.608 113.933 138.347L113.935 138.416C113.971 139.497 113.978 140.575 113.974 141.657L113.963 145.1C113.961 145.573 113.923 146.066 113.947 146.542L113.96 146.727C114.223 146.996 114.345 147.385 114.256 147.776C114.24 148.277 113.978 148.695 113.596 148.958L114.415 150.121L115.235 151.283C116.925 153.68 118.633 156.057 120.414 158.389C122.229 160.766 124.166 163.054 126.193 165.254C127.183 166.329 128.19 167.389 129.221 168.425C129.64 168.846 130.069 169.257 130.493 169.672L130.916 170.089C131.165 170.339 131.479 170.586 131.645 170.902C131.742 171.089 131.764 171.549 131.799 171.625C132.112 172.312 131.578 173.409 130.692 173.066L130.732 173.039C130.894 172.927 130.79 172.925 130.422 173.034C130.189 173.033 129.972 172.98 129.768 172.874L129.707 172.841C129.421 172.695 129.165 172.413 128.932 172.187L128.874 172.132C128.341 171.633 127.834 171.103 127.323 170.582C126.258 169.493 125.217 168.381 124.208 167.239C122.197 164.961 120.29 162.591 118.485 160.147C116.645 157.658 114.936 155.041 113.466 152.317C112.908 151.283 112.396 150.229 111.906 149.163C110.951 148.857 110.73 147.841 110.796 146.697C110.444 145.877 110.127 145.039 109.939 144.184C109.914 144.066 110.064 143.956 110.154 144.058C110.46 144.405 110.742 144.775 111.014 145.154C111.178 144.352 111.386 143.614 111.483 143.143L111.906 141.066C109.522 140.941 106.909 141.921 105.265 143.637C105.177 144.084 104.833 144.404 104.498 144.821C104.115 145.299 103.781 145.835 103.532 146.395C102.979 147.637 103.291 149.467 102.219 150.378C102.107 150.473 101.982 150.539 101.854 150.58C102.362 153.075 102.131 155.825 102.12 158.357L102.12 158.58C102.123 161.413 102.028 164.249 101.918 167.08L101.807 169.882C101.663 173.62 101.569 177.358 101.932 181.075C103.59 179.607 105.303 178.205 107.076 176.87C108.242 175.992 109.431 175.145 110.641 174.33L111.625 173.672C112.804 172.882 114.011 172.068 115.302 171.502C116.99 170.761 118.595 171.016 120.225 171.775C121.848 172.532 123.422 173.41 125.014 174.23C126.633 175.064 128.256 175.89 129.877 176.719C130.951 177.268 132.525 177.764 133.313 178.774C133.363 178.551 133.422 178.328 133.49 178.106C133.412 177.767 133.442 177.401 133.632 177.052C136.279 172.186 138.729 167.204 141.161 162.228C142.392 159.71 143.562 157.162 144.796 154.645L145.995 152.194C146.195 151.785 146.396 151.377 146.598 150.97C146.9 150.36 147.215 149.756 147.521 149.147C147.651 148.89 147.813 148.635 147.939 148.375L147.998 148.245C148.001 148.239 148.292 147.325 148.067 147.412L148.048 147.421C147.933 147.486 147.842 147.342 147.916 147.25C148.233 146.857 148.675 147.205 148.856 147.568C149.355 148.568 148.441 150.138 148.089 151.095L148.07 151.149C146.979 154.238 145.743 157.27 144.477 160.291C142.05 166.084 139.443 171.787 136.841 177.501L136.81 177.599C137.365 177.174 137.957 176.788 138.465 176.412C139.744 175.463 141.061 174.562 142.376 173.663C144.788 172.015 147.264 170.476 149.782 168.997L150.286 168.702C151.544 167.969 152.79 167.375 154.283 167.595C155.669 167.799 156.959 168.544 158.212 169.15L158.341 169.212L162.213 171.053C161.799 169.402 161.351 167.759 160.883 166.122C159.971 162.929 158.968 159.763 157.88 156.626C156.864 153.694 155.765 150.794 154.603 147.918L154.253 147.054C153.78 145.87 153.309 144.578 151.955 144.214C150.601 143.849 149.049 144.39 147.812 143.618C147.7 143.548 147.714 143.363 147.85 143.328L148.613 143.136C150.046 142.779 151.726 142.421 153.081 142.768C154.556 143.145 155.775 144.383 156.491 145.67C157.286 147.102 157.847 148.704 158.45 150.23L158.546 150.471C159.239 152.198 159.905 153.936 160.543 155.685C161.818 159.181 162.978 162.719 164.029 166.288C164.535 168.009 165.015 169.738 165.477 171.47C165.609 171.969 165.828 172.573 166.008 173.203C166.213 173.404 166.408 173.628 166.591 173.884C166.894 174.308 166.677 174.805 166.3 175.058C166.285 175.492 166.189 175.9 165.958 176.25C165.06 177.615 162.683 177.263 162.78 175.428C162.794 175.147 162.904 174.879 163.069 174.652L163.065 174.615L163.046 174.548C162.633 174.35 162.219 174.13 161.782 173.914L157.719 171.906C156.542 171.324 155.238 170.425 153.929 170.203C152.709 169.997 151.422 170.906 150.374 171.455L150.306 171.49C147.772 172.789 145.256 174.132 142.751 175.485C141.528 176.146 140.321 176.834 139.102 177.503C138.084 178.062 136.984 178.865 135.839 179.181C135.35 179.561 134.769 179.51 134.302 179.222C134.516 180.544 134.502 181.901 134.568 183.253C134.656 185.06 134.669 186.872 134.699 188.681L134.71 189.359C134.787 193.359 134.828 197.36 134.844 201.361C134.898 215.608 134.74 229.859 134.704 244.106C134.685 251.264 134.543 258.428 134.357 265.583C134.278 268.615 134.114 271.643 133.936 274.671L133.838 276.322C133.631 279.806 133.508 283.329 132.863 286.766C132.779 287.214 132.021 287.225 131.947 286.766C131.353 283.083 131.32 279.319 131.206 275.593L131.182 274.848C131.045 270.847 130.98 266.849 130.994 262.846C131.044 248.593 131.415 234.35 131.718 220.101C131.87 212.943 131.973 205.781 132.209 198.624C132.327 195.043 132.461 191.465 132.62 187.885C132.691 186.287 132.759 184.69 132.866 183.095L132.913 182.411C132.946 181.965 132.973 181.524 133.005 181.087C131.564 181.614 130.246 180.639 128.949 179.972C127.454 179.202 125.96 178.432 124.465 177.664L122.969 176.898L119.974 175.37C118.626 174.681 117.587 173.996 116.149 174.804C110.968 177.711 106.207 181.58 101.893 185.64C101.066 186.419 99.3173 186.21 99.1077 184.905C98.2125 179.33 98.757 173.675 99.214 168.084L99.3825 166.008C99.5867 163.528 99.809 161.049 100.105 158.58C100.238 157.475 100.37 156.371 100.516 155.269L100.628 154.442C100.811 153.135 100.93 151.836 101.319 150.583C101.196 150.543 101.078 150.478 100.973 150.378C99.8026 149.268 100.367 147.341 100.901 146.02C101.428 144.716 102.232 143.578 103.238 142.599C103.458 142.385 103.767 142.247 104.078 142.24C106.519 140.622 109.197 139.815 111.983 140.698C112.062 140.324 112.142 139.95 112.226 139.577L112.311 139.204C112.528 138.279 112.608 136.751 113.406 136.132ZM138.421 282.222C139.179 282.013 140.008 282.233 140.563 282.788C141.118 283.343 141.338 284.173 141.129 284.93C141.024 285.303 140.836 285.627 140.563 285.902C140.308 286.156 140.011 286.336 139.671 286.445L139.592 286.468L139.468 286.52C139.088 286.622 138.708 286.622 138.329 286.52C137.966 286.418 137.651 286.234 137.383 285.969C137.118 285.701 136.934 285.386 136.832 285.023C136.73 284.643 136.73 284.263 136.832 283.884L136.884 283.76C136.989 283.387 137.177 283.063 137.45 282.788C137.725 282.515 138.049 282.326 138.421 282.222ZM183.394 206.719C183.518 206.576 183.72 206.759 183.643 206.911C182.463 209.225 181.148 211.522 179.856 213.777C179.959 214.402 180.062 215.022 180.18 215.626C180.684 218.202 181.3 220.731 181.702 223.331C183.147 232.676 183.898 242.124 184.541 251.553C185.187 261.017 185.269 270.484 185.366 279.966C185.375 280.788 184.743 281.743 183.896 281.898C183.509 281.969 183.219 281.955 182.832 281.898C181.95 281.768 181.399 280.758 181.361 279.966C181.109 274.667 180.769 269.374 180.375 264.083C179.677 254.702 179.25 245.297 178.687 235.907L178.488 232.625C178.275 229.069 178.08 225.51 178.016 221.949C177.974 219.589 178.1 217.23 178.023 214.874C177.951 212.698 177.731 210.332 178.21 208.194C178.228 208.114 178.354 208.094 178.391 208.17C178.89 209.22 179.205 210.362 179.449 211.527C180.734 209.901 182.042 208.272 183.394 206.719ZM99.2255 149.243C99.4059 149.23 99.3988 149.501 99.2255 149.521C96.7038 149.814 94.2678 150.84 91.8868 151.713L91.6828 151.787C89.2774 152.66 86.9321 153.676 84.6751 154.886C80.2623 157.252 76.2102 160.303 72.6276 163.796C58.3237 177.739 51.805 197.846 47.0285 216.741C44.3745 227.239 42.4873 237.914 41.264 248.672C40.6592 253.992 40.2316 259.332 39.9823 264.681C39.8547 267.422 39.7742 270.166 39.7406 272.91C39.7233 274.315 39.7182 275.721 39.7199 277.127C39.7207 277.771 39.8357 278.582 39.6635 279.207C39.5038 279.787 39.0533 280.297 38.7202 280.779C38.3253 281.352 37.6157 281.322 37.2153 280.779L37.0677 280.582C36.6407 280.015 36.2229 279.474 36.1619 278.733C36.0966 277.939 36.1427 277.121 36.1397 276.324C36.133 274.717 36.1528 273.11 36.185 271.504C36.2469 268.426 36.3681 265.349 36.5483 262.275C36.9142 256.037 37.5166 249.811 38.379 243.622C39.9119 232.622 42.2097 221.726 45.2194 211.035C48.0588 200.95 51.4226 190.894 56.2146 181.552C60.6639 172.878 66.5008 164.809 74.2028 158.747C77.7844 155.928 81.6833 153.579 85.8869 151.809C88.007 150.917 90.2333 150.188 92.4975 149.773C94.7365 149.363 96.9658 149.42 99.2255 149.243ZM138.856 264.395C139.255 264.392 139.701 264.48 140.045 264.701L140.503 265.056C140.627 265.215 140.751 265.376 140.874 265.536C141.161 265.91 141.199 266.514 141.139 266.96C141.125 267.257 141.037 267.534 140.874 267.79L140.525 268.242C140.189 268.516 139.91 268.711 139.503 268.843C139.291 268.911 139.087 268.926 138.883 268.915L138.815 268.911L138.856 268.916L138.784 268.908C138.718 268.903 138.651 268.896 138.584 268.886C138.539 268.881 138.493 268.877 138.448 268.871C138.404 268.867 138.362 268.866 138.318 268.87C137.802 268.918 137.282 268.625 136.916 268.289C136.586 267.986 136.289 267.343 136.335 266.887L136.355 266.696C136.39 266.375 136.418 266.248 136.554 265.925C136.687 265.611 136.872 265.334 137.123 265.1C137.605 264.652 138.194 264.4 138.856 264.395ZM137.257 240.875C137.942 240.128 139.119 240.073 139.969 240.525C140.176 240.635 140.367 240.812 140.549 240.96C141.009 241.332 141.19 242.003 141.215 242.568C141.24 243.127 140.945 243.791 140.549 244.177L140.453 244.27C140.216 244.501 139.877 244.701 139.546 244.762C139.011 244.86 138.563 244.857 138.065 244.647C137.637 244.467 137.269 244.177 137.018 243.783L136.978 243.716C136.961 243.689 136.944 243.661 136.929 243.632L136.907 243.589C136.431 242.673 136.559 241.636 137.257 240.875ZM137.612 217.232C137.921 217.135 138.23 217.121 138.539 217.19C138.749 217.191 138.945 217.244 139.126 217.349C139.323 217.404 139.494 217.504 139.639 217.648C139.813 217.751 139.953 217.89 140.056 218.065C140.261 218.29 140.4 218.553 140.472 218.856L140.555 219.474L140.472 220.093L140.238 220.648C140.173 220.732 140.108 220.816 140.043 220.9C139.939 221.075 139.8 221.215 139.625 221.319C139.511 221.432 139.38 221.517 139.234 221.575C138.717 221.946 138.027 222.068 137.414 221.898C137.05 221.797 136.733 221.612 136.465 221.346C136.199 221.077 136.014 220.761 135.913 220.397L135.871 220.106C135.816 219.716 135.808 219.5 135.918 219.004C135.967 218.786 136.107 218.478 136.181 218.348C136.495 217.796 137.009 217.417 137.612 217.232ZM164.45 200.222C165.337 200.216 166.225 200.217 167.112 200.227L167.778 200.236C168.892 200.253 169.847 200.139 170.723 200.912C171.359 201.473 171.079 202.415 170.475 202.838C169.561 203.478 168.413 203.156 167.362 203.086C166.253 203.011 165.144 202.95 164.034 202.9C161.885 202.804 159.734 202.742 157.583 202.733C155.436 202.724 153.287 202.744 151.14 202.779C148.956 202.814 146.682 203.018 144.51 202.792C144.212 202.761 144.145 202.368 144.439 202.266C146.486 201.558 148.788 201.328 150.933 201.057C153.145 200.778 155.357 200.58 157.583 200.452C159.87 200.32 162.16 200.238 164.45 200.222ZM137.608 193.265L137.681 193.267C138.072 193.268 138.438 193.36 138.778 193.543L138.851 193.583L139.32 193.945C139.607 194.235 139.806 194.576 139.916 194.969L139.999 195.585C140.011 195.904 139.944 196.202 139.799 196.478C139.706 196.765 139.546 197.014 139.32 197.224C139.11 197.45 138.861 197.61 138.574 197.703C138.319 197.837 138.046 197.904 137.755 197.905L137.681 197.903C137.263 197.902 136.873 197.796 136.512 197.587L136.043 197.224C135.756 196.935 135.557 196.594 135.447 196.201L135.364 195.585C135.352 195.266 135.418 194.968 135.564 194.692C135.657 194.404 135.817 194.155 136.043 193.945C136.253 193.719 136.501 193.56 136.789 193.466C137.044 193.332 137.317 193.265 137.608 193.265ZM144.478 138.807C144.978 138.083 145.882 138.727 145.753 139.308C145.787 140.942 145.871 142.527 146.242 144.127C146.412 144.86 146.635 145.593 146.979 146.264L147.123 146.547C147.568 147.426 147.914 148.255 147.314 149.22C147.032 149.675 146.521 150.016 145.968 149.993C143.514 149.887 143.177 146.47 143.028 144.562C142.874 142.598 143.352 140.439 144.478 138.807Z" fill="black"/>
<path fill-rule="evenodd" clip-rule="evenodd" d="M162.856 78.6399C155.423 59.0779 142.025 44.7554 119.438 53.7513C118.79 53.31 117.945 53.1916 117.135 53.7084C104.831 61.4373 95.9702 73.8285 92.1304 87.8011C89.7936 88.2456 87.5229 89.0208 85.4947 90.2921C81.0868 93.055 78.1213 97.4515 75.3414 101.734C74.5054 103.021 75.2795 105.152 76.8505 105.444C77.5329 105.572 78.2091 105.647 78.8816 105.667C78.7179 106.262 78.5024 106.836 78.2279 107.363C77.2343 109.27 79.1115 111.295 80.8707 110.774C81.0659 110.877 81.2704 110.962 81.4823 111.026C81.5064 112.106 82.0614 113.553 83.1598 113.771C84.9361 114.152 87.2968 112.792 86.8777 110.805C87.4143 110.899 87.949 110.911 88.4702 110.845C88.5285 111.88 88.5103 112.96 88.6532 113.915C89.1201 118.414 93.6137 121.437 97.8991 120.068C98.1619 121.47 98.4705 123.44 99.8508 124.2C101.464 128.729 104.251 133.897 108.815 135.96C108.408 137.002 108.629 138.268 109.852 138.965C118.206 143.73 128.233 145.342 137.677 143.571C141.452 143.346 145.129 142.492 148.659 140.675C151.233 139.349 153.6 137.666 155.91 135.93C158.221 134.194 160.692 132.504 162.537 130.25C164.541 127.802 165.473 124.921 166.079 121.856C168.852 107.941 167.894 94.2775 162.856 81.0221C156.619 64.6139 169.091 95.0489 162.856 78.6399Z" fill="white"/>
<path fill-rule="evenodd" clip-rule="evenodd" d="M126.923 49.9393C130.727 49.6706 134.6 50.3121 138.222 51.4595C144 53.2889 149.306 56.5175 153.665 60.7207C158.157 65.0523 161.48 70.3929 163.5 76.2915C165.937 83.4051 166.301 91.0006 166.987 98.4264C167.333 102.178 167.904 105.873 168.498 109.588L168.592 110.175C169.171 113.795 169.497 117.456 168.697 121.071C167.365 127.078 163.374 132.177 158.636 135.944C148.904 143.685 133.753 148.403 122.421 141.281C120.668 140.179 122.329 137.361 124.041 138.509C125.245 139.318 126.521 140.026 127.89 140.516C133.607 142.56 139.886 141.832 145.537 139.93C151.105 138.057 156.448 134.891 160.557 130.666C164.873 126.229 167.264 120.748 166.919 114.512C166.713 110.801 165.868 107.159 165.399 103.479C164.983 100.219 164.734 96.9414 164.447 93.6685L164.342 92.4912C163.733 85.823 162.859 78.9718 159.826 72.9189C157.275 67.8267 153.539 63.2964 149.048 59.7977C144.345 56.1348 138.729 53.573 132.836 52.6175C125.906 51.4939 119.272 53.5371 113.491 57.3405C108.364 60.7137 103.956 65.2214 100.576 70.336C98.9373 72.816 97.541 75.4644 96.3353 78.1805C95.1991 80.7395 94.4157 83.4216 93.502 86.0592C94.2539 86.0368 95.0182 86.0658 95.7944 86.1516C99.7756 86.5929 103.485 88.6569 105.846 91.9115C108.732 95.8885 107.952 100.77 109.079 105.293C109.166 105.644 109.018 105.988 108.717 106.182C107.008 107.287 104.721 107.324 103.067 106.08C101.632 105 100.958 103.048 101.539 101.342C101.615 101.119 101.938 101.159 101.947 101.397C102.057 104.3 104.749 106.535 107.388 105.154C106.256 101.254 106.852 96.8983 104.536 93.3755C100.438 87.1407 91.958 86.8831 86.0018 90.3978C82.8671 92.2473 80.3859 95.0282 78.5383 98.1388L78.0061 99.0418C77.2979 100.248 76.5479 101.613 76.4009 102.942C76.3162 103.709 76.5991 104.429 77.4784 104.043C78.1897 103.73 78.7405 103.001 79.163 102.375C79.8837 101.306 81.5396 102.229 80.9444 103.368L80.9242 103.405C80.0579 104.94 79.5245 106.632 79.4266 108.395L79.4017 108.883C79.3854 109.239 79.3736 109.744 79.4489 109.763C79.5391 109.785 80.1659 109.061 80.2703 108.961C80.7731 108.478 81.2909 108.083 81.9909 107.954C82.911 107.786 83.8393 108.924 83.0406 109.671L83.0073 109.701C82.2944 110.321 82.3261 111.557 83.1135 112.137C84.2248 112.955 85.5929 111.62 85.7542 110.52L85.7597 110.479C85.9023 109.291 87.5516 109.249 87.6412 110.479C87.8358 113.149 84.659 115.386 82.2418 114.039C81.2861 113.507 80.6785 112.533 80.4881 111.488C80.183 111.65 79.8539 111.761 79.5059 111.792C78.3731 111.893 77.5678 111.096 77.3846 110.026C77.1712 108.78 77.2978 107.446 77.6259 106.153C77.0106 106.301 76.3635 106.244 75.713 105.869C73.7451 104.733 74.3102 102.206 75.0532 100.5C78.2254 93.2179 84.7975 86.6104 92.9398 86.0859C92.9844 84.8011 93.1585 83.5864 93.4432 82.2999C96.2282 69.7164 105.25 58.0642 116.996 52.6181C120.134 51.1628 123.463 50.1838 126.923 49.9393ZM96.1212 100.206L96.2328 100.181C97.5017 99.9073 100.841 99.586 100.439 101.722C100.42 101.823 100.274 101.81 100.248 101.722C99.8534 100.379 97.1754 101.453 96.3935 101.777C95.3156 102.222 94.2523 102.879 93.3722 103.643C91.4452 105.316 90.1535 107.674 89.957 110.235C89.7622 112.775 90.4989 115.519 92.3306 117.356C93.2285 118.257 94.3746 118.868 95.6621 118.913C96.8188 118.954 98.0968 118.053 99.1641 118.58C99.3745 118.684 99.5412 118.97 99.5222 119.205C99.4863 119.65 99.2872 119.996 98.991 120.265C100.778 123.522 102.24 126.97 104.52 129.933C105.664 131.419 106.96 132.795 108.427 133.966C109.125 134.523 109.883 135.012 110.665 135.442C111.582 135.946 112.375 136.261 113.029 137.115C113.587 137.843 113.029 139.251 112.109 139.377C109.944 139.672 107.84 137.921 106.25 136.609C104.662 135.298 103.29 133.681 102.155 131.966C99.9772 128.671 98.4872 124.785 97.8914 120.853C97.1997 121.073 96.421 121.14 95.8351 121.141C94.2764 121.144 92.788 120.584 91.5631 119.636C87.0787 116.166 86.5803 109.042 89.7449 104.549C91.2593 102.4 93.5604 100.812 96.1212 100.206ZM96.1491 108.468C97.1889 108.377 98.2279 108.541 99.2053 108.896L99.6082 109.042C100.459 109.353 101.365 109.719 101.98 110.358C102.919 111.333 101.984 113.024 100.646 112.65C99.167 112.236 97.9649 110.99 96.4863 110.468C95.1646 110 93.6675 110.067 92.4946 110.871C92.3397 110.977 92.136 110.768 92.2372 110.613C93.1345 109.247 94.551 108.609 96.1491 108.468Z" fill="black"/>
<path fill-rule="evenodd" clip-rule="evenodd" d="M143.152 128.274C141.732 127.695 140.465 126.728 139.538 125.493C139.216 125.063 139.133 124.61 139.2 124.195C139.276 123.729 139.552 123.306 139.928 123.023C140.305 122.739 140.777 122.598 141.233 122.67C141.63 122.732 142.024 122.949 142.337 123.399L142.402 123.489C142.953 124.235 143.67 124.846 144.488 125.241C145.276 125.621 146.158 125.798 147.07 125.695C148.808 125.499 150.005 124.559 151.278 123.282C151.436 123.121 151.594 122.955 151.752 122.786C151.852 122.633 151.991 122.534 152.146 122.483C152.317 122.425 152.511 122.429 152.689 122.491C152.86 122.55 153.013 122.664 153.116 122.815C153.213 122.958 153.269 123.135 153.251 123.339C153.134 124.661 152.443 125.842 151.461 126.769C150.37 127.799 148.924 128.511 147.563 128.761C146.064 129.036 144.536 128.839 143.152 128.274ZM148.271 107.866C149.866 108.836 152.297 111.098 150.581 113.503C148.56 115.624 145.652 113.193 144.219 112.093C142.89 111.241 141.396 113.433 142.629 114.428C152.987 122.099 157.19 108.12 149.078 106.726C148.184 106.572 147.853 107.566 148.271 107.866ZM129.711 98.9429C129.887 96.7541 133.219 96.257 133.551 98.423C133.847 100.363 133.498 102.145 132.624 103.892C131.79 105.561 129.692 104.783 129.533 103.263C129.32 101.226 129.601 100.304 129.711 98.9429ZM155.076 97.9738C155.541 97.3652 156.212 96.9496 157.015 97.1845C159.526 97.9185 158.786 101.485 157.904 103.22C157.425 104.163 155.876 104.402 155.176 103.572C154.036 102.219 153.489 99.5156 154.94 98.1825C154.979 98.1136 155.023 98.044 155.076 97.9738ZM132.589 89.3654L132.986 89.2959C134.213 89.0836 135.738 88.8796 136.606 89.8665C137.067 90.3898 137.225 91.3624 136.606 91.8633C135.518 92.7446 134.314 92.4031 133.01 92.4777C131.935 92.5394 130.902 92.7174 129.867 93.0135C127.595 93.663 125.744 94.8486 123.804 96.1506C123.55 96.3213 123.29 95.9956 123.411 95.7574C124.531 93.563 126.701 91.7604 128.875 90.6616C130.036 90.0751 131.305 89.5885 132.589 89.3654ZM152.787 88.3823L153.091 88.4445C156.395 89.1353 160.687 90.5153 162.251 93.7615C162.311 94.2205 162.248 94.3189 162.197 94.3832L162.18 94.4046C162.137 94.4595 162.104 94.5351 161.905 94.5976C161.85 94.5844 161.794 94.5705 161.737 94.5557C161.02 94.3677 160.453 94.1087 159.904 93.84L159.308 93.5465C158.617 93.2076 157.92 92.881 157.181 92.6399C155.605 92.1254 153.983 91.7631 152.337 91.5696C151.98 91.5277 151.636 91.4072 151.365 91.2006C151.108 91.0046 150.911 90.7332 150.821 90.3724C150.705 89.9056 150.739 89.5521 150.989 89.1309C151.177 88.8146 151.447 88.5953 151.756 88.4694C152.071 88.3411 152.43 88.3108 152.787 88.3823Z" fill="black"/>
<path fill-rule="evenodd" clip-rule="evenodd" d="M156.415 116.417C153.452 115.917 150.373 116.655 147.516 117.443C142.977 114.462 137.096 117.471 133.846 121.195C132.733 122.112 130.397 123.329 131.628 125.078C131.161 126.314 131.036 126.896 132.002 125.451C137.467 126.08 143.331 124.891 148.74 123.769C150.581 124.389 152.208 125.837 154.232 125.341C156.146 125.749 158.218 126.129 159.946 124.9C161.262 124.847 164.189 127.211 164.142 124.462C163.735 121.827 158.513 117.443 156.415 116.417Z" fill="white"/>
<path fill-rule="evenodd" clip-rule="evenodd" d="M158.637 124.875C155.42 125.231 152.157 124.708 149.463 122.839C149.182 122.644 148.905 122.646 148.679 122.761C148.404 122.73 148.123 122.84 147.96 123.154C147.283 124.458 145.041 124.167 143.808 124.194C139.777 124.272 135.604 124.049 131.725 125.268C135.435 118.012 140.567 114.879 148.508 117.728C147.791 118.306 151.369 116.953 151.683 116.928C157.177 115.55 161.71 120.16 163.924 124.728C162.249 124.33 160.372 124.683 158.637 124.875ZM166.311 126.11C163.889 120.651 159.112 114.649 152.449 115.592C151.081 115.794 149.642 116.729 148.265 116.56C144.277 115.087 140.986 114.338 136.992 116.72C135.298 116.847 125.763 128.657 130.294 127.692C135.856 124.497 145.526 127.507 148.98 124.649C155.761 129.102 161.274 124.265 165.095 127.048C165.76 127.658 166.692 126.899 166.311 126.11Z" fill="black"/>
<path fill-rule="evenodd" clip-rule="evenodd" d="M166.085 109.758C164.662 111.67 162.025 112.279 159.593 112.068C154.347 111.563 152.696 105.603 152.524 100.97C156.042 101.96 152.226 94.9491 164.251 94.178C168.49 93.8247 167.322 96.3858 169.195 98.2571C169.156 102.184 168.503 106.452 166.085 109.758ZM141.098 105.245C138.001 119.755 121.04 116.304 119.259 103.224C120.904 102.063 120.471 99.1945 122.514 98.1553C125.754 96.0849 129.803 96.1734 133.481 96.222C138.183 96.5452 139.523 98.4936 141.938 100.619C141.822 102.039 141.487 103.722 141.098 105.245ZM172.803 91.775C172.629 91.7461 172.455 91.7188 172.281 91.6932C172.145 91.6161 171.986 91.5567 171.8 91.521C171.377 91.4134 170.956 91.3409 170.536 91.3018C164.508 89.9447 150.563 91.8716 149.987 97.0176C148.068 97.6586 146.407 97.0846 144.182 97.1416C142.488 90.0603 113.21 91.0598 111.802 95.3291C111.797 95.3276 111.792 95.3263 111.786 95.3246C110.433 94.9057 108.439 95.0068 106.89 94.9404C103.584 94.8711 100.273 95.1659 97.038 95.8636C90.9799 96.8267 82.712 97.9543 86.9253 105.522C86.9261 105.524 86.9268 105.525 86.9278 105.526L86.9285 105.526C87.6546 106.27 88.8869 105.671 88.9328 104.663C87.5162 101.077 90.7156 100.647 93.1773 99.6165C99.3026 97.4151 105.539 97.1099 111.874 97.7909C112.351 98.3522 113.074 98.8417 113.838 99.0979C118.074 99.8013 115.841 102.944 118.519 103.402C118.027 114.358 131.324 120.339 139.029 113.137C142.105 110.128 142.839 105.671 143.552 101.653C143.929 101.568 144.169 101.362 144.309 101.089C145.216 100.183 145.786 99.3466 147.579 99.0979C149.373 98.8493 150.753 99.3483 150.94 99.5011C150.987 99.596 151.038 99.6911 151.096 99.7862C151.178 99.9281 151.29 100.041 151.417 100.13C149.646 111.041 158.113 117.941 166.66 112.282C170.374 108.787 171.159 103.436 171.314 98.66C171.818 98.356 172.137 97.767 171.962 97.0264C171.722 96.0056 172.285 95.1217 173.182 94.6779C174.348 94.1016 174.142 91.9967 172.803 91.775Z" fill="black"/>
</svg>
