<svg width="240" height="324" viewBox="0 0 240 324" fill="none" xmlns="http://www.w3.org/2000/svg">
<path fill-rule="evenodd" clip-rule="evenodd" d="M55.9682 287.806C63.0177 287.828 69.8676 288.069 76.9369 288.093C105.673 288.189 134.674 288.049 163.515 286.884C171.666 286.554 173.701 286.562 181.817 286.051C186.609 286.034 201.004 285.638 200.284 279.108C199.965 266.946 196.956 254.836 196.008 242.707C194.188 219.907 192.639 196.393 183.502 175.067C181.388 169.974 176.846 166.643 172.35 163.648C167.841 160.417 166.734 156.83 162.573 153.18C161.693 152.409 156.696 152.095 154.008 150.137C150.095 147.288 148.155 142.623 146.695 141.829C145.62 141.244 145.64 137.213 143.487 135.786C140.597 133.872 131.39 132.448 128.04 132.182C124.825 131.926 119.232 132.463 116.215 133.641C111.185 135.605 109.178 139.352 106.963 144.179C77.692 153.229 50.9382 168.553 42.6294 199.464C35.4643 225.389 35.2017 253.182 37.9697 279.77C38.5235 281.715 38.1354 284.763 39.8149 286.051C33.978 286.386 55.1764 287.59 55.9682 287.806Z" fill="white"/>
<path fill-rule="evenodd" clip-rule="evenodd" d="M189.101 262.208C188.547 261.931 187.97 261.615 187.337 261.593C186.251 261.555 186.25 259.864 187.337 259.902C188.286 259.935 189.119 260.331 189.954 260.748C190.929 261.234 190.072 262.692 189.101 262.208ZM187.337 214.615C188.079 214.616 188.826 214.71 189.395 215.228C189.734 215.537 189.707 216.112 189.395 216.424C189.062 216.757 188.537 216.731 188.2 216.424C188.31 216.524 188.201 216.425 188.161 216.402C188.151 216.397 188.146 216.394 188.144 216.391C188.135 216.389 188.127 216.388 188.113 216.384C188.025 216.362 187.937 216.34 187.848 216.324C187.847 216.328 187.659 216.312 187.615 216.31C187.523 216.307 187.43 216.306 187.337 216.306C186.879 216.306 186.492 215.92 186.492 215.461C186.492 215.004 186.88 214.615 187.337 214.615ZM179.391 233.581C179.148 234.643 177.519 234.191 177.761 233.132C178.112 231.591 178.048 230.013 177.761 228.468C177.563 227.403 179.192 226.95 179.391 228.019C179.735 229.872 179.812 231.733 179.391 233.581ZM177.256 172.816C175.997 172.517 174.752 172.481 173.465 172.481C172.376 172.48 172.377 170.789 173.465 170.79C174.901 170.79 176.303 170.852 177.705 171.185C178.765 171.437 178.313 173.067 177.256 172.816ZM173.038 213.999C172.308 213.634 171.578 213.269 170.848 212.904C169.874 212.417 170.731 210.959 171.701 211.444L173.891 212.54C174.865 213.027 174.008 214.485 173.038 213.999ZM172.734 247.296C171.808 248.631 170.506 249.461 168.943 249.876C167.889 250.155 167.443 248.524 168.494 248.245C169.612 247.949 170.604 247.409 171.275 246.442C171.891 245.553 173.355 246.4 172.734 247.296ZM166.894 187.766C166.643 187.298 166.266 187.1 165.798 187.089C164.711 187.064 164.71 185.373 165.798 185.398C166.865 185.423 167.843 185.958 168.353 186.913C168.866 187.873 167.407 188.726 166.894 187.766ZM156.174 199.259C155.871 199.589 155.283 199.581 154.979 199.259C154.792 199.062 154.635 198.842 154.512 198.601C154.465 198.509 154.421 198.416 154.369 198.327C154.346 198.287 154.321 198.248 154.295 198.21C154.286 198.202 154.267 198.183 154.248 198.163C153.924 197.82 153.932 197.313 154.248 196.967C154.552 196.637 155.139 196.646 155.444 196.967C155.63 197.164 155.787 197.384 155.91 197.626C155.957 197.717 156.001 197.81 156.053 197.9C156.076 197.939 156.102 197.978 156.128 198.016C156.137 198.024 156.155 198.043 156.174 198.063C156.499 198.407 156.491 198.914 156.174 199.259ZM155.273 224.225C154.172 224.729 152.965 224.729 151.864 224.225C151.447 224.035 151.348 223.432 151.561 223.069C151.807 222.647 152.302 222.576 152.717 222.765C153.216 222.994 153.921 222.994 154.42 222.765C154.836 222.575 155.326 222.642 155.576 223.069C155.79 223.435 155.688 224.035 155.273 224.225ZM152.27 241.897C152.081 242.345 151.673 242.583 151.195 242.601C150.722 242.619 150.37 242.2 150.35 241.756C150.338 241.469 150.493 241.224 150.715 241.073C150.715 241.057 150.716 241.041 150.716 241.025C150.716 240.552 151.103 240.201 151.561 240.18C152.017 240.16 152.406 240.583 152.406 241.025C152.406 241.324 152.387 241.62 152.27 241.897ZM147.91 269.992C146.561 270.014 145.243 270.336 143.894 270.358C142.804 270.375 142.808 268.684 143.894 268.667C145.243 268.645 146.561 268.323 147.91 268.302C149 268.284 148.996 269.975 147.91 269.992ZM142.301 161.642C141.511 162.394 140.536 162.765 139.574 163.235C138.6 163.711 137.744 162.253 138.721 161.775C139.536 161.377 140.438 161.083 141.106 160.446C141.894 159.695 143.09 160.89 142.301 161.642ZM140.182 181.13C139.628 180.854 139.051 180.537 138.418 180.515C137.332 180.477 137.33 178.787 138.418 178.825C139.367 178.858 140.2 179.253 141.035 179.67C142.01 180.157 141.152 181.615 140.182 181.13ZM130.022 259.348C129.772 258.879 129.395 258.681 128.926 258.671C127.839 258.646 127.838 256.955 128.926 256.98C129.993 257.004 130.972 257.54 131.481 258.494C131.994 259.455 130.535 260.308 130.022 259.348ZM126.503 222.632C126.167 222.323 126.191 221.75 126.503 221.437C126.869 221.072 127.234 220.706 127.599 220.341C127.933 220.007 128.456 220.031 128.794 220.341C129.13 220.65 129.107 221.224 128.794 221.537C128.429 221.902 128.064 222.267 127.699 222.632C127.364 222.967 126.841 222.942 126.503 222.632ZM122.355 279.853C121.135 279.825 119.992 279.475 118.844 279.092C117.816 278.75 118.259 277.118 119.294 277.462C120.292 277.794 121.294 278.138 122.355 278.162C123.442 278.188 123.443 279.878 122.355 279.853ZM116.879 243.697C115.777 243.666 114.864 243.105 114.091 242.354C113.31 241.594 114.506 240.399 115.286 241.158C115.728 241.588 116.239 241.988 116.879 242.006C117.966 242.036 117.967 243.727 116.879 243.697ZM120.279 197.2C120.293 197.65 120.483 198.133 120.762 198.428C121.509 199.22 120.315 200.417 119.567 199.624C118.95 198.97 118.615 198.095 118.589 197.2C118.558 196.11 120.248 196.115 120.279 197.2ZM107.388 160.375C107.034 159.682 106.57 158.87 105.865 158.487C104.908 157.967 105.762 156.508 106.718 157.027C107.677 157.548 108.363 158.573 108.847 159.522C109.341 160.49 107.882 161.344 107.388 160.375ZM105.197 177.959C104.804 177.948 104.415 177.88 104.037 177.778C103.876 177.734 103.716 177.683 103.554 177.639C103.485 177.621 103.19 177.584 103.371 177.594C102.914 177.569 102.526 177.226 102.526 176.748C102.526 176.309 102.915 175.878 103.371 175.903C103.998 175.936 104.569 176.25 105.197 176.268C106.284 176.299 106.284 177.989 105.197 177.959ZM99.7206 204.984H97.8952C96.8059 204.984 96.8078 203.294 97.8952 203.294H99.7206C100.81 203.294 100.808 204.984 99.7206 204.984ZM97.5916 279.738C97.0381 280.015 96.3857 280.277 95.9374 280.701C95.1468 281.449 93.9502 280.255 94.7422 279.506C95.3133 278.966 96.0434 278.626 96.7387 278.278C97.1484 278.073 97.652 278.165 97.895 278.581C98.1145 278.957 97.9998 279.533 97.5916 279.738ZM93.513 258.374C93.4422 258.355 93.3674 258.341 93.2958 258.331C93.0084 258.292 92.7078 258.306 92.4192 258.306C91.3299 258.305 91.3316 256.614 92.4192 256.615C93.2763 256.615 94.1683 256.627 94.8422 257.228C95.1843 257.533 95.1511 258.114 94.8422 258.423C94.5063 258.759 93.9877 258.727 93.6471 258.423C93.683 258.455 93.5599 258.387 93.513 258.374ZM92.4198 229.643C92.6653 229.136 92.6691 228.806 92.6695 228.243C92.6704 227.153 94.3605 227.155 94.3597 228.243C94.3592 229.06 94.2378 229.756 93.8792 230.496C93.6792 230.909 93.0935 231.016 92.7232 230.799C92.3078 230.556 92.221 230.053 92.4198 229.643ZM87.5327 189.981C86.5524 190.314 85.6773 190.786 84.8141 191.356C83.9029 191.958 83.0572 190.493 83.961 189.896C84.9461 189.246 85.9651 188.731 87.0833 188.35C88.1173 187.998 88.5569 189.632 87.5327 189.981ZM81.8322 161.524C81.104 161.545 80.3523 161.824 79.7032 162.139C78.7278 162.613 77.872 161.155 78.8504 160.679C79.7774 160.229 80.7917 159.863 81.8322 159.834C82.9221 159.803 82.9175 161.494 81.8322 161.524ZM79.2766 237.488C78.9901 237.501 78.7452 237.346 78.5935 237.124C78.5777 237.124 78.562 237.123 78.5464 237.123C78.0727 237.123 77.722 236.736 77.7013 236.278C77.6808 235.821 78.1044 235.432 78.5464 235.432C78.8447 235.433 79.1407 235.451 79.4179 235.568C79.8656 235.757 80.1035 236.165 80.1216 236.643C80.1396 237.116 79.72 237.469 79.2766 237.488ZM75.1204 179.024C74.0824 179.364 73.6417 177.73 74.671 177.394C75.8792 176.999 77.1139 176.693 78.3219 176.298C79.3599 175.959 79.8006 177.592 78.7711 177.929C77.5632 178.323 76.3284 178.629 75.1204 179.024ZM71.33 210.938C71.008 211.975 69.3773 211.53 69.7001 210.488C70.0119 209.483 70.0343 208.471 70.035 207.426C70.0356 206.336 71.7257 206.338 71.7251 207.426C71.7245 208.615 71.6845 209.793 71.33 210.938ZM60.0301 249.162C59.9686 249.583 59.6348 249.886 59.1979 249.906C58.7532 249.926 58.3368 249.503 58.3528 249.06C58.3839 248.209 59.0775 247.516 59.928 247.484C60.4013 247.467 60.7532 247.886 60.7731 248.33C60.7925 248.762 60.4321 249.099 60.0301 249.162ZM54.3113 200.572C53.4183 200.87 52.464 201.154 51.7639 201.815C50.9727 202.562 49.7761 201.368 50.5687 200.62C51.492 199.748 52.6795 199.336 53.8622 198.941C54.8978 198.596 55.3379 200.229 54.3113 200.572ZM50.4359 233.418C50.1904 233.837 49.6933 233.913 49.2798 233.721C48.7254 233.463 48.1134 233.472 47.5157 233.471C46.4266 233.47 46.4283 231.779 47.5157 231.78C48.4377 231.781 49.2883 231.868 50.1329 232.261C50.5485 232.454 50.6497 233.052 50.4359 233.418ZM48.2457 273.279C47.7724 273.297 47.4205 272.878 47.4006 272.434C47.3812 272.002 47.7414 271.665 48.1438 271.602C48.2051 271.181 48.5391 270.877 48.9758 270.858C49.4207 270.838 49.8372 271.261 49.8209 271.703C49.7898 272.555 49.0967 273.248 48.2457 273.279ZM202.223 279.672C201.936 278.639 201.279 277.804 200.782 276.874C200.616 276.561 200.558 276.366 200.468 276.136C200.345 276.382 200.107 276.566 199.75 276.566C199.064 276.566 198.261 276.522 197.621 276.816C197.204 277.007 196.714 276.939 196.465 276.513C196.251 276.147 196.353 275.546 196.768 275.356C197.711 274.923 198.726 274.876 199.75 274.875C200.003 274.875 200.194 274.968 200.329 275.108C200.721 269.749 200.711 264.385 200.341 259.021C199.946 253.289 199.037 247.672 198.086 242.014C197.626 239.271 197.028 236.5 197.144 233.706C197.261 230.931 198.45 228.344 197.607 225.56C197.269 224.444 196.69 223.421 196.314 222.318C195.911 221.13 195.946 219.957 196.13 218.727C196.508 216.223 197.136 213.748 196.132 211.303C195.689 210.218 194.97 209.25 194.624 208.13C194.193 206.737 194.252 205.197 194.18 203.753C194.035 200.841 193.997 197.909 193.755 195.003C193.648 193.701 193.413 192.467 192.879 191.273C192.365 190.123 191.603 189.077 191.263 187.857C190.925 186.657 190.895 185.391 190.713 184.163C190.523 182.865 190.225 181.587 189.824 180.34C188.273 175.512 185.432 171.176 182.075 167.416C178.506 163.419 174.241 160.409 169.713 157.605C167.333 156.13 164.952 154.655 162.573 153.18C162.522 153.457 162.346 153.711 162.007 153.825C161.114 154.123 160.16 154.407 159.46 155.068C158.669 155.815 157.472 154.621 158.264 153.873C159.091 153.091 160.131 152.68 161.188 152.319C160.104 151.636 159.008 150.928 157.785 150.533C156.714 150.186 155.134 150.489 154.265 149.702C153.583 149.083 153.367 147.936 153.106 147.094C152.778 146.05 152.495 144.949 152.079 143.935C151.796 143.241 151.384 142.576 150.864 142.039C150.636 141.16 150.217 140.356 149.478 139.868C147.543 138.587 145.166 139.86 144.315 141.686C143.611 141.684 142.87 141.838 142.185 141.88C140.778 141.969 139.369 142.009 137.96 142.005C135.203 141.997 132.444 141.817 129.71 141.451C124.821 140.796 120.078 139.475 115.272 138.446C115.244 138.382 115.213 138.319 115.175 138.256C114.139 136.518 111.56 136.812 109.935 137.469C109.238 137.751 108.528 138.106 108.129 138.765C107.706 139.05 107.341 139.397 107.098 139.763C106.595 140.517 106.206 142.039 105.186 142.166C104.514 142.248 103.832 142.119 103.149 142.216C102.296 142.335 101.531 142.635 100.743 142.977C94.743 145.583 88.5402 148.481 82.0287 149.491C80.5014 149.728 78.9465 149.973 77.6197 150.829C76.5423 151.524 75.7097 152.48 74.8204 153.386C73.9542 154.27 73.2402 154.661 72.0042 154.819C70.5042 155.012 69.2049 155.426 68.1085 156.516C67.1979 157.423 66.6042 158.581 65.8902 159.634C65.1632 160.707 64.0965 161.312 62.9895 161.935C60.3719 163.411 57.9338 165.192 55.8106 167.329C51.338 171.835 48.6296 177.626 45.9 183.269C42.9486 189.373 40.1895 195.551 38.2754 202.069C36.3993 208.468 35.2838 215.052 34.7683 221.697C34.2254 228.669 34.1493 235.669 33.6972 242.646C33.4711 246.131 33.3 249.62 33.1268 253.108C32.9578 256.553 32.7106 260.004 32.7505 263.453C32.8268 270.121 34.1597 276.811 36.4902 283.054C37.0711 284.607 37.7153 286.14 38.4019 287.649C39.0042 288.974 41.0641 288.826 41.7106 287.649C41.8585 287.378 41.9747 287.099 42.0719 286.816C43.762 286.831 45.469 286.7 47.1486 286.856C50.1148 287.133 53.0871 287.287 56.0618 287.471C61.9479 287.837 67.8444 288.08 73.7324 288.416C74.3037 288.448 74.875 288.481 75.446 288.515C71.25 275.523 71.7942 261.477 71.1302 247.965C71.0768 246.875 72.7673 246.882 72.8204 247.965C73.4871 261.535 72.9195 275.617 77.2638 288.63C78.9492 288.744 80.6324 288.884 82.3099 289.088C83.666 289.251 85.0289 289.443 86.3979 289.375C87.9507 289.301 89.4676 288.946 90.9824 288.638C93.7352 288.078 96.3866 288.331 99.15 288.676C102.106 289.046 105.072 289.251 108.046 289.38C119.958 289.902 131.949 290.377 143.856 289.58C146.738 289.388 149.613 289.118 152.476 288.75C155.425 288.371 158.343 287.735 161.29 287.374C164.195 287.019 166.866 287.993 169.737 288.173C172.665 288.357 175.671 287.746 178.572 287.395C179.518 287.28 180.465 287.169 181.413 287.058C180.193 278.694 179.5 270.267 178.826 261.843C178.739 260.756 180.43 260.766 180.516 261.843C181.184 270.201 181.862 278.565 183.08 286.863C188.103 286.279 193.131 285.687 198.101 284.776C199.517 284.519 200.924 284.098 201.771 282.834C202.398 281.898 202.525 280.75 202.223 279.672Z" fill="black"/>
<path fill-rule="evenodd" clip-rule="evenodd" d="M133.581 60.2713C165.379 61.2784 167.297 76.3883 167.297 101.728C167.297 127.068 150.801 143.036 144.727 145.824C138.653 148.612 122.66 160.588 108.226 155.069C93.7932 149.55 97.9729 126.233 97.9729 116.215C97.9729 106.196 101.782 59.2642 133.581 60.2713Z" fill="white"/>
<path fill-rule="evenodd" clip-rule="evenodd" d="M146.481 137.502C140.642 140.763 133.955 140.889 127.674 138.837C123.907 137.61 120.453 135.711 117.22 133.441C114.408 131.465 111.899 129.274 109.412 126.946C107.365 122.43 105.542 117.922 104.688 113.008C103.923 108.597 103.822 104.017 104.709 99.6149C111.271 94.2149 117.793 88.7705 124.306 83.3094C127.623 80.5278 130.949 77.7615 134.314 75.0391C136.023 73.6568 137.716 72.2535 139.418 70.8649C139.699 70.6366 139.978 70.4084 140.259 70.1801C143.775 72.7544 147.544 74.9611 151.034 77.5774C152.861 78.9491 154.638 80.4095 156.33 81.9458C157.218 82.7512 158.084 83.5818 158.929 84.4336C159.702 85.2116 160.448 86.3273 161.545 86.6213C161.695 86.6612 161.836 86.6697 161.969 86.6507C163.435 99.4923 164.477 113.359 158.196 125.021C155.456 130.108 151.571 134.657 146.481 137.502ZM108.493 142.221C107.689 141.484 108.887 140.292 109.688 141.025C114.718 145.634 121.293 148.077 127.934 149.208C129.006 149.391 128.549 151.02 127.485 150.838C120.551 149.658 113.736 147.025 108.493 142.221ZM102.458 149.292C101.498 148.777 102.353 147.318 103.311 147.832C107.23 149.935 111.527 151.027 115.887 151.764C116.959 151.946 116.502 153.575 115.438 153.395C110.93 152.632 106.507 151.465 102.458 149.292ZM118.405 78.0617C121.657 75.1427 125.151 72.3653 128.842 70.0217C132.577 67.6503 136.657 66.2322 141.066 66.1984C140.758 66.4456 140.464 66.7204 140.166 66.9759C139.334 67.6884 138.503 68.4049 137.673 69.1192C136.012 70.5501 134.348 71.9786 132.708 73.4329C129.48 76.2988 126.241 79.1499 123.02 82.0222C116.827 87.5426 110.768 93.1833 104.84 98.9872C104.872 98.8456 104.906 98.704 104.939 98.5626C106.902 90.362 112.241 83.5967 118.405 78.0617ZM143.893 66.5555C143.914 66.4921 143.929 66.4306 143.937 66.3716C152.399 67.4749 159.466 73.7031 161.802 81.9037C161.599 82.187 161.487 82.523 161.529 82.88C161.551 83.0598 161.572 83.2416 161.593 83.4212C161.303 83.134 161.005 82.8654 160.752 82.6097C159.909 81.7558 159.045 80.925 158.158 80.1155C156.343 78.4608 154.458 76.9138 152.472 75.4702C149.018 72.9594 145.279 70.6515 141.161 69.4468C141.432 69.2248 141.702 69.0029 141.975 68.7831C142.788 68.1214 143.542 67.5763 143.893 66.5555ZM159.062 57.7866C153.867 52.1076 146.673 47.9483 139.098 46.5026C131.864 45.1204 124.374 46.0313 117.54 48.7176C103.239 54.3395 91.9551 66.7016 86.6713 81.0267C83.591 89.3729 82.5811 98.5223 83.5067 107.357C84.4276 116.151 87.0748 125.233 91.8917 132.715C92.3332 133.399 92.817 134.057 93.3241 134.693C93.098 137.275 92.2361 139.807 90.8797 142.01C90.8068 142.128 90.7299 142.243 90.6539 142.359C89.265 143.4 87.8244 144.376 86.418 145.384C85.1992 146.258 83.9928 147.154 82.8467 148.121C81.7648 149.034 80.5084 150.051 79.7759 151.284C79.1757 152.293 78.9306 153.666 79.7499 154.629C80.7372 155.789 82.41 155.38 83.7473 155.38C83.8618 155.38 83.9761 155.382 84.0904 155.384C84.492 155.636 84.9057 155.865 85.3065 156.077C89.3565 158.224 93.4213 160.349 97.4903 162.462C105.595 166.674 113.665 171.056 121.936 174.934C125.769 176.732 129.871 178.305 134.164 178.299C138.191 178.292 141.831 176.692 144.975 174.26C148.558 171.489 151.554 167.97 154.461 164.521C155.623 163.14 156.761 161.743 157.879 160.327C160.025 159.611 162.155 159.402 164.069 160.784C165.605 161.894 167.629 160.384 167.665 158.719C167.678 158.127 167.652 157.544 167.589 156.969C167.205 153.418 165.468 150.206 163.511 147.226C162.443 145.596 161.317 143.996 160.184 142.411C159.918 142.037 159.656 141.663 159.402 141.282C163.951 134.583 167.559 127.154 169.778 119.391C172.108 111.222 172.9 102.751 172.381 94.2868C171.582 81.3141 168.024 67.5848 159.062 57.7866Z" fill="black"/>
<path fill-rule="evenodd" clip-rule="evenodd" d="M143.152 128.274C141.732 127.695 140.465 126.728 139.538 125.493C139.216 125.063 139.133 124.61 139.2 124.195C139.276 123.729 139.552 123.306 139.928 123.023C140.305 122.739 140.777 122.598 141.233 122.67C141.63 122.732 142.024 122.949 142.337 123.399L142.402 123.489C142.953 124.235 143.67 124.846 144.488 125.241C145.276 125.621 146.158 125.798 147.07 125.695C148.808 125.499 150.005 124.559 151.278 123.282C151.436 123.121 151.594 122.955 151.752 122.786C151.852 122.633 151.991 122.534 152.146 122.483C152.317 122.425 152.511 122.429 152.689 122.491C152.86 122.55 153.013 122.664 153.116 122.815C153.213 122.958 153.269 123.135 153.251 123.339C153.134 124.661 152.443 125.842 151.461 126.769C150.37 127.799 148.924 128.511 147.563 128.761C146.064 129.036 144.536 128.839 143.152 128.274ZM148.271 107.866C149.866 108.836 152.297 111.098 150.581 113.503C148.56 115.624 145.652 113.193 144.219 112.093C142.889 111.241 141.396 113.433 142.629 114.428C152.986 122.099 157.19 108.12 149.078 106.726C148.184 106.572 147.853 107.566 148.271 107.866ZM129.711 98.9429C129.887 96.7541 133.219 96.257 133.551 98.423C133.847 100.363 133.498 102.145 132.624 103.892C131.79 105.561 129.692 104.783 129.533 103.263C129.32 101.226 129.601 100.304 129.711 98.9429ZM155.076 97.9738C155.541 97.3652 156.212 96.9496 157.015 97.1845C159.526 97.9185 158.786 101.485 157.904 103.22C157.425 104.163 155.876 104.402 155.176 103.572C154.035 102.219 153.489 99.5156 154.939 98.1825C154.979 98.1136 155.023 98.044 155.076 97.9738ZM132.589 89.3654L132.986 89.2959C134.213 89.0836 135.738 88.8796 136.606 89.8665C137.067 90.3898 137.225 91.3624 136.606 91.8633C135.518 92.7446 134.314 92.4031 133.01 92.4777C131.935 92.5394 130.902 92.7174 129.867 93.0135C127.595 93.663 125.744 94.8486 123.804 96.1506C123.55 96.3213 123.29 95.9956 123.411 95.7574C124.531 93.563 126.701 91.7604 128.875 90.6616C130.036 90.0751 131.305 89.5885 132.589 89.3654ZM152.787 88.3823L153.091 88.4445C156.394 89.1353 160.687 90.5153 162.251 93.7615C162.311 94.2205 162.248 94.3189 162.196 94.3832L162.179 94.4046C162.137 94.4595 162.104 94.5351 161.905 94.5976C161.849 94.5844 161.794 94.5705 161.737 94.5557C161.02 94.3677 160.453 94.1087 159.904 93.84L159.308 93.5465C158.617 93.2076 157.92 92.881 157.181 92.6399C155.605 92.1254 153.983 91.7631 152.337 91.5696C151.98 91.5277 151.636 91.4072 151.365 91.2006C151.107 91.0046 150.911 90.7332 150.821 90.3724C150.705 89.9056 150.738 89.5521 150.989 89.1309C151.177 88.8146 151.447 88.5953 151.756 88.4694C152.071 88.3411 152.43 88.3108 152.787 88.3823Z" fill="black"/>
<path fill-rule="evenodd" clip-rule="evenodd" d="M167.178 109.153C164.613 111.805 160.331 112.566 156.919 111.144C148.156 107.481 152.445 96.0578 159.203 92.99C160.047 92.7795 161.175 92.2801 162.203 92.1668C162.296 92.1212 162.498 92.2532 162.744 92.1283C170.195 92.9606 171.892 104.532 167.178 109.153ZM138.915 109.832C136.039 113.649 130.69 114.827 126.32 113.052C117.688 109.651 120.749 99.5216 126.656 95.5503C139.133 90.8602 144.285 102.794 138.915 109.832ZM120.201 101.374C120.193 101.37 120.185 101.369 120.177 101.365C120.223 101.345 120.268 101.325 120.314 101.304C120.299 101.343 120.283 101.381 120.269 101.42C120.246 101.404 120.226 101.386 120.201 101.374ZM173.118 97.2481C172.413 97.2496 171.396 97.3654 170.813 97.8542C169.375 93.0031 164.067 88.5134 159.451 91.7872C155.817 92.9566 153.119 95.5501 151.586 98.9981C148.822 97.3533 144.476 98.0557 142.079 100.231C140.51 95.0418 136.646 93.2248 132.048 92.9566C127.029 92.1342 122.027 97.0103 120.466 100.922C119.168 100.774 117.229 100.361 116.008 101.162C108.084 99.0834 94.2302 97.9373 92.6193 99.0923C91.4712 99.533 90.8412 102.244 92.4448 102.39C93.8421 102.192 92.2817 100.404 93.6902 100.209C101.195 99.7433 108.481 101.255 115.906 101.89C116.569 102.782 118.711 103.08 119.854 102.722C118.054 109.357 121.939 113.872 127.761 115.224C136.775 117.296 144.617 109.229 142.26 100.838C144.991 99.4791 148.132 99.5374 151.106 100.253C146.136 118.554 175.598 117.733 170.997 98.4813C174.059 100.005 174.724 97.5556 173.118 97.2481Z" fill="black"/>
</svg>
