<svg width="240" height="324" viewBox="0 0 240 324" fill="none" xmlns="http://www.w3.org/2000/svg">
<path fill-rule="evenodd" clip-rule="evenodd" d="M140.038 286.762C122.893 286.81 112.625 286.609 93.2321 286.329C70.7868 285.734 64.7378 286.803 52.1636 284.333C50.241 283.924 48.7784 283.305 47.2949 282.442C46.7632 283.043 45.8617 283.938 45.0056 283.346C43.4287 282.303 44.1517 278.661 43.7606 276.605C43.1133 258.496 42.0779 239.846 45.6174 221.956C43.4716 221.258 30.8978 216.083 30.2112 214.35C41.5818 184.606 66.5253 149.8 99.3434 151.111C100.003 151.925 100.591 153.13 101.323 153.959C105.785 152.287 111.979 150.612 112.284 144.177C113.057 139.882 113.614 135.872 113.986 131.925C114.053 131.473 114.594 131.318 114.927 131.126C115.068 130.105 115.393 129.062 116.097 128.362C121.849 127.845 134.978 130.218 138.423 131.196C143.124 132.001 142.635 137.047 143.51 140.872C144.898 145.601 145.864 150.509 147.927 155.129C148.394 155.193 149.701 155.421 150.183 155.505C150.208 154.982 149.963 153.428 150.443 153.111C151.332 152.217 151.537 153.918 151.734 154.472C171.157 150.803 183.857 167.291 188.113 185.708C191.196 194.97 195.28 204.343 200.612 214.396C203.955 220.637 194.349 221.797 190.323 224.288C194.478 240.462 194.978 256.933 195.66 273.235C195.84 275.742 196.085 279.152 195.197 280.4C194.776 280.727 194.483 280.718 194.056 280.742C193.231 281.632 191.818 281.573 190.628 281.827C186.865 282.511 183.01 282.968 179.388 283.038C169.221 289.332 153.546 285.812 140.038 286.762Z" fill="white"/>
<path fill-rule="evenodd" clip-rule="evenodd" d="M112.572 131.913C113.106 129.238 117.519 129.858 117.318 132.555C115.09 142.594 116.447 154.815 102.366 153.827C111.304 169.555 138.905 179.121 147.827 158.472C143.431 157.947 142.561 147.551 142.03 143.913L142.008 143.588C141.89 141.717 141.93 139.983 143.054 138.383C144.176 139.224 144.627 140.745 145.007 142.133L145.285 143.244C146.215 146.947 147.188 150.634 148.663 154.168L148.716 154.176C148.642 151.779 151.718 150.683 152.481 153.251C173.294 150.384 184.68 167.566 189.172 185.537C192.449 195.374 196.72 204.837 201.572 213.985C205.234 221.133 196.342 222.769 191.638 225.147C195.256 239.646 195.966 254.667 196.636 269.538C196.414 272.711 197.848 279.221 195.933 281.497C193.096 283.718 191.568 279.912 192.004 277.471C192.412 260.216 190.615 243.037 190.1 225.809C186.548 227.31 182.954 228.693 179.319 229.978C179.504 246.144 181.426 262.31 182.111 278.394C183.01 279.103 183.507 280.332 182.739 281.402C178.627 287.139 171.193 287.996 164.652 288.078C149.085 288.274 133.502 288.214 117.934 288.167C102.642 287.821 87.2167 288.8 72.0054 287.047C69.0244 289.287 68.4147 284.458 68.814 282.399L68.9656 278.273C69.0676 275.523 69.1757 272.773 69.3147 270.025L69.6613 263.323C70.2416 252.155 70.8567 240.992 71.8324 229.846C62.9963 228.637 54.2872 226.492 45.8557 223.597C46.5498 242.948 45.126 262.505 47.5 281.757C49.0666 283.884 45.9248 285.88 44.0908 284.548C41.8163 282.813 42.7917 279.419 42.3375 276.921L42.2792 275.306C41.6426 257.892 40.7729 240.112 44.0175 222.937L42.6218 222.395C38.3674 220.733 27.4264 216.29 28.8612 214.098C40.2833 184.157 65.8343 148.346 99.6745 150.047C100.532 150.643 100.97 151.802 101.605 152.633L102.612 152.268C106.511 150.84 110.745 149.03 110.861 144.229C111.599 140.138 112.184 136.046 112.572 131.913ZM168.339 206.541C173.187 199.759 139.566 210.478 137.176 211.186L136.275 211.514C121.55 216.869 105.675 222.048 93.9334 232.722C93.6867 232.993 93.9939 233.366 94.3131 233.215L94.354 233.191C94.8212 232.931 96.8437 232.208 95.4108 232.482C112.377 221.779 132.087 215.899 151.347 210.757C154.146 210.08 156.958 209.457 159.781 208.891C162.629 208.198 165.843 208.206 168.339 206.541ZM115.213 204.334C115.627 202.643 118.414 187.105 113.786 191.368C112.552 193.603 112.079 196.194 111.857 198.712C111.26 201.647 112.766 204.81 111.301 207.516C109.99 211.05 105.17 215.179 104.848 208.613C112.734 208.343 110.366 198.348 104.998 201.438C102.058 203.955 101.55 208.695 103.021 212.167C100.645 209.579 96.7913 209.571 94.0406 207.618C89.073 202.246 97.4166 196.656 101.96 194.721C102.216 194.44 105.94 193.141 105.151 192.984C101.584 193.017 98.0103 193.776 94.9323 195.653C88.5617 198.762 86.3935 208.388 93.681 211.762C95.2568 212.522 96.9814 212.93 98.5416 213.714C102.473 215.753 101.203 218.315 97.1441 218.39C95.4746 218.755 89.9654 217.226 90.5823 220.153C91.5789 221.983 93.749 222.256 95.6502 222.307C100.732 222.656 107.05 219.784 104.178 213.804C107.645 216.759 111.974 212.629 113.459 209.419C115.27 212.97 119.82 211.901 122.388 209.799C126.313 212.891 131.236 209.454 132.984 205.617C133.02 206.415 133.056 207.214 133.094 208.012C133.173 209.648 135.709 210.174 136.083 208.417C136.653 205.745 137.439 203.104 138.52 200.593C141.007 193.991 142.528 196.968 142.615 202.141C142.921 204.083 143.893 205.823 146.039 205.954C146.637 205.99 147.418 205.458 147.511 204.833L147.634 204.006C147.896 202.273 148.199 200.488 148.853 198.859C149.483 204.25 156.54 204.224 158.508 199.754C162.59 202.205 166.873 198.781 168.777 195.24L168.834 195.133C169.499 193.922 167.809 192.457 166.843 193.596L166.507 193.946C164.685 195.832 161.786 198.567 159.391 196.238C159.47 195.187 159.438 194.114 159.373 193.08C159.296 191.848 157.595 190.751 156.628 191.853C155.265 190.695 153.572 190.862 152.147 191.67C148.454 192.714 146.127 196.31 145.326 199.885C145.241 197.029 144.307 193.93 141.171 193.661C137.958 193.634 136.728 197.228 135.632 199.646C135.568 198.563 135.507 197.48 135.452 196.397C135.357 194.533 132.773 194.552 132.561 196.341L132.555 196.397C132.148 200.264 130.007 209.527 124.604 207.715C126.882 205.204 131.004 197.554 127.086 195.171C121.056 193.652 117.963 203.168 120.534 207.596L120.401 207.689C118.932 208.703 116.504 209.832 115.684 207.559L115.591 207.35C115.17 206.389 114.798 205.348 115.213 204.334ZM106.587 203.261C107.729 202.595 108.135 204.803 107.844 205.544C107.377 206.732 106.103 207.394 104.834 207.847L104.838 207.713C104.894 206.356 105.347 203.987 106.587 203.261ZM125.805 197.75C125.831 197.91 125.789 198.104 125.784 198.252C125.588 200.854 124.431 203.353 122.821 205.384C121.895 202.624 123.089 198.978 125.805 197.75ZM153.253 194.496C153.993 194.301 154.777 194.356 155.54 194.562C155.485 195.429 155.673 196.297 156.05 197.093C154.082 203.008 149.453 198.455 153.253 194.496Z" fill="black"/>
<path fill-rule="evenodd" clip-rule="evenodd" d="M130.31 50.4504C139.769 50.4504 151.117 55.0377 152.082 55.1295L152.108 55.1308C152.616 55.1308 154.6 56.6427 158.059 59.6664L154.312 66.9778L154.615 67.2675C156.067 68.6593 157.305 69.9279 158.283 70.9279C166.267 79.0933 167.702 111.153 165.821 122.333C163.939 133.513 160.454 144.454 144.229 144.454C128.004 144.454 109.953 134.694 107.173 131.655C105.319 129.629 103.237 128.658 100.926 128.743C100.831 128.623 100.737 128.503 100.643 128.384L100.303 128.336C97.1055 127.872 94.814 127.249 93.4293 126.465C90.7244 124.934 87.7514 116.886 87.7514 115.113C87.7514 113.358 83.312 100.59 83.2233 99.2387L83.2219 99.2013C83.2219 98.0717 77.4224 92.8794 77.4224 91.2304C77.4224 89.5814 76.2534 89.6814 77.4224 83.8707L77.762 82.1636C79.006 75.9768 81.4408 65.7324 90.7244 61.2809C100.926 56.3891 120.756 50.4504 130.31 50.4504Z" fill="white"/>
<path fill-rule="evenodd" clip-rule="evenodd" d="M89.1499 61.0512C94.2378 55.6487 123.123 47.2924 137.736 49.0637L138.175 49.1205C139.341 49.2685 140.49 49.4925 141.625 49.7968C145.291 50.6534 149.078 51.9505 152.107 54.117C154.637 55.8894 162.615 58.7839 160.263 63.4205C161.135 65.073 161.46 67.1147 160.871 68.7423C160.797 69.3045 160.624 69.8223 160.402 70.3591C162.265 73.109 163.74 76.2188 164.934 79.1766C167.02 86.6206 168.318 94.3674 168.508 101.962C169.141 116.392 167.559 133.627 154.997 142.958C147.408 148.871 135.52 149.069 126.992 141.738C126.508 141.165 124.232 139.619 124.992 139.348C125.218 139.587 125.45 139.819 125.687 140.048C125.676 140.022 125.674 139.997 125.678 139.969L125.456 139.768C125.037 139.38 124.494 138.817 125.112 138.927C125.139 138.959 125.169 138.987 125.198 139.018C125.329 139.097 125.428 139.165 125.505 139.225L125.545 139.257L125.533 139.244C125.177 138.864 124.963 138.477 125.496 138.724L125.566 138.758C125.803 139.008 126.044 139.247 126.289 139.479C126.285 139.452 126.289 139.424 126.304 139.395L126.075 139.174C125.852 138.955 125.886 138.954 125.995 138.777C125.521 138.113 126.406 138.508 126.468 138.767C127.022 138.636 127.508 139.676 127.865 139.802C143.498 151.826 166.186 141.157 165.818 107.653L165.813 106.998C165.705 96.2844 164.804 85.2732 160.375 75.5752C159.944 74.6411 159.462 73.7323 158.932 72.853C158.566 72.1936 158.175 71.5511 157.755 70.9255C156.578 70.8304 155.416 70.6148 154.271 70.2809C153.878 70.1816 153.489 70.0717 153.101 69.9427C147.422 70.2526 141.87 70.5897 136.175 70.9092L134.396 71.0201C129.572 71.3303 124.583 71.8273 120.69 74.8123C116.87 77.5298 116.853 82.8886 113.583 85.8722C108.921 89.038 108.887 91.8927 107.989 96.5581C108.055 100.075 110.493 105.185 106.02 106.665C106.774 107.741 105.722 107.224 105.64 106.847C105.631 106.849 105.623 106.851 105.616 106.851C106.289 108.101 105.3 107.314 105.213 106.912C105.16 106.897 105.107 106.859 105.054 106.806C105.732 107.902 104.637 107.135 104.702 106.935C103.392 104.922 100.698 104.61 98.7985 105.143C98.7752 105.215 98.691 105.221 98.6381 105.183C90.562 106.934 92.6457 123.66 100.922 122.043C101.276 121.97 101.268 122.141 101.338 122.157C101.147 121.655 101.686 121.859 101.68 121.965L101.713 121.963C101.739 121.961 101.728 121.958 101.748 121.965C101.563 120.938 102.603 122.425 102.521 122.487C102.553 122.468 102.589 122.457 102.621 122.453L102.585 122.355C102.412 121.895 102.427 122.086 102.428 121.823C102.298 121.497 102.289 121.64 102.319 121.427C102.775 121.074 102.91 122.146 103.062 122.224C102.801 121.861 103.008 121.564 103.254 121.761C105.118 125.684 107.526 129.369 110.638 132.272C110.978 132.54 111.323 132.805 111.679 133.054C113.003 134.207 115.033 134.949 116.272 135.971C116.272 135.988 116.264 136.009 116.252 136.03L116.28 136.055L116.309 136.083L116.74 136.29C116.866 136.398 116.98 136.518 117.082 136.651C117.19 136.776 117.284 136.913 117.365 137.059C117.405 137.237 117.316 137.311 117.147 137.235C117.073 137.209 116.999 137.18 116.925 137.152C116.93 137.158 116.932 137.163 116.936 137.167C116.96 137.204 117.124 137.584 116.935 137.522L116.913 137.514C116.809 137.475 116.706 137.433 116.604 137.393C116.725 137.543 116.834 137.706 116.932 137.843C117.035 137.951 117.098 138.078 117.124 138.222C117.12 138.302 117.075 138.336 116.995 138.325C116.873 138.285 116.752 138.243 116.632 138.198L116.666 138.264C116.751 138.431 116.872 138.713 116.657 138.619C116.473 138.562 116.296 138.496 116.118 138.424C116.103 138.454 116.074 138.465 116.015 138.437C115.451 138.236 114.906 137.991 114.384 137.702C113.925 137.368 113.463 137.04 113.002 136.708C112.569 136.448 112.151 136.159 111.752 135.833C109.08 134.107 106.741 131.914 104.885 129.472C101.782 132.16 95.5773 129.592 91.7392 127.487C88.3443 125.606 87.01 122.128 86.665 118.378C85.9477 113.33 81.8238 111.602 82.1107 100.525C82.1043 100.527 82.0978 100.527 82.0893 100.527C81.9393 100.483 81.7938 100.424 81.6564 100.348C81.5149 100.28 81.3818 100.2 81.2569 100.102L81.1027 99.889C81.0226 99.8446 80.9508 99.7981 80.8959 99.7516L80.8674 99.7883C80.7772 99.8972 80.8378 99.7334 80.8431 99.7009L80.5752 99.3364C79.9399 98.4687 79.243 97.4952 78.6753 96.7166L78.6574 96.7482C78.6445 96.7721 78.6377 96.7894 78.6438 96.7969C77.2927 94.855 76.0222 92.5095 75.6691 90.2387C75.2523 88.4896 75.4152 86.6872 75.7788 85.067C77.3377 79.3933 82.4445 66.5542 89.1499 61.0512ZM125.815 139.516L125.73 139.44L125.805 139.534C125.844 139.582 125.884 139.625 125.949 139.669C125.944 139.655 125.944 139.64 125.946 139.623C125.903 139.59 125.859 139.554 125.815 139.516ZM137.672 51.9146C127.762 51.0622 118.014 53.2463 108.558 55.89L107.905 56.0776C102.528 57.6126 96.8422 58.9938 92.298 62.2792C85.9492 67.1438 82.6708 74.8826 79.8098 82.0277C77.3116 87.3364 78.5887 93.3225 82.3535 97.0294C82.7452 93.3458 83.413 89.7699 84.4566 86.2228C84.6744 85.6687 84.5097 85.4871 84.9791 85.4148C85.6881 94.9738 82.1961 102.036 89.1066 113.365C92.1052 118.711 88.634 122.622 97.1016 125.435L97.3308 125.522C99.0949 126.188 101.021 126.714 102.749 126.342L102.594 126.09C102.437 125.83 102.389 125.704 102.618 125.593C102.612 125.581 102.604 125.568 102.595 125.553C102.409 125.202 102.23 124.847 102.058 124.488C101.989 124.511 101.919 124.528 101.847 124.547C101.894 124.634 101.9 124.72 101.769 124.75C101.304 124.91 100.826 124.974 100.336 124.944L100.231 124.936C99.6782 124.902 99.3299 124.801 99.0182 124.708C98.9149 124.691 98.8114 124.674 98.7098 124.653C97.7073 124.431 96.6461 123.865 95.9593 123.304C88.1302 118.856 88.9393 103.713 98.5896 102.281C98.7875 92.747 103.321 76.6616 110.844 67.5762C117.644 59.2192 136.209 55.5971 149.125 56.8743C149.313 56.9367 149.502 56.9996 149.69 57.0633C151.683 57.2404 153.582 58.1285 155.576 58.541C154.144 57.4676 152.52 56.7526 150.847 56.1449C147.513 54.1052 143.692 53.0015 140 52.2231C139.235 52.035 138.46 51.9315 137.672 51.9146ZM98.1477 109.941C98.6665 109.659 98.6072 109.931 98.7265 109.852C102.459 109.547 106.483 112.816 108.569 115.542C108.405 115.713 107.959 115.205 107.881 115.125C107.87 115.136 107.858 115.144 107.845 115.148L107.903 115.23C108.749 116.444 107.072 115.016 106.915 114.722C106.888 114.736 106.86 114.745 106.829 114.738C106.962 114.869 107.367 115.209 107.437 115.451L107.545 115.54C108.559 116.409 108.475 117.063 107.323 115.829C107.35 115.886 107.361 115.939 107.342 115.981L107.382 116.008C107.948 116.404 108.414 117.507 107.23 116.374C107.353 117.202 106.057 115.602 106.015 115.613C103.772 113.852 100.469 112.139 97.6554 111.908L97.5586 111.897C97.0422 111.831 96.7981 111.678 96.9794 111.34C96.3434 111.189 96.4924 110.875 96.7934 110.885C96.3449 110.59 96.7486 110.308 97.0089 110.418C96.83 109.923 97.5477 110.253 97.6132 110.184C97.9856 109.609 98.086 110.088 98.1477 109.941ZM90.3245 79.221C92.1171 78.5641 97.4121 80.5305 96.9885 83.1348C96.7362 83.7327 95.9051 84.0753 95.3209 83.7378L94.5585 83.2255C93.2317 82.3366 92.035 81.5571 90.6105 80.7818C89.8352 80.3969 89.5014 79.5799 90.3245 79.221ZM100.523 75.3509L99.8311 74.9002C96.0951 72.4541 90.8136 68.7477 100.18 72.5824C101.248 73.0404 102.666 73.3114 103.249 74.3284C104.164 76.2029 101.756 76.3288 100.523 75.3509ZM100.943 64.3757C100.643 63.2376 104.374 64.5731 105.46 64.9252L105.625 64.9877C106.681 65.3815 107.892 65.7468 108.524 66.6587C109.264 67.9188 107.766 68.1798 106.838 67.6107C104.935 66.3666 102.849 65.428 100.943 64.3757ZM110.429 59.074C108.33 56.7802 113.949 58.9776 114.791 59.5876L114.815 59.6056C115.443 60.0479 115.316 61.0007 114.726 61.2805C113.047 61.3124 111.811 59.9125 110.429 59.074ZM119.984 56.5608C116.646 54.1609 121.043 55.3024 122.571 56.2429C123.612 57.1613 122.539 58.7115 119.984 56.5608Z" fill="black"/>
<path fill-rule="evenodd" clip-rule="evenodd" d="M152.125 125.777C153.46 125.466 154.509 126.597 154.246 127.899C153.969 129.278 152.487 129.751 151.244 129.707C149.835 129.659 148.427 129.368 147.011 129.309C145.557 129.249 144.096 129.238 142.641 129.277C141.295 129.314 139.913 129.551 138.578 129.338C138.057 129.255 138.107 128.568 138.445 128.324C139.45 127.599 140.752 127.304 141.936 126.999C143.144 126.689 144.379 126.452 145.617 126.307C146.873 126.16 148.138 126.086 149.402 126.072C149.978 126.065 150.683 126.193 151.244 126.09C151.53 126.037 151.821 125.848 152.125 125.777ZM148.271 107.866C149.866 108.836 152.297 111.098 150.581 113.503C148.561 115.624 145.652 113.193 144.219 112.093C142.89 111.241 141.396 113.433 142.63 114.428C152.987 122.099 157.19 108.12 149.078 106.726C148.185 106.572 147.853 107.566 148.271 107.866ZM136.702 100.622C138.836 100.267 139.21 103.311 137.095 103.523C136.651 103.568 136.209 103.607 135.769 103.645C135.812 103.783 135.84 103.925 135.856 104.071C135.876 104.195 135.891 104.326 135.904 104.476C135.971 105.225 135.441 106.004 134.82 106.367C134.176 106.744 133.251 106.794 132.611 106.367C132.281 106.146 131.952 105.897 131.77 105.533C131.526 105.158 131.393 104.724 131.379 104.279C130.406 104.532 129.416 104.874 128.433 105.055C128.469 105.09 128.505 105.128 128.539 105.17C128.565 105.202 128.529 105.261 128.491 105.232L127.998 105.123C127.847 105.143 127.695 105.159 127.544 105.168L127.547 105.155C127.294 105.151 127.087 104.852 127.314 104.612C128.182 103.694 129.536 103.084 130.771 102.574L131.961 102.086C133.483 101.468 135.089 100.891 136.702 100.622ZM153.871 101.564C155.268 101.404 156.652 101.467 158.052 101.553C160.409 101.696 159.42 105.134 157.529 104.34C157.549 104.466 157.554 104.592 157.539 104.709C157.465 105.313 157.268 105.824 156.714 106.149C156.199 106.45 155.546 106.449 155.031 106.149C154.48 105.827 154.231 105.374 154.091 104.785C153.982 104.328 154.025 103.946 154.088 103.493C154.109 103.344 154.175 103.204 154.265 103.078C154.133 103.045 154.001 103.014 153.869 102.984C152.693 102.716 151.533 102.77 150.36 102.6C150.235 102.582 150.215 102.38 150.325 102.329C151.378 101.834 152.718 101.695 153.871 101.564ZM136.487 90.9473C137.294 90.6394 138.307 91.1515 138.719 91.8559C139.186 92.6552 138.986 93.578 138.41 94.2516C137.525 95.2848 135.84 95.9214 134.598 96.511L134.498 96.5587C133.223 97.1741 131.913 97.7393 130.585 98.2317C129.279 98.7163 127.921 99.0959 126.567 99.4218C125.853 99.5937 125.124 99.7357 124.395 99.8253C123.819 99.8959 123.375 99.7378 122.824 99.7378C122.743 99.738 122.718 99.6313 122.784 99.5903C123.299 99.2665 123.681 98.8402 124.242 98.5403C124.827 98.2281 125.414 97.9212 126.003 97.6173C127.194 97.0031 128.341 96.3196 129.49 95.6317C130.701 94.9065 131.884 94.1429 133.035 93.3254C134.161 92.5255 135.199 91.4387 136.487 90.9473ZM150.861 90.2896C151.868 90.0941 152.866 90.5709 153.164 91.5979C153.45 92.5817 153.151 92.7926 153.914 93.4966C154.521 94.0577 155.177 94.5585 155.838 95.0516L156.811 95.7755C158.575 97.0811 160.352 98.3156 162.379 99.1965C162.551 99.2709 162.452 99.5256 162.289 99.529C159.067 99.5911 155.976 99.1547 153.067 97.7114C151.709 97.0372 150.343 96.1844 149.556 94.8385C148.644 93.28 148.67 90.7144 150.861 90.2896Z" fill="black"/>
</svg>
