<svg width="240" height="324" viewBox="0 0 240 324" fill="none" xmlns="http://www.w3.org/2000/svg">
<path fill-rule="evenodd" clip-rule="evenodd" d="M152.881 154.95C147.65 150.085 149.329 145.392 147.581 139.463C144.201 132.128 137.228 124.903 129.153 123.338C125.121 120.976 119.851 122.315 117.097 126.019C114.509 126.705 114.424 130.284 113.559 132.401C111.96 136.56 110.738 140.797 109.736 145.117C78.5913 151.603 54.7035 172.817 49.7233 204.992C48.8719 209.668 48.1751 214.375 47.5206 219.082C47.1372 223.137 45.1069 229.571 49.2805 232.195C49.3999 235.104 49.7489 238.042 50.8559 240.78C51.281 243.508 51.6245 246.255 52.5228 248.885C54.5032 253.439 54.8085 258.435 57.0325 262.975C58.5866 266.324 60.8681 269.012 63.6896 271.354C64.8815 272.399 66.5187 273.533 66.769 275.168C66.6942 277.632 68.5633 281.194 71.5153 280.037C73.6105 280.825 75.8605 281.03 78.0799 281.014C115.69 279.387 153.379 279.25 190.99 281.069C192.309 281.13 193.561 279.864 193.507 278.551C192.907 264.228 191.426 249.947 189.097 235.802C183.899 206.513 178.346 173.752 152.881 154.95Z" fill="white"/>
<path fill-rule="evenodd" clip-rule="evenodd" d="M112.644 140.399L112.784 140.011C113.636 137.656 114.679 137.481 114.177 139.763L114.1 140.107C113.665 142.06 113.144 144.078 112.077 145.787C110.237 148.733 105.415 149.826 102.2 150.874C102.21 150.948 102.21 151.022 102.202 151.092C104.167 151.392 106.184 152.339 107.83 153.4C109.336 154.374 110.697 155.467 111.711 156.919L116.672 154.763C118.309 154.053 119.959 153.207 121.738 152.922C124.246 152.52 128.112 153.865 127.816 157.029C127.778 157.456 127.51 157.773 127.18 157.929C127.431 157.908 127.685 157.901 127.936 157.91C129.614 157.967 131.984 159.453 131.108 161.412C130.884 161.917 130.237 161.585 130.186 161.163C129.855 158.384 126.984 159.037 124.992 159.491C123.189 159.901 121.408 160.404 119.665 161.019C117.802 161.676 116 162.513 114.337 163.589C112.622 164.7 111.018 166.049 111.124 168.268C111.128 168.315 111.054 168.338 111.033 168.293C110.148 166.404 111.872 164.411 113.272 163.323C115.3 161.748 117.675 160.615 120.075 159.732C121.309 159.278 122.581 158.922 123.858 158.606L124.153 158.533C124.903 158.352 125.68 158.142 126.462 158.016C126.173 157.945 125.921 157.735 125.809 157.356L125.794 157.303C124.666 152.833 118.619 156.429 116.171 157.508C114.419 158.28 112.647 159.02 110.915 159.837L110.692 159.944C109.349 160.589 107.949 161.35 107.046 162.564C104.731 165.671 106.81 169.866 107.541 173.146C107.75 174.087 107.95 175.084 107.963 176.05C107.973 176.841 107.731 177.587 107.535 178.347L107.42 178.796C107.522 178.798 107.625 178.904 107.591 179.011C106.77 181.695 105.379 184.24 104.025 186.688C102.643 189.186 101.222 191.671 99.6962 194.083C94.2709 202.659 88.0596 210.756 81.2462 218.274C77.98 221.877 74.4476 225.24 71.2596 228.915C69.7765 230.625 68.3887 232.417 67.2307 234.37C66.6054 235.425 66.0434 236.52 65.5702 237.654L65.4768 237.879C65.0888 238.807 64.7075 239.624 63.9857 240.366C63.6267 240.736 62.9082 240.58 62.7941 240.051C62.2638 237.566 64.0218 234.882 65.2978 232.853C66.6751 230.663 68.285 228.621 69.9962 226.683C70.48 226.134 70.9723 225.593 71.4709 225.058C69.2401 225.671 66.8906 225.833 64.6174 226.235C62.2892 226.645 59.9758 227.133 57.7197 227.844C55.6469 228.495 53.6737 229.355 51.7873 230.433C50.8828 230.95 49.9978 231.519 49.1697 232.155C49.0913 232.214 49.0152 232.278 48.9392 232.339C50.2913 235.738 51.3307 239.263 52.4166 242.748C53.158 245.131 53.8827 247.52 54.6026 249.91L56.2195 255.29C57.3859 259.168 58.3575 263.386 60.4133 266.914C61.3007 268.436 62.5005 269.811 63.8737 270.915C64.5394 271.452 65.264 271.859 66.0159 272.255C66.4892 272.504 66.9075 272.827 67.3469 273.123C67.6362 272.793 68.075 272.589 68.6135 272.675L68.6737 272.686C70.3744 273.02 72.1281 272.417 73.6406 271.673C75.2166 270.896 76.7866 269.983 78.1195 268.833C80.7413 266.569 82.9152 263.748 85.0345 261.026C92.5892 251.312 99.0225 240.673 104.266 229.543C106.93 223.883 109.417 218.128 111.753 212.324C112.922 209.425 114.073 206.519 115.195 203.6L115.343 203.209C116.348 200.531 117.228 197.624 118.843 195.262C118.856 195.241 118.873 195.224 118.892 195.211C118.896 195.143 118.918 195.08 118.951 195.025C119.452 194.224 120.411 193.989 121.242 193.618C122.177 193.197 123.111 192.778 124.045 192.36C124.78 192.03 125.857 191.751 126.409 191.126C127.034 190.422 127.244 189.169 127.548 188.298C128.237 186.33 128.982 184.386 129.728 182.439C130.383 180.729 130.949 178.895 131.868 177.302C132.653 175.942 133.774 175.225 135.07 174.442L135.351 174.273C135.892 173.942 136.47 173.547 136.685 172.928C137.036 171.918 136.256 170.952 135.428 170.47C133.588 169.403 131.384 170.635 129.77 171.576C128.148 172.523 126.565 173.66 124.831 174.393C124.793 174.408 124.765 174.351 124.793 174.325C126.187 173.048 127.891 171.995 129.493 170.956L129.891 170.697C130.953 170.001 132.164 169.323 133.444 169.135C133.178 169.046 133.26 168.701 133.514 168.67C136.032 168.363 138.589 168.756 141.082 168.169C143.306 167.645 145.248 166.387 146.803 164.732C148.269 163.173 149.431 161.368 150.515 159.529C151.144 158.459 151.759 157.382 152.397 156.316C152.492 156.156 152.587 155.978 152.684 155.788C151.543 155.524 150.381 154.674 149.606 154.015C148.402 152.992 147.523 151.61 146.911 150.168C145.474 146.784 145.588 142.915 146.663 139.453C146.729 139.241 147.042 139.231 147.103 139.453C147.929 142.418 148.003 145.633 149.3 148.46C149.819 149.593 150.544 150.612 151.436 151.479C151.888 151.916 152.344 152.284 152.898 152.588C153.491 152.916 154.125 153.023 154.596 153.543C154.624 153.573 154.649 153.603 154.672 153.634C154.948 153.597 155.186 153.637 155.376 153.756L155.416 153.782L155.424 153.77C154.573 153.189 153.717 152.613 152.811 152.106C152.57 151.971 152.746 151.648 152.986 151.69L153.583 151.795C155.575 152.15 157.605 152.554 159.424 153.44C161.442 154.425 163.368 155.562 165.206 156.849C168.827 159.381 172.123 162.372 175.007 165.717C180.327 171.891 184.087 179.313 186.413 187.095C189.32 196.819 190.444 207.034 191.672 217.079C192.258 221.888 192.785 226.706 193.253 231.529L193.379 232.844C193.613 235.325 193.867 237.802 194.105 240.277C194.528 240.941 194.558 241.729 194.308 242.414C194.492 244.42 194.657 246.428 194.788 248.442C195.122 253.639 195.337 258.853 195.43 264.063C195.523 269.346 195.331 274.622 195.269 279.906C195.244 282.129 191.876 282.12 191.824 279.906C191.689 274.068 191.27 268.228 190.972 262.395C190.681 256.701 190.41 251.01 190.062 245.32C190.028 244.779 189.996 244.236 189.967 243.695C189.475 243.882 188.867 243.96 188.351 244.062L188.224 244.088C187.186 244.309 186.146 244.468 185.091 244.564L184.75 244.593C183.793 244.659 178.89 244.764 175.991 244.236C176.222 247.958 176.454 251.68 176.71 255.399C177.001 259.641 177.056 263.889 177.27 268.135C177.377 270.257 177.506 272.365 177.777 274.474C177.9 275.434 178.026 276.395 178.177 277.352L178.254 277.83C178.389 278.652 178.558 279.356 178.21 280.089C178.514 281.03 178.041 282.216 176.794 282.12C168.804 281.522 160.795 281.269 152.784 281.233C138.952 281.167 125.129 281.722 111.304 282.102L107.568 282.203C94.6178 282.558 81.604 282.936 68.714 281.503C68.6864 283.154 65.6019 283.135 65.7666 281.294L65.8071 280.85C65.9927 278.847 66.2333 276.772 66.8547 274.844C66.3392 274.858 65.8216 274.838 65.3357 274.677C64.645 274.451 63.9814 274.041 63.3814 273.635C62.0462 272.734 60.9181 271.625 59.9443 270.344C58.0321 267.831 56.7624 264.853 55.7589 261.879C54.6919 258.71 53.7156 255.504 52.8035 252.287L51.8218 248.803C50.5756 244.372 49.352 239.873 48.6096 235.325C48.5295 235.431 48.4195 235.522 48.2739 235.587C44.3019 237.363 40.9047 233.721 40.2328 230.04C39.8373 227.868 39.93 225.646 39.9633 223.448L39.9667 223.213C40.0005 220.681 40.011 218.149 40.1401 215.619C40.5667 207.161 42.5378 198.965 45.6033 191.086C48.4913 183.669 51.9814 176.194 56.4774 169.606C58.6131 166.478 61.0765 163.473 64.0448 161.095C67.1758 158.59 70.6957 156.686 74.3824 155.135C78.1493 153.55 82.0554 152.296 85.9662 151.113C90.2802 149.807 94.645 148.684 99.0838 147.896C99.4068 147.839 99.7237 147.934 99.9035 148.23C100.06 148.49 100.205 148.756 100.347 149.027C100.953 148.646 101.885 148.553 102.492 148.367C104.395 147.778 107.819 147.425 109.328 146.081C111.048 144.549 111.875 142.507 112.644 140.399ZM48.2695 232.929C48.0014 233.174 47.7328 233.419 47.4563 233.649C47.8173 233.497 48.1448 233.599 48.3857 233.823C48.3436 233.525 48.3054 233.227 48.2695 232.929ZM135.591 175.769C135.181 176.023 134.775 176.276 134.406 176.581C133.077 177.68 132.628 179.473 132.075 181.038L132.04 181.137C131.359 183.031 130.672 184.929 129.952 186.808C129.726 187.398 129.515 188.029 129.289 188.666C132.335 191.595 135.449 194.493 138.709 197.183C144.675 202.105 151.176 206.381 158.084 209.864C161.636 211.656 165.303 213.288 169.077 214.554C170.44 215.01 171.827 215.412 173.237 215.71L173.239 215.689C173.245 215.638 173.328 215.615 173.336 215.676L173.344 215.733C173.948 215.858 174.557 215.964 175.168 216.046C176.325 216.2 177.496 216.27 178.664 216.26C179.389 216.253 180.107 216.164 180.821 216.2C177.659 213.349 174.479 210.519 171.291 207.702C165.248 202.359 159.173 197.058 153.086 191.766C150.383 189.416 147.651 187.094 144.96 184.728L142.368 182.438C140.078 180.412 137.802 178.354 135.818 176.038L135.591 175.769ZM108.584 191.477C108.4 191.25 108.679 190.963 108.906 191.155C110.255 192.299 111.781 192.8 113.401 193.415C113.779 193.558 113.75 194.161 113.302 194.154C111.419 194.121 109.723 192.903 108.584 191.477ZM127.497 163.325L127.632 163.271C129.536 162.524 132.005 162.153 133.503 163.885C134.589 165.142 134.866 167.522 133.451 168.619C133.111 168.883 132.39 168.657 132.606 168.127C133.227 166.611 133.358 164.627 131.403 164.043C129.708 163.537 127.726 164.525 126.182 165.212L125.74 165.407C122.73 166.744 119.74 168.364 117.895 171.195C117.846 171.267 117.717 171.221 117.749 171.134C119.222 167.055 123.73 164.859 127.497 163.325ZM105.193 154.59L104.462 154.313C102.6 153.618 100.283 152.912 99.128 154.913C98.6953 155.661 98.323 156.587 98.162 157.448L98.1414 157.565C98.097 157.832 98.0397 158.117 98.2301 158.322C98.5235 158.643 99.4785 158.8 99.863 158.939L102.281 159.817L103.488 160.258C104.038 160.459 104.747 160.66 105.153 161.101C106.573 159.237 108.831 158.176 110.963 157.244C109.043 156.35 107.181 155.338 105.193 154.59Z" fill="black"/>
<path fill-rule="evenodd" clip-rule="evenodd" d="M110.173 51.5414C142.195 49.9661 163.922 75.2293 164.857 85.3035C165.506 92.2965 165.065 101.623 165.065 107.872C165.065 111.061 166.674 120.757 164.857 125.406C160.812 135.753 156.242 143.858 143.579 143.858C130.916 143.858 111.612 137.293 104.984 128.824C103.773 127.278 88.7343 115.96 88.7343 107.064C88.7343 88.0838 87.3244 52.6655 110.173 51.5414Z" fill="white"/>
<path fill-rule="evenodd" clip-rule="evenodd" d="M88.3282 31.0414C90.1532 30.4708 91.3179 31.2923 92.1488 32.5651C92.332 32.5294 92.5092 32.5317 92.7065 32.5792C92.7553 32.5911 92.8734 32.6357 92.9628 32.6707C93.0319 32.6997 93.0942 32.7348 93.1542 32.772L93.1899 32.7532C93.3268 32.6037 93.4707 32.4674 93.626 32.3575C93.975 32.1107 94.3346 32.0388 94.6758 32.0895L94.8338 32.0314C96.1846 31.5605 97.6491 31.7791 98.565 32.9432C98.7422 33.1681 98.8855 33.4185 99.0078 33.6827C99.2824 33.7727 99.5402 33.9029 99.7622 34.0631C99.9182 33.9898 100.083 33.9281 100.259 33.8826C101.256 33.6269 102.303 33.8683 103.115 34.4795C103.511 34.7769 103.801 35.1492 104.022 35.5745C104.273 35.6335 104.521 35.7396 104.754 35.882C104.954 35.7825 105.157 35.689 105.365 35.625C106.126 35.3912 106.942 35.3052 107.734 35.3642C109.44 35.4908 111.09 37.4404 109.95 39.1147L109.914 39.1653C109.77 39.3672 109.644 39.5758 109.527 39.7878C109.936 39.9655 110.329 40.2033 110.692 40.5013C112.47 41.9586 112.63 44.2052 112.297 46.3245L112.283 46.4127H112.287C113.232 46.5024 114.047 47.4892 113.489 48.4173L113.462 48.4607C112.707 49.628 112.059 50.9175 111.338 52.1458C109.341 52.8659 107.416 53.7527 105.603 54.8272C104.474 55.8168 103.399 56.863 102.453 58.0269C101.981 58.6081 101.547 59.2233 101.148 59.8612C101.467 60.0144 101.861 60.0066 102.194 59.698C105.156 56.9524 108.734 55.0255 112.544 53.7341C112.819 53.6409 112.999 53.4655 113.1 53.258C114.791 52.7759 116.512 52.402 118.251 52.1374C118.73 51.6806 119.232 51.244 119.709 50.7892C120.318 50.2088 121.081 50.2173 121.651 50.5818C121.934 50.4527 122.223 50.3388 122.517 50.2363L122.7 50.1741C122.776 50.1492 122.849 50.1202 122.923 50.0974C124.963 49.4736 126.828 49.7052 128.835 50.2178L129.092 50.2847C130.027 50.5329 130.616 50.4932 131.521 50.2648L131.623 50.2386C132.586 49.9875 133.615 49.8015 134.599 50.0659C135.628 50.3427 136.311 50.9581 137.012 51.7016L137.082 51.7764C137.409 52.1265 137.598 52.1647 138.026 52.1561L138.485 52.1425C140.216 52.0951 141.911 52.1681 143.208 53.5076C143.687 54.0029 144.202 54.704 144.51 55.3438L144.555 55.4393C144.569 55.4704 144.582 55.4964 144.594 55.5196C144.78 55.4896 145.069 55.3719 145.207 55.345C147.094 54.979 148.668 55.5431 149.879 57.0303C150.144 57.3558 150.545 57.9949 150.822 58.3462C150.919 58.4286 151.011 58.517 151.098 58.6098C151.553 58.9004 152.197 58.882 152.707 58.9839C154.097 59.2607 155.583 59.7895 156.289 61.1128C156.585 61.665 156.694 62.2693 156.819 62.8729C157.286 63.18 157.652 63.6226 157.936 64.1017C158.282 64.6833 158.429 65.3958 158.827 65.9451C159.116 66.3441 159.558 66.5572 159.978 66.8011L160.139 66.8954C161.384 67.6372 162.359 68.4604 162.769 69.9138L162.804 70.0431C162.871 70.2658 163.104 70.9012 162.901 70.8057C163.076 70.9023 163.374 70.9363 163.533 70.9892C164.397 71.2751 165.148 71.7372 165.608 72.5485C165.959 73.1661 166.022 73.8098 166.122 74.4906L166.165 74.7654C166.176 74.8319 166.189 74.9091 166.202 74.984L166.216 75.0577L166.219 75.0594C166.375 75.127 166.529 75.2003 166.68 75.2794C167.396 75.701 167.885 76.4329 167.885 77.2802C167.885 77.6915 167.757 78.0119 167.57 78.2979C167.721 78.527 167.838 78.7711 167.927 79.0431C168.1 79.5742 168.112 80.155 168.054 80.7045C167.984 81.3639 167.815 81.9644 167.615 82.5942C167.539 82.8373 167.508 83.1769 167.392 83.409C167.605 83.681 167.733 84.0134 167.693 84.3414C167.637 84.8106 167.423 85.3591 166.998 85.6222C166.79 86.6473 166.343 87.6947 165.903 88.5327C165.852 88.63 165.791 88.7166 165.723 88.7885C165.785 92.1342 165.54 95.5033 165.523 98.8445C165.504 102.482 165.58 106.122 165.706 109.754C165.92 115.776 166.683 122.002 164.906 127.874C163.452 132.68 160.541 136.805 156.637 139.933C152.64 143.133 147.821 144.985 142.704 145.274C140.101 145.42 137.454 145.124 134.935 144.45L134.666 144.377C132.23 143.707 129.408 142.684 127.615 140.893C126.668 139.946 127.625 137.94 129.014 138.492C130.389 139.039 131.623 139.849 132.987 140.419C134.206 140.929 135.479 141.32 136.767 141.607C139.351 142.188 142.091 142.315 144.717 141.954C154.199 140.656 161.587 132.779 163.044 123.439C163.448 120.853 163.44 118.224 163.413 115.61L163.383 112.747C163.36 110.351 163.352 107.954 163.44 105.559C163.552 102.478 163.769 99.3983 164.061 96.3297L164.213 94.7329C164.393 92.8646 164.596 90.9821 164.946 89.1393C164.659 89.1543 162.397 85.2832 161.142 83.1201C160.684 82.7565 160.297 82.3049 160.147 81.7205C160.116 81.5985 160.1 81.4755 160.091 81.3523C159.818 80.9239 159.53 80.5065 159.227 80.1016L159.161 80.0719C159.11 80.0487 159.07 80.0293 159.047 80.0162C158.385 79.6406 157.832 79.0716 157.454 78.4122C157.326 78.1899 157.222 77.9578 157.137 77.7205C156.597 77.1906 156.032 76.6851 155.439 76.211C155.381 76.1645 155.32 76.121 155.262 76.0751C154.506 75.7932 153.843 75.3684 153.36 74.7565C153.158 74.6314 152.955 74.5088 152.749 74.3888C152.134 74.383 151.512 74.2395 150.907 73.9908C149.8 73.536 148.916 72.6371 147.803 72.2205C146.627 71.7803 145.388 72.7808 144.139 72.6003C143.82 72.5542 143.503 72.4572 143.209 72.3165C142.505 73.0621 141.759 73.7651 140.935 74.3803C139.74 75.2735 138.518 75.6816 137.133 76.0851C136.447 76.7366 135.678 77.3684 134.751 77.4612C132.606 79.1765 130.312 80.6234 127.898 81.9667C127.51 82.1827 127.124 82.2802 126.757 82.2827C126 82.7582 125.174 83.1241 124.301 83.3773C124.027 83.4565 123.745 83.4732 123.468 83.4392L122.71 84.0566C122.183 84.486 121.62 84.6912 121.082 84.7046C120.755 84.9554 120.415 85.1928 120.066 85.421C119.692 85.666 119.207 85.7674 118.719 85.7378C117.974 86.4666 117.009 86.5431 116.2 86.2075C116.089 86.2726 115.974 86.3343 115.846 86.3949C115.672 86.4776 115.489 86.5473 115.304 86.6037C114.46 87.513 113.226 87.9898 111.989 87.8651C111.065 88.4311 109.99 88.7255 108.939 88.6593C108.779 89.465 108.646 90.2736 108.534 91.085L108.522 91.6794C108.521 91.7757 108.521 91.8508 108.522 91.9002L108.523 91.9198C108.626 94.5256 108.682 97.1326 108.784 99.7387L108.793 99.9444C108.909 102.221 109.469 106.373 106.123 106.282C104.876 106.248 103.64 105.33 102.669 104.575L102.532 104.468C102.458 104.41 102.381 104.351 102.305 104.291C101.579 104.196 100.864 104.02 100.131 103.993C99.2269 103.961 98.2762 104.054 97.3952 104.259C95.8403 104.621 94.336 105.329 93.322 106.612C93.2332 106.724 93.1508 106.842 93.0727 106.96C93.0008 107.203 92.8783 107.427 92.7156 107.622C91.7565 109.78 92.3102 112.631 93.3705 114.605C94.634 116.956 96.6333 118.582 99.1472 119.4L99.2734 119.441C100.991 119.977 101.648 121.017 102.582 122.463C103.456 123.82 104.46 125.084 105.537 126.284C107.623 128.607 110.549 130.524 111.761 133.464C112.006 134.056 111.305 134.613 110.762 134.461C108.635 133.863 107.143 132.348 105.597 130.841C104.526 129.797 103.497 128.712 102.531 127.572C102.329 127.665 102.106 127.728 101.874 127.757C100.849 127.882 99.7922 127.83 98.8952 127.277C98.4817 127.315 98.051 127.171 97.7311 126.878C97.4377 126.609 97.1846 126.317 96.9708 126.006C96.6458 126.035 96.3268 126.044 96.0224 125.993C95.8755 125.979 95.7334 125.941 95.603 125.877C95.3609 125.782 95.1313 125.634 94.9204 125.408C94.4932 124.949 94.3295 124.301 94.4083 123.685C94.3238 123.667 94.2399 123.646 94.1571 123.618C93.5884 123.425 93.1506 123.043 92.8709 122.522C92.3704 122.241 91.9198 121.861 91.5786 121.456C91.163 120.964 90.8495 120.409 90.6653 119.796C90.4749 119.708 90.2901 119.605 90.113 119.485C88.8443 118.626 88.118 117.014 88.6162 115.524L88.6331 115.477C88.6584 115.41 88.7042 115.295 88.7603 115.166C88.7522 115.061 88.7438 114.956 88.7381 114.851L88.7205 114.533L88.4664 114.425C87.1988 113.921 86.3419 113.24 86.1896 111.814C86.1579 111.519 86.2724 111.218 86.453 110.966L86.4522 110.887C86.3698 110.844 86.2914 110.801 86.2223 110.757C85.5312 110.315 85.1066 109.524 85.1541 108.705C85.1978 107.96 85.6108 107.365 86.0753 106.815L86.208 106.661C86.219 106.648 86.2313 106.634 86.2445 106.619L85.9375 106.523C85.7383 106.459 85.5558 106.396 85.4246 106.323C84.9167 106.038 84.4861 105.653 84.2205 105.164C84.1819 105.103 84.1426 105.044 84.1071 104.979C83.7642 104.353 83.7194 103.551 83.9406 102.879C83.9668 102.8 84.0006 102.726 84.0353 102.651C83.1015 102.322 82.3825 101.642 82.2959 100.387C82.2619 99.8941 82.3698 99.4027 82.6046 98.9819C82.5526 98.6985 82.5418 98.4047 82.5754 98.1141C82.2469 97.8036 81.9917 97.4295 81.8776 96.9732C81.6619 96.1111 82.0567 95.2909 82.6436 94.5387C82.4265 93.9439 82.4153 93.2729 82.6633 92.6741C82.5678 92.3753 82.5135 92.0593 82.5105 91.7349C82.504 91.0165 82.7252 90.4165 83.0824 89.9061C82.5803 89.2919 82.3417 88.4757 82.6384 87.7108C82.8494 87.1672 83.0907 86.6699 83.3687 86.2092C83.2227 85.8587 83.1378 85.4663 83.1378 85.0269C83.1378 84.2364 83.434 83.6102 83.8872 83.0977C83.6905 82.1616 84.0904 81.0216 84.9621 80.6094C85.2906 80.4539 85.7305 80.2916 86.2151 80.1652C86.397 79.5966 86.587 79.0304 86.7874 78.4682C87.1033 77.5833 87.443 76.7107 87.803 75.8481C87.5958 76.0297 87.3784 76.199 87.1536 76.3524C86.4427 77.2566 85.5002 78.0398 84.7082 78.5084C83.138 79.4375 81.3422 78.8863 80.5671 77.3318C79.8386 77.8758 78.9644 78.1979 78.0317 78.0878C76.9741 77.9629 76.0071 77.2777 75.743 76.2089C75.7048 76.0542 75.6817 75.887 75.6794 75.7188C75.0729 76.1508 74.4382 76.5483 73.7421 76.776C72.8554 77.0659 71.9503 76.3704 71.8333 75.5038C71.787 75.1604 71.8513 74.8569 71.9879 74.6005L71.9014 74.5664C71.887 74.5604 71.8727 74.5542 71.8584 74.5475C71.3934 74.3296 71.0324 73.9301 70.8608 73.4694C69.8539 73.8591 68.7013 73.4024 68.3818 72.2947C68.0015 70.978 67.9785 69.6444 68.2762 68.3617C67.2093 67.586 66.5142 66.282 66.3959 64.9188C66.3095 63.9402 66.5429 63.0369 66.9543 62.2017C65.9453 61.8242 65.5984 60.5011 66.0779 59.5479C65.441 59.1832 65.0256 58.4098 65.0163 57.657C64.7317 57.2258 64.6407 56.6706 64.8767 56.0484C65.1879 55.2286 65.8217 54.5428 66.5474 54.0049C66.2309 53.4537 65.9958 52.8526 65.8498 52.2314C65.2485 52.0554 64.7632 51.5688 64.6644 50.8382C64.5405 49.9222 65.1433 49.1457 65.9546 48.9407C66.0446 48.6617 66.1544 48.3889 66.2903 48.1268C65.8889 47.1757 65.948 45.9731 66.4656 44.9333C66.9241 44.0139 67.6698 43.4517 68.5677 43.0628C68.3396 42.2808 68.6417 41.501 69.4022 40.9197C70.3308 40.2094 71.3491 39.6664 72.4191 39.2828C72.3241 38.0099 72.856 36.7063 74.1133 36.2624C74.4494 36.1439 74.7993 36.1001 75.1548 36.1016C75.413 35.54 75.8438 35.0835 76.406 34.6794C77.2567 34.0682 78.8465 34.4416 79.3183 35.4001L79.3413 35.4494C79.3654 35.5037 79.3914 35.5534 79.4161 35.606C79.5112 35.1406 79.7334 34.701 80.0907 34.3406C80.9837 33.4396 81.9266 33.4227 82.834 33.808C83.0005 33.395 83.202 33.0024 83.4471 32.6433C84.3367 31.3405 85.8065 31.1746 86.8827 31.8801C87.3141 31.5007 87.7956 31.2082 88.3282 31.0414ZM94.6886 109.382C96.48 108.681 98.6539 108.888 100.424 109.562L100.554 109.613C102.118 110.231 104.658 111.607 104.964 113.366C105.123 114.278 104.257 115.066 103.378 114.586C102.613 114.17 102.184 113.33 101.576 112.722C100.974 112.12 100.3 111.636 99.5647 111.211C98.0309 110.325 96.4187 109.981 94.6886 109.725C94.4943 109.698 94.5471 109.437 94.6886 109.382Z" fill="black"/>
<path fill-rule="evenodd" clip-rule="evenodd" d="M143.152 128.274C141.732 127.695 140.465 126.728 139.538 125.493C139.216 125.063 139.133 124.61 139.2 124.195C139.276 123.729 139.552 123.306 139.928 123.023C140.305 122.739 140.777 122.598 141.233 122.67C141.63 122.732 142.024 122.949 142.337 123.399L142.402 123.489C142.953 124.235 143.67 124.846 144.488 125.241C145.276 125.621 146.158 125.798 147.07 125.695C148.808 125.499 150.005 124.559 151.278 123.282C151.436 123.121 151.594 122.955 151.752 122.786C151.852 122.633 151.991 122.534 152.146 122.483C152.317 122.425 152.511 122.429 152.689 122.491C152.86 122.55 153.013 122.664 153.116 122.815C153.213 122.958 153.269 123.135 153.251 123.339C153.134 124.661 152.443 125.842 151.461 126.769C150.37 127.799 148.924 128.511 147.563 128.761C146.064 129.036 144.536 128.839 143.152 128.274ZM148.271 107.866C149.866 108.836 152.297 111.098 150.581 113.503C148.56 115.624 145.652 113.193 144.219 112.093C142.89 111.241 141.396 113.433 142.629 114.428C152.987 122.099 157.19 108.12 149.078 106.726C148.184 106.572 147.853 107.566 148.271 107.866ZM129.711 98.9429C129.887 96.7541 133.219 96.257 133.551 98.423C133.847 100.363 133.498 102.145 132.624 103.892C131.79 105.561 129.692 104.783 129.533 103.263C129.32 101.226 129.601 100.304 129.711 98.9429ZM155.076 97.9738C155.541 97.3652 156.212 96.9496 157.015 97.1845C159.526 97.9185 158.786 101.485 157.904 103.22C157.425 104.163 155.876 104.402 155.176 103.572C154.036 102.219 153.489 99.5156 154.94 98.1825C154.979 98.1136 155.023 98.044 155.076 97.9738ZM132.589 89.3654L132.986 89.2959C134.213 89.0836 135.738 88.8796 136.606 89.8665C137.067 90.3898 137.225 91.3624 136.606 91.8633C135.518 92.7446 134.314 92.4031 133.01 92.4777C131.935 92.5394 130.902 92.7174 129.867 93.0135C127.595 93.663 125.744 94.8486 123.804 96.1506C123.55 96.3213 123.29 95.9956 123.411 95.7574C124.531 93.563 126.701 91.7604 128.875 90.6616C130.036 90.0751 131.305 89.5885 132.589 89.3654ZM152.787 88.3823L153.091 88.4445C156.395 89.1353 160.687 90.5153 162.251 93.7615C162.311 94.2205 162.248 94.3189 162.197 94.3832L162.18 94.4046C162.137 94.4595 162.104 94.5351 161.905 94.5976C161.85 94.5844 161.794 94.5705 161.737 94.5557C161.02 94.3677 160.453 94.1087 159.904 93.84L159.308 93.5465C158.617 93.2076 157.92 92.881 157.181 92.6399C155.605 92.1254 153.983 91.7631 152.337 91.5696C151.98 91.5277 151.636 91.4072 151.365 91.2006C151.108 91.0046 150.911 90.7332 150.821 90.3724C150.705 89.9056 150.739 89.5521 150.989 89.1309C151.177 88.8146 151.447 88.5953 151.756 88.4694C152.071 88.3411 152.43 88.3108 152.787 88.3823Z" fill="black"/>
</svg>
