<svg width="240" height="324" viewBox="0 0 240 324" fill="none" xmlns="http://www.w3.org/2000/svg">
<path fill-rule="evenodd" clip-rule="evenodd" d="M194.637 251.934C193.785 247.123 193.005 242.299 192.295 237.465C191.958 235.169 191.63 232.872 191.335 230.571C191.128 228.959 190.813 227.115 191.909 225.921C193.452 224.24 194.854 222.802 195.043 220.395C195.22 218.129 194.455 215.66 193.976 213.462C192.972 208.851 191.722 204.297 190.341 199.786C188.938 195.204 187.4 190.664 185.839 186.133C184.38 181.897 182.977 177.622 181.077 173.558C177.47 165.845 171.369 160.132 163.828 156.318C161.953 155.37 158.128 151.984 156.169 151.225C154.367 150.528 154.374 152.564 152.601 151.797C151.184 151.184 149.864 150.367 149.071 148.998C148.209 147.512 146.049 145.433 145.72 143.703C145.023 140.035 145.778 136.914 143.161 134.154C140.839 131.703 137.717 130.024 134.486 129.123C127.38 127.14 117.903 128.526 113.616 135.132C111.568 138.286 110.852 142.1 108.089 144.674C105.676 146.922 106.216 148.459 103.091 149.617C102.914 149.683 98.1169 148.654 97.9398 148.72C94.5211 147.988 91.2535 150.037 88.117 151.225C83.4411 152.998 78.9892 155.304 74.8068 158.045C66.3732 163.573 59.1499 170.752 53.1949 178.874C47.1907 187.064 42.532 196.244 39.2149 205.838C38.4094 208.168 37.6858 210.527 37.0475 212.908C36.6903 214.241 36.3085 215.624 36.7435 216.988C37.0993 218.105 37.8907 218.936 38.8201 219.606C40.0799 220.514 42.6068 221.104 42.5576 222.931C42.52 224.32 42.0491 225.781 41.8192 227.153C41.5456 228.787 41.3208 230.431 41.0961 232.073C40.0735 239.544 39.2777 247.057 38.9257 254.592C38.5792 262.011 38.2917 269.581 38.8061 276.998C38.8401 277.487 38.9859 277.936 39.2211 278.315C39.0015 278.399 38.9846 278.808 39.2578 278.866C39.4492 278.907 39.6402 278.948 39.8316 278.988C40.2292 279.289 40.7251 279.474 41.2957 279.492C41.6825 279.504 42.0692 279.521 42.4556 279.541C46.5332 280.394 50.6103 281.199 54.7412 281.809C59.7626 282.551 64.7988 283.155 69.8506 283.646C80.2313 284.656 90.5301 284.321 100.925 283.777C111.303 283.234 121.675 283.107 132.064 283.377C142.462 283.648 152.857 284.1 163.257 284.285C174.877 284.492 186.478 284.174 198.064 283.25C199.653 283.124 200.636 281.859 200.322 280.281C198.445 270.825 196.318 261.431 194.637 251.934Z" fill="white"/>
<path fill-rule="evenodd" clip-rule="evenodd" d="M94.6977 148.487C95.7722 148.44 96.8678 148.614 97.9398 148.72C98.0332 148.729 98.0687 148.873 97.9634 148.895C96.045 149.296 94.1475 149.844 92.2633 150.401L91.4566 150.64C89.3319 151.269 87.2695 151.918 85.2126 152.756C81.1132 154.428 77.2197 156.684 73.6364 159.275C59.8381 169.256 49.8515 184.366 43.5494 200.01C41.8379 204.259 40.3877 208.613 39.2131 213.041C38.9275 214.118 38.6587 215.199 38.4039 216.284C38.3291 216.602 38.0032 217.417 38.1819 217.742C38.3399 218.03 38.9543 218.208 39.2397 218.357L40.2033 218.857C42.0829 219.826 45.2139 221.419 45.5279 221.575L46.0176 221.816C54.0268 225.744 62.5847 229.075 71.5977 229.305L71.6682 228.535C72.0701 224.278 72.5974 219.999 73.7484 215.873C73.8103 215.651 74.0923 215.726 74.1181 215.923C74.7593 220.808 74.5544 225.73 74.3306 230.637C73.9345 239.328 73.4084 248.015 72.9409 256.702C72.7068 261.048 72.4043 265.392 72.1311 269.735C71.8575 274.088 71.769 278.544 71.1443 282.861C71.0051 283.823 69.8786 284.346 69.0255 284.245C68.0815 284.132 67.3554 283.301 67.351 282.347C67.3396 279.833 67.6554 277.288 67.831 274.78C67.9977 272.397 68.1766 270.015 68.36 267.633C69.0301 258.94 69.801 250.257 70.5141 241.568C70.7668 238.486 71.0397 235.407 71.3207 232.328C61.7729 232.02 52.8529 228.482 44.3435 224.349C44.2203 227.146 43.9229 229.939 43.6349 232.725C42.831 240.5 42.1222 248.271 41.5918 256.07C41.3239 260.009 41.1289 263.953 40.959 267.897C40.8756 269.836 40.8075 271.775 40.7553 273.714C40.7379 274.361 40.7221 275.007 40.7081 275.654L40.6791 277.135C40.6554 278.073 40.56 278.943 39.7706 279.626C38.9689 280.32 37.8859 280.357 37.0924 279.626C36.0301 278.647 36.2179 277.314 36.2494 276C36.2756 274.891 36.3071 273.783 36.3437 272.675C36.417 270.459 36.5106 268.243 36.6244 266.028C37.0229 258.285 37.8191 250.573 38.8596 242.892L39.2657 239.927C40.0242 234.415 40.857 228.777 42.5526 223.468C41.8924 223.139 41.2341 222.808 40.5783 222.476C39.4151 221.887 38.2123 221.334 37.0816 220.684C36.1846 220.168 35.4109 219.46 35.1612 218.416C34.8827 217.252 35.3086 215.98 35.5915 214.845L35.616 214.745C35.8934 213.602 36.1922 212.464 36.5074 211.331C37.7856 206.737 39.366 202.232 41.2157 197.837C44.9192 189.038 49.6996 180.679 55.5388 173.121C60.7949 166.317 67.0041 160.148 74.2814 155.52C77.8391 153.258 81.6306 151.4 85.6402 150.087C87.5144 149.473 89.5535 148.939 91.5158 148.72C92.5742 148.601 93.6341 148.533 94.6977 148.487ZM113.736 134.544C115.013 133.173 117.55 134.592 116.936 136.408C115.494 140.682 113.198 144.58 109.614 147.388C106.245 150.027 102.228 151.742 97.9015 151.376C97.8681 151.373 97.8391 151.364 97.8136 151.352L98.1864 151.858C101.113 155.819 104.201 159.725 107.923 162.963C115.506 169.559 125.831 173.117 135.801 170.586C143.644 168.595 150.555 162.39 152.587 154.482C152.296 154.613 151.95 154.658 151.57 154.575C149.944 154.222 148.334 152.511 147.285 151.284C146.151 149.957 145.264 148.524 144.615 146.904C143.426 143.94 143.045 140.123 144.668 137.252C144.869 136.898 145.33 137.096 145.37 137.442L145.431 137.981C145.744 140.672 146.134 143.275 147.402 145.729C148.023 146.929 148.767 148.101 149.673 149.106C150.158 149.644 150.683 150.158 151.25 150.609C151.803 151.049 152.472 151.366 152.968 151.871L153.058 151.967L153.061 151.95C153.186 150.885 153.933 150.415 154.664 150.445C155.371 150.473 156.202 150.785 156.523 150.934L156.554 150.948C161.487 153.317 166.031 156.405 170.307 159.831C179.15 166.917 185.775 176.179 188.986 187.086C190.561 192.44 191.465 197.956 192.42 203.446L193.007 206.81C193.898 211.879 194.893 217.047 196.904 221.762C197.424 222.981 197.023 224.125 195.748 224.605C194.155 225.204 192.557 225.784 190.956 226.356C191.742 229.73 192.221 233.221 192.81 236.611C194.062 243.818 195.596 250.979 196.912 258.176C197.584 261.856 198.191 265.549 198.863 269.229C199.186 271.001 199.524 272.771 199.852 274.543C200.029 275.498 200.189 276.456 200.358 277.413L200.387 277.572C200.484 278.076 200.606 278.598 200.467 279.103C200.309 279.679 199.859 280.086 199.458 280.499C199.128 280.839 198.651 280.841 198.246 280.656L198.113 280.594C197.39 280.256 196.824 279.919 196.568 279.103C196.406 278.587 196.347 278.005 196.241 277.473C196.038 276.454 195.845 275.433 195.663 274.409C195.298 272.36 194.943 270.31 194.595 268.258L194.271 266.337C193.157 259.715 192.1 253.054 191.565 246.362C191.328 243.394 191.077 240.428 190.823 237.461L190.633 235.236C190.392 232.42 190.098 229.533 190.056 226.678L189.099 227.018L184.428 228.67C183.269 229.08 181.795 229.919 180.548 229.766C179.938 229.691 179.473 229.499 179.114 229.15C179.544 235.223 180.126 241.285 180.902 247.316C181.608 252.804 182.391 258.285 183.315 263.74C183.773 266.442 184.244 269.141 184.755 271.832C185.01 273.179 185.274 274.523 185.546 275.866C185.681 276.536 185.842 277.206 185.948 277.882C186.069 278.655 185.856 279.131 185.424 279.768C185.069 280.29 184.359 280.559 183.784 280.198C183.022 279.72 182.625 279.305 182.401 278.434C182.197 277.643 182.073 276.817 181.916 276.016C181.625 274.537 181.343 273.056 181.072 271.574C180.504 268.473 179.981 265.364 179.514 262.246C177.867 251.263 176.822 240.187 176.294 229.093C176.034 223.62 175.953 218.142 175.999 212.663C176.023 209.854 176.115 207.038 176.313 204.237C176.515 201.401 176.933 198.622 177.306 195.813C177.319 195.714 177.459 195.709 177.465 195.813C177.642 198.962 177.919 202.107 178.055 205.264C178.184 208.276 178.241 211.293 178.344 214.307C178.48 218.268 178.668 222.232 178.916 226.192C179.366 225.7 180.045 225.415 180.724 225.526C181.708 225.32 182.767 224.804 183.704 224.49L187.24 223.309C189.098 222.688 190.957 222.071 192.822 221.473C191.154 215.861 190.012 210.165 189.037 204.387L188.602 201.788C187.741 196.672 186.812 191.554 185.253 186.6C183.613 181.392 181.159 176.55 177.904 172.165C174.696 167.844 170.792 164.039 166.773 160.48C163.332 157.433 159.651 154.682 156.142 151.719C156.178 151.915 156.186 152.131 156.154 152.369C155.408 157.832 152.559 162.92 148.588 166.704C140.612 174.307 128.805 175.884 118.596 172.319C108.721 168.871 99.9896 160.704 96.9049 150.597C96.8521 150.425 97.0836 150.356 97.1766 150.483C97.3477 150.718 97.5197 150.952 97.6919 151.187C97.6803 151.094 97.7286 150.992 97.8436 150.948C101.443 149.557 104.977 147.586 107.675 144.797C108.99 143.437 110.137 141.897 111.043 140.235C111.477 139.44 111.867 138.616 112.178 137.764L112.257 137.544C112.634 136.477 112.949 135.389 113.736 134.544Z" fill="black"/>
<path fill-rule="evenodd" clip-rule="evenodd" d="M165.731 90.9295C165.489 86.3045 165.277 81.5257 164.391 76.9715C163.956 74.739 163.087 72.6779 161.681 70.8859C160.395 69.246 158.776 67.9741 157.134 66.7109C153.834 64.1719 150.661 61.3609 146.967 59.3971C143.423 57.5127 139.591 56.3752 135.62 55.8644C127.973 54.8805 119.94 56.5181 113.299 60.4469C106.858 64.2579 101.68 70.1721 98.4752 76.9148C96.8827 80.2656 95.6865 83.8019 95.0421 87.4589C94.2742 91.8182 94.3437 96.1898 94.3713 100.598C94.3808 102.079 94.3675 103.56 94.2938 105.038C94.1736 105.755 94.1073 106.482 94.1081 107.261C92.6501 109.18 92.0569 111.745 92.9706 114.108C94.4282 117.878 98.5637 119.592 102.318 118.934C102.486 119.914 102.891 120.88 103.396 121.82C104.258 123.426 105.222 125 106.245 126.508C108.361 129.629 110.776 132.458 113.657 134.899C119.369 139.738 126.605 142.908 134.109 143.367C140.941 143.785 148.146 141.841 153.717 137.832C156.609 135.751 159.112 133.201 160.971 130.148C163.143 126.581 164.322 122.474 164.933 118.369C166.276 109.357 166.204 100.008 165.731 90.9295Z" fill="white"/>
<path fill-rule="evenodd" clip-rule="evenodd" d="M111.859 43.1346C111.601 40.2239 114.283 38.0339 116.771 38.849C117.228 38.9059 117.672 39.05 118.068 39.2924C119.214 39.9922 119.464 41.1208 119.165 42.0964C119.703 42.5024 120.126 43.0528 120.339 43.7166C120.559 44.4006 120.536 45.064 120.329 45.642C121.11 46.158 121.7 46.9364 121.837 47.9007C121.902 48.3587 121.876 48.8129 121.767 49.2304C122.949 49.6317 123.914 50.5308 123.899 51.8913C124.585 51.9352 125.273 51.9449 125.972 51.906C126.072 51.6243 126.194 51.3496 126.376 51.0966C126.742 50.5869 127.263 50.2368 127.839 50.0185L127.918 49.9895L127.917 49.8348C127.475 49.3455 127.269 48.7284 127.739 48.0563C127.819 47.9411 127.918 47.846 128.027 47.7644C128.066 47.4728 128.129 47.1841 128.206 46.9002C127.817 46.357 127.859 45.4558 128.513 45.1862C128.422 44.6565 128.416 44.1072 128.514 43.5537C128.918 41.2859 131.105 39.7414 133.36 39.828C133.642 39.8388 133.917 39.8813 134.182 39.9489C134.731 40.0064 135.277 40.1292 135.814 40.3118C136.434 40.5227 136.594 41.0405 136.457 41.4782C137.299 42.6041 137.538 44.1336 136.69 45.5083C136.658 45.5605 136.623 45.6101 136.588 45.6602C136.758 45.7881 136.906 45.9567 137.015 46.1734C137.291 46.7187 137.223 47.4106 136.802 47.8657C136.69 47.987 136.545 48.0781 136.387 48.1366L136.384 48.1814C136.329 48.9116 136.213 49.6438 135.994 50.3334C136.886 51.1625 137.479 52.2909 137.584 53.5068C137.917 53.5377 138.249 53.5738 138.581 53.6114C138.63 53.2781 138.832 52.978 139.139 52.7455C139.395 52.5511 139.669 52.3955 139.951 52.2791C140.086 51.5801 140.418 50.9106 140.979 50.3793C141.187 50.1823 141.414 50.0085 141.656 49.8591C141.642 49.1014 141.811 48.3444 142.23 47.6275C142.579 47.0313 143.088 46.5988 143.667 46.3236C144.089 45.474 144.872 44.7808 146.01 44.3868C146.861 44.0926 147.761 44.4423 148.408 44.9922L148.553 45.119C149.146 45.6429 149.361 46.6056 149.142 47.3483C149.039 47.6972 148.867 48.1049 148.618 48.4361C148.881 49.5979 148.357 50.5671 147.554 51.1118C147.829 51.5024 148.059 51.9356 148.254 52.3983C148.591 53.1982 148.212 54.1943 147.605 54.8246C147.871 55.2486 148.043 55.7431 148.107 56.2398C148.378 56.2556 148.647 56.3038 148.912 56.3793C149.056 55.8906 149.327 55.4364 149.741 55.0655C149.922 54.7111 150.138 54.3812 150.379 54.0927C150.759 53.6374 151.251 53.3094 151.788 53.1758C151.86 53.007 151.961 52.8453 152.088 52.6976C151.96 51.2164 152.941 49.6871 154.452 49.6858C154.559 49.3405 154.689 48.9989 154.846 48.6639C155.152 48.0068 155.801 47.6133 156.504 47.484C156.918 46.4767 157.729 45.7441 159.123 45.622C162.235 45.3493 164.193 49.1249 163.433 51.8357C163.207 52.6409 162.678 53.3819 161.975 53.8369C161.792 53.9559 161.606 54.0424 161.419 54.1138C161.232 54.3757 160.979 54.6084 160.655 54.798C160.583 54.84 160.509 54.8778 160.433 54.9117C160.441 56.1214 159.606 57.1053 158.57 57.4183C158.636 58.181 158.441 58.9457 157.862 59.5366L157.821 59.5763L157.737 59.6518L157.73 59.6852C157.936 60.2161 157.914 60.8009 157.619 61.2822C157.645 61.7243 157.723 62.1565 157.871 62.5674C158.444 63.0305 158.948 63.5624 159.4 64.1398C159.701 63.8668 160.156 63.7436 160.55 63.8928C160.659 63.8556 160.772 63.8315 160.88 63.8207C161.059 63.8025 161.235 63.8032 161.408 63.8158C161.488 63.6998 161.579 63.5895 161.684 63.4861C162.419 62.7593 163.486 62.7743 164.332 63.2258C164.484 63.1152 164.655 63.0176 164.848 62.9358C167.007 62.0255 168.422 64.7657 168.632 66.4736C168.747 67.4054 167.945 67.9801 167.123 68.0285C166.955 68.5934 166.419 69.0001 165.819 69.1381C165.926 69.8359 165.463 70.5482 164.833 70.8137C164.552 70.9322 164.28 70.9646 164.024 70.9301L164.036 71.0954C164.086 71.7508 163.755 72.168 163.301 72.3529C163.221 72.6776 163 72.913 162.722 73.0337C163.782 75.4904 164.619 78.0642 165.294 80.6028C166.408 84.7934 167.157 89.0604 167.66 93.366C168.544 100.935 168.578 108.66 167.693 116.232C167.243 120.085 166.495 123.852 164.965 127.43C163.688 130.415 161.912 133.006 159.869 135.513C155.809 140.491 149.997 144.159 143.592 145.07C140.23 145.548 136.782 145.393 133.501 144.476C130.234 143.564 126.751 141.999 124.693 139.221C124.135 138.468 124.407 137.248 125.027 136.627C125.735 135.919 126.755 135.873 127.619 136.293C129.153 137.037 130.532 138.054 132.092 138.764C133.499 139.405 135.021 139.816 136.536 140.106C139.537 140.68 142.801 140.533 145.793 139.732C151.22 138.28 156.001 134.774 159.037 130.046C162.622 124.461 163.902 117.916 164.488 111.394C165.13 104.255 165.063 97.0175 164.212 89.8988C163.79 86.3686 163.141 82.8701 162.373 79.4004C161.826 76.9299 161.209 74.4759 160.628 72.0139C160.101 71.5111 159.592 70.9918 159.102 70.4537L159.087 70.4527C159.024 70.4681 158.96 70.4797 158.891 70.485C155.976 70.7073 152.817 70.4146 150.331 68.7344C149.321 68.0515 148.466 67.1871 147.83 66.1918C146.936 65.5724 146.122 64.7908 145.511 63.8877C145.077 63.4117 144.666 62.9144 144.276 62.399C143.303 61.1144 142.786 59.7662 142.207 58.284C142.193 58.2499 142.184 58.2165 142.177 58.1838C142.066 58.0022 141.988 57.8034 141.95 57.6026C140.656 57.4489 139.357 57.347 138.07 57.2858C137.615 57.2642 137.158 57.2471 136.701 57.2323C136.821 57.6789 136.893 58.1421 136.909 58.6179C137.278 58.6344 137.654 58.6773 138.039 58.7388C139.844 59.0264 141.002 59.9513 142.099 61.4005C143.166 62.8111 144.017 64.5076 144.649 66.1576C145.036 67.1679 144.52 68.2846 143.67 68.935C141.464 69.1224 139.296 69.5967 137.266 70.5364C137.194 70.5695 137.143 70.6277 137.108 70.6961C135.487 71.1793 133.854 71.6212 132.222 71.9964C130.646 72.3586 129.055 72.5093 127.47 72.1097C126.789 71.9378 126.123 71.6834 125.468 71.398C125.116 71.4407 124.735 71.3735 124.347 71.1512C123.76 70.8149 123.169 70.4472 122.588 70.0515C121.561 69.5587 120.55 69.0292 119.585 68.4241L119.58 68.4167C118.81 67.4828 117.712 66.5313 116.483 65.8108C116.347 65.603 116.227 65.3845 116.131 65.1509C115.602 63.864 115.823 62.3074 116.939 61.4223C116.955 61.1169 117.088 60.8178 117.383 60.578C117.616 60.388 117.856 60.2075 118.102 60.0354C118.051 59.9972 117.999 59.9602 117.948 59.9211C117.846 59.8444 117.749 59.7617 117.654 59.6766C116.909 60.0849 116.158 60.4845 115.389 60.8405C115.37 60.8546 115.351 60.8696 115.331 60.8829C113.886 61.8317 112.519 62.9214 111.056 63.8357C110.705 64.0545 110.357 64.2667 110.01 64.4795C109.88 64.6568 109.754 64.8367 109.631 65.0199C109.579 65.3018 109.499 65.5834 109.4 65.8575C109.591 66.0099 109.747 66.2107 109.853 66.4486C110.308 66.6217 110.735 66.8413 111.135 67.1032L111.488 67.2602C111.943 66.8954 112.424 66.5657 112.94 66.2916C114.561 66.3969 116.312 67.5455 117.544 68.7166C117.63 68.8139 117.714 68.9119 117.795 69.0115C117.873 69.0745 117.951 69.1414 118.03 69.2072C118.157 69.3443 118.276 69.48 118.385 69.6121C118.507 69.7607 118.645 69.8425 118.786 69.8767C119.54 70.5852 120.247 71.3824 120.73 72.2107C121.506 73.5405 120.962 75.1981 120.394 76.503C120.301 76.716 120.203 76.9257 120.101 77.133C119.014 78.5971 117.984 80.1021 116.955 81.6075C116.261 82.2781 115.573 82.953 114.914 83.6547C114.806 83.7269 114.692 83.7963 114.568 83.8605C112.65 84.8478 110.796 83.7364 108.969 83.0443L108.765 82.9688C106.882 82.2878 104.538 81.8402 104.419 79.3877C104.403 79.0536 104.416 78.7112 104.449 78.365C104.913 77.1362 105.444 75.93 106.036 74.7551C105.917 74.626 105.81 74.4829 105.719 74.3233C105.529 74.0816 105.369 73.8207 105.248 73.5456C104.373 75.2207 103.54 77.0174 102.416 78.4871C101.797 79.2973 101.025 79.5891 100.207 79.5872C99.8611 79.7616 99.4745 79.8201 99.1023 79.7762L99.1416 80.2245C99.1758 80.5984 99.2154 80.9719 99.2732 81.3385C100.065 81.3256 100.892 81.5426 101.63 81.8345C103.794 82.6907 105.88 83.8764 107.968 84.9042C108.977 85.4004 110.362 85.8164 111.186 86.5914C111.817 87.1859 111.745 87.9222 111.505 88.6882C111.464 88.8188 111.419 88.9484 111.376 89.0783L111.374 89.1208C110.7 89.9694 110.239 90.982 109.905 92.0273C109.358 92.9572 108.976 94.0009 108.717 95.0236C108.506 95.8546 108.356 96.7025 108.259 97.5585L108.234 97.7921L108.22 97.8196L108.213 98.0214C108.074 99.5286 108.09 101.055 108.216 102.55C108.251 102.966 108.295 103.383 108.349 103.798C108.113 104.534 106.996 104.637 106.417 104.185C105.779 103.688 105.11 103.236 104.415 102.828C103.467 103.26 102.371 103.333 101.312 102.979C101.236 102.954 101.164 102.924 101.092 102.895C100.298 102.994 99.5119 103.179 98.7598 103.398L98.5342 103.465C97.3343 103.826 96.1907 104.278 95.2874 105.195C93.6824 106.825 93.1654 109.459 93.4929 111.664C93.8113 113.809 95.0556 116.261 97.2978 116.885C98.2153 117.14 99.2043 117.133 100.096 116.776C100.435 116.641 100.726 116.444 101.012 116.229C101.363 115.964 101.64 115.667 102.057 115.499C102.438 115.346 103.095 115.358 103.28 115.349C103.86 115.321 104.351 115.775 104.522 116.295C105.042 117.88 104.261 119.045 103.005 119.824C103.533 120.624 104.028 121.46 104.551 122.216C105.529 123.629 106.561 124.994 107.63 126.337C108.728 127.717 109.899 129.03 111.175 130.247C111.751 130.797 112.345 131.328 112.955 131.839L113.293 132.118C113.863 132.594 114.362 133.079 114.342 133.911C114.331 134.376 114.022 134.809 113.564 134.933C111.945 135.371 110.247 133.247 109.192 132.158L109.109 132.073C107.833 130.781 106.645 129.393 105.571 127.927C104.464 126.417 103.558 124.748 102.827 123.027C102.488 122.227 102.119 121.313 101.858 120.388C100.451 120.934 98.8168 121.129 97.6982 121.001C96.6657 120.883 95.7232 120.586 94.872 120.153C94.698 120.543 94.4639 120.906 94.1795 121.208C93.1249 122.328 91.59 122.647 90.1033 122.633C88.1994 122.616 86.4908 121.415 86.4218 119.389C86.377 118.075 87.0573 116.948 88.05 116.179C88.4182 115.27 89.1173 114.521 90.1304 114.277C89.46 112.204 89.3419 109.92 89.8456 107.827C90.3443 105.755 91.4824 103.792 93.1655 102.499L93.2613 102.427L93.2208 102.448C92.8232 102.667 92.4353 102.904 92.0419 103.13L91.8652 103.231C90.118 104.218 88.0945 105.066 86.0601 104.538C82.8313 103.7 82.552 99.6716 85.3299 98.0816C86.2899 97.5321 87.3993 97.3248 88.4945 97.1874C88.6675 96.9617 88.8733 96.7601 89.1004 96.5969C89.1342 95.8565 89.5065 95.1164 90.165 94.6514C90.8364 94.1772 91.5906 94.1302 92.2929 94.3479C92.5546 94.1514 92.8384 93.9793 93.1504 93.8449C93.4213 93.7278 93.6959 93.6429 93.9712 93.5841C93.9663 93.363 93.9638 93.142 93.9604 92.9207C93.9163 92.7146 93.8896 92.4986 93.862 92.274C93.8123 92.2655 93.762 92.2575 93.7132 92.2469C92.9979 92.0905 92.3516 91.7695 91.789 91.3366C90.8892 91.9054 89.797 92.1205 88.4983 91.7359C87.2926 91.3787 86.1562 90.2564 85.5944 88.967C84.8244 88.812 84.0767 88.5869 83.422 88.16C82.2097 88.4483 80.9032 87.9821 80.4118 86.7266C80.0474 85.7959 80.4856 84.6706 81.2668 84.0936C81.4944 83.9256 81.7405 83.9571 81.9361 84.0871C81.9824 83.936 82.0367 83.7863 82.1034 83.6401C82.1303 83.5811 82.1594 83.5236 82.189 83.4664C82.1599 82.2333 82.6071 81.0413 83.726 80.3798C84.5565 79.8888 85.5469 79.8354 86.4395 80.119C86.9299 79.6618 87.551 79.3127 88.3223 79.121C89.6787 78.7837 91.1066 79.1683 92.0721 80.186C92.2811 80.1245 92.4974 80.0807 92.7188 80.053C92.7993 79.4854 92.9924 78.9394 93.3951 78.5134C93.6841 78.2075 94.0306 77.9641 94.4053 77.7933C94.5763 77.1501 94.8566 76.5744 95.3261 76.0926C95.0966 75.8987 94.8881 75.6806 94.7102 75.438C94.5129 75.405 94.317 75.3625 94.1261 75.3013C93.1056 74.9734 92.4021 74.3301 91.9249 73.5282C91.0411 73.7546 90.1054 73.6717 89.1858 73.0945C88.5207 72.6771 88.0194 72.0097 87.7549 71.264L86.9996 70.9992C86.2878 70.7473 85.777 70.2768 85.4854 69.717C85.1146 69.8503 84.7061 69.8455 84.3733 69.5885C82.4235 68.0828 83.7551 65.588 85.8423 65.0926C86.6913 64.8912 87.4327 65.006 88.0918 65.3131C88.5608 64.861 89.1492 64.5215 89.8225 64.3685C90.6078 64.1901 91.4353 64.321 92.16 64.6676L92.3472 64.6651C93.0769 64.1229 94.0134 63.8801 95.1579 64.142C96.4536 64.4385 97.3369 65.164 97.9356 66.109C98.1281 65.9351 98.3449 65.7818 98.5811 65.6531C99.2512 65.2883 99.967 65.1983 100.653 65.3124C100.883 64.9836 101.12 64.6591 101.364 64.3404C100.785 63.8879 100.389 63.186 100.368 62.4072C100.193 62.2981 100.023 62.1741 99.8613 62.0599C99.0684 61.5014 98.3962 60.8009 98.0905 59.8594C97.938 59.3897 97.8824 58.9003 97.9001 58.4095C97.8148 58.3909 97.7299 58.371 97.6456 58.3469C94.2758 57.3773 92.8789 52.7312 95.5422 50.2376C96.9408 48.9281 99.0668 49.6697 100.45 50.6367C101.393 51.2961 102.143 52.1159 102.822 53.0218C102.854 53.0283 102.885 53.0304 102.917 53.0382C103.892 53.2688 104.668 53.8946 105.241 54.6948C106.253 54.519 107.33 54.7145 108.29 55.4172C108.99 55.9295 109.429 56.5636 109.658 57.2526C110.567 56.7779 111.503 56.3617 112.459 55.9942C112.522 55.8435 112.587 55.6926 112.663 55.5427C112.811 55.2517 113.003 54.9987 113.226 54.7848C112.983 54.5126 112.767 54.2085 112.594 53.8701C111.771 52.2651 112.068 50.6407 112.978 49.4117C112.58 48.5156 112.458 47.4994 112.693 46.5327C112.737 46.3532 112.792 46.1808 112.857 46.0149C112.305 45.154 111.951 44.1632 111.859 43.1346ZM97.0836 108.059C97.6678 107.917 97.8053 107.731 98.4621 107.784C98.9706 107.826 99.4906 107.913 99.9839 108.041C101.16 108.345 102.258 108.961 103.225 109.686C104.596 110.715 102.955 112.627 101.863 111.53L101.83 111.496C101.096 110.709 100.272 110.094 99.3497 109.545C98.8821 109.268 98.3996 109.067 97.9109 108.834C97.5731 108.672 97.3779 108.408 97.0602 108.24C96.9852 108.201 97.0027 108.079 97.0836 108.059ZM100.228 92.568C99.9055 92.4541 99.5349 92.6973 99.4485 93.0108C99.3558 93.3485 99.5525 93.6539 99.857 93.7776L99.8913 93.7906C100.305 93.9366 100.682 94.1792 101.004 94.4763L101.072 94.5407C101.657 95.1097 102.555 94.214 101.968 93.644C101.471 93.1606 100.882 92.7983 100.228 92.568ZM115.392 69.4858C115.059 68.7558 113.994 69.3687 114.283 70.0918L114.298 70.1257C114.598 70.7832 114.475 71.5461 114.147 72.1654L114.115 72.2249C113.717 72.938 114.811 73.5781 115.21 72.8648C115.801 71.8064 115.899 70.5945 115.392 69.4858ZM124.598 60.3974L124.583 60.3244C124.433 59.5231 123.211 59.8623 123.361 60.6612C123.609 61.9896 124.574 62.8623 125.811 63.2955C126.583 63.5656 126.914 62.3411 126.148 62.0726C125.328 61.7856 124.78 61.2416 124.598 60.3974ZM144.573 59.1143L144.357 59.105L144.521 59.3214C144.537 59.2519 144.554 59.1828 144.573 59.1143Z" fill="black"/>
<path fill-rule="evenodd" clip-rule="evenodd" d="M143.152 128.274C141.732 127.695 140.465 126.728 139.538 125.493C139.216 125.063 139.133 124.61 139.2 124.195C139.276 123.729 139.552 123.306 139.928 123.023C140.305 122.739 140.777 122.598 141.233 122.67C141.63 122.732 142.024 122.949 142.337 123.399L142.402 123.489C142.953 124.235 143.67 124.846 144.488 125.241C145.276 125.621 146.158 125.798 147.07 125.695C148.808 125.499 150.005 124.559 151.278 123.282C151.436 123.121 151.594 122.955 151.752 122.786C151.852 122.633 151.991 122.534 152.146 122.483C152.317 122.425 152.511 122.429 152.689 122.491C152.86 122.55 153.013 122.664 153.116 122.815C153.213 122.958 153.269 123.135 153.251 123.339C153.134 124.661 152.443 125.842 151.461 126.769C150.37 127.799 148.924 128.511 147.563 128.761C146.064 129.036 144.536 128.839 143.152 128.274ZM148.271 107.866C149.866 108.836 152.297 111.098 150.581 113.503C148.56 115.624 145.652 113.193 144.219 112.093C142.889 111.241 141.396 113.433 142.629 114.428C152.986 122.099 157.19 108.12 149.078 106.726C148.184 106.572 147.853 107.566 148.271 107.866ZM129.711 98.9429C129.887 96.7541 133.219 96.257 133.551 98.423C133.847 100.363 133.498 102.145 132.624 103.892C131.79 105.561 129.692 104.783 129.533 103.263C129.32 101.226 129.601 100.304 129.711 98.9429ZM155.076 97.9738C155.541 97.3652 156.212 96.9496 157.015 97.1845C159.526 97.9185 158.786 101.485 157.904 103.22C157.425 104.163 155.876 104.402 155.176 103.572C154.035 102.219 153.489 99.5156 154.939 98.1825C154.979 98.1136 155.023 98.044 155.076 97.9738ZM132.589 89.3654L132.986 89.2959C134.213 89.0836 135.738 88.8796 136.606 89.8665C137.067 90.3898 137.225 91.3624 136.606 91.8633C135.518 92.7446 134.314 92.4031 133.01 92.4777C131.935 92.5394 130.902 92.7174 129.867 93.0135C127.595 93.663 125.744 94.8486 123.804 96.1506C123.55 96.3213 123.29 95.9956 123.411 95.7574C124.531 93.563 126.701 91.7604 128.875 90.6616C130.036 90.0751 131.305 89.5885 132.589 89.3654ZM152.787 88.3823L153.091 88.4445C156.394 89.1353 160.687 90.5153 162.251 93.7615C162.311 94.2205 162.248 94.3189 162.196 94.3832L162.179 94.4046C162.137 94.4595 162.104 94.5351 161.905 94.5976C161.849 94.5844 161.794 94.5705 161.737 94.5557C161.02 94.3677 160.453 94.1087 159.904 93.84L159.308 93.5465C158.617 93.2076 157.92 92.881 157.181 92.6399C155.605 92.1254 153.983 91.7631 152.337 91.5696C151.98 91.5277 151.636 91.4072 151.365 91.2006C151.107 91.0046 150.911 90.7332 150.821 90.3724C150.705 89.9056 150.738 89.5521 150.989 89.1309C151.177 88.8146 151.447 88.5953 151.756 88.4694C152.071 88.3411 152.43 88.3108 152.787 88.3823Z" fill="black"/>
<path fill-rule="evenodd" clip-rule="evenodd" d="M166.773 116.395C166.491 115.554 165.042 115.627 165.131 116.618C165.233 117.75 164.846 119.012 163.762 119.561C162.627 120.137 161.35 119.619 160.658 118.632C160.056 117.775 159.641 116.841 158.884 116.093C158.18 115.397 157.323 114.861 156.386 114.542C155.656 114.294 154.899 114.228 154.165 114.31C152.336 113.896 150.216 114.837 149.076 116.264C149.002 116.356 148.934 116.45 148.868 116.546C148.755 116.392 148.637 116.239 148.511 116.089C148.188 115.702 147.787 115.619 147.425 115.724C145.363 114.19 142.473 113.987 140.131 115.371C138.254 116.481 136.702 118.116 134.395 118.243C132.567 118.344 130.576 117.301 130.447 115.291C130.38 114.242 128.951 113.368 128.149 114.339C126.464 116.382 126.126 119.095 127.059 121.564C128.043 124.17 130.048 126.006 132.587 127.085C135.328 128.251 138.541 128.656 141.506 128.564C144.463 128.472 147.151 127.335 148.933 124.915C149.146 124.627 149.332 124.333 149.496 124.036C151.227 126.24 153.939 127.167 156.701 127.233C159.592 127.303 163.008 126.795 165.052 124.55C167.021 122.386 167.7 119.167 166.773 116.395Z" fill="black"/>
</svg>
