<svg width="240" height="324" viewBox="0 0 240 324" fill="none" xmlns="http://www.w3.org/2000/svg">
<path fill-rule="evenodd" clip-rule="evenodd" d="M41.197 209.194L192.564 221.215L192.723 222.244C195.259 238.77 196.54 249.981 196.566 255.878L196.567 256.059C196.567 261.906 198.361 271.206 201.95 283.958L202.172 284.743L40.9858 285.024L39.0844 246.64L41.197 209.194ZM130.81 126.829C136.965 127.133 143.168 129.773 143.647 131.46C144.714 135.217 146.43 151.3 152.073 153.771C157.716 156.242 169.762 153.989 173.207 159.89C176.651 165.791 187.962 189.845 187.962 195.45C187.962 199.187 151.1 200.484 77.3752 199.341C78.3164 169.245 82.2402 153.424 89.1466 151.879L89.7631 151.743C99.7509 149.56 105.72 149.49 109.127 145.971C112.604 142.381 113.235 136.218 114.677 131.46C115.472 128.838 123.258 126.457 130.81 126.829Z" fill="white"/>
<path fill-rule="evenodd" clip-rule="evenodd" d="M144.308 136.236C144.331 136.218 144.354 136.212 144.38 136.225C144.859 136.455 144.958 136.916 145.123 137.396C145.364 138.098 145.643 138.782 145.901 139.478C146.414 140.873 146.904 142.265 147.477 143.637C148.064 145.049 148.672 146.435 149.37 147.799C149.706 148.458 150.067 149.105 150.434 149.747C150.688 150.193 150.925 150.806 151.258 151.225C151.284 151.091 151.32 150.965 151.362 150.846C151.318 150.867 151.275 150.891 151.235 150.916C151.151 150.969 151.049 150.863 151.1 150.781C151.282 150.481 151.518 150.278 151.789 150.14C152.537 149.31 169.022 153.274 173.528 157.726C181.69 165.789 187.199 175.758 190.822 186.364C192.823 192.216 194.665 198.125 196.569 204.009C198.58 210.231 200.68 216.426 202.696 222.644C203.137 224.012 202.174 225.254 200.957 225.704C198.69 226.541 196.406 227.33 194.103 228.059C195.221 232.351 196.003 236.735 196.565 241.131C197.725 250.196 197.87 259.444 199.698 268.414C200.118 270.473 200.649 272.502 201.209 274.526L201.339 274.993C201.673 276.181 201.978 277.38 202.387 278.542C202.74 279.542 203.196 280.55 203.444 281.581C203.733 282.794 203.306 284.12 202.172 284.743C201.261 285.244 199.958 285.037 199.408 284.096C199.296 283.904 199.229 283.695 199.201 283.483C199.119 283.308 199.043 283.128 198.975 282.944C198.949 282.874 198.926 282.8 198.903 282.726L198.838 282.507C198.677 281.983 198.529 281.454 198.382 280.926C198.141 280.078 197.898 279.233 197.63 278.393L197.494 277.973C196.831 275.953 196.237 273.916 195.72 271.853C193.867 264.456 193.474 256.798 192.966 249.218L192.939 248.826C192.479 242.033 192.204 235.255 192.768 228.477L192.691 228.502L192.614 228.526C191.881 228.75 191.146 228.97 190.408 229.183C190.385 229.192 190.364 229.2 190.341 229.206C189.869 229.353 189.384 229.492 188.891 229.621L188.594 229.697L188.384 229.754L188.164 229.817C187.466 230.019 186.753 230.252 186.029 230.229C184.829 230.422 183.608 230.538 182.408 230.542C182.777 236.589 183.204 242.631 183.713 248.668C184.225 254.735 184.903 260.78 185.606 266.825C185.953 269.811 186.325 272.791 186.734 275.767C186.941 277.276 187.157 278.777 187.432 280.273C187.715 281.803 188.215 283.439 187.913 284.986C187.907 284.984 187.901 284.982 187.894 284.982C187.793 285.43 187.522 285.831 187.051 286.108C186.187 286.613 184.979 286.318 184.482 285.434C184.44 285.36 184.4 285.284 184.362 285.206C183.853 285.424 183.295 285.508 182.61 285.514L173.327 285.607C169.108 285.65 164.889 285.694 160.668 285.755C147.416 285.951 134.163 286.176 120.91 286.337L115.941 286.394C108.487 286.472 101.029 286.626 93.576 286.624C89.8473 286.624 86.1225 286.611 82.3936 286.52C80.5872 286.476 78.7851 286.406 76.9809 286.332L76.6624 286.318C75.222 286.247 73.6928 286.113 72.2844 286.436C71.8957 287.193 70.9027 287.349 70.383 286.575C69.1954 284.805 68.8713 282.336 68.6519 280.173L68.5746 279.394C68.3316 276.97 68.1182 274.545 67.9598 272.117C67.3978 263.513 67.1929 254.9 67.4506 246.279C67.5816 241.885 67.9851 237.517 68.4626 233.148C68.6126 231.785 68.7689 230.424 68.938 229.065L68.9409 228.582C68.9411 228.427 68.9401 228.28 68.9358 228.141L68.8937 226.83C68.8587 225.737 68.8262 224.643 68.8127 223.55L68.807 222.893L68.8006 221.672C67.757 221.573 66.6436 221.226 65.7436 221.059C64.2839 220.786 62.8281 220.493 61.3767 220.182C58.4696 219.556 55.5943 218.817 52.738 217.999L52.1305 217.824C49.4948 217.064 46.8229 216.254 44.3295 215.118C43.3534 214.672 42.3795 214.169 41.5239 213.51C41.4732 214.203 41.395 214.894 41.3485 215.581C41.2558 216.94 41.1457 218.294 41.0549 219.653L40.968 220.946C40.8253 223.101 40.6968 225.253 40.6387 227.414C40.3809 236.84 40.3365 246.307 40.8351 255.727C41.0823 260.442 41.4351 265.157 41.9443 269.853C42.1936 272.163 42.4577 274.48 42.783 276.781C43.1189 279.146 43.7253 281.497 43.9112 283.879C44.0887 286.176 40.5774 286.51 40.0006 284.409C39.31 281.89 39.1341 279.173 38.7701 276.583L38.7288 276.295C38.3253 273.544 38.002 270.781 37.7232 268.015C36.7604 258.472 36.5105 248.881 37.0154 239.303C37.2555 234.715 37.8247 230.146 38.5136 225.607L38.5936 225.083C38.9072 223.05 39.2008 221.018 39.5559 218.994L39.6922 218.235C40.0112 216.496 40.2563 214.604 40.7739 212.865L40.62 212.723C40.3324 212.455 40.0206 212.145 39.7936 211.81C39.0119 211.705 38.3464 211.142 38.4288 210.122C38.6971 206.767 39.9225 203.356 41.0147 200.19C42.1112 197.007 43.383 193.884 44.8239 190.84C49.8922 180.144 57.1915 170.432 66.1175 162.652C70.852 158.525 76.0408 154.864 81.7746 152.258C84.6013 150.971 87.5253 149.975 90.5887 149.439C92.1056 149.172 93.6373 148.965 95.1795 148.921C96.4307 148.182 97.9163 148.493 99.1278 149.303L99.1936 149.348H99.1959L99.5063 149.409C99.5823 149.424 99.5802 149.544 99.5063 149.561C99.502 149.561 99.4957 149.563 99.4915 149.565C99.6901 149.722 99.8781 149.889 100.053 150.068C100.632 150.66 100.63 151.375 100.332 151.952C102.105 153.596 103.225 155.707 104.397 157.836C105.654 160.114 107.3 162.084 109.303 163.745C116.644 169.836 127.442 172.531 136.641 169.654C143.406 167.541 149.184 161.82 150.781 154.932C150.403 155.067 149.993 155.088 149.604 154.949C147.779 154.298 147.083 152.302 146.384 150.633L146.351 150.552C145.668 148.936 145.096 147.293 144.644 145.598C144.187 143.886 143.919 142.079 143.807 140.313C143.764 139.614 143.783 138.915 143.819 138.217L143.851 137.639C143.876 137.116 143.868 136.581 144.308 136.236ZM114.606 131.525C114.631 131.461 114.73 131.427 114.768 131.503C116.384 134.839 115.324 139.408 113.796 142.589C112.197 145.915 109.789 148.439 106.935 150.622C106.542 150.922 106.138 151.218 105.728 151.508C103.347 153.19 101.226 148.654 103.975 147.788C106.84 146.332 109.168 143.736 110.786 141.01C111.661 139.537 112.436 138.002 113.03 136.392C113.621 134.786 113.976 133.114 114.606 131.525Z" fill="black"/>
<path fill-rule="evenodd" clip-rule="evenodd" d="M92.9523 59.6854C94.0479 58.5092 95.4492 57.633 96.9811 57.3529C95.5808 58.0527 94.212 58.7821 92.9523 59.6854ZM90.806 69.8268C90.6123 68.9305 90.4821 68.0255 90.4412 67.1207C90.686 67.4931 91.0771 67.7419 91.5163 67.8704C91.2326 68.5059 90.9913 69.1607 90.806 69.8268ZM164.12 83.8802C162.856 78.614 156.955 68.4846 155.561 66.535C154.047 61.7075 162.306 57.8361 157.814 54.0612C155.78 52.3579 153.093 51.7551 150.571 51.1511C133.114 46.9571 114.358 49.0722 98.1676 56.7846C95.7049 56.2662 93.139 57.2794 91.3481 59.059C82.9344 67.5189 94.4007 82.783 96.9081 92.3204C101.21 102.955 92.3485 104.744 93.2988 113.742C94.0371 118.39 98.7435 119.619 102.715 120.321C103.352 120.47 104.203 120.493 104.408 121.166C105.052 125.095 107.258 128.839 110.219 131.381C109.96 132.148 110.158 133.08 111.071 133.754C119.346 139.906 129.78 142.985 140.101 142.431C152.401 141.772 158.761 134.719 160.296 132.903C168.783 121.438 167.769 106.311 166.037 92.6476C164.831 83.1293 166.361 93.2093 164.12 83.8802Z" fill="white"/>
<path fill-rule="evenodd" clip-rule="evenodd" d="M126.195 40.0596C126.581 38.8506 127.676 38.1236 128.929 38.2737C130.038 38.4047 131.225 39.5058 131.09 40.7211C131.064 40.9557 131.031 41.1755 130.99 41.3826L130.996 41.3845L131.001 41.3847L130.974 41.465C130.891 41.8518 130.777 42.1984 130.608 42.526C130.393 43.1537 130.186 43.7836 129.981 44.4155C130.276 44.4028 130.579 44.4197 130.885 44.4768C131.202 43.6652 131.521 42.8557 131.838 42.042C132.178 41.1734 132.417 40.0575 133.088 39.3854C133.948 38.5273 135.44 38.3497 136.488 38.9627C137.595 39.6094 137.99 40.7591 137.749 41.9913C137.627 42.6198 137.207 43.0572 136.687 43.332L136.631 43.3609L136.232 44.3077C136.355 44.2549 136.481 44.2063 136.619 44.1661C136.834 44.1027 137.045 44.0625 137.252 44.0456C137.823 43.0121 138.45 42.0082 139.099 41.0233C139.845 39.8905 141.302 39.4086 142.526 40.1251C143.62 40.7655 144.207 42.4478 143.424 43.5532C142.828 44.3923 142.264 45.2482 141.708 46.1126C141.803 46.1295 141.898 46.1507 141.989 46.1782C142.031 46.1211 142.076 46.064 142.122 46.007C142.729 45.2546 143.434 44.6903 144.159 44.0647C144.837 43.4771 145.15 42.5535 146.041 42.1076C147.163 41.5475 148.515 41.8159 149.183 42.9318C150.615 45.3222 148.211 47.0679 146.673 48.5157C148.01 47.6809 149.402 46.9179 150.831 46.2585C151.633 45.8886 152.449 45.5314 153.277 45.2229C154.505 44.7663 155.498 44.9124 156.505 45.7618C156.955 46.1422 157.179 46.973 156.972 47.5266C156.571 48.5876 155.937 49.2322 154.826 49.5386C154.044 49.7542 153.243 49.9 152.462 50.1262C151.152 50.5024 149.88 50.961 148.646 51.5338C148.735 51.5887 148.819 51.6479 148.898 51.7155C149.819 51.4175 150.757 51.1597 151.699 50.9399C153.262 50.5733 154.852 50.3256 156.45 50.1707L156.98 50.1213C158.896 49.9374 161.199 49.5981 162.374 51.4323C162.761 52.0368 162.803 53.0344 162.374 53.6325C161.555 54.7822 160.739 55.0105 159.383 55.0316C160.718 55.1732 162.051 55.3486 163.378 55.5537C164.292 55.6932 165.207 55.8513 166.117 56.0267L166.572 56.1159C167.681 56.3378 168.919 56.4667 169.872 57.1092C171.951 58.5126 170.975 61.2453 168.672 61.537C167.559 61.6765 166.323 61.2052 165.231 60.9854C164.17 60.7719 163.105 60.5838 162.036 60.4189C161.483 60.3323 160.929 60.2562 160.374 60.1865C161.504 60.3492 162.626 60.5796 163.718 60.9051L164.021 60.9966C166.133 61.6404 168.983 62.6658 169.642 64.9228C170.041 66.2945 168.949 67.4907 167.626 67.571C166.397 67.645 165.372 66.9116 164.328 66.3706C163.568 65.9775 162.795 65.6837 161.975 65.4322C161.128 65.1722 160.264 64.9566 159.393 64.7812C160.129 65.1866 160.845 65.6322 161.533 66.1307L161.849 66.3643C163.677 67.7267 166.464 69.836 165.82 72.3898C165.617 73.1951 164.719 73.9644 163.857 73.882C161.614 73.6727 160.376 71.2823 158.683 70.0016C158.242 69.6676 157.758 69.3379 157.251 69.0167C159.816 72.077 161.857 75.615 163.409 79.2693C166.822 87.3086 167.869 94.7536 167.894 103.398L167.895 103.665C167.899 108.434 167.791 113.288 167.326 118.035C166.895 122.421 166.105 126.749 164.117 130.721C160.786 137.38 154.293 142.567 147.133 144.541C139.167 146.739 130.262 145.02 123.736 139.948C122.071 138.654 124.279 135.846 125.979 137.04C132.771 141.806 141.556 143.315 149.352 140.09C155.536 137.532 160.515 132.031 162.626 125.697C163.969 121.667 164.36 117.37 164.839 113.171L164.871 112.891C165.379 108.499 165.672 104.078 165.668 99.6561C165.662 91.4452 164.483 84.6862 160.872 77.2382C159.174 73.7298 156.97 70.4858 154.338 67.6387C153.539 67.8014 152.69 67.5731 151.883 67.4865C151.471 67.4421 151.059 67.3998 150.647 67.3618C151.068 67.634 151.48 67.9171 151.886 68.2067L152.418 68.5906C154.083 69.7835 156.196 71.1423 155.768 73.4487C155.652 74.0722 155.031 74.6449 154.428 74.7865C152.246 75.3065 150.746 73.1845 149.271 71.9249C147.989 70.8301 146.648 69.8494 145.281 68.8666C144.97 68.6447 144.657 68.4228 144.343 68.203C144.638 68.5479 144.926 68.8982 145.207 69.2518L145.622 69.7779C146.877 71.3493 148.687 73.3919 147.569 75.429C147.252 76.0039 146.576 76.3865 145.921 76.3738C143.669 76.3273 142.773 73.7699 141.717 72.1552C140.808 70.7709 139.821 69.4669 138.801 68.1628C138.52 67.8056 138.237 67.4485 137.95 67.0913C133.219 67.3364 128.506 67.962 123.875 68.9617C120.693 69.6486 117.564 70.5386 114.459 71.5127L114.201 71.5949C112.52 72.1362 110.788 72.8291 109.576 74.0172C109.403 74.8358 109.536 75.6992 109.702 76.5167L109.831 77.1424C110.362 79.7591 110.724 82.3273 110.453 85.0138C110.172 87.7846 109.338 90.2764 108.319 92.8506C107.838 94.0638 107.339 93.844 107.168 95.1459C107.037 96.1376 107.118 97.1613 107.207 98.1613L107.282 99.009C107.47 101.23 107.564 103.651 106.109 105.483C105.883 105.764 105.4 105.652 105.239 105.371C105.176 105.259 105.108 105.151 105.034 105.048C104.333 104.031 103.257 103.452 102.028 103.228C101.871 103.2 101.933 102.991 102.064 102.974C103.103 102.852 104.088 103.112 104.924 103.649C104.528 102.276 101.456 102.944 100.446 103.21L100.412 103.219C99.1525 103.558 97.9609 104.107 96.9109 104.885C94.7982 106.449 93.5771 108.888 93.6384 111.515C93.6996 114.098 95.0327 116.484 97.3229 117.72C98.4278 118.316 99.6848 118.604 100.936 118.591C102.241 118.578 103.403 118.006 104.711 118.086C105.467 118.132 106.046 118.944 105.609 119.652C105.317 120.125 104.937 120.497 104.498 120.783C105.569 123.253 106.936 125.61 108.512 127.785C109.384 128.992 110.373 130.105 111.461 131.122C112.31 131.917 114.15 132.836 114.047 134.161C114.011 134.639 113.764 134.93 113.329 135.108C111.975 135.661 110.33 133.756 109.425 132.837L109.352 132.764C108.224 131.64 107.195 130.397 106.3 129.078C104.711 126.736 103.724 124.097 103.317 121.324C101.147 121.977 98.2736 121.364 96.5032 120.563C90.9384 118.048 89.1194 110.551 92.5018 105.559C93.1567 104.593 93.9764 103.767 94.9102 103.099C94.7053 102.987 94.513 102.843 94.3419 102.662C93.3953 101.656 92.726 100.343 92.0617 99.1329L91.982 98.9883C91.3924 97.9231 90.8361 96.8411 90.3147 95.7425L90.1208 95.3298C88.9567 92.8253 87.9363 91.7305 87.106 89.0971C86.3074 86.5566 85.6778 83.9676 85.2701 81.3342L85.1617 80.6371C84.9259 79.1091 84.7029 77.4751 84.875 75.9236C83.6898 76.3104 82.4982 76.5492 81.3257 75.968C80.5525 75.5854 80.1257 74.4695 80.3898 73.6685C80.582 73.0788 80.9032 72.616 81.3109 72.2524C81.068 72.1299 80.8398 71.9735 80.6391 71.8002L80.4637 71.6482C79.7539 71.0308 79.7032 69.8578 80.1341 69.0843C80.1764 69.0103 80.2187 68.9342 80.2588 68.8603C80.6687 68.1269 81.5158 67.6471 82.3525 67.6598C82.4877 67.6619 82.6229 67.6619 82.7602 67.6598C82.3694 67.5732 81.987 67.44 81.6236 67.216C79.9841 66.2078 80.1912 63.4751 82.175 62.9932C83.0074 62.7924 83.9264 62.8748 84.8433 63.0904C84.8095 63.0714 84.7757 63.0524 84.7419 63.0312C84.0489 62.6064 83.468 61.7758 83.5334 60.9241C83.6053 59.9814 83.9095 59.3094 84.7419 58.8148C85.4644 58.3879 86.487 58.3477 87.2053 58.8148C87.8285 59.2227 88.4391 59.6729 89.0264 60.1569C88.437 59.4319 87.9257 58.6436 87.7187 57.8067C87.463 56.7647 87.8898 55.6297 88.8278 55.0802C89.5757 54.6427 90.3658 54.6914 91.0715 55.0295C91.0334 54.4821 91.1665 53.9241 91.5299 53.4296C92.2736 52.4153 93.6257 51.8318 94.8025 52.5715C94.9567 52.6687 95.1637 52.8357 95.3644 53.0407C94.9736 51.7959 95.3264 50.4897 96.6595 49.9275C97.4729 49.583 98.5736 49.7563 99.2792 50.3502C98.8313 47.926 102.408 46.1443 103.798 48.6488C104.114 49.2162 104.426 49.8136 104.705 50.4248L104.808 50.6546L104.819 50.6503L104.748 50.4823L104.675 50.3143C104.288 49.416 103.796 48.4819 103.661 47.5076C103.462 46.0661 104.105 44.6987 105.672 44.4874C106.481 44.3775 107.381 44.7452 107.924 45.3879C107.631 43.1516 110.128 41.5263 111.926 43.196C112.777 43.9865 113.231 45.1425 113.772 46.157C114.079 46.7298 114.391 47.3004 114.698 47.8753C114.776 47.7823 114.86 47.6893 114.949 47.5984C114.495 46.2373 114.142 44.8424 113.844 43.4391C113.561 42.116 114.222 40.7422 115.587 40.3684C116.827 40.0258 118.38 40.7911 118.657 42.112C118.851 43.0417 119.081 43.9613 119.335 44.8762C119.508 44.834 119.679 44.8044 119.848 44.7832C119.862 44.6114 119.878 44.4385 119.896 44.2666L119.963 43.6552C120.11 42.2583 120.259 40.6637 120.989 39.4762C122.233 37.4473 125.424 38.2885 125.457 40.6873C125.476 41.9279 124.971 43.158 124.796 44.3859C124.72 44.9206 124.676 45.4617 124.65 46.0027C124.99 44.2063 125.457 42.433 125.998 40.6873C126.062 40.478 126.129 40.2688 126.195 40.0596ZM98.6714 109.336C101.471 108.903 104.029 110.465 105.688 112.652C105.99 113.052 105.791 113.616 105.519 113.952C105.322 114.199 105.058 114.229 104.76 114.267C104.418 114.311 103.985 114.034 103.835 113.736C102.768 111.606 100.864 110.26 98.6714 109.431C98.6313 109.416 98.6186 109.344 98.6714 109.336ZM102.551 71.1652L102.635 71.0741C103.202 70.4864 102.307 69.5886 101.739 70.1776C101.141 70.7977 100.744 71.551 100.362 72.3144C99.9981 73.0422 101.091 73.6852 101.457 72.9545L101.623 72.6224C101.884 72.1061 102.163 71.5959 102.551 71.1652ZM94.6902 69.9589C95.493 69.8236 95.1527 68.6014 94.3532 68.7362C93.3176 68.9108 92.286 69.1093 91.2501 69.284C90.4475 69.4193 90.7879 70.6415 91.5873 70.5069C92.623 70.3321 93.6546 70.1337 94.6902 69.9589ZM142.514 61.6146C141.739 61.3557 141.406 62.58 142.177 62.8374C143.243 63.1931 144.3 63.5577 145.311 64.0516C146.042 64.4084 146.685 63.3151 145.951 62.9566C144.841 62.4145 143.684 62.0051 142.514 61.6146ZM94.5071 59.9711C93.7497 59.668 93.4207 60.8941 94.1701 61.194L96.9081 62.2894C97.6655 62.5925 97.9945 61.3666 97.2451 61.0667L94.5071 59.9711ZM152.075 56.9937L151.975 56.9306C151.288 56.4855 150.652 57.5828 151.335 58.0256C151.736 58.2854 152.223 58.4616 152.59 58.7711L152.667 58.8395C153.26 59.3996 154.158 58.5048 153.563 57.9428C153.128 57.532 152.578 57.3033 152.075 56.9937Z" fill="black"/>
<path fill-rule="evenodd" clip-rule="evenodd" d="M154.378 120.876L154.552 120.867C155.742 120.8 156.897 120.626 157.96 121.293C159.372 122.179 159.379 124.194 157.96 125.079C156.843 125.775 155.63 125.546 154.378 125.514C153.346 125.487 152.315 125.468 151.283 125.457C149.221 125.436 147.161 125.431 145.099 125.441C143.239 125.45 141.377 125.429 139.517 125.384L138.72 125.363C136.813 125.311 134.815 125.377 132.936 125.005L132.856 124.991L132.858 124.987C132.532 124.878 132.36 124.358 132.749 124.178C134.614 123.313 136.745 122.951 138.747 122.54C140.775 122.124 142.837 121.823 144.893 121.588C146.946 121.353 149.015 121.187 151.077 121.056C152.177 120.985 153.277 120.927 154.378 120.876ZM148.139 94.3053L148.275 94.2142C149.768 93.2279 151.914 92.2781 153.634 93.0269C153.732 93.0692 153.814 93.1243 153.885 93.1877C154.307 93.196 154.733 93.2311 155.159 93.2953C158.527 93.8032 161.639 96.0145 163.161 99.059C164.891 102.519 164.069 106.166 161.009 108.52C159.505 109.676 157.738 110.509 155.835 110.696C155.213 110.757 154.554 110.77 153.957 110.581C154.24 111.183 154.455 111.812 154.565 112.476C154.944 114.748 154.043 116.621 151.928 117.602C150.069 118.465 147.496 118.795 145.658 117.707C144.104 116.787 144.613 113.742 146.657 114.015C148.038 114.199 149.282 114.66 150.646 114.071C151.758 113.591 151.084 111.973 150.749 111.121C150.188 109.698 149.363 108.358 148.694 106.976L148.571 106.717C148.15 105.816 147.628 104.864 147.228 103.893C147.008 105.033 146.613 106.153 146.147 107.189C145.043 109.647 142.906 111.151 140.36 111.856C137.742 112.58 134.669 112.748 131.97 112.659C129.225 112.568 126.335 111.849 124.326 109.858C120.647 106.212 121.704 99.8319 125.575 96.7841C128.08 94.8124 131.609 93.4612 134.85 93.8112C136.473 93.4458 138.289 93.6533 139.913 94.0215C142.111 94.5197 144.209 95.5859 145.645 97.2841C145.752 97.017 145.875 96.761 146.016 96.5167C145.952 96.4875 145.913 96.3937 145.975 96.3375C146.09 96.2346 146.208 96.1359 146.325 96.0369C146.793 95.3805 147.398 94.8088 148.139 94.3053ZM121.515 111.396C121.383 111.208 121.641 110.964 121.827 111.084C123.347 112.064 124.938 112.955 126.68 113.475C128.383 113.982 130.153 113.93 131.863 114.364C132.505 114.527 132.403 115.363 131.863 115.567C129.981 116.281 127.857 115.682 126.069 114.925C124.255 114.157 122.659 113.014 121.515 111.396ZM131.715 95.7331L131.761 95.6784L131.65 95.7152C129.52 96.4325 127.766 97.6152 126.341 99.3417C123.911 102.284 123.882 106.962 127.515 108.951C129.474 110.022 131.786 110.073 133.961 109.959L134.4 109.936C136.31 109.83 138.258 109.674 140.1 109.158C142.11 108.594 143.506 107.379 144.274 105.422L144.338 105.257C145.105 103.241 145.505 101.001 144.081 99.1767C141.669 96.0874 136.096 95.4702 132.651 96.9469C131.826 97.3005 131.164 96.4376 131.715 95.7331ZM153.821 94.9043C153.763 94.9601 153.702 95.011 153.634 95.0523C152.943 95.4671 152.165 95.4714 151.398 95.6616C150.692 95.8368 150.001 96.0507 149.351 96.3814C148.331 96.9003 147.278 97.521 146.313 98.198C146.52 98.5285 146.705 98.8775 146.863 99.2469C147.301 100.268 147.449 101.343 147.403 102.423C148.076 103.005 148.638 103.729 149.233 104.383L149.758 104.96C150.37 105.636 150.978 106.319 151.548 107.028C151.887 107.45 152.23 107.881 152.561 108.326C152.604 108.193 152.665 108.063 152.75 107.94C153.072 107.476 153.569 107.242 154.137 107.376C154.633 107.494 154.966 107.719 155.485 107.722C156.12 107.726 156.733 107.589 157.335 107.393C158.517 107.007 159.676 106.314 160.541 105.415C162.493 103.387 161.464 100.53 159.941 98.5981C158.398 96.6412 156.183 95.3705 153.821 94.9043ZM136.435 99.7751C137.061 99.5942 137.994 99.8795 138.27 100.522L138.467 100.99C138.461 100.976 138.456 100.965 138.451 100.952C138.52 101.118 138.587 101.278 138.641 101.448L138.826 101.592C138.985 101.767 139.131 101.953 139.265 102.148C139.583 102.691 139.675 103.387 139.513 103.996C139.244 105.001 138.321 105.647 137.297 105.653C134.299 105.671 133.564 100.604 136.435 99.7751ZM154.521 98.8647C155.907 98.8028 156.829 100.027 156.94 101.284C157.003 102 156.858 102.782 156.653 103.466C156.347 104.488 155.374 105.127 154.326 104.987C153.491 104.874 152.753 104.239 152.545 103.423C152.271 102.75 152.116 102.01 152.103 101.284C152.078 99.9285 153.231 98.9224 154.521 98.8647ZM136.241 87.5513C137.646 87.3247 138.988 88.0078 139.193 89.5183C139.399 91.0419 138.277 92.0488 136.87 92.1984C134.218 92.4804 131.51 92.5474 128.845 92.6638C127.733 92.7122 126.62 92.7328 125.508 92.7426L124.952 92.7467C123.917 92.7528 122.567 92.9572 121.632 92.4476C121.572 92.4147 121.574 92.3396 121.613 92.2923C122.27 91.4829 123.628 91.138 124.599 90.7815L124.682 90.7509C125.911 90.287 127.154 89.8527 128.414 89.4767L129.054 89.2867C131.407 88.5934 133.828 87.9411 136.241 87.5513ZM145.159 86.8102C146.028 86.4837 146.884 86.6872 147.475 87.2395C149.45 87.7895 151.482 88.2109 153.47 88.6925L154.01 88.8254C156.502 89.4474 159.24 89.9268 161.557 91.067C161.803 91.1881 161.649 91.5022 161.432 91.5286C158.851 91.8422 156.07 91.3437 153.504 91.0435C150.875 90.736 148.232 90.2288 145.595 90.0301C143.702 89.8875 143.427 87.4618 145.159 86.8102Z" fill="black"/>
</svg>
