<svg width="240" height="324" viewBox="0 0 240 324" fill="none" xmlns="http://www.w3.org/2000/svg">
<path fill-rule="evenodd" clip-rule="evenodd" d="M181.079 176.597C179.238 169.453 177.544 166.425 174.273 163.942C171.213 161.619 166.747 159.669 160.23 158.244C153.442 157.057 153.249 153.528 151.547 147.857C151.051 146.152 148.59 145.698 147.528 146.927C147.379 146.765 147.222 146.617 147.061 146.484C147.205 145.671 146.022 143.34 146.061 142.562C146.474 134.444 143.819 130.367 137.193 128.851C135.752 128.522 125.963 128.327 124.558 128.716C118.415 130.415 112.368 135.808 113.293 142.305C111.365 144.826 109.478 146.364 106.503 147.176C99.8828 148.017 93.2631 148.764 86.641 149.404C73.6784 151.438 61.5249 158.3 53.2182 168.309C52.4521 169.233 52.2307 170.487 52.9069 171.472C52.3772 173.741 49.3956 179.246 51.7417 180.801C47.8837 190.03 39.0072 207.868 38.9905 212.964C38.9205 234.373 41.2327 262.24 62.3546 274.087C63.2003 274.919 63.3212 275.839 63.6874 277.076C64.616 280.974 67.9885 283.759 71.6798 283.532C89.8636 283.936 107.476 281.717 125.66 281.61C133.679 281.562 143.323 282.76 150.29 283.557C157.256 284.355 164.288 283.649 170.973 281.61C171.537 282.497 172.677 283.015 173.833 282.76C180.763 281.382 186.368 277.111 191.249 272.442C192.74 269.728 198.566 261.995 196.25 259.303C198.349 250.428 198.24 240.892 194.51 232.441C195.039 230.892 194.075 229.189 194.51 227.589C194.825 226.432 195.631 225.953 196.037 224.806C196.608 223.193 195.987 221.029 195.344 219.383C195.081 218.563 195.829 217.68 196.037 216.842C197.023 212.894 194.765 213.242 193.136 210.602C193.161 210.594 193.584 208.709 193.582 208.719C193.831 207.373 193.207 205.65 192.662 204.527C192.294 203.768 191.505 203.293 190.721 203.38C191.51 200.699 192.509 198.469 193.582 195.887C195.481 191.336 197.884 186.977 200.61 182.857C201.726 181.17 200.227 179.216 198.42 179.101C192.573 178.729 186.789 177.887 181.079 176.597Z" fill="white"/>
<path fill-rule="evenodd" clip-rule="evenodd" d="M164.013 211.017C161.675 210.1 159.156 209.593 156.625 209.396C157.988 209.158 159.355 208.927 160.733 208.809C161.694 208.726 162.585 208.735 163.308 209.464C163.79 209.95 164.016 210.576 164.333 211.151C164.229 211.104 164.121 211.06 164.013 211.017ZM189.116 202.441C185.286 202.636 181.451 203.546 177.987 205.197C176.569 205.873 175.284 206.85 174.908 208.456C174.718 209.276 174.765 210.124 174.866 210.952C174.942 211.58 174.961 212.381 175.506 212.806C175.599 212.877 175.699 212.932 175.802 212.972C174.524 213.549 173.307 214.243 172.225 214.957C171.237 215.61 170.22 216.616 169.764 217.751C169.726 217.622 169.688 217.502 169.65 217.388C168.872 215.088 167.675 213.205 165.788 211.939C166.122 211.789 166.352 211.434 166.244 210.944C165.796 208.896 163.905 207.116 161.77 207.243C159.431 207.38 156.919 208.232 154.804 209.308C154.033 209.291 153.264 209.301 152.503 209.335C152.372 209.339 152.379 209.517 152.503 209.532C153.12 209.61 153.737 209.697 154.354 209.798C155.82 210.033 157.282 210.331 158.712 210.7C160.428 211.145 162.203 211.59 163.806 212.366C166.916 213.873 168.841 217.813 168.446 221.241C168.38 221.803 168.163 223.502 167.383 223.327C166.724 223.179 166.462 221.803 166.232 221.293C165.615 219.941 164.503 219.057 163.17 218.459C161.605 217.755 159.93 217.28 158.307 216.726C157.388 216.411 156.469 216.096 155.548 215.783C154.606 215.46 153.71 215.014 152.706 215.24C152.1 215.378 152.03 216.1 152.37 216.515C152.888 217.147 153.657 217.333 154.403 217.593C155.387 217.935 156.37 218.278 157.352 218.62C158.871 219.148 160.462 219.594 161.943 220.241L161.896 220.346C161.776 220.313 161.634 220.433 161.658 220.581C161.88 221.949 162.188 223.529 161.845 224.899C161.575 225.985 160.622 227.188 159.384 226.869C159.579 226.691 159.651 226.385 159.52 226.102C159.029 225.053 152.607 220.915 152.034 222.452C152.015 222.506 152.074 222.547 152.121 222.538C152.609 222.437 153.427 223.269 153.817 223.534C154.381 223.914 154.954 224.286 155.512 224.677C156.122 225.104 156.718 225.552 157.299 226.015C157.756 226.379 158.1 226.757 158.624 226.941C158.349 227.072 158.131 227.315 158.039 227.625C157.802 228.435 157.346 229.122 156.553 229.479C155.723 229.851 154.787 229.616 153.913 229.707C152.721 229.828 151.682 230.394 150.813 231.204C148.99 232.907 148.075 235.908 145.525 236.713C144.002 237.193 142.312 236.891 140.77 236.673C139.048 236.43 137.37 236.238 135.636 236.492C133.975 236.735 132.406 237.309 130.889 238.011C129.467 238.668 127.895 239.413 126.634 240.393C126.374 239.592 126.112 238.799 125.913 237.982C125.444 236.048 125.191 234.078 125.129 232.091C125.072 230.2 125.178 228.3 125.341 226.416C125.421 225.476 125.548 224.54 125.628 223.599C125.649 223.362 125.691 223.109 125.723 222.855C127.975 221.526 130.341 220.507 132.726 219.459C132.733 219.457 132.739 219.452 132.746 219.451C132.82 219.417 132.891 219.385 132.965 219.353C132.963 219.349 132.961 219.345 132.957 219.34C133.23 219.174 133.42 218.952 133.534 218.702C136.971 216.422 139.844 213.309 141.987 209.678C142.884 208.156 143.749 206.577 144.923 205.244C146.174 203.821 147.659 202.976 149.497 202.536C151.646 202.021 153.86 201.712 156.061 201.536C157.263 201.441 158.607 201.293 159.917 201.3C160.83 201.306 161.723 201.384 162.543 201.61C163.758 201.944 164.468 202.868 165.23 203.802C165.959 204.698 166.684 205.597 167.364 206.531C168.008 207.416 168.617 208.331 169.145 209.291C169.462 209.866 169.756 210.458 170.003 211.068C170.089 211.284 170.203 211.529 170.256 211.753C170.309 211.979 170.212 212.218 170.465 212.218C169.42 212.233 169.43 213.905 170.47 213.843C174.539 213.607 168.71 205.66 167.858 204.552C166.652 202.984 165.408 200.938 163.477 200.209C163.449 200.198 163.42 200.188 163.392 200.179C163.954 199.647 164.398 199.009 164.822 198.36C165.26 197.692 165.781 196.927 165.925 196.134C166.016 195.629 165.389 195.342 165.091 195.783C164.658 196.428 164.449 197.244 164.125 197.952C163.796 198.67 163.394 199.349 163.077 200.074C162.315 199.839 161.491 199.732 160.652 199.696C161.71 198.263 163.519 195.498 163.737 195.143C164.738 193.499 165.691 191.804 166.601 190.106C167.586 188.268 168.429 186.353 169.371 184.493C169.906 183.439 170.444 182.375 171.038 181.352C171.243 181.002 171.463 180.651 171.712 180.332C171.76 180.268 171.822 180.216 171.879 180.156C171.944 180.12 172.012 180.08 172.05 180.059C172.392 179.863 172.513 179.406 172.753 179.116C173.138 178.649 173.59 178.594 174.169 178.588C175.403 178.575 176.641 178.624 177.872 178.658C179.683 178.708 181.491 178.78 183.3 178.875C183.847 178.905 184.392 178.935 184.939 178.968C187.57 179.125 190.198 179.33 192.82 179.581C195.139 179.803 197.459 180.165 199.781 180.338C196.637 187.809 193.151 195.145 189.205 202.226C189.165 202.297 189.135 202.369 189.116 202.441ZM171.674 221.688C171.167 221.921 170.675 222.21 170.216 222.54C170.292 222.027 170.311 221.486 170.29 220.942C170.668 221.348 171.152 221.581 171.674 221.688ZM193.319 208.836C193.283 208.84 193.249 208.859 193.232 208.895C192.53 210.343 192.824 211.96 193.969 213.095C194.569 213.687 195.877 214.355 195.835 215.327C195.799 216.113 194.943 216.772 194.578 217.421C194.238 218.026 194.111 218.689 194.383 219.345C194.732 220.184 195.706 220.518 196.04 221.342C196.462 222.388 195.776 223.65 195.294 224.561C194.846 225.404 194.267 226.247 193.883 227.139C191.307 228.473 189.002 230.519 187.021 232.596C184.851 234.868 182.99 237.542 179.544 237.474C179.2 237.468 178.938 237.65 178.781 237.901C177.822 237.946 176.861 237.965 175.902 237.969C174.216 237.977 172.53 237.96 170.846 237.907C170.728 237.5 170.814 236.946 170.808 236.601C170.787 235.492 170.776 234.384 170.73 233.275C170.717 232.966 170.704 232.655 170.692 232.347C171.298 233.444 172.481 233.943 173.829 233.866C175.997 233.74 178.177 233.385 180.323 233.065C181.454 232.898 182.582 232.708 183.708 232.505C184.633 232.341 185.939 232.383 186.585 231.641C186.738 231.468 186.746 231.151 186.507 231.034C185.867 230.719 185.464 230.895 184.76 231.03C183.902 231.197 183.042 231.356 182.18 231.504C180.526 231.791 178.868 232.057 177.205 232.292C176.259 232.425 175.31 232.556 174.361 232.66C173.533 232.748 172.6 232.869 171.932 232.246C170.586 230.986 171.34 228.874 172.192 227.602C172.209 227.577 172.209 227.553 172.202 227.532C173.005 227.344 173.806 227.124 174.604 226.97C176.14 226.674 177.687 226.425 179.235 226.203C182.417 225.749 185.62 225.448 188.818 225.146C189.611 225.07 189.619 223.823 188.818 223.897C184.223 224.318 179.605 224.717 175.071 225.603C173.935 225.822 172.806 226.072 171.685 226.353C171.154 226.484 170.586 226.689 170.03 226.696C169.997 226.696 169.963 226.696 169.929 226.693C168.841 226.66 168.683 225.728 169.28 224.952C169.354 224.857 169.43 224.761 169.509 224.671C170.565 223.411 171.881 222.57 173.237 221.699C174.757 221.492 176.271 221.031 177.759 220.693C181.43 219.856 185.102 219.019 188.776 218.184C189.496 218.019 189.19 216.912 188.47 217.075C185.681 217.707 182.892 218.339 180.104 218.97L176.022 219.896C175.207 220.08 174.188 220.45 173.229 220.583C172.756 220.649 172.297 220.657 171.883 220.56C170.546 220.243 170.478 218.571 171.055 217.578C171.702 216.462 172.923 215.764 174.007 215.132C175.885 214.035 177.883 213.247 179.835 212.338C180.182 212.262 180.528 212.186 180.875 212.11C182.89 211.666 185.193 211.449 187.09 210.635C187.659 210.394 187.348 209.498 186.786 209.51C185.314 209.542 183.773 210.066 182.335 210.377C180.778 210.715 179.219 211.051 177.661 211.387C177.505 211.421 176.58 211.717 176.44 211.651C176.352 211.609 176.32 211.301 176.29 211.098C176.195 210.43 176.126 209.728 176.229 209.058C176.457 207.555 177.71 206.85 178.978 206.273C181.8 204.99 184.895 204.187 187.976 203.865C188.685 203.791 189.395 203.745 190.109 203.722C190.948 203.696 191.639 203.548 192.064 204.375C192.731 205.677 193.099 207.351 193.319 208.836ZM189.398 256.04C188.783 253.912 188.951 251.64 188.529 249.47C188.312 248.35 188.015 247.239 187.691 246.146C187.43 245.263 186.993 244.324 186.944 243.403C186.941 243.341 187.013 243.306 187.063 243.334C187.931 243.831 188.597 244.906 189.092 245.749C189.684 246.758 190.137 247.815 190.502 248.926C191.229 251.14 191.826 253.81 190.888 256.04C190.609 256.704 189.629 256.837 189.398 256.04ZM170.392 227.856C170.912 227.805 171.431 227.706 171.951 227.589C171.37 228.156 170.833 228.838 170.535 229.595C170.489 229.014 170.43 228.435 170.352 227.858C170.364 227.858 170.379 227.858 170.392 227.856ZM165.397 272.149C164.481 271.509 163.813 270.614 163.035 269.825C162.271 269.049 163.466 267.853 164.231 268.63C164.894 269.303 165.469 270.144 166.25 270.689C166.625 270.95 166.799 271.424 166.553 271.845C166.336 272.217 165.772 272.41 165.397 272.149ZM160.286 247.559C161.959 246.835 163.604 246.047 165.355 245.526C166.402 245.214 166.845 246.846 165.805 247.156C164.192 247.636 162.68 248.352 161.139 249.018C160.15 249.446 159.29 247.989 160.286 247.559ZM142.617 247.052C142.208 246.042 143.844 245.607 144.247 246.603C144.711 247.749 145.243 248.865 145.707 250.011C146.116 251.021 144.481 251.457 144.078 250.461C143.614 249.315 143.081 248.198 142.617 247.052ZM125.178 267.219C124.906 267.583 124.452 267.78 124.022 267.523C123.663 267.307 123.443 266.734 123.719 266.366C124.525 265.292 125.341 264.231 126.285 263.273C127.05 262.497 128.245 263.693 127.48 264.469C126.637 265.324 125.898 266.26 125.178 267.219ZM122.685 154.064C123.461 154.594 124.14 155.238 124.803 155.901C125.574 156.671 124.378 157.866 123.608 157.096C123.049 156.538 122.486 155.971 121.832 155.524C121.454 155.266 121.284 154.785 121.529 154.367C121.748 153.993 122.308 153.807 122.685 154.064ZM148.056 181.273C147.618 182.151 147.223 183.012 147.198 184.011C147.171 185.099 145.481 185.099 145.508 184.011C145.54 182.704 146.022 181.571 146.597 180.419C147.083 179.444 148.54 180.302 148.056 181.273ZM157.365 159.42C158.274 158.815 159.119 160.28 158.218 160.88C157.488 161.367 156.758 161.854 156.028 162.341C155.12 162.947 154.274 161.482 155.175 160.881C155.905 160.394 156.635 159.907 157.365 159.42ZM116.989 197.627C116.834 198.701 115.205 198.242 115.359 197.178C115.597 195.533 115.887 193.91 116.333 192.308C116.625 191.259 118.254 191.708 117.962 192.757C117.516 194.359 117.226 195.982 116.989 197.627ZM111.063 216.995C109.975 216.972 109.975 215.281 111.063 215.304C112.048 215.325 113.015 215.584 113.965 215.821C115.021 216.085 114.571 217.716 113.516 217.452C112.713 217.251 111.895 217.013 111.063 216.995ZM108.876 256.01C108.502 256.192 108.118 256.356 107.741 256.529C106.984 256.875 106.228 257.221 105.472 257.569C103.897 258.292 102.323 259.017 100.751 259.746C97.6029 261.203 94.4307 262.61 91.2752 264.051C88.0574 265.522 84.848 267.012 81.6427 268.51C80.1326 269.215 78.611 269.894 77.0924 270.581C75.794 271.169 74.189 272.195 72.7635 272.292C72.6902 272.297 72.6657 272.204 72.7076 272.156C73.2461 271.544 74.1051 271.187 74.8128 270.789C75.5358 270.382 76.2723 269.999 77.0054 269.611C78.5337 268.801 80.0639 267.997 81.607 267.216C84.6936 265.653 87.7861 264.102 90.8793 262.553C94.034 260.972 97.1846 259.381 100.367 257.857C101.865 257.14 103.365 256.424 104.866 255.711C105.679 255.325 106.492 254.939 107.305 254.554C107.657 254.387 108.004 254.208 108.364 254.059C108.841 253.862 109.204 253.902 109.696 253.78C110.499 253.582 110.846 254.603 110.23 255.048C109.722 255.414 109.455 255.727 108.876 256.01ZM97.5922 273.348C97.4187 272.926 97.7819 272.413 98.1824 272.307C98.6622 272.181 99.0469 272.473 99.2221 272.898C99.6854 274.026 100.345 275.06 101.195 275.934C101.954 276.715 100.76 277.911 99.9998 277.129C98.9352 276.034 98.1704 274.754 97.5922 273.348ZM89.2913 246.208C88.5208 245.437 89.7162 244.242 90.4864 245.012L92.6768 247.203C93.4473 247.974 92.2518 249.17 91.4817 248.399L89.2913 246.208ZM66.8187 242.635C65.2439 243.097 63.4072 243.522 62.3335 244.866C62.2811 244.932 62.193 244.848 62.2245 244.782C63.599 241.931 67.5408 240.932 70.27 239.933C72.2003 239.226 74.181 238.641 76.1783 238.117C75.9786 235.838 76.5292 233.395 76.7206 231.127C76.9249 228.705 77.0912 226.277 77.1765 223.848C77.2638 221.37 77.2849 218.875 77.2034 216.396C77.1222 213.926 76.8017 211.487 76.6615 209.026C76.6479 208.788 76.9792 208.776 77.0506 208.973C77.88 211.257 78.2343 213.787 78.5043 216.196C78.7824 218.677 78.8747 221.15 78.8392 223.646C78.8024 226.212 78.6533 228.771 78.4486 231.329C78.3516 232.541 78.239 233.752 78.1327 234.963C78.0516 235.888 78.014 236.805 77.8255 237.7C79.0302 237.404 80.2376 237.124 81.4412 236.852C85.2791 235.986 89.133 235.182 92.9548 234.245C94.8309 233.785 96.6801 233.235 98.5477 232.746C100.306 232.285 102.163 231.727 103.968 231.521C104.612 231.448 104.694 232.329 104.268 232.629C102.8 233.659 100.851 234.377 99.1564 234.954C97.4553 235.533 95.6869 235.95 93.9434 236.378C90.3072 237.273 86.6367 238.005 82.9716 238.766C79.3116 239.528 75.6446 240.283 72.0258 241.222C70.2831 241.674 68.5462 242.128 66.8187 242.635ZM58.1892 197.402C57.2482 197.954 56.3987 196.492 57.3363 195.942C58.5631 195.221 59.8707 194.68 61.1888 194.152C62.2003 193.747 62.6355 195.383 61.6381 195.783C60.4535 196.257 59.2916 196.754 58.1892 197.402ZM54.7816 260.218C53.8381 260.765 52.988 259.304 53.9288 258.758C55.25 257.992 56.697 257.481 58.0662 256.81C59.0404 256.333 59.896 257.792 58.9191 258.27C57.5501 258.941 56.1029 259.452 54.7816 260.218ZM53.2492 224.56C54.1614 225.427 55.379 225.836 56.527 226.291C57.528 226.688 57.089 228.322 56.0776 227.921C54.6474 227.354 53.1905 226.836 52.054 225.756C51.2635 225.005 52.4607 223.811 53.2492 224.56ZM63.3417 176.135C64.3446 176.528 63.9053 178.163 62.8923 177.765C61.7688 177.325 60.6085 176.989 59.485 176.548C58.4823 176.155 58.9213 174.52 59.9344 174.918C61.0579 175.358 62.2182 175.694 63.3417 176.135ZM81.1457 156.9C82.2114 156.721 82.6652 158.35 81.5951 158.531C80.2675 158.755 78.9602 159.017 77.701 159.505C76.6842 159.898 76.2479 158.263 77.2516 157.874C78.511 157.387 79.8183 157.125 81.1457 156.9ZM87.0285 203.732C86.0514 203.251 86.9088 201.794 87.8814 202.272C88.9065 202.776 89.9685 203.166 91.087 203.404C92.152 203.631 91.6984 205.261 90.6376 205.035C89.3789 204.766 88.1812 204.299 87.0285 203.732ZM92.5849 177.352C93.637 177.064 94.0819 178.695 93.0342 178.983C91.1909 179.488 89.2931 179.751 87.4363 180.2C86.378 180.456 85.9304 178.826 86.9869 178.57C88.8437 178.12 90.7418 177.858 92.5849 177.352ZM116.155 169.074C117.225 169.272 116.769 170.901 115.706 170.705C114.574 170.495 113.427 170.492 112.28 170.491C111.19 170.491 111.192 168.8 112.28 168.8C113.583 168.801 114.87 168.836 116.155 169.074ZM193.027 177.907C190.266 177.643 187.5 177.432 184.73 177.273C184.601 177.267 184.475 177.259 184.346 177.252C184.331 177.223 184.312 177.195 184.293 177.165C183.389 175.838 182.723 174.511 182.147 173.01C181.595 171.582 181.061 170.109 180.211 168.819C179.243 167.351 177.935 166.201 176.502 165.205C175.632 165.79 174.826 166.475 174.087 167.2C173.311 167.964 172.115 166.769 172.892 166.005C173.548 165.36 174.248 164.764 174.988 164.226C174.134 163.706 173.262 163.218 172.411 162.732C169.223 160.913 165.959 159.23 162.628 157.692C161.079 156.975 159.511 156.339 157.933 155.694C157.084 155.348 156.245 154.902 155.396 154.5C155.457 153.9 155.278 153.228 154.817 152.833C154.477 152.543 154.213 152.435 153.807 152.231C153.716 152.199 153.661 152.18 153.636 152.169C153.655 152.173 153.71 152.19 153.801 152.22C154.016 152.319 154.033 152.29 153.851 152.133C153.841 151.791 153.167 151.068 153.013 150.715C152.476 149.504 152.309 148.223 151.517 147.12C150.425 145.6 148.591 145.026 146.882 145.541C146.704 143.713 146.658 141.805 145.969 140.173C145.95 140.129 145.889 140.109 145.861 140.158C145.143 141.382 145.082 142.745 145.027 144.157C144.974 145.482 145.025 146.837 145.198 148.153C145.088 148.238 144.976 148.318 144.86 148.396C144.315 148.756 143.728 149.033 143.111 149.238C141.936 149.626 140.704 149.796 139.473 149.855C136.293 150.007 133.016 149.686 129.89 149.14C126.727 148.589 121.878 147.76 119.064 146.177C117.207 145.133 115.494 143.859 113.757 142.624C114.387 140.595 114.547 138.414 113.913 136.7C113.837 136.495 113.516 136.457 113.455 136.7C113.058 138.336 112.942 139.98 112.413 141.597C112.405 141.621 112.397 141.646 112.388 141.669C112.223 141.557 112.059 141.447 111.894 141.337C111.513 141.086 110.996 141.274 110.768 141.633C107.119 147.384 101.341 147.714 95.2733 148.741C88.633 149.865 81.9592 151.078 75.5747 153.279C69.4691 155.384 63.6339 158.448 59.0114 163.026C57.9649 164.063 56.9864 165.167 56.0627 166.32C56.9564 166.433 57.8426 166.608 58.7175 166.883C59.7533 167.209 59.3082 168.84 58.2681 168.513C57.1438 168.16 56.0069 167.985 54.8585 167.898C51.7176 172.197 49.2685 177.071 47.1508 181.868C43.0888 191.066 40.4447 200.862 39.228 210.835C39.8961 210.434 40.5761 210.053 41.2731 209.698C42.2416 209.205 43.0957 210.664 42.1262 211.158C41.0496 211.706 40.0038 212.31 38.9906 212.964C38.548 217.33 38.3764 221.723 38.4804 226.11C38.7276 236.568 40.1388 247.332 43.3311 257.309C44.8966 262.206 46.9712 267.063 50.0621 271.202C51.4607 273.076 53.0494 274.767 54.9212 276.177C55.8276 276.861 56.7867 277.472 57.7987 277.988C59.1022 278.656 60.8008 278.876 61.9247 279.82C62.2945 280.131 62.5797 280.541 62.7952 281.004C62.6705 281.883 62.6557 282.764 62.8966 283.644C62.9726 283.919 63.1797 284.142 63.4353 284.25C63.4395 284.326 63.4395 284.4 63.4395 284.472C63.4395 284.506 63.4902 284.514 63.4966 284.481C63.5071 284.415 63.5177 284.35 63.5283 284.282C63.6107 284.309 63.6973 284.322 63.786 284.322C66.9952 284.334 70.2083 284.256 73.4217 284.147C73.1733 283.386 72.9041 282.631 72.6457 281.869C72.2948 280.835 73.9277 280.395 74.2754 281.42C74.5778 282.31 74.8938 283.192 75.175 284.086C78.618 283.958 82.06 283.804 85.4959 283.69C92.8036 283.447 100.109 283.367 107.419 283.213C118.771 282.972 130.205 282.479 141.574 282.961C141.967 282.126 142.407 281.311 142.824 280.487C143.317 279.516 144.774 280.372 144.284 281.341C143.994 281.913 143.693 282.478 143.408 283.049C145.711 283.169 148.011 283.327 150.306 283.542C154.223 283.91 158.102 284.563 162.015 284.969C165.993 285.383 169.885 285.309 173.831 284.652C174.541 284.534 174.959 284.104 175.132 283.572C175.139 283.57 175.143 283.566 175.147 283.559C175.35 283.322 175.54 283.126 175.736 282.955C175.971 282.803 176.225 282.674 176.523 282.559C177.078 282.348 177.657 282.219 178.244 282.133C178.891 282.036 179.546 282.027 180.192 281.947C180.737 281.877 181.27 281.773 181.802 281.647C182.759 281.418 183.668 281.12 184.572 280.725C185.36 280.381 186.072 279.886 186.744 279.347C188.134 278.33 189.338 277.033 190.39 275.684C191.003 274.896 191.58 274.078 192.104 273.226C193.016 271.751 193.794 270.219 194.58 268.674C194.865 268.216 195.125 267.747 195.363 267.268C193.827 266.816 192.276 266.447 190.648 266.421C189.56 266.403 189.56 264.712 190.648 264.73C192.516 264.76 194.282 265.196 196.037 265.716C196.123 265.489 196.205 265.26 196.28 265.028C196.49 264.544 196.663 264.047 196.806 263.544C196.891 263.316 196.975 263.088 197.06 262.86C197.25 262.069 197.44 261.276 197.632 260.484C198.015 259.216 198.317 257.929 198.539 256.625C198.725 255.767 198.868 254.902 198.966 254.027C199.261 251.907 199.502 249.792 199.519 247.649C199.494 246.328 199.409 245.009 199.266 243.696C199.204 242.804 199.101 241.917 198.961 241.035C198.78 239.725 198.6 238.428 198.298 237.134C198.072 236.259 197.846 235.384 197.62 234.509C197.056 232.685 196.39 230.897 195.623 229.149C195.581 229.039 195.367 228.798 195.239 228.796C195.142 228.794 195.006 228.883 195.051 229.001C195.055 229.012 195.059 229.024 195.063 229.035C195.019 228.936 194.977 228.834 194.932 228.735C194.894 228.642 194.747 228.456 194.632 228.458C194.626 228.458 194.62 228.458 194.611 228.46C194.641 228.439 194.668 228.412 194.696 228.38C195.454 227.482 195.947 226.3 196.49 225.26C196.94 224.402 197.364 223.498 197.487 222.528C197.594 221.676 197.449 220.837 196.914 220.148C196.306 219.364 195.161 218.996 195.797 217.863C196.519 216.574 197.582 215.456 196.523 213.991C195.985 213.245 195.131 212.835 194.497 212.186C193.768 211.436 193.422 210.432 193.441 209.407C193.485 209.432 193.544 209.42 193.566 209.356C194.178 207.505 193.735 205.472 193.107 203.669C192.765 202.69 192.04 202.422 191.197 202.373C194.848 195.24 198.264 187.993 201.309 180.579C201.41 180.336 201.509 180.093 201.608 179.85C201.756 179.486 201.444 179.002 201.082 178.922C198.45 178.345 195.708 178.161 193.027 177.907Z" fill="black"/>
<path fill-rule="evenodd" clip-rule="evenodd" d="M164.897 96.1525C163.447 78.4678 159.032 62.8046 138.284 62.1367C128.921 62.2204 119.363 64.2103 110.753 67.892C89.8262 78.3889 83.1862 116.745 101.624 132.185C101.514 132.247 101.488 132.428 101.617 132.515C105.426 135.078 109.66 137.188 113.901 138.96C125.197 143.737 138.494 145.812 150.014 140.63C167.594 133.147 167.858 112.324 164.897 96.1525Z" fill="white"/>
<path fill-rule="evenodd" clip-rule="evenodd" d="M199.501 87.9097C200.224 87.2587 200.762 86.4048 201.035 85.4474C201.284 84.5745 201.301 83.6214 201.037 82.7506C200.754 81.8164 200.143 81.0725 200.281 80.1003C200.296 80.0051 200.315 79.9058 200.344 79.8065C200.872 77.9762 202.172 76.6552 201.707 74.6263C201.576 74.0535 201.329 73.5378 200.984 73.132C201.022 72.6924 201.056 72.2486 201.084 71.8048C201.846 70.0189 201.819 67.8969 201.005 66.1385C200.906 65.2381 200.756 64.3462 200.545 63.4691C200.642 62.6934 200.507 61.8396 200.258 61.1612C199.82 59.9674 199.278 58.7911 198.691 57.6341C198.76 57.3177 198.729 56.9834 198.555 56.686C198.237 56.1456 197.818 55.6705 197.389 55.2062C197.086 54.6645 196.781 54.1272 196.478 53.5969C196.338 53.3532 196.183 53.0829 196.012 52.7965C196.477 51.933 196.726 51.0914 196.234 50.0758C196.049 49.6943 195.541 49.413 195.122 49.438C194.665 49.4652 194.203 49.4857 193.739 49.5033C192.871 48.4554 191.888 47.5147 190.835 46.9732C189.768 46.0686 188.686 45.181 187.634 44.2743C187.336 44.0164 187.036 43.7586 186.739 43.5007C186.736 43.4944 186.734 43.4859 186.732 43.4796C186.512 42.6786 186.265 41.8881 186.018 41.0934C185.864 40.601 185.817 40.0853 185.338 39.8169C184.336 39.2568 182.796 39.168 181.647 39.0729C181.533 38.9715 181.419 38.8722 181.305 38.7707C181.827 37.38 181.734 35.9027 181.077 34.5099C180.853 34.0365 180.075 33.823 179.648 34.1358C178.664 34.8586 177.496 35.1143 176.34 35.0087C174.641 33.7025 167.79 27.7961 166.731 27.1726C166.718 27.1502 166.708 27.1278 166.694 27.1056C166.099 26.155 165.376 25.3916 164.563 24.7795C164.447 24.6584 164.331 24.5371 164.215 24.4158C164.317 23.6911 164.586 22.9913 165.018 22.4058C165.065 22.3382 165.117 22.2727 165.17 22.2093C165.927 21.3089 165.003 20.1507 163.947 20.6221C163.871 20.6559 163.795 20.6897 163.719 20.7256C162.907 21.0879 162.008 21.4816 161.072 21.8139C160.73 21.6856 160.381 21.5693 160.063 21.4412L156.654 20.0702C156.092 19.8445 155.499 19.6532 154.956 19.388C154.767 18.1285 153.505 17.3026 152.195 17.3457C152.271 17.1039 152.384 16.8691 152.543 16.6466C152.589 16.581 152.64 16.5176 152.693 16.4563C153.367 15.6722 152.467 14.2181 151.503 14.9156C151.436 14.9642 151.366 15.0128 151.298 15.0614C151.031 15.2493 150.757 15.4256 150.48 15.5964C150.036 15.4028 149.537 15.3586 149.014 15.5634C147.857 16.0167 146.79 16.4777 145.771 17.1882C145.73 17.2172 145.687 17.2415 145.645 17.2688C145.139 16.6575 144.336 16.2488 143.613 16.2532C143.598 16.2532 143.587 16.253 143.574 16.2528C143.033 15.4288 142.042 14.9498 141.085 15.0663C141.15 13.8838 139.966 12.8285 138.889 12.7002C137.63 12.5506 136.496 13.2816 136.118 14.51C136.013 14.852 135.908 15.1942 135.803 15.5363C134.825 15.0428 133.794 14.6647 132.716 14.476C130.263 14.0461 127.864 14.5039 125.5 15.1853C125.263 15.2533 125.027 15.3233 124.791 15.393C124.454 15.0022 124.138 14.6022 123.836 14.2287C123.314 13.5841 122.061 14.0998 122.146 14.9283C122.204 15.5 121.972 15.9113 121.598 16.2036C121.188 16.2636 120.791 16.2818 120.193 16.2697C119.402 16.2537 119.042 16.2289 118.215 15.9064C117.83 15.7563 117.35 15.3618 117.126 15.0075C116.265 13.6492 114.078 13.2833 113.036 14.5785C111.94 14.0985 110.556 14.7605 109.948 15.6938C109.63 16.1818 108.965 16.4546 108.129 16.6892C107.502 16.8651 106.86 16.9982 106.215 17.1147C105.928 16.7248 105.323 16.4633 104.879 16.7903C104.578 17.0124 104.286 17.2404 103.998 17.4742C101.778 17.7802 99.5689 17.7912 97.4518 16.9251C95.6594 16.1917 94.0136 18.1947 94.3094 19.8762C93.7903 20.1465 93.2271 20.3264 92.7143 20.6096C91.5956 21.228 90.6771 22.2055 90.1172 23.354C90.0168 23.5596 89.9262 23.7684 89.8398 23.9783C89.4217 24.3188 89.0082 24.6684 88.6047 25.0372C87.9329 24.6927 87.2632 24.3482 86.5913 24.0037C86.0885 23.7458 85.2413 23.9255 85.142 24.5933C84.9794 25.6923 84.5843 26.6033 84.0202 27.3662C82.1864 28.33 80.4223 29.4121 78.7343 30.6147C76.7928 31.2234 74.7287 31.5785 73.0322 31.9779C72.4512 32.1153 72.1343 32.874 72.4618 33.3792C72.8082 33.9139 73.1547 34.4486 73.4991 34.9833C72.5336 35.9259 71.6273 36.9108 70.7716 37.9295C68.3906 40.7616 66.3984 43.8664 64.6153 47.155C63.9097 47.4403 63.204 47.7235 62.4984 48.0088C61.8181 48.2836 61.5118 49.074 62.0632 49.6552C62.3251 49.9321 62.5597 50.2238 62.7604 50.5302C61.7611 52.1851 60.5843 53.6941 58.9385 54.6833C58.4378 54.9834 58.0618 55.4547 57.8611 55.9894C57.6899 56.1035 57.5209 56.2261 57.354 56.3508C56.8892 56.7017 56.6082 57.4668 57.1533 57.9212C57.5357 58.2424 57.8949 58.6228 58.1991 59.0434C58.2646 59.2822 58.3322 59.5232 58.3998 59.762C56.8702 61.1696 55.5984 62.8055 54.6435 64.64C54.4174 64.6041 54.185 64.6273 53.997 64.7668C52.2899 66.0286 52.2392 68.0385 52.9259 69.835C52.5118 72.5424 52.778 75.3174 53.5766 77.9403C52.5266 78.9886 51.8949 80.5018 51.6371 81.9601C51.1829 84.5217 51.1512 88.4613 51.0329 91.0757C49.8878 92.181 49.0723 93.6119 48.6181 95.1505C48.2357 95.3407 47.8533 95.5309 47.4709 95.7212C47.1308 95.8902 46.8815 96.3362 46.9026 96.7124C46.9998 98.5321 47.7498 99.9693 48.7449 101.271C49.0977 102.275 49.6195 103.201 50.304 104.089C50.7773 104.697 51.2399 105.281 51.6477 105.938C51.6899 106.003 51.7153 106.065 51.7343 106.107C51.5737 106.28 51.4406 106.568 51.3244 106.773C50.3484 108.493 50.3336 110.509 51.7195 112.008C51.1977 112.435 51.1808 113.297 51.6413 113.825C54.6392 117.251 57.1385 121.417 61.2984 123.237C61.3174 123.269 61.3343 123.3 61.3491 123.332C60.5061 125.361 60.3921 126.416 61.0808 128.512C61.085 128.531 61.0913 128.548 61.0977 128.567C61.4653 129.666 62.1413 131.427 63.3604 131.769C63.7449 131.877 64.123 131.925 64.497 131.923C65.4646 132.855 66.4301 133.79 67.3956 134.724C67.4801 135.187 67.5329 135.654 67.5498 136.125C67.5773 136.913 68.3188 137.552 69.1174 137.319C69.3984 137.237 70.9533 135.726 71.2385 135.734C71.3822 135.878 71.5216 136.021 71.6611 136.167C72.1744 136.706 72.8864 137.556 72.9456 138.12C73.0597 139.183 73.7568 140.401 74.8829 140.616C75.3054 141.045 75.9815 141.174 76.4991 140.614C76.5329 140.578 76.5667 140.542 76.6026 140.511C76.6575 140.504 76.7104 140.498 76.7653 140.491C77.0146 141.235 77.2639 141.979 77.5153 142.721C78.0075 144.184 79.8878 145.124 81.223 144.27C81.4385 144.399 81.6498 144.537 81.8611 144.674C82.1822 144.879 82.5075 145.088 82.8413 145.285C82.8604 145.34 82.8794 145.395 82.8963 145.448C83.1118 146.105 84.0075 146.458 84.559 146.08C84.7301 146.135 84.9054 146.179 85.0829 146.215C86.0146 146.399 86.9526 146.348 87.8526 146.037C88.497 145.818 89.1118 145.397 89.8047 145.34C89.848 145.336 89.8926 145.339 89.9366 145.338C90.5019 146.497 91.7938 147.495 92.8119 147.834C94.1454 148.279 95.5102 148.12 96.7246 147.576C97.0523 148.231 97.4638 148.851 97.9554 149.425C98.228 149.742 98.7202 149.675 99.0012 149.425C99.5349 148.952 100.065 148.477 100.595 148C100.978 147.853 101.365 147.675 101.768 147.51C103.03 146.995 104.414 146.781 105.581 146.036C106.135 145.682 106.656 145.231 107.086 144.708C107.895 144.24 108.638 143.659 109.307 142.992C109.641 142.994 109.989 142.916 110.327 142.744C111.741 142.026 112.484 140.563 112.55 139.067C113.695 136.372 114.371 133.498 114.557 130.556C114.616 129.59 114.627 128.616 114.553 127.65C114.502 126.969 114.331 126.515 114.073 125.9C113.986 125.699 113.908 125.515 113.847 125.312C113.862 124.661 113.87 124.01 113.879 123.362C114.054 122.814 114.367 122.305 114.802 121.876C115.476 121.212 115.784 119.834 115.172 119.014C114.772 118.484 114.375 117.953 113.976 117.423C114.088 115.146 114.633 111.524 113.424 111.143C113.473 110.805 113.577 110.471 113.636 110.135C113.919 108.521 113.75 107.077 112.892 105.665C112.712 105.371 112.56 105.111 112.436 104.858C112.358 104.393 112.279 103.928 112.201 103.463C112.081 102.746 111.962 102.024 111.861 101.297C111.808 100.371 111.76 99.4452 111.707 98.5173C111.658 97.6635 111.603 96.8096 111.546 95.9536C111.57 95.5711 111.603 95.1886 111.652 94.806C111.941 92.5255 112.873 91.6823 114.487 90.0971C114.741 90.057 114.992 90.0126 115.239 89.9619C116.391 89.723 117.595 89.3532 118.78 89.4863C120.067 89.63 121.218 90.1859 122.469 89.4758C122.836 89.2644 123.646 88.6811 123.715 88.2182C123.72 88.1886 123.726 88.1633 123.734 88.1443C123.821 88.1316 123.933 88.121 124.003 88.1189C124.996 88.0851 125.944 88.4761 126.946 88.3683C128.131 88.2415 129.191 87.7152 129.889 86.9353C130.782 87.1551 131.695 87.2545 132.622 87.1319C133.4 87.0304 134.097 86.7768 134.786 86.4006C135.286 86.1301 135.128 86.0519 135.673 86.2717C136.913 86.7747 138.035 87.4383 139.431 87.0938C140.156 86.9163 140.781 86.5253 141.308 85.999C141.432 85.8765 141.643 85.6926 141.785 85.5193C142.448 85.8553 144.117 86.6141 144.392 86.6817C145.17 86.8719 145.993 86.8423 146.75 86.5887C147.305 86.4027 147.986 85.8955 148.474 85.7919C149.105 85.6567 150.508 86.5359 151.262 86.8381C152.585 87.3686 153.986 87.4996 155.325 86.9522C155.786 86.7641 156.681 86.0138 157.026 86.0202C157.586 86.7113 159.149 90.4924 159.618 91.8725C161.517 97.4521 162.01 114.874 161.133 119.318C161.099 119.449 161.063 119.578 161.027 119.709C159.95 123.575 158.828 127.506 157.026 131.108C155.325 134.502 152.974 137.558 149.6 139.411C146.101 141.335 141.994 141.84 138.06 141.58C135.527 141.415 133.036 140.906 130.586 140.267C129.305 139.936 128.036 139.566 126.772 139.181C126.221 139.014 125.661 138.858 125.12 138.663C124.165 138.319 123.665 138.291 122.75 138.733C121.917 139.135 121.704 140.32 122.137 141.066C122.843 142.284 124.136 142.368 125.384 142.723C126.656 143.085 127.932 143.431 129.217 143.742C131.678 144.334 134.179 144.788 136.702 144.997C141.219 145.376 145.873 144.792 149.984 142.821C150.449 142.597 150.897 142.358 151.33 142.1C151.17 142.324 151.007 142.548 150.842 142.77C150.386 143.385 150.724 144.431 151.364 144.767C151.567 144.873 151.77 144.974 151.974 145.074C152.002 145.139 152.031 145.205 152.065 145.27C152.65 146.445 153.876 147.138 155.124 147.439C156.608 147.794 158.268 147.542 159.777 147.498C161.175 147.455 162.574 147.413 163.97 147.371C164.3 147.363 164.629 147.352 164.959 147.341C166.62 147.291 168.278 147.242 169.936 147.191C171.415 147.147 171.346 147.261 172.734 146.669C173.353 146.403 173.86 146.027 174.286 145.526C174.553 145.408 174.81 145.272 175.058 145.118C175.852 144.623 176.558 143.96 177.208 143.228C178.313 143.577 179.862 143.254 180.077 141.865C180.424 139.644 183.31 138.695 184.658 137.089C185.746 135.793 186.523 134.096 186.483 132.467C189.225 131.139 190.717 127.641 191.065 124.674C191.228 123.298 191.203 121.825 191.437 120.426C191.541 120.314 191.634 120.196 191.712 120.069C192.4 118.955 193 117.807 193.529 116.632C194.247 116.114 195.111 115.795 196.015 115.742C198.238 115.613 198.656 112.614 196.537 111.892C196.527 111.887 196.518 111.885 196.508 111.881C197.082 110.444 197.034 108.742 196.336 107.381C196.366 107.233 196.393 107.088 196.421 106.94C197.61 105.661 198.293 103.884 198.217 102.153C198.76 101.77 199.368 101.474 200.034 101.29C201.062 101.007 201.069 99.7516 200.308 99.1894C200.002 98.9633 199.748 98.6991 199.537 98.4074C200.063 96.8265 199.856 94.9983 198.781 93.7007C199.463 92.8257 200.146 91.9507 200.828 91.0757C201.28 90.4966 201.519 89.5138 200.828 88.9643C200.386 88.6113 199.945 88.2605 199.501 87.9097Z" fill="black"/>
<path fill-rule="evenodd" clip-rule="evenodd" d="M149.69 120.752C150.415 119.473 152.578 119.681 152.908 121.173C153.579 124.198 149.973 126.992 147.234 127.062C144.512 127.131 141.459 124.813 141.853 121.886C141.95 121.162 142.917 121.25 143.246 121.704L143.374 121.878C144.269 123.081 145.451 124.326 147.112 124.033C147.8 123.912 148.426 123.481 148.842 122.928C149.344 122.259 149.289 121.461 149.69 120.752ZM132.383 98.6196C132.752 98.5179 133.124 98.5573 133.451 98.6963C134.181 98.8301 134.791 99.4388 135.005 100.134C135.022 100.194 135.041 100.253 135.061 100.312L135.094 100.4L135.006 100.177C135.047 100.396 135.225 100.627 135.29 100.847C135.369 101.118 135.388 101.425 135.361 101.723C135.593 101.726 135.825 101.734 136.057 101.754L136.28 101.774C137.532 101.89 138.906 102.104 139.647 103.185C140.064 103.793 139.673 104.887 138.908 105.004C137.729 105.185 136.714 104.533 135.54 104.402C134.43 104.278 133.269 104.349 132.173 104.55C129.911 104.963 127.832 105.881 125.628 106.456L125.328 106.532L125.328 106.531C124.951 106.622 124.522 106.097 124.895 105.789C126.661 104.338 128.922 103.162 131.15 102.446C130.825 101.929 130.725 101.249 130.947 100.695C130.981 100.58 131.024 100.468 131.069 100.357L131.162 100.128C131.172 100.02 131.192 99.9131 131.222 99.8085L131.227 99.7765L131.23 99.7784C131.396 99.2393 131.829 98.7726 132.383 98.6196ZM154.914 98.7031C155.397 98.2197 156.075 98.2911 156.579 98.6716L156.646 98.724C157.121 98.9351 157.515 99.3965 157.773 99.8241C158.041 100.268 158.219 100.72 158.226 101.209C159.395 101.213 160.515 101.564 161.373 102.508C161.651 102.813 161.84 103.283 161.687 103.696L161.597 103.942C161.308 104.722 160.012 105.172 159.572 104.254L159.552 104.209C159.084 103.119 157.287 103.234 156.333 103.345C155.667 103.423 155.01 103.589 154.367 103.774C154.141 103.839 153.916 103.91 153.692 103.983L153.468 104.055C153.348 104.094 152.726 104.432 153.113 104.352C153.217 104.331 153.296 104.482 153.189 104.533C152.728 104.754 152.235 104.314 152.266 103.818C152.319 102.957 153.686 102.484 154.344 102.187L154.384 102.169C154.636 102.053 154.9 101.941 155.173 101.837C155.02 101.609 154.893 101.355 154.788 101.083C154.688 100.826 154.621 100.576 154.585 100.303C154.549 100.169 154.549 100.036 154.585 99.9021L154.59 99.8638C154.572 99.7755 154.563 99.6842 154.564 99.5922L154.56 99.5565H154.564C154.577 99.2346 154.705 98.9121 154.914 98.7031ZM147.197 107.877C149.052 108.45 152.114 110.013 151.147 112.425C149.797 114.639 146.216 113.012 144.481 112.296C142.922 111.779 142.11 113.965 143.617 114.624C156.073 119.554 156.028 106.543 147.649 106.734C146.726 106.755 146.697 107.686 147.197 107.877ZM130.717 90.9122L131.033 90.8198C132.678 90.3432 134.357 89.5202 135.817 90.8043C136.391 91.3086 136.509 92.3565 136.099 92.9855C135.164 94.4186 133.778 94.1997 132.268 94.3218C131.119 94.4148 129.987 94.7526 128.914 95.1746C128.037 95.5198 127.224 96.0057 126.456 96.5476C125.702 97.0804 125.187 97.9133 124.413 98.3929C124.13 98.5687 123.802 98.3878 123.7 98.1027C123.339 97.0914 123.949 95.8315 124.465 94.9698C125.095 93.9186 126.052 93.0588 127.08 92.4083C128.207 91.6958 129.452 91.2844 130.717 90.9122ZM154.682 89.824C157.462 89.8231 160.137 91.37 161.692 93.6376C162.221 94.408 161.834 95.5492 161.075 95.9929C160.224 96.4908 159.314 96.1322 158.754 95.4187L158.721 95.3755C157.829 94.1875 156.679 93.2519 155.317 92.6428C154.652 92.3454 153.916 92.1042 153.197 91.9819L152.965 91.942C152.639 91.8874 152.261 91.8353 151.967 91.8863C151.809 91.907 151.664 91.9592 151.53 92.0387C151.595 92.1791 151.429 92.3481 151.276 92.264C150.585 91.8844 150.67 91.2073 151.24 90.681C152.047 89.9364 153.64 89.8242 154.682 89.824Z" fill="black"/>
<path fill-rule="evenodd" clip-rule="evenodd" d="M148.503 116.101C146.153 115.042 141.934 115.966 140.403 116.333C136.842 117.188 133.259 119.034 132.152 121.926C130.905 125.186 133.394 126.212 133.76 126.044C136.225 126.218 139.161 124.668 141.744 124.268C143.841 123.94 146.053 123.654 148.018 122.539C149.452 123.329 152.692 123.755 155.307 124.446C157.534 125.033 158.499 126.307 160.564 126.037C163.038 125.712 162.025 120.506 159.268 118.397C156.249 116.088 151.145 115.152 148.503 116.101ZM153.155 138.361C151.099 138.863 150.961 134.356 150.731 132.763C150.551 131.519 149.537 128.311 146.964 128.45C144.392 128.588 143.425 131.276 143.555 132.948C143.64 134.032 144.639 139.523 141.451 140.218C139.419 140.21 137.068 140.073 134.931 139.679C132.416 139.109 129.146 137.114 128.282 141.043C127.971 142.457 139.05 146.658 143.966 147.038C148.951 148.049 154.784 146.495 158.334 142.679C159.142 141.811 161.416 138.208 161.578 137.326C161.918 135.471 161.13 134.278 158.836 134.931C157.216 135.797 154.477 138.039 153.155 138.361Z" fill="black"/>
<path fill-rule="evenodd" clip-rule="evenodd" d="M167.178 109.153C164.613 111.805 160.331 112.566 156.919 111.144C148.156 107.481 152.445 96.0578 159.203 92.99C160.047 92.7795 161.175 92.2801 162.203 92.1668C162.296 92.1212 162.498 92.2532 162.744 92.1283C170.195 92.9606 171.892 104.532 167.178 109.153ZM138.915 109.832C136.039 113.649 130.69 114.827 126.32 113.052C117.688 109.651 120.749 99.5216 126.656 95.5503C139.133 90.8602 144.285 102.794 138.915 109.832ZM120.201 101.374C120.193 101.37 120.185 101.369 120.177 101.365C120.223 101.345 120.268 101.325 120.314 101.304C120.299 101.343 120.283 101.381 120.269 101.42C120.246 101.404 120.226 101.386 120.201 101.374ZM173.118 97.2481C172.413 97.2496 171.396 97.3654 170.813 97.8542C169.375 93.0031 164.067 88.5134 159.451 91.7872C155.817 92.9566 153.119 95.5501 151.586 98.9981C148.822 97.3533 144.476 98.0557 142.079 100.231C140.51 95.0418 136.646 93.2248 132.048 92.9566C127.029 92.1342 122.027 97.0103 120.466 100.922C119.168 100.774 117.229 100.361 116.008 101.162C108.084 99.0834 94.2302 97.9373 92.6193 99.0923C91.4712 99.533 90.8412 102.244 92.4448 102.39C93.8421 102.192 92.2817 100.404 93.6902 100.209C101.195 99.7433 108.481 101.255 115.906 101.89C116.569 102.782 118.711 103.08 119.854 102.722C118.054 109.357 121.939 113.872 127.761 115.224C136.775 117.296 144.617 109.229 142.26 100.838C144.991 99.4791 148.132 99.5374 151.106 100.253C146.136 118.554 175.598 117.733 170.997 98.4813C174.059 100.005 174.724 97.5556 173.118 97.2481Z" fill="black"/>
</svg>
