<svg width="240" height="324" viewBox="0 0 240 324" fill="none" xmlns="http://www.w3.org/2000/svg">
<path fill-rule="evenodd" clip-rule="evenodd" d="M43.0082 273.246C42.7207 273.256 42.8113 273.172 42.917 273.151C42.9474 273.183 42.9778 273.215 43.0082 273.246ZM51.4981 279.56C59.532 280.513 67.5758 279.641 75.5702 278.767C91.766 277.566 107.848 281.065 124.076 279.998C144.356 279.143 164.691 277.538 184.903 280.243C190.494 280.372 199.411 281.881 197.384 273.223C194.72 250.964 191.16 228.817 187.346 206.729C184.113 194.346 183.879 172.928 175.028 164.317C173.733 163.135 169.092 159.311 167.864 158.798C161.763 156.526 150.764 154.752 146.226 149.935C142.551 143.714 144.26 135.223 138.545 130.214C133.536 126.123 122.603 126.988 117.247 130.06C113.022 132.801 112.36 138.124 109.727 142.061C109.078 143.004 107.535 145.278 106.664 146.012C104.544 148.054 97.0963 150.2 94.9456 150.594C82.8089 153.082 76.7573 154.619 67.2116 162.687C42.2698 188.16 45.8053 233.214 38.9038 266.524C38.6214 270.186 36.3961 275.155 40.3662 277.513C43.7856 279.151 47.806 278.973 51.4981 279.56Z" fill="white"/>
<path fill-rule="evenodd" clip-rule="evenodd" d="M143.444 141.467C143.474 141.38 143.613 141.366 143.634 141.467C143.974 143.024 144.612 144.732 145.259 146.193C145.916 147.672 146.814 149.031 147.948 150.185C150.325 152.603 153.382 153.706 156.735 153.708L156.815 153.71C156.83 153.598 156.848 153.485 156.864 153.372L156.887 153.203C157.193 150.887 159.942 150.954 160.478 152.702C160.751 152.789 161.023 152.876 161.294 152.967L161.348 152.986C161.803 153.159 163.345 153.928 163.628 153.723C164.252 153.275 164.964 153.789 165.2 154.361C165.587 155.299 165.651 156.458 165.777 157.476L165.794 157.608L165.813 157.766C174.633 160.059 179.583 168.888 182.11 177.02C183.479 181.429 184.375 185.977 185.275 190.5C186.238 195.338 187.126 200.189 188.066 205.028C189.918 214.566 191.672 224.126 193.195 233.721L193.637 236.508C195.032 245.331 196.392 254.149 197.535 263.012C198.152 267.791 198.73 272.574 199.288 277.361C199.388 278.215 199.487 279.069 199.585 279.923L199.732 281.205C199.863 282.355 200.085 283.492 199.516 284.568C198.285 286.901 194.554 286.884 194.342 283.896C194.3 283.302 194.501 282.848 194.833 282.531L194.828 282.48C194.825 282.451 194.821 282.428 194.82 282.419C194.71 281.825 194.68 281.197 194.613 280.597C194.465 279.316 194.321 278.035 194.176 276.752C193.895 274.309 193.611 271.866 193.318 269.425C192.724 264.473 192.097 259.527 191.431 254.586L190.772 249.7C188.566 233.414 186.267 217.132 183.242 200.975C182.418 196.577 181.571 192.185 180.703 187.795C179.879 183.638 178.954 179.499 177.572 175.486C175.316 168.93 171.371 162.79 165.895 158.487C165.98 159.309 166.041 160.136 166.119 160.958C166.32 163.069 166.533 165.178 166.749 167.288C167.533 174.93 168.595 182.56 170.408 190.033C171.306 193.736 172.4 197.39 173.733 200.96C174.39 202.718 175.106 204.454 175.892 206.157C176.67 207.842 178.033 209.642 178.115 211.519C178.153 212.388 177.245 213.159 176.404 213.066C176.797 216.524 177.018 220.017 177.253 223.467C177.595 228.463 177.868 233.468 178.267 238.46C178.981 247.402 179.877 256.332 180.815 265.253C181.001 267.021 181.203 268.788 181.403 270.555L181.57 272.039C181.683 273.001 181.853 274.154 181.343 275.007C181.799 276.108 182.112 277.238 182.294 278.418C182.524 279.884 181.686 281.529 179.974 281.465C179.78 281.459 179.585 281.442 179.391 281.421C177.804 281.789 176.222 282.112 174.574 282.123C172.47 282.137 170.361 282.095 168.257 282.08C164.186 282.053 160.115 282.025 156.044 281.992C141.306 281.873 126.561 281.88 111.825 281.643L105.93 281.549C100.525 281.462 95.1187 281.362 89.7163 281.165C85.9959 281.03 82.2757 280.893 78.5572 280.743L77.8001 280.714C74.5192 280.594 71.2343 280.533 67.9896 280.03C67.9082 280.017 67.8731 279.932 67.8857 279.858L67.8903 279.838L67.7487 279.806C67.6663 280.161 65.9551 278.669 65.9677 277.678C65.2579 276.754 65.5896 275.279 65.6656 274.21C65.7396 273.168 65.8325 272.124 65.9149 271.082C66.0903 268.856 66.2403 266.629 66.4199 264.403C67.1445 255.429 67.7699 246.432 68.1755 237.439C68.3804 232.906 68.5452 228.37 68.7184 223.836C68.7965 221.772 68.9051 219.707 69.1074 217.652L69.16 217.139C69.3818 215.055 69.3607 212.815 70.1276 210.851C70.1382 210.824 70.1741 210.824 70.1846 210.851C70.96 212.762 71.0339 214.983 71.1903 217.08C71.2177 217.071 71.2452 217.067 71.2748 217.061C72.3459 216.551 73.4276 216.093 74.4417 215.463C74.579 215.378 74.7121 215.289 74.8473 215.203C76.4424 210.321 78.291 205.519 79.9917 200.668C85.4868 184.984 88.5206 168.281 89.1924 151.673C85.0008 154.376 80.4358 156.479 75.9982 158.738L75.5825 158.95C71.2114 161.186 67.0262 163.724 63.9142 167.603C61.2015 170.98 59.429 175.095 57.7706 179.062C55.9896 183.325 54.3839 187.664 52.9156 192.043C49.9368 200.928 47.6297 210.031 45.8297 219.227C44.053 228.302 42.7832 237.445 41.9339 246.652C41.5008 251.348 41.1058 256.048 40.7741 260.755C40.6051 263.137 40.4551 265.521 40.3156 267.907C40.248 269.065 40.1973 270.226 40.1213 271.384C40.0748 272.052 40.0663 272.741 39.8466 273.375C39.6628 273.903 39.3375 274.345 39.0332 274.812C38.4776 275.664 37.0748 275.818 36.553 274.812L36.327 274.376C36.0279 273.796 35.7548 273.212 35.7142 272.542C35.6762 271.908 35.7544 271.247 35.7903 270.61C35.86 269.323 35.9403 268.034 36.0206 266.747C36.1896 264.04 36.3776 261.332 36.5889 258.627C37.0093 253.208 37.5501 247.804 38.2304 242.41C40.6241 223.467 44.0804 204.623 50.6762 186.645C52.3072 182.2 54.1262 177.792 56.1797 173.525C58.1656 169.399 60.6776 165.504 64.3241 162.663C67.6807 160.048 71.5825 158.297 75.4594 156.598L75.9438 156.386C80.2896 154.486 84.6269 152.44 89.1649 151.028C89.0635 151.041 88.9642 151.054 88.8778 151.083C88.7783 151.115 88.7194 150.986 88.7806 150.916C89.0382 150.631 89.1459 150.337 89.4419 150.056C89.6462 149.862 89.8588 149.678 90.0775 149.501L90.3922 149.251C90.9679 148.793 91.5732 148.326 92.298 148.167C93.3229 147.943 93.8257 148.875 93.5382 149.604C93.6861 149.412 94.0832 149.469 94.1868 149.733C97.5586 158.432 99.7727 167.641 104.311 175.86C107.661 181.932 112.157 187.539 118.123 191.206C121.328 193.176 124.996 194.689 128.784 194.928C132.185 195.141 135.458 194.277 138.35 192.491C143.957 189.031 147.619 182.957 150.23 177.071C153.101 170.591 155.15 163.686 156.354 156.686C152.539 156.739 148.512 154.998 145.975 152.159C144.64 150.665 143.645 148.845 143.14 146.905C142.63 144.948 142.793 143.34 143.444 141.467ZM111.434 136.384C111.899 135.553 112.93 135.279 113.773 135.617C114.709 135.993 114.99 136.902 114.857 137.825C114.703 138.907 114.008 140.076 113.467 141.021C112.901 142.01 112.172 142.921 111.418 143.773C109.998 145.379 108.479 146.827 106.677 148.011C104.883 149.188 102.855 150.069 100.77 150.561L100.274 150.677C98.6522 151.048 96.3446 151.473 94.9936 150.591C94.9283 150.549 94.9302 150.462 94.9936 150.42C95.7246 149.91 96.703 149.819 97.5436 149.579C98.4605 149.315 99.3797 149.014 100.256 148.638C101.987 147.894 103.643 146.913 105.118 145.743C106.599 144.568 108.031 143.166 109.022 141.549C109.521 140.738 109.945 139.886 110.353 139.028C110.765 138.168 110.972 137.212 111.434 136.384Z" fill="black"/>
<path fill-rule="evenodd" clip-rule="evenodd" d="M169.552 105.012C170.861 95.5637 168.066 86.4458 164.446 77.8109C164.247 77.285 163.932 76.8296 163.526 76.5058C153.309 55.904 138.295 54.0384 117.35 55.4572C116.732 55.4435 116.695 55.4545 116.225 55.2442C116.147 46.8751 106.593 42.442 99.3219 45.2033C67.0757 60.1942 77.2153 102.398 83.6321 129.95C85.9214 140.616 88.2113 151.281 90.501 161.947C90.5779 162.303 90.74 162.612 90.9555 162.872C90.6229 162.998 90.2902 163.116 89.9638 163.227C89.2188 163.481 89.5148 164.592 90.2902 164.412C91.0501 164.236 91.7824 163.999 92.5068 163.741C93.6362 163.987 94.5831 163.248 95.4698 162.66C105.853 158.552 110.212 145.053 112.875 135.108C123.703 142.751 141.004 148.475 153.384 141.602C164.984 134.614 169.162 120.036 168.338 107.169C169.184 106.779 169.526 105.93 169.548 105.044H169.553C169.553 105.033 169.552 105.022 169.552 105.012Z" fill="white"/>
<path fill-rule="evenodd" clip-rule="evenodd" d="M96.3465 45.9903C98.7403 44.439 101.813 43.8616 104.633 43.9747C106.137 44.0349 107.542 44.4101 108.929 44.9735C110.214 45.496 111.347 46.2465 112.599 46.8184C112.675 46.8531 112.617 46.9598 112.545 46.9452C111.063 46.646 109.323 46.8267 107.821 47.041L107.671 47.0625C106.194 47.277 104.691 47.388 103.235 47.7285C100.553 48.3555 98.059 49.7219 96.5871 52.0986C94.6652 55.2024 94.1725 59.2202 94.3781 62.8013C94.482 64.6132 94.8391 66.3958 95.3951 68.1231C95.7289 69.1598 96.5045 70.2028 96.8668 71.2906C97.1425 70.7758 97.4271 70.266 97.7218 69.7624C96.3792 69.1294 96.0027 67.3701 95.9332 65.7824C95.7264 65.5825 95.5933 65.2931 95.5889 65.0275C95.577 64.3133 95.745 63.6668 96.0306 63.0752C96.1937 61.3997 96.5394 59.7291 97.1343 58.159C99.4694 51.9946 105.63 46.4386 112.616 46.9875C114.536 47.1384 116.404 47.954 117.397 49.6879C118.194 51.0803 118.2 52.7599 117.649 54.2408C117.486 54.6804 117.274 55.0773 117.025 55.4394C117.78 55.2479 118.536 55.0642 119.291 54.8822C121.91 54.2507 124.542 53.756 127.223 53.4808C130.875 53.1063 134.602 53.6729 137.948 55.131C138.866 55.3671 139.779 55.6207 140.687 55.8917C144.682 57.0833 148.781 58.6396 152.007 61.3595C153.492 62.6109 154.554 64.0667 155.417 65.6653C158.647 68.5463 161.735 71.812 163.916 75.5479C168.408 83.245 169.481 92.7662 169.665 101.517C169.835 109.555 169.129 117.676 167.623 125.574C166.94 129.159 165.834 132.49 163.599 135.43C161.109 138.704 157.789 141.283 154.063 143.013C146.477 146.536 137.089 147.049 129.716 142.684C127.498 141.371 129.495 137.949 131.735 139.228C139.014 143.383 148.304 142.434 155.308 138.029C158.267 136.168 160.816 133.623 162.436 130.507C163.619 128.231 164.127 125.62 164.566 123.079L164.8 121.719C166.157 113.904 166.77 105.888 166.444 97.9594C166.118 90.0507 164.864 81.4847 160.386 74.761C158.024 71.2146 155.012 68.1077 151.849 65.2748C151.626 65.0757 151.404 64.8774 151.181 64.6798C149.944 63.9365 148.663 63.2874 147.402 62.7335L147.133 62.6174C146.408 62.3081 145.393 61.9085 144.452 61.589C143.107 61.1323 141.74 60.7265 140.367 60.3609C139.647 60.1692 138.924 59.9933 138.2 59.8253C138.452 60.0572 138.704 60.2911 138.95 60.531C140.119 61.6674 141.047 63.018 142.155 64.2096C142.281 64.344 142.123 64.5401 141.963 64.4583C140.278 63.5931 138.408 63.033 136.648 62.3319C134.984 61.6691 133.367 60.9062 131.732 60.1749C131.323 59.9914 130.915 59.7955 130.508 59.6017C128.9 59.6182 127.293 59.656 125.689 59.7475C127.628 61.1283 129.398 62.7601 130.865 64.5496C130.986 64.6969 130.876 64.933 130.673 64.8808C127.602 64.0943 124.682 62.9383 121.763 61.7269L120.367 61.1454C119.341 61.0934 118.313 61.0691 117.285 61.0843L116.787 61.0926C115.707 61.1132 114.63 61.156 113.561 61.3196C113.306 61.3582 113.057 61.395 112.809 61.4288C111.304 62.0434 109.856 62.7844 108.552 63.7611L108.892 63.741C110.952 63.6237 113.054 63.8012 115.049 64.3334C118.927 65.368 122.235 67.8592 124.643 71.0355C124.715 71.1306 124.575 71.263 124.481 71.1983C121.452 69.1239 117.938 68.079 114.339 67.5115C112.599 67.2369 110.808 67.1425 109.051 67.2792C107.597 67.3923 106.092 67.9048 104.645 67.656C104.251 68.1474 103.872 68.6536 103.507 69.171C103.699 69.1587 103.891 69.1475 104.085 69.1385C106.163 69.0408 108.279 69.1742 110.309 69.6527C114.361 70.609 117.748 73.0429 120.846 75.715C120.907 75.7679 120.828 75.8621 120.762 75.8241C117.402 73.8843 113.497 73.3046 109.691 72.9546C107.774 72.7783 105.836 72.6984 103.915 72.8515C103.035 72.9214 102.165 73.0666 101.288 73.1569C101.217 73.1643 101.143 73.1662 101.07 73.1695C100.434 74.3692 99.8575 75.5903 99.3374 76.8079C100.925 76.3819 102.638 76.1582 104.277 76.2686C107.606 76.4928 110.908 78.0198 113.565 79.9729C113.649 80.034 113.602 80.1967 113.489 80.154C110.596 79.0607 107.729 79.0518 104.71 79.4737C103.295 79.6715 101.894 79.9399 100.527 80.3609C99.8391 80.5727 99.1595 80.8037 98.5071 81.1079C98.2109 81.2457 97.9225 81.4063 97.631 81.5578C97.3977 82.35 97.1892 83.1495 97.0012 83.9539C101.936 84.2322 106.584 86.5622 110.63 89.2362C110.727 89.3008 110.666 89.4809 110.546 89.4353C108.131 88.5237 105.503 88.1023 102.942 87.8569C100.702 87.6424 98.5039 87.759 96.277 87.8216C96.1576 88.6681 96.061 89.5171 95.9911 90.3677C96.3492 90.4681 96.7006 90.5763 97.0384 90.678C98.1494 91.0119 99.2584 91.4615 100.295 91.9827C102.401 93.0413 104.107 94.4724 105.824 96.0632C105.914 96.1463 105.821 96.3276 105.699 96.2784C103.706 95.4725 101.529 94.9564 99.4308 94.4996C98.3451 94.2634 97.2589 94.0452 96.1656 93.8451C96.0598 93.8256 95.9522 93.8094 95.8449 93.7933C95.8346 95.7328 95.9442 97.6728 96.1859 99.597L96.2328 99.9576C96.3638 100.931 96.2567 101.873 95.6121 102.546C96.5037 101.953 97.5237 101.543 98.6541 101.385C101.631 100.971 104.388 102.161 106.261 104.462C106.349 104.57 106.214 104.711 106.107 104.616C104.289 102.998 101.487 102.712 99.2296 103.474C97.1394 104.179 95.568 105.863 94.9382 107.97C94.2689 110.209 94.5754 112.681 95.7959 114.677C96.4039 115.671 97.2822 116.56 98.3812 116.997C98.5168 117.051 98.655 117.096 98.7946 117.135C99.458 116.893 100.172 117.003 100.854 117.31L100.943 117.352C101.378 117.349 101.811 117.336 102.232 117.34C103.052 117.348 103.446 118.218 103.102 118.866C103.297 119.223 103.44 119.625 103.611 119.975C103.92 120.607 104.244 121.235 104.57 121.859C105.031 122.388 105.471 122.935 105.77 123.573C105.892 123.835 106.008 124.119 106.097 124.403C106.353 124.788 106.613 125.172 106.88 125.553C107.742 126.785 108.65 127.952 109.656 129.07C110.261 129.742 110.958 130.342 111.598 130.986C111.792 131.012 111.983 131.144 112.043 131.334L112.095 131.516C112.301 131.749 112.499 131.989 112.677 132.244C113.071 132.81 112.963 133.385 112.617 133.799C113.166 137.226 112.792 140.872 112.057 144.195C111.582 146.343 111.028 148.488 110.283 150.56C109.905 151.613 109.447 152.624 108.814 153.549C108.466 154.056 108.014 154.646 107.507 155.128C107.43 155.69 107.33 156.246 107.187 156.792C105.486 163.259 98.5232 165.228 92.6934 166.054C91.5682 166.213 90.4546 165.941 89.8418 164.892C89.7002 164.65 89.6051 164.389 89.554 164.121C89.3001 164.054 89.0558 163.935 88.8368 163.764C88.8002 164.169 88.758 164.575 88.7045 164.986C88.5712 166.014 87.1846 166.323 86.8371 165.239C85.3705 160.665 84.5738 155.842 83.5688 151.142C82.5659 146.452 81.446 141.787 80.4097 137.103L79.0976 131.193C75.896 116.721 72.8973 102.063 73.6333 87.1783C74.0351 79.0531 75.5254 70.9491 78.7151 63.4407C81.3722 57.1858 85.8566 50.1586 93.1008 48.8797C93.1506 48.871 93.195 48.8761 93.2364 48.8867C94.0967 47.7676 95.1245 46.782 96.3465 45.9903ZM100.717 124.66C101.302 126.599 101.719 128.587 101.945 130.615C102.323 133.995 102.136 137.458 101.972 140.848C101.821 143.962 101.462 147.103 100.852 150.161C100.266 153.097 99.348 155.976 97.983 158.646C97.7622 159.078 97.5249 159.499 97.2756 159.912C98.0305 159.66 98.712 159.367 99.4219 158.961C100.315 158.449 101.133 157.79 101.58 157.094C102.298 155.979 102.539 154.739 102.644 153.409C102.914 149.989 103.039 146.559 103.211 143.133L103.249 142.387C103.528 137.035 103.893 131.545 103.347 126.187C102.58 125.985 101.888 125.589 101.25 125.093C101.073 124.956 100.895 124.811 100.717 124.66ZM94.8836 118.179C95.0448 119.807 95.199 121.435 95.3386 123.065C95.8341 128.85 96.1402 134.667 95.8586 140.472C95.712 143.495 95.4174 146.526 94.9083 149.511C94.6788 150.856 94.4014 152.201 94.0914 153.531L93.987 153.974C93.6724 155.292 93.4719 156.94 92.4646 157.898L92.4722 158.097C93.1793 157.023 93.8334 155.816 94.3017 154.692C96.3889 149.686 96.7702 144.235 97.1473 138.897C97.3797 135.607 97.5519 132.313 97.8208 129.025L97.9514 127.443C98.1013 125.602 98.2303 123.775 98.2127 121.935C97.8107 121.336 97.4841 120.705 97.2812 120.058C97.2487 119.954 97.2263 119.849 97.2107 119.743C96.3605 119.34 95.56 118.79 94.8836 118.179ZM106.308 129.634C106.727 131.03 107.069 132.444 107.313 133.864C107.701 136.123 107.934 138.397 108.037 140.679L108.251 139.873C108.79 137.857 109.364 135.838 110.074 133.881C108.95 133.094 108.011 131.858 107.195 130.825C106.889 130.439 106.593 130.041 106.308 129.634ZM90.2152 67.5524C89.7833 68.9469 89.4058 70.3573 89.0158 71.7632C88.0993 75.0657 87.5044 78.4588 87.0916 81.8581C85.4443 95.4306 86.8163 109.058 88.6106 122.542C89.354 128.129 90.1623 133.707 90.8561 139.301C90.8745 138.752 90.89 138.203 90.8999 137.655C91.1107 125.782 89.1132 114.076 88.3133 102.265L88.2653 101.545C87.9028 96.0227 87.681 90.3971 88.3372 84.8948C88.6748 82.0627 89.2697 79.2912 90.0613 76.5545L90.5326 74.9471C90.8511 73.8662 91.1897 72.7566 91.5914 71.6805C91.5377 71.5774 91.4866 71.4734 91.439 71.3692C90.8832 70.1468 90.4964 68.8618 90.2152 67.5524ZM91.6072 51.5534C87.4609 56.9012 83.9815 62.5821 81.8765 69.1162C77.0587 84.0705 78.1343 100.061 80.9262 115.304C82.2417 122.487 83.9382 129.585 85.4862 136.717C83.8292 123.91 81.6924 111.13 81.3523 98.1993C81.1666 91.1419 81.5315 84.0515 82.831 77.1031L82.9079 76.6946C83.4648 73.758 84.1547 70.6469 85.5671 68.0079C86.334 66.5749 87.1805 65.2377 88.1845 63.9578C88.6079 63.418 89.0832 62.9851 89.5875 62.5893C89.4396 58.9027 89.9969 54.905 91.6072 51.5534ZM98.3719 108.533C100.435 108.614 102.496 109.189 104.12 110.531C105.391 111.58 103.579 113.352 102.318 112.333C100.947 111.225 99.7181 109.966 98.2569 108.958C98.0829 108.837 98.1306 108.523 98.3719 108.533ZM94.95 103.035C94.4913 103.271 94.0356 103.319 93.5161 103.191C93.4971 103.186 93.4788 103.181 93.4609 103.176L93.3547 103.141C93.4001 103.633 93.4479 104.125 93.4952 104.617C93.9144 104.027 94.4005 103.492 94.95 103.035ZM92.8964 73.3419C92.7138 74.8678 92.5949 76.4012 92.5315 77.9368C92.47 79.4329 92.4443 80.9336 92.4373 82.4347L92.4354 83.0781L92.4381 83.0659C93.1474 80.0389 94.1505 77.0599 95.4316 74.2092C95.211 74.246 94.9871 74.2401 94.7665 74.2135C94.262 74.1524 93.7782 73.9286 93.3453 73.6667C93.1875 73.5712 93.0394 73.4598 92.8964 73.3419ZM113.937 55.6549C113.056 56.0535 112.204 56.5117 111.32 56.9012C109.565 57.6739 107.848 58.5721 106.224 59.5919C104.581 60.6239 102.998 61.7105 101.542 62.9976C101.372 63.1485 101.203 63.3011 101.034 63.4535C101 63.7864 100.975 64.1205 100.964 64.4574C100.958 64.6385 100.958 64.8279 100.96 65.0226C103.707 61.6183 107.029 58.9325 111.242 57.243C111.972 56.95 112.715 56.6892 113.464 56.4479C113.642 56.2002 113.802 55.9372 113.937 55.6549ZM113.859 52.3894C113.37 51.7388 111.961 51.7919 111.073 51.9369C109.638 52.1715 108.373 52.6736 107.142 53.4007C105.688 54.2596 104.433 55.4233 103.451 56.792C103.934 56.5194 104.427 56.2621 104.929 56.0233L105.274 55.8606C107.177 54.9679 109.239 54.1192 111.322 53.8424C112.285 53.7143 113.321 53.529 114.294 53.6334C114.246 53.1602 114.106 52.7163 113.859 52.3894Z" fill="black"/>
<path fill-rule="evenodd" clip-rule="evenodd" d="M143.152 128.274C141.732 127.694 140.465 126.727 139.538 125.492C139.216 125.063 139.133 124.61 139.2 124.195C139.276 123.729 139.552 123.306 139.928 123.023C140.305 122.738 140.777 122.598 141.233 122.67C141.63 122.732 142.024 122.949 142.337 123.399L142.402 123.489C142.953 124.235 143.67 124.846 144.488 125.24C145.276 125.62 146.158 125.798 147.07 125.695C148.808 125.498 150.005 124.558 151.278 123.282C151.436 123.121 151.594 122.954 151.752 122.786C151.852 122.632 151.991 122.534 152.146 122.482C152.317 122.425 152.511 122.428 152.689 122.49C152.86 122.55 153.013 122.663 153.116 122.814C153.213 122.958 153.269 123.135 153.251 123.338C153.134 124.661 152.443 125.842 151.461 126.769C150.37 127.798 148.924 128.511 147.563 128.76C146.064 129.036 144.536 128.839 143.152 128.274ZM148.271 107.866C149.866 108.836 152.297 111.098 150.581 113.503C148.56 115.624 145.652 113.192 144.219 112.093C142.889 111.241 141.396 113.432 142.629 114.427C152.986 122.098 157.19 108.12 149.078 106.725C148.184 106.572 147.853 107.566 148.271 107.866ZM129.711 98.9426C129.887 96.7538 133.219 96.2568 133.551 98.4227C133.847 100.363 133.498 102.145 132.624 103.892C131.79 105.561 129.692 104.782 129.533 103.263C129.32 101.226 129.601 100.304 129.711 98.9426ZM155.076 97.9736C155.541 97.3649 156.212 96.9494 157.015 97.1842C159.526 97.9182 158.786 101.484 157.904 103.22C157.425 104.163 155.876 104.402 155.176 103.572C154.035 102.218 153.489 99.5154 154.939 98.1822C154.979 98.1133 155.023 98.0438 155.076 97.9736ZM132.589 89.3651L132.986 89.2957C134.213 89.0834 135.738 88.8794 136.606 89.8662C137.067 90.3895 137.225 91.3622 136.606 91.8631C135.518 92.7444 134.314 92.4029 133.01 92.4775C131.935 92.5392 130.902 92.7171 129.867 93.0132C127.595 93.6627 125.744 94.8484 123.804 96.1503C123.55 96.3211 123.29 95.9954 123.411 95.7572C124.531 93.5627 126.701 91.7601 128.875 90.6613C130.036 90.0748 131.305 89.5883 132.589 89.3651ZM152.787 88.3821L153.091 88.4442C156.394 89.1351 160.687 90.515 162.251 93.7613C162.311 94.2203 162.248 94.3187 162.196 94.3829L162.179 94.4043C162.137 94.4592 162.104 94.5349 161.905 94.5974C161.849 94.5842 161.794 94.5703 161.737 94.5555C161.02 94.3675 160.453 94.1085 159.904 93.8398L159.308 93.5462C158.617 93.2073 157.92 92.8807 157.181 92.6396C155.605 92.1252 153.983 91.7628 152.337 91.5693C151.98 91.5274 151.636 91.4069 151.365 91.2004C151.107 91.0044 150.911 90.733 150.821 90.3722C150.705 89.9053 150.738 89.5518 150.989 89.1306C151.177 88.8143 151.447 88.5951 151.756 88.4692C152.071 88.3408 152.43 88.3106 152.787 88.3821Z" fill="black"/>
<path fill-rule="evenodd" clip-rule="evenodd" d="M169.071 112.228C168.37 111.288 167.112 110.053 165.839 110.12C165.676 110.128 165.615 110.305 165.713 110.424C166.129 110.933 166.698 111.295 167.115 111.814C167.609 112.429 167.965 113.17 168.197 113.92C168.534 115.009 168.627 116.241 168.327 117.349C167.798 119.301 166.125 120.732 164.3 121.462C162.494 122.185 160.32 122.432 158.612 121.373C156.091 119.808 153.952 117.553 150.783 117.509C150.041 117.498 149.519 117.838 149.208 118.323C148.895 117.855 148.379 117.525 147.656 117.516C144.103 117.476 141.452 119.923 138.47 121.448C136.454 122.479 133.847 122.159 131.768 121.478C129.806 120.836 127.677 119.546 126.938 117.509C126.529 116.384 126.621 115.071 127.04 113.962C127.316 113.233 127.741 112.529 128.268 111.956C128.814 111.362 129.532 110.988 130.092 110.424C130.206 110.309 130.116 110.13 129.965 110.12C127.589 109.959 125.444 112.797 124.996 114.856C124.554 116.883 125.213 118.906 126.546 120.453C129.257 123.599 134.277 124.636 138.184 123.712C141.347 122.964 144.35 121.241 147.656 121.488C148.381 121.542 148.901 121.24 149.215 120.782C149.529 121.254 150.053 121.562 150.783 121.491C153.864 121.193 156.614 123.376 159.605 123.909C161.986 124.333 164.558 123.761 166.598 122.477C168.731 121.136 170.232 118.984 170.331 116.419C170.388 114.943 169.955 113.416 169.071 112.228Z" fill="black"/>
<path fill-rule="evenodd" clip-rule="evenodd" d="M159.889 92.1489C164.848 92.1489 167.678 93.2157 168.715 93.2988L168.746 93.3011C169.177 93.3287 169.564 93.3647 169.97 93.5218C171.463 94.0969 171.706 95.6631 170.835 96.6502C170.774 98.6926 171.043 101.079 170.582 103.128C170.013 111.766 165.953 113.224 163.644 113.756C162.486 114.023 161.112 114.129 159.881 113.847C157.781 113.769 155.705 113.111 153.929 111.966C151.455 110.37 149.618 107.917 149.022 105.005C148.739 103.618 148.607 102.173 148.761 100.762L148.783 100.568C147.979 100.183 147.048 100.11 146.087 100.076C145.628 100.06 145.176 100.046 144.737 100.065C144.307 100.113 143.883 100.177 143.457 100.264C142.993 100.404 142.554 100.636 142.148 101.002L142.12 101.538C142.044 102.875 141.869 104.216 141.598 105.527C141.198 107.463 140.556 109.311 139.188 110.684C138.725 111.376 138.152 111.994 137.456 112.528C134.929 114.475 131.496 115.189 128.345 114.92C121.949 114.374 118.252 109.294 117.4 107.123L117.349 106.992C116.733 105.377 116.243 103.283 114.298 102.936L113.884 102.862C112.996 102.695 112.177 102.463 111.657 101.597C111.429 101.219 111.312 100.796 111.283 100.364C110.979 100.388 110.676 100.41 110.374 100.432C107.964 100.942 93.5071 101.374 92.3532 101.374C92.3532 101.374 90.1351 102.308 89.1986 101.584C88.5495 101.081 88.3359 100.411 88.6933 99.6508C89.2324 98.5077 91.7198 97.8201 92.8243 97.6023C92.8243 97.6023 110.648 97.7504 111.931 97.5071C112.724 96.6884 114.144 96.8004 115.33 96.671C116.313 95.9704 117.686 95.5012 118.772 95.1871C118.993 95.1033 119.212 95.0222 119.425 94.9458C121.414 94.237 123.482 93.8616 125.582 93.6599C127.747 93.4541 129.919 93.5473 132.071 93.8422C132.978 93.9653 133.877 94.1245 134.769 94.3327C136.366 94.5434 137.955 94.8904 139.553 95.3021L139.873 95.3853C141.556 95.8267 143.285 96.2085 145.028 95.9093C146.446 95.6673 147.81 95.1212 149.118 94.5307L149.288 94.4534C152.163 93.14 156.654 92.1489 159.889 92.1489ZM134.596 96.9513C133.535 96.7179 133.082 98.3543 134.146 98.5884C134.9 98.7541 135.539 99.1344 135.97 99.7785L136.016 99.8486C136.595 100.77 138.059 99.9194 137.476 98.9916C136.82 97.9475 135.8 97.2161 134.596 96.9513ZM165.671 95.9367C165.296 95.6731 164.73 95.8688 164.513 96.2412C164.274 96.6513 164.431 97.108 164.781 97.3763L164.817 97.4025C165.138 97.629 165.451 98.0351 165.49 98.4512L165.494 98.5033C165.536 99.5922 167.228 99.5977 167.185 98.5033C167.144 97.4326 166.524 96.5381 165.671 95.9367Z" fill="black"/>
</svg>
