<svg width="240" height="324" viewBox="0 0 240 324" fill="none" xmlns="http://www.w3.org/2000/svg">
<path fill-rule="evenodd" clip-rule="evenodd" d="M51.5017 284.881C64.4381 285.244 76.6583 285.643 89.5697 284.881C110.231 283.603 170.864 285.908 184.192 284.881C185.198 284.804 188.657 285.908 188.729 284.881C189.315 277.736 189.695 205.447 187.954 200.473C186.213 195.499 177.622 171.588 166.674 160.438C163.621 157.426 158.976 156.259 156.41 152.778C154.197 148.983 154.369 146.755 152.184 144.758C151.236 143.891 149 143.54 147.338 142.337C145.668 140.676 147.249 137.019 146.564 134.706C145.15 128.931 139.943 125.226 134.252 124.353C126.342 122.459 117.991 124.25 114.202 130.466C112.791 132.779 113.542 135.592 111.807 139.299C111.931 142.101 108.661 142.778 106.707 143.888L102.825 147.813C90.8677 154.543 76.8008 158.178 66.3234 167.221C57.4155 176.261 48.5554 186.709 44.603 198.94C43.7847 202.273 43.5177 205.718 43.1786 209.123C42.2106 219.075 39.515 228.735 37.1953 238.429C34.5502 250.642 32.0846 263.608 35.6495 275.937C36.6773 278.546 49.1619 284.759 51.5017 284.881Z" fill="white"/>
<path fill-rule="evenodd" clip-rule="evenodd" d="M113.516 131.461C113.62 131.122 114.066 131.218 114.099 131.539C114.435 134.726 114.013 138.057 113.607 141.223C113.413 142.751 113.301 144.341 113.005 145.847C112.967 146.008 112.931 146.171 112.897 146.331C112.994 146.505 113.282 146.699 113.419 146.832L114.015 147.412L115.21 148.57C117.549 150.835 119.888 153.103 122.227 155.369L125.66 158.698C126.837 159.839 128.174 160.932 129.207 162.204C129.767 162.895 129.894 163.742 129.342 164.482C129.07 164.848 128.58 165.114 128.083 165.169C128.277 165.439 128.427 165.746 128.522 166.086C128.717 166.78 128.016 167.631 127.27 167.342C126.423 167.016 125.723 166.433 124.861 166.154C123.991 165.871 123.044 165.816 122.142 165.968C121.728 166.038 121.322 166.141 120.927 166.272C125.155 168.219 129.729 169.337 134.394 169.497C135.344 169.529 136.293 169.516 137.237 169.453C138.826 169.349 140.404 169.109 141.955 168.72C143.174 168.413 144.38 168.028 145.551 167.563C146.125 167.335 146.694 167.084 147.243 166.799L147.291 166.77C147.415 166.692 149.711 165.39 149.751 165.194C149.791 164.999 149.791 164.931 149.716 164.76C149.641 164.59 149.434 164.472 149.434 164.472C148.725 164.169 147.99 163.887 147.216 163.882C145.432 163.871 143.487 165.19 142.012 166.088C140.392 167.075 138.902 168.229 137.343 169.299C137.307 169.324 137.267 169.335 137.229 169.335C137.064 169.335 136.912 169.132 137.018 168.973C138.135 167.327 139.643 165.957 141.221 164.76L141.857 164.283C143.302 163.205 144.992 162.012 146.749 161.751C148.901 161.434 151.149 162.777 153.07 163.563L156.471 164.955C157.077 165.203 157.737 165.414 158.347 165.695L156.922 161.234C156.21 159.003 155.499 156.771 154.796 154.538L154.659 154.101C153.959 151.834 153.315 149.476 152.148 147.405C151.87 146.908 151.551 146.441 151.236 145.97C150.908 145.482 150.786 144.943 150.374 144.507C149.559 143.643 148.39 143.136 147.275 142.804C147.002 142.724 147.083 142.364 147.338 142.337C148.483 142.216 149.574 142.483 150.609 142.966L151.039 143.171C152.017 143.634 152.971 144.065 153.697 144.896C155.353 146.794 156.213 149.184 157.004 151.542L157.215 152.175C157.51 152.078 159.52 152.691 159.771 152.837C167.303 156.022 173.104 161.952 177.347 168.901C181.994 176.516 184.525 185.218 186.615 193.828C187.259 196.486 187.876 199.151 188.469 201.823C185.829 202.838 183.024 203.37 180.553 204.801C179.612 205.346 180.462 206.808 181.406 206.261C183.72 204.921 186.356 204.426 188.833 203.484C190.176 209.669 191.371 215.888 192.372 222.132C195.446 241.297 197.387 260.775 197.265 280.203C197.263 280.632 197.136 281.111 196.901 281.524C197.039 281.456 197.147 281.376 197.208 281.279C197.987 280.055 199.941 281.19 199.158 282.42L199.043 282.598C198.455 283.505 197.906 284.198 196.872 284.711C195.83 285.227 194.702 285.313 193.553 285.343C189.647 285.446 185.738 285.513 181.827 285.561C181.291 281.377 181.073 277.152 180.334 272.993C180.144 271.923 178.515 272.376 178.704 273.442C179.418 277.459 179.646 281.537 180.144 285.581C171.784 285.671 163.42 285.672 155.066 285.696C143.746 285.729 132.426 285.706 121.106 285.699L116.254 285.698C103.177 285.698 90.0992 285.655 77.0219 285.569L73.9119 285.547C72.6747 278.251 71.8326 270.892 71.8169 263.478C71.8146 262.39 70.1245 262.388 70.1268 263.478C70.1424 270.884 70.9753 278.243 72.201 285.537C69.1047 285.524 66.0098 285.535 62.9133 285.645L61.3372 285.701C58.1838 285.809 55.0241 285.876 51.8767 285.624C48.3823 285.343 44.848 284.7 41.7149 283.054C40.3038 282.311 39.0614 281.361 37.9995 280.245C39.0789 279.617 40.1737 279.014 41.2193 278.33C42.1258 277.736 41.2801 276.272 40.3662 276.87C39.2395 277.608 38.0551 278.25 36.895 278.932C36.055 277.811 35.3657 276.566 34.8421 275.223C34.0161 273.103 33.6971 270.823 33.4203 268.578C33.0931 265.935 32.9576 263.269 32.9576 260.606C32.9576 255.006 33.5471 249.422 34.3691 243.889C35.1552 238.588 36.1943 233.33 37.2927 228.088L37.4429 227.373C38.5267 222.221 39.5598 217.053 40.802 211.936C41.9507 207.205 43.2781 202.496 44.86 197.877C46.2681 198.748 47.7417 199.51 49.1279 200.418C50.0407 201.015 50.8886 199.552 49.981 198.958C48.5021 197.99 46.9248 197.185 45.4324 196.239C47.2013 191.294 49.2776 186.464 51.767 181.838C56.7527 172.575 63.4712 164.288 72.0762 158.171C76.3837 155.111 81.1098 152.606 86.0726 150.784C91.1325 148.925 96.376 147.906 101.738 147.488C101.891 147.475 101.977 147.617 101.971 147.748L101.968 147.773L102.18 147.807C102.258 147.276 102.418 146.762 102.725 146.291C103.422 145.218 104.744 144.529 105.801 143.869L106.051 143.713C107.308 142.934 108.634 142.166 110.096 141.893C110.147 141.884 110.178 141.937 110.144 141.978C109.18 143.083 107.948 143.928 106.818 144.863L106.558 145.08C105.622 145.851 104.316 146.725 104.282 148.014C104.242 149.531 104.552 151.11 104.664 152.623C104.776 154.132 104.854 155.639 104.894 157.152C105.04 162.574 104.865 167.997 104.385 173.397L106.506 171.976C109.807 169.766 113.119 167.562 116.499 165.492C118.544 164.239 120.843 163.167 123.294 163.216C123.98 163.229 124.756 163.328 125.499 163.54C124.699 162.781 123.932 161.973 123.148 161.211C121.857 159.953 120.566 158.695 119.275 157.44L115.554 153.813L111.83 150.186C110.677 149.06 109.325 148.022 109.447 146.247C109.547 144.831 110.267 143.421 110.759 142.056C110.829 141.859 110.892 141.665 110.951 141.473C111.944 138.171 112.508 134.749 113.516 131.461ZM161.62 273.107C160.85 272.336 159.655 273.531 160.425 274.302L160.832 274.708C161.512 275.387 162.187 276.086 162.658 276.926L162.727 277.053C163.234 278.016 164.693 277.162 164.186 276.199C163.559 275.009 162.561 274.048 161.62 273.107ZM128.634 272.889C126.183 272.421 123.821 272.421 121.37 272.889C120.303 273.093 120.755 274.723 121.819 274.52C123.963 274.11 126.041 274.11 128.185 274.52C129.248 274.722 129.703 273.093 128.634 272.889ZM95.5346 255.846C94.48 255.578 94.03 257.209 95.0855 257.476L95.6051 257.607C97.3716 258.043 99.054 258.369 100.889 257.963C101.937 257.732 101.513 256.141 100.481 256.324L100.44 256.333C98.7417 256.708 97.1774 256.262 95.5346 255.846ZM154.319 244.863C153.538 244.104 152.342 245.299 153.123 246.059C154.099 247.008 155.248 247.729 156.641 247.767C157.713 247.797 157.728 246.157 156.689 246.079L156.641 246.077C155.708 246.051 154.964 245.491 154.319 244.863ZM54.8487 240.348C55.8218 239.861 54.9668 238.402 53.9959 238.888L48.1547 241.809C47.1816 242.296 48.0366 243.755 49.0076 243.269L54.8487 240.348ZM170.271 240.72C169.183 240.69 169.184 242.38 170.271 242.411C171.293 242.44 172.341 242.827 173.252 243.269C174.226 243.743 175.084 242.285 174.105 241.809C172.914 241.231 171.607 240.757 170.271 240.72ZM115.694 232.557C116.588 231.949 115.743 230.483 114.841 231.097C113.608 231.934 112.492 232.924 111.28 233.786L110.946 234.018C110.052 234.626 110.897 236.092 111.8 235.478C113.143 234.565 114.35 233.47 115.694 232.557ZM178.546 220.268C177.458 220.268 177.456 221.958 178.546 221.959L178.752 221.958C179.65 221.953 180.596 221.928 181.431 222.287L181.527 222.33C182.505 222.792 183.364 221.334 182.38 220.871C181.156 220.294 179.876 220.269 178.546 220.268ZM84.6838 219.06L84.8258 219.007C85.842 218.642 85.4038 217.007 84.3764 217.377C82.8282 217.933 81.6238 218.984 80.2808 219.897C79.3858 220.505 80.2305 221.97 81.1337 221.357C82.2908 220.571 83.3675 219.575 84.6838 219.06ZM148.078 214.662L148.306 214.54C149.274 214.041 148.42 212.582 147.453 213.08C146.686 213.474 146 214 145.247 214.418L145.019 214.54C144.052 215.038 144.906 216.498 145.872 216C146.64 215.605 147.326 215.08 148.078 214.662ZM122.367 198.284L122.193 198.116C121.415 197.354 120.219 198.549 120.998 199.312C122.942 201.216 125.242 202.662 127.561 204.06L127.983 204.314C128.918 204.875 129.769 203.413 128.836 202.854L128.217 202.481C126.155 201.237 124.117 199.953 122.367 198.284ZM75.5958 196.706C76.2512 195.855 74.826 195.021 74.1598 195.823L74.1364 195.852C73.4542 196.738 72.6447 197.541 71.7987 198.273L71.6396 198.409C71.136 198.838 70.2193 199.756 69.5117 199.816C68.436 199.908 68.4262 201.6 69.5117 201.507C70.6065 201.414 71.5486 200.643 72.3757 199.983C73.5795 199.022 74.6563 197.926 75.5958 196.706ZM165.514 190.547C166.299 189.809 165.139 188.634 164.347 189.326L164.319 189.351C162.851 190.73 160.74 191.1 158.851 191.568C157.796 191.83 158.243 193.461 159.3 193.199L160.161 192.986C162.092 192.504 164.029 191.943 165.514 190.547ZM132.041 179.882C130.987 179.613 130.537 181.244 131.592 181.512C133.385 181.968 135.083 182.557 136.744 183.375C137.717 183.853 138.574 182.396 137.598 181.915C135.81 181.035 133.972 180.372 132.041 179.882ZM149.307 144.239C149.282 144.163 149.362 144.076 149.44 144.104C151.337 144.811 150.329 147.296 149.739 148.784L149.632 149.056C148.709 151.44 147.419 153.76 146.011 155.895C144.539 158.129 142.904 160.268 141.133 162.276C140.365 163.147 139.569 163.994 138.745 164.815L138.435 165.122C137.603 165.94 136.53 167.378 135.239 167.219C133.849 167.052 133.073 165.566 134.087 164.438C134.804 163.639 135.797 163.003 136.597 162.276C137.392 161.557 138.161 160.815 138.911 160.052C140.445 158.486 141.898 156.831 143.227 155.088C144.512 153.401 145.742 151.669 146.86 149.867L147.083 149.506C147.934 148.105 149.899 146.044 149.307 144.239ZM82.1072 161.95C81.2068 161.334 80.3604 162.799 81.2541 163.41C82.8973 164.533 84.343 165.894 86.1217 166.818C87.074 167.313 87.921 165.895 87.0085 165.377L86.9748 165.358C85.1974 164.435 83.7496 163.073 82.1072 161.95Z" fill="black"/>
<path fill-rule="evenodd" clip-rule="evenodd" d="M119.872 55.5157C151.894 53.9404 166.344 76.4952 167.279 86.5694C167.928 93.5625 163.798 101.623 163.798 107.872C163.798 111.061 167.701 117.909 165.884 122.558C161.839 132.906 153.274 144.389 142.36 144.389C131.446 144.389 117.242 147.409 105.182 130.135C104.051 128.514 89.7385 119.302 88.3481 110.549C84.8846 88.7449 97.0234 56.6398 119.872 55.5157Z" fill="white"/>
<path fill-rule="evenodd" clip-rule="evenodd" d="M118.363 41.479C119.508 40.1686 121.441 39.6444 123.158 39.7459C125.653 39.8938 127.823 41.4346 130.306 41.5487C132.908 41.6692 135.42 40.7667 138.029 41.1852C139.629 41.443 141.213 42.1849 142.238 43.4361C145.787 42.4195 149.641 43.7658 151.901 46.7057C154.69 46.2724 157.724 48.1198 158.577 50.808C162.12 50.9221 165.465 53.769 165.86 57.3366C167.275 57.7107 168.505 58.6873 169.259 59.9785C170.136 61.4748 170.282 63.191 170.123 64.8776C171.79 65.7293 172.637 67.5596 172.859 69.4956C174.382 70.6326 175.044 72.6764 174.733 74.606C175.899 75.2633 176.502 76.7935 176.495 78.1588C176.489 79.4332 176.151 80.5621 176.626 81.7919C177.05 82.8873 177.202 83.8002 176.969 84.9476L176.945 85.0594C176.904 85.2464 176.869 85.4259 176.838 85.6028C177.153 85.8796 177.42 86.2267 177.621 86.6304C178.351 88.1056 178.242 89.7881 177.685 91.2843C177.929 92.2371 177.898 93.2435 177.538 94.1593C178.213 95.1326 178.568 96.3263 178.464 97.5648C178.347 98.9514 177.714 100.193 176.754 101.111C177.01 103.005 176.24 105.052 174.848 106.385C175.045 107.519 174.875 108.708 174.255 109.783C173.813 110.549 173.218 111.12 172.531 111.517C172.554 112.15 172.468 112.797 172.258 113.445C171.966 114.345 171.471 115.173 170.82 115.841C171.208 118.326 169.721 121.083 167.103 121.78C166.883 121.839 166.674 121.866 166.473 121.87C166.213 124.26 165.645 126.617 164.765 128.856C162.53 134.556 158.465 139.539 153.165 142.648C150.543 144.185 147.598 145.237 144.591 145.677C142.428 145.994 140.347 145.916 138.175 145.7C135.45 145.427 132.712 145.019 130.063 144.318L129.636 144.204C128.538 143.91 127.38 143.57 126.429 142.978C125.364 142.314 124.811 141.291 124.566 140.087C124.429 139.416 124.853 138.695 125.587 138.681L125.634 138.681C125.795 138.684 125.954 138.678 126.115 138.668L126.237 138.66H126.243C126.251 138.658 126.256 138.658 126.264 138.658C126.336 138.647 126.406 138.626 126.475 138.616C127.282 138.48 127.988 138.614 128.746 138.867L128.841 138.899C130.118 139.338 131.383 139.746 132.701 140.048C134.064 140.359 135.444 140.606 136.827 140.801L136.965 140.818L137.007 140.824L137.028 140.826C137.032 140.826 137.037 140.826 137.041 140.828L137.448 140.879C137.77 140.917 138.091 140.951 138.412 140.985C139.003 141.044 139.595 141.09 140.187 141.124C150.397 141.699 158.972 133.657 161.56 124.015C162.498 120.526 162.56 117.045 162.283 113.562C162.194 113.308 162.141 113.027 162.144 112.719C162.144 112.558 162.152 112.4 162.163 112.239C161.818 108.87 161.221 105.499 160.846 102.117C160.409 98.1673 160.166 94.1942 160.255 90.2184C160.299 88.255 160.508 86.3106 160.783 84.3664L160.882 83.6679C159.641 83.4254 158.487 82.8366 157.568 81.9842C155.574 83.1361 152.994 83.2382 151.026 82.0219C148.82 83.4056 145.738 83.5311 143.517 82.1783C142.175 83.1369 140.484 83.5506 138.823 83.1866C138.076 83.023 137.334 82.669 136.698 82.1789C136.244 82.259 135.784 82.2901 135.327 82.2662L135.232 82.319C134.178 82.8749 133.01 83.2407 131.808 83.1999C130.918 83.1699 130.002 82.9943 129.153 82.662C128.246 83.2094 127.254 83.5831 126.193 83.7171C124.643 83.9126 122.97 83.5696 121.681 82.6899C119.325 84.0324 116.427 84.2391 113.884 83.3371C113.364 84.2195 112.643 84.9803 111.799 85.5668C111.95 86.1083 111.998 86.6857 111.946 87.2409C111.861 88.1548 111.632 88.9742 111.257 89.7102C111.652 90.5319 111.771 91.5409 111.55 92.5537C111.235 93.998 110.395 95.2545 109.307 96.2331C109.212 98.538 107.948 100.699 105.891 101.9C105.787 101.961 105.684 102.01 105.58 102.055C105.49 102.179 105.381 102.288 105.257 102.38C103.949 103.589 101.88 103.493 100.24 102.81C100.209 102.812 100.177 102.814 100.145 102.815C99.5598 102.83 99.1607 102.601 98.9238 102.265C98.6853 102.278 98.4485 102.303 98.21 102.348C97.3393 102.511 96.3844 102.823 95.5964 103.229C93.5513 104.282 92.6048 106.142 92.3217 108.378C92.0135 110.817 92.7147 113.302 94.6015 114.953C95.5182 115.756 96.6907 116.259 97.8823 116.47C99.1985 116.705 100.606 116.128 101.577 117.259C101.772 117.483 101.905 117.795 101.799 118.098C101.47 119.04 100.927 119.402 100.077 119.533C101.305 120.989 102.564 122.397 103.958 123.705C105.467 125.123 107.026 126.497 108.387 128.061C109.825 129.716 111.125 131.47 112.027 133.478C112.542 134.632 112.956 135.821 113.402 137.003L113.482 137.209C113.979 138.464 114.641 139.674 113.875 140.985C113.571 141.5 112.882 141.999 112.248 141.917C110.463 141.689 109.866 140.482 109.316 138.909C108.902 137.722 108.585 136.5 108.14 135.323C108.056 135.105 107.965 134.889 107.87 134.674C106.841 134.962 105.709 134.734 104.79 134.147C103.809 134.582 102.721 134.799 101.671 134.78C100.265 134.756 98.9803 134.365 97.8757 133.66C97.7879 133.637 97.6996 133.614 97.6119 133.589C95.9317 134.233 93.9639 134.118 92.4426 133.075C91.4574 132.399 90.7839 131.497 90.4011 130.493C89.1282 130.469 87.8691 130.017 86.957 129.114C86.1196 128.285 85.63 127.214 85.4847 126.103C84.3891 125.885 83.3619 125.356 82.5563 124.463C81.8836 123.718 81.4748 122.768 81.3367 121.783C80.0023 121.402 78.7989 120.53 78.1417 119.315C77.53 118.183 77.4417 116.956 77.7409 115.84L77.6634 115.728C76.2888 115.009 75.2399 113.83 75.1322 112.148C75.1017 111.669 75.1533 111.189 75.2832 110.736C75.2363 110.229 75.2663 109.722 75.3992 109.232C73.5506 107.433 72.8809 104.544 73.8844 102.156C72.0781 100.211 71.6006 97.1359 72.9253 94.8282C72.0168 93.729 71.5499 92.3277 71.6281 90.8314C71.7253 88.9632 72.5809 87.3314 73.6055 85.8203C72.845 84.9791 72.4393 83.8061 72.4691 82.6732C72.5112 81.0311 73.3837 79.6171 74.4762 78.4462C73.5231 75.555 74.5879 72.4185 76.9267 70.5882C76.4534 69.8084 76.2781 68.8425 76.4325 67.8639C76.7027 66.1541 77.9851 64.9896 79.3689 64.0681C79.0795 63.1257 79.1555 62.1089 79.6161 61.1345C80.2309 59.8347 81.3907 59.0105 82.6013 58.313C82.914 55.4302 86.1337 52.968 88.8337 54.4559C88.164 52.3107 90.0931 49.9943 92.3114 49.7491C93.3971 46.4563 97.1429 44.3808 100.51 45.1987C102.232 42.8443 105.437 41.9378 108.158 42.9479C111.15 40.6547 114.862 40.3144 118.363 41.479ZM97.0521 106.133C99.1543 106.019 100.73 107.735 101.838 109.306C102.877 110.779 100.211 112.334 99.4331 110.711C99.1543 110.132 98.8374 109.519 98.4127 109.012C98.3414 109.112 98.2784 109.215 98.2157 109.321L98.1528 109.428C98.1064 109.506 98.0578 109.587 98.0176 109.669C98.0219 109.684 97.9585 109.878 97.9564 109.887C97.7831 110.413 97.405 110.751 96.8897 110.933C96.224 111.166 95.5944 110.665 95.381 110.077C95.0411 109.139 95.831 108.321 96.6528 107.949C95.8458 107.818 95.0514 108.092 94.4683 108.714C94.3883 108.8 94.2528 108.731 94.2488 108.623C94.181 107.15 95.7212 106.205 97.0521 106.133Z" fill="black"/>
<path fill-rule="evenodd" clip-rule="evenodd" d="M143.152 128.274C141.732 127.695 140.465 126.728 139.538 125.493C139.216 125.063 139.133 124.61 139.2 124.195C139.276 123.729 139.552 123.306 139.928 123.023C140.305 122.739 140.777 122.598 141.233 122.67C141.63 122.732 142.024 122.949 142.337 123.399L142.402 123.489C142.953 124.235 143.67 124.846 144.488 125.241C145.276 125.621 146.158 125.798 147.07 125.695C148.808 125.499 150.005 124.559 151.278 123.282C151.436 123.121 151.594 122.955 151.752 122.786C151.852 122.633 151.991 122.534 152.146 122.483C152.317 122.425 152.511 122.429 152.689 122.491C152.86 122.55 153.013 122.664 153.116 122.815C153.213 122.958 153.269 123.135 153.251 123.339C153.134 124.661 152.443 125.842 151.461 126.769C150.37 127.799 148.924 128.511 147.563 128.761C146.064 129.036 144.536 128.839 143.152 128.274ZM148.271 107.866C149.866 108.836 152.297 111.098 150.581 113.503C148.56 115.624 145.652 113.193 144.219 112.093C142.889 111.241 141.396 113.433 142.629 114.428C152.986 122.099 157.19 108.12 149.078 106.726C148.184 106.572 147.853 107.566 148.271 107.866ZM129.711 98.9429C129.887 96.7541 133.219 96.257 133.551 98.423C133.847 100.363 133.498 102.145 132.624 103.892C131.79 105.561 129.692 104.783 129.533 103.263C129.32 101.226 129.601 100.304 129.711 98.9429ZM155.076 97.9738C155.541 97.3652 156.212 96.9496 157.015 97.1845C159.526 97.9185 158.786 101.485 157.904 103.22C157.425 104.163 155.876 104.402 155.176 103.572C154.035 102.219 153.489 99.5156 154.939 98.1825C154.979 98.1136 155.023 98.044 155.076 97.9738ZM132.589 89.3654L132.986 89.2959C134.213 89.0836 135.738 88.8796 136.606 89.8665C137.067 90.3898 137.225 91.3624 136.606 91.8633C135.518 92.7446 134.314 92.4031 133.01 92.4777C131.935 92.5394 130.902 92.7174 129.867 93.0135C127.595 93.663 125.744 94.8486 123.804 96.1506C123.55 96.3213 123.29 95.9956 123.411 95.7574C124.531 93.563 126.701 91.7604 128.875 90.6616C130.036 90.0751 131.305 89.5885 132.589 89.3654ZM152.787 88.3823L153.091 88.4445C156.394 89.1353 160.687 90.5153 162.251 93.7615C162.311 94.2205 162.248 94.3189 162.196 94.3832L162.179 94.4046C162.137 94.4595 162.104 94.5351 161.905 94.5976C161.849 94.5844 161.794 94.5705 161.737 94.5557C161.02 94.3677 160.453 94.1087 159.904 93.84L159.308 93.5465C158.617 93.2076 157.92 92.881 157.181 92.6399C155.605 92.1254 153.983 91.7631 152.337 91.5696C151.98 91.5277 151.636 91.4072 151.365 91.2006C151.107 91.0046 150.911 90.7332 150.821 90.3724C150.705 89.9056 150.738 89.5521 150.989 89.1309C151.177 88.8146 151.447 88.5953 151.756 88.4694C152.071 88.3411 152.43 88.3108 152.787 88.3823Z" fill="black"/>
<path fill-rule="evenodd" clip-rule="evenodd" d="M157 133.092C156.263 132.851 155.538 132.57 154.811 132.299C151.091 130.43 146.597 130.091 142.695 131.665C140.78 132.438 138.995 133.826 137.073 134.736C136.617 134.907 136.157 135.061 135.691 135.191C135.406 135.092 135.121 134.986 134.838 134.88C132.8 134.112 130.883 133.164 129.022 132.121C128.823 131.842 128.617 131.57 128.396 131.309C129.742 131.117 131.061 130.8 132.254 130.472C135.918 129.468 139.37 127.832 143.02 126.784C146.42 125.805 150.108 125.27 153.522 126.486C155.143 127.063 156.569 128.073 158.145 128.753C158.96 129.104 159.939 129.449 160.891 129.499C160.277 130.973 159.499 132.348 158.437 133.494C157.951 133.39 157.469 133.245 157 133.092ZM164.927 121.554C164.6 121.825 163.254 122.7 162.818 123.222C162.705 123.179 162.593 123.135 162.481 123.09C162.289 122.854 162.006 122.751 161.718 122.757C159.705 121.82 157.912 120.497 156.313 118.837C155.176 117.66 154.012 116.427 152.493 115.745C150.704 114.937 148.944 115.309 147.064 115.432C145.063 115.565 143.088 114.997 141.089 115.269C139.627 115.47 138.258 116.089 137.075 116.962C134.66 118.744 132.995 121.246 130.955 123.404C128.639 125.851 125.791 127.415 122.624 128.214C122.586 128.189 122.546 128.164 122.506 128.14C120.172 126.027 118.063 123.641 116.198 121.098C114.376 118.615 109.574 107.437 108.414 106.456C107.933 106.048 107.405 105.873 106.9 105.887C105.985 105.908 105.14 106.545 104.762 107.546C104.119 109.25 104.441 111.452 104.491 113.234C104.555 115.415 104.698 117.594 104.926 119.765C105.153 121.91 105.453 124.049 105.826 126.173C106.014 127.246 106.224 128.318 106.454 129.385C106.526 129.721 106.617 130.021 106.726 130.3C106.838 130.827 106.959 131.351 107.088 131.871C107.929 135.276 109.255 138.685 111.788 141.198C114.425 143.816 118.008 145.556 121.336 147.111C124.505 148.593 127.826 149.909 131.234 150.941C134.193 152.283 137.362 153.344 140.544 153.902C144.047 154.517 147.729 154.555 151.112 153.338C152.774 152.739 154.346 151.905 155.772 150.865C157.794 149.814 159.613 148.371 161.102 146.46C163.77 143.036 165.044 138.881 165.601 134.596C165.743 133.499 166.279 129.296 166.322 128.642C166.458 126.528 166.594 124.415 166.73 122.302C166.794 121.304 165.571 121.02 164.927 121.554Z" fill="black"/>
</svg>
