<svg width="240" height="324" viewBox="0 0 240 324" fill="none" xmlns="http://www.w3.org/2000/svg">
<path fill-rule="evenodd" clip-rule="evenodd" d="M204.98 141.629C202.801 135.623 204.438 128.02 199.945 123.05C198.616 122.242 197.911 122.691 197.364 124.1C197.034 125.954 196.261 132.338 199.043 132.335C199.393 136.321 199.174 140.337 198.317 144.25C196.264 143.92 194.767 144.976 193.269 145.761C192.152 146.346 191.034 146.781 189.686 146.38C184.117 145.398 182.53 151.248 182.462 156.023C182.38 158.353 182.161 163.784 181.136 166.045C176.492 156.425 166.741 152.045 157.449 149.883C155.992 149.48 154.749 148.929 153.815 147.987C145.987 144.895 149.747 134.764 146.146 128.941C140.508 122.019 133.738 120.027 125.209 121.214C117.746 122.039 112.673 129.623 113.134 136.781C113.271 138.241 112.395 139.778 111.88 141.281C106.729 147.447 98.7132 150.206 91.8194 153.932C68.8256 165.174 60.857 173.766 51.9215 197.689C47.7413 206.689 42.7387 215.425 41.0773 225.338C39.125 237.019 39.1189 248.977 39.7985 260.773C38.5296 260.926 39.9105 269.994 41.0234 273.135C41.4048 274.212 42.3185 274.988 43.457 274.97C45.7472 276.084 51.1242 280.571 53.5195 280.422C61.2589 279.945 68.7818 280.683 76.2382 280.301C84.3051 279.889 92.2943 278.383 100.396 278.579C114.523 278.919 104.409 279.758 119.025 280.422C128.252 280.848 161.915 275.806 171.116 276.629C178.6 278.204 182.014 275.549 180.873 267.728C180.451 264.73 179.103 258.062 183.537 257.779C185.634 258.022 187.37 260.119 188.942 261.344C202.822 271.682 217.002 264.238 218.119 247.244C220.223 232.99 223.172 229.622 216.76 215.388C196.475 162.4 227.037 169.599 206.402 144.78C204.791 146.183 205.2 142.437 204.98 141.629Z" fill="white"/>
<path fill-rule="evenodd" clip-rule="evenodd" d="M197.271 122.653C198.378 121.565 200.138 121.835 201.218 122.803C202.316 123.786 202.978 125.331 203.542 126.663C206.073 132.65 205.483 139.206 206.764 145.47C209.107 146.736 211.222 148.389 212.719 150.613C214.995 153.99 216.074 157.923 214.933 161.926C214.344 163.997 213.342 165.916 212.628 167.943C211.866 170.101 211.399 172.344 211.175 174.622C210.955 176.858 210.926 179.107 210.989 181.351C211.023 182.514 211.084 183.674 211.145 184.834C211.2 185.874 211.384 186.959 211.136 187.978L211.105 188.096C211.202 188.081 211.297 188.062 211.392 188.041C212.208 187.859 212.926 187.576 213.778 187.688C214.441 187.774 214.785 188.328 214.504 188.954C214.382 189.226 214.219 189.455 214.023 189.649C215.734 202.309 218.723 214.766 220.69 227.386C221.582 233.111 222.125 238.854 221.819 244.651L221.786 245.226C221.474 250.548 220.707 256.414 218.003 261.068C216.74 263.248 215.003 265.181 212.899 266.574C211.935 267.212 210.902 267.711 209.78 267.961C203.966 270.277 197.819 269.708 192.336 266.646C189.871 265.27 187.411 263.666 185.398 261.675C184.42 260.707 183.476 259.475 182.897 258.129C182.899 258.431 182.844 258.74 182.905 259.038L183.027 259.626C183.94 264.001 187.42 280.17 187.466 281.527C187.492 282.259 181.33 282.242 180.661 282.264L180.642 282.265C170.663 282.681 160.677 282.459 150.703 282.046L149.916 282.013C140.243 281.604 129.717 281.053 120.034 280.771L120.054 280.609C120.17 279.738 120.734 275.869 120.797 275.573L120.799 275.563C121.073 274.456 121.603 271.015 121.324 269.873C120.606 266.932 117.372 267.604 115.096 267.916L114.617 267.979C114.248 268.029 113.352 268.161 113.36 268.17C113.119 267.918 113.694 267.203 113.835 267.012L113.949 266.854C114.56 265.998 115.113 265.109 115.053 264.006C114.906 261.311 111.057 261.464 109.166 261.65C109.033 261.663 108.978 261.872 109.132 261.903L109.505 261.981C110.705 262.238 113.37 262.895 113.31 263.888C113.275 264.453 112.675 264.869 112.308 265.224C111.903 265.616 111.501 266.038 111.203 266.519C110.628 267.446 110.497 268.695 111.066 269.66C111.722 270.772 112.885 270.902 114.05 270.801L114.116 270.795C114.372 270.771 114.629 270.746 114.885 270.721L116.423 270.571C116.804 270.534 118.028 270.213 118.385 270.434C118.892 270.747 118.283 272.137 118.169 272.595L118.162 272.628C118.064 273.291 118.005 280.237 117.995 280.695C110.449 280.52 102.902 278.842 95.3558 279.236C89.3609 279.549 83.3823 280.091 77.3985 280.561L77.2475 279.276C75.5891 265.284 72.9887 246.821 74.2367 232.981C74.3343 231.897 72.6435 231.904 72.5465 232.981C71.2561 247.292 74.0808 266.516 75.7238 280.69C73.1765 280.884 70.6282 281.059 68.077 281.193L67.4264 281.227C58.7448 281.661 49.7843 281.687 41.2882 279.695C41.0263 279.633 40.9375 279.371 40.9925 279.154C40.908 279.202 40.7812 279.175 40.7453 279.056C39.7555 275.793 39.2528 267.483 38.8043 263.887L38.7741 263.651C38.3136 260.158 38.0495 256.624 37.8594 253.109C37.4749 246.077 37.5213 239.037 38.0411 232.014C39.6953 209.613 46.2826 186.982 60.108 168.979C63.4502 164.627 67.2551 160.645 71.8206 157.566C76.2995 154.544 81.3234 152.415 86.4213 150.687C89.7911 149.543 93.2136 148.565 96.6361 147.588C96.7657 147.523 96.8953 147.459 97.0255 147.397L97.2213 147.303C98.4382 146.726 99.6361 146.094 100.883 145.58L101.158 145.468C102.964 144.743 105.069 144.102 107.024 144.124C110.191 142.528 112.851 140.117 112.593 136.249C112.488 134.66 114.98 134.662 115.069 136.249C115.302 140.472 112.701 143.467 109.386 145.477L109.402 145.493L109.418 145.511C109.935 146.098 110.489 146.643 111.087 147.151C114.666 150.198 119.193 152.728 123.719 154.394C129.028 156.349 134.333 156.934 139.823 155.353C142.695 154.527 145.405 153.252 147.896 151.604C148.657 151.101 149.385 150.562 150.085 149.985C149.423 149.08 148.895 148.106 148.452 147.072C147.56 144.993 146.823 142.175 147.733 139.98C147.957 139.438 148.847 139.105 149.157 139.794C150.013 141.679 150.37 143.716 151.367 145.559C151.747 146.261 152.185 146.927 152.675 147.554C152.675 147.588 156.419 148.229 156.419 148.229C160.944 148.226 165.205 149.966 169.209 152.138C171.575 153.423 173.901 154.789 176.22 156.157L180.752 158.832C181.086 159.029 181.46 159.219 181.834 159.422C181.397 157.262 181.183 155.059 181.327 152.876C181.545 149.583 182.825 145.982 186.216 144.809C187.819 144.253 189.674 144.424 191.231 145.041C191.95 145.327 192.731 145.705 193.399 146.21C193.722 144.756 195.085 143.665 196.454 143.184C196.897 143.027 197.352 142.928 197.812 142.879C197.799 142.646 197.797 142.41 197.801 142.167L197.804 141.983C197.825 140.905 197.816 139.827 197.793 138.752C197.751 136.712 197.654 134.715 197.447 132.682C197.274 130.998 196.974 129.335 196.751 127.658L196.658 126.938C196.47 125.518 196.154 123.75 197.271 122.653ZM61.1421 260.282L60.7643 260.058C59.5271 259.327 58.2528 258.654 56.754 258.992C55.3263 259.314 54.3135 260.473 53.7813 261.78C53.5299 262.398 53.3987 263.02 53.3017 263.678C53.2472 264.046 53.2104 264.417 53.1458 264.784L53.1242 264.898C53.0949 265.044 53.0501 265.247 53.0093 265.423C52.6197 265.252 52.2274 264.98 51.9086 264.818L51.6515 264.689C51.0481 264.388 50.4203 264.102 49.7628 263.963C48.3384 263.662 46.7583 264.098 45.9441 265.374C45.2477 266.466 45.2619 267.753 45.5283 268.976L45.5473 269.061C45.6629 269.569 46.2602 271.602 47.1289 271.305C47.9737 271.017 48.0866 269.893 48.1506 269.145L48.1553 269.073C48.1842 268.509 48.0723 267.323 48.7113 267.108C49.5097 266.841 51.0458 268.063 51.7411 268.383C52.9844 268.954 54.3502 269.123 55.362 268.011C56.2691 267.015 56.3456 265.557 56.5804 264.293L56.6411 263.975C56.7656 263.333 57.0066 262.307 57.7168 262.333C58.2971 262.355 58.9343 262.956 59.4126 263.242C59.9406 263.557 60.4888 263.82 61.0618 264.044C62.3989 264.567 63.8856 264.734 65.308 264.579C66.1322 264.49 66.6688 264.097 66.9602 263.321C67.0588 263.094 67.134 262.859 67.186 262.616C67.6478 260.88 65.1245 259.641 64.194 261.194C63.1206 261.153 62.1213 260.864 61.1421 260.282ZM216.444 248.674C215.674 248.125 214.629 248.243 213.942 248.862L213.901 248.9C213.71 249.084 213.28 249.564 213.002 249.985L212.915 249.917C212.901 249.906 212.887 249.896 212.874 249.885L212.837 249.854C212.268 249.373 211.674 248.932 210.942 248.736C209.035 248.223 207.302 249.5 206.469 251.138C206.074 251.915 205.905 252.717 205.708 253.554L205.692 253.632C205.612 254.022 205.509 254.813 205.167 255.007C205.041 255.078 204.756 254.937 204.474 254.774C203.83 254.403 203.252 253.929 202.621 253.537C201.141 252.619 199.459 252.239 197.797 252.901C196.152 253.557 194.973 255.104 194.945 256.906C194.924 258.235 195.814 260.554 197.488 260.392C197.823 260.359 198.255 260.153 198.309 259.766C198.453 258.74 197.645 257.48 198.572 256.633C199.469 255.814 200.398 256.503 201.21 257.071L201.792 257.479C202.736 258.136 203.71 258.737 204.906 258.809C206.419 258.899 207.817 258.063 208.578 256.774C209.267 255.609 209.277 254.291 209.815 253.095C209.933 252.833 210.236 252.593 210.135 252.472C210.543 252.685 211.07 253.297 211.324 253.469C212.589 254.323 214.281 254.317 215.39 253.184C215.832 252.734 216.114 252.177 216.441 251.647C216.559 251.455 216.707 251.277 216.815 251.08C216.855 251.007 216.919 250.738 216.973 250.497L217.055 250.116L217.063 250.053C217.133 249.475 216.929 249.02 216.444 248.674ZM167.701 243.629C166.247 242.865 164.455 243.155 163.146 244.081C161.677 245.118 160.956 246.712 160.466 248.396C160.11 249.623 159.939 251.314 158.914 252.202C157.721 253.236 155.721 252.139 154.462 251.731C152.939 251.238 151.108 251.037 149.622 251.766C148.165 252.48 147.463 253.937 147.312 255.499C147.172 256.956 147.381 258.875 148.212 260.094C148.293 260.214 148.45 260.183 148.501 260.056C149.047 258.711 148.942 257.172 149.386 255.779C149.859 254.293 150.969 253.979 152.377 254.379C153.847 254.796 155.192 255.576 156.704 255.854C158.315 256.15 159.91 255.844 161.18 254.779C162.249 253.883 162.896 252.578 163.333 251.277C163.759 250.009 163.829 248.312 164.736 247.26C164.965 246.994 165.364 246.673 165.735 246.639C166.286 246.588 166.485 246.998 166.929 247.311C168.102 248.139 169.975 248.156 170.693 246.7C170.929 246.223 171.045 245.545 170.693 245.078C170.077 244.26 169.57 244.267 168.757 244.444C168.731 244.422 168.702 244.394 168.669 244.356L168.644 244.326C168.429 244.053 168.011 243.792 167.701 243.629ZM110.123 235.032C110.075 233.937 108.757 232.886 107.717 233.651C107.55 233.772 107.385 233.898 107.223 234.028L107.157 234.099C106.963 234.099 106.783 234.048 106.592 233.987L106.258 233.88C105.381 233.601 104.537 233.377 103.601 233.582C101.99 233.936 100.968 235.327 100.443 236.802C99.9542 238.178 100.115 239.581 99.8854 240.991C99.6679 242.328 98.9811 242.85 97.6915 242.563L97.6254 242.548C95.0604 241.934 92.138 240.215 89.8892 242.571C87.4599 245.116 89.049 249.158 91.7083 250.793C91.8245 250.865 91.9529 250.747 91.9265 250.625C91.5733 248.981 90.5425 247.414 90.8879 245.669C91.1273 244.459 91.9673 243.887 93.166 244.08C95.6873 244.486 98.0454 246.496 100.631 245.037C101.923 244.308 102.635 242.939 102.957 241.536C103.246 240.274 103.164 238.85 103.72 237.659C104.327 236.356 105.351 237.301 106.453 237.479C108.014 237.731 110.206 236.912 110.123 235.032ZM194.71 196.094C194.715 195.006 193.025 195.005 193.02 196.094C192.957 209.878 186.511 222.62 185.353 236.267C185.261 237.352 186.952 237.345 187.043 236.267C188.202 222.616 194.647 209.901 194.71 196.094ZM55.146 218.658C54.2562 217.65 52.9526 217.962 51.8938 218.468C50.3033 219.226 48.7814 220.079 47.3224 221.065C46.9634 221.307 47.1897 221.834 47.6122 221.753C48.6823 221.547 49.7238 221.316 50.762 220.982C51.5422 220.732 52.3543 220.368 53.1679 220.239C53.117 220.426 53.0551 220.609 52.9822 220.789C52.8487 221.159 52.6936 221.52 52.562 221.891C52.3001 222.629 52.0642 223.378 51.8355 224.127L51.7216 224.502C51.246 226.072 50.784 228.359 52.9786 228.842C53.7929 229.021 54.5999 228.666 55.3574 228.387L55.5134 228.331L58.2764 227.351C58.6055 227.235 59.2152 227.153 59.4882 226.949L59.4446 227.159C59.388 227.437 59.3325 227.71 59.2127 227.988L59.1458 228.141C58.4595 229.697 57.5942 231.255 58.3947 232.975C59.0805 234.45 60.7015 235.149 62.2636 234.731C63.7482 234.333 64.8225 232.661 64.0539 231.206C63.7675 230.664 62.9295 230.398 62.397 230.737L62.254 230.832C62.0863 230.942 61.7976 231.13 61.7906 231.165C61.7509 231.175 61.7093 231.185 61.667 231.196C61.7566 230.932 61.817 230.526 61.8956 230.347L62.1848 229.69C62.7227 228.456 63.1889 227.2 62.7785 225.815C61.6032 221.851 57.6176 224.105 54.6776 225.236C54.7205 225.069 54.763 224.903 54.7989 224.741C54.9257 224.167 55.0643 223.597 55.2015 223.025L55.4827 221.846C55.7359 220.76 55.9329 219.55 55.146 218.658ZM205.566 214.233C205.568 214.14 205.453 214.068 205.372 214.122C203.493 215.386 202.235 218.026 202.941 220.274C203.284 221.366 204.014 222.324 205.037 222.854C206.31 223.512 207.716 223.262 209.053 222.98L209.621 222.858C210.022 222.774 210.417 222.712 210.824 222.825C210.964 222.864 211.126 222.985 211.259 223.012C211.204 223.105 211.146 223.267 211.116 223.327L211.02 223.522C210.922 223.72 210.827 223.925 210.768 224.133C210.568 224.83 210.617 225.577 210.941 226.227C211.544 227.438 212.809 228.12 214.125 228.236C214.91 228.306 216.886 227.618 217.353 228.451C218.281 230.103 220.922 228.992 220.409 227.162C220.061 225.925 219.077 225.126 217.857 224.791C217.207 224.613 216.534 224.637 215.873 224.71C215.614 224.739 215.356 224.779 215.096 224.806L214.902 224.824C214.952 224.82 214.364 224.806 214.128 224.791L214.179 224.655C214.186 224.636 214.193 224.619 214.199 224.606C214.462 224.044 214.656 223.484 214.641 222.855C214.612 221.722 213.879 220.734 212.915 220.188C212.027 219.685 210.97 219.484 209.961 219.596C208.851 219.72 207.274 220.599 206.183 220.136C205.361 219.787 205.082 218.569 205.069 217.771C205.05 216.569 205.533 215.431 205.566 214.233ZM129.007 206.352C125.983 204.994 123.386 207.313 121.612 209.532C121.52 209.646 121.635 209.839 121.779 209.75L122.015 209.603C123.464 208.694 125.071 207.619 126.866 207.929C128.492 208.209 128.894 209.274 128.571 210.724L128.476 211.131C128.132 212.625 127.868 214.17 128.725 215.559C129.533 216.87 131.111 217.443 132.588 217.478C134.292 217.518 135.763 216.726 137.322 216.172L137.445 216.129C138.106 215.901 140.521 215.304 140.554 216.664C140.57 217.285 139.904 218.016 139.648 218.575C139.313 219.306 139.091 220.074 139.095 220.886C139.104 222.911 140.793 224.556 142.792 223.573C143.569 223.191 143.769 222.095 143.364 221.391C142.793 220.399 142.562 220.45 142.962 219.408L143.077 219.115C143.569 217.859 143.961 216.566 143.408 215.248C142.304 212.615 138.994 212.296 136.628 213.168L136.542 213.2C135.07 213.771 130.661 216.057 130.965 212.824C131.085 211.551 131.471 210.33 131.201 209.042C130.95 207.847 130.116 206.849 129.007 206.352ZM114.435 195.539C113.883 194.567 112.03 194.914 112.184 196.149L112.233 196.533C112.296 197.059 112.309 197.553 111.946 198.021C111.506 198.589 110.751 198.76 110.066 198.673C108.617 198.49 107.692 197.145 106.097 197.459C104.802 197.714 103.907 198.774 103.389 199.93C102.841 201.154 102.853 202.481 102.444 203.742C101.974 205.191 100.971 205.125 99.7189 204.617L99.4494 204.507C98.2512 204.008 97.0491 203.455 95.7141 203.693C93.4969 204.089 91.5874 207.499 93.6648 209.146C94.0398 209.443 94.6952 209.288 94.6793 208.726L94.6773 208.619C94.6667 207.596 94.9248 206.276 96.0967 206.035C97.3396 205.779 98.7439 206.914 99.8981 207.24C102.887 208.086 104.59 205.836 105.098 203.174L105.116 203.072C105.278 202.14 105.406 200.416 106.381 199.979C106.9 199.747 107.454 200.319 107.888 200.55C108.563 200.908 109.287 201.135 110.05 201.193C112.873 201.409 116.081 198.439 114.435 195.539ZM185.078 191.862C184.148 191.459 182.76 191.683 182.533 192.898L182.395 193.662C182.125 195.138 181.695 196.984 180.244 197.515C179.337 197.848 178.295 197.265 177.482 196.91C176.505 196.483 175.552 196.117 174.482 196.015C172.311 195.809 170.694 197.066 169.926 199.03L169.859 199.205C169.239 200.855 168.402 204.011 169.758 205.349C169.956 205.545 170.355 205.64 170.598 205.458C171.399 204.856 171.602 203.868 171.877 202.941L171.901 202.862C172.193 201.899 172.432 200.839 172.96 199.972C173.939 198.36 176.496 200.2 177.726 200.625C179.745 201.323 181.84 200.915 183.383 199.422C184.358 198.479 184.934 197.285 185.33 196.021C185.583 196.152 185.846 196.266 186.129 196.342C187.206 196.634 188.485 196.48 189.305 195.663C190.845 194.131 190.01 191.382 187.662 191.826C187.2 191.914 186.896 192.356 186.841 192.807L186.81 192.878C186.219 192.683 185.573 192.077 185.078 191.862ZM76.2926 178.17C74.0992 175.913 70.2928 177.136 68.7926 179.531C68.4814 180.027 68.9954 180.657 69.5417 180.506C70.8476 180.146 72.6902 178.729 74.0702 179.631C75.0932 180.299 74.5367 182.047 74.4431 183.024L74.4296 183.17C74.3112 184.5 74.2844 186.321 75.3203 187.317C75.9167 187.89 76.8312 187.813 77.6176 187.731L77.8676 187.705C78.7946 187.612 79.7155 187.448 80.6035 187.163C81.4198 186.901 82.1933 186.545 82.9603 186.168L83.152 186.073C83.4915 185.904 84.6237 185.236 84.9628 185.656C85.1396 185.875 84.7014 186.834 84.6104 187.048C84.2664 187.852 83.8291 188.61 83.5137 189.429C82.9578 190.871 82.9114 192.499 83.692 193.875C84.4483 195.209 86.0871 196.29 87.5396 195.265C88.3711 194.678 88.3688 193.611 87.5396 193.024C87.1008 192.713 86.6584 192.508 86.4771 191.987C86.2405 191.307 86.545 190.587 86.8398 189.958L87.1926 189.209C87.9743 187.538 88.7553 185.616 87.6632 183.908C86.5354 182.144 84.2434 182.116 82.5095 182.851C81.52 183.27 80.617 183.833 79.5858 184.157C78.8723 184.382 78.1562 184.532 77.4254 184.614C77.2625 183.734 77.493 182.75 77.4953 181.876C77.4991 180.548 77.2519 179.157 76.2926 178.17ZM189.398 146.768C185.696 146.225 183.905 149.537 183.649 152.726C183.419 155.622 183.888 158.526 184.621 161.341C184.895 162.385 185.204 163.416 185.527 164.431C186.047 166.06 186.611 167.688 187.298 169.256C187.507 169.729 187.718 170.205 187.955 170.661C188.765 171.326 189.459 172.222 190.089 173.082L190.503 173.651L190.614 173.804C191.686 175.271 192.6 176.793 193.348 178.447C194.061 180.023 194.591 181.667 195.003 183.344L195.104 183.763C195.421 185.054 195.888 186.594 195.324 187.796C196.433 188.138 197.536 188.448 198.714 188.613C200.341 188.842 202.033 188.856 203.675 188.797C205.261 188.739 206.845 188.615 208.425 188.447L209.563 188.322C209.68 188.308 209.798 188.294 209.916 188.279C209.872 188.224 209.833 188.163 209.806 188.096C209.401 187.123 209.453 185.996 209.408 184.95L209.402 184.834C209.343 183.674 209.307 182.514 209.293 181.351C209.265 179.17 209.324 176.983 209.563 174.812C209.77 172.912 210.093 171.012 210.598 169.167C211.107 167.297 211.885 165.54 212.603 163.744C213.313 161.968 213.898 160.145 213.835 158.208C213.795 156.978 213.524 155.782 213.066 154.651C213.045 154.668 213.018 154.681 212.986 154.679C211.547 154.626 210.184 154.21 208.794 153.859C207.319 153.485 205.809 153.178 204.3 152.997L203.98 152.959C202.723 152.818 201.353 152.749 200.191 153.288C198.934 153.874 198.142 155.176 197.664 156.425L197.611 156.569C196.763 158.936 196.957 162.097 199.581 163.217C200.394 163.566 202.251 163.78 202.669 162.676C202.857 162.173 202.471 161.43 202.325 160.954C202.154 160.388 202.042 159.83 202.055 159.238C202.065 158.719 202.461 158.327 202.966 158.285L203.012 158.282C203.929 158.243 205.819 157.186 206.003 158.707C206.039 159.003 205.813 159.314 205.574 159.458C205.093 159.743 204.59 159.933 204.066 160.049C204.138 160.366 204.239 160.677 204.339 160.986C204.398 160.956 204.463 160.937 204.533 160.931C205.308 160.867 206.075 160.99 206.85 160.998L207.274 161.001C207.876 161.007 208.401 161.04 208.984 161.351C209.523 161.639 209.428 162.359 208.984 162.668C207.82 163.475 205.849 163.002 204.636 162.182C204.689 162.598 204.664 163.023 204.486 163.469C203.962 164.792 202.46 165.451 201.117 165.509C199.923 165.559 198.782 165.183 197.829 164.524C197.635 165.219 197.322 165.887 197.187 166.608C197.01 167.554 197.221 168.662 196.891 169.552C196.562 170.448 195.288 171.048 194.55 170.169C193.471 168.884 193.807 166.848 194.755 165.547C195.26 164.858 196.177 164.067 197.111 163.942C196.462 163.332 195.943 162.577 195.615 161.744C195.592 161.755 195.564 161.757 195.535 161.749C192.499 160.918 190.847 158.166 190.745 155.277C190.521 155.438 190.289 155.582 190.046 155.71C189.465 156.023 188.719 155.748 188.54 155.1C188.375 154.495 188.855 153.749 189.529 153.8C189.913 153.831 190.3 153.834 190.682 153.77C190.735 153.762 190.786 153.751 190.838 153.741C190.872 153.519 190.917 153.297 190.971 153.077C189.824 153.208 188.624 153.02 187.515 152.775C186.56 152.565 186.782 151.046 187.743 151.082L187.898 151.089C189.159 151.149 191.021 151.353 192.102 150.553C192.292 150.279 192.503 150.019 192.731 149.774C192.761 149.712 192.786 149.647 192.81 149.579C193.391 147.905 190.638 146.95 189.398 146.768ZM156.171 170.317C154.73 169.931 153.213 170.456 152.222 171.545C151.389 172.46 150.958 173.583 150.573 174.732L150.353 175.392C150.032 176.328 149.664 177.07 148.519 176.714C147.052 176.256 145.78 175.46 144.184 175.523C142.734 175.58 141.314 176.204 140.304 177.25C139.271 178.32 138.778 179.811 138.997 181.28L139.012 181.37C139.126 182.047 140.115 184.462 141.164 183.35C141.632 182.855 141.54 182.306 141.651 181.676C141.757 181.075 141.983 180.487 142.353 180C143.01 179.137 144.066 178.801 145.098 179.106C146.46 179.509 147.663 180.339 149.13 180.358C150.673 180.379 151.983 179.578 152.835 178.321C153.522 177.307 153.767 176.119 154.25 175.016L154.297 174.911C154.703 174.003 154.98 173.675 155.91 174.109L156.235 174.265C157.627 174.927 159.193 175.533 160.633 174.6C161.971 173.733 162.541 171.991 161.416 170.723C160.795 170.022 159.358 170.142 158.955 171.04C158.884 171.194 158.818 171.351 158.754 171.508C158.631 171.47 158.511 171.425 158.397 171.361C157.643 171.021 156.987 170.535 156.171 170.317ZM114.103 160.062C112.46 159.176 111.087 160.919 111.35 162.492L111.363 162.561C111.372 162.609 111.395 162.713 111.422 162.831C111.338 162.821 111.255 162.806 111.172 162.785L110.791 162.739C110.19 162.669 109.608 162.632 109.007 162.825C107.589 163.28 106.892 164.659 106.857 166.073C106.823 167.481 107.552 168.617 107.766 169.963C107.985 171.339 106.561 170.946 105.632 170.845L105.595 170.841C104.302 170.71 102.943 170.708 101.869 171.551C100.759 172.422 100.267 173.926 100.424 175.304C100.566 176.548 101.344 178.462 102.753 178.659C102.892 178.678 103.051 178.647 103.122 178.508C103.692 177.4 102.899 176.175 102.989 175.005C103.087 173.719 103.907 173.505 105.038 173.588C106.135 173.669 107.229 173.902 108.313 173.574C109.488 173.219 110.342 172.21 110.583 171.02C110.849 169.708 110.36 168.487 110.043 167.24C109.937 166.826 109.886 166.41 109.958 165.987C109.974 165.895 110.053 165.81 110.082 165.774C110.262 165.741 110.532 165.827 110.687 165.843L110.906 165.865C112.097 165.973 113.243 165.901 114.094 164.916C114.53 164.412 114.691 163.796 114.648 163.146L114.626 162.883C114.602 162.63 114.558 162.297 114.427 162.158L114.425 162.151C114.469 162.092 114.511 162.031 114.549 161.968L114.586 161.904C114.951 161.296 114.739 160.405 114.103 160.062ZM198.317 144.636C196.68 144.636 195.133 145.17 193.895 146.627C194.337 147.047 194.689 147.535 194.884 148.108C195.49 147.776 196.132 147.517 196.789 147.332C198.794 146.772 201.537 146.781 203.223 148.157C204.106 148.875 203.136 150.165 202.185 149.943C201.334 149.744 200.594 149.376 199.701 149.334C198.925 149.296 198.165 149.397 197.421 149.621C196.287 149.964 195.256 150.613 194.497 151.507C194.244 151.807 194.022 152.132 193.836 152.483C192.42 155.171 193.487 159.026 195.442 161.239C194.675 158.69 195.439 155.685 196.967 153.574C198.806 151.032 201.556 150.744 204.454 151.14L204.55 151.154C207.353 151.549 210.824 152.24 212.92 154.301C212.711 153.825 212.47 153.364 212.199 152.918C210.611 150.302 207.976 148.26 205.242 146.804C204.784 146.557 204.321 146.329 203.861 146.117C202.109 145.312 200.157 144.636 198.317 144.636ZM199.213 124.667L199.206 124.697C199.205 124.702 199.204 124.708 199.202 124.714C199.106 125.573 199.334 126.56 199.451 127.427L199.466 127.55C199.711 129.524 200.035 131.5 200.14 133.489C200.243 135.402 200.204 137.385 199.974 139.29L199.94 139.561C199.804 140.599 199.724 141.816 199.374 142.881C200.721 143.01 202.069 143.444 203.295 143.905C203.734 144.071 204.171 144.247 204.607 144.433C204.062 141.535 203.77 138.595 203.178 135.706L203.062 135.131C202.419 131.935 201.815 128.718 200.153 125.859C199.931 125.479 199.692 125.16 199.422 124.819C199.363 124.741 199.293 124.691 199.213 124.667Z" fill="black"/>
<path fill-rule="evenodd" clip-rule="evenodd" d="M162.571 89.5609C162.069 83.0632 162.847 76.2526 160.342 70.0765C155.976 59.8292 143.732 56.4125 134.239 52.5112C130.436 51.3871 117.64 51.23 113.187 49.7422C103.11 46.375 100.702 42.363 92.6947 48.7743C91.343 49.8695 90.4973 51.0599 89.8804 52.6862L89.9057 52.6932C89.7295 53.3712 89.9184 54.0477 90.3154 54.5645C86.8434 58.1147 85.3905 63.4374 87.1719 68.1634C92.9854 80.4616 92.712 87.1114 90.8389 100.333C88.3928 112.675 93.9823 117.184 103.239 123.9C102.862 124.631 102.784 125.603 103.276 126.248C113.98 141.296 134.163 148.48 151.456 140.843C158.475 137.717 161.609 130.239 163.397 123.491C165.481 115.936 166.121 107.974 164.425 100.277C163.741 96.7179 162.849 93.1841 162.571 89.5609Z" fill="white"/>
<path fill-rule="evenodd" clip-rule="evenodd" d="M100.826 17.5709C102.125 17.3757 103.107 18.1822 103.573 19.3189L103.598 19.3801C103.748 19.7669 103.915 20.1431 104.094 20.5129C107.346 18.9172 111.985 19.3272 114.043 22.5588C115.511 24.8667 114.615 27.6058 114.062 30.0533L113.699 31.6659C114.401 32.113 114.931 32.9138 114.906 33.743L114.903 33.8069L114.755 36.0556C115.224 35.5801 115.653 35.0623 116.035 34.5107C116.299 34.0267 116.584 33.5511 116.891 33.0904C118.693 30.3788 122.739 32.7353 121.251 35.6393C120.966 36.1993 120.645 36.7298 120.301 37.2413C119.912 37.9958 119.593 38.7715 119.348 39.5683C120.051 39.8747 120.592 40.5553 120.649 41.5824C120.782 43.9813 119.523 45.9827 117.52 47.2403C116.931 47.6101 116.323 47.682 115.771 47.5446C115.674 47.6757 115.577 47.8067 115.484 47.9399C116.282 48.5887 117.003 49.3284 117.622 50.1485C119.485 49.8695 121.359 49.7384 123.233 49.7342C125.523 48.6119 128.265 48.6352 130.727 49.0558C132.311 49.3263 133.832 49.8526 135.392 50.2309C137.035 50.6282 138.704 50.643 140.367 50.9135C142.463 51.2538 144.301 52.2218 145.456 53.7668C146.726 53.8048 148.061 54.3247 149.168 55.0307C151.746 56.675 154.308 58.3425 156.88 59.9974C157.866 60.6327 158.235 61.647 158.054 62.7782L158.042 62.8506L157.955 63.3198L158.158 63.6086C158.945 64.7202 159.801 65.8845 160.311 67.1114C161.253 68.4704 162.104 69.8949 162.858 71.3638C163.875 73.3378 164.713 75.4302 165.282 77.5775C165.423 78.1207 165.565 78.6681 165.658 79.2218C165.791 80.0038 165.586 80.6104 165.474 81.3607C165.334 82.3118 165.284 83.2755 165.136 84.2287C165.037 84.8606 164.5 85.1713 163.938 85.1882C164.149 86.7966 164.301 88.4155 164.447 90.0218C164.652 92.3171 164.792 94.6187 164.912 96.9203C165.533 97.8227 166.803 98.5371 167.72 98.7844C168.989 99.1247 170.32 98.7548 171.52 98.3215C172.275 98.0489 172.894 98.9978 172.526 99.6319C171.37 101.623 168.899 101.614 167.027 100.733C166.234 100.361 165.539 99.8221 165.024 99.1204C165.056 99.7883 165.089 100.456 165.123 101.126L165.155 101.733C165.535 108.82 166.357 116.151 165.026 123.168C162.721 135.323 152.666 144.578 140.384 145.296C133.938 145.673 128.571 143.769 125.902 142.707C123.233 141.644 124.27 139.478 126.123 140.097C129.315 141.164 135.179 142.753 140.426 142.067C152.794 140.449 163.281 134.266 162.203 107.632C162.051 103.855 161.58 100.076 161.479 96.2989C161.382 92.6066 161.418 88.9122 161.255 85.222L161.201 83.963C161.137 82.4918 161.069 81.0138 160.959 79.5409C160.826 78.9703 160.716 78.3912 160.553 77.8311C160.112 76.3073 159.535 74.8257 158.819 73.4118C158.661 73.5323 158.483 73.6189 158.291 73.6527C156.831 73.9148 155.462 73.8408 154.095 73.2321C153.457 72.951 152.895 72.577 152.371 72.1141C152.122 71.8964 151.955 71.6851 151.824 71.4653C151.163 71.4758 150.501 71.2771 150.087 70.8016C149.615 70.2596 149.536 69.6998 149.721 69.1815L149.741 69.1298L149.694 69.1129C149.137 70.5564 148.025 71.8267 146.806 72.6847C144.88 74.0458 142.469 74.4389 140.158 74.4749C137.606 74.5129 134.914 74.1198 132.396 73.7182C131.73 73.6126 131.069 73.4921 130.42 73.3294C130.395 73.3547 130.37 73.3843 130.342 73.4097C128.181 75.4788 125.141 76.0114 122.399 74.83C120.814 74.1473 119.485 73.0483 118.311 71.7886C118.294 72.448 118.26 73.1074 118.203 73.7605L118.179 74.0199C118.062 75.2362 117.837 76.5264 116.918 77.4042C115.433 78.8266 113.278 78.2559 111.565 77.3302C111.567 77.3746 111.567 77.4211 111.567 77.4676C112.03 79.04 112.494 80.6146 112.959 82.1892L113.059 82.5246C113.397 83.6426 113.768 84.7621 113.87 85.9322C114.064 88.1683 112.577 90.3769 110.092 89.6266C108.789 89.2344 107.745 88.1383 106.743 87.2603L106.112 86.7142C107.745 92.055 108.877 97.586 108.983 103.159C108.989 103.462 108.73 103.69 108.442 103.7C107.77 103.728 107.048 103.595 106.372 103.326C106.334 103.324 106.296 103.322 106.256 103.316C105.102 103.149 104.031 102.732 103.087 102.117C103.304 102.809 103.401 103.55 103.344 104.326C103.33 104.514 103.036 104.58 102.994 104.372C102.449 101.69 99.3112 99.6636 96.607 100.177C93.7042 100.729 91.5662 103.227 91.0422 106.07C90.4803 109.124 91.5556 112.655 93.5479 115.012C94.4648 116.098 95.6711 117.005 97.1035 117.233C97.7584 117.337 98.4387 117.301 99.0746 117.115C99.3451 117.034 99.5986 116.922 99.8563 116.817C100.232 116.665 100.672 116.641 101.027 116.481C101.832 116.119 102.641 116.861 102.233 117.688C101.878 118.408 101.559 118.894 100.97 119.266C101.447 119.85 101.88 120.661 102.041 120.879C102.861 121.986 103.693 123.033 104.627 124.045C105.577 125.072 106.615 126.011 107.711 126.879L108.172 127.243C109.228 128.081 110.148 128.858 110.893 130.06C111.48 131.009 110.72 132.296 109.619 132.281C106.175 132.233 103.672 129.206 101.889 126.562C101.635 126.184 101.396 125.784 101.175 125.374C101.094 125.503 101.006 125.624 100.906 125.734L101.103 126.262C101.686 127.818 99.1739 128.834 98.4451 127.382C97.9148 126.33 97.3 125.328 96.6155 124.381C96.212 124.324 95.8169 124.079 95.5972 123.762C95.0415 122.957 94.4183 122.143 93.8922 121.285C93.6007 121.008 93.3007 120.742 92.9943 120.482C92.9056 120.56 92.8148 120.638 92.7281 120.72C92.3436 121.598 91.8683 122.399 91.2789 123.153L91.1525 123.314C90.0233 124.738 88.5524 126.195 86.7324 126.543C86.1767 126.649 85.6422 125.958 86.1345 125.516C87.4084 124.37 88.9148 123.591 90.0894 122.312C90.6681 121.682 91.1995 120.988 91.6564 120.261L91.7605 120.093C91.8366 119.968 91.9148 119.843 91.9951 119.717C91.4648 119.355 90.9345 118.992 90.4042 118.628C88.9444 119.876 87.0434 120.446 85.4288 121.48L85.2683 121.585C83.8084 122.561 82.2704 120.401 83.4408 119.216C84.731 117.913 85.8081 116.361 86.951 114.913C86.4136 113.923 86.1592 112.752 86.0639 111.568C86.0263 111.233 85.997 110.898 85.9676 110.563C85.1479 110.576 84.3239 110.295 83.6267 109.811L83.3627 109.622C82.5155 109.893 81.626 110.024 80.7746 110.001C78.7718 109.942 77.9521 107.653 79.2049 106.205C80.4831 104.725 82.7204 104.402 84.4929 105.121C84.55 105.091 84.6091 105.059 84.6662 105.028C84.5817 104.639 84.6005 104.286 84.6966 103.976L84.6687 103.787C84.2789 103.189 84.0227 102.506 83.9255 101.784C83.8486 101.212 83.8642 100.646 83.9965 100.081C84.0404 99.8933 84.1319 99.6987 84.2018 99.5028C84.0577 99.1388 83.973 98.7626 83.9468 98.3843C83.9065 98.3363 83.8663 98.2871 83.8283 98.2338C82.9488 96.9985 83.1265 95.5099 83.9635 94.5103C83.9673 94.4466 83.9732 94.383 83.9819 94.3198C83.9329 94.2095 83.8879 94.0981 83.8469 93.9855C83.0291 93.1601 82.4286 92.167 82.5406 90.9363C82.6063 90.2122 82.9038 89.5604 83.354 89.0733C83.2741 88.837 83.2665 88.5633 83.3633 88.3348C82.6448 86.4229 82.7356 84.1203 83.2528 81.982C83.1387 81.6566 83.0796 81.3036 83.0922 80.9295C83.1514 79.3423 84.5246 77.884 86.1514 77.903C86.3472 77.9047 86.5306 77.9302 86.7068 77.9677L86.7091 77.9298C86.7715 77.4534 86.9024 77.0132 87.0936 76.6182C86.9996 76.5842 86.9126 76.5353 86.8363 76.4705C85.7939 77.0267 84.6909 77.452 83.5344 77.7417C82.6841 77.9548 81.813 76.9878 82.3416 76.1894C82.5869 75.8189 82.8575 75.4862 83.1491 75.1823C82.7346 75.1846 82.3137 75.2127 81.888 75.2674C81.1232 75.3668 80.2697 74.8447 79.7732 74.1388C79.1563 74.7391 78.5373 75.3372 77.9183 75.9353C76.3507 77.4549 73.9824 76.3369 73.7352 74.3333C73.2683 74.2086 72.8331 73.9972 72.4507 73.695C69.9789 74.7687 67.319 75.3583 64.6 75.4703C62.6479 75.5507 61.507 73.2765 62.4197 71.6703C63.0324 70.5924 63.7929 69.6244 64.6697 68.7832C63.3091 69.1996 61.9042 69.4997 60.4697 69.692C59.6943 69.7956 58.5979 69.1531 58.2873 68.4408C57.1 65.7017 57.2014 62.8464 58.5683 60.1813C58.6211 60.0756 58.6803 59.9741 58.7373 59.8727C58.8789 59.5197 59.0331 59.171 59.2 58.8286C57.5183 57.0744 57.3725 54.4664 58.2789 52.2831C57.9155 51.6934 57.776 50.9833 58.0232 50.3408C58.7267 48.4915 59.7408 46.7838 61.0211 45.317C60.8986 45.0803 60.7908 44.8288 60.7 44.5582C59.9796 42.3708 60.8141 39.731 62.4979 38.2072C63.5563 37.2476 64.7732 36.6728 66.0725 36.305C66.6197 35.337 67.3232 34.4642 68.1429 33.7287C68.1746 33.6589 68.2063 33.5892 68.2422 33.5194C69.5183 31.1143 71.8422 29.825 74.3331 29.527C74.4303 28.5865 75.0641 27.6883 75.9852 27.3966C76.2387 26.5829 76.6169 25.8051 77.1366 25.0992C77.9542 23.9875 79.3127 23.4634 80.5929 24.1925C81.2943 24.592 81.9662 25.0506 82.5958 25.5579C82.8785 25.4252 83.1991 25.3394 83.5608 25.312L83.6521 25.3063L85.7352 25.2007C86.6077 24.8139 87.4782 24.4081 88.3507 24.0129C88.8746 23.5796 89.4598 23.2182 90.0979 22.9498C90.8204 22.6476 91.5598 22.4764 92.3014 22.4193C92.9035 22.2227 93.5098 22.0494 94.1267 21.9142C95.576 21.5972 97.0929 21.4196 98.5972 21.4344C98.6279 21.0449 98.6432 20.6508 98.6403 20.252L98.6373 20.0522C98.6035 18.7735 99.6239 17.7527 100.826 17.5709ZM99.3663 119.875C99.1592 119.919 98.9501 119.955 98.7409 119.981C98.8043 120.137 98.8677 120.293 98.9289 120.45C99.098 120.545 99.2691 120.636 99.4402 120.72C99.3895 120.433 99.3599 120.143 99.3663 119.875ZM88.5115 116.648L88.3711 116.907C88.3483 116.949 88.3259 116.991 88.3038 117.032C88.6017 117.009 88.9017 117.015 89.1975 117.049L89.1967 117.018C89.1586 117.005 89.1206 116.993 89.0843 116.975C88.8802 116.877 88.6905 116.767 88.5115 116.648ZM94.3783 104.844C96.2474 104.953 97.831 105.239 99.5309 106.057L99.6769 106.129C101.179 106.875 103.664 108.253 103.454 110.229C103.395 110.791 102.987 111.383 102.345 111.339C100.585 111.218 99.5797 109.443 98.3882 108.335C97.1861 107.219 95.7093 106.072 94.2537 105.305C94.0479 105.197 94.129 104.855 94.3529 104.844L94.3783 104.844ZM85.9019 78.8076C85.454 78.8224 85.604 79.2578 85.8342 78.8942C85.8533 78.8646 85.8765 78.835 85.9019 78.8076ZM110.078 49.7422C105.837 49.8538 101.567 52.3594 98.3898 54.892C95.6254 57.0953 93.2382 59.7161 91.1245 62.5408C90.5807 63.9475 90.1138 65.3836 89.7194 66.8303C89.4595 67.7856 89.2968 68.7515 89.0792 69.7153L89.0116 70.0107C88.8407 70.3303 88.7137 70.6742 88.6212 71.0294C89.0063 71.4158 89.506 71.6924 90.0561 71.8237C90.2334 71.866 90.3806 71.9575 90.497 72.0788C90.9399 71.3395 91.3269 70.5592 91.5521 69.732L91.5604 69.6937C92.4116 68.299 93.3361 66.9476 94.3271 65.6425C97.0609 62.039 100.071 58.7546 103.69 56.0219C106.435 53.9506 109.502 52.3275 112.764 51.2728C111.966 50.6284 111.059 50.1186 110.078 49.7422Z" fill="black"/>
<path fill-rule="evenodd" clip-rule="evenodd" d="M155.1 117.052C155.151 116.892 155.374 116.892 155.425 117.052C155.889 118.5 156.162 119.918 156.855 121.279C157.027 121.456 157.149 121.678 157.215 121.918C157.539 122.456 157.9 122.967 158.304 123.451C158.811 124.06 159.181 124.632 158.912 125.462C158.779 125.872 158.436 126.134 158.005 126.153C156.819 126.207 156.144 125.076 155.724 123.896C152.79 124.871 149.559 125.423 146.484 125.181C143.984 124.983 141.261 124.357 139.023 123.08C139.037 123.562 139.055 124.045 139.072 124.528C139.103 125.421 139.343 126.398 139.25 127.275C139.158 128.146 138.664 128.819 137.769 128.954C136.999 129.07 136.045 128.555 135.895 127.73C135.721 126.771 136.043 126.102 136.308 125.197C136.543 124.398 136.726 123.582 136.928 122.774C137.132 121.958 137.299 121.135 137.45 120.308C137.56 119.703 137.481 119.021 137.695 118.451C137.712 118.407 137.755 118.375 137.804 118.389C138.944 118.717 139.009 120.553 139.004 121.538L139.004 121.586C139.002 121.787 139.004 121.988 139.006 122.188L139.442 122.284C141.833 122.801 144.155 123.194 146.669 123.052C149.618 122.884 152.211 121.806 155.009 121.067C154.777 119.737 154.705 118.287 155.1 117.052ZM145.238 90.8512C146.547 90.4029 147.962 90.1912 149.338 90.259C152.288 90.4048 155.098 91.7507 157.032 93.9934C158.858 96.1104 159.85 98.7656 159.837 101.567C159.823 104.444 159.068 107.685 157.645 110.204C154.656 115.496 147.674 115.533 142.656 113.423C137.301 111.171 135.123 105.492 136.413 100.002C137.382 95.8731 140.69 90.9188 145.238 90.8512ZM153.962 94.9387C152.383 93.67 150.393 93.1 148.383 93.2441C147.384 93.3158 146.369 93.5781 145.463 94.0043C144.981 94.2309 144.55 94.5473 144.076 94.7832C143.653 94.9932 143.195 95.1157 142.758 95.2925L142.596 95.3616C141.879 95.682 141.157 95.2236 141.121 94.5555C139.562 96.7443 138.822 99.7123 138.834 102.345C138.843 104.284 139.304 106.298 140.417 107.913C141.654 109.707 143.705 110.653 145.763 111.156C147.734 111.637 149.882 111.804 151.858 111.257C153.908 110.69 155.233 109.133 155.986 107.193C157.622 102.984 157.757 97.9858 153.962 94.9387ZM146.922 100.158C147.817 98.9362 149.422 98.8713 150.305 100.158C150.861 100.968 150.779 101.748 150.735 102.68L150.727 102.89C150.701 103.627 150.704 104.404 150.428 105.086C150.073 105.961 149.384 106.522 148.407 106.406C147.832 106.337 147.351 105.994 147.072 105.52L147.062 105.526C146.67 104.744 146.569 103.95 146.503 103.096L146.458 102.47C146.402 101.647 146.399 100.872 146.922 100.158Z" fill="black"/>
</svg>
