<svg width="240" height="324" viewBox="0 0 240 324" fill="none" xmlns="http://www.w3.org/2000/svg">
<path fill-rule="evenodd" clip-rule="evenodd" d="M41.0849 260.27C40.4524 266.071 39.0196 272.461 41.7508 277.934C40.0307 278.011 41.4261 278.509 42.3544 278.68C42.8845 279.09 43.5969 279.253 44.2668 279.196C47.7451 279.931 51.3358 280.198 54.8676 280.614C98.9629 284.278 143.354 283.305 187.532 281.726C188.968 281.664 189.932 280.62 190.043 279.213C191.662 258.518 192.467 237.758 192.426 216.999C191.707 209.703 197.219 212.55 194.278 202.937C191.915 192.798 188.416 182.928 183.955 173.524C180.872 167.404 177.966 160.965 173.266 155.89C171.781 155.685 170.516 154.209 169.261 153.385C167.99 153.137 167.048 152.057 165.759 151.725C163.304 151.087 157.81 149.728 155.719 151.362C155.637 151.339 155.553 151.32 155.47 151.297C155.061 151.751 154.499 151.41 154.194 151.002C153.149 150.191 148.582 150.107 148.064 148.862C145.363 146.41 144.64 141.251 144.64 138.232C143.629 137.096 143.559 137.307 142.188 136.707C140.844 135.011 139.219 133.533 137.406 132.368C127.204 125.666 112.399 132.728 110.011 144.376C106.235 147.367 102.349 150.405 97.7245 151.963C95.4677 150.802 92.8968 150.431 90.5017 150.429C88.7163 150.364 86.2491 149.331 85.0888 151.211C65.5683 157.603 53.7872 176.196 45.41 193.813C44.2358 196.321 42.831 198.947 43.1904 201.805C43.4374 205.227 47.1502 207.264 46.4486 210.891C45.4288 220.868 44.2687 230.835 43.2071 240.809C42.4996 247.296 41.7922 253.783 41.0849 260.27Z" fill="white"/>
<path fill-rule="evenodd" clip-rule="evenodd" d="M183.891 212.676C182.629 213.133 180.859 213.578 179.957 214.611C179.853 213.649 179.748 212.686 179.642 211.724C182.287 211.661 184.937 211.638 187.583 211.564C186.334 211.87 185.1 212.238 183.891 212.676ZM178.08 273.216C177.17 273.225 176.257 273.288 175.348 273.324C173.596 273.392 171.844 273.459 170.092 273.524C166.518 273.658 162.944 273.787 159.369 273.912C152.291 274.158 145.212 274.385 138.132 274.594C123.973 275.011 109.806 275.263 95.6488 275.739C91.7211 275.871 87.7937 275.974 83.8696 276.188C81.8361 276.299 79.7932 276.394 77.7694 276.63C76.0622 276.828 74.3792 277.164 72.6815 277.413C72.7953 275.2 72.902 272.987 73.013 270.774C73.118 268.68 73.216 266.587 73.3134 264.492C79.9406 264.839 86.5757 264.979 93.2118 265.039C100.231 265.101 107.249 265.276 114.269 265.289C128.166 265.317 142.065 265.142 155.962 265.002C159.892 264.963 163.823 264.923 167.754 264.884C169.719 264.864 171.684 264.844 173.65 264.824C174.631 264.815 175.618 264.835 176.598 264.795C177.644 264.751 178.279 264.454 179.038 263.75C179.443 263.374 179.46 262.609 179.038 262.237C178.429 261.698 177.864 261.285 177.019 261.225C176.19 261.165 175.324 261.247 174.492 261.258C172.667 261.282 170.842 261.306 169.017 261.33C165.508 261.376 161.998 261.422 158.489 261.468C151.47 261.561 144.45 261.655 137.432 261.762C130.553 261.867 123.673 261.945 116.796 262.118C109.773 262.295 102.759 262.615 95.7386 262.84C88.2656 263.08 80.7965 263.367 73.3404 263.928C73.5196 260.047 73.6846 256.164 73.8399 252.282C88.6444 253.088 103.459 253.662 118.288 253.687C133.738 253.713 149.187 253.449 164.631 253.046C166.807 252.989 168.983 252.931 171.159 252.863C172.282 252.828 173.405 252.795 174.528 252.754C175.354 252.724 176.202 252.689 176.949 252.294C178.422 251.515 178.676 249.239 176.928 248.616C175.973 248.276 174.96 248.608 174.727 249.47C174.656 249.477 174.588 249.483 174.528 249.485C173.686 249.517 172.843 249.54 172.001 249.567C170.176 249.625 168.351 249.684 166.526 249.741C163.157 249.847 159.787 249.944 156.417 250.034C149.537 250.216 142.656 250.365 135.774 250.479C122.15 250.706 108.526 250.916 94.903 251.228C87.8877 251.388 80.8744 251.597 73.8599 251.774C74.0275 247.554 74.1857 243.334 74.3283 239.113C74.345 238.618 74.3632 238.123 74.3811 237.628C75.3863 237.849 76.4156 237.972 77.4396 238.117C79.2166 238.368 80.9991 238.554 82.7837 238.743C86.1462 239.098 89.5197 239.315 92.8947 239.502C99.7755 239.881 106.658 240.149 113.546 240.359C127.171 240.774 140.814 240.865 154.444 240.818C161.846 240.793 169.293 240.89 176.691 240.567C177.147 240.692 177.617 240.679 178.071 240.531C178.444 247.129 178.838 253.726 179.226 260.323C179.487 264.775 179.717 269.241 180.038 273.694C179.412 273.385 178.835 273.21 178.08 273.216ZM49.8131 206.181C48.515 205.545 47.0835 204.966 45.9376 204.066C44.685 203.082 44.3774 201.926 44.7623 200.382C44.791 200.267 44.8248 200.152 44.8548 200.037C54.0853 200.06 63.2924 199.653 72.5188 199.434C81.8928 199.212 91.2634 199.025 100.64 198.972C119.339 198.867 138.037 199.288 156.727 199.814C163.458 200.003 170.189 200.189 176.921 200.373C176.767 202.015 176.826 203.697 176.791 205.327C176.761 206.759 176.769 208.193 176.79 209.627C173.269 209.618 169.748 209.542 166.226 209.502C157.508 209.404 148.793 209.654 140.077 209.854C122.644 210.253 105.207 210.567 87.7772 211.092C83.0434 211.234 78.2791 211.309 73.5234 211.512C73.3599 210.738 73.1784 209.969 72.9737 209.204C72.6484 207.989 72.2812 206.741 71.3083 205.897C71.2616 205.856 71.1969 205.874 71.176 205.932C70.8065 206.956 70.8999 207.999 71.0081 209.072C71.0936 209.92 71.1515 210.771 71.1944 211.622C68.2373 211.777 65.2863 211.996 62.3507 212.324C61.5114 211.909 60.6716 211.495 59.8305 211.083C56.4919 209.448 53.1522 207.815 49.8131 206.181ZM156.975 236.684C150.087 236.74 143.2 236.746 136.313 236.702C122.681 236.614 109.052 236.279 95.423 236.008C91.6297 235.933 87.8414 235.858 84.0475 235.858C82.0833 235.858 80.1126 235.871 78.1506 235.956C76.9157 236.01 75.6638 236.018 74.4346 236.166C74.5829 232.194 74.7373 228.218 74.7325 224.243C87.7352 226.213 100.877 226.754 114.009 227.142C127.312 227.535 140.618 227.738 153.927 227.758C157.71 227.763 161.492 227.755 165.274 227.733C167.095 227.722 168.916 227.708 170.737 227.691C171.716 227.682 172.701 227.701 173.679 227.66C174.713 227.617 175.337 227.372 176.06 226.636C176.43 226.259 176.448 225.61 176.06 225.235C174.77 223.99 173.254 224.26 171.578 224.281C169.897 224.302 168.216 224.32 166.535 224.335C163.173 224.366 159.811 224.385 156.449 224.394C149.865 224.411 143.281 224.385 136.698 224.318C123.392 224.182 110.089 223.886 96.7869 223.574C89.4327 223.402 82.0799 223.45 74.7316 223.806C74.7289 223.146 74.7228 222.486 74.7099 221.827C74.6615 219.328 74.4181 216.829 74.0374 214.357C77.6387 214.345 81.2397 214.268 84.8247 214.222C93.5423 214.11 102.258 213.934 110.974 213.759C119.621 213.586 128.267 213.412 136.913 213.239C145.554 213.066 154.222 213.053 162.852 212.587C167.51 212.335 172.169 211.992 176.83 211.812C176.839 212.24 176.848 212.669 176.858 213.096C176.97 218.347 177.175 223.593 177.44 228.839C177.567 231.359 177.701 233.879 177.839 236.399C177.772 236.393 177.704 236.389 177.634 236.388C170.752 236.343 163.857 236.629 156.975 236.684ZM47.9949 191.081C48.7834 189.052 49.6399 187.036 50.5656 185.048C54.496 186.157 58.6887 186.73 62.745 187.111C67.0633 187.517 71.3901 187.745 75.7261 187.834C84.2744 188.008 92.8227 187.603 101.362 187.25C118.926 186.524 136.488 185.994 154.069 185.96C158.978 185.95 163.888 185.973 168.797 186.029C171.251 186.056 173.706 186.09 176.16 186.132C177.423 186.153 178.685 186.177 179.947 186.203C180.506 186.215 181.071 186.256 181.63 186.239C182.377 186.217 182.922 185.992 183.615 185.722C184.411 185.412 184.88 184.08 183.887 183.639C182.895 183.198 182.099 182.94 180.999 182.916C179.807 182.891 178.615 182.867 177.423 182.845C175.249 182.805 173.075 182.772 170.901 182.745C166.483 182.69 162.064 182.667 157.646 182.667C148.949 182.668 140.252 182.771 131.558 182.976C114.103 183.386 96.6868 184.604 79.2382 185.126C74.4289 185.27 69.6106 185.298 64.801 185.154C60.1426 185.014 55.4941 184.622 50.8413 184.457C52.4484 181.067 54.2668 177.767 56.3187 174.628C64.0749 174.901 71.8145 174.699 79.5725 174.463C83.6434 174.339 87.7143 174.213 91.7848 174.074C93.8201 174.004 95.8555 173.934 97.8908 173.864C98.8734 173.831 99.8561 173.797 100.839 173.763C101.897 173.727 103.011 173.796 104.039 173.517C104.225 173.467 104.373 173.359 104.485 173.221C107.221 174.63 110.115 175.741 113.091 176.564C119.551 178.351 126.499 179.021 133.181 178.471C138.543 178.03 143.886 176.702 148.601 174.103C159.247 175.083 170.043 174.622 180.712 174.553C181.731 174.546 182.155 173.612 181.984 172.841C185.408 180.223 187.677 188.226 189.8 196.01C191.119 200.848 192.292 205.715 193.409 210.601C193.363 210.605 193.316 210.609 193.27 210.613C193.4 210.078 193.109 209.447 192.376 209.43C188.058 209.331 183.726 209.579 179.407 209.619C179.285 208.539 179.164 207.457 179.036 206.377C178.861 204.905 178.653 203.437 178.474 201.965C178.41 201.432 178.35 200.916 178.277 200.41C181.697 200.503 185.116 200.597 188.536 200.687C190.756 200.746 190.752 197.307 188.536 197.239C169.743 196.664 150.949 196.082 132.149 195.763C113.337 195.443 94.4613 195.246 75.6644 196.211C65.4211 196.737 55.2032 197.439 45.0872 199.173C45.8729 196.43 46.969 193.722 47.9949 191.081ZM63.992 164.953C64.3324 165.208 64.4414 165.369 64.9501 165.458C65.5017 165.555 66.069 165.586 66.6259 165.64C67.8174 165.757 69.0119 165.801 70.2075 165.857C72.5948 165.971 74.9819 166.091 77.371 166.163C82.1133 166.307 86.9572 166.511 91.6974 166.3C92.8571 166.249 93.3846 165.292 93.2792 164.421C94.1682 165.522 95.1402 166.556 96.1755 167.499C97.8398 169.014 99.6364 170.357 101.53 171.542C100.302 171.587 99.0506 171.741 97.8909 171.791C95.9257 171.875 93.9605 171.96 91.9953 172.044C87.854 172.222 83.7132 172.413 79.5726 172.607C71.9093 172.965 64.2722 173.411 56.638 174.142C58.8183 170.864 61.2605 167.772 63.992 164.953ZM188.718 180.874C185.48 171.983 181.306 162.747 173.793 156.641C169.932 153.502 165.63 151.33 160.758 150.302C160.609 150.27 160.549 150.483 160.695 150.531C169.12 153.296 175.355 160.613 179.572 168.111C180.337 169.47 181.045 170.861 181.715 172.273C181.497 172.007 181.163 171.83 180.712 171.838C170.749 172.005 160.669 171.837 150.729 172.81C150.983 172.641 151.237 172.472 151.486 172.295C154.201 170.359 156.644 167.99 158.664 165.307C159.88 165.615 161.161 165.691 162.402 165.809C164.059 165.966 165.727 166.038 167.389 166.128C169.048 166.217 170.714 166.225 172.375 166.265C173.516 166.293 175.748 166.483 175.749 164.736C175.751 162.987 173.517 163.172 172.375 163.195C170.713 163.227 169.049 163.232 167.389 163.31C165.797 163.385 164.197 163.445 162.61 163.587C161.642 163.674 160.646 163.731 159.673 163.885C161.257 161.522 162.517 158.947 163.359 156.232C163.444 155.958 163.472 155.703 163.458 155.467C163.815 155.09 164.042 154.573 164.042 154.1C164.042 152.976 163.166 152.317 162.142 152.199C158.089 151.736 153.624 151.075 150.358 148.41C148.884 147.207 147.698 145.784 146.582 144.254C145.328 142.534 144.858 140.367 144.853 138.261C144.853 138.143 144.657 138.107 144.639 138.232C144.026 142.501 144.911 147.374 147.974 150.573C150.981 153.713 155.066 154.89 159.211 155.577C157.502 160.461 154.681 164.75 150.72 168.124C146.307 171.883 140.72 173.893 135.024 174.652C128.879 175.47 122.439 175.072 116.396 173.736C110.575 172.449 104.88 170.146 100.142 166.472C97.7519 164.618 95.5531 162.432 93.6371 160.094C92.0557 158.163 90.8433 156.011 89.4859 153.943C94.5502 155.332 100.673 153.434 104.915 150.754C107.414 149.176 109.603 147.205 111.401 144.861C112.288 143.705 113.077 142.484 113.728 141.179C114.066 140.5 114.37 139.802 114.65 139.097C114.823 138.661 114.993 138.214 114.993 137.736C114.992 137.383 114.903 137.055 114.727 136.75C114.364 136.365 114.291 136.253 114.51 136.415C114.153 135.685 113.123 135.499 112.464 135.878C112.218 136.02 111.64 136.293 111.356 136.75C111.164 137.059 111.061 137.429 110.938 137.768C110.744 138.303 110.548 138.832 110.304 139.347C109.738 140.544 109.059 141.687 108.285 142.761C106.869 144.724 105.049 146.499 103.067 147.884C100.986 149.338 98.7438 150.527 96.3115 151.27C93.7425 152.054 91.1997 152.288 88.5491 152.575C88.5208 152.536 88.4933 152.496 88.465 152.457C88.4139 152.387 88.3034 152.409 88.299 152.502C88.2969 152.547 88.2979 152.591 88.2966 152.635C87.9187 152.812 87.8874 153.345 88.3085 153.55C88.4646 156.003 89.5226 158.418 90.6755 160.541C91.1557 161.425 91.6983 162.281 92.286 163.109C92.1121 163.042 91.9167 163 91.6974 162.992C86.9555 162.81 82.1128 163.044 77.3709 163.218C75.0519 163.303 72.7353 163.433 70.4181 163.557C69.2238 163.621 68.0266 163.662 66.8365 163.785C66.2414 163.847 65.6426 163.896 65.0507 163.985C65.0078 163.992 64.9678 163.998 64.9302 164.005C66.3947 162.562 67.9385 161.195 69.5682 159.92C74.9145 155.736 81.0548 152.327 87.6062 150.473C87.6683 150.456 87.6593 150.35 87.5906 150.357C74.56 151.69 63.7057 159.904 56.1128 170.218C51.8997 175.942 48.7043 182.277 45.9546 188.81C44.5687 192.103 43.2574 195.455 42.1592 198.856C41.601 200.585 41.3494 202.418 42.1488 204.114C42.7619 205.415 43.8933 206.382 45.0791 207.15C45.1579 207.201 45.239 207.249 45.3187 207.299C44.1064 211.524 43.2943 215.859 42.5152 220.181C41.6688 224.876 40.9305 229.591 40.2962 234.32C39.0286 243.771 38.0576 253.243 37.6336 262.773C37.5164 265.408 37.438 268.046 37.4038 270.684C37.3866 272.004 37.3943 273.324 37.4122 274.643C37.4327 276.12 37.2328 277.786 37.9843 279.104C38.9885 280.865 40.9387 280.259 41.7964 279.055C41.8089 279.071 41.8218 279.088 41.8345 279.104C41.9122 278.951 41.9773 278.799 42.0328 278.646C42.1252 278.443 42.1854 278.231 42.2074 278.014C42.369 277.196 42.3081 276.366 42.3016 275.477C42.2921 274.227 42.2993 272.976 42.3028 271.726C42.3098 269.365 42.3366 267.006 42.4038 264.645C42.5384 259.927 42.8012 255.212 43.1606 250.505C43.8747 241.155 44.9281 231.848 45.8295 222.516C46.2884 217.765 46.8419 213.001 46.9374 208.224C48.0502 208.811 49.1984 209.342 50.309 209.907C52.3697 210.957 54.4302 212.006 56.4907 213.055C58.4891 214.073 60.4904 215.084 62.4926 216.095C64.5115 217.114 66.5169 218.461 68.7882 218.711C70.0024 218.845 70.4418 217.209 69.7264 216.445C68.7922 215.447 67.5516 214.827 66.3045 214.246C67.9615 214.307 69.6206 214.339 71.2805 214.352C71.3033 216.442 71.2296 218.535 71.1248 220.62C70.8671 225.734 70.5088 230.838 70.1695 235.946C69.4643 246.565 68.7816 257.19 68.249 267.819C68.1187 270.422 67.9881 273.025 67.8576 275.629C67.7942 276.894 67.7061 278.161 67.6702 279.428C67.63 280.849 67.6649 282.63 68.9796 283.508C69.9083 284.127 70.9078 283.835 71.605 282.983C72.5373 281.844 72.5359 280.193 72.6109 278.795C72.6282 278.472 72.6436 278.148 72.6603 277.825C74.0843 278.01 75.4978 278.265 76.9279 278.404C78.6747 278.575 80.4324 278.675 82.1868 278.72C85.7642 278.812 89.3359 278.845 92.9143 278.845C99.996 278.845 107.077 278.724 114.158 278.61C128.319 278.381 142.479 277.985 156.636 277.545C160.561 277.423 164.485 277.295 168.41 277.162C170.442 277.093 172.474 277.022 174.507 276.95C176.43 276.881 178.532 277.13 180.225 276.131C180.274 276.739 180.324 277.347 180.377 277.955C180.479 279.106 181.288 280.095 182.516 280.095C183.671 280.095 184.663 279.116 184.655 277.955C184.224 267.454 183.291 256.953 182.552 246.47C181.873 236.842 181.237 227.2 180.266 217.594C180.541 217.772 180.878 217.882 181.275 217.884C182.543 217.889 183.809 217.102 184.996 216.684C186.193 216.262 187.41 215.897 188.643 215.598C189.373 215.42 190.106 215.272 190.842 215.145C190.753 216.648 190.776 218.164 190.748 219.662C190.705 221.964 190.633 224.264 190.577 226.566C190.467 231.1 190.428 235.635 190.342 240.17C190.167 249.312 189.88 258.448 189.391 267.579C189.257 270.088 189.106 272.596 188.939 275.103C188.851 276.426 188.758 277.749 188.66 279.071C188.564 280.371 188.34 281.752 188.829 282.998C188.845 282.989 188.86 282.98 188.876 282.971C189.217 284.044 190.717 284.559 191.425 283.338C192.53 281.434 192.275 278.706 192.402 276.565C192.538 274.267 192.66 271.969 192.768 269.669C192.985 265.07 193.135 260.47 193.222 255.866C193.396 246.657 193.366 237.435 192.803 228.24C192.649 225.726 192.434 223.216 192.213 220.708C192.047 218.827 191.955 216.895 191.662 215.013C193.096 214.802 194.541 214.679 196.001 214.643C197.413 214.608 198.324 213.333 198.024 211.985C195.68 201.421 192.418 191.036 188.718 180.874Z" fill="black"/>
<path fill-rule="evenodd" clip-rule="evenodd" d="M176.592 92.0542C174.659 81.508 169.892 71.4733 162.571 63.6219C161.726 62.6896 160.967 61.2191 159.678 60.984C158.384 58.3462 155.917 56.4814 153.946 54.3512C149.642 50.0585 145.524 45.2615 139.973 42.5507C114.226 31.9574 89.4494 62.1627 84.1916 84.8789C78.9693 103.147 84.6731 128.348 107.304 129.088C110.506 133.324 114.924 136.256 119.463 138.875C125.66 142.845 132.421 144.456 139.591 142.247C146.731 144.114 154.133 138.123 158.425 132.87C161.817 128.801 164.141 123.835 167.244 119.623C170.907 119.531 174.072 116.429 174.562 112.792C177.983 106.503 177.828 98.9666 176.592 92.0542Z" fill="white"/>
<path fill-rule="evenodd" clip-rule="evenodd" d="M120.511 38.9614C125.195 37.8664 130.108 38.0934 134.749 39.2968C143.946 41.6823 151.514 47.8857 157.789 54.8021C163.91 61.5484 168.957 69.2822 172.644 77.6134L172.83 78.0372C175.438 83.976 177.704 90.1489 177.801 96.6882C177.885 102.316 177.316 108.179 175.499 113.533C173.88 118.301 170.901 123.107 165.778 124.25C162.823 131.763 157.043 138.269 149.761 141.75C145.245 143.91 140.286 144.874 135.293 144.394C130.198 143.906 125.44 141.457 121.459 138.334C121.349 138.249 121.49 138.083 121.603 138.147C126.396 140.911 132.065 141.899 137.556 141.717C146.578 141.419 154.85 136.547 159.603 128.889C160.786 126.983 161.84 124.973 162.68 122.881C162.631 122.709 162.603 122.535 162.603 122.365C162.603 121.644 162.944 121.094 163.454 120.738C163.691 119.999 163.9 119.251 164.075 118.495C164.471 116.783 164.692 115.046 164.825 113.295C164.933 111.872 164.873 110.363 165.016 108.904C164.964 107.735 164.892 106.567 164.786 105.402C164.445 101.647 163.756 97.9007 162.429 94.3614C161.084 90.7765 158.96 87.6151 156.281 84.894C150.534 79.0578 143.379 74.7965 137.791 68.8011L137.498 68.4839L137.478 68.4775C136.785 69.1887 136.092 69.8999 135.397 70.6096L132.222 73.849C125.743 80.4677 119.316 87.1506 113.679 94.5157C110.433 98.7569 107.517 103.203 105.005 107.917C103.815 110.15 102.736 112.438 101.761 114.773L101.377 115.702C100.921 116.814 100.427 118.059 100.153 119.315C100.968 120.125 101.565 121.314 102.224 122.232C102.973 123.274 103.835 124.266 104.723 125.191C105.622 126.128 106.607 127.026 107.653 127.796L107.779 127.886C108.979 128.739 110.357 129.327 110.537 130.95C110.616 131.654 109.986 132.221 109.403 132.44C107.807 133.04 106.154 131.317 105.091 130.326C104.428 129.708 103.818 129.042 103.253 128.339C102.702 128.418 102.148 128.457 101.6 128.392C100.751 128.291 99.9094 128.143 99.0818 127.925C92.2182 126.122 87.1378 120.422 84.3969 114.074C80.717 105.551 80.8026 95.7263 82.3323 86.7135C85.1276 70.243 94.1745 54.8613 107.835 45.1233C111.661 42.3961 115.904 40.038 120.511 38.9614ZM127.906 41.1648C119.081 40.6996 111.035 45.2521 104.58 50.919C92.826 61.2371 85.5862 76.3444 84.1298 91.8582C83.3559 100.101 83.935 108.985 88.2313 116.268C89.8982 119.093 92.0451 121.555 94.5793 123.631C96.9672 125.588 99.6892 126.715 102.599 127.483C102.467 127.3 102.336 127.116 102.209 126.929C101.532 125.938 100.994 124.884 100.544 123.78C100.504 123.82 100.429 123.828 100.385 123.767C98.5484 121.246 99.1232 118.238 99.9987 115.465C100.917 112.557 102.08 109.728 103.408 106.983C108.248 96.98 115.447 88.2659 122.919 80.1341C126.735 75.9813 130.678 71.9488 134.607 67.9025C136.568 65.882 138.525 63.8555 140.457 61.8059C141.418 60.7855 142.374 59.7598 143.321 58.7258C144.257 57.7035 145.1 56.6208 146.265 55.8551C147.195 55.2449 148.123 56.4111 147.688 57.2785C147.02 58.6126 145.871 59.6703 144.855 60.7551L144.75 60.8675C143.759 61.9377 142.758 62.9993 141.752 64.0553C140.595 65.2697 139.428 66.4758 138.258 67.6789C139.256 67.5632 140.266 67.4967 141.258 67.346C142.605 67.1414 143.934 66.84 145.256 66.5122C146.649 66.1671 148.024 65.7264 149.352 65.1786C150.599 64.6642 151.778 63.8399 153.15 63.7592C154.311 63.6907 154.674 65.1293 154.031 65.8864C153.144 66.9296 151.549 67.3402 150.252 67.7276L150.069 67.7828C148.635 68.2208 147.167 68.5494 145.684 68.769C143.732 69.0581 141.476 69.1904 139.388 68.8945C143.558 71.3407 147.396 74.3723 151.222 77.3288L151.898 77.8497C155.636 80.7274 159.285 83.8296 161.951 87.7669C164.44 91.4424 165.942 95.7217 166.785 100.058C167.201 102.197 167.476 104.358 167.66 106.529C168.346 108.454 168.236 110.742 168.063 112.859L168.002 113.589L168.006 113.804C168.032 115.127 168.564 118.075 167.311 119.075C167.29 119.181 167.27 119.288 167.248 119.395C167.404 119.299 167.558 119.2 167.71 119.098C167.773 119.056 167.834 119.009 167.895 118.964L168.069 118.822C168.075 118.816 168.081 118.811 168.085 118.807C168.474 118.466 168.845 118.11 169.191 117.724C169.829 117.012 170.436 116.107 171.011 115.065C172.275 112.774 173.082 110.283 173.707 107.708C174.848 103.001 175.319 97.944 174.798 93.1159C174.726 92.4419 174.576 91.5969 174.345 90.73C173.796 88.6714 173.164 86.6347 172.456 84.6253C171.041 80.6057 169.306 76.706 167.283 72.9558C163.175 65.3388 157.889 58.2966 151.556 52.387C145.142 46.4022 136.824 41.6348 127.906 41.1648ZM115.461 65.5017C115.779 65.3073 116.106 65.6849 115.948 65.9897C115.184 67.4647 113.899 68.71 112.832 69.9739C111.727 71.2826 110.63 72.5984 109.535 73.9162C107.307 76.5993 105.132 79.3316 103.043 82.1248L102.491 82.8637C100.654 85.3303 98.8399 87.8359 97.2343 90.4567C96.3943 91.8277 95.654 93.2457 94.9817 94.7059C94.3418 96.0959 94.0467 97.7738 93.2777 99.0796C93.2293 99.162 93.0793 99.1552 93.0607 99.051C92.8097 97.6451 93.4298 95.9518 93.8728 94.6353C94.3995 93.0696 95.1491 91.5783 95.9515 90.138C97.6251 87.1334 99.6305 84.3172 101.645 81.5349C103.691 78.7098 105.816 75.9424 108.044 73.2587C109.091 71.9981 110.161 70.7627 111.264 69.5517L111.678 69.0987C112.833 67.8458 113.997 66.3957 115.461 65.5017ZM110.11 61.1338C110.633 60.746 111.08 61.5386 110.746 61.9587C108.752 64.4683 106.483 66.7232 104.3 69.0637C102.204 71.3114 100.201 73.6432 98.3109 76.0668C94.4568 81.0088 91.3716 86.4316 88.7587 92.115C88.7095 92.2222 88.5544 92.1423 88.5776 92.0387C89.9617 85.8912 93.1974 80.3078 96.8817 75.263L97.0218 75.0717C100.748 69.9987 105.032 64.899 110.11 61.1338Z" fill="black"/>
<path fill-rule="evenodd" clip-rule="evenodd" d="M152.446 123.814C151.749 124.726 150.487 125.424 149.073 125.758C147.726 126.076 146.237 126.064 144.952 125.574L144.842 125.53C143.881 125.131 142.959 124.325 142.609 123.484C142.47 123.149 142.423 122.809 142.518 122.492C142.603 122.207 142.804 121.944 143.139 121.719C143.244 121.648 143.385 121.643 143.519 121.666C143.686 121.696 143.85 121.774 143.949 121.879C144.499 122.464 145.297 123.034 146.241 123.024C146.969 123.017 147.564 122.729 148.14 122.404L148.546 122.172C148.937 121.949 149.333 121.739 149.782 121.643C150.585 121.471 151.56 121.785 152.153 122.302C152.412 122.528 152.6 122.793 152.651 123.078C152.694 123.318 152.634 123.569 152.446 123.814ZM148.271 107.866C149.866 108.837 152.297 111.099 150.581 113.504C148.561 115.624 145.652 113.193 144.219 112.093C142.89 111.241 141.396 113.433 142.63 114.428C152.987 122.099 157.19 108.12 149.078 106.726C148.185 106.572 147.853 107.566 148.271 107.866ZM130.272 92.9565L130.731 92.8308L131.198 92.7046L131.514 92.621C133.685 92.0526 136.079 91.5524 138.232 91.7966C139.017 91.8858 139.654 92.3277 139.765 93.1505C139.859 93.8448 139.41 94.7405 138.647 94.8639C136.119 95.2731 133.53 95.1404 130.99 95.5622C129.726 95.7721 128.47 96.0327 127.21 96.2675C126.252 96.4463 125.262 96.5091 124.296 96.6536L124.518 96.6845C124.596 96.6951 124.576 96.8259 124.5 96.8206C124.181 96.7888 123.862 96.7838 123.543 96.8062L123.406 96.8174C123.197 96.8468 123.074 96.5978 123.26 96.4715C124.438 95.6723 125.437 94.8062 126.755 94.2172C127.895 93.7078 129.069 93.2879 130.272 92.9565ZM150.034 91.7309C151.703 90.0431 155.252 90.6917 157.238 91.4637C158.371 91.9046 159.448 92.462 160.346 93.2957L160.433 93.3778L160.568 93.5074C161.174 94.1007 161.849 94.9172 161.753 95.7725C161.739 95.9029 161.668 96.0519 161.52 96.0782C160.725 96.2191 159.944 95.7994 159.21 95.5468L158.723 95.3799C157.993 95.131 157.258 94.8932 156.505 94.7215C155.569 94.5085 154.614 94.3852 153.652 94.3975C152.681 94.4102 151.637 94.6845 150.711 94.2986C149.679 93.8685 149.144 92.6308 150.034 91.7309ZM133.545 105.343C133.12 105.779 132.557 106.024 131.837 105.878C131.275 105.764 130.204 105.198 129.349 104.327C128.763 103.731 128.274 102.986 128.141 102.123C128.11 101.923 128.004 101.794 127.864 101.713C127.754 101.65 127.609 101.617 127.45 101.633C127.316 101.647 127.173 101.696 127.063 101.76C126.853 101.883 126.767 102.057 126.75 102.188C126.582 103.444 127.067 104.69 127.823 105.741C128.843 107.159 130.341 108.199 131.222 108.442C132.729 108.859 134.317 108.527 135.488 107.478C136.425 106.639 136.904 105.545 137.35 104.421L137.436 104.203C137.536 103.948 137.635 103.695 137.74 103.445C137.952 102.943 137.884 102.509 137.679 102.171C137.453 101.796 137.034 101.532 136.568 101.451C136.138 101.376 135.677 101.458 135.313 101.721C135.006 101.944 134.758 102.296 134.67 102.817C134.527 103.663 134.195 104.635 133.609 105.276L133.545 105.343ZM159.389 100.442C159.037 100.259 158.763 100.204 158.373 100.321C158.158 100.386 157.945 100.51 157.778 100.676C157.613 100.842 157.494 101.047 157.447 101.275C157.333 101.838 157.026 102.365 156.587 102.708C156.212 103.001 155.739 103.157 155.214 103.069C154.648 102.975 154.109 102.611 153.737 102.183C153.633 102.064 153.549 101.931 153.467 101.796L153.418 101.715C153.234 101.413 153.056 101.132 152.804 100.91C152.708 100.825 152.564 100.767 152.424 100.767C152.368 100.767 152.31 100.776 152.255 100.793C151.691 101.359 151.583 101.788 151.601 102.214C151.62 102.661 151.796 103.113 152.081 103.535C152.748 104.524 154.014 105.335 154.869 105.519C156.04 105.771 157.202 105.469 158.134 104.815C159.093 104.142 159.804 103.097 160.025 101.92C160.078 101.636 160.056 101.33 159.948 101.064C159.842 100.805 159.659 100.583 159.389 100.442Z" fill="black"/>
<path fill-rule="evenodd" clip-rule="evenodd" d="M159.889 92.1487C164.848 92.1487 167.678 93.2155 168.715 93.2986L168.746 93.3008C169.177 93.3284 169.564 93.3645 169.97 93.5215C171.463 94.0967 171.706 95.6629 170.835 96.6499C170.774 98.6923 171.043 101.079 170.582 103.128C170.013 111.766 165.953 113.224 163.644 113.756C162.486 114.023 161.112 114.129 159.881 113.847C157.781 113.769 155.705 113.111 153.929 111.966C151.455 110.37 149.618 107.917 149.022 105.005C148.739 103.617 148.607 102.173 148.761 100.762L148.783 100.568C147.979 100.183 147.048 100.11 146.087 100.076C145.628 100.06 145.176 100.045 144.737 100.065C144.307 100.113 143.883 100.177 143.457 100.264C142.993 100.404 142.554 100.635 142.148 101.002L142.12 101.537C142.044 102.874 141.869 104.215 141.598 105.527C141.198 107.463 140.556 109.311 139.188 110.684C138.725 111.376 138.152 111.993 137.456 112.528C134.929 114.474 131.496 115.189 128.345 114.92C121.949 114.374 118.252 109.294 117.4 107.123L117.349 106.991C116.733 105.377 116.243 103.283 114.298 102.936L113.884 102.862C112.996 102.695 112.177 102.463 111.657 101.597C111.429 101.218 111.312 100.795 111.283 100.364C110.979 100.388 110.676 100.41 110.374 100.432C107.964 100.941 93.5071 101.374 92.3532 101.374C92.3532 101.374 90.1351 102.308 89.1986 101.584C88.5495 101.081 88.3359 100.41 88.6933 99.6505C89.2324 98.5074 91.7198 97.8198 92.8243 97.6021C92.8243 97.6021 110.648 97.7502 111.931 97.5069C112.724 96.6881 114.144 96.8002 115.33 96.6707C116.313 95.9702 117.686 95.5009 118.772 95.1869C118.993 95.103 119.212 95.022 119.425 94.9456C121.414 94.2367 123.482 93.8613 125.582 93.6597C127.747 93.4538 129.919 93.547 132.071 93.842C132.978 93.9651 133.877 94.1243 134.769 94.3324C136.366 94.5431 137.955 94.8902 139.553 95.3019L139.873 95.3851C141.556 95.8265 143.285 96.2083 145.028 95.909C146.446 95.667 147.81 95.121 149.118 94.5305L149.288 94.4532C152.163 93.1398 156.654 92.1487 159.889 92.1487ZM134.596 96.9511C133.535 96.7176 133.082 98.3541 134.146 98.5881C134.9 98.7539 135.539 99.1341 135.97 99.7783L136.016 99.8483C136.595 100.77 138.059 99.9192 137.476 98.9914C136.82 97.9472 135.8 97.2159 134.596 96.9511ZM165.671 95.9364C165.296 95.6728 164.73 95.8685 164.513 96.241C164.274 96.6511 164.431 97.1077 164.781 97.376L164.817 97.4022C165.138 97.6288 165.451 98.0349 165.49 98.451L165.494 98.503C165.536 99.592 167.228 99.5975 167.185 98.503C167.144 97.4324 166.524 96.5379 165.671 95.9364Z" fill="black"/>
</svg>
