<svg width="240" height="324" viewBox="0 0 240 324" fill="none" xmlns="http://www.w3.org/2000/svg">
<path fill-rule="evenodd" clip-rule="evenodd" d="M186.455 183.12C183.523 169.221 173.122 158.436 159.135 153.064C156.446 151.542 153.84 145.014 150.226 143.819C149.647 143.627 150.561 145.152 150.226 145.244C149.031 145.568 147.692 145.602 146.373 144.429C144.015 142.332 143.275 136.207 141.841 133.438C134.28 118.837 115.4 124.55 112.871 140.691C111.108 141.841 108.615 142.854 106.695 143.781C104.718 144.735 102.979 147.046 100.942 147.873C99.1244 148.61 96.1294 148.088 94.2979 148.73C85.8737 151.687 78.7388 155.417 73.145 162.975C71.9664 164.569 70.6377 166.528 69.5651 168.138C64.0354 174.507 60.1945 181.644 56.6571 189.302C46.76 211.78 44.0681 236.667 41.6529 260.885C41.7078 265.122 38.8971 276.872 43.0542 278.903C42.8057 279.161 42.8957 279.679 43.3567 279.674C53.8975 279.568 64.4138 280.511 74.791 282.346C79.7979 283.231 84.7779 284.445 89.8779 284.645C100.465 284.572 111.013 282.797 121.586 284.476C134.297 284.476 149.744 284.106 163.884 283.562C177.099 283.054 190.385 284.202 203.437 281.954C204.47 281.79 204.974 280.53 204.758 279.626C203.227 274.044 202.475 268.3 201.616 262.587C201.787 258.922 201.481 255.097 200.126 251.684C196.585 228.643 192.045 205.752 186.455 183.12Z" fill="white"/>
<path fill-rule="evenodd" clip-rule="evenodd" d="M182.19 213.406C181.912 214.761 181.521 216.116 181.001 217.399C180.5 218.637 179.746 219.747 179.227 220.97C179.157 221.135 179.043 221.26 178.905 221.355L178.948 221.688L178.988 222.021C179.247 224.267 179.538 226.507 179.791 228.753L179.913 229.877C180.41 234.567 181.193 239.233 181.802 243.91C182.398 248.49 183.004 253.07 183.652 257.644C184.322 262.359 185.005 267.068 185.801 271.764C186.137 273.748 186.488 275.729 186.854 277.709L187.136 279.225C190.043 279.924 190.838 283.978 187.878 285.474C186.534 286.151 184.808 285.988 183.701 284.925C182.55 283.817 182.503 281.82 182.236 280.32L181.978 278.925C180.053 268.442 178.383 257.837 177.602 247.205C177.401 244.46 177.232 241.713 177.122 238.963C177.018 236.376 177.068 233.79 177.028 231.203L177.014 230.498C176.953 227.74 177.004 224.986 177.076 222.228C177.084 221.892 177.099 221.556 177.116 221.218C177.019 221.104 176.949 220.968 176.92 220.837L176.881 220.664C176.786 220.218 176.894 219.696 177.236 219.377C177.384 217.498 177.579 215.621 177.631 213.744C177.636 213.59 177.857 213.594 177.87 213.744C177.995 215.342 178.244 216.944 178.493 218.544C180.097 217.255 181.282 215.129 181.981 213.349C182.032 213.22 182.22 213.267 182.19 213.406ZM144.251 138.711C144.517 139.928 145.043 141.021 145.749 142.037C146.085 142.524 146.467 142.976 146.926 143.354C147.319 143.677 147.767 143.889 148.185 144.17C148.793 144.075 149.429 144.305 149.856 144.753L149.789 144.098C149.767 143.887 150.118 143.845 150.158 144.049C152.007 153.374 153.692 162.706 155.151 172.098L155.791 176.246L156.393 180.14C157.392 186.629 158.359 193.115 159.086 199.651C160.056 208.374 160.871 217.12 161.467 225.878C162.065 234.698 162.433 243.523 162.695 252.36C162.76 254.588 162.83 256.813 162.898 259.041L163.349 256.378C163.799 253.714 164.241 251.048 164.619 248.372C165.978 238.796 167.064 229.152 167.594 219.493C168.08 210.654 167.917 201.64 165.67 193.03C165.103 190.863 164.41 188.731 163.574 186.653C162.762 184.633 161.655 182.76 160.783 180.77C159.769 178.453 159.464 176.268 159.986 173.774C160.443 171.601 161.244 169.557 161.387 167.321C161.655 163.17 160.305 159.15 158.398 155.517C157.895 154.56 157.364 153.615 156.811 152.679C155.136 149.849 153.247 147.122 151.286 144.508C151.181 144.369 151.405 144.214 151.519 144.328C153.306 146.095 155.26 147.833 156.868 149.762C157.65 150.701 158.412 151.658 159.135 152.641C167.062 153.966 173.873 158.905 178.529 165.428C183.813 172.829 186.486 181.738 188.463 190.51C190.663 200.26 192.517 210.099 194.493 219.897C196.538 230.035 198.572 240.174 200.63 250.31C201.652 255.342 202.675 260.375 203.695 265.409C204.213 267.958 204.756 270.5 205.324 273.041C205.616 274.343 205.929 275.643 206.199 276.949C206.503 278.422 206.22 279.364 205.223 280.447C204.855 280.848 204.274 280.842 203.818 280.628L203.675 280.561L203.537 280.495C202.973 280.217 202.53 279.929 202.179 279.311C201.792 278.633 201.731 277.881 201.598 277.126C201.352 275.737 201.11 274.349 200.865 272.958C200.498 270.879 200.1 268.805 199.695 266.732L197.662 256.371C197.12 253.608 196.577 250.846 196.031 248.085C194.081 238.21 192.129 228.338 190.177 218.466C188.302 208.987 186.644 199.442 184.51 190.018L184.389 189.487L184.266 188.957C182.358 180.832 179.692 172.974 174.855 166.089C171.133 160.795 165.963 156.067 159.874 153.674C160.303 154.292 160.715 154.921 161.108 155.564C163.576 159.596 165.378 164.384 164.955 169.185C164.748 171.531 163.857 173.837 163.941 176.202C164.019 178.303 165.319 180.148 166.217 181.976C168.255 186.119 169.73 190.521 170.681 195.038C172.589 204.107 172.582 213.438 171.925 222.644C171.211 232.652 169.855 242.657 168.31 252.567C167.518 257.65 166.464 262.691 165.657 267.766C165.258 270.268 164.714 272.764 164.239 275.254L164.013 276.443C163.886 277.103 163.754 277.761 163.602 278.412L163.508 278.802V278.872C163.504 279.352 163.373 279.749 163.162 280.066C162.872 280.994 162.513 281.899 162.036 282.767C161.791 283.211 161.436 283.46 161.049 283.551C160.66 284.441 159.779 285.126 158.727 285.122L144.891 285.069C136.855 285.037 128.818 284.984 120.781 284.94C118.753 284.929 116.727 284.891 114.701 284.838C112.802 284.786 110.981 284.557 109.103 284.321C106.981 284.054 105.832 282.552 106.149 280.432C106.219 279.964 106.295 279.5 106.367 279.035C105.944 279.174 105.441 279.109 105.101 278.777L104.782 278.465C104.34 278.027 103.945 277.598 103.665 277.014C103.375 276.414 103.14 275.78 102.885 275.167C102.333 273.848 101.797 272.525 101.275 271.196C100.229 268.537 99.1837 265.868 98.2116 263.181C96.2872 257.861 94.5842 252.461 93.1034 247C90.4625 237.257 88.5525 227.326 87.3482 217.306L87.0603 214.917L86.9766 214.212C86.52 210.328 86.1356 206.384 86.3172 202.509C86.4294 200.082 86.8053 197.637 87.7118 195.371C88.5482 193.281 89.8391 191.493 91.0665 189.625L91.207 189.409L91.3482 189.189C92.4217 187.492 93.2759 185.717 93.3187 183.657C93.362 181.565 92.753 179.53 92.072 177.572L91.9023 177.089L91.7884 176.77C90.3398 172.723 88.6912 168.734 89.2349 164.331C90.0379 157.846 93.9672 152.62 98.9111 148.589C94.5144 149.46 90.1625 151.18 86.3217 153.362C81.7856 155.94 77.7018 159.343 74.1799 163.183C67.525 170.441 62.7736 179.148 58.8844 188.139C54.813 197.549 51.794 207.408 49.5189 217.397C47.2308 227.442 45.6992 237.648 44.6532 247.894C44.1315 252.994 43.7215 258.107 43.3815 263.221C43.2083 265.842 43.0773 268.467 42.8745 271.084C42.6717 273.698 42.5806 276.352 41.9426 278.897C41.6447 280.083 39.6356 280.203 39.4203 278.897C38.9425 275.98 39.076 272.964 39.2094 270.01L39.2215 269.742C39.3527 266.8 39.5238 263.86 39.7264 260.92C40.1407 254.911 40.694 248.911 41.4165 242.93C43.9496 221.934 48.621 201.049 57.7837 181.883C62.0977 172.857 67.6351 164.086 75.3379 157.567C79.0053 154.467 83.1398 151.992 87.5954 150.2C91.5801 148.596 95.628 147.837 99.8618 147.839C101.985 146.212 104.265 144.793 106.542 143.582C106.679 143.508 106.823 143.686 106.709 143.8C106.65 143.857 106.593 143.916 106.534 143.971C106.791 143.988 107.057 144.109 107.296 144.36C108.133 145.237 108.839 146.334 109.47 147.473C110.431 148.674 111.348 149.914 112.308 151.102C113.843 153.004 115.415 154.879 117.006 156.739C119.678 159.865 122.437 162.931 125.314 165.874L125.795 166.364C127.286 167.875 128.797 169.684 130.561 170.88L130.655 170.943C131.399 171.428 131.927 171.516 132.562 170.792C133.139 170.132 133.619 169.367 134.112 168.64L134.227 168.473C136.747 164.81 139.084 161.012 141.198 157.103C142.162 155.323 143.079 153.518 143.949 151.693L144.209 151.145C144.682 150.139 145.196 149.152 145.586 148.116C145.677 147.873 145.766 147.63 145.852 147.389C144.521 146.516 143.491 144.627 143.117 143.147C142.728 141.611 142.924 140.034 143.617 138.628C143.748 138.364 144.188 138.429 144.251 138.711ZM78.5915 201.15C78.4074 206.992 78.2956 212.84 78.0207 218.677L77.9259 220.67C78.3545 221.148 78.6059 221.699 78.4052 222.456C78.3273 222.746 78.0968 223.008 77.8095 223.105L77.7199 224.958C77.3122 233.295 76.8342 241.614 75.9609 249.93C74.8686 260.337 73.6052 270.726 72.3442 281.114C72.1646 282.585 71.1419 283.752 69.551 283.537C67.9414 283.319 67.2885 281.917 67.4998 280.457C68.3301 274.727 69.1285 268.993 69.828 263.245L70.6244 256.695C71.6232 248.508 72.6454 240.322 73.8231 232.161C74.3153 228.75 74.8266 225.341 75.3398 221.932L75.1604 221.699C74.4271 220.746 73.6686 219.814 72.9186 218.876C71.478 217.067 70.0562 215.272 68.7357 213.379C68.67 213.283 68.8033 213.144 68.8982 213.216C70.7489 214.583 72.5005 216.046 74.2625 217.532L75.8048 218.838C76.6921 212.947 77.5709 207.055 78.3545 201.15C78.3738 201.002 78.5956 200.991 78.5915 201.15ZM105.213 145.244C104.1 146.294 102.961 147.321 101.839 148.365L101.428 148.75L101.019 149.136C99.0471 151.006 97.1578 152.954 95.5836 155.19C92.6934 159.296 90.9716 164.303 92.1735 169.316C93.1709 173.469 95.4589 177.234 96.0737 181.49C96.382 183.623 96.2322 185.766 95.4291 187.78C94.6094 189.834 93.2996 191.595 92.1228 193.448C89.5665 197.477 89.2179 201.898 89.4716 206.565C89.7378 211.439 90.2975 216.314 90.9885 221.144C92.3869 230.929 94.4953 240.613 97.2862 250.097C98.6829 254.846 100.333 259.493 101.974 264.16C102.792 266.483 103.745 268.75 104.727 271.007C105.245 272.195 105.775 273.377 106.314 274.556C106.115 272.891 106.115 271.181 106.018 269.526C105.878 267.155 105.701 264.788 105.538 262.418C105.207 257.61 104.911 252.798 104.647 247.985C103.711 230.824 103.022 213.647 103.073 196.458C103.098 187.862 103.274 179.267 103.643 170.679C103.817 166.636 104.152 162.596 104.456 158.557L104.52 157.692C104.789 154.068 105.11 150.434 105.661 146.841C105.498 146.473 105.356 146.1 105.251 145.717L105.213 145.573L105.241 145.578C105.215 145.465 105.207 145.354 105.213 145.244ZM114.843 130.474C114.866 130.375 115.007 130.384 115.033 130.474C115.66 132.588 115.438 134.913 114.898 137.039C114.606 138.191 114.192 139.309 113.691 140.387L113.516 140.764C113.087 141.682 112.604 142.628 111.769 143.2C111.42 143.439 110.797 143.453 110.448 143.2L110.27 143.065C110.241 143.042 110.212 143.019 110.184 142.995C109.859 142.722 109.698 142.12 109.848 141.723C110.235 140.697 111.112 139.945 111.718 139.032C112.255 138.22 112.73 137.364 113.125 136.475C113.976 134.549 114.359 132.506 114.843 130.474Z" fill="black"/>
<path fill-rule="evenodd" clip-rule="evenodd" d="M169.198 79.1768C165.035 53.9887 133.248 49.4474 112.534 54.7489C112.153 49.9039 109.101 45.6228 105.294 42.8068C89.1202 31.1637 69.9722 50.9313 73.8056 67.9678C74.4933 73.1288 78.6173 79.0181 84.3872 78.1348C77.1346 91.8656 74.3004 119.553 90.2801 128.112C91.8217 129.21 92.0775 131.439 93.264 132.868C95.1901 135.173 103.419 138.109 107.871 135.756C109.27 137.042 110.884 138.293 112.771 138.738C122.518 146.544 136.763 148.305 148.633 145.084C155.945 143.843 163.526 140.543 167.288 133.8C170.476 128.669 169.007 122.657 167.545 117.226C166.914 114.238 166.503 111.227 166.25 108.19C166.768 107.584 166.797 106.743 166.926 105.978C167.488 103.264 168.714 100.745 169.328 98.0389C170.701 91.8958 170.462 85.3326 169.198 79.1768Z" fill="white"/>
<path fill-rule="evenodd" clip-rule="evenodd" d="M168.864 92.0048C168.624 95.0419 167.337 97.7747 166.26 100.605C166.378 98.9303 166.322 97.1875 166.44 95.4486C165.187 84.5592 150.384 81.6983 144.637 73.4643C144.855 72.9994 144.933 68.8419 144.076 70.0111C140.753 84.5615 120.997 91.8613 107.471 91.8894C106.448 91.0461 104.419 91.937 104.802 93.6181C106.825 102.489 107.268 111.768 105.969 120.781C105.357 123.964 105.254 127.794 103.345 130.536C101.319 132.464 103.755 132.619 105.095 132.184C105.469 132.709 105.863 133.22 106.259 133.728C104.334 135.059 101.524 134.333 99.5313 133.447C97.3145 132.273 96.0473 129.999 94.441 128.175C93.564 126.409 92.2339 125.395 90.5239 124.438C81.0107 117.97 81.2564 103.781 82.6221 93.5263C86.6015 63.0103 120.458 48.2862 147.63 58.8875C162.304 62.6413 169.179 77.8188 168.864 92.0048ZM80.3636 74.7283C74.5607 68.9471 75.7288 58.8403 79.3766 52.1756C86.686 38.2503 107.447 38.7028 109.933 55.5817C99.3458 59.2099 90.4121 66.99 85.0933 76.8137C83.3615 76.6286 81.6874 75.857 80.3636 74.7283ZM169.198 79.1815C165.035 53.9934 133.248 49.4522 112.534 54.7539C112.153 49.9087 109.101 45.6276 105.294 42.8113C89.12 31.1685 69.9719 50.936 73.8054 67.9726C74.4931 73.1335 78.617 79.0228 84.3869 78.1396C77.1343 91.8704 74.3004 119.558 90.2798 128.117C91.8214 129.214 92.0773 131.444 93.2638 132.873C95.1899 135.178 103.419 138.114 107.871 135.761C108.929 137.06 114.937 141.011 114.499 137.138C114.057 136.095 112.692 135.823 111.782 135.307C109.871 134.251 108.211 132.764 106.906 131.017C111.004 119.458 110.691 106.589 108.396 94.6874C122.114 93.9972 138.255 87.9821 144.305 74.7738C148.396 84.386 161.08 85.6231 164.284 96.37C164.477 102.015 163.267 107.575 164.144 113.223C164.402 118.754 167.325 124.249 165.635 129.744C160.914 141.727 143.919 143.485 132.691 142.985C130.024 142.764 127.81 141.323 125.618 139.954C124.304 139.33 122.739 140.635 123.545 142.028C126.619 146.319 132.942 146.694 137.797 146.54C150.398 145.792 168.608 142.068 169.262 126.503C168.847 120.332 166.426 114.427 166.25 108.194C166.768 107.589 166.797 106.748 166.926 105.982C167.488 103.268 168.714 100.75 169.328 98.0437C170.7 91.9006 170.462 85.3375 169.198 79.1815Z" fill="black"/>
<path fill-rule="evenodd" clip-rule="evenodd" d="M132.525 123.613C132.547 121.284 134.564 120.882 136.481 121.193C139.725 121.718 142.981 122.087 146.269 122.154L146.835 122.164C146.927 122.031 147.079 121.93 147.286 121.907C149.109 121.71 150.971 121.742 152.803 121.688C154.402 121.641 156.045 121.481 157.643 121.607L157.77 121.618C159.724 121.807 161.786 122.805 161.55 125.098C161.333 127.222 159.303 129.102 157.683 130.283C157.355 130.519 157.02 130.741 156.675 130.943C156.567 131.081 156.409 131.177 156.227 131.197C154.631 132.059 152.87 132.569 151.047 132.739C147.183 133.099 142.69 132.709 138.978 131.034C137.771 130.489 136.646 129.809 135.651 128.974C134.116 127.685 132.508 125.732 132.525 123.613ZM147.751 128.23C146.202 128.183 144.655 128.4 143.18 128.878C142.18 129.201 141.269 129.822 140.31 130.253C143.539 131.485 147.291 131.754 150.603 131.529C152.057 131.431 153.466 131.096 154.779 130.519C154.574 130.371 154.367 130.221 154.15 130.09C153.495 129.694 152.81 129.356 152.096 129.087C150.705 128.565 149.237 128.277 147.751 128.23ZM148.27 107.866C147.852 107.566 148.184 106.572 149.077 106.726C157.189 108.12 152.986 122.099 142.629 114.428C141.396 113.433 142.889 111.241 144.218 112.093L144.69 112.457C146.224 113.634 148.762 115.412 150.58 113.504C152.296 111.099 149.866 108.836 148.27 107.866ZM153.762 97.2866C155.487 95.8148 157.65 96.8995 158.919 98.3903L159.143 98.6568C159.397 98.9609 159.678 99.3152 159.847 99.6939C161.254 98.4956 163.162 97.6523 164.987 98.1997C166.758 98.7325 167.767 100.423 167.463 102.239C167.118 104.303 165.557 105.69 163.879 106.763L163.404 107.065C161.388 108.351 159.501 109.646 157.842 111.414C157.571 111.701 156.986 111.663 156.809 111.28L156.666 110.973L156.522 110.665C155.345 108.154 154.084 105.66 153.048 103.091C152.281 101.186 152.032 98.7619 153.762 97.2866ZM134.105 98.6199L134.368 98.316C135.631 96.845 137.772 95.8601 139.46 97.2867C141.257 98.8063 140.905 101.319 140.104 103.257C139.14 105.595 138.014 107.881 136.932 110.174L136.7 110.665C136.603 110.87 136.508 111.075 136.413 111.28C136.236 111.663 135.649 111.701 135.38 111.413C133.772 109.701 131.954 108.435 130.011 107.19L129.425 106.817C127.719 105.734 126.107 104.337 125.757 102.239C125.457 100.427 126.46 98.726 128.233 98.1996C130.062 97.6566 131.966 98.4935 133.375 99.694C133.543 99.3057 133.832 98.9399 134.105 98.6199ZM136.417 88.0667C137.034 88.8682 136.375 90.1779 135.474 90.385C134.358 90.6418 133.231 90.4856 132.135 90.8041C131.131 91.096 130.17 91.6808 129.309 92.2637C128.328 92.9282 127.424 93.67 126.593 94.5152C126.1 95.018 125.477 96.2092 124.715 96.2314C123.958 96.2536 124.975 93.8841 125.059 93.6791C125.656 92.2198 126.495 90.8768 127.544 89.7005C129.615 87.3792 134 84.9299 136.417 88.0667ZM159.541 87.4253L160.058 87.5689C161.337 87.9246 162.702 88.3617 163.8 89.1287L163.886 89.1897L164.019 89.2869C165.396 90.3143 167.345 92.3644 166.369 94.1529C166.302 94.2761 166.159 94.2884 166.044 94.2381C164.746 93.6693 163.783 92.5335 162.403 92.0584L162.148 91.9716C160.811 91.5211 159.157 91.0473 157.718 91.0904C156.706 91.4195 155.339 91.1469 155.076 89.9146L155.064 89.8542L155.041 89.7266C154.889 88.8846 155.115 87.8111 155.985 87.4053C157.177 86.8494 158.341 87.0968 159.541 87.4253Z" fill="black"/>
</svg>
