<svg width="240" height="324" viewBox="0 0 240 324" fill="none" xmlns="http://www.w3.org/2000/svg">
<path fill-rule="evenodd" clip-rule="evenodd" d="M41.085 260.27C40.4525 266.071 39.0197 272.461 41.7509 277.934C40.0308 278.011 41.4262 278.509 42.3545 278.68C42.8846 279.09 43.597 279.253 44.2669 279.196C47.7452 279.931 51.3359 280.198 54.8677 280.614C98.9631 284.278 143.354 283.305 187.532 281.726C188.969 281.664 189.933 280.62 190.043 279.213C191.662 258.518 192.468 237.758 192.426 216.999C191.707 209.703 197.219 212.55 194.279 202.937C191.915 192.798 188.417 182.928 183.955 173.524C180.872 167.404 177.966 160.965 173.266 155.89C171.781 155.685 170.516 154.209 169.261 153.385C167.99 153.137 167.048 152.057 165.76 151.725C163.304 151.087 157.81 149.728 155.719 151.362C155.637 151.339 155.553 151.32 155.47 151.297C155.061 151.751 154.499 151.41 154.194 151.002C153.149 150.191 148.583 150.107 148.064 148.862C145.363 146.41 144.64 141.251 144.64 138.232C143.63 137.096 143.56 137.307 142.188 136.707C140.844 135.011 139.219 133.533 137.407 132.368C127.204 125.666 112.399 132.728 110.011 144.376C106.235 147.367 102.349 150.405 97.7246 151.963C95.4679 150.802 92.8969 150.431 90.5018 150.429C88.7164 150.364 86.2492 149.331 85.0889 151.211C65.5684 157.603 53.7873 176.196 45.4101 193.813C44.2359 196.321 42.8312 198.947 43.1905 201.805C43.4375 205.227 47.1503 207.264 46.4487 210.891C45.4289 220.868 44.2688 230.835 43.2072 240.809C42.4997 247.296 41.7924 253.783 41.085 260.27Z" fill="white"/>
<path fill-rule="evenodd" clip-rule="evenodd" d="M183.891 212.676C182.629 213.133 180.86 213.578 179.957 214.611C179.853 213.649 179.748 212.686 179.642 211.724C182.287 211.661 184.937 211.638 187.583 211.564C186.334 211.87 185.1 212.238 183.891 212.676ZM178.08 273.216C177.17 273.225 176.257 273.288 175.348 273.324C173.596 273.392 171.844 273.459 170.092 273.524C166.518 273.658 162.944 273.787 159.37 273.912C152.291 274.158 145.212 274.385 138.132 274.594C123.973 275.011 109.806 275.263 95.6489 275.739C91.7212 275.871 87.7938 275.974 83.8697 276.188C81.8362 276.299 79.7933 276.394 77.7696 276.63C76.0623 276.828 74.3793 277.164 72.6816 277.413C72.7955 275.2 72.9022 272.987 73.0131 270.774C73.1181 268.68 73.2161 266.587 73.3135 264.492C79.9408 264.839 86.5758 264.979 93.2119 265.039C100.232 265.101 107.249 265.276 114.269 265.289C128.166 265.317 142.065 265.142 155.962 265.002C159.892 264.963 163.823 264.923 167.754 264.884C169.719 264.864 171.685 264.844 173.65 264.824C174.631 264.815 175.618 264.835 176.598 264.795C177.644 264.751 178.279 264.454 179.039 263.75C179.444 263.374 179.46 262.609 179.039 262.237C178.429 261.698 177.864 261.285 177.019 261.225C176.19 261.165 175.324 261.247 174.492 261.258C172.667 261.282 170.842 261.306 169.017 261.33C165.508 261.376 161.998 261.422 158.489 261.468C151.47 261.561 144.45 261.655 137.432 261.762C130.553 261.867 123.673 261.945 116.796 262.118C109.773 262.295 102.759 262.615 95.7387 262.84C88.2658 263.08 80.7966 263.367 73.3405 263.928C73.5197 260.047 73.6847 256.164 73.84 252.282C88.6446 253.088 103.459 253.662 118.289 253.687C133.738 253.713 149.187 253.449 164.631 253.046C166.807 252.989 168.983 252.931 171.159 252.863C172.282 252.828 173.405 252.795 174.528 252.754C175.354 252.724 176.203 252.689 176.949 252.294C178.422 251.515 178.676 249.239 176.928 248.616C175.973 248.276 174.96 248.608 174.727 249.47C174.656 249.477 174.588 249.483 174.528 249.485C173.686 249.517 172.844 249.54 172.001 249.567C170.176 249.625 168.351 249.684 166.526 249.741C163.157 249.847 159.787 249.944 156.417 250.034C149.537 250.216 142.656 250.365 135.774 250.479C122.15 250.706 108.526 250.916 94.9031 251.228C87.8878 251.388 80.8746 251.597 73.86 251.774C74.0276 247.554 74.1858 243.334 74.3284 239.113C74.3451 238.618 74.3633 238.123 74.3812 237.628C75.3865 237.849 76.4157 237.972 77.4398 238.117C79.2167 238.368 80.9992 238.554 82.7838 238.743C86.1463 239.098 89.5198 239.315 92.8948 239.502C99.7756 239.881 106.658 240.149 113.546 240.359C127.172 240.774 140.814 240.865 154.444 240.818C161.846 240.793 169.293 240.89 176.691 240.567C177.147 240.692 177.617 240.679 178.071 240.531C178.444 247.129 178.839 253.726 179.226 260.323C179.487 264.775 179.718 269.241 180.038 273.694C179.412 273.385 178.835 273.21 178.08 273.216ZM49.8132 206.181C48.5152 205.545 47.0836 204.966 45.9377 204.066C44.6851 203.082 44.3775 201.926 44.7624 200.382C44.7912 200.267 44.825 200.152 44.855 200.037C54.0854 200.06 63.2925 199.653 72.519 199.434C81.8929 199.212 91.2635 199.025 100.64 198.972C119.339 198.867 138.037 199.288 156.727 199.814C163.458 200.003 170.189 200.189 176.921 200.373C176.767 202.015 176.826 203.697 176.792 205.327C176.761 206.759 176.769 208.193 176.79 209.627C173.269 209.618 169.748 209.542 166.227 209.502C157.508 209.404 148.794 209.654 140.077 209.854C122.644 210.253 105.207 210.567 87.7774 211.092C83.0435 211.234 78.2792 211.309 73.5235 211.512C73.36 210.738 73.1785 209.969 72.9738 209.204C72.6485 207.989 72.2813 206.741 71.3084 205.897C71.2617 205.856 71.1971 205.874 71.1762 205.932C70.8066 206.956 70.9 207.999 71.0082 209.072C71.0938 209.92 71.1516 210.771 71.1945 211.622C68.2374 211.777 65.2864 211.996 62.3509 212.324C61.5115 211.909 60.6717 211.495 59.8307 211.083C56.492 209.448 53.1523 207.815 49.8132 206.181ZM156.975 236.684C150.088 236.74 143.2 236.746 136.313 236.702C122.681 236.614 109.053 236.279 95.4231 236.008C91.6298 235.933 87.8415 235.858 84.0476 235.858C82.0835 235.858 80.1127 235.871 78.1507 235.956C76.9158 236.01 75.6639 236.018 74.4347 236.166C74.583 232.194 74.7375 228.218 74.7326 224.243C87.7353 226.213 100.878 226.754 114.009 227.142C127.312 227.535 140.619 227.738 153.928 227.758C157.71 227.763 161.492 227.755 165.274 227.733C167.095 227.722 168.916 227.708 170.737 227.691C171.716 227.682 172.701 227.701 173.679 227.66C174.713 227.617 175.338 227.372 176.06 226.636C176.43 226.259 176.448 225.61 176.06 225.235C174.771 223.99 173.254 224.26 171.578 224.281C169.897 224.302 168.216 224.32 166.535 224.335C163.173 224.366 159.811 224.385 156.449 224.394C149.865 224.411 143.281 224.385 136.698 224.318C123.392 224.182 110.09 223.886 96.787 223.574C89.4328 223.402 82.0801 223.45 74.7318 223.806C74.729 223.146 74.7229 222.486 74.71 221.827C74.6616 219.328 74.4182 216.829 74.0375 214.357C77.6388 214.345 81.2399 214.268 84.8249 214.222C93.5424 214.11 102.258 213.934 110.975 213.759C119.621 213.586 128.267 213.412 136.914 213.239C145.554 213.066 154.222 213.053 162.852 212.587C167.51 212.335 172.169 211.992 176.83 211.812C176.839 212.24 176.849 212.669 176.858 213.096C176.97 218.347 177.175 223.593 177.44 228.839C177.567 231.359 177.701 233.879 177.839 236.399C177.772 236.393 177.704 236.389 177.634 236.388C170.752 236.343 163.858 236.629 156.975 236.684ZM47.995 191.081C48.7835 189.052 49.64 187.036 50.5657 185.048C54.4962 186.157 58.6888 186.73 62.7451 187.111C67.0634 187.517 71.3902 187.745 75.7262 187.834C84.2746 188.008 92.8229 187.603 101.362 187.25C118.926 186.524 136.488 185.994 154.069 185.96C158.978 185.95 163.888 185.973 168.797 186.029C171.252 186.056 173.706 186.09 176.16 186.132C177.423 186.153 178.685 186.177 179.947 186.203C180.506 186.215 181.071 186.256 181.63 186.239C182.377 186.217 182.922 185.992 183.615 185.722C184.411 185.412 184.881 184.08 183.887 183.639C182.895 183.198 182.099 182.94 180.999 182.916C179.807 182.891 178.615 182.867 177.423 182.845C175.249 182.805 173.075 182.772 170.901 182.745C166.483 182.69 162.064 182.667 157.646 182.667C148.949 182.668 140.252 182.771 131.558 182.976C114.103 183.386 96.6869 184.604 79.2384 185.126C74.4291 185.27 69.6107 185.298 64.8012 185.154C60.1427 185.014 55.4942 184.622 50.8415 184.457C52.4486 181.067 54.2669 177.767 56.3188 174.628C64.075 174.901 71.8146 174.699 79.5726 174.463C83.6435 174.339 87.7144 174.213 91.7849 174.074C93.8203 174.004 95.8556 173.934 97.891 173.864C98.8736 173.831 99.8562 173.797 100.839 173.763C101.897 173.727 103.011 173.796 104.039 173.517C104.225 173.467 104.373 173.359 104.485 173.221C107.221 174.63 110.115 175.741 113.091 176.564C119.551 178.351 126.5 179.021 133.181 178.471C138.543 178.03 143.886 176.702 148.601 174.103C159.247 175.083 170.043 174.622 180.712 174.553C181.731 174.546 182.155 173.612 181.985 172.841C185.409 180.223 187.677 188.226 189.8 196.01C191.119 200.848 192.292 205.715 193.409 210.601C193.363 210.605 193.317 210.609 193.27 210.613C193.4 210.078 193.109 209.447 192.376 209.43C188.058 209.331 183.726 209.579 179.407 209.619C179.285 208.539 179.164 207.457 179.036 206.377C178.861 204.905 178.653 203.437 178.475 201.965C178.41 201.432 178.35 200.916 178.277 200.41C181.697 200.503 185.117 200.597 188.537 200.687C190.756 200.746 190.752 197.307 188.537 197.239C169.743 196.664 150.949 196.082 132.149 195.763C113.338 195.443 94.4615 195.246 75.6646 196.211C65.4212 196.737 55.2033 197.439 45.0874 199.173C45.8731 196.43 46.9691 193.722 47.995 191.081ZM63.9921 164.953C64.3325 165.208 64.4415 165.369 64.9502 165.458C65.5019 165.555 66.0691 165.586 66.626 165.64C67.8176 165.757 69.0121 165.801 70.2076 165.857C72.5949 165.971 74.9821 166.091 77.3711 166.163C82.1134 166.307 86.9573 166.511 91.6975 166.3C92.8572 166.249 93.3847 165.292 93.2793 164.421C94.1683 165.522 95.1404 166.556 96.1756 167.499C97.8399 169.014 99.6366 170.357 101.531 171.542C100.302 171.587 99.0507 171.741 97.8911 171.791C95.9259 171.875 93.9606 171.96 91.9954 172.044C87.8542 172.222 83.7133 172.413 79.5727 172.607C71.9094 172.965 64.2723 173.411 56.6381 174.142C58.8184 170.864 61.2607 167.772 63.9921 164.953ZM188.718 180.874C185.48 171.983 181.306 162.747 173.794 156.641C169.932 153.502 165.63 151.33 160.759 150.302C160.609 150.27 160.549 150.483 160.695 150.531C169.12 153.296 175.355 160.613 179.573 168.111C180.337 169.47 181.045 170.861 181.715 172.273C181.497 172.007 181.163 171.83 180.712 171.838C170.749 172.005 160.669 171.837 150.729 172.81C150.983 172.641 151.237 172.472 151.486 172.295C154.201 170.359 156.644 167.99 158.664 165.307C159.881 165.615 161.161 165.691 162.402 165.809C164.059 165.966 165.727 166.038 167.389 166.128C169.048 166.217 170.714 166.225 172.375 166.265C173.517 166.293 175.748 166.483 175.75 164.736C175.751 162.987 173.517 163.172 172.375 163.195C170.714 163.227 169.049 163.232 167.389 163.31C165.798 163.385 164.197 163.445 162.61 163.587C161.642 163.674 160.647 163.731 159.674 163.885C161.257 161.522 162.518 158.947 163.359 156.232C163.444 155.958 163.472 155.703 163.458 155.467C163.815 155.09 164.043 154.573 164.043 154.1C164.043 152.976 163.166 152.317 162.142 152.199C158.089 151.736 153.624 151.075 150.358 148.41C148.884 147.207 147.698 145.784 146.582 144.254C145.328 142.534 144.858 140.367 144.854 138.261C144.853 138.143 144.657 138.107 144.64 138.232C144.026 142.501 144.911 147.374 147.974 150.573C150.981 153.713 155.066 154.89 159.211 155.577C157.502 160.461 154.681 164.75 150.72 168.124C146.307 171.883 140.72 173.893 135.024 174.652C128.879 175.47 122.439 175.072 116.396 173.736C110.575 172.449 104.88 170.146 100.142 166.472C97.7521 164.618 95.5532 162.432 93.6372 160.094C92.0559 158.163 90.8434 156.011 89.486 153.943C94.5503 155.332 100.673 153.434 104.915 150.754C107.414 149.176 109.603 147.205 111.401 144.861C112.288 143.705 113.077 142.484 113.728 141.179C114.066 140.5 114.371 139.802 114.65 139.097C114.824 138.661 114.993 138.214 114.993 137.736C114.992 137.383 114.903 137.055 114.727 136.75C114.364 136.365 114.292 136.253 114.51 136.415C114.154 135.685 113.123 135.499 112.464 135.878C112.218 136.02 111.641 136.293 111.356 136.75C111.164 137.059 111.061 137.429 110.938 137.768C110.744 138.303 110.548 138.832 110.305 139.347C109.738 140.544 109.059 141.687 108.285 142.761C106.869 144.724 105.049 146.499 103.067 147.884C100.987 149.338 98.744 150.527 96.3116 151.27C93.7426 152.054 91.1998 152.288 88.5492 152.575C88.5209 152.536 88.4935 152.496 88.4651 152.457C88.414 152.387 88.3035 152.409 88.2991 152.502C88.297 152.547 88.298 152.591 88.2968 152.635C87.9188 152.812 87.8875 153.345 88.3086 153.55C88.4647 156.003 89.5228 158.418 90.6756 160.541C91.1559 161.425 91.6984 162.281 92.2861 163.109C92.1123 163.042 91.9168 163 91.6975 162.992C86.9556 162.81 82.113 163.044 77.3711 163.218C75.052 163.303 72.7354 163.433 70.4182 163.557C69.224 163.621 68.0267 163.662 66.8366 163.785C66.2415 163.847 65.6428 163.896 65.0508 163.985C65.0079 163.992 64.968 163.998 64.9304 164.005C66.3949 162.562 67.9386 161.195 69.5683 159.92C74.9147 155.736 81.0549 152.327 87.6063 150.473C87.6685 150.456 87.6594 150.35 87.5907 150.357C74.5602 151.69 63.7059 159.904 56.1129 170.218C51.8998 175.942 48.7044 182.277 45.9547 188.81C44.5688 192.103 43.2575 195.455 42.1593 198.856C41.6011 200.585 41.3495 202.418 42.149 204.114C42.7621 205.415 43.8934 206.382 45.0792 207.15C45.158 207.201 45.2392 207.249 45.3188 207.299C44.1066 211.524 43.2944 215.859 42.5153 220.181C41.669 224.876 40.9306 229.591 40.2963 234.32C39.0287 243.771 38.0578 253.243 37.6337 262.773C37.5165 265.408 37.4381 268.046 37.4039 270.684C37.3868 272.004 37.3944 273.324 37.4123 274.643C37.4328 276.12 37.233 277.786 37.9844 279.104C38.9886 280.865 40.9388 280.259 41.7966 279.055C41.809 279.071 41.8219 279.088 41.8346 279.104C41.9123 278.951 41.9774 278.799 42.033 278.646C42.1253 278.443 42.1855 278.231 42.2075 278.014C42.3691 277.196 42.3082 276.366 42.3017 275.477C42.2922 274.227 42.2994 272.976 42.303 271.726C42.3099 269.365 42.3368 267.006 42.404 264.645C42.5385 259.927 42.8013 255.212 43.1607 250.505C43.8748 241.155 44.9282 231.848 45.8297 222.516C46.2885 217.765 46.8421 213.001 46.9375 208.224C48.0503 208.811 49.1985 209.342 50.3092 209.907C52.3699 210.957 54.4304 212.006 56.4909 213.055C58.4892 214.073 60.4906 215.084 62.4928 216.095C64.5116 217.114 66.517 218.461 68.7883 218.711C70.0025 218.845 70.4419 217.209 69.7266 216.445C68.7923 215.447 67.5518 214.827 66.3047 214.246C67.9616 214.307 69.6207 214.339 71.2806 214.352C71.3035 216.442 71.2297 218.535 71.1249 220.62C70.8672 225.734 70.5089 230.838 70.1696 235.946C69.4644 246.565 68.7818 257.19 68.2492 267.819C68.1188 270.422 67.9882 273.025 67.8577 275.629C67.7943 276.894 67.7062 278.161 67.6703 279.428C67.6301 280.849 67.665 282.63 68.9797 283.508C69.9085 284.127 70.908 283.835 71.6051 282.983C72.5375 281.844 72.536 280.193 72.611 278.795C72.6283 278.472 72.6437 278.148 72.6604 277.825C74.0844 278.01 75.498 278.265 76.928 278.404C78.6748 278.575 80.4325 278.675 82.1869 278.72C85.7643 278.812 89.336 278.845 92.9144 278.845C99.9961 278.845 107.077 278.724 114.158 278.61C128.32 278.381 142.48 277.985 156.636 277.545C160.561 277.423 164.486 277.295 168.41 277.162C170.442 277.093 172.474 277.022 174.507 276.95C176.43 276.881 178.532 277.13 180.225 276.131C180.274 276.739 180.324 277.347 180.377 277.955C180.479 279.106 181.288 280.095 182.516 280.095C183.671 280.095 184.663 279.116 184.656 277.955C184.224 267.454 183.291 256.953 182.552 246.47C181.873 236.842 181.237 227.2 180.266 217.594C180.541 217.772 180.878 217.882 181.275 217.884C182.543 217.889 183.809 217.102 184.996 216.684C186.193 216.262 187.41 215.897 188.643 215.598C189.373 215.42 190.106 215.272 190.842 215.145C190.753 216.648 190.776 218.164 190.748 219.662C190.705 221.964 190.634 224.264 190.578 226.566C190.467 231.1 190.428 235.635 190.342 240.17C190.167 249.312 189.88 258.448 189.391 267.579C189.257 270.088 189.106 272.596 188.939 275.103C188.851 276.426 188.758 277.749 188.66 279.071C188.564 280.371 188.34 281.752 188.829 282.998C188.845 282.989 188.86 282.98 188.876 282.971C189.217 284.044 190.717 284.559 191.425 283.338C192.53 281.434 192.275 278.706 192.402 276.565C192.538 274.267 192.66 271.969 192.768 269.669C192.985 265.07 193.135 260.47 193.222 255.866C193.396 246.657 193.366 237.435 192.803 228.24C192.649 225.726 192.434 223.216 192.213 220.708C192.047 218.827 191.955 216.895 191.662 215.013C193.096 214.802 194.542 214.679 196.001 214.643C197.413 214.608 198.324 213.333 198.025 211.985C195.68 201.421 192.419 191.036 188.718 180.874Z" fill="black"/>
<path fill-rule="evenodd" clip-rule="evenodd" d="M104.035 43.648C117.348 42.9209 129.143 39.1789 138.514 47.5537C138.514 47.5537 153.674 36.228 156.204 40.5415C157.898 43.4319 155.548 47.312 156.178 50.8787C160.288 57.8872 160.055 69.7498 160.288 72.5298C160.873 79.5368 164.562 105.904 164.562 112.166C164.562 115.362 161.928 123.732 160.288 128.39C156.637 138.758 149.667 144.042 138.237 144.042C126.807 144.042 108.152 134.485 102.169 126C101.644 125.257 98.2533 127.426 94.7066 123.663C90.8643 119.586 88.7328 111.81 88.7328 107.175C88.7328 101.293 84.9329 97.2137 85.3749 89.6846C86.362 72.8698 89.7898 44.4259 104.035 43.648Z" fill="white"/>
<path fill-rule="evenodd" clip-rule="evenodd" d="M102.547 24.0984C102.721 24.0878 102.896 24.0963 103.071 24.1134C103.263 24.1219 103.456 24.1407 103.648 24.1789C104.626 24.3668 105.499 24.8846 106.175 25.6138C106.194 25.6328 106.209 25.6542 106.225 25.673C106.542 25.9118 106.836 26.1825 107.1 26.4698C107.147 26.4254 107.191 26.3812 107.24 26.3368C107.379 26.214 107.525 26.0978 107.677 25.9881C108.313 25.4421 109.06 25.0451 109.863 24.8193L109.973 24.7895C109.994 24.7832 110.016 24.779 110.037 24.7747C110.607 24.5847 111.207 24.4875 111.811 24.4894C112.534 24.4662 113.259 24.5847 113.935 24.8635C114.735 25.1955 115.432 25.7195 116.018 26.3495C116.402 26.6623 116.738 27.0066 117.093 27.3851C117.826 28.169 118.405 29.0863 118.771 30.0967C118.821 30.2383 118.866 30.384 118.906 30.5298C119.799 30.4264 120.697 30.3525 121.595 30.3163C122.603 30.2552 123.611 30.2339 124.621 30.2679C127.403 30.3586 130.124 30.8491 132.759 31.7474C133.287 31.9036 133.8 32.1022 134.294 32.3474C135.07 32.656 135.803 33.0491 136.494 33.5246L137.082 33.8738C137.378 34.0495 137.673 34.2276 137.96 34.4102C138.642 34.8479 139.289 35.338 139.902 35.8664C140.548 36.3886 141.159 36.9572 141.74 37.553C141.897 37.7142 142.05 37.8776 142.2 38.042C143.539 38.7651 144.729 39.6908 145.838 40.7949C146.718 40.2885 147.629 39.8294 148.57 39.4213C149.54 39.0007 150.771 38.5674 151.787 38.2823C152.7 38.0266 153.602 37.8512 154.517 37.722C154.933 37.6502 155.352 37.5931 155.772 37.5445L155.755 37.5511C156.051 37.5191 156.344 37.4917 156.642 37.4663L156.634 37.4642C156.761 37.4538 156.89 37.4431 157.016 37.4346L157.325 37.4095C157.418 37.401 157.553 37.6185 157.561 37.6946L157.572 37.7728C157.642 37.8512 157.705 37.9378 157.749 37.9907C157.804 37.9862 157.859 37.9822 157.914 37.9799C158.079 37.9653 158.269 38.2589 158.366 38.3709L158.454 38.4742C158.554 38.5946 158.654 38.7333 158.671 38.8845C158.778 39.7618 158.88 40.6408 158.973 41.52C159.009 42.1858 158.973 42.8452 158.863 43.4982C158.78 44.1323 158.696 44.7663 158.611 45.3983C158.476 45.8423 158.343 46.2862 158.21 46.7298C158.157 46.8991 158.098 47.0658 158.041 47.2328C157.703 48.3479 157.307 49.4334 156.835 50.4853C157.179 50.8661 157.5 51.2609 157.799 51.6686C157.87 51.742 157.942 51.8149 158.009 51.891C158.028 51.8616 158.056 51.8341 158.085 51.8191C158.187 51.7747 158.261 51.8276 158.324 51.9144C158.99 52.5504 159.473 53.2924 159.773 54.1397L159.96 54.5816C159.991 54.6555 160.022 54.7295 160.052 54.8034C160.291 55.4461 160.475 56.1055 160.627 56.7732C160.763 57.2986 160.861 57.8312 160.923 58.3695C161.38 59.9024 161.741 61.4706 162.081 63.0177C162.135 63.2612 162.109 63.4785 162.031 63.6636L162.23 63.8576L162.57 64.1964C163.142 64.7661 163.724 65.3651 164.149 66.043C164.588 66.7468 164.911 67.4992 165.271 68.2455L165.348 68.404L165.506 68.7219C165.677 69.0689 165.759 69.2607 165.911 69.6803C166.162 70.3801 166.297 71.0837 166.361 71.8257C166.454 72.9055 166.441 74.0827 165.968 75.0867C165.966 75.0951 165.961 75.1017 165.957 75.1078C165.742 76.0781 165.209 76.9782 164.4 77.5531C164.227 77.7161 164.041 77.8619 163.842 77.9779C163.366 78.2579 162.928 78.283 162.408 78.1534L162.342 78.1364C162.277 78.1195 162.218 78.1047 162.161 78.0921C162.245 78.1618 162.287 78.2444 162.161 78.3034C162.038 78.3626 161.928 78.3964 161.825 78.4091C161.869 78.4662 161.873 78.5274 161.78 78.5782C161.578 78.686 161.413 78.72 161.244 78.6902L161.279 78.984C161.556 81.2074 161.804 81.6472 162.021 84.0354C162.165 86.4806 162.393 88.9195 162.708 91.3482L162.816 92.2306C163.164 95.0275 163.555 97.845 164.153 100.597C164.455 101.799 164.715 103.01 164.935 104.23C165.245 105.158 165.463 106.107 165.583 107.075C165.759 108.059 165.879 109.053 165.949 110.055C166.192 110.695 166.31 111.346 166.304 112.01C166.335 112.901 166.306 113.791 166.211 114.677C166.158 115.598 166.031 116.511 165.83 117.416C165.651 118.657 165.323 119.855 164.854 121.018C164.478 122.315 164.018 123.588 163.494 124.832C162.68 126.76 161.698 128.55 160.58 130.315C159.532 131.969 158.409 133.563 157.124 135.045C155.463 136.959 153.571 138.714 151.496 140.193C150.313 141.068 149.064 141.854 147.759 142.527C146.161 143.351 144.539 144.093 142.809 144.593C141.729 144.906 140.63 145.122 139.519 145.287C137.337 145.61 135.076 145.561 132.881 145.183C131.466 144.993 130.073 144.663 128.757 144.192C127.675 143.803 126.644 143.357 125.613 142.854C125.083 142.598 124.572 142.302 124.082 141.971C123.258 141.436 122.487 140.832 121.768 140.164C121.534 139.963 121.306 139.758 121.082 139.542C120.974 139.447 121.033 139.305 121.158 139.272L121.196 139.267C121.147 139.223 121.097 139.179 121.048 139.132C121.037 139.124 121.029 139.113 121.021 139.103C120.997 139.081 120.972 139.06 120.951 139.039C120.868 138.967 120.951 138.807 121.023 138.769C121.05 138.754 121.086 138.752 121.126 138.756C121.118 138.747 121.111 138.741 121.103 138.735C121.094 138.728 121.092 138.712 121.094 138.695L121.063 138.669C120.955 138.574 121.01 138.435 121.137 138.399C121.199 138.38 121.301 138.39 121.407 138.413L121.447 138.422L121.375 138.354C121.249 138.244 121.289 138.122 121.445 138.084C121.562 138.091 121.677 138.107 121.791 138.135L121.876 138.158C121.918 138.168 121.959 138.181 122.001 138.194C121.929 138.128 121.857 138.065 121.787 137.999C121.718 137.938 121.792 137.763 121.855 137.727C121.942 137.678 122.111 137.746 122.189 137.803C122.381 137.824 122.635 137.908 122.728 137.989C122.983 138.234 123.247 138.468 123.516 138.697C123.678 138.747 123.832 138.815 123.951 138.917C124.255 139.208 124.572 139.483 124.895 139.749L125.141 139.919C125.182 139.947 125.223 139.974 125.265 140.001C125.73 140.273 126.194 140.544 126.657 140.817C128.354 141.391 130.05 141.967 131.744 142.539L131.968 142.607L133.614 142.81C134.696 142.924 135.78 142.918 136.861 142.793C137.673 142.803 138.478 142.723 139.27 142.558C140.616 142.33 141.936 141.994 143.221 141.525C144.699 140.986 146.109 140.276 147.484 139.511C147.978 139.234 148.464 138.94 148.942 138.629C149.096 138.519 149.25 138.407 149.404 138.293C150.421 137.53 151.392 136.716 152.328 135.856C152.768 135.453 153.19 135.032 153.598 134.597C153.657 134.533 153.714 134.472 153.771 134.408C154.162 133.982 154.54 133.54 154.902 133.083L155.246 132.695C156.636 130.964 157.872 129.102 158.983 127.185C160.086 125.284 160.994 123.285 161.717 121.216C161.949 120.478 162.152 119.73 162.321 118.974C162.634 118.065 162.839 117.133 162.934 116.182C162.966 115.996 162.991 115.81 163.016 115.624L163.031 115.33C163.033 115.282 163.035 115.233 163.035 115.184C163.078 114.888 163.113 114.592 163.141 114.296C163.158 113.999 163.168 113.7 163.171 113.402L163.147 111.574C163.141 111.517 163.135 111.458 163.13 111.399L163.084 110.995C162.982 110.162 162.904 109.328 162.803 108.495C162.803 108.491 162.803 108.484 162.801 108.478C162.763 108.167 162.723 107.854 162.676 107.542C162.653 107.356 162.623 107.17 162.596 106.984L162.543 106.658C162.445 106.092 162.326 105.531 162.182 104.975L162.118 104.737L161.751 102.888L161.337 101.068C161.068 99.8485 160.844 98.6205 160.667 97.382C160.346 95.4082 160.071 93.4319 159.832 91.4473C159.82 91.3522 159.807 91.255 159.797 91.1598C159.554 89.3192 159.378 87.4718 159.264 85.6182C159.11 83.7924 159.021 81.9619 158.998 80.1297C158.996 80.0471 159.051 79.9796 159.116 79.9414L159.11 79.5891C159.103 79.2774 159.097 79.6513 159.094 79.296L159.09 78.3188C159.091 78.2373 159.091 78.1806 159.093 78.1766C157.964 78.2547 157.205 78.1907 156.115 78.1333L155.93 78.1238C154.931 78.0775 153.938 77.9676 152.952 77.8025C152.947 77.8534 152.913 77.8892 152.856 77.8997C152.755 77.904 152.66 77.904 152.563 77.9063L152.599 78.0434C152.601 78.1134 152.569 78.1576 152.502 78.1766L152.22 78.1893C151.843 78.2051 151.466 78.2125 151.092 78.1618C150.756 78.1176 150.429 78.0392 150.104 77.9462C149.903 77.9124 149.698 77.8661 149.489 77.8067C148.952 77.6525 148.42 77.4453 147.881 77.2807C147.332 77.1642 146.774 77.1264 146.191 77.2657C145.574 77.4115 145.052 77.6757 144.406 77.5151C144.277 77.4836 144.152 77.435 144.028 77.384L143.912 77.376C143.893 77.3743 143.873 77.3721 143.852 77.3692C143.178 77.2722 142.578 76.8453 141.936 76.6168C141.712 76.5622 141.489 76.576 141.272 76.6667L141.218 76.691L141.004 76.8495C140.918 76.9508 140.833 77.0532 140.749 77.1559L140.624 77.3101C140.394 77.5954 140.149 77.8511 139.851 78.0371C139.492 78.3689 139.065 78.5634 138.556 78.576C138.266 78.5845 137.979 78.5232 137.7 78.4347C136.648 78.7601 135.522 78.8257 134.472 78.5086C134.056 78.445 133.648 78.3332 133.257 78.1576C133.073 78.0751 132.89 77.9779 132.712 77.8701C131.971 78.1832 131.269 78.5993 130.553 78.9588L130.392 79.0398C129.66 79.4045 128.85 79.7601 128.022 79.707C126.978 79.6391 125.954 79.4999 124.931 79.3242C124.923 79.3242 124.912 79.3221 124.904 79.32L124.763 79.2966L124.251 79.2068L123.839 79.13L123.628 79.2108C121.935 79.8517 120.079 80.3517 118.378 79.9033C117.636 79.8127 116.941 79.5631 116.313 79.1382C116.292 79.1234 116.271 79.1087 116.25 79.0917C116.151 79.041 116.058 78.9842 115.975 78.9229L115.958 78.909L115.942 78.8952L115.933 78.891C115.006 78.4642 114.473 77.5552 114.566 76.5367C114.509 76.2132 114.511 75.8961 114.575 75.5582C114.273 75.9152 113.964 76.2683 113.652 76.6189C112.508 77.9967 111.388 79.4019 110.351 80.8647L110.113 81.2033C109.542 82.0084 109.012 82.8413 108.522 83.6992C108.025 84.5467 107.516 85.386 106.99 86.2145C106.306 86.9706 105.645 87.745 105.008 88.5382L104.736 88.8794L103.819 90.0862C103.171 90.8557 102.632 91.6969 102.207 92.6097C101.859 93.2588 101.537 93.9203 101.248 94.5987C101.155 94.8035 101.066 95.0107 100.98 95.2178C100.682 96.0272 100.43 96.8517 100.234 97.7032C100.076 98.3195 99.9628 98.9444 99.8955 99.578L99.8748 99.7895C99.8494 100.039 99.8304 100.288 99.8198 100.537C99.8811 100.574 99.9318 100.609 99.9698 100.645L100.124 100.7L100.249 100.737C100.443 100.798 100.779 100.922 100.699 101.076L100.291 101.854C100.333 101.899 100.352 101.945 100.325 101.996C100.052 102.518 99.7776 103.04 99.5029 103.562C99.4945 103.581 99.4797 103.596 99.4649 103.606C99.6994 103.714 99.9276 103.832 100.145 103.961C100.57 104.215 100.882 104.509 101.172 104.851C101.476 105.033 101.763 105.232 102.034 105.46C102.368 105.811 102.659 106.196 102.906 106.612C103.135 107.005 103.321 107.415 103.464 107.844C103.528 108.07 103.557 108.305 103.555 108.543C103.299 110.349 101.235 109.112 101.195 108.953C100.912 107.863 100.587 107.174 99.8557 106.362L99.8367 106.35C99.4142 106.164 98.9959 105.98 98.5586 105.836C98.4931 105.849 98.4255 105.857 98.3579 105.868C98.4339 105.976 98.3959 106.081 98.2417 106.1C97.5762 106.231 96.9043 106.267 96.2283 106.21L95.2015 106.064C94.7756 106.228 94.3685 106.438 93.9849 106.688L93.8579 106.772L93.8346 106.789C92.8438 107.586 92.079 108.645 91.555 109.799C91.5086 109.902 91.464 110.005 91.4212 110.11L91.3586 110.268L91.3543 110.276C90.6698 112.967 91.2804 115.922 92.5311 118.363C93.2135 119.455 93.9255 120.527 94.6691 121.577L95.3917 122.522C95.8184 122.924 96.2367 123.336 96.6445 123.759C96.7079 123.822 96.7755 123.885 96.8431 123.947C97.0586 124.088 97.2783 124.213 97.5022 124.319C97.5888 124.348 97.6776 124.376 97.7663 124.399C98.1973 124.606 98.6494 124.716 99.1248 124.729C99.7526 124.77 100.362 124.697 100.951 124.51L101.068 124.471L101.155 124.439C101.476 124.234 101.774 123.978 102.057 123.678C102.121 123.613 102.239 123.613 102.374 123.649C102.448 123.573 102.522 123.492 102.592 123.406C102.64 123.353 102.716 123.351 102.775 123.391C102.976 123.368 103.519 123.676 103.378 123.839C103.354 123.877 103.325 123.911 103.299 123.947C103.394 123.995 103.49 124.05 103.574 124.107C104.018 124.231 104.673 124.673 104.62 124.807L104.613 124.817C104.511 125.012 104.377 125.175 104.213 125.304L104.157 125.346L104.032 125.432C104.208 125.543 104.356 125.669 104.282 125.758C104.248 125.823 104.212 125.887 104.17 125.944C104.529 126.388 104.886 126.836 105.241 127.284C105.596 128.053 106.035 128.772 106.559 129.438C106.997 130.16 107.523 130.809 108.137 131.388C108.188 131.439 108.241 131.488 108.292 131.536C108.745 131.871 109.218 132.185 109.712 132.486L109.925 132.614C110.037 132.682 110.225 132.766 110.136 132.929C110.125 132.95 110.113 132.967 110.098 132.98C110.409 133.183 110.73 133.375 111.061 133.553L111.093 133.572C111.218 133.652 111.388 133.797 111.209 133.916C111.057 134.017 110.654 133.743 110.463 133.616C110.428 133.616 110.385 133.606 110.343 133.593C110.406 133.627 110.469 133.663 110.532 133.699L110.628 133.751C110.702 133.796 111.066 134.036 110.812 134.138C110.687 134.148 110.573 134.117 110.468 134.045C110.343 133.984 110.221 133.918 110.1 133.85C110.142 133.916 110.142 133.982 110.037 134.024C110.001 134.026 109.965 134.024 109.929 134.02C110.178 134.178 110.434 134.326 110.698 134.466L110.741 134.492C110.852 134.565 111.03 134.702 110.901 134.821C110.755 134.952 110.354 134.673 110.25 134.609L109.942 134.425C109.918 134.436 109.893 134.44 109.866 134.442C109.959 134.5 110.045 134.561 110.14 134.616L110.27 134.686C110.432 134.776 110.661 134.923 110.578 135.07C110.495 135.216 110.248 135.096 110.089 135.001L109.918 134.895C109.91 134.891 109.903 134.886 109.895 134.882L109.889 134.907C109.887 134.911 109.885 134.916 109.882 134.92C109.803 135.058 109.604 134.967 109.467 134.888L109.356 134.821C109.169 134.708 108.984 134.596 108.799 134.483L108.524 134.314H108.52C107.567 133.741 106.686 133.17 105.856 132.435C105.359 131.995 104.897 131.53 104.457 131.033C103.574 130.038 102.917 128.899 102.283 127.736C102.273 127.717 102.287 127.668 102.313 127.616C102.243 127.472 102.175 127.326 102.108 127.176C101.457 127.358 100.73 127.411 100.061 127.366C99.7015 127.343 99.3466 127.28 98.9938 127.185C97.8677 127.028 96.7818 126.515 95.8438 125.899C95.7846 125.861 95.7318 125.819 95.6769 125.781C95.2902 125.563 94.9226 125.31 94.574 125.02C93.8938 124.458 93.2452 123.832 92.6557 123.179C92.229 122.672 91.8255 122.146 91.4473 121.601C91.0628 121.062 90.674 120.523 90.2853 119.984C89.2057 118.293 88.5149 116.346 88.2466 114.358C88.1156 113.624 88.048 112.882 88.0628 112.143C88.0733 111.608 88.1325 111.067 88.236 110.528C88.1748 110.469 88.1135 110.41 88.0522 110.349C88.0184 110.408 87.9846 110.45 87.9635 110.429L87.4793 109.944C87.1358 109.597 86.9053 109.342 86.51 108.782C85.8804 107.888 85.4114 106.905 85.0628 105.87C84.8114 105.13 84.6445 104.289 84.579 103.475C84.5579 103.34 84.5367 103.203 84.5198 103.063C84.3846 101.962 84.5093 100.907 84.6762 99.821C84.6867 99.7493 84.7226 99.7049 84.7712 99.6815C84.7835 99.5955 84.7981 99.5071 84.8124 99.419C83.413 97.937 82.4059 96.1509 82.4881 93.9938C82.5138 93.3141 82.6533 92.6442 82.9195 92.0186L82.9518 91.948C81.7837 91.7683 80.8571 90.9474 80.161 89.93C80.0993 89.8812 80.0395 89.8319 79.982 89.7829C78.7372 88.7194 77.8742 87.2135 77.2833 85.6229C76.8601 84.6993 76.5798 83.7123 76.4608 82.6885C76.4524 82.6154 76.4473 82.5429 76.4407 82.4702C76.1517 80.8515 76.0782 79.2164 76.2117 77.6057C75.9217 76.6088 75.6857 75.5943 75.5241 74.5562C75.448 74.0618 75.3952 73.5671 75.355 73.0725L75.3508 73.0452L75.3445 72.9562L75.3266 72.7344C75.3238 72.6977 75.3212 72.6611 75.3191 72.6244C74.9621 68.0973 75.9741 63.642 77.6473 59.4489C77.7931 59.0718 77.9436 58.6956 78.0989 58.3225L78.2636 57.9326C79.9431 55.2231 82.4652 53.0316 84.6014 50.7171C85.3385 49.9186 84.1463 48.7199 83.4064 49.5215C81.9871 51.0593 80.4645 52.5322 79.0898 54.1129C78.8471 54.1306 78.6039 54.1372 78.3614 54.1251C77.9388 54.1038 77.529 54.0364 77.1318 53.9284C76.141 53.7826 75.2388 53.3831 74.4191 52.7955C73.3226 52.2843 72.3867 51.3203 72.2938 50.0628C72.2832 49.936 72.2853 49.8113 72.2938 49.6868C72.1924 49.0716 72.2832 48.4271 72.541 47.833C72.5853 47.6703 72.6424 47.5097 72.7142 47.3512C72.9233 46.8799 73.2677 46.4278 73.6881 46.1211C73.6987 46.1148 73.7071 46.1107 73.7156 46.1042C73.76 46.0579 73.8022 46.0112 73.8508 45.9691C73.9226 45.9034 73.9987 45.8423 74.079 45.7853C73.7938 45.3159 73.536 44.8342 73.3163 44.3204C73.0776 43.7624 72.955 43.1962 72.8874 42.5979C72.86 42.3612 72.8494 42.1266 72.8452 41.8922C72.8325 41.7842 72.8241 41.6743 72.8156 41.5644C72.7628 40.7274 72.86 39.859 73.1726 39.0768C73.1959 39.0178 73.2255 38.9584 73.2529 38.8972C73.3121 38.7196 73.3776 38.5423 73.4579 38.3688C73.7705 37.703 74.2142 37.1387 74.7614 36.6759C75.0571 36.3779 75.3888 36.1137 75.7501 35.8896C75.9635 35.7565 76.2064 35.6381 76.4621 35.5409C76.9184 35.3 77.5036 35.0802 77.979 35.0635C78.036 35.0611 78.0867 35.0677 78.1417 35.0677C78.186 33.8543 78.3424 32.5334 78.8219 31.4344C79.1008 30.6378 79.5191 29.9298 80.1487 29.4202C80.5138 29.039 80.9638 28.7293 81.5252 28.527L81.6255 28.4924L81.6635 28.4818C82.1684 28.2366 82.7135 28.1394 83.2733 28.1417C83.9262 28.1077 84.5917 28.2305 85.16 28.5304C85.2783 28.5938 85.405 28.672 85.5255 28.7566C85.6163 28.5748 85.7177 28.3909 85.8339 28.2073C86.2417 27.554 86.7339 26.9854 87.3043 26.4676C87.3719 26.4064 87.4459 26.3514 87.5177 26.2924C87.7945 26.0409 88.0881 25.8084 88.3924 25.5971C89.0494 25.1404 89.7698 24.8003 90.5262 24.5803C91.3994 24.2575 92.3207 24.1076 93.2424 24.1392L93.4332 24.1472C93.4755 24.1512 93.5177 24.1534 93.5579 24.1555C94.4726 24.2149 95.3748 24.4389 96.2367 24.7768C97.1304 25.13 97.8867 25.6645 98.5902 26.2774C98.755 26.0494 98.9431 25.8336 99.1733 25.6307C99.2388 25.5738 99.3086 25.5229 99.374 25.4701C99.4248 25.4193 99.4776 25.3707 99.5325 25.3221C99.7839 25.1002 100.05 24.9079 100.342 24.7367C100.669 24.5446 101.022 24.4114 101.387 24.329C101.759 24.202 102.15 24.1238 102.547 24.0984ZM98.206 111.228C98.2434 111.226 100.2 111.96 101.175 112.434L101.223 112.458C102.347 113.016 102.888 113.417 103.898 114.134C103.965 114.182 104.035 114.256 104.035 114.328C104.035 115.372 103.781 116.648 102.905 116.082C102.778 116.001 102.65 115.921 102.522 115.842L102.328 115.725L102.322 115.727C102.324 115.727 102.326 115.725 102.328 115.723C100.418 114.558 98.4004 113.645 96.2708 112.992C96.1251 112.94 97.2046 111.308 97.5025 111.399C97.3314 111.331 98.1776 111.229 98.206 111.228ZM118.272 65.1352C117.002 65.2711 115.732 65.4049 114.462 65.5358C113.653 65.6287 112.842 65.7112 112.031 65.7809C110.812 65.872 109.593 65.8866 108.378 65.7196C107.947 65.6607 107.524 65.5759 107.106 65.4724C106.821 65.6816 106.525 65.8781 106.223 66.0665L102.868 68.6342C100.618 70.4034 98.4167 72.2778 96.435 74.3469C92.974 77.9619 90.155 82.191 88.3827 86.8756C88.2219 86.9705 88.0977 87.136 88.0563 87.3898C87.7432 89.3099 86.8276 91.0612 86.4967 92.9735C86.171 94.857 86.6043 96.4582 87.7869 97.9512C88.0394 98.2701 88.5566 98.2532 88.8739 98.0378C88.9476 98.1828 89.2671 98.1767 89.3793 97.5363C89.9051 96.9667 90.3549 96.3697 90.6595 95.6303C90.8839 95.0859 90.5068 94.7084 90.0492 94.6343C90.2393 93.9495 90.4538 93.2708 90.6948 92.5994C91.4089 90.604 92.3174 88.6978 93.4603 86.9098C94.466 85.3372 95.63 83.9676 96.8807 82.5938C96.8955 82.5748 96.9209 82.5687 96.9483 82.5645L97.2082 82.2768C97.2441 82.2367 97.3181 82.2409 97.4005 82.262C97.4786 82.1796 97.5547 82.0951 97.635 82.0126C97.7131 81.9281 97.7998 81.9534 97.8483 82.0211C97.9814 81.9915 98.2244 82.1352 98.2983 82.1819C98.4251 82.2662 98.4653 82.3614 98.3575 82.4818C98.3385 82.5032 98.3195 82.5243 98.3005 82.5431C98.4462 82.6046 98.5899 82.6868 98.7019 82.7674C99.0927 82.8538 99.642 83.2173 99.5469 83.3253C99.3462 83.5343 99.1519 83.748 98.9596 83.9655C99.1286 84.0841 99.2385 84.2001 99.1941 84.251C98.3702 85.1195 97.6096 86.0391 96.9124 87.0132C96.3822 87.7402 95.9026 88.4968 95.4737 89.2852C94.8357 90.4011 94.2948 91.5487 93.8153 92.7281C93.7476 92.9079 93.6822 93.0874 93.6188 93.267C92.9174 95.2305 92.3934 97.2679 92.1716 99.3433L92.1623 99.4833C92.121 100.231 92.1048 102.233 92.0279 102.71C92.4948 102.941 92.9807 103.137 93.4857 103.298C93.5807 103.325 93.6779 103.351 93.7751 103.374C93.83 103.351 93.8871 103.332 93.9441 103.315C94.4089 103.127 94.8948 102.991 95.3913 102.926C95.7259 102.882 96.0589 102.866 96.3917 102.876L96.5343 102.881C96.6822 102.886 96.8279 102.896 96.9758 102.911C96.9674 102.826 96.9631 102.744 96.9568 102.659C96.9145 102.632 96.8829 102.594 96.8807 102.543C96.7814 101.592 96.7793 100.641 96.8744 99.69C96.9378 99.1933 97.0117 98.6987 97.092 98.2044C97.1744 97.7984 97.2695 97.3991 97.373 96.9995C97.6476 95.8795 98.0131 94.7866 98.4568 93.7174C99.7202 90.6674 101.531 87.9178 103.352 85.1829C104.681 83.1858 105.938 81.144 107.313 79.1805C108.484 77.5088 109.713 75.8623 111.025 74.2983C112.335 72.7367 113.719 71.2338 115.212 69.8433C115.453 69.6212 115.696 69.4056 115.943 69.1923C117.359 67.9242 118.897 66.8821 120.498 65.8593C120.56 65.8192 120.669 65.8636 120.76 65.9394L121.019 65.7805C121.062 65.7542 121.105 65.7281 121.149 65.7027C121.189 65.6776 121.234 65.7196 121.257 65.7556C121.367 65.6985 121.477 65.6438 121.586 65.5886C121.666 65.5239 121.749 65.4626 121.83 65.3988C120.642 65.339 119.456 65.2502 118.272 65.1352ZM133.166 51.0456C132.207 50.8535 131.243 50.8258 130.276 50.9695C129.87 51.0289 129.467 51.1003 129.067 51.1868C129.975 51.9793 130.706 52.9936 131.18 54.1609C131.693 55.4226 129.649 55.9664 129.143 54.7229C128.656 53.5232 127.733 52.603 126.619 52.0514C126.378 52.186 126.144 52.3319 125.922 52.4933C125.63 52.73 125.355 52.9858 125.098 53.2669C124.536 53.8779 124.02 54.6935 123.682 55.5008C123.551 55.9404 123.454 56.3927 123.393 56.8577C123.38 56.9634 123.367 57.0712 123.357 57.179C123.148 59.3662 123.774 61.4943 124.849 63.3774L124.891 63.3781C125.851 62.8573 126.856 62.4185 127.891 62.0611C128.719 61.5034 129.579 60.9875 130.464 60.5204C132.346 59.5272 134.333 58.7616 136.381 58.238L136.618 58.1786C137.1 58.0554 137.587 57.9467 138.076 57.8517L138.369 57.7963H138.374L138.342 57.4812C138.177 56.2448 137.693 55.0972 137.068 54.0364C136.599 53.2354 135.891 52.4153 135.105 51.7601L135.101 51.7578C134.744 51.5549 134.369 51.3871 133.983 51.2484L133.838 51.1977L133.166 51.0456ZM107.413 49.1669C105.419 48.9786 103.424 48.9976 101.43 49.1603C100.126 49.2895 98.8312 49.4689 97.5425 49.6972C96.6699 49.8472 95.8143 50.0586 94.9735 50.3209L95.4544 51.2938C96.2582 52.9143 97.0816 54.524 98.0516 56.0546C98.5523 56.8429 99.0953 57.5934 99.6868 58.3139C100.086 58.8296 100.526 59.3075 101.007 59.7469C101.134 59.9014 101.269 60.0472 101.407 60.1886C101.846 60.5648 102.319 60.8945 102.837 61.1671C103.252 61.4696 103.685 61.7338 104.137 61.9655L104.307 62.0508L105.892 62.6593C105.976 62.6832 106.062 62.7072 106.147 62.7299L106.276 62.763L106.517 62.8136L106.698 62.7154C106.728 62.6992 106.759 62.6832 106.79 62.6677C106.84 62.6405 106.876 62.6933 106.887 62.7311C106.891 62.7461 106.885 62.7671 106.874 62.7882L107.105 62.6633C107.502 62.8245 107.923 62.9535 108.375 63.0384C108.58 63.0767 108.785 63.1061 108.99 63.1312L109.017 63.1496C109.022 63.1528 109.026 63.1563 109.031 63.1604H109.256C110.835 63.3128 112.437 63.1113 114.014 62.8279C116.245 62.6035 118.476 62.356 120.706 62.1246C120.748 62.1205 120.765 62.1393 120.765 62.1691L120.902 62.1565C121.101 62.1351 121.333 62.4669 121.183 62.5876C121.304 62.6593 121.42 62.763 121.507 62.8434L121.557 62.8389C121.251 62.2387 121.014 61.611 120.845 60.9581L120.63 59.8631C120.571 59.4552 120.537 59.02 120.531 58.5908C120.516 58.3942 120.505 58.2106 120.505 58.0497C120.505 57.8975 120.507 57.7454 120.514 57.5934C120.093 57.4199 119.666 57.2679 119.231 57.1388C117.995 56.9868 116.761 56.8345 115.526 56.6844C114.784 56.7119 114.042 56.7647 113.303 56.8471C112.464 56.9211 111.628 57.0162 110.793 57.1303C110.715 57.1388 110.576 57.0331 110.491 56.9105L110.134 56.9594C109.948 56.9826 109.754 56.6104 109.999 56.5343C110.088 56.4991 110.176 56.4658 110.265 56.4337L110.398 56.3864L110.322 56.3948C110.297 56.3972 110.265 56.3906 110.229 56.3782C110.033 56.4033 109.836 56.4287 109.642 56.4519C109.395 56.4827 109.451 56.1576 109.624 56.081L109.707 56.0503C109.561 55.9592 109.433 55.71 109.613 55.6285L109.638 55.6192C109.722 55.5856 109.804 55.5579 109.889 55.5262C109.883 55.4989 109.883 55.4734 109.891 55.4503L109.542 55.4945C109.511 55.4987 109.662 55.2761 109.735 55.2321L109.747 55.2261L109.914 55.1754C109.94 55.1035 110.075 54.945 110.121 54.9304C110.734 54.7379 111.304 54.5648 111.9 54.4314C111.93 54.3955 111.964 54.368 112.002 54.3595C112.373 54.2708 112.75 54.201 113.126 54.1421C113.151 54.1038 113.176 54.0765 113.206 54.0742C114.138 53.9559 115.071 53.9284 116.009 53.992C116.189 54.0087 116.369 54.0279 116.548 54.051C116.892 54.0892 117.237 54.1378 117.579 54.2034C118.436 54.3505 119.274 54.5743 120.089 54.8761L120.277 54.9471C120.482 55.0234 120.685 55.1035 120.885 55.1904C120.987 54.829 121.114 54.4737 121.264 54.1252C121.287 54.0573 121.312 53.992 121.34 53.9265L121.135 53.8037C121.09 53.8882 121 53.9538 120.94 53.918C119.472 52.9268 117.919 52.1002 116.282 51.4408C115.365 51.035 114.427 50.6907 113.466 50.4031C112.986 50.249 112.502 50.1095 112.016 49.9764C111.773 49.9254 111.531 49.8747 111.283 49.8324C110.014 49.49 108.723 49.2683 107.413 49.1669ZM155.796 52.5216C155.617 52.8298 155.432 53.135 155.235 53.4359C154.28 54.8983 153.135 56.2706 151.837 57.467C152.175 57.4662 152.513 57.4791 152.847 57.5103C153.422 57.5647 153.985 57.6602 154.535 57.794C154.579 57.7583 154.629 57.7403 154.669 57.7686L154.812 57.8677C155.99 58.1858 157.097 58.6859 158.099 59.3558L158.081 59.2235C158.078 59.2015 158.074 59.1794 158.07 59.1574C158.087 58.8974 158.092 58.6373 158.083 58.3794C157.876 56.8556 157.358 55.4522 156.767 54.0321C156.756 54.0047 156.764 53.969 156.781 53.9326C156.482 53.4448 156.155 52.9731 155.796 52.5216ZM156.068 40.5415C155.626 40.6218 155.189 40.7253 154.754 40.8543C153.936 40.977 153.144 41.1926 152.379 41.4989C151.325 41.873 150.302 42.3083 149.284 42.7693C147.307 43.6652 145.452 44.7983 143.764 46.1636C143.656 46.2458 143.552 46.3305 143.449 46.4151C143.071 46.7425 142.703 47.0849 142.355 47.4463C141.989 47.8436 141.621 48.2412 141.256 48.6404C140.808 49.1098 140.293 49.5344 139.887 50.0416C139.805 50.1452 139.733 50.2593 139.667 50.3737L139.906 50.4559C140.107 50.5235 140.073 50.8997 139.874 50.8448C139.807 50.8258 139.743 50.8025 139.68 50.7774C139.707 50.8133 139.726 50.8492 139.731 50.8807C139.743 50.9822 139.665 51.1219 139.54 51.0859C139.483 51.0709 139.426 51.0498 139.369 51.0265C139.352 51.0921 139.34 51.1576 139.34 51.221C139.35 51.2252 139.361 51.2294 139.374 51.2318C139.513 51.2804 139.775 51.4979 139.813 51.646C139.843 51.7601 139.745 51.8825 139.621 51.8487C139.528 51.8233 139.437 51.7853 139.348 51.743C139.407 51.8003 139.454 51.8616 139.458 51.9144C139.467 52.0116 139.382 52.1488 139.266 52.1173C139.05 52.0579 138.877 51.9673 138.733 51.8531C138.695 51.9036 138.64 51.9438 138.596 51.9313L138.514 51.906C138.536 51.927 138.557 51.9491 138.577 51.9708L138.607 52.003C139.19 52.6328 139.699 53.3303 140.107 54.0808C140.126 54.0594 140.149 54.0404 140.179 54.0171C140.369 53.8565 140.565 53.7001 140.762 53.5482L140.821 53.4962L140.882 53.4444L140.44 53.5902L140.45 53.5788C140.481 53.5388 140.579 53.4056 140.624 53.3612L140.635 53.3514C141.241 52.8084 141.902 52.3475 142.617 51.9715C143.079 51.6712 143.565 51.4175 144.074 51.2083C145.289 50.644 146.527 50.2152 147.799 49.8178C147.989 49.7565 148.179 49.691 148.369 49.6316C148.424 49.6126 148.435 49.6359 148.426 49.6739L148.526 49.6443C148.703 49.5872 149.005 49.9 148.885 50.0459C148.958 50.1051 149.029 50.171 149.091 50.2329L149.136 50.2784L149.187 50.2636C149.338 50.217 149.593 50.4524 149.754 50.6191L149.874 50.7454C149.964 50.8427 150.142 51.0434 149.924 51.1219L149.652 51.2146C149.66 51.2696 149.637 51.3161 149.552 51.3478C149.457 51.3795 149.364 51.4133 149.271 51.4473C149.328 51.4965 149.383 51.5477 149.438 51.5995L149.519 51.6775C149.614 51.7752 149.841 51.9905 149.641 52.0855L149.616 52.096L149.356 52.189C149.39 52.2651 149.381 52.3371 149.267 52.3792C147.75 52.8949 146.269 53.4995 144.822 54.1864C143.738 54.7865 142.593 55.2347 141.387 55.5283C141.288 55.5602 141.072 55.4102 140.983 55.2601L140.803 55.3131C140.773 55.3219 140.743 55.3303 140.713 55.3381L140.683 55.3446C140.909 55.947 141.076 56.5998 141.169 57.2318C141.18 57.2888 141.188 57.3482 141.195 57.4053C141.431 57.3861 141.666 57.3692 141.902 57.3567C143.54 57.2698 145.196 57.3227 146.838 57.5171C147.501 57.1219 148.139 56.6886 148.75 56.2196C148.936 56.0757 149.119 55.9277 149.301 55.7777C150.391 54.8308 151.378 53.768 152.252 52.6201C153.062 51.557 153.765 50.4157 154.357 49.2197C154.881 48.0972 155.314 46.9306 155.641 45.7259C155.941 44.6247 156.045 43.5532 156.121 42.414C156.146 42.228 156.163 42.0423 156.178 41.8561L156.176 41.7764L156.174 41.7377C156.152 41.3385 156.112 40.9388 156.068 40.5415ZM140.588 54.6956C140.54 54.7125 140.489 54.7294 140.438 54.7442C140.468 54.8097 140.495 54.8734 140.523 54.9387L140.526 54.9374L140.725 54.7801C140.683 54.7611 140.635 54.7318 140.588 54.6956ZM155.772 37.5446C156.152 37.403 156.439 37.3755 156.634 37.4642C156.346 37.4854 156.059 37.5129 155.772 37.5446Z" fill="black"/>
<path fill-rule="evenodd" clip-rule="evenodd" d="M143.152 128.274C141.732 127.695 140.465 126.728 139.538 125.493C139.216 125.063 139.133 124.61 139.2 124.195C139.276 123.729 139.552 123.306 139.928 123.023C140.305 122.739 140.777 122.598 141.233 122.67C141.63 122.732 142.024 122.949 142.337 123.399L142.402 123.489C142.953 124.235 143.67 124.846 144.488 125.241C145.276 125.621 146.158 125.798 147.07 125.695C148.808 125.499 150.005 124.559 151.278 123.282C151.436 123.121 151.594 122.955 151.752 122.786C151.852 122.633 151.991 122.534 152.146 122.483C152.317 122.425 152.511 122.429 152.689 122.491C152.86 122.55 153.013 122.664 153.116 122.815C153.213 122.958 153.269 123.135 153.251 123.339C153.134 124.661 152.443 125.842 151.461 126.769C150.37 127.799 148.924 128.511 147.563 128.761C146.064 129.036 144.536 128.839 143.152 128.274ZM148.271 107.866C149.866 108.836 152.297 111.098 150.581 113.503C148.56 115.624 145.652 113.193 144.219 112.093C142.889 111.241 141.396 113.433 142.629 114.428C152.986 122.099 157.19 108.12 149.078 106.726C148.184 106.572 147.853 107.566 148.271 107.866ZM129.711 98.9429C129.887 96.7541 133.219 96.257 133.551 98.423C133.847 100.363 133.498 102.145 132.624 103.892C131.79 105.561 129.692 104.783 129.533 103.263C129.32 101.226 129.601 100.304 129.711 98.9429ZM155.076 97.9738C155.541 97.3652 156.212 96.9496 157.015 97.1845C159.526 97.9185 158.786 101.485 157.904 103.22C157.425 104.163 155.876 104.402 155.176 103.572C154.035 102.219 153.489 99.5156 154.939 98.1825C154.979 98.1136 155.023 98.044 155.076 97.9738ZM132.589 89.3654L132.986 89.2959C134.213 89.0836 135.738 88.8796 136.606 89.8665C137.067 90.3898 137.225 91.3624 136.606 91.8633C135.518 92.7446 134.314 92.4031 133.01 92.4777C131.935 92.5394 130.902 92.7174 129.867 93.0135C127.595 93.663 125.744 94.8486 123.804 96.1506C123.55 96.3213 123.29 95.9956 123.411 95.7574C124.531 93.563 126.701 91.7604 128.875 90.6616C130.036 90.0751 131.305 89.5885 132.589 89.3654ZM152.787 88.3823L153.091 88.4445C156.394 89.1353 160.687 90.5153 162.251 93.7615C162.311 94.2205 162.248 94.3189 162.196 94.3832L162.179 94.4046C162.137 94.4595 162.104 94.5351 161.905 94.5976C161.849 94.5844 161.794 94.5705 161.737 94.5557C161.02 94.3677 160.453 94.1087 159.904 93.84L159.308 93.5465C158.617 93.2076 157.92 92.881 157.181 92.6399C155.605 92.1254 153.983 91.7631 152.337 91.5696C151.98 91.5277 151.636 91.4072 151.365 91.2006C151.107 91.0046 150.911 90.7332 150.821 90.3724C150.705 89.9056 150.738 89.5521 150.989 89.1309C151.177 88.8146 151.447 88.5953 151.756 88.4694C152.071 88.3411 152.43 88.3108 152.787 88.3823Z" fill="black"/>
<path fill-rule="evenodd" clip-rule="evenodd" d="M157 133.092C156.263 132.851 155.538 132.57 154.811 132.299C151.091 130.43 146.597 130.091 142.695 131.665C140.78 132.438 138.995 133.826 137.073 134.736C136.617 134.907 136.157 135.061 135.691 135.191C135.406 135.092 135.121 134.986 134.838 134.88C132.8 134.112 130.883 133.164 129.022 132.121C128.823 131.842 128.617 131.57 128.396 131.309C129.742 131.117 131.061 130.8 132.254 130.472C135.918 129.468 139.37 127.832 143.02 126.784C146.42 125.805 150.108 125.27 153.522 126.486C155.143 127.063 156.569 128.073 158.145 128.753C158.96 129.104 159.939 129.449 160.891 129.499C160.277 130.973 159.499 132.348 158.437 133.494C157.951 133.39 157.469 133.245 157 133.092ZM164.927 121.554C164.6 121.825 163.254 122.7 162.818 123.222C162.705 123.179 162.593 123.135 162.481 123.09C162.289 122.854 162.006 122.751 161.718 122.757C159.705 121.82 157.912 120.497 156.313 118.837C155.176 117.66 154.012 116.427 152.493 115.745C150.704 114.937 148.944 115.309 147.064 115.432C145.063 115.565 143.088 114.997 141.089 115.269C139.627 115.47 138.258 116.089 137.075 116.962C134.66 118.744 132.995 121.246 130.955 123.404C128.639 125.851 125.791 127.415 122.624 128.214C122.586 128.189 122.546 128.164 122.506 128.14C120.172 126.027 118.063 123.641 116.198 121.098C114.376 118.615 109.574 107.437 108.414 106.456C107.933 106.048 107.405 105.873 106.9 105.887C105.985 105.908 105.14 106.545 104.762 107.546C104.119 109.25 104.441 111.452 104.491 113.234C104.555 115.415 104.698 117.594 104.926 119.765C105.153 121.91 105.453 124.049 105.826 126.173C106.014 127.246 106.224 128.318 106.454 129.385C106.526 129.721 106.617 130.021 106.726 130.3C106.838 130.827 106.959 131.351 107.088 131.871C107.929 135.276 109.255 138.685 111.788 141.198C114.425 143.816 118.008 145.556 121.336 147.111C124.505 148.593 127.826 149.909 131.234 150.941C134.193 152.283 137.362 153.344 140.544 153.902C144.047 154.517 147.729 154.555 151.112 153.338C152.774 152.739 154.346 151.905 155.772 150.865C157.794 149.814 159.613 148.371 161.102 146.46C163.77 143.036 165.044 138.881 165.601 134.596C165.743 133.499 166.279 129.296 166.322 128.642C166.458 126.528 166.594 124.415 166.73 122.302C166.794 121.304 165.571 121.02 164.927 121.554Z" fill="black"/>
</svg>
