<svg width="240" height="324" viewBox="0 0 240 324" fill="none" xmlns="http://www.w3.org/2000/svg">
<path fill-rule="evenodd" clip-rule="evenodd" d="M41.1971 209.194L192.565 221.215L192.723 222.244C195.259 238.77 196.541 249.981 196.566 255.878L196.567 256.059C196.567 261.906 198.361 271.206 201.95 283.958L202.172 284.743L40.9859 285.024L39.0845 246.64L41.1971 209.194ZM130.81 126.829C136.965 127.133 143.168 129.773 143.647 131.46C144.714 135.217 146.43 151.3 152.073 153.771C157.716 156.242 169.763 153.989 173.207 159.89C176.651 165.791 187.963 189.845 187.963 195.45C187.963 199.187 151.1 200.484 77.3753 199.341C78.3165 169.245 82.2403 153.424 89.1467 151.879L89.7633 151.743C99.7511 149.56 105.72 149.49 109.127 145.971C112.604 142.381 113.235 136.218 114.677 131.46C115.472 128.838 123.258 126.457 130.81 126.829Z" fill="white"/>
<path fill-rule="evenodd" clip-rule="evenodd" d="M144.308 136.236C144.331 136.218 144.354 136.212 144.38 136.225C144.859 136.455 144.958 136.916 145.123 137.396C145.364 138.098 145.643 138.782 145.901 139.478C146.414 140.873 146.904 142.265 147.477 143.637C148.064 145.049 148.672 146.435 149.37 147.799C149.706 148.458 150.067 149.105 150.434 149.747C150.688 150.193 150.925 150.806 151.258 151.225C151.284 151.091 151.32 150.965 151.362 150.846C151.318 150.867 151.275 150.891 151.235 150.916C151.151 150.969 151.049 150.863 151.1 150.781C151.282 150.481 151.518 150.278 151.789 150.14C152.537 149.31 169.022 153.274 173.528 157.726C181.69 165.789 187.199 175.758 190.822 186.364C192.823 192.216 194.665 198.125 196.569 204.009C198.58 210.231 200.68 216.426 202.696 222.644C203.137 224.012 202.174 225.254 200.957 225.704C198.69 226.541 196.406 227.33 194.103 228.059C195.221 232.351 196.003 236.735 196.565 241.131C197.725 250.196 197.87 259.444 199.698 268.414C200.118 270.473 200.649 272.502 201.209 274.526L201.339 274.993C201.673 276.181 201.978 277.38 202.387 278.542C202.74 279.542 203.196 280.55 203.444 281.581C203.733 282.794 203.306 284.12 202.172 284.743C201.261 285.244 199.958 285.037 199.408 284.096C199.296 283.904 199.229 283.695 199.201 283.483C199.119 283.308 199.043 283.128 198.975 282.944C198.949 282.874 198.926 282.8 198.903 282.726L198.838 282.507C198.677 281.983 198.529 281.454 198.382 280.926C198.141 280.078 197.898 279.233 197.63 278.393L197.494 277.973C196.831 275.953 196.237 273.916 195.72 271.853C193.867 264.456 193.474 256.798 192.966 249.218L192.939 248.826C192.479 242.033 192.204 235.255 192.768 228.477L192.691 228.502L192.614 228.526C191.881 228.75 191.146 228.97 190.408 229.183C190.385 229.192 190.364 229.2 190.341 229.206C189.869 229.353 189.384 229.492 188.891 229.621L188.594 229.697L188.384 229.754L188.164 229.817C187.466 230.019 186.753 230.252 186.029 230.229C184.829 230.422 183.608 230.538 182.408 230.542C182.777 236.589 183.204 242.631 183.713 248.668C184.225 254.735 184.903 260.78 185.606 266.825C185.953 269.811 186.325 272.791 186.734 275.767C186.941 277.276 187.157 278.777 187.432 280.273C187.715 281.803 188.215 283.439 187.913 284.986C187.907 284.984 187.901 284.982 187.894 284.982C187.793 285.43 187.522 285.831 187.051 286.108C186.187 286.613 184.979 286.318 184.482 285.434C184.44 285.36 184.4 285.284 184.362 285.206C183.853 285.424 183.295 285.508 182.61 285.514L173.327 285.607C169.108 285.65 164.889 285.694 160.668 285.755C147.416 285.951 134.163 286.176 120.91 286.337L115.941 286.394C108.487 286.472 101.029 286.626 93.576 286.624C89.8473 286.624 86.1225 286.611 82.3936 286.52C80.5872 286.476 78.7851 286.406 76.9809 286.332L76.6624 286.318C75.222 286.247 73.6928 286.113 72.2844 286.436C71.8957 287.193 70.9027 287.349 70.383 286.575C69.1954 284.805 68.8713 282.336 68.6519 280.173L68.5746 279.394C68.3316 276.97 68.1182 274.545 67.9598 272.117C67.3978 263.513 67.1929 254.9 67.4506 246.279C67.5816 241.885 67.9851 237.517 68.4626 233.148C68.6126 231.785 68.7689 230.424 68.938 229.065L68.9409 228.582C68.9411 228.427 68.9401 228.28 68.9358 228.141L68.8937 226.83C68.8587 225.737 68.8262 224.643 68.8127 223.55L68.807 222.893L68.8006 221.672C67.757 221.573 66.6436 221.226 65.7436 221.059C64.2839 220.786 62.8281 220.493 61.3767 220.182C58.4696 219.556 55.5943 218.817 52.738 217.999L52.1305 217.824C49.4948 217.064 46.8229 216.254 44.3295 215.118C43.3534 214.672 42.3795 214.169 41.5239 213.51C41.4732 214.203 41.395 214.894 41.3485 215.581C41.2558 216.94 41.1457 218.294 41.0549 219.653L40.968 220.946C40.8253 223.101 40.6968 225.253 40.6387 227.414C40.3809 236.84 40.3365 246.307 40.8351 255.727C41.0823 260.442 41.4351 265.157 41.9443 269.853C42.1936 272.163 42.4577 274.48 42.783 276.781C43.1189 279.146 43.7253 281.497 43.9112 283.879C44.0887 286.176 40.5774 286.51 40.0006 284.409C39.31 281.89 39.1341 279.173 38.7701 276.583L38.7288 276.295C38.3253 273.544 38.002 270.781 37.7232 268.015C36.7604 258.472 36.5105 248.881 37.0154 239.303C37.2555 234.715 37.8247 230.146 38.5136 225.607L38.5936 225.083C38.9072 223.05 39.2008 221.018 39.5559 218.994L39.6922 218.235C40.0112 216.496 40.2563 214.604 40.7739 212.865L40.62 212.723C40.3324 212.455 40.0206 212.145 39.7936 211.81C39.0119 211.705 38.3464 211.142 38.4288 210.122C38.6971 206.767 39.9225 203.356 41.0147 200.19C42.1112 197.007 43.383 193.884 44.8239 190.84C49.8922 180.144 57.1915 170.432 66.1175 162.652C70.852 158.525 76.0408 154.864 81.7746 152.258C84.6013 150.971 87.5253 149.975 90.5887 149.439C92.1056 149.172 93.6373 148.965 95.1795 148.921C96.4307 148.182 97.9163 148.493 99.1278 149.303L99.1936 149.348H99.1959L99.5063 149.409C99.5823 149.424 99.5802 149.544 99.5063 149.561C99.502 149.561 99.4957 149.563 99.4915 149.565C99.6901 149.722 99.8781 149.889 100.053 150.068C100.632 150.66 100.63 151.375 100.332 151.952C102.105 153.596 103.225 155.707 104.397 157.836C105.654 160.114 107.3 162.084 109.303 163.745C116.644 169.836 127.442 172.531 136.641 169.654C143.406 167.541 149.184 161.82 150.781 154.932C150.403 155.067 149.993 155.088 149.604 154.949C147.779 154.298 147.083 152.302 146.384 150.633L146.351 150.552C145.668 148.936 145.096 147.293 144.644 145.598C144.187 143.886 143.919 142.079 143.807 140.313C143.764 139.614 143.783 138.915 143.819 138.217L143.851 137.639C143.876 137.116 143.868 136.581 144.308 136.236ZM114.606 131.525C114.631 131.461 114.73 131.427 114.768 131.503C116.384 134.839 115.324 139.408 113.796 142.589C112.197 145.915 109.789 148.439 106.935 150.622C106.542 150.922 106.138 151.218 105.728 151.508C103.347 153.19 101.226 148.654 103.975 147.788C106.84 146.332 109.168 143.736 110.786 141.01C111.661 139.537 112.436 138.002 113.03 136.392C113.621 134.786 113.976 133.114 114.606 131.525Z" fill="black"/>
<path fill-rule="evenodd" clip-rule="evenodd" d="M169.552 105.011C170.861 95.5634 168.066 86.4456 164.446 77.8106C164.247 77.2848 163.932 76.8293 163.526 76.5055C153.309 55.9037 138.295 54.0382 117.35 55.457C116.732 55.4432 116.695 55.4542 116.225 55.2439C116.147 46.8749 106.593 42.4418 99.3219 45.2031C67.0757 60.1939 77.2153 102.397 83.6321 129.95C85.9214 140.616 88.2113 151.281 90.501 161.946C90.5779 162.303 90.74 162.612 90.9555 162.872C90.6229 162.998 90.2902 163.116 89.9638 163.227C89.2188 163.481 89.5148 164.592 90.2902 164.412C91.0501 164.235 91.7824 163.999 92.5068 163.741C93.6362 163.986 94.5831 163.248 95.4698 162.659C105.853 158.552 110.212 145.053 112.875 135.108C123.703 142.751 141.004 148.474 153.384 141.602C164.984 134.614 169.162 120.036 168.338 107.169C169.184 106.779 169.526 105.93 169.548 105.044H169.553C169.553 105.033 169.552 105.022 169.552 105.011Z" fill="white"/>
<path fill-rule="evenodd" clip-rule="evenodd" d="M96.3463 45.9901C98.7402 44.4388 101.813 43.8614 104.633 43.9744C106.137 44.0347 107.542 44.4098 108.928 44.9733C110.214 45.4957 111.347 46.2462 112.599 46.8181C112.675 46.8528 112.617 46.9595 112.545 46.945C111.063 46.6457 109.323 46.8265 107.82 47.0407L107.671 47.0623C106.194 47.2768 104.691 47.3877 103.235 47.7282C100.553 48.3553 98.0589 49.7217 96.587 52.0983C94.6651 55.2022 94.1724 59.22 94.378 62.8011C94.4819 64.613 94.839 66.3955 95.395 68.1229C95.7288 69.1596 96.5044 70.2026 96.8667 71.2904C97.1424 70.7755 97.427 70.2658 97.7217 69.7621C96.3791 69.1291 96.0026 67.3698 95.9331 65.7822C95.7263 65.5822 95.5932 65.2929 95.5887 65.0272C95.5769 64.3131 95.7449 63.6666 96.0305 63.075C96.1936 61.3994 96.5392 59.7289 97.1342 58.1588C99.4693 51.9943 105.63 46.4384 112.616 46.9872C114.536 47.1381 116.404 47.9537 117.397 49.6876C118.194 51.08 118.199 52.7596 117.649 54.2406C117.486 54.6802 117.274 55.0771 117.025 55.4391C117.78 55.2476 118.536 55.064 119.291 54.882C121.91 54.2505 124.542 53.7557 127.223 53.4805C130.875 53.106 134.602 53.6727 137.948 55.1308C138.866 55.3668 139.779 55.6205 140.687 55.8914C144.682 57.083 148.78 58.6394 152.007 61.3593C153.492 62.6107 154.554 64.0664 155.417 65.6651C158.647 68.546 161.735 71.8118 163.916 75.5476C168.408 83.2448 169.481 92.7659 169.665 101.516C169.835 109.555 169.129 117.676 167.623 125.574C166.94 129.159 165.834 132.49 163.599 135.43C161.109 138.703 157.789 141.282 154.063 143.013C146.477 146.536 137.089 147.049 129.715 142.684C127.498 141.371 129.495 137.949 131.735 139.228C139.014 143.383 148.304 142.434 155.308 138.029C158.267 136.168 160.816 133.623 162.436 130.507C163.619 128.23 164.127 125.62 164.566 123.079L164.8 121.719C166.157 113.904 166.77 105.888 166.444 97.9592C166.118 90.0505 164.864 81.4845 160.386 74.7608C158.024 71.2143 155.012 68.1075 151.848 65.2745C151.626 65.0754 151.404 64.8772 151.181 64.6796C149.944 63.9363 148.663 63.2872 147.401 62.7332L147.133 62.6172C146.408 62.3079 145.393 61.9083 144.452 61.5888C143.107 61.1321 141.74 60.7263 140.367 60.3606C139.647 60.1689 138.924 59.9931 138.2 59.8251C138.452 60.0569 138.703 60.2909 138.95 60.5308C140.119 61.6672 141.047 63.0177 142.155 64.2093C142.281 64.3437 142.123 64.5399 141.963 64.4581C140.278 63.5928 138.408 63.0327 136.648 62.3317C134.984 61.6689 133.367 60.9059 131.732 60.1746C131.323 59.9912 130.915 59.7953 130.507 59.6015C128.9 59.6179 127.292 59.6558 125.688 59.7473C127.627 61.128 129.398 62.7599 130.865 64.5494C130.986 64.6967 130.876 64.9328 130.672 64.8806C127.602 64.094 124.682 62.938 121.763 61.7266L120.367 61.1452C119.34 61.0932 118.313 61.0689 117.285 61.0841L116.786 61.0924C115.707 61.113 114.63 61.1557 113.56 61.3193C113.306 61.358 113.057 61.3948 112.809 61.4286C111.304 62.0432 109.855 62.7842 108.552 63.7608L108.892 63.7408C110.952 63.6235 113.053 63.801 115.049 64.3332C118.927 65.3677 122.235 67.8589 124.643 71.0353C124.715 71.1304 124.575 71.2627 124.48 71.198C121.451 69.1236 117.938 68.0787 114.339 67.5112C112.599 67.2367 110.807 67.1422 109.051 67.279C107.597 67.392 106.092 67.9046 104.645 67.6558C104.251 68.1472 103.872 68.6534 103.507 69.1708C103.699 69.1585 103.891 69.1473 104.085 69.1382C106.163 69.0406 108.279 69.1739 110.308 69.6524C114.361 70.6088 117.748 73.0427 120.846 75.7148C120.907 75.7676 120.828 75.8619 120.762 75.8239C117.402 73.8841 113.497 73.3043 109.691 72.9544C107.774 72.7781 105.836 72.6982 103.915 72.8512C103.035 72.9212 102.165 73.0664 101.288 73.1566C101.217 73.164 101.143 73.1659 101.07 73.1693C100.434 74.3689 99.8574 75.5901 99.3373 76.8077C100.925 76.3816 102.637 76.158 104.276 76.2683C107.606 76.4926 110.908 78.0196 113.565 79.9727C113.649 80.0337 113.602 80.1965 113.489 80.1538C110.596 79.0605 107.729 79.0516 104.71 79.4735C103.295 79.6713 101.894 79.9397 100.526 80.3607C99.839 80.5725 99.1594 80.8035 98.507 81.1076C98.2108 81.2454 97.9224 81.406 97.6309 81.5576C97.3976 82.3497 97.1891 83.1493 97.0011 83.9537C101.935 84.232 106.584 86.5619 110.63 89.2359C110.727 89.3006 110.666 89.4807 110.545 89.435C108.13 88.5235 105.503 88.102 102.942 87.8567C100.702 87.6421 98.5038 87.7588 96.2768 87.8214C96.1575 88.6678 96.0609 89.5168 95.991 90.3675C96.3491 90.4679 96.7004 90.5761 97.0382 90.6778C98.1493 91.0117 99.2582 91.4612 100.295 91.9824C102.401 93.0411 104.107 94.4721 105.824 96.063C105.914 96.146 105.82 96.3274 105.699 96.2781C103.706 95.4722 101.529 94.9561 99.4306 94.4994C98.3449 94.2631 97.2588 94.045 96.1655 93.8448C96.0597 93.8254 95.9521 93.8091 95.8448 93.7931C95.8345 95.7325 95.9441 97.6725 96.1858 99.5967L96.2327 99.9573C96.3637 100.931 96.2566 101.873 95.612 102.546C96.5035 101.953 97.5235 101.542 98.654 101.385C101.631 100.971 104.388 102.16 106.261 104.462C106.349 104.57 106.213 104.711 106.107 104.616C104.289 102.998 101.487 102.711 99.2295 103.473C97.1392 104.179 95.5678 105.862 94.938 107.969C94.2687 110.208 94.5753 112.68 95.7958 114.676C96.4038 115.671 97.2821 116.56 98.3811 116.997C98.5167 117.051 98.6549 117.096 98.7945 117.135C99.4579 116.893 100.172 117.002 100.854 117.31L100.942 117.352C101.378 117.349 101.811 117.336 102.232 117.34C103.052 117.347 103.446 118.218 103.102 118.866C103.297 119.223 103.439 119.625 103.611 119.975C103.92 120.607 104.244 121.235 104.57 121.858C105.031 122.387 105.471 122.935 105.77 123.573C105.892 123.835 106.008 124.118 106.097 124.403C106.353 124.788 106.613 125.171 106.88 125.553C107.742 126.784 108.65 127.951 109.656 129.07C110.261 129.742 110.957 130.342 111.598 130.986C111.792 131.012 111.982 131.144 112.042 131.334L112.095 131.516C112.301 131.749 112.499 131.988 112.677 132.244C113.071 132.81 112.963 133.384 112.616 133.799C113.166 137.226 112.792 140.872 112.057 144.195C111.582 146.343 111.028 148.488 110.283 150.559C109.905 151.612 109.447 152.624 108.813 153.549C108.466 154.056 108.014 154.646 107.507 155.128C107.43 155.69 107.33 156.246 107.186 156.792C105.486 163.259 98.523 165.227 92.6933 166.053C91.5681 166.212 90.4545 165.941 89.8416 164.892C89.7001 164.65 89.605 164.389 89.5539 164.121C89.2999 164.053 89.0557 163.934 88.8366 163.763C88.8001 164.168 88.7578 164.575 88.7044 164.986C88.5711 166.014 87.1845 166.323 86.837 165.239C85.3704 160.665 84.5737 155.842 83.5687 151.142C82.5658 146.452 81.4459 141.786 80.4096 137.103L79.0975 131.193C75.8959 116.72 72.8971 102.063 73.6332 87.178C74.035 79.0529 75.5253 70.9489 78.715 63.4404C81.3721 57.1855 85.8565 50.1583 93.1006 48.8794C93.1505 48.8708 93.1949 48.8759 93.2363 48.8864C94.0966 47.7673 95.1244 46.7818 96.3463 45.9901ZM100.717 124.66C101.301 126.599 101.718 128.586 101.945 130.615C102.323 133.995 102.136 137.458 101.972 140.848C101.821 143.962 101.462 147.103 100.852 150.161C100.266 153.097 99.3478 155.975 97.9828 158.646C97.7621 159.078 97.5248 159.499 97.2755 159.911C98.0304 159.66 98.7119 159.367 99.4218 158.96C100.315 158.449 101.133 157.79 101.58 157.094C102.298 155.978 102.539 154.739 102.644 153.409C102.914 149.989 103.039 146.559 103.211 143.133L103.249 142.387C103.528 137.034 103.893 131.545 103.347 126.187C102.58 125.985 101.888 125.589 101.249 125.092C101.073 124.955 100.895 124.81 100.717 124.66ZM94.8834 118.178C95.0446 119.807 95.1989 121.435 95.3385 123.065C95.8339 128.85 96.1401 134.667 95.8584 140.472C95.7118 143.494 95.4173 146.526 94.9082 149.51C94.6787 150.856 94.4013 152.2 94.0913 153.531L93.9868 153.974C93.6723 155.292 93.4718 156.939 92.4644 157.898L92.472 158.097C93.1792 157.023 93.8332 155.816 94.3016 154.692C96.3887 149.686 96.7701 144.235 97.1472 138.897C97.3796 135.607 97.5518 132.312 97.8207 129.025L97.9513 127.443C98.1012 125.602 98.2302 123.774 98.2126 121.935C97.8106 121.335 97.4839 120.705 97.2811 120.058C97.2486 119.954 97.2262 119.848 97.2106 119.743C96.3604 119.34 95.5599 118.79 94.8834 118.178ZM106.307 129.634C106.727 131.03 107.069 132.444 107.313 133.863C107.701 136.123 107.934 138.397 108.037 140.679L108.251 139.872C108.79 137.856 109.364 135.838 110.074 133.881C108.95 133.094 108.011 131.858 107.195 130.825C106.889 130.439 106.593 130.041 106.307 129.634ZM90.215 67.5522C89.7832 68.9467 89.4057 70.357 89.0157 71.7629C88.0992 75.0655 87.5043 78.4585 87.0915 81.8579C85.4442 95.4304 86.8162 109.058 88.6105 122.542C89.3539 128.128 90.1622 133.707 90.856 139.3C90.8744 138.751 90.8898 138.203 90.8998 137.654C91.1106 125.782 89.1131 114.076 88.3132 102.265L88.2652 101.545C87.9027 96.0224 87.6809 90.3969 88.3371 84.8946C88.6747 82.0625 89.2696 79.2909 90.0612 76.5543L90.5325 74.9468C90.851 73.866 91.1895 72.7564 91.5912 71.6803C91.5376 71.5772 91.4865 71.4732 91.4389 71.369C90.8831 70.1465 90.4962 68.8615 90.215 67.5522ZM91.6071 51.5532C87.4608 56.901 83.9814 62.5819 81.8763 69.116C77.0586 84.0703 78.1341 100.061 80.926 115.304C82.2416 122.486 83.9381 129.585 85.486 136.717C83.8291 123.909 81.6923 111.13 81.3522 98.199C81.1665 91.1416 81.5313 84.0512 82.8308 77.1029L82.9077 76.6943C83.4647 73.7578 84.1546 70.6466 85.567 68.0076C86.3339 66.5747 87.1804 65.2375 88.1844 63.9575C88.6077 63.4177 89.0831 62.9849 89.5874 62.589C89.4395 58.9025 89.9968 54.9048 91.6071 51.5532ZM98.3717 108.533C100.435 108.614 102.495 109.189 104.12 110.53C105.391 111.579 103.578 113.352 102.318 112.333C100.947 111.224 99.7179 109.965 98.2568 108.957C98.0827 108.837 98.1305 108.523 98.3717 108.533ZM94.9499 103.034C94.4912 103.271 94.0355 103.319 93.516 103.191C93.497 103.186 93.4787 103.181 93.4608 103.175L93.3546 103.141C93.4 103.633 93.4478 104.125 93.4951 104.617C93.9142 104.026 94.4004 103.492 94.9499 103.034ZM92.8963 73.3416C92.7137 74.8676 92.5948 76.4009 92.5314 77.9366C92.4698 79.4327 92.4442 80.9333 92.4372 82.4345L92.4353 83.0779L92.438 83.0656C93.1472 80.0387 94.1503 77.0597 95.4315 74.209C95.2109 74.2458 94.987 74.2399 94.7664 74.2132C94.2619 74.1521 93.7781 73.9283 93.3452 73.6665C93.1874 73.5709 93.0393 73.4596 92.8963 73.3416ZM113.937 55.6546C113.056 56.0532 112.204 56.5114 111.319 56.901C109.565 57.6737 107.848 58.5719 106.224 59.5917C104.581 60.6237 102.998 61.7102 101.542 62.9974C101.372 63.1483 101.203 63.3009 101.034 63.4532C101 63.7861 100.975 64.1203 100.964 64.4572C100.958 64.6383 100.958 64.8277 100.96 65.0223C103.707 61.6181 107.028 58.9323 111.242 57.2427C111.972 56.9498 112.715 56.689 113.464 56.4476C113.642 56.1999 113.802 55.937 113.937 55.6546ZM113.859 52.3891C113.369 51.7386 111.961 51.7916 111.073 51.9366C109.637 52.1712 108.373 52.6734 107.142 53.4004C105.688 54.2594 104.433 55.4231 103.451 56.7918C103.934 56.5191 104.426 56.2619 104.929 56.0231L105.273 55.8604C107.177 54.9677 109.239 54.1189 111.321 53.8422C112.285 53.7141 113.321 53.5287 114.294 53.6331C114.246 53.1599 114.105 52.7161 113.859 52.3891Z" fill="black"/>
<path fill-rule="evenodd" clip-rule="evenodd" d="M150.668 123.417C149.328 122.772 147.795 122.816 146.39 123.243C144.726 123.749 143.253 124.799 141.942 125.916C141.431 126.353 140.945 126.845 140.457 127.341C139.837 127.97 139.215 128.605 138.524 129.12C138.752 127.179 140.113 125.208 141.282 123.783C142.717 122.034 144.714 120.617 146.873 119.932C149.173 119.201 151.545 119.603 153.407 120.788C155.252 121.963 156.596 123.908 156.867 126.288C156.924 126.787 156.691 127.245 156.344 127.591C155.94 127.996 155.372 128.262 154.843 128.262C154.303 128.262 153.824 128.044 153.469 127.697C153.096 127.334 152.859 126.829 152.825 126.28C152.802 125.696 152.666 125.184 152.175 124.567C151.846 124.153 151.225 123.685 150.668 123.417ZM154.075 102.992C153.519 103.194 152.873 103.682 152.685 104.217C152.644 104.335 152.621 104.455 152.619 104.577C152.438 104.209 152.369 103.775 152.392 103.347C152.467 101.984 153.766 100.995 154.873 100.418C155.266 100.212 155.67 100.076 156.072 100.004L157.497 99.7499L156.159 99.1972C154.925 98.6875 153.768 97.9864 152.736 97.1282C151.749 96.309 150.838 95.2495 150.302 94.0804C150.061 93.5524 149.871 93.0359 149.738 92.4779L149.702 92.3212C149.637 92.0206 149.566 91.8673 149.485 91.6972C149.438 91.5974 149.387 91.4899 149.332 91.3152C149.301 91.2171 149.284 91.1349 149.313 91.0709C149.34 91.009 149.408 90.9824 149.474 90.9574C149.911 90.7921 150.615 90.9047 150.913 91.0242C151.636 91.313 152.27 91.9428 152.882 92.5325C153.18 92.8203 153.472 93.1015 153.762 93.342C155.612 94.8768 157.922 95.75 160.179 95.963L160.315 95.975C160.912 96.024 161.465 96.2592 161.858 96.6516C162.208 97.0024 162.425 97.4796 162.425 98.0512C162.425 98.6078 162.174 99.1438 161.785 99.533C161.414 99.9046 160.911 100.145 160.366 100.126C159.983 100.112 159.602 100.078 159.225 100.027L157.82 99.8392L158.892 100.766C159.105 100.95 159.305 101.161 159.485 101.407C160.463 102.738 160.882 104.768 160.846 106.397C160.839 106.708 160.753 107.029 160.595 107.305C160.456 107.546 160.262 107.755 160.011 107.885C159.711 108.041 159.457 108.124 159.115 108.131C158.743 108.138 158.428 108.02 158.169 107.823C157.845 107.577 157.608 107.213 157.444 106.816C157.227 106.289 157.214 105.732 157.193 105.175C157.178 104.79 157.162 104.405 157.098 104.025C157.007 103.54 156.787 102.922 156.511 102.726C156.102 102.438 155.016 102.66 154.341 102.896L154.075 102.992ZM148.27 107.866C149.866 108.836 152.296 111.098 150.58 113.504C148.56 115.624 145.651 113.193 144.218 112.093C142.889 111.241 141.396 113.433 142.629 114.428C152.986 122.099 157.189 108.12 149.077 106.726C148.184 106.572 147.852 107.566 148.27 107.866ZM136.955 104.787C136.519 104.295 136.094 103.836 135.438 103.575C134.662 103.265 133.722 103.232 132.915 103.464C132 103.727 131.275 104.334 130.738 105.109C130.267 105.79 129.942 106.601 129.757 107.4C129.411 107.02 129.249 106.581 129.171 106.134C129.043 105.398 129.134 104.641 129.385 103.92C129.943 102.315 131.287 100.888 132.854 100.274C134.643 99.5727 136.858 99.8068 138.501 100.794C139.34 101.298 140.307 102.172 140.794 103.028C141.126 103.612 141.145 104.217 140.934 104.737C140.701 105.309 140.199 105.774 139.558 106.007C139.254 106.118 138.942 106.109 138.645 106.031C138.259 105.928 137.898 105.71 137.604 105.456C137.359 105.245 137.155 105.013 136.955 104.787ZM139.629 94.6651C139.261 95.1568 138.72 95.408 138.157 95.4344C138.099 95.4371 138.041 95.4374 137.984 95.4353C137.947 95.4771 137.907 95.5233 137.859 95.5777C137.749 95.703 137.677 95.7853 137.602 95.8652C137.331 96.1538 137.046 96.4293 136.749 96.6915C136.089 97.2756 135.377 97.788 134.607 98.218C133.258 98.9717 131.779 99.5595 130.258 99.8402C128.749 100.119 127.259 100.204 125.739 99.986L125.371 99.933C124.493 99.8044 123.342 99.6365 122.621 99.0925C122.905 99.0021 123.193 98.9976 123.473 98.9852C123.658 98.977 123.841 98.9688 124.02 98.9524C124.871 98.8751 125.697 98.7338 126.521 98.5058C128.122 98.0626 129.572 97.4506 130.986 96.5734C132.371 95.7137 133.644 94.5436 134.658 93.2618L134.779 93.1064C134.831 93.0395 134.882 92.9729 134.932 92.9067C135.347 92.3646 135.728 91.848 136.372 91.504C136.883 91.2315 137.399 91.1579 137.896 91.2363C138.472 91.3273 139.019 91.6175 139.504 92.0237C139.863 92.3239 140.029 92.7564 140.055 93.1999C140.086 93.7216 139.927 94.2651 139.629 94.6651Z" fill="black"/>
</svg>
