<svg width="240" height="324" viewBox="0 0 240 324" fill="none" xmlns="http://www.w3.org/2000/svg">
<path fill-rule="evenodd" clip-rule="evenodd" d="M117.565 124.062C120.404 123.276 123.668 123.367 126.581 123.568C129.539 123.772 132.714 124.123 135.49 125.228C137.903 126.188 139.938 127.804 141.177 130.118C142.197 132.021 142.675 134.108 142.975 136.228C143.097 137.095 143.2 137.965 143.297 138.835L143.498 140.646C143.576 141.338 143.645 141.857 143.783 142.63C144.164 144.766 144.694 146.551 145.878 148.106C148.747 151.869 153.43 153.129 157.689 154.735C160.414 155.763 162.572 157.612 163.171 160.583C163.749 163.449 185.713 187.494 187.869 189.521L187.928 189.576C189.601 191.082 189.404 193.914 189.638 195.982C189.889 198.199 190.128 200.417 190.354 202.637C190.814 207.145 191.224 211.659 191.584 216.176C192.991 233.844 193.629 251.573 193.494 269.296L193.485 270.299C193.464 272.548 193.481 274.807 193.38 277.054C193.283 279.214 192.63 281.375 190.63 282.503C188.776 283.548 186.433 283.456 184.362 283.561L184.238 283.567C182.016 283.689 179.793 283.789 177.568 283.871C168.529 284.206 159.482 284.242 150.437 284.2C132.494 284.118 114.533 283.723 96.607 284.728C92.0375 284.984 77.4697 283.428 72.9146 283.871C68.5608 284.295 72.2964 286.431 69.6068 286.29C60.7614 285.827 52.3711 283.853 43.8964 281.475C42.8377 281.178 42.0281 280.15 42.0414 279.039C42.1988 266.836 42.5432 254.636 43.0813 242.444C43.5607 231.584 44.1923 220.73 44.9759 209.887C45.3166 205.174 45.686 200.463 46.0839 195.755L46.2562 193.737C46.481 191.135 46.6103 188.485 47.1218 185.919C47.6278 183.381 48.7756 181.18 50.4399 179.214C51.9334 177.45 68.8422 163.639 72.9146 161.025C76.8125 158.522 80.9056 156.41 84.9072 154.091C86.572 153.126 88.1709 153.473 89.5931 152.289C90.3429 151.664 101.223 147.457 104.158 146.068L104.244 146.027C106.491 144.949 108.558 143.78 110.111 141.915C110.631 141.29 111.652 137.352 111.654 136.094C111.657 133.847 111.487 131.479 112.165 129.302C112.975 126.699 114.929 124.792 117.565 124.062ZM122.379 182.012L104.994 215.881H116.299L108.195 234.699H125.99L119.678 261.058L155.777 215.881H142.231L155.777 198.094H146.381L155.777 183.031L122.379 182.012Z" fill="white"/>
<path fill-rule="evenodd" clip-rule="evenodd" d="M180.777 201.058C180.737 201.098 180.695 201.138 180.655 201.18C180.701 201.115 180.741 201.047 180.777 200.979V201.058ZM146.991 191.192C145.43 193.187 143.778 197.247 142.261 199.278C142.043 199.569 141.83 199.861 141.619 200.155C140.989 201.036 141.83 202.385 142.865 202.328C144.934 202.218 147 202.064 149.066 201.907C144.822 206.639 141.298 212.517 137.4 217.53C137.136 217.866 136.876 218.204 136.616 218.542C135.629 219.83 136.618 220.413 137.966 220.066C138.245 219.995 138.524 219.923 138.803 219.853C140.763 219.35 142.722 218.847 144.682 218.346C145.766 218.067 146.856 217.723 147.955 217.509C148.407 217.422 148.84 217.494 149.267 217.518C149.062 217.83 148.774 218.394 148.717 218.481C148.077 219.479 147.433 220.472 146.784 221.461C145.521 223.385 144.251 225.306 142.935 227.193C137.801 234.552 132.264 241.578 126.775 248.669C125.393 250.452 123.993 252.217 122.569 253.965C122.575 253.954 122.579 253.944 122.586 253.933C123.868 251.435 125.15 248.939 126.433 246.441C128.871 241.694 131.286 236.934 133.749 232.2C133.876 231.953 134.005 231.708 134.134 231.46C134.645 230.479 133.806 229.461 132.756 229.668C127.634 230.678 122.561 231.918 117.551 233.387C117.326 233.628 116.994 233.698 116.698 233.64C116.497 233.7 116.295 233.758 116.093 233.819C116.154 233.692 116.218 233.567 116.279 233.441C116.074 233.263 115.973 232.988 116.106 232.644C118.988 225.202 122.941 218.019 127.624 211.44C127.435 211.444 127.247 211.446 127.058 211.452C121.918 211.591 116.875 212.329 111.921 213.73C111.898 213.271 112.174 212.561 112.324 212.223C112.924 210.873 113.613 209.554 114.257 208.224C115.576 205.494 116.894 202.765 118.212 200.034C119.501 197.367 120.779 194.692 121.992 191.986C122.628 190.568 123.264 189.148 123.898 187.728C124.415 186.571 124.823 185.407 125.252 184.224C126.511 184.593 142.679 184.674 146.609 184.946C147.572 185.014 148.538 185.075 149.503 185.128C150.272 185.173 151.356 185.342 151.886 184.646L152.087 184.815C150.342 186.903 148.669 189.049 146.991 191.192ZM83.8668 152.396C83.9471 152.36 84.0253 152.324 84.1034 152.289C84.1436 152.346 84.1922 152.398 84.2429 152.451C84.3696 152.58 84.4943 152.719 84.6253 152.846C84.3717 152.698 84.1182 152.548 83.8668 152.396ZM196.861 271.173C196.715 268.094 196.553 265.014 196.379 261.935C196.037 255.916 195.684 249.896 195.213 243.886C194.256 231.706 193.365 219.529 191.93 207.394C191.328 202.306 190.487 197.258 189.644 192.206C189.752 192.109 189.862 192.012 189.97 191.917C189.853 193.299 191.729 194.174 192.659 192.796C192.729 192.692 192.796 192.589 192.864 192.481C193.669 191.179 195.524 184.792 195.395 184.251C195.162 183.277 194.516 182.41 194.011 181.552C193.57 180.802 193.124 180.051 192.672 179.308C191.77 177.817 190.84 176.342 189.866 174.899C187.848 171.91 185.643 169.04 183.044 166.531C180.355 163.932 177.268 161.795 174.08 159.857C172.548 158.927 170.968 158.084 169.358 157.297C167.77 156.524 166.031 155.668 164.32 155.228C164.222 155.203 164.123 155.338 164.212 155.41C164.666 155.769 165.141 156.107 165.625 156.433C164.315 155.979 162.965 155.651 161.605 155.535C158.97 154.609 156.304 153.762 153.682 152.796C151.105 151.844 148.565 150.775 146.852 148.522C145.388 146.597 144.462 144.24 143.75 141.945C142.969 139.415 142.658 136.786 141.936 134.252C141.879 134.047 141.543 134.023 141.498 134.252C140.983 136.91 141.006 139.899 141.3 142.583C141.608 145.398 142.4 148.161 144.124 150.45C146.127 153.111 148.844 154.592 151.901 155.773C154.367 156.729 156.864 157.701 159.389 158.555C159.059 158.771 158.725 158.986 158.381 159.191C157.012 160.005 155.588 160.728 154.132 161.377C151.474 162.562 148.675 163.45 145.859 164.171C140.617 165.506 135.243 166.185 129.839 166.274C119.026 166.453 108.093 164.188 98.2033 159.813C95.4188 158.58 92.6998 157.225 90.0082 155.803C89.1674 155.359 88.3223 154.911 87.4815 154.45C87.5512 154.446 87.623 154.44 87.6927 154.434C89.5709 154.256 91.4258 153.895 93.2427 153.383C96.9632 152.333 100.529 150.695 104.032 149.082C107.003 147.715 110.062 146.157 111.877 143.308C112.846 141.784 113.292 139.996 113.653 138.246C114.057 136.298 114.532 134.34 114.826 132.373C114.929 131.684 114.775 130.752 114.036 130.426C113.74 130.297 113.497 130.192 113.165 130.192C112.432 130.192 111.68 130.724 111.505 131.456C111.072 133.28 110.81 135.154 110.47 136.997C110.176 138.591 109.908 140.254 109.048 141.655C107.546 144.109 104.6 145.364 102.112 146.559C98.9575 148.072 95.8012 149.547 92.5244 150.775C91.0815 151.316 89.6132 151.807 88.1237 152.208C88.1829 151.843 88.1322 151.458 87.9167 151.168C87.5575 150.691 87.1498 150.373 86.6871 150.008C86.1843 149.611 85.5082 149.404 84.9146 149.579C84.9146 149.581 84.9125 149.579 84.9125 149.579C84.6716 149.526 84.4054 149.547 84.1308 149.672C83.2815 150.061 82.4343 150.454 81.5871 150.853C69.3991 156.59 57.5575 163.327 48.5892 173.588C47.2963 175.068 46.0857 176.623 44.9512 178.227C43.8484 179.785 42.4836 181.476 42.1794 183.408C42.154 183.568 42.3885 183.642 42.4287 183.477C42.5005 183.179 42.5977 182.888 42.7181 182.604C42.4667 183.484 42.4815 184.418 42.8364 185.337C43.2568 186.419 44.028 187.136 45.0019 187.421C44.0237 191.71 43.3667 196.055 42.8385 200.449C42.0801 206.779 41.5413 213.124 41.1357 219.485C40.3244 232.181 39.9632 244.94 40.2251 257.659C40.2991 261.254 40.4216 264.849 40.6075 268.442C40.7005 270.239 40.8019 272.033 40.9181 273.83C41.0322 275.597 40.9392 277.543 42.4794 278.475C42.4984 278.545 42.5195 278.612 42.5385 278.682C42.9125 279.986 44.5794 279.568 44.7357 278.384C44.7378 278.372 44.7399 278.357 44.742 278.344C46.0012 277.383 45.8111 275.781 45.7181 274.244C45.6188 272.585 45.5132 270.928 45.4244 269.271C45.2554 266.092 45.1118 262.913 44.9829 259.732C44.7315 253.443 44.5899 247.145 44.5434 240.85C44.4505 228.26 45.1773 215.689 46.0392 203.135C46.4005 197.883 46.823 192.654 46.9519 187.404C47.6258 187.053 47.8329 186.056 47.4949 185.384C55.4765 190.832 62.8836 197.346 68.8308 204.917C69.8237 206.181 70.7723 207.482 71.6808 208.808C71.9765 209.239 72.2575 209.687 72.5406 210.135C72.266 211.384 72.0526 212.654 71.7737 213.853C71.1991 216.328 70.9561 218.895 70.6266 221.411C69.9568 226.519 69.4857 231.674 69.0864 236.809C68.3005 246.952 67.7174 257.093 67.5336 267.265C67.4322 273.018 67.297 278.807 67.5505 284.558C67.3625 285.682 68.3744 286.781 69.4329 286.923C70.3604 287.047 71.2265 286.566 71.6322 285.79C74.5223 286.149 77.4885 286.314 80.3596 286.335C84.228 286.363 88.0963 286.359 91.9646 286.276C99.7033 286.107 107.44 285.908 115.177 285.678C130.65 285.222 146.123 284.763 161.598 284.304C165.889 284.177 170.18 284.051 174.471 283.924C176.406 283.867 178.819 284.425 180.344 282.93C180.606 282.672 180.809 282.37 180.953 282.047C181.409 282.161 181.969 282.049 182.269 281.696C182.829 281.034 183.241 280.422 183.22 279.505C183.201 278.646 182.964 277.742 182.841 276.892C182.609 275.297 182.385 273.701 182.172 272.103C181.751 268.945 181.358 265.784 180.997 262.62C180.258 256.15 179.586 249.666 179.062 243.175C178.022 230.34 177.729 217.437 177.765 204.562C177.769 203.41 177.775 202.258 177.781 201.106C177.83 201.168 177.883 201.224 177.94 201.273C177.986 201.313 178.033 201.353 178.079 201.396C178.62 201.871 179.52 202.116 180.169 201.666C180.965 201.15 181.515 200.377 182.136 199.677C182.789 198.944 183.46 198.23 184.139 197.52C185.453 196.146 186.811 194.829 188.197 193.527C188.309 193.424 188.421 193.318 188.533 193.216C188.541 197.314 188.537 201.411 188.647 205.507C188.812 211.591 189.141 217.67 189.443 223.746C190.043 235.778 190.665 247.806 191.262 259.836C191.429 263.195 191.588 266.555 191.755 269.913C191.839 271.593 191.922 273.274 192.002 274.954C192.044 275.863 192.086 276.774 192.129 277.683C192.175 278.659 192.114 279.703 192.443 280.631C193.193 282.753 196.434 283.053 197.058 280.631C197.448 279.111 197.148 277.353 197.079 275.793C197.007 274.255 196.935 272.714 196.861 271.173Z" fill="black"/>
<path fill-rule="evenodd" clip-rule="evenodd" d="M139.312 145.719C134.623 145.747 130.637 144.416 127.596 142.214C123.801 140.86 119.224 138.772 116.444 136.58C115.359 136.857 114.062 135.705 113.232 135.096C108.072 131.242 104.021 125.599 102.821 119.947C100.968 122.287 98.3317 122.384 95.806 121.221C90.5116 118.218 90.7096 111.893 92.6156 107.168C88.6085 98.1731 85.8314 74.4287 91.9482 64.8459C93.1993 63.4121 95.0355 62.5544 96.3574 61.0841C97.5337 59.7999 98.6526 58.4864 100.021 57.4702C104.197 54.2906 111.389 52.5977 115.893 51.8016C134.692 47.7356 149.136 55.0437 166.164 61.2081C165.184 63.6598 163.829 65.8957 162.275 67.9804C166.502 69.559 164.561 73.1082 161.281 74.9074L159.328 73.958C162.372 84.8523 169.377 111.944 166.355 120.643C163.944 134.216 153.367 145.818 139.312 145.719Z" fill="white"/>
<path fill-rule="evenodd" clip-rule="evenodd" d="M142.028 146.888C135.939 147.513 128.706 146.074 124.647 141.125C124.525 140.977 124.472 140.81 124.469 140.648C124.466 140.468 124.526 140.294 124.63 140.158C124.74 140.016 124.896 139.917 125.075 139.885C125.226 139.858 125.398 139.875 125.575 139.975L125.948 140.182C128.721 141.714 131.599 143.02 134.741 143.579C137.976 144.155 141.269 144.091 144.475 143.36C150.315 142.029 155.041 138.633 158.52 134.156C162.401 129.16 164.732 122.818 165.327 116.475C166.047 108.789 164.376 101.149 162.648 93.7064C160.833 85.8862 158.848 78.1059 156.543 70.4159C156.473 70.1844 156.454 69.9678 156.474 69.7682C155.794 69.5017 155.071 69.5757 154.35 69.819C153.034 70.2635 151.723 71.2659 150.63 72.0934C150.234 72.3931 149.865 72.6717 149.534 72.8983C148.178 73.8265 146.696 74.4943 145.039 74.5993C143.315 74.7083 141.625 74.1724 140.059 73.5017C139.264 73.1609 138.482 72.8075 137.702 72.4554C135.483 71.4529 133.29 70.4604 130.893 69.8153C127.681 68.9507 124.366 68.5248 121.04 68.5553C115.104 68.6096 109.15 70.1381 105.513 75.1602C104.039 77.1946 103.078 79.5327 103.827 82.0435C104.235 83.4093 105.004 84.6492 105.844 85.7896L106.132 86.178C106.592 86.8039 106.993 87.4274 107.113 88.0912C107.214 88.6473 107.135 89.2355 106.738 89.8803C106.489 90.2862 106.171 90.6501 105.851 91.0129C105.62 91.2746 105.389 91.5358 105.19 91.817C104.789 92.384 104.434 92.9947 104.156 93.6316C103.61 94.8783 103.379 96.2194 103.331 97.572C103.272 99.2038 103.502 100.8 103.729 102.399C103.89 103.532 104.051 104.667 104.116 105.815C104.128 106.016 104.066 106.165 103.981 106.276C103.876 106.411 103.722 106.496 103.548 106.52C103.495 106.527 103.44 106.528 103.385 106.523C103.412 106.634 103.436 106.744 103.457 106.856C103.347 106.714 103.23 106.577 103.106 106.444C103.098 106.44 103.09 106.436 103.082 106.431C102.955 106.361 102.847 106.254 102.779 106.117C102.603 105.954 102.418 105.799 102.223 105.654C101.21 104.898 100.028 104.45 98.8413 104.435C97.6976 104.421 96.5511 104.81 95.6695 105.633C93.9174 107.269 93.4042 109.938 93.3858 112.23C93.3673 114.57 93.9085 117.378 95.9477 118.83C96.7657 119.413 97.7647 119.763 98.7711 119.773C99.6054 119.782 100.404 119.486 101.19 119.205C101.432 119.118 101.673 119.032 101.914 118.954C102.187 118.865 102.437 118.87 102.654 118.935C102.898 119.009 103.106 119.16 103.261 119.362C103.416 119.563 103.517 119.815 103.549 120.079C103.579 120.335 103.544 120.6 103.436 120.839C103.409 120.899 103.38 120.958 103.351 121.015L103.799 121.753C105.516 124.57 107.264 127.336 109.555 129.758C110.87 131.148 112.264 132.46 113.794 133.608L114.014 133.772C114.146 133.869 114.292 133.988 114.449 134.116C114.895 134.481 115.429 134.971 115.928 134.99C116.076 134.996 116.206 134.977 116.323 134.962C116.607 134.924 116.846 134.913 117.08 135.009C117.269 135.086 117.464 135.23 117.665 135.526C117.801 135.727 117.871 135.979 117.871 136.234C117.871 136.491 117.8 136.747 117.674 136.95C117.415 137.37 117.1 137.63 116.759 137.778C116.379 137.943 115.959 137.968 115.522 137.887C114.446 137.686 113.255 136.794 112.498 136.213L112.351 136.1C110.672 134.819 109.08 133.401 107.681 131.815C105.298 129.115 103.158 125.933 102.059 122.456C101.284 122.965 100.327 123.207 99.3266 123.245C97.8686 123.3 96.3255 122.925 95.1884 122.385C92.6824 121.197 91.1603 118.948 90.4469 116.362C89.6185 113.359 89.8878 109.907 90.9365 107.209C90.9669 107.131 90.9986 107.053 91.0312 106.974C87.8027 98.7907 86.81 89.7041 87.0865 80.9715C87.2158 76.8839 87.4941 72.5953 88.4581 68.6088C88.8901 66.822 89.6408 65.1204 90.8394 63.7137C91.5228 62.9115 92.3613 62.287 93.2036 61.6643C93.9332 61.1249 94.6655 60.5867 95.2818 59.9132L95.5731 59.5934C95.6363 59.5238 95.6993 59.4544 95.7622 59.385C96.8264 58.2117 97.8624 57.0731 99.1538 56.1108C100.651 54.9951 102.304 54.1218 104.021 53.3965C107.721 51.8346 111.703 50.8981 115.641 50.1736C124.163 48.6064 132.911 48.5291 141.328 50.732C145.242 51.7561 149.04 53.1579 152.831 54.558C153.183 54.688 153.535 54.8179 153.887 54.9476C156.834 56.0329 159.782 57.1136 162.73 58.1943C164.1 58.6966 165.47 59.1988 166.84 59.7016C167.137 59.8107 167.428 60.0457 167.594 60.3378C167.756 60.6227 167.804 60.9549 167.673 61.2858C166.833 63.4165 165.772 65.4154 164.481 67.2821C164.93 67.5874 165.311 67.9934 165.6 68.4686C165.966 69.0696 166.182 69.7811 166.197 70.5359C166.246 73.0639 163.946 74.7776 162.038 76.0171C161.86 76.1327 161.684 76.2009 161.514 76.2323C163.363 83.3035 165.133 90.3986 166.636 97.55L166.74 98.0457C168.289 105.53 169.288 113.168 167.823 120.752C166.562 127.282 163.631 133.585 159.052 138.45C154.565 143.217 148.543 146.219 142.028 146.888ZM101.935 103.834C101.138 101.303 100.716 98.5489 101.021 95.9832C101.213 94.3705 101.697 92.8179 102.487 91.3964C102.939 90.5822 103.49 89.8285 104.091 89.1187L104.298 88.8803C104.403 88.7585 104.508 88.6466 104.54 88.5063C104.559 88.4248 104.54 88.3356 104.49 88.2291C104.38 87.9931 104.176 87.7657 103.985 87.5437C103.864 87.4027 103.746 87.2642 103.646 87.1295C101.899 84.7633 100.596 81.9462 101.019 78.9456C101.432 76.0181 103.35 73.2892 105.392 71.2327C109.888 66.7042 116.858 65.6636 122.964 65.9134C126.519 66.0587 130.068 66.6854 133.453 67.7801C135.122 68.3201 136.754 68.9776 138.34 69.7313L138.691 69.9C138.881 69.9918 139.07 70.0847 139.259 70.1776C140.499 70.7858 141.744 71.3999 143.089 71.7306C145.718 72.3762 147.5 71.0165 149.374 69.6451C150.016 69.1752 150.668 68.6987 151.361 68.2806L151.504 68.1962C152.754 67.4712 154.25 66.9832 155.686 67.0051C156.934 67.0241 158.138 67.4227 159.118 68.3646C159.319 68.5581 159.435 68.7693 159.489 68.9794C159.598 69.1315 159.685 69.3129 159.742 69.5271C160.094 70.8451 160.443 72.1639 160.791 73.4832L161.076 73.2996C161.92 72.7513 162.837 72.1247 163.252 71.2075C163.411 70.8544 163.389 70.2663 163.188 69.8338C163.117 69.6827 163.025 69.5484 162.896 69.4645C162.803 69.4035 162.69 69.3749 162.56 69.3854C162.242 69.4264 161.95 69.3799 161.702 69.2752C161.416 69.1545 161.189 68.9558 161.041 68.7164C160.89 68.4713 160.821 68.1832 160.858 67.8843C160.889 67.6273 161 67.359 161.219 67.1068C162.658 65.4469 163.871 63.6159 164.792 61.6285L158.698 59.3729C156.525 58.569 154.351 57.7662 152.177 56.9664L150.986 56.5289C147.033 55.0781 143.056 53.6604 138.945 52.7263C130.773 50.8703 122.252 51.3065 114.104 53.0536L113.611 53.16C110.192 53.906 106.726 54.8084 103.588 56.3772C102.047 57.1471 100.583 58.0834 99.3253 59.2663C98.7699 59.7887 98.2678 60.3606 97.7655 60.9318C97.0616 61.7323 96.3569 62.5306 95.52 63.2048L94.7431 63.8272C93.5874 64.7588 92.545 65.6664 91.8928 67.1112C91.211 68.6217 90.8855 70.2904 90.62 71.9162C89.9503 76.0118 89.6859 80.173 89.7111 84.3216C89.7538 91.2873 90.8116 98.1111 92.1481 104.911C93.2203 103.376 94.7265 102.186 96.6597 101.932C97.9201 101.767 99.1696 102.002 100.253 102.559C100.879 102.881 101.45 103.311 101.935 103.834ZM99.9102 112.105C98.4985 111.558 97.0163 111.379 95.5228 111.64C95.3663 111.668 95.2171 111.635 95.0916 111.562C94.9645 111.488 94.8643 111.371 94.8099 111.242C94.747 111.093 94.7438 110.932 94.7993 110.788C94.8474 110.664 94.9392 110.543 95.108 110.462C96.7252 109.69 98.5228 109.349 100.307 109.592L100.483 109.617C101.395 109.752 102.678 110.037 103.64 110.598C104.396 111.038 104.949 111.645 105.086 112.438C105.158 112.852 105.056 113.283 104.817 113.596C104.587 113.898 104.235 114.1 103.78 114.087C102.976 114.064 102.5 113.724 101.928 113.284C101.858 113.231 101.787 113.176 101.713 113.121C101.16 112.707 100.555 112.355 99.9102 112.105Z" fill="black"/>
<path fill-rule="evenodd" clip-rule="evenodd" d="M133.555 121.88C135.088 121.584 136.994 122.228 138.522 122.511L138.636 122.531C140.489 122.855 142.338 123.247 144.211 123.438C146 123.62 147.827 123.653 149.615 123.448C150.475 123.349 151.326 123.18 152.161 122.955C152.518 122.858 152.872 122.75 153.222 122.631L153.261 122.615C153.518 122.509 154.213 122.109 154.205 122.332C154.4 122.107 154.67 121.947 154.965 121.869C155.382 121.759 155.918 121.862 156.267 122.157C156.721 121.798 157.402 122.056 157.706 122.486C158.228 123.225 158.058 124.091 157.991 124.948L157.985 125.023C157.928 125.831 157.84 126.633 157.732 127.435L157.684 127.779C157.516 128.965 157.47 130.92 156.033 131.309C154.897 131.617 153.858 130.447 153.125 129.519L152.725 129.005C152.25 128.403 151.819 127.783 151.471 127.098C151.313 126.786 151.16 126.466 151.028 126.143C151.011 126.102 150.999 126.066 150.986 126.029C148.879 126.312 146.723 126.272 144.611 125.993C143.273 125.817 141.956 125.562 140.658 125.219L140.073 126.278C139.388 127.513 138.693 128.743 137.962 129.95L137.906 130.042C137.222 131.13 136.077 132.22 134.724 131.405C133.512 130.675 133.461 129.016 133.333 127.777C133.248 126.95 133.179 126.117 133.146 125.286L133.134 124.929C133.112 124.123 132.981 123.188 133.291 122.434C133.336 122.324 133.494 122.239 133.589 122.355C134.236 123.142 134.432 124.363 134.712 125.329C135.023 126.405 135.474 127.579 135.636 128.695L135.681 128.616C135.841 128.313 136.003 128.012 136.167 127.711L136.657 126.808C137.097 125.993 137.544 125.183 137.996 124.375C137.48 124.181 136.969 123.973 136.46 123.761L135.305 123.278C134.645 123 133.973 122.685 133.477 122.178C133.389 122.088 133.42 121.906 133.555 121.88ZM155.468 124.857C154.33 125.32 153.153 125.654 151.954 125.876C152.031 125.955 152.109 126.034 152.18 126.117C152.462 126.444 152.762 126.757 153.063 127.068L153.243 127.253C153.704 127.727 154.397 128.506 155.103 128.959L155.142 128.754C155.148 128.719 155.153 128.688 155.155 128.665L155.231 127.992C155.243 127.88 155.255 127.768 155.266 127.656C155.327 127.05 155.375 126.442 155.426 125.835C155.452 125.515 155.459 125.186 155.468 124.857ZM142 85.7855C144.71 84.6273 147.927 85.1741 150.262 86.9236C152.651 88.7139 153.696 91.6246 153.834 94.5286C155.723 92.9147 158.444 94.1363 160.035 95.6485C161.872 97.3937 162.8 100.027 162.372 102.527C161.946 105.018 160.144 107.215 157.706 107.956C156.54 108.311 155.24 108.319 154.066 107.989C153.668 107.877 153.18 107.703 152.729 107.461C152.754 107.564 152.781 107.668 152.805 107.772C153.391 110.251 153.723 113.037 152.844 115.488C151.432 119.428 146.417 121.633 143.286 118.136C142.057 116.764 141.101 114.614 141.176 112.742C141.215 111.759 141.772 110.621 142.921 110.688C143.813 110.739 144.236 111.486 144.008 112.276L143.994 112.321C143.51 113.831 144.335 116.013 145.531 117.043C147.364 118.623 149.88 117.248 150.883 115.396C152.051 113.238 151.909 110.47 151.535 108.122C151.169 105.816 150.351 103.707 149.483 101.573C149.391 101.59 149.297 101.605 149.202 101.618C147.475 101.853 143.963 101.941 142.055 100.69C142.26 102.621 141.858 104.609 140.761 106.244C139.539 108.066 137.698 109.031 135.556 109.326C133.475 109.614 131.062 109.672 129.008 109.179C124.633 108.128 123.09 102.725 124.413 98.8239C125.196 96.5166 127.38 94.4413 129.808 93.9172C131.058 93.0942 132.738 92.8505 134.181 92.9627C136.337 93.1307 138.46 94.0626 139.904 95.6991C140.456 96.3242 140.909 97.032 141.259 97.7895C141.376 97.6969 141.513 97.6274 141.668 97.5911C141.909 97.5344 142.121 97.5217 142.357 97.605C142.474 97.6466 142.644 97.7937 142.746 97.8893L142.979 98.1632C143.265 98.4964 143.537 98.7759 144.046 98.983C145.464 99.5606 147.388 99.686 148.895 99.5678C152.74 99.2669 152.256 94.1718 151.309 91.5543C150.187 88.4533 146.971 86.5243 143.7 87.0751C142.294 87.3116 140.953 88.06 139.925 89.0379C138.776 90.1298 138.284 91.4486 137.595 92.8306C137.555 92.9124 137.414 92.8946 137.396 92.8044C136.83 89.8903 139.515 86.8473 142 85.7855ZM121.52 109.28C121.403 109.143 121.557 108.901 121.724 109.015C122.949 109.848 124.312 110.449 125.794 110.612C126.49 110.688 127.191 110.693 127.884 110.586C128.475 110.495 129.007 110.315 129.597 110.478C129.91 110.564 129.967 110.928 129.776 111.157C128.885 112.217 126.693 111.934 125.498 111.65C123.952 111.282 122.55 110.491 121.52 109.28ZM162.762 107.344C163.363 106.971 164.08 107.709 163.724 108.306C162.81 109.837 160.162 109.961 158.626 109.595C158.506 109.567 158.534 109.378 158.655 109.381C159.538 109.403 160.336 109.233 161.097 108.773C161.747 108.379 162.134 107.733 162.762 107.344ZM133.404 95.1066L133.283 95.1077C131.879 95.1303 130.592 95.6661 129.239 95.9493C129.127 95.9729 129.014 95.9609 128.913 95.9237C127.264 97.0238 126.128 98.7535 125.974 101.03C125.867 102.606 126.252 104.324 127.187 105.617C128.252 107.09 129.968 107.317 131.658 107.361L131.829 107.365C135.023 107.427 138.537 107.238 139.676 103.666C140.518 101.022 139.618 97.8128 137.271 96.2291C136.132 95.46 134.77 95.1054 133.404 95.1066ZM159.136 97.0027L159.042 96.8932C157.789 95.4554 155.803 94.1458 153.845 94.8699L153.851 95.1121C153.851 95.1525 153.852 95.1929 153.852 95.2332C153.846 98.0099 152.77 100.601 150.127 101.416C150.836 102.428 151.406 103.551 151.862 104.717C152.023 104.612 152.219 104.545 152.446 104.522C153.377 104.428 153.91 105.302 154.717 105.628C155.473 105.934 156.329 106.013 157.127 105.855C158.872 105.51 160.096 104.004 160.525 102.334C161.009 100.446 160.369 98.4671 159.136 97.0027ZM132.578 99.3396C133.16 98.3565 134.595 98.4988 135.17 99.3655L135.198 99.4087L135.204 99.4007C136.162 100.643 135.699 102.605 134.308 103.304C133.192 103.864 131.772 103.717 131.03 102.627C130.864 102.382 130.757 102.095 130.718 101.804C130.692 101.606 130.707 101.408 130.751 101.211L130.74 101.257C130.762 101.158 130.797 101.002 130.806 100.965C130.904 100.565 131.139 100.135 131.433 99.8445C131.736 99.5457 132.158 99.3639 132.578 99.3396ZM156.486 98.3183C157.002 98.3183 157.459 98.5339 157.831 98.8756C158.361 99.3619 158.434 100.062 158.32 100.726C158.285 100.929 158.237 101.125 158.186 101.324L158.143 101.505C158.135 101.535 158.127 101.565 158.118 101.594C158.086 101.717 158.036 101.831 157.976 101.94C157.755 102.76 156.863 103.168 156.077 102.989C155.706 102.904 155.337 102.597 155.149 102.275C155.087 102.169 155.043 102.063 155.012 101.957L154.859 101.594C154.831 101.507 154.813 101.413 154.79 101.324C154.738 101.125 154.689 100.929 154.653 100.726C154.532 100.04 154.628 99.3892 155.142 98.8756C155.487 98.5305 155.999 98.3183 156.486 98.3183ZM145.137 91.1993C146.031 91.0793 146.942 91.496 147.405 92.2863C147.806 92.9732 147.805 93.8974 147.405 94.5843L147.371 94.6424C146.634 95.9076 144.915 96.0699 143.88 95.0924L143.83 95.045C143.165 94.4167 143.015 93.3745 143.36 92.5583C143.675 91.8118 144.335 91.3073 145.137 91.1993Z" fill="black"/>
<path fill-rule="evenodd" clip-rule="evenodd" d="M167.178 109.153C164.613 111.805 160.331 112.566 156.919 111.144C148.156 107.481 152.445 96.0578 159.203 92.99C160.047 92.7795 161.175 92.2801 162.203 92.1668C162.296 92.1212 162.498 92.2532 162.743 92.1283C170.195 92.9606 171.892 104.532 167.178 109.153ZM138.915 109.832C136.038 113.649 130.69 114.827 126.32 113.052C117.687 109.651 120.749 99.5216 126.656 95.5503C139.132 90.8602 144.285 102.794 138.915 109.832ZM120.201 101.374C120.193 101.37 120.185 101.369 120.177 101.365C120.222 101.345 120.268 101.325 120.314 101.304C120.299 101.343 120.283 101.381 120.268 101.42C120.246 101.404 120.226 101.386 120.201 101.374ZM173.117 97.2481C172.413 97.2496 171.395 97.3654 170.812 97.8542C169.374 93.0031 164.067 88.5134 159.451 91.7872C155.816 92.9566 153.119 95.5501 151.586 98.9981C148.822 97.3533 144.476 98.0557 142.079 100.231C140.509 95.0418 136.646 93.2248 132.048 92.9566C127.029 92.1342 122.027 97.0103 120.466 100.922C119.168 100.774 117.229 100.361 116.008 101.162C108.084 99.0834 94.2299 97.9373 92.619 99.0923C91.471 99.533 90.841 102.244 92.4445 102.39C93.8418 102.192 92.2814 100.404 93.6899 100.209C101.195 99.7433 108.48 101.255 115.906 101.89C116.569 102.782 118.711 103.08 119.854 102.722C118.054 109.357 121.939 113.872 127.76 115.224C136.775 117.296 144.617 109.229 142.26 100.838C144.991 99.4791 148.132 99.5374 151.106 100.253C146.135 118.554 175.598 117.733 170.997 98.4813C174.059 100.005 174.724 97.5556 173.117 97.2481Z" fill="black"/>
</svg>
