<svg width="240" height="324" viewBox="0 0 240 324" fill="none" xmlns="http://www.w3.org/2000/svg">
<path fill-rule="evenodd" clip-rule="evenodd" d="M194.637 251.934C193.785 247.123 193.005 242.299 192.295 237.465C191.959 235.17 191.63 232.872 191.335 230.571C191.128 228.959 190.813 227.115 191.909 225.921C193.452 224.241 194.854 222.802 195.043 220.395C195.22 218.13 194.455 215.661 193.976 213.462C192.972 208.851 191.722 204.297 190.341 199.787C188.938 195.204 187.4 190.664 185.839 186.133C184.38 181.897 182.977 177.623 181.077 173.558C177.47 165.845 171.369 160.133 163.829 156.319C161.953 155.37 158.128 151.984 156.169 151.226C154.367 150.529 154.374 152.564 152.601 151.797C151.184 151.184 149.864 150.367 149.071 148.998C148.209 147.512 146.049 145.433 145.72 143.703C145.023 140.036 145.778 136.914 143.161 134.154C140.839 131.703 137.717 130.024 134.487 129.123C127.38 127.14 117.903 128.526 113.616 135.132C111.568 138.287 110.853 142.1 108.089 144.674C105.676 146.922 106.216 148.459 103.091 149.618C102.914 149.684 98.117 148.654 97.9399 148.72C94.5212 147.988 91.2536 150.037 88.1172 151.226C83.4412 152.998 78.9893 155.304 74.8069 158.046C66.3733 163.574 59.15 170.752 53.195 178.875C47.1908 187.064 42.5322 196.244 39.215 205.838C38.4095 208.168 37.6859 210.527 37.0477 212.909C36.6904 214.241 36.3086 215.624 36.7436 216.989C37.0994 218.105 37.8908 218.936 38.8202 219.606C40.08 220.514 42.6069 221.105 42.5577 222.931C42.5201 224.32 42.0492 225.781 41.8193 227.153C41.5458 228.788 41.321 230.431 41.0962 232.073C40.0736 239.544 39.2778 247.057 38.9258 254.592C38.5793 262.011 38.2918 269.581 38.8062 276.998C38.8403 277.487 38.986 277.936 39.2212 278.315C39.0017 278.399 38.9848 278.809 39.2579 278.867C39.4493 278.907 39.6403 278.948 39.8317 278.988C40.2293 279.289 40.7252 279.474 41.2958 279.492C41.6827 279.504 42.0693 279.522 42.4557 279.541C46.5334 280.394 50.6104 281.2 54.7413 281.81C59.7627 282.551 64.7989 283.155 69.8508 283.647C80.2314 284.656 90.5303 284.321 100.925 283.777C111.303 283.234 121.675 283.107 132.064 283.377C142.462 283.648 152.857 284.1 163.257 284.285C174.877 284.492 186.479 284.175 198.064 283.251C199.653 283.124 200.636 281.86 200.322 280.281C198.445 270.825 196.318 261.432 194.637 251.934Z" fill="white"/>
<path fill-rule="evenodd" clip-rule="evenodd" d="M94.6975 148.487C95.7721 148.44 96.8677 148.614 97.9397 148.72C98.033 148.729 98.0685 148.873 97.9633 148.895C96.0449 149.296 94.1474 149.844 92.2632 150.401L91.4565 150.64C89.3318 151.269 87.2694 151.918 85.2125 152.756C81.113 154.428 77.2196 156.684 73.6363 159.275C59.838 169.256 49.8513 184.366 43.5492 200.01C41.8378 204.259 40.3876 208.613 39.213 213.041C38.9273 214.118 38.6586 215.199 38.4038 216.284C38.329 216.602 38.003 217.417 38.1818 217.742C38.3398 218.03 38.9542 218.208 39.2396 218.357L40.2032 218.857C42.0828 219.826 45.2138 221.419 45.5278 221.575L46.0174 221.816C54.0267 225.744 62.5846 229.075 71.5975 229.305L71.6681 228.535C72.0699 224.278 72.5973 219.999 73.7482 215.873C73.8102 215.651 74.0922 215.726 74.118 215.923C74.7592 220.808 74.5542 225.73 74.3305 230.637C73.9344 239.328 73.4083 248.015 72.9408 256.702C72.7067 261.048 72.4042 265.391 72.131 269.735C71.8574 274.087 71.7689 278.544 71.1442 282.861C71.0049 283.823 69.8785 284.346 69.0254 284.245C68.0814 284.132 67.3553 283.301 67.3509 282.347C67.3394 279.833 67.6553 277.288 67.8309 274.78C67.9975 272.397 68.1765 270.015 68.3599 267.633C69.03 258.94 69.8009 250.257 70.514 241.568C70.7666 238.486 71.0396 235.407 71.3206 232.328C61.7728 232.02 52.8528 228.482 44.3434 224.348C44.2202 227.146 43.9228 229.939 43.6348 232.725C42.8309 240.499 42.1221 248.271 41.5916 256.07C41.3237 260.009 41.1287 263.953 40.9589 267.897C40.8754 269.836 40.8074 271.774 40.7552 273.714C40.7378 274.36 40.722 275.007 40.708 275.654L40.679 277.135C40.6552 278.073 40.5599 278.943 39.7705 279.626C38.9687 280.32 37.8858 280.357 37.0923 279.626C36.03 278.647 36.2178 277.314 36.2493 276C36.2755 274.891 36.307 273.783 36.3435 272.675C36.4168 270.459 36.5104 268.243 36.6243 266.028C37.0228 258.285 37.819 250.573 38.8594 242.892L39.2656 239.927C40.0241 234.415 40.8569 228.777 42.5525 223.468C41.8923 223.139 41.234 222.808 40.5782 222.476C39.4149 221.887 38.2122 221.334 37.0815 220.684C36.1844 220.168 35.4108 219.46 35.1611 218.416C34.8826 217.252 35.3084 215.98 35.5914 214.845L35.6159 214.745C35.8933 213.602 36.1921 212.464 36.5073 211.331C37.7854 206.737 39.3659 202.232 41.2156 197.837C44.9191 189.038 49.6994 180.679 55.5387 173.121C60.7948 166.317 67.004 160.147 74.2813 155.52C77.839 153.258 81.6304 151.4 85.6401 150.087C87.5142 149.473 89.5534 148.939 91.5156 148.72C92.5741 148.601 93.634 148.533 94.6975 148.487ZM113.736 134.544C115.013 133.173 117.55 134.592 116.937 136.408C115.494 140.682 113.198 144.58 109.614 147.388C106.245 150.027 102.228 151.742 97.9015 151.376C97.8681 151.373 97.8392 151.364 97.8136 151.352L98.1865 151.858C101.114 155.819 104.201 159.725 107.923 162.963C115.506 169.559 125.831 173.117 135.801 170.586C143.645 168.595 150.555 162.39 152.588 154.482C152.296 154.613 151.95 154.658 151.57 154.575C149.944 154.222 148.334 152.511 147.285 151.284C146.151 149.957 145.265 148.524 144.615 146.904C143.427 143.94 143.045 140.123 144.668 137.252C144.869 136.898 145.33 137.096 145.37 137.442L145.432 137.981C145.744 140.672 146.134 143.275 147.403 145.729C148.023 146.929 148.767 148.101 149.673 149.106C150.158 149.644 150.683 150.158 151.25 150.609C151.803 151.049 152.472 151.366 152.968 151.871L153.058 151.967L153.061 151.95C153.186 150.885 153.933 150.415 154.664 150.445C155.371 150.473 156.202 150.785 156.523 150.934L156.554 150.948C161.487 153.317 166.031 156.405 170.307 159.831C179.15 166.917 185.776 176.179 188.986 187.086C190.561 192.44 191.465 197.956 192.42 203.446L193.007 206.81C193.898 211.879 194.893 217.047 196.904 221.762C197.424 222.981 197.023 224.125 195.748 224.605C194.155 225.204 192.557 225.784 190.956 226.356C191.742 229.73 192.221 233.221 192.81 236.611C194.062 243.818 195.596 250.979 196.912 258.176C197.584 261.856 198.191 265.549 198.863 269.229C199.186 271.001 199.524 272.771 199.852 274.543C200.029 275.498 200.189 276.456 200.358 277.413L200.387 277.572C200.484 278.076 200.606 278.598 200.467 279.103C200.309 279.679 199.859 280.086 199.458 280.499C199.128 280.839 198.651 280.841 198.246 280.656L198.113 280.594C197.39 280.256 196.824 279.919 196.568 279.103C196.406 278.587 196.347 278.005 196.241 277.473C196.038 276.454 195.845 275.433 195.663 274.409C195.298 272.36 194.943 270.31 194.595 268.258L194.271 266.337C193.157 259.715 192.1 253.054 191.566 246.362C191.328 243.394 191.077 240.428 190.823 237.461L190.633 235.236C190.392 232.42 190.098 229.533 190.056 226.678L189.099 227.018L184.428 228.67C183.269 229.08 181.795 229.919 180.548 229.766C179.938 229.691 179.473 229.499 179.114 229.15C179.544 235.223 180.126 241.285 180.902 247.316C181.608 252.804 182.391 258.285 183.316 263.74C183.773 266.442 184.244 269.141 184.755 271.832C185.01 273.179 185.274 274.523 185.546 275.866C185.681 276.536 185.842 277.206 185.948 277.882C186.069 278.655 185.856 279.131 185.424 279.768C185.069 280.29 184.359 280.559 183.784 280.198C183.022 279.72 182.625 279.305 182.401 278.434C182.197 277.643 182.073 276.817 181.916 276.016C181.625 274.537 181.344 273.056 181.072 271.574C180.504 268.473 179.981 265.364 179.514 262.246C177.867 251.263 176.822 240.187 176.294 229.093C176.034 223.62 175.953 218.142 176 212.663C176.023 209.854 176.115 207.038 176.313 204.237C176.515 201.401 176.933 198.622 177.306 195.813C177.32 195.714 177.459 195.709 177.465 195.813C177.642 198.962 177.919 202.107 178.055 205.264C178.184 208.276 178.241 211.293 178.344 214.307C178.48 218.268 178.668 222.232 178.916 226.192C179.367 225.7 180.045 225.415 180.724 225.526C181.708 225.32 182.767 224.804 183.704 224.49L187.24 223.309C189.098 222.688 190.957 222.071 192.822 221.473C191.154 215.861 190.012 210.165 189.037 204.387L188.602 201.788C187.741 196.672 186.812 191.554 185.253 186.6C183.613 181.392 181.159 176.55 177.904 172.165C174.696 167.844 170.792 164.039 166.773 160.48C163.332 157.433 159.651 154.682 156.142 151.719C156.178 151.915 156.186 152.131 156.154 152.369C155.408 157.832 152.559 162.92 148.588 166.704C140.612 174.307 128.805 175.884 118.596 172.319C108.721 168.871 99.9897 160.704 96.905 150.597C96.8522 150.425 97.0837 150.356 97.1767 150.483C97.3478 150.718 97.5198 150.952 97.6919 151.187C97.6803 151.094 97.7287 150.992 97.8436 150.948C101.443 149.557 104.977 147.586 107.675 144.797C108.99 143.437 110.138 141.897 111.043 140.235C111.477 139.44 111.867 138.616 112.178 137.764L112.257 137.544C112.634 136.477 112.949 135.389 113.736 134.544Z" fill="black"/>
<path fill-rule="evenodd" clip-rule="evenodd" d="M132.798 46.2808C144.794 46.2808 159.818 59.9701 164.215 65.7955C167.912 70.6932 167.389 95.9244 167.389 110.892C167.389 114.022 165.975 119.946 165.461 122.941C163.58 133.913 155.382 143.115 139.157 143.115C125.946 143.115 115.779 138.929 105.948 128.222C103.705 125.779 92.7509 134.524 90.5107 131.375C84.6593 131.375 79.7665 76.6819 91.255 60.2772C102.743 43.8726 120.802 46.2808 132.798 46.2808Z" fill="white"/>
<path fill-rule="evenodd" clip-rule="evenodd" d="M96.7432 50.1333C103.675 43.8245 112.909 40.7895 122.226 41.0135C127.052 41.1297 131.86 42.0491 136.417 43.6237C138.697 44.4141 140.904 45.4455 143.015 46.6122C143.776 47.0316 144.477 47.5231 145.152 48.0451L145.32 48.1762H145.322C147.133 48.8271 148.749 49.9959 150.215 51.3633C153.154 51.1287 156.116 51.3929 158.957 52.2996C162.912 53.5635 166.573 55.8778 169.145 59.1643C172.139 62.9904 173.135 67.6314 172.78 72.4224L172.714 73.2363C172.363 77.4685 171.734 82.9121 168.261 85.693C167.997 85.9043 167.706 86.0649 167.404 86.1622C169.641 89.996 171.477 94.2526 172.576 98.5515C176.769 114.971 173.545 132.095 168.502 147.921C168.088 149.225 166.117 150.091 165.114 148.817C163.322 146.539 160.719 144.801 157.791 144.476C155.985 144.275 154.187 144.639 152.48 143.819C151.81 143.495 151.164 142.967 150.699 142.324C147.817 143.417 144.714 143.933 141.635 143.806C136.584 143.599 131.184 141.849 127.709 138.011C127.151 137.395 127.01 136.703 127.138 136.079C127.574 135.924 128.021 135.808 128.482 135.735C132.889 138.334 137.747 140.07 142.968 140.179C145.985 140.242 148.927 139.82 151.373 137.936C151.903 137.528 152.389 137.076 152.839 136.591C157.953 133.3 161.559 127.71 163.273 121.722C164.871 116.138 164.674 110.324 164.125 104.596L163.835 101.574C163.413 97.1376 163.021 92.6883 162.911 88.2334L162.944 88.2317C164.024 88.1619 164.032 86.4705 162.944 86.5409C160.13 86.7231 157.338 86.2613 154.532 86.4625C154.509 85.1358 154.413 83.8151 154.024 82.5356C153.801 81.8045 152.529 81.6604 152.394 82.5356C152.214 83.7065 152.148 84.8708 152.128 86.047C147.93 85.9912 143.736 85.6378 139.537 85.783C138.763 84.9566 138.516 83.4913 138.154 82.472C138.101 82.3219 138.048 82.174 137.993 82.0239C137.675 83.4805 137.223 84.9052 136.63 86.2999L135.6 86.3034C129.758 86.3309 123.796 86.5056 118.091 87.7194C117.694 87.4148 117.458 86.8835 117.395 86.401C116.981 83.2612 116.39 80.2049 115.343 77.2128L115.194 76.7907C115.181 76.7556 115.168 76.7184 115.155 76.6793C114.384 77.9248 113.463 79.0857 112.46 80.1668C111.868 80.804 111.248 81.4133 110.611 82.0053C109.993 82.6922 109.354 83.3687 108.734 84.0577C108.759 84.1831 108.78 84.3103 108.797 84.4399C108.986 85.8696 109.006 87.3197 108.867 88.755C108.616 91.3497 107.884 93.85 106.708 96.163L106.67 96.3946C106.492 97.4786 106.238 98.5988 105.644 99.4151C106.385 100.245 106.955 101.237 107.286 102.339C107.581 103.32 106.224 104.17 105.521 103.367C104.962 102.729 104.341 102.202 103.659 101.781C103.616 101.839 103.538 101.868 103.451 101.819C101.552 100.764 98.3255 101.083 96.4284 102.077C94.0685 103.311 93.1474 105.845 93.4093 108.413C93.6608 110.867 94.734 113.735 96.815 114.992C97.7699 115.569 98.5136 115.618 99.5277 115.341C99.8519 115.253 100.254 114.983 100.426 114.849L100.596 114.712C101.261 114.187 101.88 113.827 102.665 113.813C103.468 113.563 104.274 113.91 104.581 114.752L104.6 114.806C104.744 115.235 105.006 115.774 104.949 116.43C104.89 117.131 104.569 117.77 104.089 118.283C104.007 118.372 103.918 118.461 103.827 118.543C112.088 127.49 113.148 141.43 108.912 152.606C108.728 153.097 108.532 153.581 108.327 154.061C107.619 155.705 104.894 155.195 104.547 153.566C104.444 153.078 104.33 152.592 104.205 152.11C103.976 151.219 103.714 150.337 103.418 149.468L103.305 149.142C103.054 148.424 102.819 147.699 102.566 146.98L102.54 146.898C102.531 146.866 102.52 146.828 102.509 146.786L102.08 147.722L100.776 150.548C100.166 151.867 98.2282 151.15 98.1561 149.879L98.1544 149.836C98.1481 149.601 98.1396 149.369 98.1248 149.138C98.0319 147.411 97.734 145.733 97.2608 144.091L97.09 144.303C94.5476 147.448 91.5638 150.395 87.4706 151.121C86.4439 151.302 85.2819 150.229 85.9875 149.191C86.2791 148.762 86.5601 148.322 86.8263 147.876C86.596 147.769 86.3784 147.657 86.1777 147.542C84.6248 146.67 83.3319 145.427 82.2629 144.017C79.996 141.029 79.1847 137.267 78.9861 133.585C78.7748 129.694 79.1171 125.592 80.1798 121.838C80.6403 120.215 81.2636 118.657 81.984 117.146C81.9333 117.011 81.8847 116.876 81.8361 116.74C81.0586 114.572 80.4206 112.355 79.8903 110.112C78.8213 105.585 78.2467 100.914 78.177 96.2626C78.0502 87.929 79.4868 79.4623 82.5143 71.691C85.641 63.6766 90.3439 55.956 96.7432 50.1333ZM92.8498 122.994C92.2757 122.09 90.8391 122.905 91.3722 123.815L91.3921 123.848C92.3026 125.283 92.7294 126.915 93.2533 128.515C93.5892 129.544 95.2223 129.104 94.8822 128.064L94.7696 127.717C94.2482 126.095 93.7726 124.446 92.8498 122.994ZM97.85 105.731L98.2314 105.546C99.4346 104.972 100.489 104.581 101.911 105.082C103.814 105.752 105.853 107.885 104.566 109.954C104.093 110.717 103.252 111.021 102.386 110.841C100.926 110.539 100.549 109.223 99.8077 108.143L99.6802 107.96C99.2284 107.307 98.6571 106.404 97.9049 106.147C97.7338 106.088 97.662 105.822 97.85 105.731ZM98.9234 61.8001L99.0463 61.6899C99.8639 60.9671 98.6639 59.7751 97.8505 60.4937C94.128 63.7844 92.835 68.935 90.904 73.3248C90.4709 74.3118 91.9266 75.1741 92.3639 74.1786C94.2059 69.9898 95.4285 64.9789 98.9234 61.8001ZM143.657 60.3605C142.685 59.9221 141.834 61.3381 142.769 61.8043L142.804 61.821C146.091 63.3068 147.49 66.6715 148.829 69.7952C149.256 70.7928 150.712 69.9326 150.289 68.9435L150.047 68.383C148.65 65.1638 147.02 61.8825 143.657 60.3605ZM148.81 58.3273C147.779 57.9701 147.337 59.6018 148.36 59.9589C151.146 60.929 153.058 63.0214 154.67 65.4139C155.274 66.31 156.739 65.4646 156.128 64.56C154.256 61.7829 152.034 59.4517 148.81 58.3273Z" fill="black"/>
<path fill-rule="evenodd" clip-rule="evenodd" d="M143.152 128.274C141.732 127.695 140.465 126.728 139.538 125.493C139.216 125.063 139.133 124.61 139.2 124.195C139.276 123.729 139.552 123.306 139.928 123.023C140.305 122.739 140.777 122.598 141.233 122.67C141.63 122.732 142.024 122.949 142.337 123.399L142.402 123.489C142.953 124.235 143.67 124.846 144.488 125.241C145.276 125.621 146.158 125.798 147.07 125.695C148.808 125.499 150.005 124.559 151.278 123.282C151.436 123.121 151.594 122.955 151.752 122.786C151.852 122.633 151.991 122.534 152.146 122.483C152.317 122.425 152.511 122.429 152.689 122.491C152.86 122.55 153.013 122.664 153.116 122.815C153.213 122.958 153.269 123.135 153.251 123.339C153.134 124.661 152.443 125.842 151.461 126.769C150.37 127.799 148.924 128.511 147.563 128.761C146.064 129.036 144.536 128.839 143.152 128.274ZM148.271 107.866C149.866 108.836 152.297 111.098 150.581 113.503C148.56 115.624 145.652 113.193 144.219 112.093C142.889 111.241 141.396 113.433 142.629 114.428C152.986 122.099 157.19 108.12 149.078 106.726C148.184 106.572 147.853 107.566 148.271 107.866ZM129.711 98.9429C129.887 96.7541 133.219 96.257 133.551 98.423C133.847 100.363 133.498 102.145 132.624 103.892C131.79 105.561 129.692 104.783 129.533 103.263C129.32 101.226 129.601 100.304 129.711 98.9429ZM155.076 97.9738C155.541 97.3652 156.212 96.9496 157.015 97.1845C159.526 97.9185 158.786 101.485 157.904 103.22C157.425 104.163 155.876 104.402 155.176 103.572C154.035 102.219 153.489 99.5156 154.939 98.1825C154.979 98.1136 155.023 98.044 155.076 97.9738ZM132.589 89.3654L132.986 89.2959C134.213 89.0836 135.738 88.8796 136.606 89.8665C137.067 90.3898 137.225 91.3624 136.606 91.8633C135.518 92.7446 134.314 92.4031 133.01 92.4777C131.935 92.5394 130.902 92.7174 129.867 93.0135C127.595 93.663 125.744 94.8486 123.804 96.1506C123.55 96.3213 123.29 95.9956 123.411 95.7574C124.531 93.563 126.701 91.7604 128.875 90.6616C130.036 90.0751 131.305 89.5885 132.589 89.3654ZM152.787 88.3823L153.091 88.4445C156.394 89.1353 160.687 90.5153 162.251 93.7615C162.311 94.2205 162.248 94.3189 162.196 94.3832L162.179 94.4046C162.137 94.4595 162.104 94.5351 161.905 94.5976C161.849 94.5844 161.794 94.5705 161.737 94.5557C161.02 94.3677 160.453 94.1087 159.904 93.84L159.308 93.5465C158.617 93.2076 157.92 92.881 157.181 92.6399C155.605 92.1254 153.983 91.7631 152.337 91.5696C151.98 91.5277 151.636 91.4072 151.365 91.2006C151.107 91.0046 150.911 90.7332 150.821 90.3724C150.705 89.9056 150.738 89.5521 150.989 89.1309C151.177 88.8146 151.447 88.5953 151.756 88.4694C152.071 88.3411 152.43 88.3108 152.787 88.3823Z" fill="black"/>
<path fill-rule="evenodd" clip-rule="evenodd" d="M214.507 97.1142C211.127 100.198 213.299 107.925 214.616 105.836C214.813 103.902 215.417 100.196 217.376 99.4458C231.791 98.8308 228.814 134.487 201.963 130.098C184.854 128.943 166.784 104.157 150.696 119.241C133.216 104.996 113.478 126.351 95.477 129.276C80.8415 134.011 58.9702 125.316 62.9089 107.267C63.8928 101.97 71.2145 95.9114 75.6986 101.286C77.0233 102.563 75.3405 107.239 76.7332 106.273C78.9012 103.877 78.3363 100.05 76.3326 97.6637C73.014 93.7119 67.0985 95.4408 63.6574 98.2316C48.1328 113.51 66.8313 136.574 85.5449 135.05C106.052 137.559 133.94 109.049 148.036 122.899C149.473 124.311 152.174 124.312 153.424 122.9C165.408 109.362 188.536 137.03 205.243 135.055C223.01 136.674 237.23 115.22 226.975 100.052C224.42 96.1957 218.28 93.2892 214.507 97.1142Z" fill="black"/>
</svg>
