<svg width="240" height="324" viewBox="0 0 240 324" fill="none" xmlns="http://www.w3.org/2000/svg">
<path fill-rule="evenodd" clip-rule="evenodd" d="M198.116 286.313C202.199 286.116 200.557 278.971 200.264 276.347C197.031 266.764 197.791 256.308 196.52 246.263C195.728 236.886 194.71 227.538 193.854 218.168C192.173 199.147 180.099 160.427 166.321 154.2C164.586 146.582 157.417 139.47 148.348 139.47C142.162 132.145 134.716 126.99 125.166 128.031C121.22 128.21 117.392 132.398 113.611 133.206C111.494 133.498 92.7034 132.746 88.9395 134.983C86.3176 136.329 83.9508 138.818 84.7217 141.986C85.9517 145.825 82.1292 141.672 74.1554 145.769C57.8955 155.538 67.6117 168.607 68.0423 169.012C57.8955 183.135 49.0268 194.593 44.9233 211.855C42.2639 224.671 42.5633 237.902 40.335 250.784C39.5483 255.25 38.3413 259.564 37.0352 263.902C35.6197 269.578 34.9315 283.727 34.1512 283.853C32.73 284.206 34.9726 287.126 36.4785 287.128C78.2301 294.056 120.64 287.415 162.615 286.33C174.445 285.918 186.287 285.823 198.116 286.313Z" fill="white"/>
<path fill-rule="evenodd" clip-rule="evenodd" d="M134.835 170.259C134.854 170.067 135.112 170.068 135.132 170.259L135.427 173.105C135.785 176.582 136.131 180.052 136.381 183.545C136.693 187.901 136.902 192.255 137.002 196.621C137.353 211.825 137.423 227.037 137.452 242.244C139.508 242.102 141.564 241.965 143.621 241.832C145.017 241.742 146.413 241.655 147.809 241.57L151.368 241.354L152.833 241.264C153.823 241.203 154.948 240.954 155.641 241.831C155.918 242.182 156.057 242.639 155.799 243.056C155.203 244.018 154.287 243.984 153.252 244.026C152.275 244.065 151.298 244.104 150.321 244.142C148.228 244.223 146.134 244.3 144.04 244.358C141.843 244.42 139.646 244.47 137.449 244.508C137.427 250.928 137.162 257.34 136.874 263.753L136.745 266.639C136.393 274.443 136.015 282.254 135.478 290.048C135.434 290.686 134.532 290.685 134.488 290.048C133.884 281.271 133.485 272.475 133.089 263.686C132.802 257.314 132.635 250.94 132.556 244.565C132.265 244.566 131.975 244.57 131.685 244.572C123.44 244.607 115.197 244.643 106.952 244.566C106.965 244.582 106.979 244.599 106.988 244.62C107.585 246.029 107.641 247.827 107.627 249.34C107.61 251.074 107.377 252.787 106.977 254.474C105.547 260.516 101.857 265.928 97.6542 270.402L97.517 270.547C96.5257 271.595 95.3884 272.648 94.7798 273.983C94.1581 275.345 93.9423 276.939 93.6355 278.404L93.5996 278.572L92.4001 284.115C92.0189 285.876 91.9108 288.443 90.5177 289.713C89.2179 290.899 87.4961 290.28 86.8845 288.754C86.4068 287.563 86.8826 286.255 87.1655 285.064L89.3819 275.744C89.7461 274.224 90.1441 272.694 90.9301 271.328C91.7352 269.93 92.9156 268.916 94.12 267.879C96.4006 265.915 98.4943 263.666 100.265 261.231C102.035 258.797 103.548 256.114 104.608 253.293C105.14 251.881 105.575 250.414 105.875 248.935C106.16 247.531 106.158 246.077 106.463 244.689C106.484 244.593 106.565 244.527 106.658 244.498C106.636 244.436 106.669 244.352 106.756 244.347L113.499 243.913C119.493 243.527 125.487 243.13 131.475 242.677L132.534 242.6C132.452 234.094 132.521 225.587 132.675 217.078C132.816 209.275 132.819 201.47 133.05 193.668C133.166 189.796 133.415 185.933 133.691 182.069C133.974 178.117 134.428 174.199 134.835 170.259ZM71.5196 215.501C71.4478 215.068 71.9927 214.8 72.2439 215.196C75.1152 219.724 76.4996 224.641 77.0832 229.94C77.5987 234.616 77.4468 239.359 77.1901 244.048C76.9163 249.048 76.5968 254.048 76.2738 259.045L75.7775 266.71L74.5321 285.923C74.4429 287.298 74.1311 288.547 72.9482 289.186C72.7984 289.311 72.6423 289.424 72.4604 289.521C71.8213 289.863 70.9737 289.69 70.6042 289.034L70.7524 289.131C70.8814 289.213 70.7365 289.099 70.3175 288.791L69.962 288.331C69.7036 287.943 69.5386 287.561 69.4722 287.099C69.3691 286.381 69.5027 285.594 69.5496 284.873L70.3659 272.274C71.0008 262.479 71.7421 252.688 72.3009 242.888C72.5612 238.321 72.7435 233.749 72.6201 229.174C72.4972 224.624 72.2654 219.997 71.5196 215.501ZM96.3593 131.161L96.5186 131.134C102.222 130.186 108.423 130.364 113.636 133.114C113.679 133.137 113.659 133.208 113.611 133.206L111.933 133.139C106.622 132.931 101.327 132.808 96.1052 134.056L95.5706 134.185C93.69 134.644 91.726 135.206 90.2155 136.448C88.7717 137.636 88.0527 139.468 87.3615 141.155L87.269 141.378C86.5676 143.044 85.6799 144.624 84.1426 145.665C82.1514 147.014 79.7567 146.849 77.4735 147.032C73.4535 147.356 70.1668 150.27 68.5316 153.837C67.5414 155.996 67.1191 158.417 67.0354 160.779C66.9925 161.981 66.9864 163.231 67.1465 164.425C67.1977 164.807 67.6696 166.198 67.9103 166.165C68.445 166.091 68.9339 166.37 69.1005 166.797C70.4214 165.521 71.7803 164.281 73.1829 163.086C76.6791 160.107 80.445 157.408 84.4109 155.088C87.4377 153.317 90.6304 151.563 93.9365 150.237C93.6746 150.231 93.4162 150.283 93.1663 150.413C93.0568 150.47 92.948 150.333 93.0344 150.242C94.0758 149.146 95.3231 148.99 96.5806 149.282C96.8489 149.197 97.1174 149.114 97.387 149.036C97.5211 148.997 97.5879 149.182 97.4784 149.253L97.1696 149.451C98.5413 149.91 99.8882 150.814 100.954 151.527C104.017 153.575 106.713 156.078 109.446 158.535L109.943 158.98C112.349 161.129 114.816 163.217 117.549 164.941C118.98 165.843 120.482 166.678 122.059 167.298C123.41 167.831 125.612 168.167 126.245 169.596C126.808 170.28 126.573 171.153 125.913 171.613C124.802 172.837 122.578 172.046 121.253 171.537C119.656 170.922 118.109 170.183 116.634 169.317C113.769 167.635 111.128 165.543 108.667 163.318C106.098 160.994 103.674 158.525 101.175 156.128C100.092 155.089 99.0338 154.027 97.9492 152.99L97.4045 152.473C96.851 151.954 96.0623 151.145 95.2191 150.655C93.6306 151.603 92.0176 152.511 90.4434 153.484C88.246 154.841 86.1133 156.296 84.0135 157.799C79.9711 160.693 76.1404 163.934 72.5841 167.408C66.0619 173.778 60.5051 181.053 55.6508 188.756L55.2822 189.343C52.5237 193.752 49.9151 198.303 48.0655 203.174C46.0303 208.535 45.0405 214.173 44.5029 219.863C43.9692 225.513 43.7892 231.191 43.1928 236.836C42.5812 242.625 41.3761 248.286 40.0054 253.937L39.6785 255.277C38.4382 260.337 37.1581 265.398 36.5205 270.578C36.1802 273.345 35.9755 276.15 36.0217 278.939C36.0682 281.745 36.5089 284.488 36.8645 287.265C37.0007 288.328 35.9545 289.216 35.0184 289.357C33.9418 289.518 33.0169 288.831 32.6822 287.831C31.639 284.712 31.4495 281.264 31.4822 277.991C31.5152 274.667 31.9392 271.365 32.5358 268.099C33.7092 261.674 35.52 255.383 37.0348 249.035C38.3698 243.44 39.2657 237.836 39.7487 232.104C40.25 226.157 40.5503 220.191 41.4648 214.287C42.3676 208.459 44.0662 202.892 46.6278 197.578C48.9602 192.739 51.8676 188.185 54.9158 183.77C58.6174 178.41 62.6829 173.309 67.2272 168.661C66.8191 168.644 66.3999 168.512 66.015 168.272C64.8374 167.537 64.2889 166.099 64.1203 164.787C63.7257 161.717 63.821 158.511 64.6103 155.509C65.8836 150.667 69.1882 146.364 73.9777 144.619C75.2104 144.169 76.5209 144.005 77.8274 143.973C79.0671 143.942 80.4211 144.104 81.6173 143.711C83.5213 143.085 84.3375 140.841 85.0523 139.141L85.0853 139.063C86.002 136.896 87.1022 135.038 89.0877 133.685C91.206 132.242 93.8601 131.585 96.3593 131.161ZM150.549 139.731C152.263 139.136 154.405 139.676 156.081 140.195C157.949 140.774 159.674 141.841 161.153 143.108C162.714 144.443 164.004 146.093 164.915 147.935L165.002 148.113C165.834 149.822 166.782 152.168 166.363 154.046C166.351 154.099 166.337 154.151 166.321 154.2C169.722 155.875 172.862 157.972 175.596 160.631C178.781 163.726 181.477 167.248 183.759 171.053C192.821 186.166 194.416 204.317 195.486 221.552L195.753 225.922C196.334 235.359 197.014 244.773 198.781 254.08L198.91 254.751C200.798 264.495 203.501 274.313 203.227 284.309C203.145 287.304 198.721 287.283 198.593 284.309C198.11 273.113 195.498 262.303 193.73 251.283C190.618 231.893 192.177 211.904 187.768 192.708C186.038 185.175 183.357 177.868 179.53 171.144C177.639 167.822 175.476 164.613 172.942 161.747C170.762 159.281 168.496 156.908 165.948 154.835C165.134 155.651 163.508 155.235 163.082 154.046C162.79 153.229 162.876 152.273 162.688 151.417C162.514 150.622 162.275 149.835 161.955 149.087C161.318 147.596 160.384 146.164 159.305 144.957C158.139 143.652 156.8 142.569 155.301 141.674C153.791 140.773 152.141 140.504 150.549 139.845C150.495 139.823 150.49 139.751 150.549 139.731ZM157.208 243.355C157.21 243.276 157.303 243.239 157.36 243.292C157.961 243.845 158.324 244.638 158.766 245.319C159.276 246.103 159.812 246.872 160.373 247.62C161.498 249.12 162.751 250.534 164.014 251.919C165.188 253.207 166.439 254.44 167.738 255.603C169.144 256.863 170.72 257.988 171.998 259.383C174.665 262.294 175.096 266.291 175.658 270.043L175.72 270.449C176.063 272.675 176.371 274.908 176.648 277.144C176.783 278.232 176.917 279.32 177.027 280.411L177.06 280.756C177.158 281.824 177.185 282.906 176.572 283.839C175.916 284.837 174.425 285.187 173.538 284.23C172.014 282.586 172.3 279.667 172.102 277.552C171.938 275.804 171.752 274.057 171.545 272.313L171.439 271.442C171.194 269.458 170.995 267.435 170.541 265.485C170.141 263.769 169.379 262.473 168.129 261.23C166.869 259.977 165.56 258.808 164.398 257.459C163.165 256.028 162.052 254.494 161.05 252.892C160.193 251.523 159.506 250.032 158.876 248.544L158.772 248.296C158.163 246.844 157.16 244.954 157.208 243.355ZM179.203 180.997C179.216 180.795 179.515 180.791 179.52 180.997C179.558 182.739 179.594 184.48 179.63 186.222C179.921 200.256 179.742 214.323 181.149 228.309C181.813 234.903 183.035 241.401 184.45 247.871C185.174 251.182 185.933 254.485 186.654 257.796C187.357 261.023 188.111 264.266 188.669 267.523C189.217 270.724 189.708 273.95 189.928 277.192L189.956 277.615C190.051 279.186 190.503 281.496 189.639 282.888C188.702 284.396 186.909 284.423 185.905 282.984C184.962 281.632 185.197 279.228 185.03 277.615C184.861 275.973 184.682 274.328 184.479 272.689C184.082 269.492 183.56 266.302 183.016 263.127C181.885 256.514 180.243 249.985 179.031 243.383C177.79 236.618 176.907 229.804 176.87 222.916C176.833 215.97 177.568 209.037 177.939 202.106C178.316 195.066 178.744 188.032 179.203 180.997ZM112.932 137.346C113.309 136.077 114.638 135.284 115.935 135.64C117.123 135.967 118.105 137.41 117.64 138.645C117.133 139.992 116.247 141.14 115.5 142.365C114.81 143.496 113.803 144.387 113.101 145.498L113.875 146.334C114.263 146.75 114.651 147.165 115.044 147.572L116.395 148.972C117.447 150.059 118.506 151.142 119.595 152.192C122.796 155.281 126.048 158.268 129.633 160.913C130.449 161.515 131.271 162.114 132.117 162.674L132.432 162.883C133.012 163.263 133.659 163.637 134.36 163.572C136.063 163.416 137.601 161.607 138.771 160.481L138.832 160.423C141.732 157.662 144.417 154.645 146.765 151.4C147.286 150.679 147.79 149.946 148.282 149.204C147.147 147.878 147.418 145.289 147.355 143.681C147.311 142.55 147.308 141.419 147.302 140.287L147.299 140.059C147.285 139.326 147.252 138.624 147.727 138.021C147.755 137.986 147.812 137.987 147.847 138.005C148.498 138.347 148.699 138.918 148.976 139.559L149.005 139.625C149.343 140.394 149.667 141.171 149.995 141.944C150.337 142.754 150.652 143.576 150.97 144.395C151.119 144.777 151.26 145.159 151.399 145.544C151.483 145.79 151.57 146.035 151.66 146.279L151.681 146.298C151.799 146.398 151.9 146.504 151.986 146.614C152.349 146.795 152.638 147.126 152.773 147.613C153.068 148.672 152.458 149.536 151.914 150.376C149.704 153.792 147.185 157.046 144.385 159.999C142.994 161.465 141.531 162.866 140.008 164.195L139.741 164.426C138.373 165.602 136.887 166.716 135.06 166.992C132.921 167.313 131.181 166.249 129.544 165.024L129.38 164.901C127.828 163.726 126.308 162.509 124.834 161.236C121.83 158.642 118.972 155.856 116.436 152.8C113.969 149.827 111.53 146.503 110.01 142.926C109.917 142.708 110.161 142.48 110.352 142.662C111.095 143.369 111.809 144.115 112.516 144.87C112.535 143.758 112.33 142.637 112.444 141.518C112.583 140.158 112.543 138.656 112.932 137.346Z" fill="black"/>
<path fill-rule="evenodd" clip-rule="evenodd" d="M161.861 82.2444C162.091 80.1045 159.587 74.3956 159.648 75.5536C155.633 69.3612 147.799 66.9261 141.039 64.8819C126.69 60.143 115.484 65.8661 105.402 76.0095C99.4501 81.5716 93.7864 87.7847 90.7985 95.4844C84.9204 110.173 93.7313 126.921 107.131 133.938C108.212 134.524 109.39 135.08 110.42 135.787C115.959 138.988 122.463 140.096 128.635 141.489C140.182 144.129 154.684 142.871 161.489 131.873C166.105 124.068 164.879 114.606 164.517 105.944C163.975 98.3547 163.022 89.7782 161.861 82.2444Z" fill="white"/>
<path fill-rule="evenodd" clip-rule="evenodd" d="M100.14 60.5842C107.621 53.5881 118.678 50.1972 128.788 50.7902C134.263 51.1115 139.54 52.484 144.488 54.842C146.036 55.5794 147.544 56.4426 148.935 57.459C149.873 57.8969 150.79 58.3707 151.678 58.886C156.127 61.4645 159.567 65.37 161.768 70.0028C162.819 72.214 163.648 74.5458 164.118 76.9483L164.194 77.3437C164.433 78.5493 164.907 80.1377 164.308 81.2659C163.91 82.0139 163.078 82.4854 162.29 82.422C162.461 83.1152 162.666 83.8082 162.797 84.5059L163.154 86.408C163.213 86.7251 163.272 87.0421 163.329 87.3591C163.674 89.2486 163.991 91.1357 164.244 93.04C164.775 97.0051 165.254 100.979 165.677 104.958C165.979 107.804 166.263 110.654 166.539 113.502L166.703 115.211C166.987 118.153 167.208 121.12 167.016 124.075C166.726 128.507 165.364 132.551 162.719 135.841C162.971 136.447 163.056 137.13 163.245 137.883C163.508 138.927 163.85 139.948 164.214 140.961C164.384 141.359 164.555 141.757 164.724 142.156L165.168 143.213L165.514 143.906C165.889 144.66 166.252 145.425 166.483 146.205C167.977 147.003 169.198 148.306 169.258 150.09C169.31 151.703 168.474 153.41 167.06 154.232C165.666 155.044 164.23 154.725 162.895 154.105C161.73 154.444 160.484 154.487 159.331 154.124C158.443 154.928 157.298 155.484 156.028 155.633C154.114 155.861 152.297 155.325 150.541 154.62L150.419 154.571C150.364 154.549 150.309 154.526 150.256 154.503C148.237 154.406 146.225 153.607 144.793 152.191C144.326 151.732 143.922 151.208 143.597 150.62C142.416 148.484 142.232 145.861 143.394 143.741C143.145 143.752 142.894 143.762 142.644 143.769C139.32 143.863 135.99 143.694 132.674 143.475L131.893 143.422C129.747 143.267 126.583 142.904 126.522 140.243C126.514 139.903 126.865 139.647 127.186 139.738C128.405 140.082 129.603 140.624 130.866 140.818C132.518 141.074 134.229 141.101 135.898 141.194L136.378 141.221C139.744 141.405 143.231 141.518 146.542 140.85C149.014 140.353 151.589 139.448 153.854 138.328C156.028 137.25 158.003 135.841 159.596 134C163.106 129.95 163.57 124.238 163.399 119.115C163.192 112.996 162.474 106.886 162.068 100.776L161.885 98.0307C161.733 95.7416 161.595 93.4493 161.538 91.1592C161.496 89.4874 161.523 87.8114 161.531 86.1396C161.536 85.3048 161.525 84.4657 161.544 83.6309C161.555 83.1617 161.61 82.7031 161.65 82.2442C161.464 82.1472 161.291 82.0117 161.134 81.8323C161.012 81.6907 160.917 81.5407 160.851 81.3885C160.063 81.1579 159.698 80.8514 159.187 80.1563C158.756 79.5709 158.267 79.0298 157.746 78.5226C156.634 77.4447 155.365 76.5634 154.023 75.7959C151.249 74.2089 148.211 73.1479 145.148 72.2772C140.457 70.9457 135.586 70.2609 130.826 69.1912C129.514 71.0215 128.124 72.7971 126.67 74.5154C122.134 79.8752 116.933 84.6536 111.36 88.9147C110.225 89.7833 109.076 90.6393 107.91 91.4697C106.374 93.8128 104.821 96.1447 103.246 98.4609L102.569 99.4526L102.558 99.4716C102.465 99.6132 102.376 99.7548 102.288 99.8964C102.1 100.197 101.889 100.486 101.665 100.767C101.519 100.98 101.371 101.194 101.221 101.408C101.508 101.562 101.77 101.735 101.975 101.927C102.394 102.323 102.324 102.95 101.975 103.352C100.851 104.65 99.0724 102.959 97.7795 102.509C96.3788 102.935 95.2105 104.603 94.6295 105.877C93.7929 107.714 93.4569 109.929 93.8351 111.918C94.1814 113.735 95.1154 115.306 96.6682 116.291C96.7231 116.324 96.7821 116.361 96.8393 116.392C96.8414 116.397 96.8414 116.397 96.8436 116.394C96.8964 116.428 96.9513 116.46 97.0062 116.49C97.7351 116.891 98.5358 117.128 99.3659 117.185C99.8412 117.219 100.338 117.193 100.813 117.25C101.301 117.307 101.703 117.531 102.172 117.65C102.689 117.783 103.023 118.478 102.698 118.945C102.537 119.176 102.385 119.396 102.222 119.592C102.757 120.222 103.222 120.917 103.642 121.579C104.217 122.485 104.726 123.447 105.191 124.428C105.62 124.992 106.029 125.567 106.427 126.155C108.677 129.49 110.398 133.205 111.457 137.088C112.505 140.928 113.16 145.241 112.19 149.162C111.296 152.768 108.687 155.754 104.825 155.947C104.019 155.986 103.227 155.896 102.481 155.691C100.844 156.703 98.8149 157.212 96.9991 157.271C95.5299 157.32 93.9217 157.01 92.7219 156.122C91.2986 156.741 89.7547 157.093 88.4121 157.173C86.9098 157.263 85.3375 156.853 84.1128 156.042C82.9474 157.04 81.69 157.883 80.2612 158.462C77.8041 159.455 74.8802 159.332 72.6302 157.847C70.376 156.359 69.2288 153.687 69.9175 151.037C70.5513 148.594 72.5436 146.801 74.4154 145.258L74.7852 144.955C76.6368 143.443 78.5066 141.98 79.695 139.85C80.9562 137.591 81.4168 134.966 81.5415 132.408C81.8119 126.778 80.6668 121.198 80.3182 115.598C79.9591 109.813 80.1598 104.011 80.9478 98.2688C82.4795 87.114 86.5105 76.1787 93.8034 67.4835C94.8585 66.2254 95.9879 65.0262 97.1782 63.8895C98.0879 62.6992 99.0712 61.5835 100.14 60.5842ZM197.149 124.276C197.189 124.278 197.227 124.28 197.263 124.295C197.287 124.305 197.308 124.321 197.326 124.339L197.504 124.517C197.567 124.58 197.563 124.677 197.504 124.741C197.452 124.798 197.358 124.8 197.297 124.755L197.28 124.741L197.096 124.556C197.076 124.535 197.059 124.511 197.05 124.481C197.041 124.451 197.041 124.417 197.039 124.386C197.037 124.328 197.092 124.276 197.149 124.276ZM98.0265 107.008C99.7208 106.495 101.753 107.716 102.763 109.006C103.27 109.652 103.414 110.538 102.763 111.174C102.21 111.715 101.128 111.814 100.593 111.174C99.987 110.445 99.4927 109.434 98.6265 108.968C97.6863 108.46 96.4272 108.587 96.2053 109.823C96.1673 110.033 95.8673 109.963 95.8546 109.775C95.7722 108.524 96.8687 107.357 98.0265 107.008Z" fill="black"/>
<path fill-rule="evenodd" clip-rule="evenodd" d="M143.152 128.274C141.732 127.695 140.465 126.728 139.538 125.493C139.216 125.063 139.133 124.61 139.2 124.195C139.276 123.729 139.552 123.306 139.928 123.023C140.305 122.739 140.777 122.598 141.233 122.67C141.63 122.732 142.024 122.949 142.337 123.399L142.402 123.489C142.953 124.235 143.67 124.846 144.488 125.241C145.276 125.621 146.158 125.798 147.07 125.695C148.808 125.499 150.005 124.559 151.278 123.282C151.436 123.121 151.594 122.955 151.752 122.786C151.852 122.633 151.991 122.534 152.146 122.483C152.317 122.425 152.511 122.429 152.689 122.491C152.86 122.55 153.013 122.664 153.116 122.815C153.213 122.958 153.269 123.135 153.251 123.339C153.134 124.661 152.443 125.842 151.461 126.769C150.37 127.799 148.924 128.511 147.563 128.761C146.064 129.036 144.536 128.839 143.152 128.274ZM148.271 107.866C149.866 108.836 152.297 111.098 150.581 113.503C148.56 115.624 145.652 113.193 144.219 112.093C142.889 111.241 141.396 113.433 142.629 114.428C152.986 122.099 157.19 108.12 149.078 106.726C148.184 106.572 147.853 107.566 148.271 107.866ZM129.711 98.9429C129.887 96.7541 133.219 96.257 133.551 98.423C133.847 100.363 133.498 102.145 132.624 103.892C131.79 105.561 129.692 104.783 129.533 103.263C129.32 101.226 129.601 100.304 129.711 98.9429ZM155.076 97.9738C155.541 97.3652 156.212 96.9496 157.015 97.1845C159.526 97.9185 158.786 101.485 157.904 103.22C157.425 104.163 155.876 104.402 155.176 103.572C154.035 102.219 153.489 99.5156 154.939 98.1825C154.979 98.1136 155.023 98.044 155.076 97.9738ZM132.589 89.3654L132.986 89.2959C134.213 89.0836 135.738 88.8796 136.606 89.8665C137.067 90.3898 137.225 91.3624 136.606 91.8633C135.518 92.7446 134.314 92.4031 133.01 92.4777C131.935 92.5394 130.902 92.7174 129.867 93.0135C127.595 93.663 125.744 94.8486 123.804 96.1506C123.55 96.3213 123.29 95.9956 123.411 95.7574C124.531 93.563 126.701 91.7604 128.875 90.6616C130.036 90.0751 131.305 89.5885 132.589 89.3654ZM152.787 88.3823L153.091 88.4445C156.394 89.1353 160.687 90.5153 162.251 93.7615C162.311 94.2205 162.248 94.3189 162.196 94.3832L162.179 94.4046C162.137 94.4595 162.104 94.5351 161.905 94.5976C161.849 94.5844 161.794 94.5705 161.737 94.5557C161.02 94.3677 160.453 94.1087 159.904 93.84L159.308 93.5465C158.617 93.2076 157.92 92.881 157.181 92.6399C155.605 92.1254 153.983 91.7631 152.337 91.5696C151.98 91.5277 151.636 91.4072 151.365 91.2006C151.107 91.0046 150.911 90.7332 150.821 90.3724C150.705 89.9056 150.738 89.5521 150.989 89.1309C151.177 88.8146 151.447 88.5953 151.756 88.4694C152.071 88.3411 152.43 88.3108 152.787 88.3823Z" fill="black"/>
<path fill-rule="evenodd" clip-rule="evenodd" d="M148.85 138.659C148.85 138.659 139.472 140.038 135.274 138.089C131.089 136.147 127.018 134.268 123.222 131.695C119.332 129.059 116.032 125.929 113.676 121.923C111.486 118.195 109.665 114.239 107.831 110.314C107.724 110.085 106.671 107.804 106.299 107.04C105.726 105.854 104.053 106.226 104.053 108.067C104.053 109.907 103.971 123.846 107.186 129.329C110.087 134.281 115.003 137.742 119.888 140.762C125.292 144.101 132.471 147.711 138.919 148.665C144.754 149.528 151.413 147.105 155.638 143.113C160.056 138.938 161.307 133.265 163.586 127.833C164.095 126.619 162.29 125.886 161.761 127.081C160.764 129.329 148.85 138.659 148.85 138.659Z" fill="black"/>
</svg>
