<svg width="240" height="324" viewBox="0 0 240 324" fill="none" xmlns="http://www.w3.org/2000/svg">
<path fill-rule="evenodd" clip-rule="evenodd" d="M43.0082 273.246C42.7207 273.256 42.8113 273.172 42.9169 273.151C42.9473 273.183 42.9778 273.215 43.0082 273.246ZM51.4981 279.56C59.532 280.513 67.5758 279.641 75.5701 278.767C91.7659 277.566 107.848 281.065 124.075 279.998C144.355 279.143 164.691 277.538 184.903 280.243C190.494 280.372 199.411 281.881 197.384 273.223C194.72 250.964 191.16 228.817 187.345 206.729C184.113 194.346 183.879 172.928 175.028 164.317C173.733 163.135 169.092 159.311 167.864 158.798C161.763 156.526 150.764 154.752 146.226 149.935C142.551 143.714 144.26 135.223 138.545 130.214C133.536 126.123 122.603 126.988 117.247 130.06C113.022 132.801 112.36 138.124 109.727 142.061C109.078 143.004 107.535 145.278 106.664 146.012C104.544 148.054 97.0962 150.2 94.9455 150.594C82.8088 153.082 76.7572 154.619 67.2115 162.687C42.2697 188.16 45.8053 233.214 38.9038 266.524C38.6213 270.186 36.396 275.155 40.3662 277.513C43.7855 279.151 47.806 278.973 51.4981 279.56Z" fill="white"/>
<path fill-rule="evenodd" clip-rule="evenodd" d="M143.444 141.467C143.474 141.38 143.613 141.366 143.634 141.467C143.974 143.024 144.612 144.732 145.259 146.193C145.916 147.672 146.813 149.031 147.948 150.185C150.325 152.603 153.382 153.706 156.735 153.708L156.815 153.71C156.83 153.598 156.848 153.485 156.864 153.372L156.887 153.203C157.193 150.887 159.942 150.954 160.478 152.702C160.751 152.789 161.023 152.876 161.294 152.967L161.348 152.986C161.803 153.159 163.345 153.928 163.628 153.723C164.251 153.275 164.963 153.789 165.2 154.361C165.587 155.299 165.651 156.458 165.777 157.476L165.794 157.608L165.813 157.766C174.633 160.059 179.583 168.888 182.11 177.02C183.479 181.429 184.375 185.977 185.275 190.5C186.238 195.338 187.126 200.189 188.066 205.028C189.918 214.566 191.672 224.126 193.195 233.721L193.637 236.508C195.032 245.331 196.392 254.149 197.535 263.012C198.151 267.791 198.73 272.574 199.288 277.361C199.388 278.215 199.487 279.069 199.585 279.923L199.732 281.205C199.863 282.355 200.085 283.492 199.516 284.568C198.285 286.901 194.554 286.884 194.342 283.896C194.3 283.302 194.501 282.848 194.832 282.531L194.828 282.48C194.825 282.451 194.821 282.428 194.82 282.419C194.71 281.825 194.68 281.197 194.613 280.597C194.465 279.316 194.321 278.035 194.175 276.752C193.894 274.309 193.611 271.866 193.318 269.425C192.724 264.473 192.097 259.527 191.431 254.586L190.772 249.7C188.566 233.414 186.267 217.132 183.242 200.975C182.418 196.577 181.571 192.185 180.703 187.795C179.879 183.638 178.954 179.499 177.572 175.486C175.316 168.93 171.371 162.79 165.895 158.487C165.98 159.309 166.041 160.136 166.119 160.958C166.32 163.069 166.533 165.178 166.749 167.288C167.532 174.93 168.595 182.56 170.408 190.033C171.306 193.736 172.4 197.39 173.733 200.96C174.39 202.718 175.106 204.454 175.892 206.157C176.67 207.842 178.033 209.642 178.115 211.519C178.153 212.388 177.244 213.159 176.404 213.066C176.797 216.524 177.018 220.017 177.253 223.467C177.595 228.463 177.868 233.468 178.267 238.46C178.981 247.402 179.877 256.332 180.815 265.253C181.001 267.021 181.203 268.788 181.403 270.555L181.57 272.039C181.683 273.001 181.853 274.154 181.343 275.007C181.799 276.108 182.112 277.238 182.294 278.418C182.524 279.884 181.686 281.529 179.974 281.465C179.78 281.459 179.585 281.442 179.391 281.421C177.804 281.789 176.222 282.112 174.574 282.123C172.47 282.137 170.361 282.095 168.257 282.08C164.186 282.053 160.115 282.025 156.044 281.992C141.306 281.873 126.561 281.88 111.825 281.643L105.93 281.549C100.524 281.462 95.1187 281.362 89.7163 281.165C85.9959 281.03 82.2756 280.893 78.5571 280.743L77.8001 280.714C74.5191 280.594 71.2343 280.533 67.9895 280.03C67.9082 280.017 67.873 279.932 67.8856 279.858L67.8902 279.838L67.7487 279.806C67.6663 280.161 65.955 278.669 65.9677 277.678C65.2578 276.754 65.5895 275.279 65.6656 274.21C65.7395 273.168 65.8325 272.124 65.9149 271.082C66.0902 268.856 66.2402 266.629 66.4198 264.403C67.1444 255.429 67.7698 246.432 68.1754 237.439C68.3804 232.906 68.5451 228.37 68.7184 223.836C68.7964 221.772 68.905 219.707 69.1074 217.652L69.1599 217.139C69.3818 215.055 69.3606 212.815 70.1275 210.851C70.1381 210.824 70.174 210.824 70.1846 210.851C70.9599 212.762 71.0339 214.983 71.1902 217.08C71.2177 217.071 71.2451 217.067 71.2747 217.061C72.3459 216.551 73.4275 216.093 74.4416 215.463C74.5789 215.378 74.712 215.289 74.8473 215.203C76.4423 210.321 78.2909 205.519 79.9916 200.668C85.4867 184.984 88.5205 168.281 89.1923 151.673C85.0008 154.376 80.4358 156.479 75.9981 158.738L75.5825 158.95C71.2113 161.186 67.0261 163.724 63.9142 167.603C61.2015 170.98 59.429 175.095 57.7705 179.062C55.9895 183.325 54.3839 187.664 52.9156 192.043C49.9367 200.928 47.6297 210.031 45.8297 219.227C44.0529 228.302 42.7832 237.445 41.9339 246.652C41.5008 251.348 41.1057 256.048 40.774 260.755C40.605 263.137 40.455 265.521 40.3156 267.907C40.248 269.065 40.1973 270.226 40.1212 271.384C40.0747 272.052 40.0663 272.741 39.8466 273.375C39.6628 273.903 39.3374 274.345 39.0332 274.812C38.4775 275.664 37.0747 275.818 36.5529 274.812L36.3269 274.376C36.0278 273.796 35.7547 273.212 35.7142 272.542C35.6761 271.908 35.7543 271.247 35.7902 270.61C35.8599 269.323 35.9402 268.034 36.0205 266.747C36.1895 264.04 36.3775 261.332 36.5888 258.627C37.0092 253.208 37.5501 247.804 38.2304 242.41C40.624 223.467 44.0804 204.623 50.6761 186.645C52.3071 182.2 54.1261 177.792 56.1797 173.525C58.1656 169.399 60.6775 165.504 64.324 162.663C67.6806 160.048 71.5824 158.297 75.4593 156.598L75.9437 156.386C80.2895 154.486 84.6268 152.44 89.1649 151.028C89.0635 151.041 88.9642 151.054 88.8778 151.083C88.7782 151.115 88.7193 150.986 88.7806 150.916C89.0381 150.631 89.1459 150.337 89.4418 150.056C89.6462 149.862 89.8588 149.678 90.0774 149.501L90.3921 149.251C90.9678 148.793 91.5732 148.326 92.298 148.167C93.3228 147.943 93.8256 148.875 93.5381 149.604C93.686 149.412 94.0832 149.469 94.1867 149.733C97.5585 158.432 99.7726 167.641 104.311 175.86C107.661 181.932 112.157 187.539 118.123 191.206C121.328 193.176 124.996 194.689 128.784 194.928C132.185 195.141 135.458 194.277 138.35 192.491C143.957 189.031 147.619 182.957 150.23 177.071C153.101 170.591 155.15 163.686 156.354 156.686C152.539 156.739 148.512 154.998 145.975 152.159C144.64 150.665 143.644 148.845 143.14 146.905C142.63 144.948 142.793 143.34 143.444 141.467ZM111.434 136.384C111.899 135.553 112.93 135.279 113.773 135.617C114.709 135.993 114.99 136.902 114.857 137.825C114.703 138.907 114.008 140.076 113.467 141.021C112.901 142.01 112.172 142.921 111.417 143.773C109.998 145.379 108.479 146.827 106.677 148.011C104.883 149.188 102.855 150.069 100.77 150.561L100.274 150.677C98.6521 151.048 96.3446 151.473 94.9935 150.591C94.9282 150.549 94.9301 150.462 94.9935 150.42C95.7245 149.91 96.7029 149.819 97.5435 149.579C98.4604 149.315 99.3797 149.014 100.256 148.638C101.987 147.894 103.643 146.913 105.117 145.743C106.599 144.568 108.031 143.166 109.022 141.549C109.521 140.738 109.945 139.886 110.353 139.028C110.765 138.168 110.972 137.212 111.434 136.384Z" fill="black"/>
<path fill-rule="evenodd" clip-rule="evenodd" d="M161.861 82.2444C162.091 80.1045 159.587 74.3956 159.648 75.5536C155.633 69.3612 147.799 66.9261 141.039 64.8819C126.69 60.143 115.484 65.8661 105.402 76.0095C99.45 81.5716 93.7864 87.7847 90.7984 95.4844C84.9203 110.173 93.7312 126.921 107.13 133.938C108.212 134.524 109.39 135.08 110.42 135.787C115.959 138.988 122.463 140.096 128.635 141.489C140.182 144.129 154.684 142.871 161.489 131.873C166.105 124.068 164.879 114.606 164.517 105.944C163.975 98.3547 163.022 89.7782 161.861 82.2444Z" fill="white"/>
<path fill-rule="evenodd" clip-rule="evenodd" d="M100.14 60.5845C107.621 53.5883 118.678 50.1974 128.788 50.7905C134.263 51.1117 139.54 52.4842 144.488 54.8423C146.036 55.5797 147.544 56.4428 148.935 57.4592C149.873 57.8971 150.79 58.371 151.678 58.8863C156.127 61.4647 159.567 65.3703 161.768 70.0031C162.819 72.2143 163.648 74.546 164.118 76.9485L164.194 77.344C164.433 78.5496 164.907 80.138 164.308 81.2661C163.91 82.0141 163.078 82.4856 162.29 82.4222C162.461 83.1155 162.666 83.8085 162.797 84.5061L163.154 86.4083C163.213 86.7253 163.272 87.0423 163.329 87.3594C163.674 89.2488 163.991 91.136 164.244 93.0403C164.775 97.0054 165.254 100.979 165.677 104.959C165.979 107.805 166.263 110.654 166.539 113.502L166.703 115.211C166.987 118.153 167.208 121.12 167.016 124.075C166.726 128.507 165.364 132.551 162.719 135.841C162.971 136.447 163.056 137.13 163.245 137.884C163.508 138.927 163.85 139.948 164.214 140.961C164.384 141.359 164.555 141.757 164.724 142.156L165.168 143.213L165.514 143.906C165.889 144.66 166.252 145.425 166.483 146.205C167.977 147.003 169.198 148.306 169.258 150.09C169.31 151.703 168.474 153.411 167.06 154.232C165.666 155.045 164.23 154.725 162.895 154.105C161.73 154.444 160.484 154.487 159.331 154.125C158.443 154.929 157.298 155.484 156.028 155.634C154.114 155.861 152.297 155.325 150.541 154.62L150.419 154.571C150.364 154.55 150.309 154.526 150.256 154.503C148.237 154.406 146.225 153.607 144.793 152.191C144.326 151.732 143.922 151.208 143.597 150.621C142.416 148.484 142.232 145.861 143.394 143.741C143.145 143.752 142.894 143.762 142.644 143.769C139.32 143.864 135.99 143.694 132.674 143.475L131.893 143.422C129.747 143.268 126.583 142.904 126.522 140.243C126.514 139.903 126.865 139.647 127.186 139.738C128.405 140.083 129.603 140.624 130.866 140.818C132.518 141.074 134.229 141.102 135.898 141.195L136.378 141.221C139.744 141.405 143.231 141.518 146.542 140.85C149.014 140.353 151.589 139.449 153.854 138.328C156.028 137.251 158.003 135.841 159.596 134C163.106 129.951 163.57 124.238 163.399 119.115C163.192 112.996 162.474 106.886 162.068 100.776L161.885 98.0309C161.733 95.7419 161.595 93.4496 161.538 91.1594C161.496 89.4877 161.523 87.8117 161.531 86.1399C161.536 85.305 161.525 84.466 161.544 83.6311C161.555 83.162 161.61 82.7033 161.65 82.2445C161.464 82.1475 161.291 82.012 161.134 81.8326C161.012 81.691 160.917 81.5409 160.851 81.3887C160.063 81.1581 159.698 80.8517 159.187 80.1566C158.756 79.5711 158.267 79.0301 157.746 78.5228C156.634 77.4449 155.365 76.5636 154.023 75.7962C151.249 74.2092 148.211 73.1482 145.148 72.2774C140.457 70.9459 135.586 70.2611 130.826 69.1915C129.514 71.0218 128.124 72.7973 126.67 74.5156C122.134 79.8755 116.933 84.6539 111.36 88.9149C110.225 89.7836 109.076 90.6395 107.91 91.4699C106.374 93.813 104.821 96.1449 103.246 98.4611L102.569 99.4528L102.558 99.4719C102.465 99.6135 102.376 99.7551 102.288 99.8967C102.1 100.197 101.889 100.486 101.665 100.767C101.519 100.981 101.371 101.194 101.221 101.408C101.508 101.562 101.77 101.735 101.975 101.928C102.394 102.323 102.324 102.951 101.975 103.352C100.851 104.65 99.0724 102.959 97.7795 102.509C96.3788 102.936 95.2105 104.603 94.6295 105.878C93.7929 107.715 93.4569 109.929 93.8351 111.918C94.1814 113.736 95.1154 115.306 96.6682 116.291C96.7231 116.325 96.7821 116.361 96.8393 116.392C96.8414 116.397 96.8414 116.397 96.8436 116.394C96.8964 116.428 96.9513 116.46 97.0062 116.49C97.7351 116.891 98.5358 117.128 99.3659 117.185C99.8412 117.219 100.338 117.193 100.813 117.251C101.301 117.307 101.703 117.532 102.172 117.65C102.689 117.783 103.023 118.479 102.698 118.945C102.537 119.176 102.385 119.396 102.222 119.592C102.757 120.222 103.222 120.918 103.642 121.579C104.217 122.486 104.726 123.447 105.191 124.428C105.62 124.992 106.029 125.567 106.427 126.155C108.677 129.49 110.398 133.205 111.457 137.088C112.505 140.928 113.16 145.242 112.19 149.162C111.296 152.768 108.687 155.754 104.825 155.947C104.019 155.986 103.227 155.896 102.481 155.692C100.844 156.703 98.8149 157.212 96.9991 157.272C95.5299 157.32 93.9217 157.01 92.7219 156.122C91.2986 156.741 89.7547 157.093 88.4121 157.173C86.9098 157.263 85.3375 156.853 84.1128 156.042C82.9474 157.041 81.69 157.884 80.2612 158.462C77.8041 159.455 74.8802 159.332 72.6302 157.847C70.376 156.359 69.2288 153.687 69.9175 151.037C70.5513 148.594 72.5436 146.802 74.4154 145.259L74.7852 144.955C76.6368 143.443 78.5066 141.98 79.695 139.85C80.9562 137.591 81.4168 134.966 81.5415 132.409C81.8119 126.778 80.6668 121.199 80.3182 115.598C79.9591 109.813 80.1598 104.011 80.9478 98.2691C82.4795 87.1142 86.5105 76.1789 93.8034 67.4838C94.8585 66.2256 95.9879 65.0264 97.1782 63.8898C98.0879 62.6994 99.0712 61.5837 100.14 60.5845ZM197.149 124.276C197.189 124.278 197.227 124.28 197.263 124.295C197.287 124.305 197.308 124.321 197.326 124.339L197.504 124.517C197.567 124.58 197.563 124.677 197.504 124.741C197.452 124.799 197.358 124.8 197.297 124.756L197.28 124.741L197.096 124.557C197.076 124.535 197.059 124.511 197.05 124.481C197.041 124.451 197.041 124.417 197.039 124.386C197.037 124.329 197.092 124.276 197.149 124.276ZM98.0265 107.009C99.7208 106.495 101.753 107.717 102.763 109.006C103.27 109.653 103.414 110.538 102.763 111.174C102.21 111.715 101.128 111.814 100.593 111.174C99.987 110.445 99.4927 109.435 98.6265 108.968C97.6863 108.461 96.4272 108.587 96.2053 109.824C96.1673 110.033 95.8673 109.963 95.8546 109.775C95.7722 108.524 96.8687 107.357 98.0265 107.009Z" fill="black"/>
<path fill-rule="evenodd" clip-rule="evenodd" d="M143.152 128.274C141.732 127.694 140.465 126.727 139.538 125.492C139.216 125.063 139.133 124.61 139.2 124.195C139.276 123.729 139.552 123.306 139.928 123.023C140.305 122.738 140.777 122.598 141.233 122.67C141.63 122.732 142.024 122.949 142.337 123.399L142.402 123.489C142.953 124.235 143.67 124.846 144.488 125.24C145.276 125.62 146.158 125.798 147.07 125.695C148.807 125.498 150.005 124.558 151.278 123.282C151.436 123.121 151.593 122.954 151.752 122.786C151.852 122.632 151.991 122.534 152.146 122.482C152.317 122.425 152.511 122.428 152.689 122.49C152.86 122.55 153.013 122.663 153.116 122.814C153.213 122.958 153.269 123.135 153.251 123.338C153.134 124.661 152.443 125.842 151.461 126.769C150.37 127.798 148.924 128.511 147.563 128.76C146.064 129.036 144.536 128.839 143.152 128.274ZM148.271 107.866C149.866 108.836 152.297 111.098 150.581 113.503C148.56 115.624 145.652 113.192 144.218 112.093C142.889 111.241 141.396 113.432 142.629 114.427C152.986 122.098 157.19 108.12 149.077 106.725C148.184 106.572 147.853 107.566 148.271 107.866ZM129.711 98.9426C129.887 96.7538 133.219 96.2568 133.551 98.4227C133.847 100.363 133.498 102.145 132.624 103.892C131.79 105.561 129.692 104.782 129.533 103.263C129.32 101.226 129.601 100.304 129.711 98.9426ZM155.076 97.9736C155.541 97.3649 156.211 96.9494 157.015 97.1842C159.526 97.9182 158.786 101.484 157.904 103.22C157.425 104.163 155.876 104.402 155.176 103.572C154.035 102.218 153.489 99.5154 154.939 98.1822C154.979 98.1133 155.022 98.0438 155.076 97.9736ZM132.589 89.3651L132.986 89.2957C134.213 89.0834 135.738 88.8794 136.606 89.8662C137.067 90.3895 137.225 91.3622 136.606 91.8631C135.518 92.7444 134.314 92.4029 133.01 92.4775C131.935 92.5392 130.902 92.7171 129.867 93.0132C127.595 93.6627 125.744 94.8484 123.804 96.1503C123.549 96.3211 123.29 95.9954 123.411 95.7572C124.531 93.5627 126.701 91.7601 128.875 90.6613C130.036 90.0748 131.305 89.5883 132.589 89.3651ZM152.787 88.3821L153.091 88.4442C156.394 89.1351 160.687 90.515 162.251 93.7613C162.311 94.2203 162.248 94.3187 162.196 94.3829L162.179 94.4043C162.137 94.4592 162.104 94.5349 161.905 94.5974C161.849 94.5842 161.794 94.5703 161.737 94.5555C161.02 94.3675 160.453 94.1085 159.904 93.8398L159.308 93.5462C158.617 93.2073 157.92 92.8807 157.181 92.6396C155.605 92.1252 153.983 91.7628 152.337 91.5693C151.98 91.5274 151.636 91.4069 151.365 91.2004C151.107 91.0044 150.911 90.733 150.821 90.3722C150.705 89.9053 150.738 89.5518 150.989 89.1306C151.177 88.8143 151.446 88.5951 151.756 88.4692C152.071 88.3408 152.43 88.3106 152.787 88.3821Z" fill="black"/>
<path fill-rule="evenodd" clip-rule="evenodd" d="M166.773 116.395C166.491 115.554 165.042 115.627 165.131 116.618C165.233 117.75 164.846 119.012 163.762 119.561C162.627 120.137 161.35 119.619 160.658 118.632C160.056 117.775 159.641 116.841 158.884 116.093C158.18 115.397 157.323 114.861 156.386 114.542C155.656 114.294 154.899 114.228 154.165 114.31C152.336 113.896 150.216 114.837 149.076 116.264C149.002 116.356 148.934 116.45 148.868 116.546C148.755 116.392 148.637 116.239 148.511 116.089C148.188 115.702 147.787 115.619 147.425 115.724C145.363 114.19 142.473 113.987 140.131 115.371C138.255 116.481 136.702 118.116 134.395 118.243C132.567 118.344 130.576 117.301 130.448 115.291C130.38 114.242 128.951 113.368 128.149 114.339C126.464 116.382 126.127 119.095 127.059 121.564C128.043 124.17 130.048 126.006 132.587 127.085C135.328 128.251 138.541 128.656 141.506 128.564C144.463 128.472 147.151 127.335 148.933 124.915C149.146 124.627 149.333 124.333 149.496 124.036C151.227 126.24 153.939 127.167 156.702 127.233C159.592 127.303 163.008 126.795 165.052 124.55C167.021 122.386 167.701 119.167 166.773 116.395Z" fill="black"/>
</svg>
