<svg width="240" height="324" viewBox="0 0 240 324" fill="none" xmlns="http://www.w3.org/2000/svg">
<path fill-rule="evenodd" clip-rule="evenodd" d="M55.2055 285.48C57.7346 285.636 60.2636 285.759 62.7923 285.854C95.8622 287.086 128.905 283.315 161.955 282.49C173.464 282.187 184.914 282.338 196.394 283.262C197.519 283.353 198.805 282.142 198.667 280.989C196.546 262.674 193.892 244.409 192.517 226.019C192.516 225.046 192.642 224.075 192.976 223.159C193.039 223.087 193.365 222.281 193.656 222.231C193.561 222.302 193.991 222.178 193.717 222.199C195.377 221.928 197.005 220.135 195.8 218.42C183.392 199.395 166.454 182.031 161.005 159.433C159.717 153.324 155.067 152.946 150.112 150.426C148.567 149.506 144.787 146.959 144.172 145.188C142.702 138.804 145.29 132.551 137.73 129.968C132.74 128.584 123.919 127.413 118.869 128.872C112.71 130.923 113.171 137.867 109.598 142.644C107.75 145.407 104.6 149.19 101.691 149.614C100.282 149.819 99.2434 146.966 97.8357 147.162C75.8947 152.493 46.0016 188.859 36.5715 208.991C34.4464 215.326 41.3 213.415 40.879 219.783C40.3599 231.864 39.2246 247.33 39.8979 259.425C40.5285 266.445 40.0619 273.801 42.2432 280.557C41.6561 281.27 42.4997 281.991 43.188 282.3C44.0552 283.776 52.5888 285.275 55.2055 285.48Z" fill="white"/>
<path fill-rule="evenodd" clip-rule="evenodd" d="M112.327 135.035C112.898 132.467 116.982 133.569 116.282 136.126C115.198 140.08 112.951 143.817 109.778 146.44C107.327 148.465 103.987 150.271 100.674 150.605C100.984 150.908 101.282 151.231 101.595 151.539C102.301 152.241 103.051 152.892 103.824 153.518C105.413 154.803 107.065 155.959 108.869 156.927C116.075 160.795 124.216 161.687 132.265 160.786C136.084 160.359 139.961 159.634 143.553 158.237C145.218 157.591 146.836 156.741 148.264 155.667L148.638 155.387C149.389 154.819 150.391 154.019 150.86 153.144C149.432 153.465 147.626 151.943 146.635 151.058C145.552 150.086 144.639 148.832 143.965 147.547C142.644 145.026 141.945 141.773 143.052 139.07C143.126 138.89 143.363 138.92 143.384 139.114C143.711 142.266 144.56 145.22 146.821 147.554C147.825 148.587 149.027 149.454 150.339 150.056L150.523 150.141C151.082 150.399 151.671 150.703 151.906 151.256C151.997 151.246 152.088 151.254 152.175 151.278C152.253 151.299 152.325 151.322 152.394 151.347C152.238 151.041 152.156 150.679 152.17 150.252C152.225 148.597 154.497 148.547 154.811 150.02C154.754 149.826 154.678 150.014 154.822 150.073C154.819 150.056 154.815 150.037 154.811 150.02L154.815 150.036L154.824 150.073L154.822 150.073C154.827 150.1 154.832 150.127 154.835 150.155L154.838 150.192L154.836 150.161C154.834 150.138 154.832 150.118 154.829 150.099L154.824 150.073C154.845 150.083 154.875 150.09 154.908 150.09L154.922 150.095C154.975 150.118 155.162 150.205 155.217 150.227C155.595 150.367 156.017 150.411 156.404 150.531C157.243 150.789 157.982 151.216 158.494 151.943C158.861 152.465 159.066 153.063 159.151 153.685C162.863 155.471 166.376 157.791 169.319 160.664C175.887 167.072 180.467 175.092 184.226 183.394C186.139 187.621 187.844 191.937 189.511 196.265L189.774 196.948C191.561 201.6 193.142 206.302 193.53 211.303C193.566 211.751 193.418 212.172 193.163 212.521C193.253 212.897 193.3 213.273 193.287 213.641C193.285 213.698 193.281 213.755 193.277 213.812C193.877 213.801 194.464 214.053 195.022 214.759C195.248 214.687 195.493 214.678 195.734 214.756C197.202 215.226 197.439 216.838 197.715 218.189C198.001 219.584 198.125 221.013 198.127 222.435C198.127 222.944 197.836 223.587 197.341 223.805C196.412 224.214 195.411 224.483 194.449 224.855C193.727 225.134 193.002 225.398 192.271 225.645C192.677 226.353 192.808 227.338 193.027 228.084C193.372 229.249 193.648 230.418 193.881 231.61C195.457 239.715 196.549 247.907 198.024 256.029C198.761 260.098 199.619 264.139 200.494 268.18C200.925 270.166 201.383 272.149 201.875 274.123C202.137 275.175 202.41 276.228 202.691 277.274C202.772 277.58 202.855 277.884 202.939 278.189L203.086 278.722C203.407 278.899 203.682 279.168 203.872 279.535C204.567 280.88 204.167 282.395 202.834 283.152C201.385 283.976 199.655 283.198 198.856 281.86C198.294 280.916 198.11 279.664 197.834 278.614C197.521 277.435 197.223 276.249 196.936 275.063C194.984 267.008 193.677 258.812 192.692 250.585L192.622 249.997C192.121 245.762 191.637 241.516 191.325 237.261C191.17 235.171 191.048 233.081 190.972 230.986C190.934 229.908 190.995 228.824 191.056 227.748C191.084 227.277 191.124 226.803 191.139 226.332L191.143 226.265C191.147 226.217 191.153 226.155 191.157 226.089L191.162 226.009C189.704 226.465 188.225 226.846 186.732 227.167C183.554 227.854 180.303 228.237 177.06 228.042C177.512 233.415 178.101 238.774 178.925 244.098C179.72 249.226 180.637 254.342 181.672 259.428C182.19 261.983 182.749 264.532 183.339 267.072C183.656 268.429 184.017 269.777 184.302 271.141C184.471 271.952 184.524 272.63 184.184 273.389C184.558 274.41 184.891 275.435 185.218 276.401L185.316 276.689C185.895 278.379 186.994 280.108 185.846 281.769C185.253 282.627 184.285 283.118 183.311 283.147C183.294 283.158 183.275 283.171 183.256 283.181C182.732 283.462 182.128 283.517 181.553 283.397C180.681 283.568 179.806 283.733 178.929 283.883C176.764 284.257 174.588 284.565 172.408 284.826C168.256 285.32 164.077 285.591 159.901 285.741C144.609 286.292 129.301 285.324 114.003 285.603C106.209 285.745 98.4154 286.096 90.6344 286.561C86.7513 286.793 82.8661 287.043 78.9808 287.235L77.7782 287.294C74.3037 287.46 70.8267 287.588 67.3548 287.334C67.2872 287.33 67.2344 287.302 67.1984 287.265C66.0006 287.129 64.7965 286.026 64.9168 284.752C65.4344 279.324 65.952 273.897 66.4717 268.467C67.3949 258.794 68.3266 249.12 69.2689 239.448L69.405 238.052C69.7216 234.793 70.0239 231.527 70.1773 228.255C69.4041 228.201 68.6332 228.131 67.8618 228.046C59.505 227.131 51.4938 224.602 43.8017 221.281L43.49 221.146C42.797 220.843 42.0386 220.541 41.2611 220.218C41.274 221.695 41.2252 223.175 41.2189 224.637C41.2083 227.066 41.2273 229.494 41.2336 231.92C41.2484 236.921 41.4386 241.923 41.6879 246.916C42.1252 255.733 42.6386 264.538 43.416 273.334C43.6125 275.547 43.8789 277.756 44.0667 279.969C44.1789 281.273 43.9104 282.359 42.717 283.044C42.1294 283.382 41.6752 283.24 41.0921 282.968C39.6682 282.3 39.628 280.721 39.4928 279.347C39.3895 278.312 39.2942 277.276 39.2013 276.238C39.0029 274.026 38.8315 271.813 38.6921 269.595C38.1409 260.786 37.9801 251.986 38.3604 243.166C38.537 239.041 38.7919 234.907 39.1302 230.789L39.2097 229.839C39.4886 226.548 39.6682 223.094 40.2449 219.783C37.9189 218.751 35.6139 217.439 34.5449 215.257C33.1592 212.425 34.6822 210.003 36.852 208.336C36.8308 208.055 36.852 207.776 36.9111 207.522C37.5344 204.823 38.578 202.156 39.5858 199.582C40.602 196.995 41.7238 194.448 42.9576 191.956C47.9097 181.974 54.6745 172.852 62.7386 165.167C66.7442 161.351 71.128 157.823 75.8076 154.864C78.1273 153.4 80.5062 152.047 82.9696 150.842L83.3338 150.665C85.0486 149.832 86.972 148.947 88.8789 148.484C89.0773 148.336 89.278 148.196 89.4808 148.063C90.2308 147.564 91.2492 147.925 91.6928 148.638C91.9085 148.471 92.1576 148.323 92.4428 148.19L92.7247 148.061C94.4358 147.29 96.4904 146.569 98.3477 147.076C99.5013 147.391 100.41 148.24 100.818 149.323C101.753 148.828 102.672 148.319 103.57 147.695C105.013 146.698 106.321 145.459 107.496 144.159C109.851 141.545 111.563 138.482 112.327 135.035ZM194.065 217.462C193.904 217.508 193.735 217.525 193.56 217.504C193.876 217.541 193.242 217.729 193.068 217.818L193.055 217.825C192.738 218.007 192.419 218.182 192.096 218.352C191.341 218.749 190.57 219.106 189.786 219.442C188.242 220.1 186.647 220.605 185.01 220.975C183.408 221.336 181.729 221.547 180.087 221.581C178.989 221.602 177.685 221.552 176.548 221.228C176.68 223.221 176.825 225.212 176.988 227.201L179.233 226.686C181.478 226.171 183.72 225.643 185.935 225.001C187.598 224.519 189.237 223.955 190.858 223.346C191.707 223.027 192.55 222.689 193.382 222.325C193.796 222.144 194.185 221.929 194.569 221.711L194.897 221.524C194.821 220.634 194.682 219.761 194.479 218.882C194.373 218.417 194.193 217.94 194.065 217.462ZM40.3505 208.076C40.0653 209.002 39.628 209.866 38.6308 210.075C38.278 210.149 37.9824 210.109 37.7371 209.989L37.6783 210.107C36.8584 211.791 36.6176 213.568 38.504 214.864C39.3557 215.45 40.2829 215.957 41.2421 216.411C42.9573 217.228 44.7839 217.884 46.5061 218.552L46.8491 218.686C49.9294 219.895 53.0583 220.996 56.2357 221.917C59.4599 222.849 62.7407 223.597 66.062 224.073C67.4625 224.272 68.8737 224.411 70.2873 224.502C70.3104 222.6 70.2998 220.696 70.2935 218.793C69.7906 218.73 69.2921 218.662 68.8106 218.605C67.3442 218.434 65.8822 218.225 64.4287 217.965C61.3928 217.422 58.3885 216.671 55.4583 215.712C50.0287 213.93 44.9773 211.383 40.3505 208.076ZM99.8796 149.811C98.6458 148.505 96.2859 148.976 94.7967 149.61C94.3465 149.802 93.8923 149.997 93.4613 150.231L93.3778 150.278C92.8759 150.567 92.8784 150.739 93.1235 151.315C93.4423 152.074 93.8859 152.807 94.3085 153.511C96.1171 156.532 98.4979 159.161 101.217 161.382C110.846 169.244 124.68 172.017 136.723 169.384C142.502 168.121 148.077 165.573 152.331 161.393L152.719 161.008C154.434 159.29 156.789 156.805 156.624 154.26C156.546 153.036 155.546 152.966 154.526 152.729C154.108 152.632 153.708 152.495 153.362 152.3C153.641 153.503 152.156 155.291 151.389 156.041C149.781 157.616 147.846 158.846 145.799 159.765C141.903 161.517 137.665 162.346 133.446 162.87C128.658 163.466 123.768 163.413 119.016 162.532C114.882 161.765 110.806 160.313 107.249 158.051C105.618 157.015 104.01 155.834 102.649 154.458L102.36 154.166C101.378 153.17 100.235 151.967 99.6472 150.66C99.4232 150.662 99.2014 150.656 98.9796 150.641C98.8232 150.633 98.739 150.411 98.8951 150.328C99.0704 150.235 99.2458 150.143 99.4211 150.052C99.3918 149.954 99.3662 149.859 99.3451 149.762C99.3282 149.68 99.4148 149.604 99.4909 149.65C99.5965 149.713 99.6979 149.781 99.7972 149.853C99.8247 149.84 99.8521 149.826 99.8796 149.811Z" fill="black"/>
<path fill-rule="evenodd" clip-rule="evenodd" d="M160.887 72.2154C148.183 63.803 122.732 64.7167 108.747 69.8707C95.1017 74.1998 90.3243 86.2626 88.0587 99.2951C85.3048 113.942 85.675 135.057 105.478 134.801C108.262 136.148 111.346 136.732 114.227 137.848C118.17 139.212 122.035 140.795 126.036 141.989C133.916 144.528 142.684 144.307 150.159 140.592C154.289 138.596 155.998 135.488 158.699 132.177C166.556 122.542 170.51 108.754 170.156 96.5036C169.534 87.8773 168.108 77.8914 160.887 72.2154Z" fill="white"/>
<path fill-rule="evenodd" clip-rule="evenodd" d="M176.963 107.724C175.659 99.6292 175.298 91.3971 173.591 83.3658C171.985 75.8081 168.983 68.6664 163.737 62.905C159.043 57.7502 152.973 53.9649 146.458 51.5661C133.765 46.8931 119.166 47.9498 106.887 53.405C95.3944 58.5089 86.2275 67.952 80.8845 79.2846C77.4134 86.6481 75.6683 94.4765 74.893 102.556C74.0331 111.532 73.9402 120.602 73.5894 129.609C73.5472 130.721 73.4859 131.833 73.4711 132.945C73.4542 134.162 73.9465 135.229 74.3479 136.362C74.3754 136.442 74.4155 136.519 74.4641 136.59C74.162 136.628 73.8599 136.673 73.5578 136.721C73.2197 136.774 73.2345 137.324 73.5578 137.389C76.2937 137.947 79.1056 138.025 81.888 138.163C84.7718 138.306 87.6599 138.385 90.5479 138.482C93.3641 138.577 96.1803 138.672 98.9965 138.767C100.475 138.818 101.954 138.869 103.433 138.917C104.137 138.94 104.84 138.966 105.546 138.989C105.896 139.002 106.249 139.012 106.6 139.025C106.885 139.033 107.35 139.215 107.38 139.006C107.432 139.038 107.489 139.065 107.551 139.084C107.618 139.12 107.684 139.162 107.747 139.209C108.092 139.446 108.613 139.416 108.962 139.209C108.994 139.19 109.027 139.169 109.061 139.147C109.321 138.993 109.503 138.769 109.604 138.516C111.049 140.261 113.608 138.3 112.129 136.453C111.335 135.459 103.433 111.106 106.704 92.5532L119.819 90.8159C122.217 90.5729 126.679 90.0889 126.679 90.0889C126.679 90.0889 127.771 86.5234 128.084 85.3758C128.107 85.2912 128.13 85.2046 128.156 85.12C128.468 85.6719 128.783 86.2212 129.1 86.7707L130.718 90.0614C130.718 90.0614 154.604 89.6619 160.461 89.7C160.56 89.7 161.031 96.8225 160.818 99.9589C160.387 106.257 159.928 112.551 159.29 118.833C158.883 122.855 157.901 126.799 156.439 130.506C154.129 136.362 147.423 141.928 140.885 141.928C136.814 141.928 127.617 138.63 126.277 137.964C124.938 137.298 124.14 139.116 125.361 139.843C127.833 141.316 134.649 144.44 140.885 144.44C149.94 144.44 156.776 135.844 157.615 134.612C165.861 134.16 174.294 134.369 182.53 135.187C183.22 135.254 183.816 134.422 183.594 133.786C180.637 125.317 178.387 116.582 176.963 107.724Z" fill="black"/>
<path fill-rule="evenodd" clip-rule="evenodd" d="M143.152 128.274C141.732 127.694 140.465 126.727 139.538 125.492C139.216 125.063 139.133 124.61 139.2 124.195C139.276 123.729 139.552 123.306 139.928 123.023C140.305 122.738 140.777 122.598 141.233 122.67C141.63 122.732 142.024 122.949 142.337 123.399L142.402 123.489C142.953 124.235 143.67 124.846 144.488 125.24C145.276 125.62 146.158 125.798 147.07 125.695C148.808 125.498 150.005 124.558 151.278 123.282C151.436 123.121 151.594 122.954 151.752 122.786C151.852 122.632 151.991 122.534 152.146 122.482C152.317 122.425 152.511 122.428 152.689 122.49C152.86 122.55 153.013 122.663 153.116 122.814C153.213 122.958 153.269 123.135 153.251 123.338C153.134 124.661 152.443 125.842 151.461 126.769C150.37 127.798 148.924 128.511 147.563 128.76C146.064 129.036 144.536 128.839 143.152 128.274ZM148.271 107.866C149.866 108.836 152.297 111.098 150.581 113.503C148.56 115.624 145.652 113.192 144.219 112.093C142.889 111.241 141.396 113.432 142.629 114.427C152.986 122.098 157.19 108.12 149.078 106.725C148.184 106.572 147.853 107.566 148.271 107.866ZM129.711 98.9426C129.887 96.7538 133.219 96.2568 133.551 98.4227C133.847 100.363 133.498 102.145 132.624 103.892C131.79 105.561 129.692 104.782 129.533 103.263C129.32 101.226 129.601 100.304 129.711 98.9426ZM155.076 97.9736C155.541 97.3649 156.212 96.9494 157.015 97.1842C159.526 97.9182 158.786 101.484 157.904 103.22C157.425 104.163 155.876 104.402 155.176 103.572C154.035 102.218 153.489 99.5154 154.939 98.1822C154.979 98.1133 155.023 98.0438 155.076 97.9736ZM132.589 89.3651L132.986 89.2957C134.213 89.0834 135.738 88.8794 136.606 89.8662C137.067 90.3895 137.225 91.3622 136.606 91.8631C135.518 92.7444 134.314 92.4029 133.01 92.4775C131.935 92.5392 130.902 92.7171 129.867 93.0132C127.595 93.6627 125.744 94.8484 123.804 96.1503C123.55 96.3211 123.29 95.9954 123.411 95.7572C124.531 93.5627 126.701 91.7601 128.875 90.6613C130.036 90.0748 131.305 89.5883 132.589 89.3651ZM152.787 88.3821L153.091 88.4442C156.394 89.1351 160.687 90.515 162.251 93.7613C162.311 94.2203 162.248 94.3187 162.196 94.3829L162.179 94.4043C162.137 94.4592 162.104 94.5349 161.905 94.5974C161.849 94.5842 161.794 94.5703 161.737 94.5555C161.02 94.3675 160.453 94.1085 159.904 93.8398L159.308 93.5462C158.617 93.2073 157.92 92.8807 157.181 92.6396C155.605 92.1252 153.983 91.7628 152.337 91.5693C151.98 91.5274 151.636 91.4069 151.365 91.2004C151.107 91.0044 150.911 90.733 150.821 90.3722C150.705 89.9053 150.738 89.5518 150.989 89.1306C151.177 88.8143 151.447 88.5951 151.756 88.4692C152.071 88.3408 152.43 88.3106 152.787 88.3821Z" fill="black"/>
<path fill-rule="evenodd" clip-rule="evenodd" d="M172.803 91.7748C172.629 91.7458 172.455 91.7185 172.281 91.693C172.145 91.6158 171.986 91.5564 171.8 91.5207C171.377 91.4131 170.956 91.3407 170.536 91.3016C164.508 89.9445 150.563 91.8714 149.987 97.0173C148.068 97.6583 146.407 97.0843 144.182 97.1414C142.489 90.0601 113.21 91.0596 111.802 95.3288C111.797 95.3274 111.792 95.3261 111.786 95.3244C110.433 94.9055 108.439 95.0065 106.89 94.9402C103.584 94.8708 100.273 95.1657 97.0381 95.8633C90.98 96.8265 82.712 97.954 86.9254 105.522C86.9262 105.523 86.9268 105.525 86.9279 105.526L86.9285 105.525C87.6546 106.27 88.887 105.67 88.9328 104.662C87.5163 101.077 90.7157 100.647 93.1774 99.6163C99.3027 97.4149 105.539 97.1097 111.874 97.7906C112.351 98.352 113.074 98.8415 113.838 99.0976C118.074 99.801 115.842 102.944 118.519 103.401C118.027 114.358 131.325 120.339 139.029 113.136C142.106 110.128 142.839 105.67 143.552 101.653C143.929 101.568 144.169 101.362 144.309 101.089C145.216 100.183 145.786 99.3464 147.579 99.0976C149.373 98.8491 150.753 99.3481 150.94 99.5009C150.987 99.5958 151.038 99.6909 151.096 99.786C151.178 99.9278 151.29 100.041 151.417 100.13C149.646 111.041 158.113 117.941 166.66 112.282C170.374 108.787 171.159 103.436 171.314 98.6597C171.818 98.3558 172.137 97.7668 171.962 97.0262C171.722 96.0054 172.285 95.1215 173.182 94.6777C174.348 94.1013 174.142 91.9965 172.803 91.7748ZM136.075 96.9509C135.014 96.7175 134.561 98.3539 135.625 98.588C136.379 98.7538 137.018 99.134 137.449 99.7782L137.495 99.8482C138.074 100.77 139.538 99.9191 138.955 98.9912C138.299 97.9471 137.279 97.2158 136.075 96.9509ZM167.149 95.9363C166.775 95.6727 166.209 95.8684 165.992 96.2408C165.753 96.651 165.91 97.1076 166.26 97.3759L166.296 97.4021C166.617 97.6287 166.93 98.0348 166.969 98.4509L166.973 98.5029C167.015 99.5918 168.707 99.5973 168.664 98.5029C168.623 97.4323 168.003 96.5377 167.149 95.9363Z" fill="black"/>
</svg>
