<svg width="240" height="324" viewBox="0 0 240 324" fill="none" xmlns="http://www.w3.org/2000/svg">
<path fill-rule="evenodd" clip-rule="evenodd" d="M194.637 251.934C193.785 247.123 193.005 242.299 192.295 237.465C191.959 235.17 191.63 232.872 191.335 230.571C191.128 228.959 190.813 227.115 191.909 225.921C193.452 224.241 194.854 222.802 195.043 220.395C195.22 218.13 194.455 215.661 193.976 213.462C192.972 208.851 191.722 204.297 190.341 199.787C188.938 195.204 187.4 190.664 185.839 186.133C184.38 181.897 182.977 177.623 181.077 173.558C177.47 165.845 171.369 160.133 163.828 156.319C161.953 155.37 158.128 151.984 156.169 151.226C154.367 150.529 154.374 152.564 152.601 151.797C151.184 151.184 149.864 150.367 149.071 148.998C148.209 147.512 146.049 145.433 145.72 143.703C145.023 140.036 145.778 136.914 143.161 134.154C140.839 131.703 137.717 130.024 134.487 129.123C127.38 127.14 117.903 128.526 113.616 135.132C111.568 138.287 110.852 142.1 108.089 144.674C105.676 146.922 106.216 148.459 103.091 149.618C102.914 149.684 98.1169 148.654 97.9399 148.72C94.5211 147.988 91.2536 150.037 88.1171 151.226C83.4411 152.998 78.9893 155.304 74.8068 158.046C66.3732 163.574 59.15 170.752 53.195 178.875C47.1908 187.064 42.5321 196.244 39.215 205.838C38.4094 208.168 37.6858 210.527 37.0476 212.909C36.6903 214.241 36.3086 215.624 36.7436 216.989C37.0994 218.105 37.8908 218.936 38.8201 219.606C40.0799 220.514 42.6069 221.105 42.5577 222.931C42.5201 224.32 42.0491 225.781 41.8193 227.153C41.5457 228.788 41.3209 230.431 41.0961 232.073C40.0736 239.544 39.2777 247.057 38.9258 254.592C38.5793 262.011 38.2917 269.581 38.8062 276.998C38.8402 277.487 38.986 277.936 39.2211 278.315C39.0016 278.399 38.9847 278.809 39.2579 278.867C39.4493 278.907 39.6403 278.948 39.8317 278.988C40.2293 279.289 40.7251 279.474 41.2958 279.492C41.6826 279.504 42.0692 279.522 42.4556 279.541C46.5333 280.394 50.6103 281.2 54.7413 281.81C59.7627 282.551 64.7989 283.155 69.8507 283.647C80.2313 284.656 90.5302 284.321 100.925 283.777C111.303 283.234 121.675 283.107 132.064 283.377C142.462 283.648 152.857 284.1 163.257 284.285C174.877 284.492 186.478 284.175 198.064 283.251C199.653 283.124 200.636 281.86 200.322 280.281C198.445 270.825 196.318 261.432 194.637 251.934Z" fill="white"/>
<path fill-rule="evenodd" clip-rule="evenodd" d="M94.6975 148.487C95.772 148.44 96.8676 148.614 97.9396 148.72C98.033 148.729 98.0685 148.873 97.9633 148.895C96.0448 149.296 94.1474 149.844 92.2632 150.401L91.4564 150.64C89.3317 151.269 87.2693 151.918 85.2124 152.756C81.113 154.428 77.2195 156.684 73.6362 159.275C59.8379 169.256 49.8513 184.366 43.5492 200.01C41.8377 204.259 40.3876 208.613 39.2129 213.041C38.9273 214.118 38.6585 215.199 38.4038 216.284C38.329 216.602 38.003 217.417 38.1817 217.742C38.3397 218.03 38.9541 218.208 39.2395 218.357L40.2031 218.857C42.0828 219.826 45.2137 221.419 45.5277 221.575L46.0174 221.816C54.0267 225.744 62.5845 229.075 71.5975 229.305L71.668 228.535C72.0699 224.278 72.5972 219.999 73.7482 215.873C73.8101 215.651 74.0921 215.726 74.1179 215.923C74.7591 220.808 74.5542 225.73 74.3304 230.637C73.9343 239.328 73.4083 248.015 72.9407 256.702C72.7066 261.048 72.4041 265.391 72.1309 269.735C71.8573 274.087 71.7688 278.544 71.1441 282.861C71.0049 283.823 69.8784 284.346 69.0253 284.245C68.0814 284.132 67.3552 283.301 67.3508 282.347C67.3394 279.833 67.6552 277.288 67.8308 274.78C67.9975 272.397 68.1764 270.015 68.3598 267.633C69.0299 258.94 69.8009 250.257 70.5139 241.568C70.7666 238.486 71.0395 235.407 71.3205 232.328C61.7727 232.02 52.8528 228.482 44.3433 224.348C44.2202 227.146 43.9227 229.939 43.6347 232.725C42.8309 240.499 42.1221 248.271 41.5916 256.07C41.3237 260.009 41.1287 263.953 40.9588 267.897C40.8754 269.836 40.8073 271.774 40.7552 273.714C40.7377 274.36 40.7219 275.007 40.708 275.654L40.6789 277.135C40.6552 278.073 40.5598 278.943 39.7704 279.626C38.9687 280.32 37.8857 280.357 37.0922 279.626C36.0299 278.647 36.2178 277.314 36.2492 276C36.2754 274.891 36.3069 273.783 36.3435 272.675C36.4168 270.459 36.5104 268.243 36.6242 266.028C37.0227 258.285 37.8189 250.573 38.8594 242.892L39.2656 239.927C40.0241 234.415 40.8568 228.777 42.5524 223.468C41.8922 223.139 41.2339 222.808 40.5781 222.476C39.4149 221.887 38.2121 221.334 37.0814 220.684C36.1844 220.168 35.4107 219.46 35.161 218.416C34.8825 217.252 35.3084 215.98 35.5913 214.845L35.6159 214.745C35.8933 213.602 36.192 212.464 36.5072 211.331C37.7854 206.737 39.3659 202.232 41.2155 197.837C44.919 189.038 49.6994 180.679 55.5386 173.121C60.7947 166.317 67.0039 160.147 74.2812 155.52C77.839 153.258 81.6304 151.4 85.64 150.087C87.5142 149.473 89.5533 148.939 91.5156 148.72C92.574 148.601 93.634 148.533 94.6975 148.487ZM113.736 134.544C115.013 133.173 117.55 134.592 116.936 136.408C115.494 140.682 113.198 144.58 109.614 147.388C106.245 150.027 102.228 151.742 97.9015 151.376C97.8681 151.373 97.8391 151.364 97.8136 151.352L98.1864 151.858C101.113 155.819 104.201 159.725 107.923 162.963C115.506 169.559 125.831 173.117 135.801 170.586C143.644 168.595 150.555 162.39 152.587 154.482C152.296 154.613 151.95 154.658 151.57 154.575C149.944 154.222 148.334 152.511 147.285 151.284C146.151 149.957 145.264 148.524 144.615 146.904C143.426 143.94 143.045 140.123 144.668 137.252C144.869 136.898 145.33 137.096 145.37 137.442L145.431 137.981C145.744 140.672 146.134 143.275 147.403 145.729C148.023 146.929 148.767 148.101 149.673 149.106C150.158 149.644 150.683 150.158 151.25 150.609C151.803 151.049 152.472 151.366 152.968 151.871L153.058 151.967L153.061 151.95C153.186 150.885 153.933 150.415 154.664 150.445C155.371 150.473 156.202 150.785 156.523 150.934L156.554 150.948C161.487 153.317 166.031 156.405 170.307 159.831C179.15 166.917 185.775 176.179 188.986 187.086C190.561 192.44 191.465 197.956 192.42 203.446L193.007 206.81C193.898 211.879 194.893 217.047 196.904 221.762C197.424 222.981 197.023 224.125 195.748 224.605C194.155 225.204 192.557 225.784 190.956 226.356C191.742 229.73 192.221 233.221 192.81 236.611C194.062 243.818 195.596 250.979 196.912 258.176C197.584 261.856 198.191 265.549 198.863 269.229C199.186 271.001 199.524 272.771 199.852 274.543C200.029 275.498 200.189 276.456 200.358 277.413L200.387 277.572C200.484 278.076 200.606 278.598 200.467 279.103C200.309 279.679 199.859 280.086 199.458 280.499C199.128 280.839 198.651 280.841 198.246 280.656L198.113 280.594C197.39 280.256 196.824 279.919 196.568 279.103C196.406 278.587 196.347 278.005 196.241 277.473C196.038 276.454 195.845 275.433 195.663 274.409C195.298 272.36 194.943 270.31 194.595 268.258L194.271 266.337C193.157 259.715 192.1 253.054 191.565 246.362C191.328 243.394 191.077 240.428 190.823 237.461L190.633 235.236C190.392 232.42 190.098 229.533 190.056 226.678L189.099 227.018L184.428 228.67C183.269 229.08 181.795 229.919 180.548 229.766C179.938 229.691 179.473 229.499 179.114 229.15C179.544 235.223 180.126 241.285 180.902 247.316C181.608 252.804 182.391 258.285 183.315 263.74C183.773 266.442 184.244 269.141 184.755 271.832C185.01 273.179 185.274 274.523 185.546 275.866C185.681 276.536 185.842 277.206 185.948 277.882C186.069 278.655 185.856 279.131 185.424 279.768C185.069 280.29 184.359 280.559 183.784 280.198C183.022 279.72 182.625 279.305 182.401 278.434C182.197 277.643 182.073 276.817 181.916 276.016C181.625 274.537 181.344 273.056 181.072 271.574C180.504 268.473 179.981 265.364 179.514 262.246C177.867 251.263 176.822 240.187 176.294 229.093C176.034 223.62 175.953 218.142 175.999 212.663C176.023 209.854 176.115 207.038 176.313 204.237C176.515 201.401 176.933 198.622 177.306 195.813C177.319 195.714 177.459 195.709 177.465 195.813C177.642 198.962 177.919 202.107 178.055 205.264C178.184 208.276 178.241 211.293 178.344 214.307C178.48 218.268 178.668 222.232 178.916 226.192C179.366 225.7 180.045 225.415 180.724 225.526C181.708 225.32 182.767 224.804 183.704 224.49L187.24 223.309C189.098 222.688 190.957 222.071 192.822 221.473C191.154 215.861 190.012 210.165 189.037 204.387L188.602 201.788C187.741 196.672 186.812 191.554 185.253 186.6C183.613 181.392 181.159 176.55 177.904 172.165C174.696 167.844 170.792 164.039 166.773 160.48C163.332 157.433 159.651 154.682 156.142 151.719C156.178 151.915 156.186 152.131 156.154 152.369C155.408 157.832 152.559 162.92 148.588 166.704C140.612 174.307 128.805 175.884 118.596 172.319C108.721 168.871 99.9896 160.704 96.9049 150.597C96.8521 150.425 97.0836 150.356 97.1766 150.483C97.3477 150.718 97.5197 150.952 97.6919 151.187C97.6803 151.094 97.7286 150.992 97.8436 150.948C101.443 149.557 104.977 147.586 107.675 144.797C108.99 143.437 110.137 141.897 111.043 140.235C111.477 139.44 111.867 138.616 112.178 137.764L112.257 137.544C112.634 136.477 112.949 135.389 113.736 134.544Z" fill="black"/>
<path fill-rule="evenodd" clip-rule="evenodd" d="M162.571 89.5609C162.069 83.0632 162.847 76.2526 160.342 70.0765C155.976 59.8292 143.732 56.4125 134.239 52.5112C130.436 51.3871 117.64 51.23 113.187 49.7422C103.11 46.375 100.702 42.363 92.6947 48.7743C91.343 49.8695 90.4973 51.0599 89.8804 52.6862L89.9057 52.6932C89.7295 53.3712 89.9184 54.0477 90.3154 54.5645C86.8434 58.1147 85.3905 63.4374 87.1719 68.1634C92.9854 80.4616 92.712 87.1114 90.8389 100.333C88.3928 112.675 93.9823 117.184 103.239 123.9C102.862 124.631 102.784 125.603 103.276 126.248C113.98 141.296 134.163 148.48 151.456 140.843C158.475 137.717 161.609 130.239 163.397 123.491C165.481 115.936 166.121 107.974 164.425 100.277C163.741 96.7179 162.849 93.1841 162.571 89.5609Z" fill="white"/>
<path fill-rule="evenodd" clip-rule="evenodd" d="M100.826 17.5709C102.126 17.3757 103.107 18.1822 103.574 19.3189L103.598 19.3801C103.748 19.7669 103.915 20.1431 104.095 20.5129C107.346 18.9172 111.985 19.3272 114.043 22.5588C115.511 24.8667 114.616 27.6058 114.062 30.0533L113.699 31.6659C114.401 32.113 114.931 32.9138 114.906 33.743L114.903 33.8069L114.755 36.0556C115.224 35.5801 115.653 35.0623 116.035 34.5107C116.3 34.0267 116.585 33.5511 116.891 33.0904C118.693 30.3788 122.739 32.7353 121.252 35.6393C120.966 36.1993 120.645 36.7298 120.301 37.2413C119.912 37.9958 119.593 38.7715 119.348 39.5683C120.052 39.8747 120.592 40.5553 120.65 41.5824C120.783 43.9813 119.523 45.9827 117.521 47.2403C116.931 47.6101 116.323 47.682 115.771 47.5446C115.674 47.6757 115.577 47.8067 115.484 47.9398C116.283 48.5887 117.003 49.3284 117.622 50.1485C119.485 49.8695 121.359 49.7384 123.233 49.7342C125.523 48.6119 128.266 48.6352 130.727 49.0558C132.311 49.3263 133.833 49.8526 135.392 50.2309C137.035 50.6282 138.704 50.643 140.367 50.9135C142.463 51.2538 144.301 52.2218 145.457 53.7668C146.726 53.8048 148.061 54.3247 149.169 55.0307C151.746 56.675 154.309 58.3425 156.88 59.9974C157.867 60.6327 158.236 61.647 158.054 62.7782L158.042 62.8506L157.955 63.3198L158.159 63.6086C158.945 64.7202 159.802 65.8845 160.311 67.1114C161.253 68.4704 162.104 69.8949 162.859 71.3638C163.875 73.3378 164.714 75.4302 165.282 77.5775C165.423 78.1207 165.565 78.6681 165.658 79.2218C165.791 80.0038 165.586 80.6104 165.474 81.3607C165.335 82.3117 165.284 83.2755 165.136 84.2287C165.037 84.8606 164.5 85.1713 163.938 85.1882C164.15 86.7966 164.302 88.4155 164.447 90.0218C164.652 92.3171 164.792 94.6187 164.912 96.9203C165.533 97.8227 166.803 98.5371 167.72 98.7844C168.99 99.1247 170.321 98.7548 171.521 98.3215C172.275 98.0489 172.894 98.9978 172.526 99.6319C171.371 101.623 168.899 101.614 167.027 100.733C166.235 100.361 165.54 99.8221 165.024 99.1204C165.056 99.7883 165.09 100.456 165.123 101.126L165.155 101.733C165.536 108.82 166.357 116.151 165.026 123.168C162.721 135.323 152.667 144.578 140.384 145.296C133.939 145.673 128.571 143.769 125.902 142.707C123.233 141.644 124.271 139.478 126.124 140.097C129.315 141.164 135.179 142.753 140.426 142.067C152.794 140.449 163.281 134.265 162.204 107.632C162.051 103.855 161.58 100.076 161.479 96.2989C161.382 92.6066 161.418 88.9122 161.255 85.222L161.201 83.963C161.137 82.4918 161.069 81.0138 160.959 79.5409C160.826 78.9703 160.716 78.3912 160.554 77.8311C160.112 76.3073 159.535 74.8257 158.819 73.4118C158.661 73.5323 158.483 73.6189 158.291 73.6527C156.831 73.9148 155.462 73.8408 154.095 73.2321C153.457 72.951 152.895 72.577 152.371 72.1141C152.122 71.8964 151.955 71.6851 151.824 71.4652C151.163 71.4758 150.502 71.2771 150.088 70.8016C149.615 70.2596 149.537 69.6998 149.722 69.1815L149.741 69.1298L149.695 69.1129C149.137 70.5564 148.026 71.8267 146.807 72.6847C144.88 74.0458 142.469 74.4389 140.158 74.4749C137.606 74.5129 134.914 74.1198 132.396 73.7182C131.73 73.6126 131.069 73.4921 130.421 73.3294C130.395 73.3547 130.37 73.3843 130.342 73.4097C128.181 75.4788 125.141 76.0114 122.399 74.8299C120.814 74.1473 119.485 73.0483 118.311 71.7886C118.294 72.448 118.26 73.1074 118.203 73.7605L118.179 74.0198C118.062 75.2362 117.837 76.5264 116.919 77.4042C115.433 78.8266 113.278 78.2559 111.565 77.3302C111.567 77.3746 111.567 77.4211 111.567 77.4676C112.03 79.04 112.495 80.6146 112.959 82.1892L113.059 82.5246C113.397 83.6426 113.768 84.7621 113.87 85.9322C114.064 88.1683 112.577 90.3769 110.092 89.6266C108.789 89.2344 107.745 88.1382 106.743 87.2602L106.112 86.7142C107.745 92.055 108.878 97.586 108.983 103.159C108.99 103.462 108.73 103.69 108.442 103.7C107.771 103.728 107.048 103.595 106.372 103.326C106.334 103.324 106.296 103.322 106.256 103.316C105.102 103.149 104.031 102.732 103.087 102.117C103.304 102.808 103.402 103.55 103.345 104.326C103.33 104.514 103.036 104.58 102.994 104.372C102.449 101.69 99.3115 99.6636 96.6073 100.177C93.7045 100.729 91.5664 103.227 91.0425 106.07C90.4805 109.124 91.5559 112.655 93.5481 115.012C94.465 116.098 95.6714 117.005 97.1037 117.233C97.7587 117.337 98.439 117.301 99.0749 117.115C99.3453 117.034 99.5988 116.922 99.8566 116.817C100.233 116.665 100.672 116.641 101.027 116.481C101.832 116.119 102.641 116.861 102.233 117.688C101.878 118.408 101.559 118.894 100.97 119.266C101.447 119.85 101.881 120.661 102.041 120.879C102.861 121.986 103.693 123.033 104.627 124.045C105.578 125.072 106.615 126.011 107.711 126.879L108.172 127.243C109.229 128.081 110.148 128.858 110.893 130.06C111.481 131.009 110.72 132.296 109.619 132.281C106.176 132.233 103.672 129.206 101.889 126.562C101.635 126.184 101.397 125.784 101.175 125.374C101.095 125.503 101.006 125.624 100.907 125.734L101.103 126.262C101.686 127.818 99.1742 128.834 98.4453 127.382C97.915 126.33 97.3002 125.328 96.6157 124.381C96.2122 124.324 95.8171 124.079 95.5974 123.762C95.0418 122.957 94.4185 122.143 93.8925 121.285C93.6009 121.008 93.3009 120.742 92.9946 120.482C92.9059 120.56 92.815 120.638 92.7284 120.72C92.3439 121.598 91.8685 122.399 91.2791 123.153L91.1527 123.314C90.0235 124.738 88.5527 126.195 86.7326 126.543C86.177 126.649 85.6425 125.958 86.1347 125.516C87.4087 124.37 88.915 123.591 90.0897 122.312C90.6684 121.682 91.1997 120.988 91.6567 120.261L91.7608 120.093C91.8368 119.968 91.915 119.843 91.9953 119.717C91.465 119.355 90.9347 118.992 90.4044 118.628C88.9447 119.876 87.0436 120.446 85.429 121.48L85.2685 121.585C83.8087 122.561 82.2706 120.401 83.4411 119.216C84.7313 117.913 85.8083 116.361 86.9513 114.913C86.4138 113.923 86.1595 112.752 86.0642 111.568C86.0266 111.233 85.9972 110.898 85.9678 110.563C85.1481 110.576 84.3242 110.295 83.627 109.811L83.3629 109.622C82.5157 109.893 81.6263 110.024 80.7749 110.001C78.7721 109.942 77.9523 107.653 79.2052 106.205C80.4833 104.725 82.7206 104.402 84.4932 105.121C84.5502 105.091 84.6094 105.059 84.6664 105.028C84.5819 104.639 84.6007 104.286 84.6968 103.976L84.669 103.787C84.2792 103.189 84.0229 102.506 83.9257 101.784C83.8488 101.212 83.8645 100.646 83.9967 100.081C84.0406 99.8933 84.1321 99.6987 84.2021 99.5028C84.058 99.1388 83.9733 98.7626 83.9471 98.3843C83.9067 98.3363 83.8666 98.2871 83.8285 98.2338C82.949 96.9985 83.1267 95.5099 83.9637 94.5102C83.9675 94.4466 83.9735 94.383 83.9821 94.3198C83.9331 94.2095 83.8881 94.0981 83.8471 93.9855C83.0293 93.1601 82.4289 92.167 82.5409 90.9363C82.6066 90.2122 82.904 89.5604 83.3542 89.0733C83.2744 88.837 83.2668 88.5633 83.3635 88.3348C82.645 86.4229 82.7359 84.1203 83.253 81.982C83.139 81.6566 83.0798 81.3036 83.0925 80.9295C83.1516 79.3423 84.5249 77.884 86.1516 77.903C86.3475 77.9047 86.5309 77.9302 86.7071 77.9676L86.7094 77.9298C86.7717 77.4534 86.9027 77.0132 87.0939 76.6182C86.9999 76.5842 86.9128 76.5353 86.8366 76.4704C85.7942 77.0267 84.6911 77.452 83.5347 77.7417C82.6843 77.9548 81.8133 76.9878 82.3418 76.1893C82.5871 75.8189 82.8578 75.4862 83.1493 75.1823C82.7348 75.1846 82.314 75.2127 81.8883 75.2674C81.1235 75.3668 80.2699 74.8447 79.7735 74.1388C79.1566 74.7391 78.5375 75.3372 77.9185 75.9353C76.3509 77.4549 73.9826 76.3369 73.7354 74.3333C73.2685 74.2086 72.8333 73.9972 72.4509 73.695C69.9791 74.7687 67.3192 75.3583 64.6002 75.4703C62.6481 75.5507 61.5073 73.2765 62.4199 71.6703C63.0326 70.5924 63.7932 69.6244 64.6699 68.7832C63.3094 69.1996 61.9045 69.4997 60.4699 69.692C59.6946 69.7956 58.5981 69.1531 58.2876 68.4408C57.1002 65.7017 57.2016 62.8464 58.5685 60.1813C58.6214 60.0756 58.6805 59.9741 58.7376 59.8727C58.8791 59.5197 59.0333 59.171 59.2002 58.8286C57.5185 57.0744 57.3728 54.4663 58.2791 52.2831C57.9157 51.6934 57.7763 50.9833 58.0235 50.3408C58.727 48.4915 59.7411 46.7838 61.0214 45.317C60.8988 45.0803 60.7911 44.8288 60.7002 44.5582C59.9798 42.3708 60.8143 39.731 62.4981 38.2072C63.5566 37.2476 64.7735 36.6728 66.0728 36.305C66.6199 35.337 67.3235 34.4642 68.1432 33.7287C68.1749 33.6589 68.2066 33.5892 68.2425 33.5194C69.5185 31.1143 71.8425 29.825 74.3333 29.527C74.4305 28.5865 75.0643 27.6883 75.9854 27.3966C76.239 26.5829 76.6171 25.8051 77.1368 25.0992C77.9545 23.9875 79.3129 23.4634 80.5932 24.1925C81.2946 24.592 81.9664 25.0506 82.596 25.5579C82.8788 25.4252 83.1994 25.3394 83.5611 25.312L83.6523 25.3063L85.7354 25.2007C86.608 24.8139 87.4784 24.4081 88.3509 24.0129C88.8749 23.5796 89.4601 23.2182 90.0981 22.9498C90.8206 22.6476 91.5601 22.4764 92.3016 22.4193C92.9037 22.2227 93.5101 22.0494 94.127 21.9142C95.5763 21.5972 97.0932 21.4196 98.5974 21.4344C98.6282 21.0449 98.6435 20.6508 98.6405 20.252L98.6376 20.0522C98.6037 18.7735 99.6242 17.7527 100.826 17.5709ZM99.3664 119.875C99.1594 119.919 98.9502 119.955 98.7411 119.981C98.8044 120.137 98.8678 120.294 98.9291 120.45C99.0981 120.545 99.2692 120.636 99.4404 120.72C99.3897 120.433 99.3601 120.143 99.3664 119.875ZM88.5121 116.648L88.3717 116.907C88.3489 116.949 88.3265 116.991 88.3044 117.032C88.6023 117.009 88.9023 117.015 89.1981 117.049L89.1973 117.018C89.1592 117.005 89.1212 116.993 89.0849 116.975C88.8808 116.877 88.6911 116.767 88.5121 116.648ZM94.3784 104.844C96.2475 104.953 97.8311 105.239 99.531 106.057L99.677 106.129C101.179 106.875 103.664 108.253 103.454 110.229C103.395 110.791 102.988 111.383 102.345 111.339C100.585 111.218 99.5798 109.443 98.3883 108.335C97.1861 107.219 95.7094 106.072 94.2537 105.305C94.048 105.197 94.129 104.855 94.3529 104.844L94.3784 104.844ZM85.9023 78.8075C85.4544 78.8223 85.6044 79.2578 85.8347 78.8942C85.8537 78.8646 85.877 78.835 85.9023 78.8075ZM110.079 49.7422C105.837 49.8538 101.568 52.3594 98.3904 54.892C95.6259 57.0953 93.2388 59.7161 91.1251 62.5408C90.5813 63.9475 90.1144 65.3836 89.7199 66.8303C89.4601 67.7856 89.2974 68.7515 89.0798 69.7153L89.0122 70.0107C88.8413 70.3303 88.7143 70.6742 88.6218 71.0294C89.0069 71.4158 89.5065 71.6925 90.0567 71.8237C90.2339 71.866 90.3812 71.9575 90.4976 72.0788C90.9404 71.3395 91.3275 70.5592 91.5527 69.732L91.5609 69.6937C92.4121 68.299 93.3366 66.9476 94.3277 65.6426C97.0615 62.039 100.072 58.7546 103.691 56.0219C106.435 53.9507 109.503 52.3275 112.765 51.2728C111.967 50.6284 111.06 50.1187 110.079 49.7422Z" fill="black"/>
<path fill-rule="evenodd" clip-rule="evenodd" d="M143.152 128.274C141.732 127.695 140.465 126.728 139.538 125.493C139.216 125.063 139.133 124.61 139.2 124.195C139.276 123.729 139.552 123.306 139.928 123.023C140.305 122.739 140.777 122.598 141.233 122.67C141.63 122.732 142.024 122.949 142.337 123.399L142.402 123.489C142.953 124.235 143.67 124.846 144.488 125.241C145.276 125.621 146.158 125.798 147.07 125.695C148.808 125.499 150.005 124.559 151.278 123.282C151.436 123.121 151.594 122.955 151.752 122.786C151.852 122.633 151.991 122.534 152.146 122.483C152.317 122.425 152.511 122.429 152.689 122.491C152.86 122.55 153.013 122.664 153.116 122.815C153.213 122.958 153.269 123.135 153.251 123.339C153.134 124.661 152.443 125.842 151.461 126.769C150.37 127.799 148.924 128.511 147.563 128.761C146.064 129.036 144.536 128.839 143.152 128.274ZM148.271 107.866C149.866 108.836 152.297 111.098 150.581 113.503C148.56 115.624 145.652 113.193 144.219 112.093C142.89 111.241 141.396 113.433 142.629 114.428C152.987 122.099 157.19 108.12 149.078 106.726C148.184 106.572 147.853 107.566 148.271 107.866ZM129.711 98.9429C129.887 96.7541 133.219 96.257 133.551 98.423C133.847 100.363 133.498 102.145 132.624 103.892C131.79 105.561 129.692 104.783 129.533 103.263C129.32 101.226 129.601 100.304 129.711 98.9429ZM155.076 97.9738C155.541 97.3652 156.212 96.9496 157.015 97.1845C159.526 97.9185 158.786 101.485 157.904 103.22C157.425 104.163 155.876 104.402 155.176 103.572C154.036 102.219 153.489 99.5156 154.94 98.1825C154.979 98.1136 155.023 98.044 155.076 97.9738ZM132.589 89.3654L132.986 89.2959C134.213 89.0836 135.738 88.8796 136.606 89.8665C137.067 90.3898 137.225 91.3624 136.606 91.8633C135.518 92.7446 134.314 92.4031 133.01 92.4777C131.935 92.5394 130.902 92.7174 129.867 93.0135C127.595 93.663 125.744 94.8486 123.804 96.1506C123.55 96.3213 123.29 95.9956 123.411 95.7574C124.531 93.563 126.701 91.7604 128.875 90.6616C130.036 90.0751 131.305 89.5885 132.589 89.3654ZM152.787 88.3823L153.091 88.4445C156.395 89.1353 160.687 90.5153 162.251 93.7615C162.311 94.2205 162.248 94.3189 162.197 94.3832L162.18 94.4046C162.137 94.4595 162.104 94.5351 161.905 94.5976C161.85 94.5844 161.794 94.5705 161.737 94.5557C161.02 94.3677 160.453 94.1087 159.904 93.84L159.308 93.5465C158.617 93.2076 157.92 92.881 157.181 92.6399C155.605 92.1254 153.983 91.7631 152.337 91.5696C151.98 91.5277 151.636 91.4072 151.365 91.2006C151.108 91.0046 150.911 90.7332 150.821 90.3724C150.705 89.9056 150.739 89.5521 150.989 89.1309C151.177 88.8146 151.447 88.5953 151.756 88.4694C152.071 88.3411 152.43 88.3108 152.787 88.3823Z" fill="black"/>
<path fill-rule="evenodd" clip-rule="evenodd" d="M152.745 131.526C150.778 129.772 148.572 126.247 145.746 129.036C145.047 129.824 144.763 131.591 143.694 131.938C142.275 132.398 140.868 130.896 140.384 129.742C138.404 123.33 146.587 121.571 151.249 122.607C153.527 123.543 155.204 127.309 155.306 129.275C155.371 130.596 154.254 132.538 152.745 131.526ZM167.589 121.643C167.57 121.558 167.543 121.481 167.51 121.411C166.64 121.082 165.952 121.417 165.526 122.044C165.54 122.2 165.587 122.358 165.616 122.512C165.288 123.204 164.991 124.06 164.547 124.658C164.459 124.665 164.368 124.656 164.28 124.63C156.904 125.401 160.505 117.681 153.024 115.763C147.241 114.809 136.789 115.902 134.061 121.923C131.909 131.542 120.969 124.84 117.377 119.838C113.544 115.285 111.066 109.723 108.677 104.325C108.172 103.182 106.596 103.999 106.767 105.095C104.559 109.528 104.632 114.851 104.085 119.707C103.155 129.394 102.248 142.979 111.246 148.894C122.968 162.15 152.241 166.827 165.762 154.648C170.442 144.581 169.865 132.301 167.589 121.643Z" fill="black"/>
<path fill-rule="evenodd" clip-rule="evenodd" d="M166.085 109.758C164.662 111.67 162.025 112.279 159.593 112.068C154.347 111.563 152.696 105.603 152.524 100.97C156.042 101.96 152.226 94.9491 164.251 94.178C168.49 93.8247 167.322 96.3858 169.195 98.2571C169.156 102.184 168.503 106.452 166.085 109.758ZM141.098 105.245C138.001 119.755 121.04 116.304 119.259 103.224C120.904 102.063 120.471 99.1945 122.514 98.1553C125.754 96.0849 129.803 96.1734 133.481 96.222C138.183 96.5452 139.523 98.4936 141.938 100.619C141.822 102.039 141.487 103.722 141.098 105.245ZM172.803 91.775C172.629 91.7461 172.455 91.7188 172.281 91.6932C172.145 91.6161 171.986 91.5567 171.8 91.521C171.377 91.4134 170.956 91.3409 170.536 91.3018C164.508 89.9447 150.563 91.8716 149.987 97.0176C148.068 97.6586 146.407 97.0846 144.182 97.1416C142.488 90.0603 113.21 91.0598 111.802 95.3291C111.797 95.3276 111.792 95.3263 111.786 95.3246C110.433 94.9057 108.439 95.0068 106.89 94.9404C103.584 94.8711 100.273 95.1659 97.038 95.8636C90.9799 96.8267 82.712 97.9543 86.9253 105.522C86.9261 105.524 86.9268 105.525 86.9278 105.526L86.9285 105.526C87.6546 106.27 88.8869 105.671 88.9328 104.663C87.5162 101.077 90.7156 100.647 93.1773 99.6165C99.3026 97.4151 105.539 97.1099 111.874 97.7909C112.351 98.3522 113.074 98.8417 113.838 99.0979C118.074 99.8013 115.841 102.944 118.519 103.402C118.027 114.358 131.324 120.339 139.029 113.137C142.105 110.128 142.839 105.671 143.552 101.653C143.929 101.568 144.169 101.362 144.309 101.089C145.216 100.183 145.786 99.3466 147.579 99.0979C149.373 98.8493 150.753 99.3483 150.94 99.5011C150.987 99.596 151.038 99.6911 151.096 99.7862C151.178 99.9281 151.29 100.041 151.417 100.13C149.646 111.041 158.113 117.941 166.66 112.282C170.374 108.787 171.159 103.436 171.314 98.66C171.818 98.356 172.137 97.767 171.962 97.0264C171.722 96.0056 172.285 95.1217 173.182 94.6779C174.348 94.1016 174.142 91.9967 172.803 91.775Z" fill="black"/>
</svg>
