<svg width="259" height="324" viewBox="0 0 259 324" fill="none" xmlns="http://www.w3.org/2000/svg">
<path fill-rule="evenodd" clip-rule="evenodd" d="M245.914 194.94C248.078 193.81 250.191 192.582 252.27 191.304C253.735 190.428 252.438 188.22 250.936 189.018C250.168 189.426 249.403 189.838 248.635 190.244C249.24 189.723 249.8 189.156 250.302 188.538L250.267 188.504C252.203 186.769 249.716 183.494 247.515 184.92C245.573 186.328 243.613 187.765 241.384 188.692C236.768 190.65 231.676 190.974 226.721 191.031C224.907 190.894 223.175 191.209 221.416 191.559C222.106 188.791 223.832 186.7 224.748 184.019C225.423 181.312 221.517 179.468 220.133 182.07C219.793 182.709 219.469 183.355 219.153 184.005C216.161 186.727 211.165 186.488 208.147 189.411C206.428 190.937 205.587 193.008 205.255 195.086C205.029 196.497 205.38 197.912 204.527 199.162C200.403 204.997 193.888 214.22 190.578 220.641C188.236 205.382 181.98 186.508 175.517 172.556C173.38 168.094 170.935 163.733 167.725 159.951C168.089 158.69 166.805 156.451 165.988 157.14C163.475 154.068 159.032 153.273 155.459 151.746C150.637 149.683 146.635 145.395 144.669 140.521C142.141 131.241 135.92 130.062 127.292 130.472C119.035 130.462 112.926 133.995 111.124 142.403C107.464 148.786 98.8218 147.73 92.6044 149.42C88.0477 150.461 83.6257 152.071 79.4232 154.115C74.748 149.679 58.004 168.297 56.482 173.089C57.378 173.263 58.2685 173.472 59.151 173.727C59.9369 173.954 59.6069 175.142 58.8142 174.952C57.8278 174.715 56.8351 174.551 55.8377 174.438C55.8072 174.534 55.7806 174.629 55.7608 174.722C55.6488 174.715 55.537 174.705 55.4251 174.698C55.6733 174.827 55.9122 174.977 56.1451 175.17C56.7079 175.638 55.9752 176.54 55.3771 176.168C54.8137 175.746 54.0757 175.812 53.3999 175.671C53.3597 177.061 48.4006 175.506 47.6303 175.045C44.2068 174.617 40.6847 175.076 37.4887 173.425C33.2361 172.529 28.9515 171.538 24.7467 170.397C23.6335 170.831 22.5873 172.385 23.4715 173.525C23.9688 174.043 23.3295 174.89 22.7033 174.522C20.6031 173.285 18.9789 171.355 17.6018 169.275C16.9537 168.621 15.8031 168.761 14.9323 168.49C14.8158 168.699 14.7472 168.932 14.7482 169.172C11.0542 169.78 13.6894 173.816 15.5464 175.074C14.5613 175.715 14.5239 176.972 14.6101 178.021C14.4013 178.395 14.3316 178.858 14.5133 179.277C15.208 180.879 16.7103 182.227 17.8526 183.525C19.1139 184.957 20.2384 186.398 21.7731 187.56C27.6227 192.02 34.6818 194.514 41.9236 195.49C44.4949 195.885 48.1936 196.489 49.7857 198.664C49.3951 201.246 48.6778 203.722 48.0271 206.239C47.1172 209.58 47.1791 213.078 47.167 216.485C47.0399 216.383 46.7956 216.404 46.7593 216.599C46.5476 218.011 46.3902 219.455 45.5322 220.641C44.7801 222.848 44.2796 225.201 43.9984 227.519C42.872 238.508 42.603 249.821 45.1429 260.639C46.123 264.653 47.717 268.467 49.8888 271.979C50.5363 273.026 51.5775 273.333 52.5123 273.128C55.6412 274.754 59.5828 275.275 62.9553 274.862C74.4527 271.606 70.4466 279.446 86.567 277.045C114.392 273.499 142.513 280.468 170.279 276.377C170.963 281.661 179.915 280.145 183.025 277.911C192.349 270.977 196.979 249.023 201.658 237.885C204.875 229.107 210.261 213.56 217.314 207.669C219.429 206.014 221.986 205.143 224.544 204.44C234.091 201.979 243.674 199.651 253.239 197.259C254.861 196.859 254.57 194.092 252.835 194.269C250.533 194.505 248.223 194.718 245.914 194.94Z" fill="white"/>
<path fill-rule="evenodd" clip-rule="evenodd" d="M33.3898 193.294C32.7433 193.214 32.1095 192.984 31.48 192.802C30.5187 192.521 29.5764 192.193 28.649 191.819C26.7349 191.052 24.8778 190.145 23.137 189.035C20.325 187.241 17.8405 184.942 15.9666 182.173L15.8379 181.98C14.7681 180.35 12.7947 176.73 15.0074 175.492C13.5813 174.3 12.2334 172.159 12.3095 170.506C12.4172 168.169 15.282 168.201 16.763 169.192C17.7327 169.841 18.4595 170.749 19.1883 171.644C19.9954 172.637 20.8574 173.584 21.7531 174.495C21.9908 174.735 22.2309 174.972 22.4751 175.204L22.7207 175.435C22.6827 175.344 22.6489 175.251 22.6193 175.156C22.125 173.615 22.7144 171.61 24.2545 170.904C25.1971 170.472 26.1759 170.735 27.0892 171.102L27.2292 171.159C28.4588 171.669 29.7031 172.119 30.9834 172.48C36.2017 173.954 41.6482 174.199 46.9954 174.934C49.0552 175.22 51.1531 175.579 53.2024 176.107C53.9841 172.787 55.9003 169.604 57.9791 166.985C67.9341 154.458 84.3517 150.318 99.3707 147.638C100.74 147.395 101.874 149.209 102.671 148.78C104.181 147.968 105.51 146.818 106.676 145.569C109.163 142.904 110.927 139.77 113 136.8C114.024 135.333 116.382 136.646 115.431 138.221L114.966 138.99C113.048 142.142 110.924 145.39 108.174 147.835C106.712 149.133 105.09 150.158 103.235 150.798C101.83 151.282 99.8588 151.69 98.3208 151.22L98.1362 150.952C98.1973 151.041 98.2588 151.131 98.3207 151.221C102.335 157.039 107.371 161.964 112.678 166.611C118.035 171.3 123.814 175.498 129.628 179.603L130.112 179.945C139.583 173.034 147.584 164.02 153.197 153.721C152.021 153.579 150.857 152.825 149.851 152.263C148.641 151.582 147.502 150.77 146.614 149.688C144.681 147.332 144.933 144.295 144.584 141.435C144.563 141.258 144.798 141.213 144.905 141.302C145.953 142.173 146.321 143.599 146.758 144.832C147.24 146.186 147.785 147.302 148.89 148.255C149.919 149.143 151.174 149.796 152.393 150.377C153.021 150.676 156.142 151.442 156.497 152.077C161.889 150.811 167.141 152.998 171.136 156.688C174.996 160.254 177.829 164.889 180.331 169.464C182.999 174.347 185.186 179.436 187.07 184.667C188.98 189.976 190.444 195.401 191.249 200.989C191.928 205.701 192.345 210.486 192.615 215.25L192.648 215.845C196.636 209.583 200.724 203.386 204.897 197.244C203.948 194.71 204.998 192.123 206.775 190.166C208.744 188 211.467 186.994 214.072 185.823L214.415 185.668C215.67 185.095 216.921 184.464 218.006 183.606C219.05 182.777 219.816 181.636 220.915 180.873C222.512 179.761 225.411 179.998 225.485 182.427C225.523 183.76 224.95 185.223 224.426 186.421C223.833 187.776 223.032 189.004 222.081 190.132C222.037 190.185 221.989 190.226 221.941 190.259L221.904 190.282C223.218 190.5 224.543 190.676 225.893 190.737C228.616 190.862 231.369 190.661 234.035 190.086C236.764 189.498 239.409 188.543 241.864 187.212C243.962 186.074 245.906 184.603 248.289 184.257C248.509 184.223 248.731 184.202 248.959 184.189C249.339 184.168 249.719 184.616 249.569 184.992C249.487 185.199 249.4 185.405 249.305 185.612C248.481 187.427 247.218 189.188 245.641 190.525L245.519 190.627C246.075 190.435 246.622 190.219 247.161 189.976C250.328 188.549 253.201 186.394 256.596 185.527C256.757 185.485 256.919 185.447 257.082 185.411C258.132 185.185 258.686 186.326 258.069 187.108C257.969 187.235 257.87 187.359 257.767 187.484C256.252 189.365 254.581 191.111 252.738 192.679C252.107 193.216 251.456 193.736 250.793 194.233C250.513 194.443 250.232 194.649 249.948 194.852L249.808 194.951C250.14 194.717 250.467 194.478 250.793 194.233C252.871 193.603 254.921 192.857 256.926 192.03C257.722 191.703 258.341 192.51 258.426 193.174C258.709 195.397 256.241 197.006 254.635 198.075C253.026 199.149 251.253 199.965 249.438 200.62C245.949 201.881 242.284 202.454 238.625 202.967L236.848 203.215C229.813 204.199 222.466 205.375 217.419 210.851C214.59 213.92 212.676 217.733 210.924 221.484C209.175 225.231 207.639 229.078 206.181 232.946C204.671 236.949 203.355 241.025 201.956 245.069C200.671 248.781 199.137 252.446 197.618 256.074L197.378 256.646C194.152 264.357 190.298 271.618 184.928 278.056C184.043 279.119 182.612 277.61 183.43 276.558C189.047 269.313 192.956 260.764 196.182 252.235C197.65 248.355 198.88 244.382 200.291 240.48L201.131 238.162C202.252 235.073 203.383 231.987 204.563 228.922C206.057 225.043 207.698 221.211 209.576 217.504L209.776 217.114C211.614 213.538 213.799 210.013 216.806 207.307C222.218 202.433 229.42 201.264 236.383 200.338L238.573 200.049C241.517 199.658 244.469 199.226 247.332 198.438C248.984 197.986 250.598 197.407 252.115 196.608C252.719 196.291 253.309 195.943 253.879 195.562C252.252 196.04 250.602 196.431 248.923 196.737C248.101 196.887 247.288 196.999 246.476 197.077C244.387 197.284 242.314 197.276 240.174 197.164C239.993 197.153 239.933 196.868 240.128 196.832C241.618 196.567 243.11 196.236 244.596 195.876L245.042 195.767C245.05 195.52 245.148 195.258 245.35 195.008C246.09 194.108 247.495 193.647 248.469 193.011C249.489 192.345 250.478 191.627 251.42 190.857C252.282 190.154 253.11 189.409 253.907 188.632L254.145 188.397C254.066 188.476 253.987 188.554 253.907 188.632C251.756 189.625 249.717 190.9 247.471 191.686C245.686 192.314 243.814 192.736 241.926 192.886L241.808 192.896L241.691 192.903C239.72 193.045 237.736 192.988 235.795 193.415C235.577 193.463 235.509 193.172 235.704 193.089C237.4 192.383 239.164 192.111 240.948 191.781C240.986 191.641 241.083 191.517 241.252 191.436L241.708 191.218C243.067 190.566 244.333 189.907 245.462 188.847C246.459 187.911 247.29 186.816 247.913 185.603C245.418 186.151 243.227 188.042 240.958 189.105C238.486 190.266 235.871 191.098 233.183 191.572L232.877 191.624C227.855 192.462 221.816 192.356 217.317 189.743C217.174 189.659 217.277 189.467 217.425 189.49C218.701 189.699 219.964 189.946 221.228 190.166C220.981 189.94 220.871 189.534 221.156 189.209C222.291 187.908 223.188 186.421 223.762 184.794L223.871 184.476C224.136 183.721 224.582 182.549 224.126 181.869C223.691 181.22 222.666 181.308 222.054 181.583C220.78 182.158 219.933 183.593 218.859 184.46C217.689 185.407 216.358 186.108 214.995 186.736L214.708 186.867C212.351 187.927 209.832 188.82 207.979 190.692C206.982 191.698 206.124 192.956 205.837 194.366C205.706 195.012 205.706 195.678 205.879 196.319C206.016 196.819 206.304 197.128 206.139 197.637C205.924 198.295 205.161 199.081 204.768 199.666C204.312 200.343 203.857 201.021 203.403 201.7C202.497 203.056 201.595 204.418 200.693 205.777C198.888 208.499 197.103 211.234 195.333 213.977C194.757 214.87 194.182 215.764 193.61 216.66L192.753 218.003L192.3 218.711L191.528 219.926C191.555 220.038 191.553 220.157 191.517 220.26C191.386 220.635 191.139 220.892 190.832 221.078L190.778 221.11C186.269 228.239 181.833 235.414 177.352 242.56C177.113 244.741 176.889 246.924 176.695 249.107C176.253 254.049 175.951 259.003 175.854 263.963C175.807 266.364 176 268.78 176.103 271.179C176.154 272.324 176.223 273.467 176.314 274.61L176.38 275.421C176.47 276.534 176.52 277.64 176.12 278.701C175.765 279.633 174.683 279.842 174.043 279.132C165.692 278.796 157.334 278.54 148.976 278.382C134.017 278.094 119.05 278.139 104.088 278.428C96.5736 278.574 89.0567 278.779 81.544 279.033C77.8426 279.155 74.139 279.329 70.4355 279.379C68.4402 279.406 65.2998 278.68 65.1388 276.434L65.1348 276.365C64.8855 276.433 64.6278 276.488 64.3637 276.528C64.2461 276.546 64.1332 276.541 64.0289 276.517L63.9771 276.503C61.0027 277.41 57.2403 276.116 54.414 275.362L54.1806 275.3C51.4827 274.596 49.3151 273.59 47.5468 271.354C44.4518 267.438 43.3954 262.179 42.8461 257.333C42.3306 252.772 42.3011 248.127 42.9285 243.575C42.5588 239.865 42.9201 236.038 43.3405 232.35C43.5475 230.526 43.7905 228.704 44.082 226.89C44.2447 225.878 44.4581 224.876 44.6757 223.876C44.7626 223.477 44.8349 223.047 44.945 222.631L44.9947 222.454C44.6567 222.498 44.2869 222.425 43.9299 222.228C43.0806 221.761 42.8334 220.816 42.8186 219.912C42.7721 217.185 43.0975 214.381 43.3848 211.671C43.6743 208.966 44.0714 206.25 44.5912 203.578L44.7256 202.89C45.1195 200.891 45.5701 198.828 46.3637 196.95C43.3828 196.443 40.4102 195.904 37.518 194.987C36.1067 194.537 34.7166 193.977 33.3898 193.294ZM188.98 221.668C188.933 221.679 188.889 221.691 188.845 221.704C187.653 222.038 186.449 222.321 185.249 222.625C183.174 223.147 181.146 223.731 179.217 224.638C178.813 229.74 178.214 234.825 177.645 239.913L177.531 240.931C178.406 239.307 179.302 237.697 180.238 236.106C183.088 231.255 186.003 226.442 188.98 221.668ZM45.7213 222.173C45.7277 222.78 45.6009 223.41 45.5333 223.993C45.4235 224.94 45.3347 225.891 45.2227 226.838C44.9946 228.74 44.8002 230.644 44.6587 232.555C44.5678 233.774 44.5087 234.998 44.4558 236.222C45.6538 231.743 47.2404 227.362 48.7488 222.974C48.4967 222.947 48.2389 222.886 47.973 222.815L47.5254 222.695C47.2615 222.627 46.4053 222.416 45.7213 222.173ZM192.753 218.003L192.762 218.204C192.793 218.916 192.367 219.318 191.849 219.421C192.149 218.948 192.451 218.474 192.753 218.003ZM55.6828 184.246C56.9441 184.358 58.18 184.627 59.3589 185.092L59.4726 185.136C60.3446 185.473 61.6194 185.896 61.9046 186.827C61.9849 187.091 61.7694 187.309 61.5223 187.33C60.5758 187.406 59.4603 186.391 58.5835 186.049C57.6075 185.669 56.5849 185.385 55.5497 185.235C53.2237 184.895 50.7983 185.153 48.6096 186.001C48.4807 186.051 48.4004 185.846 48.5166 185.785C50.7223 184.584 53.1751 184.024 55.6828 184.246ZM28.9554 190.291C28.8096 190.162 28.6638 190.027 28.5201 189.892C27.3875 188.82 26.3844 187.569 25.6417 186.194L25.4463 185.822C24.8414 184.65 24.0986 182.981 25.5201 182.137C26.3694 181.632 27.392 181.759 28.3385 182.065C28.3997 182.084 28.461 182.105 28.5223 182.126C28.9448 182.275 29.3525 182.452 29.7159 182.621C31.2941 183.346 32.6863 184.401 34.1441 185.331C35.7236 186.339 37.2833 186.983 39.1062 187.361L39.2779 187.395C40.9892 187.734 42.8441 187.951 44.0378 189.359C44.3378 189.714 44.0631 190.38 43.5455 190.204C40.2455 189.091 36.7532 188.845 33.7237 187.017C32.4687 186.26 31.2814 185.392 29.999 184.675C29.3187 184.295 28.6164 183.962 27.8679 183.733L27.459 183.613C27.2194 183.543 26.9335 183.474 26.7413 183.543C26.3753 183.669 26.4921 183.865 26.6053 184.207L26.6166 184.242C27.5061 186.994 30.0413 189.297 32.3906 190.821C32.9293 191.172 33.4807 191.494 34.0427 191.792C37.8467 193.82 42.103 194.764 46.2834 195.885C46.2834 195.885 48.7005 196.56 49.5012 196.813C50.3927 196.739 51.4089 197.054 52.0808 197.43C52.7336 197.796 53.2597 198.286 53.6568 198.863C53.6568 198.863 54.0392 199.182 54.1089 199.677C54.3097 200.136 54.4449 200.63 54.5125 201.146C54.5505 201.448 54.4744 201.68 54.3308 201.845C54.7629 208.48 52.9714 215.078 50.9518 221.383L50.7516 222.005L50.623 222.399C48.4449 229.084 45.9456 235.721 44.8301 242.691C44.0843 247.347 44.1075 252.166 44.6547 256.843L44.6933 257.165C45.2324 261.588 46.2698 266.548 49.0808 270.107C50.5146 271.924 52.2133 272.731 54.3851 273.316L54.504 273.347C56.4688 273.865 58.497 274.599 60.523 274.821C62.4033 275.025 63.9794 274.326 65.6716 273.671L65.6737 273.669C69.2378 270.513 70.8561 265.918 72.0519 261.281C75.1512 249.281 74.7667 236.824 73.0089 224.648C72.092 218.286 70.8455 211.98 69.6033 205.675C68.9822 202.524 68.3124 199.379 67.7568 196.217L67.4268 194.356C67.2447 193.323 67.0686 192.288 66.9181 191.248C66.7153 189.851 66.654 188.478 66.5843 187.072C64.8772 184.242 62.3991 181.911 59.5279 180.239C57.4723 179.041 55.2962 178.21 53.0505 177.608C46.63 175.877 39.6307 175.999 33.1702 174.668C30.9998 174.221 28.9396 173.558 26.8805 172.763L26.5997 172.654C25.6554 172.286 24.692 172.081 24.223 173.195C23.8892 173.987 24.0878 174.812 24.5885 175.477C25.8159 177.109 28.2835 177.866 30.1406 178.453C31.2582 178.808 32.399 179.089 33.5526 179.299C34.7061 179.508 35.8638 179.561 36.9709 179.969C37.3976 180.125 37.4821 180.803 36.9709 180.924C35.5681 181.251 34.1568 180.97 32.7624 180.698C31.2307 180.395 29.7223 179.966 28.2561 179.423C27.9857 179.324 27.7058 179.218 27.4207 179.107L27.2061 179.022C27.4279 179.182 27.6497 179.341 27.8737 179.5C27.9328 179.542 27.8969 179.654 27.8188 179.626C24.3713 178.339 21.2345 176.018 18.8045 173.271L18.6835 173.134C17.8279 172.153 15.8779 169.185 14.2343 170.012C12.6908 170.787 15.3218 173.775 16.3217 174.996L16.4378 175.139C17.5744 175.169 18.6751 175.877 19.5963 176.447C21.1956 177.439 22.8667 178.293 24.5695 179.091C27.954 180.683 31.5477 181.805 34.8963 183.477C34.9406 183.5 34.9068 183.557 34.8646 183.551C32.7329 183.211 30.6244 182.667 28.5646 181.993L28.4727 181.965L28.3808 181.934C27.0942 181.511 25.8244 181.034 24.5758 180.524C23.1878 179.958 21.8315 179.322 20.5153 178.601C19.3237 177.95 18.0012 176.777 16.6195 176.604C16.4716 176.585 16.3406 176.583 16.2265 176.593C14.6399 176.726 15.9519 179.356 16.3956 180.142C17.1202 181.433 17.9949 182.625 18.9984 183.714C21.0329 185.924 23.4984 187.676 26.1667 189.04C27.0773 189.505 28.009 189.915 28.9554 190.291Z" fill="black"/>
<path fill-rule="evenodd" clip-rule="evenodd" d="M129.727 53.949C141.723 53.949 157.208 61.4768 158.528 69.1867C160.084 78.2727 168.417 113.137 166.535 124.317C164.654 135.497 154.514 143.545 138.289 143.545C122.064 143.545 109.954 134.694 107.173 131.655C104.393 128.615 99.2395 117.764 99.2395 117.764C99.2395 117.764 90.5523 116.609 90.5111 109.524C90.4699 102.44 96.1592 99.8628 96.1592 99.8628C96.1592 99.8628 94.1307 71.9055 99.2395 64.6268C104.348 57.3481 117.731 53.949 129.727 53.949Z" fill="white"/>
<path fill-rule="evenodd" clip-rule="evenodd" d="M157.794 67.9429C157.785 67.7803 158.022 67.7613 158.066 67.905C160.654 76.4584 162.249 83.1241 163.929 91.8933L164.425 94.4729C165.75 101.353 167.089 108.243 168.22 115.157L168.286 115.569C168.853 119.148 169.179 122.762 168.469 126.348C167.806 129.7 165.993 132.773 163.64 135.22C159.091 139.95 152.77 142.905 146.411 144.226C143.195 144.894 139.878 145.151 136.602 144.919C134.968 144.805 133.337 144.574 131.738 144.234L131.562 144.196C129.95 143.848 128.519 143.433 127.663 141.915C127.447 141.533 127.534 140.878 127.986 140.681C128.84 140.313 129.467 140.159 130.399 140.265C131.288 140.366 132.157 140.635 133.035 140.802C134.715 141.121 136.422 141.281 138.131 141.32C141.488 141.394 144.854 140.973 148.063 139.971C153.577 138.249 159.18 134.954 162.402 130.025C166.191 124.227 164.682 117.19 163.678 110.787L163.648 110.594C162.631 104.049 161.626 97.5041 160.65 90.9551L160.234 88.1482C159.14 80.7319 158.107 75.4376 157.794 67.9429ZM101.81 49.7902C104.562 47.9756 107.982 47.5297 111.214 47.5547L111.619 47.5598C115.758 47.6229 136.593 48.1189 143.568 48.2715L145.228 48.3065C147.424 48.348 151.854 48.3912 154.136 48.433L154.268 48.4354C155.387 48.4566 156.507 48.465 157.627 48.5009L157.791 48.5069C158.63 48.5427 159.328 48.6682 159.985 49.2597C160.319 49.5595 160.449 50.0166 160.418 50.4521L160.413 50.5088L162.076 50.6546C163.205 50.7544 163.802 51.7674 163.354 52.7925L163.331 52.8421C162.535 54.5413 161.926 59.4869 161.499 61.3151C161.275 62.2768 161.096 63.2532 160.99 64.236C160.906 65.0097 160.897 65.7852 160.466 66.4657C159.547 67.9177 156.961 67.905 156.915 65.8486C156.913 65.7831 156.915 65.7197 156.921 65.6584C150.414 65.373 141.53 65.4005 135.032 65.7894C128.962 66.1529 122.92 66.9772 116.973 68.239C115.466 68.5581 113.964 68.9068 112.473 69.2851C111.249 69.5937 109.747 69.7776 108.653 70.4391C107.428 71.1831 107.451 72.5167 107.584 73.7869C107.727 75.1332 107.965 74.4395 108.303 75.6665L108.323 75.744C108.672 77.0755 109.103 78.3922 109.673 79.6434C109.999 80.3578 110.523 81.0447 110.324 81.8668C110.212 82.3297 109.846 82.8242 109.511 83.1476C107.981 84.6165 105.395 83.6802 104.356 85.6923C103.268 87.7962 103.241 90.6463 103.149 92.9743L103.143 93.1107C103.076 94.7148 103.094 96.3232 103.2 97.9231C103.295 99.3812 103.684 100.825 103.185 102.226C102.822 103.245 101.635 103.34 101.013 102.512C100.942 102.416 100.877 102.319 100.816 102.221L100.756 102.123L100.752 102.125C100.811 102.218 100.866 102.313 100.918 102.41C100.975 102.518 100.834 102.636 100.747 102.543C99.2853 100.952 97.1494 101.269 95.4952 102.383C93.8198 103.515 93.1586 105.667 93.072 107.597C92.9748 109.737 93.1649 112.247 94.0565 114.225C94.4325 115.062 94.9689 115.831 95.8586 116.15C96.2623 116.294 96.6466 116.275 97.067 116.308C97.5041 116.342 98.0304 116.562 98.4548 116.533C99.0067 116.493 99.5021 117.123 99.3453 117.651L99.3339 117.686C99.3257 117.712 99.317 117.737 99.3088 117.76C99.3297 117.779 99.3508 117.803 99.3656 117.837C100.971 121.119 103.173 124.04 105.606 126.749C106.826 128.104 108.178 129.349 109.591 130.501C110.288 131.069 111.023 131.638 111.799 132.096C112.056 132.246 112.293 132.348 112.583 132.43C112.718 132.468 112.872 132.487 113.003 132.532L113.139 132.578C113.148 132.581 113.157 132.584 113.166 132.587C113.554 132.631 113.882 132.889 114.011 133.293C114.347 134.345 113.736 135.275 112.692 135.565C111.562 135.881 110.496 135.326 109.6 134.688L109.54 134.645C107.713 133.329 106.029 131.851 104.571 130.127C101.687 126.722 99.8809 122.78 99.0447 118.42C98.8374 118.866 98.5586 119.255 98.0748 119.525C97.3227 119.948 96.4248 119.948 95.6008 119.806C93.9424 119.525 92.529 118.513 91.5846 117.143C90.6041 115.723 90.2389 113.998 90.017 112.318C89.7973 110.636 89.6896 108.947 89.9093 107.261C90.2243 104.838 91.2403 102.444 93.2156 101.117C91.7367 97.8935 91.4769 94.2794 91.5825 90.7499C91.7114 86.4045 92.4614 82.0105 93.0381 77.7053L94.6778 65.466L94.7449 64.9726C95.1405 62.0933 95.6222 59.1988 96.6994 56.4858C97.7621 53.8122 99.3762 51.3943 101.81 49.7902ZM94.9096 107.692C97.6181 106.377 100.544 107.588 102.002 110.139C103.269 112.357 99.5009 113.823 98.8721 111.537L98.854 111.466C98.4399 109.735 96.7538 108.239 94.9941 108.007C94.8484 107.986 94.7404 107.774 94.9096 107.692Z" fill="black"/>
<path fill-rule="evenodd" clip-rule="evenodd" d="M143.152 128.274C141.732 127.695 140.465 126.728 139.538 125.493C139.216 125.063 139.133 124.61 139.2 124.195C139.276 123.729 139.552 123.306 139.928 123.023C140.305 122.739 140.777 122.598 141.233 122.67C141.63 122.732 142.024 122.949 142.337 123.399L142.402 123.489C142.953 124.235 143.67 124.846 144.488 125.241C145.276 125.621 146.158 125.798 147.07 125.695C148.808 125.499 150.005 124.559 151.278 123.282C151.436 123.121 151.594 122.955 151.752 122.786C151.852 122.633 151.991 122.534 152.146 122.483C152.317 122.425 152.511 122.429 152.689 122.491C152.86 122.55 153.013 122.664 153.116 122.815C153.213 122.958 153.269 123.135 153.251 123.339C153.134 124.661 152.443 125.842 151.461 126.769C150.37 127.799 148.924 128.511 147.563 128.761C146.064 129.036 144.536 128.839 143.152 128.274ZM148.271 107.866C149.866 108.836 152.297 111.098 150.581 113.503C148.56 115.624 145.652 113.193 144.219 112.093C142.89 111.241 141.396 113.433 142.629 114.428C152.987 122.099 157.19 108.12 149.078 106.726C148.184 106.572 147.853 107.566 148.271 107.866ZM129.711 98.9429C129.887 96.7541 133.219 96.257 133.551 98.423C133.847 100.363 133.498 102.145 132.624 103.892C131.79 105.561 129.692 104.783 129.533 103.263C129.32 101.226 129.601 100.304 129.711 98.9429ZM155.076 97.9738C155.541 97.3652 156.212 96.9496 157.015 97.1845C159.526 97.9185 158.786 101.485 157.904 103.22C157.425 104.163 155.876 104.402 155.176 103.572C154.036 102.219 153.489 99.5156 154.94 98.1825C154.979 98.1136 155.023 98.044 155.076 97.9738ZM132.589 89.3654L132.986 89.2959C134.213 89.0836 135.738 88.8796 136.606 89.8665C137.067 90.3898 137.225 91.3624 136.606 91.8633C135.518 92.7446 134.314 92.4031 133.01 92.4777C131.935 92.5394 130.902 92.7174 129.867 93.0135C127.595 93.663 125.744 94.8486 123.804 96.1506C123.55 96.3213 123.29 95.9956 123.411 95.7574C124.531 93.563 126.701 91.7604 128.875 90.6616C130.036 90.0751 131.305 89.5885 132.589 89.3654ZM152.787 88.3823L153.091 88.4445C156.395 89.1353 160.687 90.5153 162.251 93.7615C162.311 94.2205 162.248 94.3189 162.197 94.3832L162.18 94.4046C162.137 94.4595 162.104 94.5351 161.905 94.5976C161.85 94.5844 161.794 94.5705 161.737 94.5557C161.02 94.3677 160.453 94.1087 159.904 93.84L159.308 93.5465C158.617 93.2076 157.92 92.881 157.181 92.6399C155.605 92.1254 153.983 91.7631 152.337 91.5696C151.98 91.5277 151.636 91.4072 151.365 91.2006C151.108 91.0046 150.911 90.7332 150.821 90.3724C150.705 89.9056 150.739 89.5521 150.989 89.1309C151.177 88.8146 151.447 88.5953 151.756 88.4694C152.071 88.3411 152.43 88.3108 152.787 88.3823Z" fill="black"/>
</svg>
