<svg width="240" height="324" viewBox="0 0 240 324" fill="none" xmlns="http://www.w3.org/2000/svg">
<path fill-rule="evenodd" clip-rule="evenodd" d="M55.9684 287.806C63.0179 287.827 69.8677 288.069 76.937 288.092C105.673 288.188 134.674 288.049 163.515 286.883C171.666 286.554 173.701 286.562 181.817 286.051C186.61 286.034 201.004 285.637 200.284 279.108C199.966 266.946 196.956 254.836 196.008 242.707C194.188 219.906 192.639 196.392 183.503 175.066C181.388 169.973 176.846 166.643 172.35 163.648C167.841 160.417 166.735 156.83 162.573 153.18C161.693 152.408 156.697 152.094 154.008 150.137C150.095 147.287 148.155 142.623 146.695 141.828C145.62 141.244 145.64 137.213 143.487 135.786C140.597 133.872 131.39 132.448 128.04 132.182C124.825 131.926 119.232 132.463 116.215 133.641C111.185 135.605 109.178 139.352 106.963 144.179C77.6922 153.229 50.9383 168.553 42.6296 199.464C35.4644 225.389 35.2018 253.182 37.9698 279.77C38.5236 281.714 38.1355 284.762 39.8151 286.051C33.9782 286.386 55.1765 287.59 55.9684 287.806Z" fill="white"/>
<path fill-rule="evenodd" clip-rule="evenodd" d="M189.101 262.208C188.547 261.931 187.97 261.615 187.338 261.593C186.251 261.555 186.25 259.864 187.338 259.902C188.286 259.935 189.12 260.331 189.955 260.748C190.929 261.234 190.072 262.692 189.101 262.208ZM187.337 214.616C188.079 214.616 188.826 214.71 189.395 215.228C189.734 215.537 189.707 216.112 189.395 216.424C189.062 216.757 188.537 216.731 188.2 216.424C188.31 216.524 188.201 216.425 188.161 216.403C188.152 216.398 188.146 216.394 188.144 216.392C188.135 216.39 188.127 216.388 188.113 216.384C188.025 216.362 187.938 216.34 187.848 216.324C187.847 216.329 187.66 216.312 187.616 216.31C187.523 216.307 187.43 216.306 187.337 216.306C186.879 216.306 186.492 215.92 186.492 215.461C186.492 215.004 186.881 214.615 187.337 214.616ZM179.391 233.581C179.149 234.643 177.519 234.191 177.761 233.132C178.112 231.592 178.048 230.014 177.761 228.468C177.563 227.403 179.192 226.95 179.391 228.019C179.735 229.873 179.812 231.733 179.391 233.581ZM177.256 172.816C175.997 172.517 174.752 172.481 173.465 172.481C172.376 172.48 172.377 170.79 173.465 170.79C174.901 170.79 176.303 170.852 177.705 171.186C178.765 171.437 178.313 173.067 177.256 172.816ZM173.038 214C172.308 213.634 171.578 213.269 170.848 212.904C169.874 212.417 170.731 210.959 171.701 211.444L173.891 212.54C174.865 213.027 174.009 214.485 173.038 214ZM172.734 247.296C171.808 248.632 170.506 249.461 168.944 249.876C167.889 250.155 167.444 248.524 168.494 248.245C169.612 247.949 170.604 247.41 171.275 246.443C171.891 245.554 173.356 246.4 172.734 247.296ZM166.894 187.766C166.644 187.298 166.266 187.1 165.798 187.089C164.711 187.065 164.71 185.374 165.798 185.399C166.865 185.423 167.844 185.959 168.353 186.913C168.867 187.873 167.407 188.726 166.894 187.766ZM156.174 199.259C155.871 199.589 155.284 199.581 154.979 199.259C154.792 199.062 154.636 198.842 154.512 198.601C154.465 198.509 154.421 198.416 154.37 198.327C154.347 198.288 154.321 198.248 154.295 198.21C154.286 198.202 154.268 198.183 154.249 198.163C153.924 197.82 153.932 197.313 154.249 196.968C154.552 196.638 155.139 196.646 155.444 196.968C155.63 197.165 155.787 197.385 155.91 197.626C155.957 197.717 156.001 197.811 156.053 197.9C156.076 197.939 156.102 197.978 156.128 198.016C156.137 198.024 156.155 198.043 156.174 198.063C156.499 198.407 156.491 198.914 156.174 199.259ZM155.273 224.226C154.172 224.729 152.965 224.729 151.864 224.226C151.447 224.035 151.348 223.433 151.561 223.069C151.807 222.647 152.302 222.576 152.717 222.766C153.216 222.994 153.921 222.994 154.42 222.766C154.836 222.575 155.327 222.643 155.576 223.069C155.79 223.435 155.688 224.036 155.273 224.226ZM152.271 241.898C152.081 242.345 151.673 242.583 151.196 242.602C150.723 242.62 150.37 242.2 150.351 241.756C150.338 241.47 150.493 241.225 150.715 241.073C150.715 241.057 150.716 241.042 150.716 241.026C150.716 240.552 151.103 240.201 151.561 240.18C152.017 240.16 152.406 240.584 152.406 241.026C152.406 241.324 152.387 241.62 152.271 241.898ZM147.91 269.993C146.561 270.014 145.243 270.336 143.894 270.358C142.805 270.375 142.808 268.685 143.894 268.667C145.243 268.645 146.561 268.324 147.91 268.302C149 268.284 148.997 269.975 147.91 269.993ZM142.301 161.642C141.512 162.394 140.536 162.765 139.575 163.235C138.6 163.711 137.744 162.253 138.721 161.775C139.536 161.377 140.438 161.083 141.106 160.447C141.894 159.696 143.091 160.89 142.301 161.642ZM140.182 181.131C139.628 180.854 139.051 180.538 138.418 180.516C137.332 180.478 137.33 178.787 138.418 178.825C139.367 178.858 140.2 179.254 141.035 179.671C142.01 180.157 141.153 181.615 140.182 181.131ZM130.022 259.348C129.772 258.879 129.395 258.682 128.927 258.671C127.839 258.646 127.838 256.955 128.927 256.98C129.993 257.005 130.972 257.541 131.482 258.495C131.995 259.455 130.535 260.308 130.022 259.348ZM126.504 222.632C126.167 222.324 126.191 221.75 126.504 221.437C126.869 221.072 127.234 220.707 127.599 220.341C127.933 220.007 128.457 220.032 128.794 220.341C129.13 220.65 129.107 221.224 128.794 221.537C128.429 221.902 128.064 222.267 127.699 222.632C127.364 222.967 126.841 222.942 126.504 222.632ZM122.355 279.853C121.136 279.825 119.993 279.475 118.845 279.093C117.816 278.75 118.26 277.118 119.294 277.462C120.292 277.794 121.294 278.138 122.355 278.163C123.443 278.188 123.443 279.879 122.355 279.853ZM116.879 243.697C115.778 243.667 114.864 243.105 114.091 242.354C113.31 241.594 114.506 240.399 115.286 241.159C115.729 241.588 116.239 241.989 116.879 242.006C117.966 242.037 117.967 243.727 116.879 243.697ZM120.279 197.2C120.293 197.65 120.483 198.133 120.762 198.429C121.509 199.22 120.315 200.417 119.567 199.624C118.95 198.97 118.615 198.095 118.589 197.2C118.558 196.11 120.248 196.115 120.279 197.2ZM107.388 160.375C107.034 159.683 106.57 158.87 105.865 158.487C104.908 157.968 105.762 156.508 106.719 157.027C107.677 157.548 108.363 158.573 108.847 159.522C109.341 160.49 107.882 161.345 107.388 160.375ZM105.197 177.959C104.805 177.948 104.415 177.881 104.037 177.778C103.876 177.734 103.716 177.684 103.554 177.64C103.485 177.621 103.191 177.584 103.371 177.594C102.914 177.569 102.526 177.227 102.526 176.748C102.526 176.309 102.915 175.879 103.371 175.903C103.999 175.937 104.569 176.251 105.197 176.268C106.284 176.299 106.285 177.99 105.197 177.959ZM99.7207 204.985H97.8953C96.806 204.985 96.808 203.294 97.8953 203.294H99.7207C100.81 203.294 100.808 204.985 99.7207 204.985ZM97.5917 279.738C97.0382 280.015 96.3858 280.277 95.9375 280.701C95.1469 281.449 93.9503 280.255 94.7424 279.506C95.3134 278.966 96.0435 278.626 96.7388 278.278C97.1485 278.073 97.6521 278.166 97.8951 278.581C98.1146 278.957 97.9999 279.534 97.5917 279.738ZM93.5131 258.375C93.4423 258.355 93.3675 258.341 93.2959 258.331C93.0086 258.293 92.7079 258.306 92.4193 258.306C91.3301 258.305 91.3317 256.614 92.4193 256.615C93.2765 256.616 94.1684 256.628 94.8424 257.228C95.1844 257.533 95.1512 258.114 94.8424 258.423C94.5065 258.759 93.9878 258.727 93.6472 258.423C93.6831 258.456 93.56 258.388 93.5131 258.375ZM92.4199 229.643C92.6654 229.136 92.6692 228.806 92.6697 228.243C92.6705 227.154 94.3606 227.155 94.3598 228.243C94.3594 229.061 94.2379 229.756 93.8794 230.496C93.6793 230.909 93.0937 231.016 92.7233 230.8C92.308 230.557 92.2211 230.053 92.4199 229.643ZM87.5328 189.981C86.5525 190.314 85.6775 190.787 84.8142 191.357C83.903 191.958 83.0573 190.493 83.9611 189.897C84.9463 189.246 85.9652 188.731 87.0834 188.35C88.1174 187.999 88.557 189.632 87.5328 189.981ZM81.8323 161.525C81.1041 161.545 80.3524 161.824 79.7034 162.14C78.7279 162.613 77.8721 161.155 78.8505 160.68C79.7775 160.229 80.7918 159.863 81.8323 159.834C82.9222 159.803 82.9176 161.494 81.8323 161.525ZM79.2767 237.489C78.9902 237.502 78.7453 237.347 78.5936 237.124C78.5778 237.124 78.5622 237.123 78.5465 237.123C78.0729 237.123 77.7222 236.736 77.7015 236.278C77.681 235.822 78.1046 235.432 78.5465 235.433C78.8448 235.433 79.1408 235.451 79.418 235.568C79.8657 235.757 80.1036 236.166 80.1218 236.643C80.1397 237.117 79.7201 237.469 79.2767 237.489ZM75.1205 179.025C74.0825 179.364 73.6418 177.731 74.6711 177.394C75.8794 176.999 77.114 176.693 78.322 176.298C79.36 175.959 79.8007 177.592 78.7712 177.929C77.5634 178.324 76.3285 178.63 75.1205 179.025ZM71.3301 210.938C71.0082 211.976 69.3774 211.53 69.7002 210.488C70.012 209.483 70.0344 208.471 70.0351 207.426C70.0357 206.336 71.7258 206.338 71.7252 207.426C71.7246 208.615 71.6846 209.793 71.3301 210.938ZM60.0302 249.162C59.9687 249.583 59.6349 249.886 59.198 249.906C58.7533 249.926 58.3369 249.503 58.3529 249.061C58.384 248.209 59.0776 247.516 59.9282 247.485C60.4014 247.467 60.7534 247.886 60.7732 248.33C60.7927 248.762 60.4322 249.099 60.0302 249.162ZM54.3115 200.572C53.4184 200.87 52.4641 201.154 51.764 201.816C50.9728 202.562 49.7762 201.368 50.5689 200.62C51.4921 199.748 52.6796 199.337 53.8623 198.942C54.8979 198.596 55.338 200.229 54.3115 200.572ZM50.436 233.418C50.1905 233.838 49.6934 233.913 49.2799 233.721C48.7256 233.463 48.1135 233.472 47.5158 233.471C46.4268 233.47 46.4284 231.78 47.5158 231.781C48.4378 231.781 49.2884 231.868 50.133 232.261C50.5486 232.455 50.6498 233.052 50.436 233.418ZM48.2458 273.279C47.7726 273.297 47.4206 272.878 47.4007 272.434C47.3813 272.002 47.7415 271.665 48.144 271.602C48.2052 271.181 48.5392 270.878 48.9759 270.858C49.4209 270.838 49.8373 271.261 49.821 271.704C49.79 272.555 49.0968 273.248 48.2458 273.279ZM202.223 279.673C201.936 278.639 201.279 277.804 200.783 276.874C200.616 276.561 200.558 276.366 200.468 276.136C200.345 276.382 200.108 276.566 199.75 276.567C199.064 276.567 198.261 276.523 197.621 276.816C197.204 277.007 196.714 276.939 196.465 276.513C196.251 276.147 196.353 275.547 196.768 275.356C197.712 274.924 198.726 274.876 199.75 274.876C200.003 274.876 200.194 274.969 200.329 275.109C200.721 269.749 200.711 264.385 200.341 259.021C199.946 253.29 199.037 247.672 198.087 242.014C197.626 239.271 197.028 236.5 197.145 233.706C197.261 230.931 198.45 228.344 197.607 225.561C197.269 224.445 196.69 223.422 196.314 222.318C195.911 221.131 195.947 219.958 196.13 218.728C196.509 216.223 197.136 213.748 196.132 211.303C195.689 210.219 194.97 209.251 194.624 208.13C194.193 206.738 194.252 205.197 194.18 203.753C194.035 200.841 193.997 197.91 193.756 195.003C193.648 193.702 193.414 192.467 192.879 191.273C192.365 190.123 191.603 189.077 191.263 187.858C190.925 186.657 190.895 185.391 190.714 184.163C190.523 182.866 190.225 181.587 189.824 180.34C188.273 175.513 185.432 171.176 182.075 167.416C178.506 163.419 174.241 160.41 169.714 157.605C167.333 156.13 164.952 154.655 162.573 153.181C162.522 153.457 162.346 153.712 162.007 153.825C161.114 154.123 160.16 154.407 159.46 155.068C158.669 155.815 157.472 154.621 158.265 153.873C159.091 153.092 160.131 152.681 161.188 152.319C160.104 151.636 159.009 150.928 157.785 150.533C156.714 150.187 155.134 150.489 154.265 149.703C153.583 149.083 153.368 147.936 153.106 147.095C152.778 146.05 152.495 144.949 152.079 143.935C151.796 143.242 151.384 142.576 150.864 142.039C150.636 141.16 150.218 140.357 149.478 139.869C147.543 138.588 145.166 139.86 144.315 141.686C143.611 141.684 142.87 141.838 142.185 141.881C140.778 141.969 139.369 142.009 137.96 142.005C135.203 141.997 132.444 141.817 129.71 141.452C124.821 140.796 120.078 139.475 115.272 138.446C115.245 138.383 115.213 138.319 115.175 138.256C114.14 136.519 111.56 136.812 109.935 137.47C109.238 137.751 108.528 138.106 108.129 138.765C107.706 139.051 107.341 139.397 107.098 139.763C106.595 140.517 106.206 142.039 105.186 142.166C104.514 142.248 103.832 142.119 103.149 142.217C102.296 142.335 101.531 142.635 100.743 142.977C94.7431 145.583 88.5403 148.481 82.0288 149.491C80.5015 149.728 78.9466 149.973 77.6199 150.829C76.5424 151.524 75.7098 152.48 74.8206 153.386C73.9544 154.27 73.2403 154.661 72.0044 154.819C70.5044 155.012 69.2051 155.426 68.1086 156.517C67.198 157.423 66.6044 158.581 65.8903 159.634C65.1633 160.708 64.0966 161.312 62.9896 161.936C60.372 163.411 57.9339 165.193 55.8107 167.329C51.3382 171.835 48.6297 177.626 45.9001 183.269C42.9487 189.373 40.1896 195.551 38.2755 202.069C36.3994 208.469 35.2839 215.052 34.7685 221.697C34.2255 228.669 34.1494 235.669 33.6973 242.646C33.4713 246.131 33.3001 249.621 33.1269 253.108C32.9579 256.553 32.7107 260.004 32.7506 263.453C32.8269 270.122 34.1598 276.811 36.4903 283.054C37.0713 284.608 37.7154 286.14 38.402 287.649C39.0044 288.974 41.0642 288.826 41.7107 287.649C41.8586 287.378 41.9748 287.099 42.072 286.816C43.7621 286.831 45.4692 286.7 47.1487 286.856C50.1149 287.133 53.0873 287.287 56.0619 287.471C61.948 287.837 67.8445 288.08 73.7325 288.416C74.3038 288.449 74.8751 288.481 75.4461 288.515C71.2501 275.523 71.7944 261.477 71.1304 247.965C71.0769 246.876 72.7675 246.882 72.8205 247.965C73.4873 261.535 72.9196 275.617 77.2639 288.63C78.9494 288.745 80.6325 288.884 82.31 289.088C83.6661 289.251 85.029 289.443 86.398 289.376C87.9508 289.302 89.4677 288.947 90.9825 288.638C93.7354 288.078 96.3868 288.332 99.1501 288.676C102.106 289.046 105.072 289.251 108.047 289.38C119.958 289.902 131.949 290.377 143.856 289.581C146.738 289.388 149.614 289.118 152.476 288.75C155.425 288.372 158.343 287.736 161.29 287.374C164.195 287.019 166.866 287.993 169.737 288.173C172.665 288.357 175.671 287.746 178.572 287.395C179.518 287.281 180.466 287.169 181.413 287.058C180.193 278.694 179.5 270.267 178.826 261.843C178.739 260.756 180.43 260.766 180.516 261.843C181.184 270.201 181.862 278.565 183.08 286.864C188.103 286.279 193.131 285.688 198.102 284.777C199.517 284.519 200.924 284.098 201.771 282.834C202.399 281.898 202.525 280.75 202.223 279.673Z" fill="black"/>
<path fill-rule="evenodd" clip-rule="evenodd" d="M176.592 92.0542C174.659 81.508 169.892 71.4733 162.571 63.6219C161.726 62.6896 160.967 61.2191 159.678 60.984C158.384 58.3462 155.917 56.4814 153.946 54.3512C149.642 50.0585 145.524 45.2615 139.973 42.5507C114.226 31.9574 89.4494 62.1627 84.1916 84.8789C78.9693 103.147 84.6731 128.348 107.304 129.088C110.506 133.324 114.924 136.256 119.463 138.875C125.66 142.845 132.421 144.456 139.591 142.247C146.731 144.114 154.133 138.123 158.425 132.87C161.817 128.801 164.141 123.835 167.244 119.623C170.907 119.531 174.072 116.429 174.562 112.792C177.983 106.503 177.828 98.9666 176.592 92.0542Z" fill="white"/>
<path fill-rule="evenodd" clip-rule="evenodd" d="M120.511 38.9614C125.195 37.8664 130.108 38.0934 134.749 39.2968C143.946 41.6823 151.514 47.8857 157.789 54.8021C163.91 61.5484 168.957 69.2822 172.644 77.6134L172.83 78.0372C175.438 83.976 177.704 90.1489 177.801 96.6882C177.885 102.316 177.316 108.179 175.499 113.533C173.88 118.301 170.901 123.107 165.778 124.25C162.823 131.763 157.043 138.269 149.761 141.75C145.245 143.91 140.286 144.874 135.293 144.394C130.198 143.906 125.44 141.457 121.459 138.334C121.349 138.249 121.49 138.083 121.603 138.147C126.396 140.911 132.065 141.899 137.556 141.717C146.578 141.419 154.85 136.547 159.603 128.889C160.786 126.983 161.84 124.973 162.68 122.881C162.631 122.709 162.603 122.535 162.603 122.365C162.603 121.644 162.944 121.094 163.454 120.738C163.691 119.999 163.9 119.251 164.075 118.495C164.471 116.783 164.692 115.046 164.825 113.295C164.933 111.872 164.873 110.363 165.016 108.904C164.964 107.735 164.892 106.567 164.786 105.402C164.445 101.647 163.756 97.9007 162.429 94.3614C161.084 90.7765 158.96 87.6151 156.281 84.894C150.534 79.0578 143.379 74.7965 137.791 68.8011L137.498 68.4839L137.478 68.4775C136.785 69.1887 136.092 69.8999 135.397 70.6096L132.222 73.849C125.743 80.4677 119.316 87.1506 113.679 94.5157C110.433 98.7569 107.517 103.203 105.005 107.917C103.815 110.15 102.736 112.438 101.761 114.773L101.377 115.702C100.921 116.814 100.427 118.059 100.153 119.315C100.968 120.125 101.565 121.314 102.224 122.232C102.973 123.274 103.835 124.266 104.723 125.191C105.622 126.128 106.607 127.026 107.653 127.796L107.779 127.886C108.979 128.739 110.357 129.327 110.537 130.95C110.616 131.654 109.986 132.221 109.403 132.44C107.807 133.04 106.154 131.317 105.091 130.326C104.428 129.708 103.818 129.042 103.253 128.339C102.702 128.418 102.148 128.457 101.6 128.392C100.751 128.291 99.9094 128.143 99.0818 127.925C92.2182 126.122 87.1378 120.422 84.3969 114.074C80.717 105.551 80.8026 95.7263 82.3323 86.7135C85.1276 70.243 94.1745 54.8613 107.835 45.1233C111.661 42.3961 115.904 40.038 120.511 38.9614ZM127.906 41.1648C119.081 40.6996 111.035 45.2521 104.58 50.919C92.826 61.2371 85.5862 76.3444 84.1298 91.8582C83.3559 100.101 83.935 108.985 88.2313 116.268C89.8982 119.093 92.0451 121.555 94.5793 123.631C96.9672 125.588 99.6892 126.715 102.599 127.483C102.467 127.3 102.336 127.116 102.209 126.929C101.532 125.938 100.994 124.884 100.544 123.78C100.504 123.82 100.429 123.828 100.385 123.767C98.5484 121.246 99.1232 118.238 99.9987 115.465C100.917 112.557 102.08 109.728 103.408 106.983C108.248 96.98 115.447 88.2659 122.919 80.1341C126.735 75.9813 130.678 71.9488 134.607 67.9025C136.568 65.882 138.525 63.8555 140.457 61.8059C141.418 60.7855 142.374 59.7598 143.321 58.7258C144.257 57.7035 145.1 56.6208 146.265 55.8551C147.195 55.2449 148.123 56.4111 147.688 57.2785C147.02 58.6126 145.871 59.6703 144.855 60.7551L144.75 60.8675C143.759 61.9377 142.758 62.9993 141.752 64.0553C140.595 65.2697 139.428 66.4758 138.258 67.6789C139.256 67.5632 140.266 67.4967 141.258 67.346C142.605 67.1414 143.934 66.84 145.256 66.5122C146.649 66.1671 148.024 65.7264 149.352 65.1786C150.599 64.6642 151.778 63.8399 153.15 63.7592C154.311 63.6907 154.674 65.1293 154.031 65.8864C153.144 66.9296 151.549 67.3402 150.252 67.7276L150.069 67.7828C148.635 68.2208 147.167 68.5494 145.684 68.769C143.732 69.0581 141.476 69.1904 139.388 68.8945C143.558 71.3407 147.396 74.3723 151.222 77.3288L151.898 77.8497C155.636 80.7274 159.285 83.8296 161.951 87.7669C164.44 91.4424 165.942 95.7217 166.785 100.058C167.201 102.197 167.476 104.358 167.66 106.529C168.346 108.454 168.236 110.742 168.063 112.859L168.002 113.589L168.006 113.804C168.032 115.127 168.564 118.075 167.311 119.075C167.29 119.181 167.27 119.288 167.248 119.395C167.404 119.299 167.558 119.2 167.71 119.098C167.773 119.056 167.834 119.009 167.895 118.964L168.069 118.822C168.075 118.816 168.081 118.811 168.085 118.807C168.474 118.466 168.845 118.11 169.191 117.724C169.829 117.012 170.436 116.107 171.011 115.065C172.275 112.774 173.082 110.283 173.707 107.708C174.848 103.001 175.319 97.944 174.798 93.1159C174.726 92.4419 174.576 91.5969 174.345 90.73C173.796 88.6714 173.164 86.6347 172.456 84.6253C171.041 80.6057 169.306 76.706 167.283 72.9558C163.175 65.3388 157.889 58.2966 151.556 52.387C145.142 46.4022 136.824 41.6348 127.906 41.1648ZM115.461 65.5017C115.779 65.3073 116.106 65.6849 115.948 65.9897C115.184 67.4647 113.899 68.71 112.832 69.9739C111.727 71.2826 110.63 72.5984 109.535 73.9162C107.307 76.5993 105.132 79.3316 103.043 82.1248L102.491 82.8637C100.654 85.3303 98.8399 87.8359 97.2343 90.4567C96.3943 91.8277 95.654 93.2457 94.9817 94.7059C94.3418 96.0959 94.0467 97.7738 93.2777 99.0796C93.2293 99.162 93.0793 99.1552 93.0607 99.051C92.8097 97.6451 93.4298 95.9518 93.8728 94.6353C94.3995 93.0696 95.1491 91.5783 95.9515 90.138C97.6251 87.1334 99.6305 84.3172 101.645 81.5349C103.691 78.7098 105.816 75.9424 108.044 73.2587C109.091 71.9981 110.161 70.7627 111.264 69.5517L111.678 69.0987C112.833 67.8458 113.997 66.3957 115.461 65.5017ZM110.11 61.1338C110.633 60.746 111.08 61.5386 110.746 61.9587C108.752 64.4683 106.483 66.7232 104.3 69.0637C102.204 71.3114 100.201 73.6432 98.3109 76.0668C94.4568 81.0088 91.3716 86.4316 88.7587 92.115C88.7095 92.2222 88.5544 92.1423 88.5776 92.0387C89.9617 85.8912 93.1974 80.3078 96.8817 75.263L97.0218 75.0717C100.748 69.9987 105.032 64.899 110.11 61.1338Z" fill="black"/>
<path fill-rule="evenodd" clip-rule="evenodd" d="M149.373 128.003C148.022 128.014 146.504 127.507 145.489 127.11L145.224 127.005C144.346 126.653 143.443 126.249 142.77 125.571C142.555 125.35 142.326 125.101 142.21 124.839C142.141 124.685 142.113 124.526 142.179 124.368C142.422 124.344 142.653 124.313 142.871 124.273C142.975 124.254 143.075 124.234 143.151 124.234C143.433 124.232 143.712 124.268 143.99 124.303C144.03 124.308 144.071 124.313 144.111 124.318C144.328 124.345 144.543 124.374 144.758 124.403C145.384 124.487 146.007 124.57 146.642 124.601C147.101 124.623 147.582 124.597 148.067 124.57C149.325 124.502 150.626 124.408 151.595 125.29C151.849 125.521 151.955 125.812 151.955 126.108C151.955 126.468 151.804 126.835 151.573 127.122C151.05 127.773 150.244 127.996 149.373 128.003ZM156.736 116.649C156.148 117.531 155.169 118.098 153.828 118.036C151.163 117.914 147.982 116.908 145.749 115.453C145.168 115.075 144.791 114.469 144.723 113.82L144.603 112.666L143.953 113.627C143.885 113.727 143.817 113.827 143.749 113.927C143.561 114.202 143.373 114.477 143.195 114.759C142.514 115.842 141.89 116.935 141.323 118.082C140.921 118.894 140.628 119.802 140.334 120.718C139.837 122.265 139.357 123.787 138.295 124.874C138.135 125.038 137.888 125.097 137.662 125.068C137.463 125.043 137.268 124.945 137.173 124.75C135.904 122.17 137.61 119.061 138.994 116.9L139.14 116.674C140.424 114.721 142.519 112.136 144.919 111.784L145.194 112.223L145.593 111.956C146.247 111.52 147.109 111.54 147.864 111.881L148.619 112.222C150.025 112.853 151.411 113.436 152.932 113.755C153.043 113.778 153.154 113.799 153.264 113.82C153.369 113.839 153.474 113.856 153.579 113.873C153.556 113.769 153.532 113.666 153.508 113.563C153.482 113.454 153.456 113.345 153.428 113.236C153.4 113.124 153.369 113.012 153.338 112.901C153.216 112.457 153.079 112.017 152.916 111.586C152.302 109.968 151.321 108.454 150.367 107.01L150.255 106.84C150.118 106.633 149.968 106.417 149.814 106.194C149.07 105.122 148.245 103.959 148.186 102.792C149.174 102.854 150 103.468 150.727 104.002C151.725 104.735 152.65 105.573 153.49 106.483C155.117 108.249 156.578 110.507 157.219 112.841C157.585 114.178 157.424 115.616 156.736 116.649ZM130.694 103.334L130.694 103.286C130.696 101.938 131.481 98.8612 133.421 98.8612C134.632 98.8612 135.368 100.955 135.495 103.114L135.5 103.202C135.556 104.545 135.188 107.478 133.421 107.478C131.635 107.478 130.712 104.7 130.694 103.334ZM159.248 102.911L159.248 102.863C159.245 101.516 158.461 98.4385 156.521 98.4385C155.34 98.4385 154.611 100.429 154.457 102.53L154.446 102.692C154.37 103.988 154.714 107.056 156.521 107.056C158.307 107.056 159.229 104.277 159.248 102.911ZM137.226 94.2128C136.969 94.243 136.713 94.2825 136.457 94.3231C135.712 94.4419 134.97 94.5846 134.233 94.7509C132.834 95.0669 131.446 95.4659 130.085 95.9167C128.811 96.3388 127.557 96.8158 126.303 97.2927C126.236 97.3181 126.169 97.3436 126.102 97.369C125.659 97.5374 125.218 97.7261 124.776 97.9154C124.102 98.2035 123.425 98.4936 122.735 98.7121C124.554 96.1958 127.357 94.3313 130.055 92.9971C131.594 92.2358 133.226 91.622 134.869 91.119L135.783 90.8441C137.13 90.4466 138.602 90.0794 139.868 90.872C140.368 91.1854 140.687 91.6727 140.788 92.1995C140.886 92.7161 140.774 93.27 140.417 93.7323C140.107 94.135 139.719 94.3643 139.307 94.4429C138.853 94.5297 138.371 94.4344 137.932 94.2C137.58 94.1738 137.477 94.1833 137.373 94.1948L137.226 94.2128ZM157.486 94.4688C156.585 94.2728 155.692 94.1941 154.767 94.2223C154.349 94.2349 153.944 94.2995 153.541 94.3646C152.914 94.4656 152.29 94.5699 151.615 94.4473C151.263 94.3833 150.963 94.1772 150.731 93.9082C150.46 93.5936 150.281 93.1916 150.223 92.8094C150.164 92.4146 150.223 92.0692 150.369 91.7643C150.542 91.4041 150.832 91.1005 151.183 90.8346C152.246 90.0296 154.07 90.2232 155.324 90.3859C156.564 90.5472 157.797 90.9317 158.892 91.5424C159.974 92.1452 160.913 92.9573 161.647 93.9499C162.265 94.7865 162.556 95.7494 162.857 96.7299C161.442 95.5428 159.278 94.858 157.486 94.4688Z" fill="black"/>
<path fill-rule="evenodd" clip-rule="evenodd" d="M129.449 129.599C131.159 125.59 134.893 122.644 139.191 121.566C142.347 120.778 145.66 120.803 148.877 121.116C150.563 121.279 152.371 121.412 153.96 122.039C155.317 122.574 156.422 123.585 157.254 124.772C158.243 126.179 158.916 127.789 159.389 129.439C159.456 129.674 159.519 129.91 159.578 130.148C159.372 131.393 158.936 132.453 157.783 133.236C156.658 134 155.316 134.313 153.978 134.424C153.847 134.361 153.72 134.296 153.603 134.23C151.518 133.035 150.051 130.213 147.419 130.595C145.07 130.936 143.524 133.893 142.127 135.626C137.644 136.149 133.164 134.801 129.516 132.236C129.33 131.359 129.32 130.473 129.449 129.599ZM162.625 126.558C162.266 125.551 161.814 124.576 161.279 123.657C159.509 120.619 156.791 118.198 153.565 116.814C145.934 113.546 136.06 115.85 129.897 121.211C127.792 123.044 125.663 125.737 125.019 128.634C124.827 128.672 124.645 128.772 124.496 128.913C120.043 126.108 115.458 123.41 111.87 119.523C109.264 116.698 107.452 113.355 106.342 109.682C106.251 109.38 105.764 109.424 105.779 109.759C105.783 109.837 105.787 109.915 105.791 109.993C105.745 109.849 105.526 109.923 105.509 110.063C104.912 114.525 104.165 119.256 104.853 123.742C105.264 126.418 106.479 128.377 108.104 130.493C109.845 132.761 111.815 134.87 113.83 136.893C115.109 138.177 116.444 139.658 118.01 140.6C119.831 141.694 121.896 142.525 123.839 143.369C125.816 144.231 127.823 145.026 129.867 145.716C133.954 147.1 138.178 148.056 142.476 148.475C145.917 148.809 149.85 149.173 153.148 147.878C155.675 146.886 157.715 145.092 159.334 142.934C161.095 140.583 162.488 137.905 163.258 135.082C164.058 132.149 162.793 127.03 162.625 126.558Z" fill="black"/>
<path fill-rule="evenodd" clip-rule="evenodd" d="M159.889 92.1489C164.848 92.1489 167.678 93.2157 168.715 93.2988L168.746 93.3011C169.177 93.3287 169.564 93.3647 169.97 93.5218C171.463 94.0969 171.706 95.6631 170.835 96.6502C170.774 98.6926 171.042 101.079 170.582 103.128C170.013 111.766 165.953 113.224 163.644 113.756C162.485 114.023 161.112 114.129 159.881 113.847C157.781 113.769 155.705 113.111 153.929 111.966C151.455 110.37 149.618 107.917 149.021 105.005C148.739 103.618 148.607 102.173 148.761 100.762L148.783 100.568C147.979 100.183 147.047 100.11 146.087 100.076C145.628 100.06 145.176 100.046 144.736 100.065C144.307 100.113 143.883 100.177 143.457 100.264C142.992 100.404 142.553 100.636 142.148 101.002L142.12 101.538C142.044 102.875 141.869 104.216 141.598 105.527C141.198 107.463 140.556 109.311 139.188 110.684C138.725 111.376 138.152 111.994 137.456 112.528C134.929 114.475 131.496 115.189 128.345 114.92C121.949 114.374 118.252 109.294 117.399 107.123L117.349 106.992C116.733 105.377 116.242 103.283 114.297 102.936L113.884 102.862C112.996 102.695 112.177 102.463 111.657 101.597C111.429 101.219 111.311 100.796 111.283 100.364C110.979 100.388 110.676 100.41 110.374 100.432C107.963 100.942 93.507 101.374 92.353 101.374C92.353 101.374 90.1349 102.308 89.1985 101.584C88.5494 101.081 88.3358 100.411 88.6931 99.6508C89.2323 98.5077 91.7196 97.8201 92.8241 97.6023C92.8241 97.6023 110.648 97.7504 111.931 97.5071C112.724 96.6884 114.144 96.8004 115.33 96.671C116.312 95.9704 117.686 95.5012 118.772 95.1871C118.993 95.1033 119.212 95.0222 119.425 94.9458C121.414 94.237 123.482 93.8616 125.582 93.6599C127.747 93.4541 129.918 93.5473 132.071 93.8422C132.978 93.9653 133.876 94.1245 134.769 94.3327C136.366 94.5434 137.955 94.8904 139.553 95.3021L139.873 95.3853C141.556 95.8267 143.285 96.2085 145.027 95.9093C146.446 95.6673 147.81 95.1212 149.118 94.5307L149.288 94.4534C152.163 93.14 156.654 92.1489 159.889 92.1489ZM134.596 96.9513C133.535 96.7179 133.082 98.3543 134.146 98.5884C134.9 98.7541 135.538 99.1344 135.97 99.7785L136.015 99.8486C136.595 100.77 138.059 99.9194 137.476 98.9916C136.82 97.9475 135.8 97.2161 134.596 96.9513ZM165.67 95.9367C165.296 95.6731 164.73 95.8688 164.513 96.2412C164.274 96.6513 164.431 97.108 164.781 97.3763L164.817 97.4025C165.138 97.629 165.451 98.0351 165.49 98.4512L165.494 98.5033C165.536 99.5922 167.228 99.5977 167.185 98.5033C167.144 97.4326 166.524 96.5381 165.67 95.9367Z" fill="black"/>
</svg>
