<svg width="259" height="324" viewBox="0 0 259 324" fill="none" xmlns="http://www.w3.org/2000/svg">
<path fill-rule="evenodd" clip-rule="evenodd" d="M245.914 194.94C248.078 193.81 250.191 192.582 252.27 191.304C253.735 190.428 252.438 188.22 250.936 189.018C250.168 189.426 249.403 189.838 248.635 190.244C249.24 189.723 249.8 189.156 250.302 188.538L250.267 188.504C252.203 186.769 249.716 183.494 247.515 184.92C245.573 186.328 243.613 187.765 241.384 188.692C236.768 190.65 231.676 190.974 226.721 191.031C224.907 190.894 223.175 191.209 221.416 191.559C222.106 188.791 223.832 186.7 224.748 184.019C225.423 181.312 221.517 179.468 220.133 182.07C219.793 182.709 219.469 183.355 219.153 184.005C216.161 186.727 211.165 186.488 208.147 189.411C206.428 190.937 205.587 193.008 205.255 195.086C205.029 196.497 205.38 197.912 204.527 199.162C200.403 204.997 193.888 214.22 190.579 220.641C188.236 205.382 181.98 186.508 175.517 172.556C173.38 168.094 170.935 163.733 167.725 159.951C168.089 158.69 166.805 156.451 165.988 157.14C163.475 154.068 159.032 153.273 155.459 151.746C150.637 149.683 146.635 145.395 144.669 140.521C142.141 131.241 135.92 130.062 127.292 130.472C119.035 130.462 112.926 133.995 111.124 142.403C107.464 148.786 98.8218 147.73 92.6044 149.42C88.0478 150.461 83.6257 152.071 79.4232 154.115C74.748 149.679 58.004 168.297 56.4821 173.089C57.378 173.263 58.2685 173.472 59.151 173.727C59.9369 173.954 59.6069 175.142 58.8142 174.952C57.8278 174.715 56.8351 174.551 55.8377 174.438C55.8073 174.534 55.7806 174.629 55.7608 174.722C55.6488 174.715 55.5371 174.705 55.4251 174.698C55.6733 174.827 55.9123 174.977 56.1451 175.17C56.7079 175.638 55.9752 176.54 55.3771 176.168C54.8137 175.746 54.0757 175.812 53.3999 175.671C53.3597 177.061 48.4006 175.506 47.6304 175.045C44.2068 174.617 40.6847 175.076 37.4887 173.425C33.2361 172.529 28.9516 171.538 24.7467 170.397C23.6335 170.831 22.5873 172.385 23.4715 173.525C23.9688 174.043 23.3295 174.89 22.7033 174.522C20.6031 173.285 18.9789 171.355 17.6018 169.275C16.9537 168.621 15.8031 168.761 14.9323 168.49C14.8159 168.699 14.7472 168.932 14.7483 169.172C11.0542 169.78 13.6894 173.816 15.5464 175.074C14.5613 175.715 14.5239 176.972 14.6101 178.021C14.4014 178.395 14.3316 178.858 14.5133 179.277C15.208 180.879 16.7103 182.227 17.8526 183.525C19.1139 184.957 20.2385 186.398 21.7731 187.56C27.6227 192.02 34.6818 194.514 41.9236 195.49C44.4949 195.885 48.1936 196.489 49.7857 198.664C49.3951 201.246 48.6778 203.722 48.0271 206.239C47.1172 209.58 47.1791 213.078 47.1671 216.485C47.0399 216.383 46.7956 216.404 46.7593 216.599C46.5476 218.011 46.3902 219.455 45.5323 220.641C44.7802 222.848 44.2797 225.201 43.9985 227.519C42.872 238.508 42.603 249.821 45.1429 260.639C46.123 264.653 47.717 268.467 49.8888 271.979C50.5364 273.026 51.5775 273.333 52.5123 273.128C55.6412 274.754 59.5828 275.275 62.9553 274.862C74.4527 271.606 70.4466 279.446 86.567 277.045C114.392 273.499 142.513 280.468 170.279 276.377C170.963 281.661 179.915 280.145 183.025 277.911C192.349 270.977 196.979 249.023 201.658 237.885C204.875 229.107 210.261 213.56 217.314 207.669C219.429 206.014 221.986 205.143 224.544 204.44C234.091 201.979 243.674 199.651 253.239 197.259C254.861 196.859 254.57 194.092 252.835 194.269C250.533 194.505 248.223 194.718 245.914 194.94Z" fill="white"/>
<path fill-rule="evenodd" clip-rule="evenodd" d="M33.3897 193.294C32.7432 193.214 32.1094 192.984 31.4798 192.802C30.5186 192.521 29.5763 192.193 28.6488 191.819C26.7348 191.052 24.8777 190.145 23.1369 189.035C20.3249 187.241 17.8404 184.942 15.9665 182.173L15.8378 181.98C14.768 180.35 12.7946 176.73 15.0073 175.492C13.5812 174.3 12.2333 172.159 12.3093 170.506C12.4171 168.169 15.2819 168.201 16.7629 169.192C17.7326 169.841 18.4593 170.749 19.1882 171.644C19.9953 172.637 20.8572 173.584 21.753 174.495C21.9907 174.735 22.2307 174.972 22.475 175.204L22.7206 175.435C22.6826 175.344 22.6488 175.251 22.6192 175.156C22.1248 173.615 22.7143 171.61 24.2544 170.904C25.1969 170.472 26.1758 170.735 27.0891 171.102L27.2291 171.159C28.4586 171.669 29.703 172.119 30.9833 172.48C36.2016 173.954 41.6481 174.199 46.9953 174.934C49.0551 175.22 51.153 175.579 53.2023 176.107C53.984 172.787 55.9002 169.604 57.979 166.985C67.934 154.458 84.3516 150.318 99.3706 147.638C100.74 147.395 101.874 149.209 102.671 148.78C104.181 147.968 105.51 146.818 106.676 145.569C109.163 142.904 110.927 139.77 113 136.8C114.024 135.333 116.382 136.646 115.431 138.221L114.965 138.99C113.048 142.142 110.924 145.39 108.174 147.835C106.712 149.133 105.09 150.158 103.235 150.798C101.83 151.282 99.8587 151.69 98.3207 151.22L98.1361 150.952C98.1971 151.041 98.2586 151.131 98.3206 151.221C102.335 157.039 107.371 161.964 112.678 166.611C118.035 171.3 123.814 175.498 129.628 179.603L130.112 179.945C139.583 173.034 147.584 164.02 153.197 153.721C152.021 153.579 150.857 152.825 149.851 152.263C148.64 151.582 147.502 150.77 146.614 149.688C144.681 147.332 144.933 144.295 144.584 141.435C144.563 141.258 144.797 141.213 144.905 141.302C145.953 142.173 146.321 143.599 146.758 144.832C147.24 146.186 147.785 147.302 148.89 148.255C149.919 149.143 151.173 149.796 152.392 150.377C153.021 150.676 156.142 151.442 156.497 152.077C161.889 150.811 167.141 152.998 171.136 156.688C174.996 160.254 177.829 164.889 180.331 169.464C182.999 174.347 185.185 179.436 187.07 184.667C188.98 189.976 190.444 195.401 191.249 200.989C191.928 205.701 192.345 210.486 192.614 215.25L192.647 215.845C196.636 209.583 200.724 203.386 204.897 197.244C203.948 194.71 204.998 192.123 206.775 190.166C208.744 188 211.467 186.994 214.072 185.823L214.414 185.668C215.67 185.095 216.921 184.464 218.006 183.606C219.049 182.777 219.816 181.636 220.915 180.873C222.512 179.761 225.411 179.998 225.485 182.427C225.523 183.76 224.95 185.223 224.426 186.421C223.833 187.776 223.032 189.004 222.081 190.132C222.037 190.185 221.989 190.226 221.94 190.259L221.904 190.282C223.218 190.5 224.542 190.676 225.892 190.737C228.616 190.862 231.368 190.661 234.035 190.086C236.764 189.498 239.409 188.543 241.864 187.212C243.962 186.074 245.906 184.603 248.289 184.257C248.509 184.223 248.73 184.202 248.959 184.189C249.339 184.168 249.719 184.616 249.569 184.992C249.487 185.199 249.4 185.405 249.305 185.612C248.481 187.427 247.217 189.188 245.641 190.525L245.519 190.627C246.075 190.435 246.622 190.219 247.161 189.976C250.328 188.549 253.201 186.394 256.596 185.527C256.757 185.485 256.919 185.447 257.082 185.411C258.132 185.185 258.685 186.326 258.069 187.108C257.969 187.235 257.87 187.359 257.766 187.484C256.252 189.365 254.581 191.111 252.738 192.679C252.107 193.216 251.456 193.736 250.792 194.233C250.513 194.443 250.232 194.649 249.948 194.852L249.808 194.951C250.14 194.717 250.467 194.478 250.792 194.233C252.871 193.603 254.921 192.857 256.926 192.03C257.722 191.703 258.341 192.51 258.426 193.174C258.709 195.397 256.241 197.006 254.635 198.075C253.026 199.149 251.253 199.965 249.438 200.62C245.949 201.881 242.284 202.454 238.625 202.967L236.848 203.215C229.813 204.199 222.466 205.375 217.418 210.851C214.59 213.92 212.676 217.733 210.924 221.484C209.175 225.231 207.639 229.078 206.181 232.946C204.671 236.949 203.354 241.025 201.956 245.069C200.671 248.781 199.137 252.446 197.617 256.074L197.378 256.646C194.152 264.357 190.298 271.618 184.928 278.056C184.042 279.119 182.612 277.61 183.43 276.558C189.047 269.313 192.956 260.764 196.182 252.235C197.65 248.355 198.88 244.382 200.291 240.48L201.131 238.162C202.252 235.073 203.383 231.987 204.563 228.922C206.057 225.043 207.698 221.211 209.576 217.504L209.775 217.114C211.614 213.538 213.799 210.013 216.806 207.307C222.218 202.433 229.42 201.264 236.383 200.338L238.573 200.049C241.517 199.658 244.469 199.226 247.332 198.438C248.984 197.986 250.598 197.407 252.115 196.608C252.719 196.291 253.309 195.943 253.879 195.562C252.252 196.04 250.602 196.431 248.923 196.737C248.101 196.887 247.287 196.999 246.476 197.077C244.387 197.284 242.314 197.276 240.174 197.164C239.993 197.153 239.933 196.868 240.128 196.832C241.618 196.567 243.11 196.236 244.596 195.876L245.042 195.767C245.05 195.52 245.147 195.258 245.35 195.008C246.09 194.108 247.495 193.647 248.469 193.011C249.489 192.345 250.478 191.627 251.42 190.857C252.282 190.154 253.11 189.409 253.907 188.632L254.145 188.397C254.066 188.476 253.986 188.554 253.907 188.632C251.756 189.625 249.717 190.9 247.471 191.686C245.686 192.314 243.814 192.736 241.926 192.886L241.808 192.896L241.691 192.903C239.72 193.045 237.736 192.988 235.795 193.415C235.577 193.463 235.509 193.172 235.704 193.089C237.4 192.383 239.164 192.111 240.947 191.781C240.985 191.641 241.083 191.517 241.252 191.436L241.708 191.218C243.066 190.566 244.333 189.907 245.462 188.847C246.459 187.911 247.29 186.816 247.913 185.603C245.418 186.151 243.227 188.042 240.958 189.105C238.486 190.266 235.871 191.098 233.183 191.572L232.877 191.624C227.855 192.462 221.816 192.356 217.317 189.743C217.173 189.659 217.277 189.467 217.425 189.49C218.701 189.699 219.964 189.946 221.228 190.166C220.98 189.94 220.871 189.534 221.156 189.209C222.291 187.908 223.188 186.421 223.761 184.794L223.871 184.476C224.135 183.721 224.582 182.549 224.126 181.869C223.691 181.22 222.666 181.308 222.054 181.583C220.78 182.158 219.933 183.593 218.859 184.46C217.689 185.407 216.358 186.108 214.995 186.736L214.708 186.867C212.351 187.927 209.832 188.82 207.979 190.692C206.982 191.698 206.124 192.956 205.837 194.366C205.706 195.012 205.706 195.678 205.879 196.319C206.016 196.819 206.304 197.128 206.139 197.637C205.923 198.295 205.161 199.081 204.768 199.666C204.311 200.343 203.857 201.021 203.403 201.7C202.497 203.056 201.595 204.418 200.692 205.777C198.888 208.499 197.103 211.234 195.333 213.977C194.757 214.87 194.182 215.764 193.61 216.66L192.753 218.003L192.3 218.711L191.528 219.926C191.555 220.038 191.553 220.157 191.517 220.26C191.385 220.635 191.139 220.892 190.832 221.078L190.778 221.11C186.269 228.239 181.833 235.414 177.352 242.56C177.113 244.741 176.889 246.924 176.695 249.107C176.253 254.049 175.951 259.003 175.854 263.963C175.807 266.364 175.999 268.78 176.103 271.179C176.154 272.324 176.223 273.467 176.314 274.61L176.38 275.421C176.47 276.534 176.52 277.64 176.12 278.701C175.765 279.633 174.683 279.842 174.043 279.132C165.692 278.796 157.334 278.54 148.976 278.382C134.016 278.094 119.05 278.139 104.088 278.428C96.5734 278.574 89.0565 278.779 81.5439 279.033C77.8424 279.155 74.1389 279.329 70.4354 279.379C68.4401 279.406 65.2997 278.68 65.1387 276.434L65.1347 276.365C64.8854 276.433 64.6277 276.488 64.3636 276.528C64.246 276.546 64.1331 276.541 64.0288 276.517L63.977 276.503C61.0026 277.41 57.2402 276.116 54.4138 275.362L54.1805 275.3C51.4826 274.596 49.315 273.59 47.5467 271.354C44.4516 267.438 43.3953 262.179 42.846 257.333C42.3305 252.772 42.3009 248.127 42.9284 243.575C42.5587 239.865 42.9199 236.038 43.3404 232.35C43.5474 230.526 43.7904 228.704 44.0819 226.89C44.2446 225.878 44.458 224.876 44.6756 223.876C44.7625 223.477 44.8348 223.047 44.9449 222.631L44.9946 222.454C44.6565 222.498 44.2868 222.425 43.9298 222.228C43.0805 221.761 42.8333 220.816 42.8185 219.912C42.772 217.185 43.0974 214.381 43.3847 211.671C43.6741 208.966 44.0713 206.25 44.591 203.578L44.7255 202.89C45.1193 200.891 45.5699 198.828 46.3636 196.95C43.3827 196.443 40.4101 195.904 37.5179 194.987C36.1066 194.537 34.7165 193.977 33.3897 193.294ZM188.98 221.668C188.933 221.679 188.889 221.691 188.845 221.704C187.653 222.038 186.449 222.321 185.249 222.625C183.174 223.147 181.146 223.731 179.217 224.638C178.813 229.74 178.214 234.825 177.645 239.913L177.531 240.931C178.406 239.307 179.302 237.697 180.238 236.106C183.088 231.255 186.003 226.442 188.98 221.668ZM45.7212 222.173C45.7276 222.78 45.6008 223.41 45.5332 223.993C45.4233 224.94 45.3346 225.891 45.2226 226.838C44.9945 228.74 44.8001 230.644 44.6585 232.555C44.5677 233.774 44.5085 234.998 44.4557 236.222C45.6536 231.743 47.2403 227.362 48.7487 222.974C48.4966 222.947 48.2388 222.886 47.9729 222.815L47.5253 222.695C47.2614 222.627 46.4052 222.416 45.7212 222.173ZM192.753 218.003L192.761 218.204C192.793 218.916 192.366 219.318 191.849 219.421C192.149 218.948 192.451 218.474 192.753 218.003ZM55.6827 184.246C56.944 184.358 58.1799 184.627 59.3588 185.092L59.4725 185.136C60.3445 185.473 61.6193 185.896 61.9045 186.827C61.9848 187.091 61.7693 187.309 61.5221 187.33C60.5757 187.406 59.4602 186.391 58.5834 186.049C57.6073 185.669 56.5848 185.385 55.5496 185.235C53.2235 184.895 50.7982 185.153 48.6095 186.001C48.4806 186.051 48.4003 185.846 48.5165 185.785C50.7221 184.584 53.1749 184.024 55.6827 184.246ZM28.9553 190.291C28.8095 190.162 28.6637 190.027 28.52 189.892C27.3873 188.82 26.3843 187.569 25.6416 186.194L25.4461 185.822C24.8413 184.65 24.0985 182.981 25.52 182.137C26.3693 181.632 27.3919 181.759 28.3383 182.065C28.3996 182.084 28.4609 182.105 28.5221 182.126C28.9447 182.275 29.3524 182.452 29.7158 182.621C31.294 183.346 32.6862 184.401 34.144 185.331C35.7235 186.339 37.2831 186.983 39.1061 187.361L39.2778 187.395C40.989 187.734 42.844 187.951 44.0376 189.359C44.3376 189.714 44.063 190.38 43.5454 190.204C40.2454 189.091 36.7531 188.845 33.7235 187.017C32.4686 186.26 31.2813 185.392 29.9989 184.675C29.3186 184.295 28.6162 183.962 27.8678 183.733L27.4588 183.613C27.2193 183.543 26.9334 183.474 26.7412 183.543C26.3752 183.669 26.492 183.865 26.6052 184.207L26.6165 184.242C27.5059 186.994 30.0412 189.297 32.3904 190.821C32.9292 191.172 33.4806 191.494 34.0426 191.792C37.8465 193.82 42.1029 194.764 46.2833 195.885C46.2833 195.885 48.7004 196.56 49.5011 196.813C50.3926 196.739 51.4088 197.054 52.0807 197.43C52.7335 197.796 53.2595 198.286 53.6567 198.863C53.6567 198.863 54.0391 199.182 54.1088 199.677C54.3095 200.136 54.4447 200.63 54.5123 201.146C54.5504 201.448 54.4743 201.68 54.3307 201.845C54.7628 208.48 52.9713 215.078 50.9516 221.383L50.7515 222.005L50.6229 222.399C48.4447 229.084 45.9454 235.721 44.8299 242.691C44.0842 247.347 44.1074 252.166 44.6546 256.843L44.6932 257.165C45.2323 261.588 46.2696 266.548 49.0807 270.107C50.5144 271.924 52.2132 272.731 54.385 273.316L54.5039 273.347C56.4687 273.865 58.4969 274.599 60.5229 274.821C62.4032 275.025 63.9792 274.326 65.6715 273.671L65.6736 273.669C69.2377 270.513 70.856 265.918 72.0518 261.281C75.1511 249.281 74.7665 236.824 73.0088 224.648C72.0919 218.286 70.8454 211.98 69.6032 205.675C68.982 202.524 68.3123 199.379 67.7567 196.217L67.4267 194.356C67.2446 193.323 67.0685 192.288 66.918 191.248C66.7151 189.851 66.6539 188.478 66.5842 187.072C64.8771 184.242 62.3989 181.911 59.5278 180.239C57.4722 179.041 55.2961 178.21 53.0504 177.608C46.6299 175.877 39.6306 175.999 33.17 174.668C30.9997 174.221 28.9395 173.558 26.8804 172.763L26.5996 172.654C25.6553 172.286 24.6919 172.081 24.2229 173.195C23.8891 173.987 24.0877 174.812 24.5884 175.477C25.8158 177.109 28.2834 177.866 30.1405 178.453C31.2581 178.808 32.3989 179.089 33.5524 179.299C34.706 179.508 35.8637 179.561 36.9708 179.969C37.3975 180.125 37.482 180.803 36.9708 180.924C35.5679 181.251 34.1567 180.97 32.7623 180.698C31.2306 180.395 29.7222 179.966 28.256 179.423C27.9855 179.324 27.7057 179.218 27.4206 179.107L27.206 179.022C27.4278 179.182 27.6496 179.341 27.8736 179.5C27.9327 179.542 27.8968 179.654 27.8186 179.626C24.3712 178.339 21.2344 176.018 18.8043 173.271L18.6834 173.134C17.8278 172.153 15.8778 169.185 14.2341 170.012C12.6907 170.787 15.3217 173.775 16.3216 174.996L16.4377 175.139C17.5743 175.169 18.675 175.877 19.5961 176.447C21.1954 177.439 22.8666 178.293 24.5694 179.091C27.9539 180.683 31.5476 181.805 34.8961 183.477C34.9405 183.5 34.9067 183.557 34.8645 183.551C32.7328 183.211 30.6243 182.667 28.5645 181.993L28.4726 181.965L28.3807 181.934C27.094 181.511 25.8243 181.034 24.5757 180.524C23.1877 179.958 21.8314 179.322 20.5152 178.601C19.3236 177.95 18.0011 176.777 16.6194 176.604C16.4715 176.585 16.3405 176.583 16.2264 176.593C14.6398 176.726 15.9518 179.356 16.3955 180.142C17.1201 181.433 17.9948 182.625 18.9983 183.714C21.0328 185.924 23.4983 187.676 26.1666 189.04C27.0772 189.505 28.0088 189.915 28.9553 190.291Z" fill="black"/>
<path fill-rule="evenodd" clip-rule="evenodd" d="M130.31 50.4504C139.769 50.4504 151.117 55.0377 152.082 55.1295L152.108 55.1308C152.616 55.1308 154.6 56.6427 158.059 59.6664L154.312 66.9778L154.615 67.2675C156.067 68.6593 157.305 69.9279 158.283 70.9279C166.267 79.0933 167.702 111.153 165.821 122.333C163.939 133.513 160.454 144.454 144.229 144.454C128.004 144.454 109.953 134.694 107.173 131.655C105.319 129.629 103.237 128.658 100.926 128.743C100.831 128.623 100.737 128.503 100.643 128.384L100.303 128.336C97.1055 127.872 94.814 127.249 93.4293 126.465C90.7244 124.934 87.7514 116.886 87.7514 115.113C87.7514 113.358 83.312 100.59 83.2233 99.2387L83.2219 99.2013C83.2219 98.0717 77.4224 92.8794 77.4224 91.2304C77.4224 89.5814 76.2534 89.6814 77.4224 83.8707L77.762 82.1636C79.006 75.9768 81.4408 65.7324 90.7244 61.2809C100.926 56.3891 120.756 50.4504 130.31 50.4504Z" fill="white"/>
<path fill-rule="evenodd" clip-rule="evenodd" d="M89.1499 61.0512C94.2378 55.6487 123.123 47.2924 137.736 49.0637L138.175 49.1205C139.341 49.2685 140.49 49.4925 141.625 49.7968C145.291 50.6534 149.078 51.9505 152.107 54.117C154.636 55.8894 162.615 58.7839 160.263 63.4205C161.135 65.073 161.46 67.1147 160.871 68.7423C160.797 69.3045 160.624 69.8223 160.402 70.3591C162.265 73.109 163.74 76.2188 164.934 79.1766C167.02 86.6206 168.318 94.3674 168.508 101.962C169.141 116.392 167.559 133.627 154.997 142.958C147.408 148.871 135.52 149.069 126.992 141.738C126.508 141.165 124.232 139.619 124.992 139.348C125.218 139.587 125.45 139.819 125.687 140.048C125.676 140.022 125.674 139.997 125.678 139.969L125.456 139.768C125.037 139.38 124.494 138.817 125.112 138.927C125.139 138.959 125.169 138.987 125.198 139.018C125.329 139.097 125.428 139.165 125.505 139.225L125.545 139.257L125.533 139.244C125.177 138.864 124.963 138.477 125.496 138.724L125.566 138.758C125.803 139.008 126.044 139.247 126.289 139.479C126.285 139.452 126.289 139.424 126.304 139.395L126.075 139.174C125.852 138.955 125.886 138.954 125.995 138.777C125.521 138.113 126.406 138.508 126.468 138.767C127.022 138.636 127.508 139.676 127.865 139.802C143.498 151.826 166.186 141.157 165.818 107.653L165.813 106.998C165.705 96.2844 164.804 85.2732 160.375 75.5752C159.944 74.6411 159.462 73.7323 158.932 72.853C158.566 72.1936 158.175 71.5511 157.755 70.9255C156.578 70.8304 155.416 70.6148 154.271 70.2809C153.878 70.1816 153.489 70.0717 153.101 69.9427C147.422 70.2526 141.87 70.5897 136.175 70.9092L134.396 71.0201C129.572 71.3303 124.583 71.8273 120.69 74.8123C116.87 77.5298 116.853 82.8886 113.583 85.8722C108.921 89.038 108.886 91.8927 107.989 96.5581C108.055 100.075 110.493 105.185 106.02 106.665C106.774 107.741 105.722 107.224 105.64 106.847C105.631 106.849 105.623 106.851 105.616 106.851C106.289 108.101 105.3 107.314 105.213 106.912C105.16 106.897 105.107 106.859 105.054 106.806C105.732 107.902 104.637 107.135 104.701 106.935C103.392 104.922 100.698 104.61 98.7985 105.143C98.7752 105.215 98.6909 105.221 98.6381 105.183C90.562 106.934 92.6457 123.66 100.922 122.043C101.276 121.97 101.268 122.141 101.338 122.157C101.147 121.655 101.686 121.859 101.68 121.965L101.713 121.963C101.739 121.961 101.728 121.958 101.748 121.965C101.563 120.938 102.603 122.425 102.521 122.487C102.553 122.468 102.589 122.457 102.621 122.453L102.585 122.355C102.412 121.895 102.427 122.086 102.428 121.823C102.298 121.497 102.289 121.64 102.319 121.427C102.775 121.074 102.91 122.146 103.062 122.224C102.801 121.861 103.008 121.564 103.254 121.761C105.118 125.684 107.526 129.369 110.638 132.272C110.978 132.54 111.323 132.805 111.679 133.054C113.003 134.207 115.033 134.949 116.272 135.971C116.272 135.988 116.264 136.009 116.251 136.03L116.28 136.055L116.309 136.083L116.74 136.29C116.866 136.398 116.98 136.518 117.082 136.651C117.19 136.776 117.284 136.913 117.365 137.059C117.405 137.237 117.316 137.311 117.147 137.235C117.073 137.209 116.999 137.18 116.925 137.152C116.93 137.158 116.932 137.163 116.936 137.167C116.96 137.204 117.124 137.584 116.935 137.522L116.913 137.514C116.809 137.475 116.706 137.433 116.604 137.393C116.725 137.543 116.834 137.706 116.932 137.843C117.035 137.951 117.098 138.078 117.124 138.222C117.12 138.302 117.075 138.336 116.995 138.325C116.873 138.285 116.752 138.243 116.632 138.198L116.666 138.264C116.751 138.431 116.872 138.713 116.657 138.619C116.473 138.562 116.296 138.496 116.118 138.424C116.103 138.454 116.074 138.465 116.015 138.437C115.451 138.236 114.906 137.991 114.384 137.702C113.925 137.368 113.463 137.04 113.002 136.708C112.569 136.448 112.151 136.159 111.751 135.833C109.08 134.107 106.741 131.914 104.885 129.472C101.782 132.16 95.5773 129.592 91.7392 127.487C88.3443 125.606 87.0099 122.128 86.6649 118.378C85.9477 113.33 81.8237 111.602 82.1106 100.525C82.1043 100.527 82.0978 100.527 82.0893 100.527C81.9393 100.483 81.7937 100.424 81.6564 100.348C81.5149 100.28 81.3818 100.2 81.2569 100.102L81.1027 99.889C81.0226 99.8446 80.9508 99.7981 80.8959 99.7516L80.8674 99.7883C80.7772 99.8972 80.8378 99.7334 80.843 99.7009L80.5751 99.3364C79.9399 98.4687 79.2429 97.4952 78.6752 96.7166L78.6573 96.7482C78.6445 96.7721 78.6377 96.7894 78.6437 96.7969C77.2927 94.855 76.0221 92.5095 75.6691 90.2387C75.2523 88.4896 75.4152 86.6872 75.7787 85.067C77.3377 79.3933 82.4444 66.5542 89.1499 61.0512ZM125.815 139.516L125.73 139.44L125.805 139.534C125.844 139.582 125.884 139.625 125.949 139.669C125.944 139.655 125.944 139.64 125.946 139.623C125.903 139.59 125.859 139.554 125.815 139.516ZM137.672 51.9146C127.762 51.0622 118.014 53.2463 108.558 55.89L107.905 56.0776C102.528 57.6126 96.8422 58.9938 92.298 62.2792C85.9492 67.1438 82.6708 74.8826 79.8098 82.0277C77.3115 87.3364 78.5886 93.3225 82.3534 97.0294C82.7451 93.3458 83.4129 89.7699 84.4566 86.2228C84.6744 85.6687 84.5096 85.4871 84.9791 85.4148C85.6881 94.9738 82.196 102.036 89.1066 113.365C92.1051 118.711 88.634 122.622 97.1016 125.435L97.3307 125.522C99.0948 126.188 101.021 126.714 102.749 126.342L102.594 126.09C102.437 125.83 102.389 125.704 102.618 125.593C102.612 125.581 102.604 125.568 102.595 125.553C102.409 125.202 102.23 124.847 102.058 124.488C101.989 124.511 101.919 124.528 101.847 124.547C101.894 124.634 101.9 124.72 101.769 124.75C101.304 124.91 100.826 124.974 100.336 124.944L100.231 124.936C99.6782 124.902 99.3298 124.801 99.0182 124.708C98.9149 124.691 98.8114 124.674 98.7098 124.653C97.7073 124.431 96.6461 123.865 95.9593 123.304C88.1301 118.856 88.9393 103.713 98.5896 102.281C98.7875 92.747 103.321 76.6616 110.844 67.5762C117.644 59.2192 136.209 55.5971 149.125 56.8743C149.313 56.9367 149.502 56.9996 149.69 57.0633C151.683 57.2404 153.582 58.1285 155.576 58.541C154.144 57.4676 152.52 56.7526 150.847 56.1449C147.513 54.1052 143.692 53.0015 140 52.2231C139.235 52.035 138.46 51.9315 137.672 51.9146ZM98.1476 109.941C98.6665 109.659 98.6071 109.931 98.7265 109.852C102.459 109.547 106.483 112.816 108.569 115.542C108.405 115.713 107.959 115.205 107.881 115.125C107.87 115.136 107.857 115.144 107.845 115.148L107.903 115.23C108.748 116.444 107.072 115.016 106.915 114.722C106.888 114.736 106.86 114.745 106.829 114.738C106.962 114.869 107.367 115.209 107.437 115.451L107.545 115.54C108.559 116.409 108.475 117.063 107.323 115.829C107.35 115.886 107.361 115.939 107.342 115.981L107.382 116.008C107.948 116.404 108.414 117.507 107.23 116.374C107.353 117.202 106.057 115.602 106.015 115.613C103.772 113.852 100.469 112.139 97.6554 111.908L97.5585 111.897C97.0422 111.831 96.7981 111.678 96.9793 111.34C96.3434 111.189 96.4923 110.875 96.7934 110.885C96.3449 110.59 96.7486 110.308 97.0089 110.418C96.83 109.923 97.5476 110.253 97.6131 110.184C97.9856 109.609 98.0859 110.088 98.1476 109.941ZM90.3244 79.221C92.117 78.5641 97.412 80.5305 96.9885 83.1348C96.7362 83.7327 95.9051 84.0753 95.3209 83.7378L94.5585 83.2255C93.2317 82.3366 92.035 81.5571 90.6105 80.7818C89.8351 80.3969 89.5013 79.5799 90.3244 79.221ZM100.523 75.3509L99.8311 74.9002C96.0951 72.4541 90.8135 68.7477 100.18 72.5824C101.248 73.0404 102.666 73.3114 103.249 74.3284C104.164 76.2029 101.756 76.3288 100.523 75.3509ZM100.943 64.3757C100.643 63.2376 104.374 64.5731 105.46 64.9252L105.625 64.9877C106.681 65.3815 107.892 65.7468 108.524 66.6587C109.264 67.9188 107.766 68.1798 106.838 67.6107C104.935 66.3666 102.849 65.428 100.943 64.3757ZM110.429 59.074C108.33 56.7802 113.949 58.9776 114.791 59.5876L114.815 59.6056C115.443 60.0479 115.316 61.0007 114.726 61.2805C113.047 61.3124 111.811 59.9125 110.429 59.074ZM119.984 56.5608C116.646 54.1609 121.043 55.3024 122.571 56.2429C123.612 57.1613 122.539 58.7115 119.984 56.5608Z" fill="black"/>
<path fill-rule="evenodd" clip-rule="evenodd" d="M152.125 125.777C153.46 125.466 154.509 126.597 154.246 127.899C153.969 129.278 152.487 129.751 151.244 129.707C149.835 129.659 148.427 129.368 147.011 129.309C145.557 129.249 144.097 129.238 142.641 129.277C141.295 129.314 139.913 129.551 138.578 129.338C138.057 129.255 138.107 128.568 138.445 128.324C139.45 127.599 140.752 127.304 141.937 126.999C143.144 126.689 144.379 126.452 145.617 126.307C146.873 126.16 148.139 126.086 149.402 126.072C149.978 126.065 150.683 126.193 151.244 126.09C151.53 126.037 151.821 125.848 152.125 125.777ZM148.271 107.866C149.866 108.836 152.297 111.098 150.581 113.503C148.561 115.624 145.652 113.193 144.219 112.093C142.89 111.241 141.396 113.433 142.63 114.428C152.987 122.099 157.19 108.12 149.078 106.726C148.185 106.572 147.853 107.566 148.271 107.866ZM136.702 100.622C138.836 100.267 139.21 103.311 137.095 103.523C136.651 103.568 136.209 103.607 135.769 103.645C135.812 103.783 135.84 103.925 135.856 104.071C135.876 104.195 135.891 104.326 135.904 104.476C135.971 105.225 135.441 106.004 134.821 106.367C134.176 106.744 133.251 106.794 132.611 106.367C132.281 106.146 131.952 105.897 131.77 105.533C131.526 105.158 131.393 104.724 131.379 104.279C130.406 104.532 129.416 104.874 128.433 105.055C128.469 105.09 128.505 105.128 128.539 105.17C128.565 105.202 128.529 105.261 128.491 105.232L127.998 105.123C127.847 105.143 127.695 105.159 127.544 105.168L127.547 105.155C127.294 105.151 127.087 104.852 127.314 104.612C128.182 103.694 129.536 103.084 130.771 102.574L131.961 102.086C133.483 101.468 135.089 100.891 136.702 100.622ZM153.871 101.564C155.268 101.404 156.652 101.467 158.052 101.553C160.409 101.696 159.42 105.134 157.529 104.34C157.549 104.466 157.554 104.592 157.539 104.709C157.465 105.313 157.268 105.824 156.714 106.149C156.199 106.45 155.546 106.449 155.032 106.149C154.48 105.827 154.231 105.374 154.091 104.785C153.982 104.328 154.025 103.946 154.088 103.493C154.109 103.344 154.175 103.204 154.265 103.078C154.133 103.045 154.001 103.014 153.869 102.984C152.693 102.716 151.533 102.77 150.36 102.6C150.235 102.582 150.215 102.38 150.325 102.329C151.378 101.834 152.718 101.695 153.871 101.564ZM136.487 90.9473C137.294 90.6394 138.307 91.1515 138.719 91.8559C139.186 92.6552 138.986 93.578 138.41 94.2516C137.525 95.2848 135.84 95.9214 134.598 96.511L134.498 96.5587C133.223 97.1741 131.913 97.7393 130.585 98.2317C129.28 98.7163 127.921 99.0959 126.567 99.4218C125.853 99.5937 125.124 99.7357 124.395 99.8253C123.819 99.8959 123.375 99.7378 122.824 99.7378C122.743 99.738 122.718 99.6313 122.784 99.5903C123.299 99.2665 123.681 98.8402 124.242 98.5403C124.827 98.2281 125.414 97.9212 126.003 97.6173C127.194 97.0031 128.341 96.3196 129.49 95.6317C130.701 94.9065 131.884 94.1429 133.035 93.3254C134.161 92.5255 135.199 91.4387 136.487 90.9473ZM150.861 90.2896C151.868 90.0941 152.866 90.5709 153.164 91.5979C153.45 92.5817 153.151 92.7926 153.914 93.4966C154.521 94.0577 155.177 94.5585 155.838 95.0516L156.811 95.7755C158.575 97.0811 160.352 98.3156 162.379 99.1965C162.551 99.2709 162.452 99.5256 162.289 99.529C159.067 99.5911 155.976 99.1547 153.067 97.7114C151.709 97.0372 150.343 96.1844 149.556 94.8385C148.644 93.28 148.671 90.7144 150.861 90.2896Z" fill="black"/>
</svg>
