<svg width="240" height="324" viewBox="0 0 240 324" fill="none" xmlns="http://www.w3.org/2000/svg">
<path fill-rule="evenodd" clip-rule="evenodd" d="M181.079 176.597C179.238 169.453 177.544 166.425 174.273 163.942C171.213 161.619 166.747 159.669 160.23 158.244C153.442 157.057 153.249 153.528 151.547 147.857C151.051 146.152 148.59 145.698 147.528 146.927C147.379 146.765 147.222 146.617 147.061 146.484C147.205 145.671 146.022 143.34 146.061 142.562C146.474 134.444 143.819 130.367 137.193 128.851C135.752 128.522 125.963 128.327 124.558 128.716C118.415 130.415 112.368 135.808 113.293 142.305C111.365 144.826 109.478 146.364 106.503 147.176C99.8828 148.017 93.2631 148.764 86.641 149.404C73.6784 151.438 61.5249 158.3 53.2182 168.309C52.4521 169.233 52.2307 170.487 52.9069 171.472C52.3772 173.741 49.3956 179.246 51.7417 180.801C47.8837 190.03 39.0072 207.868 38.9905 212.964C38.9205 234.373 41.2327 262.24 62.3546 274.087C63.2003 274.919 63.3212 275.839 63.6874 277.076C64.616 280.974 67.9885 283.759 71.6798 283.532C89.8636 283.936 107.476 281.717 125.66 281.61C133.679 281.562 143.323 282.76 150.29 283.557C157.256 284.355 164.288 283.649 170.973 281.61C171.537 282.497 172.677 283.015 173.833 282.76C180.763 281.382 186.368 277.111 191.249 272.442C192.74 269.728 198.566 261.995 196.25 259.303C198.349 250.428 198.24 240.892 194.51 232.441C195.039 230.892 194.075 229.189 194.51 227.589C194.825 226.432 195.631 225.953 196.037 224.806C196.608 223.193 195.987 221.029 195.344 219.383C195.081 218.563 195.829 217.68 196.037 216.842C197.023 212.894 194.765 213.242 193.136 210.602C193.161 210.594 193.584 208.709 193.582 208.719C193.831 207.373 193.207 205.65 192.662 204.527C192.294 203.768 191.505 203.293 190.721 203.38C191.51 200.699 192.509 198.469 193.582 195.887C195.481 191.336 197.884 186.977 200.61 182.857C201.726 181.17 200.227 179.216 198.42 179.101C192.573 178.729 186.789 177.887 181.079 176.597Z" fill="white"/>
<path fill-rule="evenodd" clip-rule="evenodd" d="M164.013 211.017C161.675 210.1 159.156 209.593 156.625 209.396C157.988 209.158 159.355 208.927 160.733 208.809C161.694 208.726 162.585 208.735 163.308 209.464C163.79 209.95 164.016 210.576 164.333 211.151C164.229 211.104 164.121 211.06 164.013 211.017ZM189.116 202.441C185.286 202.636 181.451 203.546 177.987 205.197C176.569 205.873 175.284 206.85 174.908 208.456C174.718 209.276 174.765 210.124 174.866 210.952C174.942 211.58 174.961 212.381 175.506 212.806C175.599 212.877 175.699 212.932 175.802 212.972C174.524 213.549 173.307 214.243 172.225 214.957C171.237 215.61 170.22 216.616 169.764 217.751C169.726 217.622 169.688 217.502 169.65 217.388C168.872 215.088 167.675 213.205 165.788 211.939C166.122 211.789 166.352 211.434 166.244 210.944C165.796 208.896 163.905 207.116 161.77 207.243C159.431 207.38 156.919 208.232 154.804 209.308C154.033 209.291 153.264 209.301 152.503 209.335C152.372 209.339 152.379 209.517 152.503 209.532C153.12 209.61 153.737 209.697 154.354 209.798C155.82 210.033 157.282 210.331 158.712 210.7C160.428 211.145 162.203 211.59 163.806 212.366C166.916 213.873 168.841 217.813 168.446 221.241C168.38 221.803 168.163 223.502 167.383 223.327C166.724 223.179 166.462 221.803 166.232 221.293C165.615 219.941 164.503 219.057 163.17 218.459C161.605 217.755 159.93 217.28 158.307 216.726C157.388 216.411 156.469 216.096 155.548 215.783C154.606 215.46 153.71 215.014 152.706 215.24C152.1 215.378 152.03 216.1 152.37 216.515C152.888 217.147 153.657 217.333 154.403 217.593C155.387 217.935 156.37 218.278 157.352 218.62C158.871 219.148 160.462 219.594 161.943 220.241L161.896 220.346C161.776 220.313 161.634 220.433 161.658 220.581C161.88 221.949 162.188 223.529 161.845 224.899C161.575 225.985 160.622 227.188 159.384 226.869C159.579 226.691 159.651 226.385 159.52 226.102C159.029 225.053 152.607 220.915 152.034 222.452C152.015 222.506 152.074 222.547 152.121 222.538C152.609 222.437 153.427 223.269 153.817 223.534C154.381 223.914 154.954 224.286 155.512 224.677C156.122 225.104 156.718 225.552 157.299 226.015C157.756 226.379 158.1 226.757 158.624 226.941C158.349 227.072 158.131 227.315 158.039 227.625C157.802 228.435 157.346 229.122 156.553 229.479C155.723 229.851 154.787 229.616 153.913 229.707C152.721 229.828 151.682 230.394 150.813 231.204C148.99 232.907 148.075 235.908 145.525 236.713C144.002 237.193 142.312 236.891 140.77 236.673C139.048 236.43 137.37 236.238 135.636 236.492C133.975 236.735 132.406 237.309 130.889 238.011C129.467 238.668 127.895 239.413 126.634 240.393C126.374 239.592 126.112 238.799 125.913 237.982C125.444 236.048 125.191 234.078 125.129 232.091C125.072 230.2 125.178 228.3 125.341 226.416C125.421 225.476 125.548 224.54 125.628 223.599C125.649 223.362 125.691 223.109 125.723 222.855C127.975 221.526 130.341 220.507 132.726 219.459C132.733 219.457 132.739 219.452 132.746 219.451C132.82 219.417 132.891 219.385 132.965 219.353C132.963 219.349 132.961 219.345 132.957 219.34C133.23 219.174 133.42 218.952 133.534 218.702C136.971 216.422 139.844 213.309 141.987 209.678C142.884 208.156 143.749 206.577 144.923 205.244C146.174 203.821 147.659 202.976 149.497 202.536C151.646 202.021 153.86 201.712 156.061 201.536C157.263 201.441 158.607 201.293 159.917 201.3C160.83 201.306 161.723 201.384 162.543 201.61C163.758 201.944 164.468 202.868 165.23 203.802C165.959 204.698 166.684 205.597 167.364 206.531C168.008 207.416 168.617 208.331 169.145 209.291C169.462 209.866 169.756 210.458 170.003 211.068C170.089 211.284 170.203 211.529 170.256 211.753C170.309 211.979 170.212 212.218 170.465 212.218C169.42 212.233 169.43 213.905 170.47 213.843C174.539 213.607 168.71 205.66 167.858 204.552C166.652 202.984 165.408 200.938 163.477 200.209C163.449 200.198 163.42 200.188 163.392 200.179C163.954 199.647 164.398 199.009 164.822 198.36C165.26 197.692 165.781 196.927 165.925 196.134C166.016 195.629 165.389 195.342 165.091 195.783C164.658 196.428 164.449 197.244 164.125 197.952C163.796 198.67 163.394 199.349 163.077 200.074C162.315 199.839 161.491 199.732 160.652 199.696C161.71 198.263 163.519 195.498 163.737 195.143C164.738 193.499 165.691 191.804 166.601 190.106C167.586 188.268 168.429 186.353 169.371 184.493C169.906 183.439 170.444 182.375 171.038 181.352C171.243 181.002 171.463 180.651 171.712 180.332C171.76 180.268 171.822 180.216 171.879 180.156C171.944 180.12 172.012 180.08 172.05 180.059C172.392 179.863 172.513 179.406 172.753 179.116C173.138 178.649 173.59 178.594 174.169 178.588C175.403 178.575 176.641 178.624 177.872 178.658C179.683 178.708 181.491 178.78 183.3 178.875C183.847 178.905 184.392 178.935 184.939 178.968C187.57 179.125 190.198 179.33 192.82 179.581C195.139 179.803 197.459 180.165 199.781 180.338C196.637 187.809 193.151 195.145 189.205 202.226C189.165 202.297 189.135 202.369 189.116 202.441ZM171.674 221.688C171.167 221.921 170.675 222.21 170.216 222.54C170.292 222.027 170.311 221.486 170.29 220.942C170.668 221.348 171.152 221.581 171.674 221.688ZM193.319 208.836C193.283 208.84 193.249 208.859 193.232 208.895C192.53 210.343 192.824 211.96 193.969 213.095C194.569 213.687 195.877 214.355 195.835 215.327C195.799 216.113 194.943 216.772 194.578 217.421C194.238 218.026 194.111 218.689 194.383 219.345C194.732 220.184 195.706 220.518 196.04 221.342C196.462 222.388 195.776 223.65 195.294 224.561C194.846 225.404 194.267 226.247 193.883 227.139C191.307 228.473 189.002 230.519 187.021 232.596C184.851 234.868 182.99 237.542 179.544 237.474C179.2 237.468 178.938 237.65 178.781 237.901C177.822 237.946 176.861 237.965 175.902 237.969C174.216 237.977 172.53 237.96 170.846 237.907C170.728 237.5 170.814 236.946 170.808 236.601C170.787 235.492 170.776 234.384 170.73 233.275C170.717 232.966 170.704 232.655 170.692 232.347C171.298 233.444 172.481 233.943 173.829 233.866C175.997 233.74 178.177 233.385 180.323 233.065C181.454 232.898 182.582 232.708 183.708 232.505C184.633 232.341 185.939 232.383 186.585 231.641C186.738 231.468 186.746 231.151 186.507 231.034C185.867 230.719 185.464 230.895 184.76 231.03C183.902 231.197 183.042 231.356 182.18 231.504C180.526 231.791 178.868 232.057 177.205 232.292C176.259 232.425 175.31 232.556 174.361 232.66C173.533 232.748 172.6 232.869 171.932 232.246C170.586 230.986 171.34 228.874 172.192 227.602C172.209 227.577 172.209 227.553 172.202 227.532C173.005 227.344 173.806 227.124 174.604 226.97C176.14 226.674 177.687 226.425 179.235 226.203C182.417 225.749 185.62 225.448 188.818 225.146C189.611 225.07 189.619 223.823 188.818 223.897C184.223 224.318 179.605 224.717 175.071 225.603C173.935 225.822 172.806 226.072 171.685 226.353C171.154 226.484 170.586 226.689 170.03 226.696C169.997 226.696 169.963 226.696 169.929 226.693C168.841 226.66 168.683 225.728 169.28 224.952C169.354 224.857 169.43 224.761 169.509 224.671C170.565 223.411 171.881 222.57 173.237 221.699C174.757 221.492 176.271 221.031 177.759 220.693C181.43 219.856 185.102 219.019 188.776 218.184C189.496 218.019 189.19 216.912 188.47 217.075C185.681 217.707 182.892 218.339 180.104 218.97L176.022 219.896C175.207 220.08 174.188 220.45 173.229 220.583C172.756 220.649 172.297 220.657 171.883 220.56C170.546 220.243 170.478 218.571 171.055 217.578C171.702 216.462 172.923 215.764 174.007 215.132C175.885 214.035 177.883 213.247 179.835 212.338C180.182 212.262 180.528 212.186 180.875 212.11C182.89 211.666 185.193 211.449 187.09 210.635C187.659 210.394 187.348 209.498 186.786 209.51C185.314 209.542 183.773 210.066 182.335 210.377C180.778 210.715 179.219 211.051 177.661 211.387C177.505 211.421 176.58 211.717 176.44 211.651C176.352 211.609 176.32 211.301 176.29 211.098C176.195 210.43 176.126 209.728 176.229 209.058C176.457 207.555 177.71 206.85 178.978 206.273C181.8 204.99 184.895 204.187 187.976 203.865C188.685 203.791 189.395 203.745 190.109 203.722C190.948 203.696 191.639 203.548 192.064 204.375C192.731 205.677 193.099 207.351 193.319 208.836ZM189.398 256.04C188.783 253.912 188.951 251.64 188.529 249.47C188.312 248.35 188.015 247.239 187.691 246.146C187.43 245.263 186.993 244.324 186.944 243.403C186.941 243.341 187.013 243.306 187.063 243.334C187.931 243.831 188.597 244.906 189.092 245.749C189.684 246.758 190.137 247.815 190.502 248.926C191.229 251.14 191.826 253.81 190.888 256.04C190.609 256.704 189.629 256.837 189.398 256.04ZM170.392 227.856C170.912 227.805 171.431 227.706 171.951 227.589C171.37 228.156 170.833 228.838 170.535 229.595C170.489 229.014 170.43 228.435 170.352 227.858C170.364 227.858 170.379 227.858 170.392 227.856ZM165.397 272.149C164.481 271.509 163.813 270.614 163.035 269.825C162.271 269.049 163.466 267.853 164.231 268.63C164.894 269.303 165.469 270.144 166.25 270.689C166.625 270.95 166.799 271.424 166.553 271.845C166.336 272.217 165.772 272.41 165.397 272.149ZM160.286 247.559C161.959 246.835 163.604 246.047 165.355 245.526C166.402 245.214 166.845 246.846 165.805 247.156C164.192 247.636 162.68 248.352 161.139 249.018C160.15 249.446 159.29 247.989 160.286 247.559ZM142.617 247.052C142.208 246.042 143.844 245.607 144.247 246.603C144.711 247.749 145.243 248.865 145.707 250.011C146.116 251.021 144.481 251.457 144.078 250.461C143.614 249.315 143.081 248.198 142.617 247.052ZM125.178 267.219C124.906 267.583 124.452 267.78 124.022 267.523C123.663 267.307 123.443 266.734 123.719 266.366C124.525 265.292 125.341 264.231 126.285 263.273C127.05 262.497 128.245 263.693 127.48 264.469C126.637 265.324 125.898 266.26 125.178 267.219ZM122.685 154.064C123.461 154.594 124.14 155.238 124.803 155.901C125.574 156.671 124.378 157.866 123.608 157.096C123.049 156.538 122.486 155.971 121.832 155.524C121.454 155.266 121.284 154.785 121.529 154.367C121.748 153.993 122.308 153.807 122.685 154.064ZM148.056 181.273C147.618 182.151 147.223 183.012 147.198 184.011C147.171 185.099 145.481 185.099 145.508 184.011C145.54 182.704 146.022 181.571 146.597 180.419C147.083 179.444 148.54 180.302 148.056 181.273ZM157.365 159.42C158.274 158.815 159.119 160.28 158.218 160.88C157.488 161.367 156.758 161.854 156.028 162.341C155.12 162.947 154.274 161.482 155.175 160.881C155.905 160.394 156.635 159.907 157.365 159.42ZM116.989 197.627C116.834 198.701 115.205 198.242 115.359 197.178C115.597 195.533 115.887 193.91 116.333 192.308C116.625 191.259 118.254 191.708 117.962 192.757C117.516 194.359 117.226 195.982 116.989 197.627ZM111.063 216.995C109.975 216.972 109.975 215.281 111.063 215.304C112.048 215.325 113.015 215.584 113.965 215.821C115.021 216.085 114.571 217.716 113.516 217.452C112.713 217.251 111.895 217.013 111.063 216.995ZM108.876 256.01C108.502 256.192 108.118 256.356 107.741 256.529C106.984 256.875 106.228 257.221 105.472 257.569C103.897 258.292 102.323 259.017 100.751 259.746C97.6029 261.203 94.4307 262.61 91.2752 264.051C88.0574 265.522 84.848 267.012 81.6427 268.51C80.1326 269.215 78.611 269.894 77.0924 270.581C75.794 271.169 74.189 272.195 72.7635 272.292C72.6902 272.297 72.6657 272.204 72.7076 272.156C73.2461 271.544 74.1051 271.187 74.8128 270.789C75.5358 270.382 76.2723 269.999 77.0054 269.611C78.5337 268.801 80.0639 267.997 81.607 267.216C84.6936 265.653 87.7861 264.102 90.8793 262.553C94.034 260.972 97.1846 259.381 100.367 257.857C101.865 257.14 103.365 256.424 104.866 255.711C105.679 255.325 106.492 254.939 107.305 254.554C107.657 254.387 108.004 254.208 108.364 254.059C108.841 253.862 109.204 253.902 109.696 253.78C110.499 253.582 110.846 254.603 110.23 255.048C109.722 255.414 109.455 255.727 108.876 256.01ZM97.5922 273.348C97.4187 272.926 97.7819 272.413 98.1824 272.307C98.6622 272.181 99.0469 272.473 99.2221 272.898C99.6854 274.026 100.345 275.06 101.195 275.934C101.954 276.715 100.76 277.911 99.9998 277.129C98.9352 276.034 98.1704 274.754 97.5922 273.348ZM89.2913 246.208C88.5208 245.437 89.7162 244.242 90.4864 245.012L92.6768 247.203C93.4473 247.974 92.2518 249.17 91.4817 248.399L89.2913 246.208ZM66.8187 242.635C65.2439 243.097 63.4072 243.522 62.3335 244.866C62.2811 244.932 62.193 244.848 62.2245 244.782C63.599 241.931 67.5408 240.932 70.27 239.933C72.2003 239.226 74.181 238.641 76.1783 238.117C75.9786 235.838 76.5292 233.395 76.7206 231.127C76.9249 228.705 77.0912 226.277 77.1765 223.848C77.2638 221.37 77.2849 218.875 77.2034 216.396C77.1222 213.926 76.8017 211.487 76.6615 209.026C76.6479 208.788 76.9792 208.776 77.0506 208.973C77.88 211.257 78.2343 213.787 78.5043 216.196C78.7824 218.677 78.8747 221.15 78.8392 223.646C78.8024 226.212 78.6533 228.771 78.4486 231.329C78.3516 232.541 78.239 233.752 78.1327 234.963C78.0516 235.888 78.014 236.805 77.8255 237.7C79.0302 237.404 80.2376 237.124 81.4412 236.852C85.2791 235.986 89.133 235.182 92.9548 234.245C94.8309 233.785 96.6801 233.235 98.5477 232.746C100.306 232.285 102.163 231.727 103.968 231.521C104.612 231.448 104.694 232.329 104.268 232.629C102.8 233.659 100.851 234.377 99.1564 234.954C97.4553 235.533 95.6869 235.95 93.9434 236.378C90.3072 237.273 86.6367 238.005 82.9716 238.766C79.3116 239.528 75.6446 240.283 72.0258 241.222C70.2831 241.674 68.5462 242.128 66.8187 242.635ZM58.1892 197.402C57.2482 197.954 56.3987 196.492 57.3363 195.942C58.5631 195.221 59.8707 194.68 61.1888 194.152C62.2003 193.747 62.6355 195.383 61.6381 195.783C60.4535 196.257 59.2916 196.754 58.1892 197.402ZM54.7816 260.218C53.8381 260.765 52.988 259.304 53.9288 258.758C55.25 257.992 56.697 257.481 58.0662 256.81C59.0404 256.333 59.896 257.792 58.9191 258.27C57.5501 258.941 56.1029 259.452 54.7816 260.218ZM53.2492 224.56C54.1614 225.427 55.379 225.836 56.527 226.291C57.528 226.688 57.089 228.322 56.0776 227.921C54.6474 227.354 53.1905 226.836 52.054 225.756C51.2635 225.005 52.4607 223.811 53.2492 224.56ZM63.3417 176.135C64.3446 176.528 63.9053 178.163 62.8923 177.765C61.7688 177.325 60.6085 176.989 59.485 176.548C58.4823 176.155 58.9213 174.52 59.9344 174.918C61.0579 175.358 62.2182 175.694 63.3417 176.135ZM81.1457 156.9C82.2114 156.721 82.6652 158.35 81.5951 158.531C80.2675 158.755 78.9602 159.017 77.701 159.505C76.6842 159.898 76.2479 158.263 77.2516 157.874C78.511 157.387 79.8183 157.125 81.1457 156.9ZM87.0285 203.732C86.0514 203.251 86.9088 201.794 87.8814 202.272C88.9065 202.776 89.9685 203.166 91.087 203.404C92.152 203.631 91.6984 205.261 90.6376 205.035C89.3789 204.766 88.1812 204.299 87.0285 203.732ZM92.5849 177.352C93.637 177.064 94.0819 178.695 93.0342 178.983C91.1909 179.488 89.2931 179.751 87.4363 180.2C86.378 180.456 85.9304 178.826 86.9869 178.57C88.8437 178.12 90.7418 177.858 92.5849 177.352ZM116.155 169.074C117.225 169.272 116.769 170.901 115.706 170.705C114.574 170.495 113.427 170.492 112.28 170.491C111.19 170.491 111.192 168.8 112.28 168.8C113.583 168.801 114.87 168.836 116.155 169.074ZM193.027 177.907C190.266 177.643 187.5 177.432 184.73 177.273C184.601 177.267 184.475 177.259 184.346 177.252C184.331 177.223 184.312 177.195 184.293 177.165C183.389 175.838 182.723 174.511 182.147 173.01C181.595 171.582 181.061 170.109 180.211 168.819C179.243 167.351 177.935 166.201 176.502 165.205C175.632 165.79 174.826 166.475 174.087 167.2C173.311 167.964 172.115 166.769 172.892 166.005C173.548 165.36 174.248 164.764 174.988 164.226C174.134 163.706 173.262 163.218 172.411 162.732C169.223 160.913 165.959 159.23 162.628 157.692C161.079 156.975 159.511 156.339 157.933 155.694C157.084 155.348 156.245 154.902 155.396 154.5C155.457 153.9 155.278 153.228 154.817 152.833C154.477 152.543 154.213 152.435 153.807 152.231C153.716 152.199 153.661 152.18 153.636 152.169C153.655 152.173 153.71 152.19 153.801 152.22C154.016 152.319 154.033 152.29 153.851 152.133C153.841 151.791 153.167 151.068 153.013 150.715C152.476 149.504 152.309 148.223 151.517 147.12C150.425 145.6 148.591 145.026 146.882 145.541C146.704 143.713 146.658 141.805 145.969 140.173C145.95 140.129 145.889 140.109 145.861 140.158C145.143 141.382 145.082 142.745 145.027 144.157C144.974 145.482 145.025 146.837 145.198 148.153C145.088 148.238 144.976 148.318 144.86 148.396C144.315 148.756 143.728 149.033 143.111 149.238C141.936 149.626 140.704 149.796 139.473 149.855C136.293 150.007 133.016 149.686 129.89 149.14C126.727 148.589 121.878 147.76 119.064 146.177C117.207 145.133 115.494 143.859 113.757 142.624C114.387 140.595 114.547 138.414 113.913 136.7C113.837 136.495 113.516 136.457 113.455 136.7C113.058 138.336 112.942 139.98 112.413 141.597C112.405 141.621 112.397 141.646 112.388 141.669C112.223 141.557 112.059 141.447 111.894 141.337C111.513 141.086 110.996 141.274 110.768 141.633C107.119 147.384 101.341 147.714 95.2733 148.741C88.633 149.865 81.9592 151.078 75.5747 153.279C69.4691 155.384 63.6339 158.448 59.0114 163.026C57.9649 164.063 56.9864 165.167 56.0627 166.32C56.9564 166.433 57.8426 166.608 58.7175 166.883C59.7533 167.209 59.3082 168.84 58.2681 168.513C57.1438 168.16 56.0069 167.985 54.8585 167.898C51.7176 172.197 49.2685 177.071 47.1508 181.868C43.0888 191.066 40.4447 200.862 39.228 210.835C39.8961 210.434 40.5761 210.053 41.2731 209.698C42.2416 209.205 43.0957 210.664 42.1262 211.158C41.0496 211.706 40.0038 212.31 38.9906 212.964C38.548 217.33 38.3764 221.723 38.4804 226.11C38.7276 236.568 40.1388 247.332 43.3311 257.309C44.8966 262.206 46.9712 267.063 50.0621 271.202C51.4607 273.076 53.0494 274.767 54.9212 276.177C55.8276 276.861 56.7867 277.472 57.7987 277.988C59.1022 278.656 60.8008 278.876 61.9247 279.82C62.2945 280.131 62.5797 280.541 62.7952 281.004C62.6705 281.883 62.6557 282.764 62.8966 283.644C62.9726 283.919 63.1797 284.142 63.4353 284.25C63.4395 284.326 63.4395 284.4 63.4395 284.472C63.4395 284.506 63.4902 284.514 63.4966 284.481C63.5071 284.415 63.5177 284.35 63.5283 284.282C63.6107 284.309 63.6973 284.322 63.786 284.322C66.9952 284.334 70.2083 284.256 73.4217 284.147C73.1733 283.386 72.9041 282.631 72.6457 281.869C72.2948 280.835 73.9277 280.395 74.2754 281.42C74.5778 282.31 74.8938 283.192 75.175 284.086C78.618 283.958 82.06 283.804 85.4959 283.69C92.8036 283.447 100.109 283.367 107.419 283.213C118.771 282.972 130.205 282.479 141.574 282.961C141.967 282.126 142.407 281.311 142.824 280.487C143.317 279.516 144.774 280.372 144.284 281.341C143.994 281.913 143.693 282.478 143.408 283.049C145.711 283.169 148.011 283.327 150.306 283.542C154.223 283.91 158.102 284.563 162.015 284.969C165.993 285.383 169.885 285.309 173.831 284.652C174.541 284.534 174.959 284.104 175.132 283.572C175.139 283.57 175.143 283.566 175.147 283.559C175.35 283.322 175.54 283.126 175.736 282.955C175.971 282.803 176.225 282.674 176.523 282.559C177.078 282.348 177.657 282.219 178.244 282.133C178.891 282.036 179.546 282.027 180.192 281.947C180.737 281.877 181.27 281.773 181.802 281.647C182.759 281.418 183.668 281.12 184.572 280.725C185.36 280.381 186.072 279.886 186.744 279.347C188.134 278.33 189.338 277.033 190.39 275.684C191.003 274.896 191.58 274.078 192.104 273.226C193.016 271.751 193.794 270.219 194.58 268.674C194.865 268.216 195.125 267.747 195.363 267.268C193.827 266.816 192.276 266.447 190.648 266.421C189.56 266.403 189.56 264.712 190.648 264.73C192.516 264.76 194.282 265.196 196.037 265.716C196.123 265.489 196.205 265.26 196.28 265.028C196.49 264.544 196.663 264.047 196.806 263.544C196.891 263.316 196.975 263.088 197.06 262.86C197.25 262.069 197.44 261.276 197.632 260.484C198.015 259.216 198.317 257.929 198.539 256.625C198.725 255.767 198.868 254.902 198.966 254.027C199.261 251.907 199.502 249.792 199.519 247.649C199.494 246.328 199.409 245.009 199.266 243.696C199.204 242.804 199.101 241.917 198.961 241.035C198.78 239.725 198.6 238.428 198.298 237.134C198.072 236.259 197.846 235.384 197.62 234.509C197.056 232.685 196.39 230.897 195.623 229.149C195.581 229.039 195.367 228.798 195.239 228.796C195.142 228.794 195.006 228.883 195.051 229.001C195.055 229.012 195.059 229.024 195.063 229.035C195.019 228.936 194.977 228.834 194.932 228.735C194.894 228.642 194.747 228.456 194.632 228.458C194.626 228.458 194.62 228.458 194.611 228.46C194.641 228.439 194.668 228.412 194.696 228.38C195.454 227.482 195.947 226.3 196.49 225.26C196.94 224.402 197.364 223.498 197.487 222.528C197.594 221.676 197.449 220.837 196.914 220.148C196.306 219.364 195.161 218.996 195.797 217.863C196.519 216.574 197.582 215.456 196.523 213.991C195.985 213.245 195.131 212.835 194.497 212.186C193.768 211.436 193.422 210.432 193.441 209.407C193.485 209.432 193.544 209.42 193.566 209.356C194.178 207.505 193.735 205.472 193.107 203.669C192.765 202.69 192.04 202.422 191.197 202.373C194.848 195.24 198.264 187.993 201.309 180.579C201.41 180.336 201.509 180.093 201.608 179.85C201.756 179.486 201.444 179.002 201.082 178.922C198.45 178.345 195.708 178.161 193.027 177.907Z" fill="black"/>
<path fill-rule="evenodd" clip-rule="evenodd" d="M119.872 55.5157C151.894 53.9403 154.131 63.251 158.528 69.1868C160.71 72.1326 166.344 76.4952 167.279 86.5694C167.928 93.5624 163.798 101.623 163.798 107.872C163.798 111.061 167.701 117.909 165.884 122.558C161.839 132.906 153.274 144.389 142.36 144.389C131.446 144.389 111.299 138.372 99.2394 121.098C95.2892 115.44 87.8506 57.091 119.872 55.5157Z" fill="white"/>
<path fill-rule="evenodd" clip-rule="evenodd" d="M166.481 108.496C165.782 107.724 165.239 107.09 165.057 106.029C164.981 105.587 164.947 105.133 164.932 104.676C167.74 100.75 170.47 91.4741 170.47 86.4008C170.469 79.2434 167.831 72.3568 163.5 66.6609C155.058 55.5669 141.004 49.8795 127.251 50.3256C114.08 50.7502 100.071 55.6071 91.8556 65.989C64.597 100.434 87.4748 138.058 104.231 145.885C105.689 146.567 110.4 146.33 109.744 144.875C107.859 140.695 106.373 132.995 106.027 131.262C106.563 131.624 107.104 131.977 107.647 132.342C108.608 132.987 109.897 133.724 111.105 133.511C111.163 133.5 111.198 133.439 111.201 133.386C111.255 132.251 110.444 131.084 109.73 130.275C108.739 129.151 107.797 127.999 106.73 126.944C106.276 126.494 105.815 126.048 105.355 125.602C105.296 122.926 105.475 120.238 105.955 117.548C106.785 112.883 108.217 108.339 109.863 103.867C111.239 102.852 112.574 101.785 113.81 100.618C116.786 97.8095 119.058 94.3732 121.005 90.7591C121.029 90.7483 121.054 90.7356 121.077 90.7253C124.853 88.9687 128.596 87.145 132.31 85.264C134.227 84.2937 136.13 83.3003 138.034 82.3072C139.069 81.7659 140.136 81.2735 141.194 80.7641C140.909 82.2266 140.524 83.6681 140.058 85.0862C139.673 86.251 140.848 87.111 141.887 86.9186C145.426 86.2636 148.846 84.9469 151.924 83.0828C153.45 82.1592 154.901 81.0919 156.247 79.9208C157.593 81.9265 159.228 83.8075 160.878 85.4267C161.991 86.5194 163.155 87.559 164.364 88.5441C163.817 92.3125 163.348 96.0891 162.754 99.8492C162.444 101.815 162.07 103.78 161.835 105.756C161.579 107.91 162.291 109.444 163.709 111.019C165.691 113.219 165.689 116.402 164.93 119.135C164.837 119.473 164.721 119.803 164.601 120.13C164.575 120.198 164.501 120.382 164.474 120.454C164.474 120.456 164.474 120.458 164.472 120.462C164.472 120.464 164.47 120.466 164.47 120.468C164.467 120.468 164.467 120.47 164.465 120.473V120.477V120.479L164.463 120.481C164.374 120.688 164.279 120.891 164.184 121.094C163.751 122.009 163.267 122.903 162.765 123.783C160.293 128.123 157.17 132.095 153.613 135.599C151.956 137.231 150.234 138.748 148.289 139.991C147.879 140.251 147.46 140.502 147.032 140.733C146.801 140.857 146.565 140.974 146.328 141.092C145.982 141.263 146.125 141.195 145.914 141.28C145.532 141.43 145.141 141.561 144.741 141.665C144.528 141.72 144.313 141.766 144.095 141.806C144.093 141.806 144.089 141.808 144.082 141.808C144.08 141.808 144.078 141.811 144.076 141.808C144.074 141.811 144.07 141.811 144.065 141.811C143.985 141.817 143.841 141.83 143.814 141.83C140.78 141.84 137.772 141.432 134.835 140.678C133.244 140.268 131.655 139.771 130.16 139.089C129.399 138.74 128.655 138.353 127.944 137.915C127.624 137.719 127.322 137.482 126.986 137.311C126.484 137.053 125.991 137.081 125.448 137.057C124.62 137.023 124.033 137.89 124.236 138.651C124.483 139.579 124.872 140.126 125.67 140.678C126.308 141.117 126.984 141.506 127.673 141.859C129.173 142.631 130.76 143.258 132.365 143.772C135.372 144.731 138.536 145.321 141.684 145.537C143.977 145.693 145.963 145.387 148.05 144.421C150.253 143.4 152.229 141.876 154.056 140.295C158.148 136.757 161.708 132.465 164.727 127.986C167.565 123.776 169.766 119.192 169.041 113.965C168.752 111.869 167.898 110.064 166.481 108.496Z" fill="black"/>
<path fill-rule="evenodd" clip-rule="evenodd" d="M143.152 128.274C141.732 127.695 140.465 126.728 139.538 125.493C139.216 125.063 139.133 124.61 139.2 124.195C139.276 123.729 139.552 123.306 139.928 123.023C140.305 122.739 140.777 122.598 141.233 122.67C141.63 122.732 142.024 122.949 142.337 123.399L142.402 123.489C142.953 124.235 143.67 124.846 144.488 125.241C145.276 125.621 146.158 125.798 147.07 125.695C148.808 125.499 150.005 124.559 151.278 123.282C151.436 123.121 151.594 122.955 151.752 122.786C151.852 122.633 151.991 122.534 152.146 122.483C152.317 122.425 152.511 122.429 152.689 122.491C152.86 122.55 153.013 122.664 153.116 122.815C153.213 122.958 153.269 123.135 153.251 123.339C153.134 124.661 152.443 125.842 151.461 126.769C150.37 127.799 148.924 128.511 147.563 128.761C146.064 129.036 144.536 128.839 143.152 128.274ZM148.271 107.866C149.866 108.836 152.297 111.098 150.581 113.503C148.56 115.624 145.652 113.193 144.219 112.093C142.89 111.241 141.396 113.433 142.629 114.428C152.987 122.099 157.19 108.12 149.078 106.726C148.184 106.572 147.853 107.566 148.271 107.866ZM129.711 98.9429C129.887 96.7541 133.219 96.257 133.551 98.423C133.847 100.363 133.498 102.145 132.624 103.892C131.79 105.561 129.692 104.783 129.533 103.263C129.32 101.226 129.601 100.304 129.711 98.9429ZM155.076 97.9738C155.541 97.3652 156.212 96.9496 157.015 97.1845C159.526 97.9185 158.786 101.485 157.904 103.22C157.425 104.163 155.876 104.402 155.176 103.572C154.036 102.219 153.489 99.5156 154.94 98.1825C154.979 98.1136 155.023 98.044 155.076 97.9738ZM132.589 89.3654L132.986 89.2959C134.213 89.0836 135.738 88.8796 136.606 89.8665C137.067 90.3898 137.225 91.3624 136.606 91.8633C135.518 92.7446 134.314 92.4031 133.01 92.4777C131.935 92.5394 130.902 92.7174 129.867 93.0135C127.595 93.663 125.744 94.8486 123.804 96.1506C123.55 96.3213 123.29 95.9956 123.411 95.7574C124.531 93.563 126.701 91.7604 128.875 90.6616C130.036 90.0751 131.305 89.5885 132.589 89.3654ZM152.787 88.3823L153.091 88.4445C156.395 89.1353 160.687 90.5153 162.251 93.7615C162.311 94.2205 162.248 94.3189 162.197 94.3832L162.18 94.4046C162.137 94.4595 162.104 94.5351 161.905 94.5976C161.85 94.5844 161.794 94.5705 161.737 94.5557C161.02 94.3677 160.453 94.1087 159.904 93.84L159.308 93.5465C158.617 93.2076 157.92 92.881 157.181 92.6399C155.605 92.1254 153.983 91.7631 152.337 91.5696C151.98 91.5277 151.636 91.4072 151.365 91.2006C151.108 91.0046 150.911 90.7332 150.821 90.3724C150.705 89.9056 150.739 89.5521 150.989 89.1309C151.177 88.8146 151.447 88.5953 151.756 88.4694C152.071 88.3411 152.43 88.3108 152.787 88.3823Z" fill="black"/>
</svg>
