<svg width="240" height="324" viewBox="0 0 240 324" fill="none" xmlns="http://www.w3.org/2000/svg">
<path fill-rule="evenodd" clip-rule="evenodd" d="M55.2056 285.479C57.7347 285.636 60.2637 285.759 62.7925 285.853C95.8623 287.086 128.905 283.315 161.955 282.49C173.464 282.186 184.914 282.338 196.394 283.262C197.519 283.353 198.805 282.142 198.667 280.989C196.546 262.674 193.892 244.408 192.517 226.019C192.516 225.046 192.642 224.075 192.976 223.159C193.039 223.087 193.366 222.281 193.656 222.231C193.561 222.301 193.991 222.178 193.717 222.199C195.377 221.927 197.005 220.135 195.8 218.42C183.392 199.395 166.454 182.03 161.005 159.433C159.717 153.324 155.067 152.946 150.113 150.426C148.567 149.506 144.787 146.959 144.172 145.188C142.703 138.804 145.29 132.55 137.73 129.968C132.74 128.583 123.919 127.412 118.869 128.872C112.71 130.923 113.171 137.867 109.598 142.644C107.75 145.407 104.6 149.19 101.692 149.613C100.282 149.819 99.2435 146.966 97.8359 147.162C75.8949 152.493 46.0018 188.859 36.5716 208.99C34.4465 215.326 41.3001 213.415 40.8791 219.783C40.36 231.864 39.2247 247.329 39.898 259.425C40.5287 266.445 40.062 273.801 42.2433 280.557C41.6562 281.27 42.4998 281.99 43.1881 282.3C44.0554 283.776 52.5889 285.275 55.2056 285.479Z" fill="white"/>
<path fill-rule="evenodd" clip-rule="evenodd" d="M112.328 135.035C112.898 132.467 116.982 133.569 116.282 136.126C115.199 140.08 112.951 143.817 109.778 146.44C107.327 148.465 103.987 150.271 100.674 150.605C100.985 150.908 101.282 151.231 101.595 151.539C102.301 152.241 103.051 152.892 103.824 153.518C105.413 154.803 107.065 155.959 108.869 156.927C116.075 160.795 124.216 161.687 132.265 160.786C136.085 160.359 139.961 159.634 143.553 158.237C145.218 157.591 146.836 156.741 148.264 155.667L148.638 155.387C149.389 154.819 150.391 154.019 150.861 153.144C149.432 153.465 147.626 151.943 146.635 151.058C145.552 150.086 144.639 148.832 143.965 147.547C142.644 145.026 141.945 141.773 143.052 139.07C143.126 138.89 143.363 138.92 143.384 139.114C143.711 142.266 144.561 145.22 146.821 147.554C147.825 148.587 149.027 149.454 150.339 150.056L150.523 150.141C151.082 150.399 151.671 150.703 151.906 151.256C151.997 151.246 152.088 151.254 152.175 151.278C152.253 151.299 152.325 151.322 152.394 151.347C152.238 151.041 152.156 150.679 152.17 150.252C152.226 148.597 154.497 148.547 154.811 150.02C154.754 149.826 154.678 150.014 154.822 150.073C154.82 150.056 154.816 150.037 154.811 150.02L154.816 150.036L154.824 150.073L154.822 150.073C154.828 150.1 154.832 150.127 154.835 150.155L154.838 150.192L154.837 150.161C154.835 150.138 154.832 150.118 154.829 150.099L154.824 150.073C154.845 150.083 154.875 150.09 154.909 150.09L154.922 150.095C154.975 150.118 155.162 150.205 155.217 150.227C155.595 150.367 156.018 150.411 156.404 150.531C157.243 150.789 157.983 151.216 158.494 151.943C158.862 152.465 159.066 153.063 159.151 153.685C162.863 155.471 166.376 157.791 169.319 160.664C175.888 167.072 180.468 175.092 184.226 183.394C186.139 187.621 187.844 191.937 189.511 196.265L189.774 196.948C191.561 201.6 193.142 206.302 193.53 211.303C193.566 211.751 193.418 212.172 193.163 212.521C193.254 212.897 193.3 213.273 193.287 213.641C193.285 213.698 193.281 213.755 193.277 213.812C193.877 213.801 194.464 214.053 195.022 214.759C195.248 214.687 195.493 214.678 195.734 214.756C197.202 215.226 197.439 216.838 197.716 218.189C198.001 219.584 198.125 221.013 198.128 222.435C198.128 222.944 197.836 223.587 197.342 223.805C196.412 224.214 195.411 224.483 194.449 224.855C193.727 225.134 193.002 225.398 192.271 225.645C192.677 226.353 192.808 227.338 193.028 228.084C193.372 229.249 193.649 230.418 193.881 231.61C195.457 239.715 196.549 247.907 198.024 256.029C198.761 260.098 199.619 264.139 200.494 268.18C200.925 270.166 201.383 272.149 201.875 274.123C202.138 275.175 202.41 276.228 202.691 277.274C202.773 277.58 202.855 277.884 202.939 278.189L203.086 278.722C203.407 278.899 203.682 279.168 203.872 279.535C204.567 280.88 204.168 282.395 202.835 283.152C201.385 283.976 199.655 283.198 198.856 281.86C198.294 280.916 198.111 279.664 197.834 278.614C197.521 277.435 197.223 276.249 196.936 275.063C194.984 267.008 193.677 258.812 192.692 250.585L192.622 249.997C192.121 245.762 191.637 241.516 191.325 237.261C191.171 235.171 191.048 233.081 190.972 230.986C190.934 229.908 190.995 228.824 191.056 227.748C191.084 227.277 191.124 226.803 191.139 226.332L191.144 226.265C191.147 226.217 191.153 226.155 191.157 226.089L191.162 226.009C189.704 226.465 188.225 226.846 186.732 227.167C183.554 227.854 180.303 228.237 177.06 228.042C177.512 233.415 178.101 238.774 178.925 244.098C179.72 249.226 180.637 254.342 181.672 259.428C182.19 261.983 182.749 264.532 183.339 267.072C183.656 268.429 184.017 269.777 184.302 271.141C184.471 271.952 184.524 272.63 184.184 273.389C184.558 274.41 184.891 275.435 185.218 276.401L185.316 276.689C185.895 278.379 186.994 280.108 185.847 281.769C185.253 282.627 184.286 283.118 183.311 283.147C183.294 283.158 183.275 283.171 183.256 283.181C182.732 283.462 182.128 283.517 181.554 283.397C180.681 283.568 179.806 283.733 178.93 283.883C176.764 284.257 174.588 284.565 172.408 284.826C168.256 285.32 164.078 285.591 159.901 285.741C144.609 286.292 129.301 285.324 114.003 285.603C106.209 285.745 98.4155 286.096 90.6346 286.561C86.7515 286.793 82.8662 287.043 78.981 287.235L77.7784 287.294C74.3039 287.46 70.8269 287.588 67.355 287.334C67.2874 287.33 67.2345 287.302 67.1986 287.265C66.0007 287.129 64.7967 286.026 64.9169 284.752C65.4345 279.324 65.9522 273.897 66.4719 268.467C67.3951 258.794 68.3268 249.12 69.2691 239.448L69.4052 238.052C69.7218 234.793 70.0241 231.527 70.1775 228.255C69.4043 228.201 68.6334 228.131 67.862 228.046C59.5052 227.131 51.494 224.602 43.8018 221.281L43.4902 221.146C42.7972 220.843 42.0388 220.541 41.2613 220.218C41.2742 221.695 41.2254 223.175 41.219 224.637C41.2085 227.066 41.2275 229.494 41.2338 231.92C41.2486 236.921 41.4388 241.923 41.6881 246.916C42.1254 255.733 42.6388 264.538 43.4162 273.334C43.6127 275.547 43.8791 277.756 44.0669 279.969C44.1791 281.273 43.9106 282.359 42.7171 283.044C42.1296 283.382 41.6754 283.24 41.0923 282.968C39.6683 282.3 39.6282 280.721 39.493 279.347C39.3897 278.312 39.2944 277.276 39.2014 276.238C39.0031 274.026 38.8317 271.813 38.6923 269.595C38.1411 260.786 37.9803 251.986 38.3606 243.166C38.5371 239.041 38.792 234.907 39.1303 230.789L39.2099 229.839C39.4888 226.548 39.6683 223.094 40.2451 219.783C37.919 218.751 35.6141 217.439 34.5451 215.257C33.1594 212.425 34.6824 210.003 36.8521 208.336C36.831 208.055 36.8521 207.776 36.9113 207.522C37.5345 204.823 38.5782 202.156 39.5859 199.582C40.6021 196.995 41.724 194.448 42.9578 191.956C47.9099 181.974 54.6747 172.852 62.7388 165.167C66.7444 161.351 71.1282 157.823 75.8078 154.864C78.1275 153.4 80.5064 152.047 82.9698 150.842L83.334 150.665C85.0488 149.832 86.9722 148.947 88.8791 148.484C89.0775 148.336 89.2782 148.196 89.481 148.063C90.231 147.564 91.2493 147.925 91.693 148.638C91.9087 148.471 92.1578 148.323 92.443 148.19L92.7249 148.061C94.436 147.29 96.4906 146.569 98.3479 147.076C99.5015 147.391 100.41 148.24 100.818 149.323C101.754 148.828 102.673 148.319 103.57 147.695C105.013 146.698 106.321 145.459 107.496 144.159C109.851 141.545 111.563 138.482 112.328 135.035ZM194.065 217.462C193.904 217.508 193.735 217.525 193.56 217.504C193.877 217.541 193.242 217.729 193.068 217.818L193.055 217.825C192.738 218.007 192.419 218.182 192.096 218.352C191.342 218.749 190.571 219.106 189.787 219.442C188.242 220.1 186.647 220.605 185.01 220.975C183.408 221.336 181.729 221.547 180.087 221.581C178.989 221.602 177.685 221.552 176.549 221.228C176.68 223.221 176.825 225.212 176.988 227.201L179.233 226.686C181.478 226.171 183.72 225.643 185.935 225.001C187.598 224.519 189.237 223.955 190.858 223.346C191.707 223.027 192.55 222.689 193.382 222.325C193.797 222.144 194.185 221.929 194.569 221.711L194.897 221.524C194.821 220.634 194.682 219.761 194.479 218.882C194.373 218.417 194.194 217.94 194.065 217.462ZM40.3507 208.076C40.0655 209.002 39.6282 209.866 38.631 210.075C38.2782 210.149 37.9826 210.109 37.7373 209.989L37.6785 210.107C36.8586 211.791 36.6178 213.568 38.5042 214.864C39.3558 215.45 40.2831 215.957 41.2422 216.411C42.9575 217.228 44.7841 217.884 46.5063 218.552L46.8493 218.686C49.9296 219.895 53.0584 220.996 56.2359 221.917C59.4601 222.849 62.7408 223.597 66.0622 224.073C67.4627 224.272 68.8739 224.411 70.2875 224.502C70.3106 222.6 70.3 220.696 70.2936 218.793C69.7908 218.73 69.2922 218.662 68.8108 218.605C67.3444 218.434 65.8824 218.225 64.4289 217.965C61.3929 217.422 58.3887 216.671 55.4584 215.712C50.0289 213.93 44.9775 211.383 40.3507 208.076ZM99.8798 149.811C98.646 148.505 96.2861 148.976 94.7969 149.61C94.3467 149.802 93.8924 149.997 93.4615 150.231L93.378 150.278C92.8761 150.567 92.8786 150.739 93.1236 151.315C93.4425 152.074 93.8861 152.807 94.3086 153.511C96.1173 156.532 98.4981 159.161 101.217 161.382C110.847 169.244 124.68 172.017 136.723 169.384C142.502 168.121 148.077 165.573 152.332 161.393L152.719 161.008C154.435 159.29 156.789 156.805 156.624 154.26C156.546 153.036 155.547 152.966 154.526 152.729C154.108 152.632 153.709 152.495 153.362 152.3C153.641 153.503 152.156 155.291 151.389 156.041C149.781 157.616 147.846 158.846 145.799 159.765C141.903 161.517 137.665 162.346 133.446 162.87C128.659 163.466 123.768 163.413 119.016 162.532C114.882 161.765 110.807 160.313 107.249 158.051C105.618 157.015 104.01 155.834 102.649 154.458L102.36 154.166C101.378 153.17 100.235 151.967 99.6474 150.66C99.4234 150.662 99.2016 150.656 98.9798 150.641C98.8234 150.633 98.7391 150.411 98.8953 150.328C99.0706 150.235 99.246 150.143 99.4213 150.052C99.392 149.954 99.3664 149.859 99.3453 149.762C99.3284 149.68 99.415 149.604 99.491 149.65C99.5967 149.713 99.6981 149.781 99.7974 149.853C99.8248 149.84 99.8523 149.826 99.8798 149.811Z" fill="black"/>
<path fill-rule="evenodd" clip-rule="evenodd" d="M111.129 50.5837L112.954 52.7546C111.944 53.4669 110.99 54.1827 110.093 54.9018L110.092 54.8996C114.248 52.1871 118.85 50.5837 123.822 50.5837C133.399 50.5837 152.85 58.8131 157.248 64.7489C159.43 67.6946 163.485 76.7378 165.589 86.5694C167.279 94.4689 169.792 116.786 167.279 125.172C164.061 135.904 153.477 145.824 142.563 145.824C131.648 145.824 114.704 137.941 102.644 120.667C102.093 119.877 95.7603 118.962 91.2429 115.997L92.4289 129.069L93.3304 136.673L93.1315 137.214C89.896 145.967 87.3322 150.534 85.4399 150.914C83.5089 151.302 79.5766 148.135 73.6428 141.415L72.8846 138.231C70.9588 130.11 69.9958 125.75 69.9958 125.153L69.9972 125.044C70.0256 123.67 70.4989 115.89 70.5086 113.797L70.5088 82.4188C76.8904 61.1954 82.9802 50.5837 88.7782 50.5837H111.129Z" fill="white"/>
<path fill-rule="evenodd" clip-rule="evenodd" d="M96.0085 43.356C97.8848 42.6289 100.059 42.7663 101.84 43.8611C105.336 43.7111 108.814 45.7569 110.637 48.7433C110.675 48.7856 110.715 48.8278 110.751 48.8701L111.137 49.3206C111.503 49.7508 111.889 50.225 112.195 50.7146C110.697 50.7488 109.45 51.3594 108.579 52.5926C107.958 53.4726 109.381 54.3088 110.016 53.4765L110.038 53.4461C110.561 52.7057 111.351 52.4189 112.229 52.4039C112.482 52.3997 112.673 52.3031 112.808 52.1606C112.862 52.357 112.91 52.5554 112.954 52.7547C117.379 51.0333 122.148 50.5774 126.899 50.9857C126.69 51.323 126.516 51.6845 126.382 52.0643C126.23 52.4948 126.554 52.9891 126.973 53.1041C127.425 53.2284 127.833 52.9633 127.997 52.5537L128.012 52.5136C128.195 51.9962 128.493 51.5522 128.893 51.2079C131.129 51.5111 133.349 51.9935 135.516 52.6152C138.119 53.3632 140.698 54.276 143.22 55.3212C142.793 55.4888 142.424 55.772 142.165 56.2448C141.65 57.1885 143.068 58.0338 143.606 57.1316L143.625 57.0982C143.678 57.0014 143.724 56.9433 143.759 56.9102L143.771 56.8989L143.845 56.8647L143.984 56.8249L144.037 56.8119C144.084 56.8013 144.103 56.8019 144.227 56.7951C144.391 56.7858 144.556 56.7867 144.721 56.7865C145.108 56.7862 145.355 56.5705 145.466 56.2944C146.711 56.8564 147.94 57.4482 149.147 58.0681L149.434 58.2167C153.159 60.164 156.688 62.7213 158.736 66.4841C158.871 66.7356 158.913 67.0103 158.88 67.2724C159.317 67.7965 159.74 68.3376 160.145 68.8871C161.383 70.5695 162.29 72.4822 163.147 74.378C164.873 78.1907 166.035 82.1071 166.942 86.1904C167.819 90.1257 168.526 94.1033 169.183 98.0809C169.912 102.5 170.518 106.958 170.645 111.44C170.869 119.432 169.308 127.469 164.823 134.196C160.821 140.199 154.796 144.965 147.651 146.491C140.383 148.042 132.693 146.529 126.966 141.685C126.042 140.905 126.169 139.33 126.966 138.531C127.868 137.631 129.199 137.756 130.118 138.531C135.511 143.094 143.362 143.798 149.861 141.473C155.869 139.322 160.576 134.359 163.464 128.786C166.988 121.989 167.582 114.182 167.041 106.662C166.745 102.532 166.13 98.436 165.497 94.3464L165.114 91.8846C164.697 89.2182 164.258 86.5555 163.686 83.9162L163.552 83.3013C162.853 80.1186 162.035 76.8543 160.769 73.8623C160.105 72.292 159.307 70.7787 158.489 69.2844C158.331 68.9949 158.168 68.7011 158.001 68.4052C157.777 68.4834 157.521 68.4961 157.253 68.4116C154.944 67.693 152.571 67.2111 150.157 67.0505C149.057 66.9769 147.955 66.9655 146.854 67.0084C144.97 66.8987 143.034 67.0644 141.239 67.6423C141.064 67.4916 140.886 67.344 140.708 67.1965C140.66 67.1927 140.612 67.1876 140.564 67.1781C140.106 67.0881 139.784 66.7626 139.59 66.3515C139.58 66.3298 139.571 66.308 139.562 66.2862C139.333 66.1106 139.101 65.9377 138.867 65.7672C138.298 65.9149 137.799 65.4408 137.664 64.9213C137.538 64.8357 137.409 64.7529 137.281 64.669C137.18 64.6935 137.081 64.7138 136.983 64.721C136.564 64.7512 136.159 64.6869 135.787 64.4868C135.317 64.2334 135.016 63.8246 134.815 63.3603C134.104 63.404 133.384 63.173 132.748 62.7554C132.231 62.4166 131.836 61.9489 131.443 61.482C126.651 59.3442 121.443 58.082 116.223 57.7587C115.709 57.8576 115.198 57.9753 114.694 58.1123C114.574 58.1448 114.405 58.2086 114.21 58.2851C115.374 58.1444 116.553 58.1304 117.748 58.3027C123.422 59.1234 127.84 63.3728 131.643 67.384C132.548 67.2012 133.462 68.3731 132.625 69.1492L126.097 75.2003C126.258 75.8771 125.482 76.5441 124.802 76.3816C123.663 76.1077 122.521 75.8414 121.379 75.5795C120.187 76.1563 118.689 76.0576 117.608 75.2215C117.558 75.1826 117.449 75.1205 117.354 75.0587C117.265 75.1321 117.146 75.2056 117.098 75.2369C116.714 75.4914 116.246 75.5662 115.797 75.4948C115.335 75.4214 114.918 75.187 114.559 74.8952C114.33 74.7092 113.797 73.9335 113.5 73.8763L113.472 73.8731C113.669 73.8788 113.033 74.4703 112.862 74.5927C112.463 74.8774 112.022 75.027 111.526 74.9725C110.661 74.8773 109.918 74.0888 109.495 73.3606L109.463 73.3047L109.449 73.2701L109.438 73.3076C109.436 73.3142 109.434 73.3213 109.431 73.3293C109.367 73.5007 109.168 73.6955 109.033 73.8154C108.648 74.1563 108.171 74.3061 107.661 74.2171C107.23 74.1421 106.867 73.8814 106.576 73.5659L106.53 73.5157C106.444 73.4183 105.876 72.6546 105.966 72.4716L105.976 72.4562L105.948 72.4503C105.602 72.5352 105.312 72.45 105.099 72.2719C103.913 72.0119 102.743 71.7091 101.609 71.324C101.521 71.5734 101.434 71.8228 101.35 72.0743C101.968 72.4568 102.541 73.0021 103.067 73.391C104.064 74.1265 105.061 74.862 106.056 75.5996L109.999 78.509L110.45 78.3879C111.026 78.2332 111.52 78.5687 111.732 79.0816L111.749 79.126C111.833 79.3506 111.934 79.5584 112.053 79.7573C113.038 79.718 113.873 80.3233 114.143 81.1915C114.386 81.186 114.632 81.1953 114.883 81.223C115.572 81.2986 116.036 81.8101 115.911 82.5124L115.902 82.5606L115.885 82.6388C116.284 82.8083 116.574 83.1357 116.638 83.6307C116.745 83.7915 116.831 83.9665 116.886 84.1614C117.174 85.1725 116.614 86.4224 116.316 87.391L116.293 87.4669C116.101 88.1035 115.903 88.737 115.702 89.3703L115.203 90.9425C113.818 95.3242 112.467 99.9441 113.588 104.538C113.827 105.51 112.585 105.949 112.046 105.189C110.74 103.347 109.329 101.611 107.847 99.9444L107.775 99.933C106.738 99.7244 106.335 98.9912 105.859 98.2439C105.578 98.3265 105.276 98.346 104.985 98.2897C104.563 98.2084 104.185 97.9672 103.886 97.6627C103.633 97.4044 103.401 96.742 103.102 96.5778C102.729 96.3726 101.977 96.6659 101.53 96.6C101.167 96.5465 100.828 96.4218 100.499 96.2652C99.8944 97.0897 99.4936 98.0589 99.3954 99.1039C99.3571 99.5012 99.2388 99.8372 99.0677 100.116C99.6973 100.093 100.329 100.137 100.952 100.254C103.259 100.683 104.914 102.107 105.843 104.229C105.883 104.322 105.763 104.398 105.708 104.309C104.328 102.185 101.326 102.078 99.1459 102.826C96.8304 103.62 95.5311 105.66 95.0686 107.987C94.5616 110.538 95.2121 113.288 96.6003 115.46C97.2445 116.471 98.1235 117.392 99.2916 117.764C100.68 118.206 101.962 117.415 103.384 117.823C104.352 118.1 104.778 119.036 104.603 119.973C104.533 120.34 104.404 120.662 104.231 120.941C104.743 121.955 105.216 122.999 105.818 123.959C106.747 125.44 107.871 126.666 109.097 127.902C110.362 129.179 111.651 130.43 113.005 131.614C114.302 132.749 115.79 133.556 117.15 134.596C118.105 135.325 118.578 136.348 118.107 137.519C117.719 138.487 116.409 139.311 115.348 138.874C113.318 138.037 111.541 136.612 109.923 135.145C108.423 133.784 107.117 132.157 106.13 130.39C105.2 128.724 104.514 126.833 103.935 125.01L103.863 124.783C103.591 123.916 103.304 122.942 103.118 121.959C102.005 122.568 100.494 122.657 99.3024 122.492C97.3776 122.228 95.6219 121.258 94.2952 119.844C93.6768 119.186 93.1302 118.435 92.6583 117.622C92.7012 118.117 92.7267 118.596 92.7542 119.032C93.8572 120.241 94.2996 121.985 93.9081 123.576C94.8309 124.526 95.0895 125.953 94.6078 127.167C95.6179 128.169 95.5799 129.764 95.1432 131.212C96.3373 132.548 96.4503 134.627 95.518 136.134L95.4899 136.242C96.4313 137.818 96.219 139.855 95.0395 141.246C95.845 142.809 95.7204 144.912 93.7072 145.518C92.9735 145.739 92.2624 145.551 91.7302 145.139C92.2161 147.557 92.4335 150.011 91.7855 152.44C91.5276 153.404 90.5853 154.108 89.5945 154.108C88.7663 154.108 88.1642 153.691 87.7482 153.078C87.7968 154.298 87.7228 155.524 87.463 156.76C87.3062 157.507 86.6139 158.089 85.8789 158.269C86.144 158.569 86.2497 159.001 85.9955 159.452C84.9178 161.36 82.314 160.569 82.138 158.74C81.4026 158.191 81.0607 157.289 80.9192 156.315C80.713 154.895 80.6382 153.497 80.4045 152.095L80.3152 152.178L80.2691 152.218L80.2543 152.32C80.1204 153.013 79.7295 153.498 79.2223 153.788C79.3326 154.997 79.1285 156.229 78.3616 157.147C77.8507 157.759 76.9805 158 76.2345 157.867C76.1876 157.87 76.1397 157.87 76.0898 157.863C74.4003 157.638 73.4228 156.035 73.8675 154.564C73.1872 153.73 72.9007 152.672 73.1021 151.626C71.7857 150.754 71.8125 148.839 72.2684 147.3C70.8884 146.211 70.3693 144.174 71.0627 142.555C69.819 141.01 69.6459 138.857 70.491 137.097C69.1226 135.973 69.1305 133.801 70.4876 132.651C69.7649 131.216 69.329 129.496 70.0514 128.183C69.5418 127.62 69.2621 126.818 69.321 126.043C69.4074 124.906 70.16 124.119 71.0938 123.595L71.1584 123.239C71.3777 123.267 71.6114 123.205 71.8174 123.008C72.0212 122.812 72.231 122.654 72.448 122.524C72.6937 122.52 72.9052 122.411 73.0539 122.242C73.4608 122.104 73.8983 122.043 74.3836 122.038C75.4317 122.026 75.4687 120.458 74.4933 120.357C74.3393 120.201 74.1271 120.103 73.8971 120.103L73.7169 120.104C73.2957 120.108 72.8705 120.134 72.4797 120.302C72.2257 120.41 72.0299 120.574 71.8864 120.774C71.8596 121.078 71.6948 121.38 71.338 121.629C70.9258 121.918 70.3621 121.951 69.921 121.69C69.3035 121.325 69.2971 120.755 69.3683 120.136C69.5243 118.78 68.7451 117.504 68.9306 116.117C69.0128 115.504 69.2169 114.975 69.5496 114.547C68.848 113.497 68.7242 112.14 69.2644 110.987C68.139 109.776 67.9444 107.909 68.6621 106.451C68.6724 106.416 68.6805 106.38 68.6916 106.345C68.7728 106.097 68.8845 105.874 69.0077 105.66C68.3777 104.568 68.3824 103.228 69.0227 102.141C68.0528 101.01 68.0219 99.21 68.8845 97.9913C68.8896 97.8903 68.9002 97.7893 68.9088 97.6882C68.5129 96.66 68.608 95.491 69.1102 94.5349C68.931 94.1217 68.7928 93.6768 68.7045 93.203C68.4783 91.9813 68.5947 90.7936 68.9327 89.6015C68.9874 89.4134 69.0487 89.2253 69.1142 89.0372C69.1252 88.2208 69.1562 87.4079 69.1972 86.5966C69.0366 85.9097 69.0107 85.1549 69.0071 84.4542L69.0061 83.9998C68.9982 82.8435 68.9177 81.1504 69.6485 80.1675C69.1793 79.1057 69.3721 77.7678 70.1553 76.9262C69.6056 75.9804 69.4902 74.8191 70.0427 73.7697C70.1314 73.6008 70.2343 73.4436 70.3471 73.2948C70.3015 72.3338 70.5037 71.3428 71.0156 70.3877C71.3481 69.7659 71.8448 69.2276 72.4353 68.7969C72.4254 68.6694 72.4193 68.5422 72.4214 68.4168C72.4317 67.8576 72.5557 67.2961 72.7645 66.7721C72.3899 66.1326 72.2162 65.4117 72.4353 64.6347C72.6804 63.7555 73.325 62.9989 74.1297 62.572C74.1945 61.743 74.324 60.919 74.5091 60.1059C74.0145 59.0042 74.4083 57.5501 75.5262 56.901C75.3804 56.0205 75.5118 55.1075 76.1524 54.4198C76.3951 54.1592 76.6812 53.9615 76.989 53.8305C76.8407 52.9452 77.008 52.0241 77.62 51.3032C78.1199 50.7146 78.8606 50.357 79.6144 50.3043C79.9047 48.7644 81.3753 47.613 82.9269 47.7047C83.1208 47.0267 83.5841 46.4356 84.3028 46.1359C84.4869 46.0592 84.6728 46.0086 84.8581 45.9805C86.1197 44.7074 87.9981 43.8444 89.6243 43.4025C91.2554 42.961 92.9089 42.9182 94.3093 43.4316L94.4114 43.4701L94.5254 43.4553C95.02 43.4004 95.5142 43.3687 96.0085 43.356ZM83.6137 147.707C83.178 147.571 82.6921 147.868 82.574 148.298C82.4494 148.752 82.727 149.201 83.1643 149.338C83.7092 149.508 84.2815 149.55 84.8494 149.55C85.3059 149.551 85.6944 149.162 85.6944 148.705C85.6944 148.246 85.3076 147.86 84.8494 147.86C84.3875 147.859 84.0466 147.842 83.6137 147.707ZM79.7381 138.729C79.0867 138.73 78.5282 138.885 78.0452 139.342C77.7232 139.647 77.7152 140.235 78.0452 140.538C78.3785 140.844 78.8621 140.862 79.2042 140.57L79.2701 140.511C79.278 140.504 79.2842 140.498 79.2891 140.493C79.3166 140.476 79.3443 140.457 79.3734 140.442L79.3183 140.478C79.2764 140.509 79.3737 140.459 79.4283 140.436L79.4455 140.429L79.451 140.427L79.4947 140.424C79.5756 140.42 79.657 140.42 79.7381 140.42C80.1801 140.42 80.6034 140.032 80.5832 139.575C80.5624 139.117 80.2117 138.729 79.7381 138.729ZM92.029 133.366C92.9438 132.804 92.1267 131.369 91.2093 131.886L91.1761 131.906C90.7058 132.194 90.1274 132.155 89.5946 132.155C88.5072 132.156 88.5053 133.847 89.5946 133.846L89.7746 133.846C90.5557 133.84 91.3457 133.785 92.029 133.366ZM84.8307 127.194C84.1396 127.064 83.3655 126.948 82.6383 127.027L82.5176 127.042H82.2938C82.0995 127.042 81.9112 127.121 81.7602 127.244C81.521 127.343 81.2946 127.476 81.0879 127.655C80.2646 128.369 81.4644 129.561 82.2831 128.851C82.3285 128.811 82.3813 128.779 82.44 128.752L82.485 128.733H83.3891C83.4712 128.733 83.5513 128.716 83.6293 128.691C83.9227 128.732 84.1961 128.79 84.3814 128.825C85.4445 129.025 85.9 127.396 84.8307 127.194ZM84.0589 110.967C82.7343 110.352 81.2672 110.357 80.0421 111.21C79.166 111.821 79.9798 113.26 80.8634 112.691L80.895 112.67C81.0048 112.594 81.1177 112.53 81.2317 112.472C81.8537 112.651 82.4798 112.66 83.0811 112.439L83.1593 112.409L83.206 112.427C84.1863 112.882 85.0458 111.425 84.0589 110.967ZM98.4831 108.318C97.1449 108.168 97.1342 106.053 98.4831 106.204C101.331 106.524 103.915 107.79 105.808 109.966C106.689 110.977 105.239 112.457 104.342 111.491L104.314 111.46C102.809 109.73 100.778 108.575 98.4831 108.318ZM83.4918 97.4602C83.1943 97.4276 82.8975 97.4114 82.6053 97.4255C81.9035 97.4593 81.0487 97.9277 81.3567 98.7739C81.6037 99.452 82.4133 99.4788 82.813 99.1172C82.9792 99.1212 83.1453 99.1322 83.3107 99.1491C83.7521 99.1945 84.1892 99.2786 84.6242 99.3644C85.6866 99.5735 86.1415 97.9442 85.0735 97.7339L84.6012 97.6404C84.442 97.6092 84.2814 97.5787 84.1201 97.5508C84.0236 97.5028 83.9201 97.4705 83.8094 97.4623L83.7535 97.4602H83.4918ZM75.0948 84.3427L74.9956 84.3293C73.5685 84.1466 71.2776 84.3147 71.1044 86.132C71.0087 87.1385 72.4622 87.2017 72.7491 86.341C73.8029 86.151 74.8654 86.1147 75.912 86.2301C76.3113 85.8243 76.3145 85.0442 75.6498 84.8495C75.556 84.5972 75.3602 84.381 75.0948 84.3427ZM107.716 81.2733C107.386 80.9704 106.846 80.9303 106.521 81.2733C106.334 81.4707 106.178 81.6901 106.054 81.9314L105.972 82.0944C105.958 82.1215 105.944 82.1483 105.929 82.1749C105.901 82.2241 105.87 82.2711 105.84 82.3188L105.82 82.3388C105.812 82.347 105.802 82.3569 105.791 82.3689C105.487 82.6904 105.448 83.2498 105.791 83.5645C106.121 83.8674 106.661 83.9076 106.986 83.5645C107.173 83.3671 107.329 83.148 107.453 82.9064L107.535 82.7436C107.549 82.7165 107.563 82.6897 107.578 82.6631C107.605 82.6137 107.637 82.5667 107.667 82.519L107.7 82.4854C107.705 82.4804 107.71 82.4749 107.716 82.4689C108.02 82.1476 108.059 81.588 107.716 81.2733ZM90.3864 79.0716C89.1957 78.2275 87.7798 78.1882 86.6852 79.2037C85.8953 79.9367 87.0559 81.1112 87.8524 80.4244L87.8803 80.3993C87.9093 80.3723 87.9387 80.3486 87.9678 80.326C88.1106 80.4477 88.2921 80.5249 88.4996 80.5251C88.5538 80.5252 88.6079 80.5251 88.662 80.5262L88.7432 80.5291L88.7867 80.5327L88.7922 80.5338L88.8302 80.5499C88.8997 80.5813 88.9956 80.6297 88.864 80.5473C88.8934 80.5627 88.9208 80.5809 88.9487 80.5986L88.9973 80.6428C89.3159 80.9442 89.8671 80.9839 90.1834 80.6506C90.7434 80.4613 91.0407 79.5351 90.3864 79.0716ZM102.028 76.302L102.05 76.2951C103.094 75.9969 102.65 74.3651 101.6 74.6646C100.487 74.9827 99.9549 76.0193 99.7322 77.0812C99.6387 77.5277 99.8632 77.995 100.323 78.1212C100.742 78.2364 101.268 77.9796 101.362 77.5307C101.428 77.215 101.504 76.9472 101.625 76.6987L101.698 76.5568C101.732 76.4921 101.744 76.4814 101.859 76.3807C101.879 76.3638 101.967 76.3229 102.028 76.302ZM84.3437 67.7864L84.1804 67.7491C83.1633 67.5262 81.8132 67.4098 81.199 68.4185C80.6391 69.3375 82.0515 70.174 82.6331 69.3054C82.642 69.3051 82.6521 69.3052 82.664 69.3061L82.6832 69.3083L82.9439 69.2872C83.2686 69.2849 83.5794 69.3424 83.8944 69.417C84.952 69.6674 85.4034 68.0375 84.3437 67.7864ZM120.858 61.2865C121.628 60.5162 120.433 59.3201 119.663 60.0911C119.054 60.7004 118.466 61.314 118.07 62.0882C117.863 62.4944 117.964 63.0054 118.374 63.2449C118.751 63.4658 119.321 63.3495 119.53 62.9416C119.873 62.2706 120.306 61.839 120.858 61.2865ZM111.141 59.2643C110.38 59.7149 109.888 60.4572 109.589 61.3163C109.439 61.7475 109.76 62.241 110.179 62.3562C110.63 62.48 111.041 62.2159 111.203 61.8058L111.218 61.7657C111.298 61.5359 111.426 61.2645 111.585 61.0597C111.72 60.885 111.93 60.71 112.089 60.6518C112.469 60.5119 112.739 60.1666 112.704 59.7633C112.078 59.98 111.496 59.7194 111.141 59.2643ZM88.3672 55.5868C87.5996 54.8742 86.5699 54.7797 85.6395 55.211C85.2252 55.403 85.1215 56.0004 85.3363 56.3678C85.5848 56.7928 86.0768 56.8638 86.4924 56.6711C86.3857 56.7205 86.5784 56.6552 86.6616 56.6313C86.6722 56.6363 86.8118 56.6299 86.8599 56.6306L86.9178 56.6343C86.9182 56.6346 86.904 56.6344 86.8752 56.6334C86.9158 56.6426 86.9558 56.6535 86.9953 56.6661L87.0457 56.6836C87.0203 56.6783 87.1345 56.7527 87.1663 56.7775L87.172 56.7822C87.9685 57.5217 89.1666 56.3289 88.3672 55.5868Z" fill="black"/>
<path fill-rule="evenodd" clip-rule="evenodd" d="M155.1 117.052C155.151 116.892 155.374 116.892 155.425 117.052C155.889 118.5 156.162 119.918 156.855 121.279C157.027 121.456 157.149 121.678 157.215 121.918C157.539 122.456 157.9 122.967 158.304 123.451C158.811 124.06 159.181 124.632 158.912 125.462C158.779 125.872 158.436 126.134 158.005 126.153C156.819 126.207 156.144 125.076 155.724 123.896C152.79 124.871 149.559 125.423 146.484 125.181C143.984 124.983 141.261 124.357 139.023 123.08C139.037 123.562 139.055 124.045 139.072 124.528C139.103 125.421 139.343 126.398 139.25 127.275C139.158 128.146 138.664 128.819 137.769 128.954C136.999 129.07 136.045 128.555 135.895 127.73C135.721 126.771 136.043 126.102 136.308 125.197C136.543 124.398 136.726 123.582 136.928 122.774C137.132 121.958 137.299 121.135 137.45 120.308C137.56 119.703 137.481 119.021 137.695 118.451C137.712 118.407 137.755 118.375 137.804 118.389C138.944 118.717 139.009 120.553 139.004 121.538L139.004 121.586C139.002 121.787 139.004 121.988 139.006 122.188L139.442 122.284C141.833 122.801 144.155 123.194 146.669 123.052C149.618 122.884 152.211 121.806 155.009 121.067C154.777 119.737 154.705 118.287 155.1 117.052ZM145.238 90.8512C146.547 90.4029 147.962 90.1912 149.338 90.259C152.288 90.4048 155.098 91.7507 157.032 93.9934C158.858 96.1104 159.85 98.7656 159.837 101.567C159.823 104.444 159.068 107.685 157.645 110.204C154.656 115.496 147.674 115.533 142.656 113.423C137.301 111.171 135.123 105.492 136.413 100.002C137.382 95.8731 140.69 90.9188 145.238 90.8512ZM153.962 94.9387C152.383 93.67 150.393 93.1 148.383 93.2441C147.384 93.3158 146.369 93.5781 145.463 94.0043C144.981 94.2309 144.55 94.5473 144.076 94.7832C143.653 94.9932 143.195 95.1157 142.758 95.2925L142.596 95.3616C141.879 95.682 141.157 95.2236 141.121 94.5555C139.562 96.7443 138.822 99.7123 138.834 102.345C138.843 104.284 139.304 106.298 140.417 107.913C141.654 109.707 143.705 110.653 145.763 111.156C147.734 111.637 149.882 111.804 151.858 111.257C153.908 110.69 155.233 109.133 155.986 107.193C157.622 102.984 157.757 97.9858 153.962 94.9387ZM146.922 100.158C147.817 98.9362 149.422 98.8713 150.305 100.158C150.861 100.968 150.779 101.748 150.735 102.68L150.727 102.89C150.701 103.627 150.704 104.404 150.428 105.086C150.073 105.961 149.384 106.522 148.407 106.406C147.832 106.337 147.351 105.994 147.072 105.52L147.062 105.526C146.67 104.744 146.569 103.95 146.503 103.096L146.458 102.47C146.402 101.647 146.399 100.872 146.922 100.158Z" fill="black"/>
</svg>
