<svg width="240" height="324" viewBox="0 0 240 324" fill="none" xmlns="http://www.w3.org/2000/svg">
<path fill-rule="evenodd" clip-rule="evenodd" d="M170.479 181.122C168.644 180.468 166.876 179.712 165.265 178.601C160.62 175.142 157.592 169.938 154.731 165.007C150.7 157.835 147.829 150.193 145.844 142.221C144.991 138.796 144.701 134.824 142.764 131.788C138.371 125.429 125.49 126.253 118.65 127.369C114.07 128.18 113.123 133.308 112.083 137.102C111.217 140.255 110.65 143.443 110.174 146.674C109.041 147.419 107.763 148.024 106.544 148.551C93.2644 152.625 90.9303 160.177 85.858 171.843C77.2908 188.8 54.044 195.439 50.5325 215.506C48.2701 228.755 54.7038 241.219 61.337 252.233C67.5144 264.263 76.1386 270.037 89.8729 267.195C102.755 264.304 115.135 259.468 127.791 255.731C133.92 254.224 140.04 250.302 146.488 251.669C159.773 254.654 173.423 256.058 187.039 255.67C206.155 256.444 206.152 238.089 204.19 223.875C202.816 201.755 191.663 187.551 170.479 181.122Z" fill="white"/>
<path fill-rule="evenodd" clip-rule="evenodd" d="M171.757 213.13C173.354 214.187 174.698 215.789 175.776 217.475C171.274 217.007 166.779 216.467 162.294 215.852C162.881 215.476 163.474 215.109 164.08 214.763C166.292 213.516 169.288 211.497 171.757 213.13ZM96.95 226.445C96.125 226.122 95.8058 224.863 95.4842 224.142C94.4761 221.88 93.556 219.579 92.5987 217.295C96.2334 216.259 99.7679 215.109 103.533 214.556C107.582 213.963 111.69 213.819 115.776 213.953C124.052 214.223 132.251 215.576 140.388 217.027C148.515 218.476 156.642 219.868 164.826 220.961C172.845 222.031 180.888 222.815 188.947 223.503C190.512 223.636 193.123 224.2 194.382 222.967C195.379 221.991 195.411 220.19 194.164 219.397C193.387 218.902 192.261 218.895 191.373 218.781C190.255 218.637 189.133 218.541 188.008 218.466C187.55 218.436 187.092 218.408 186.633 218.38C190.313 216.992 194.156 216.236 198.145 216.447C198.371 217.818 199.387 219.228 199.943 220.359C200.915 222.333 201.672 224.331 202.169 226.477C203.208 230.964 203.253 235.62 202.96 240.196C202.69 244.011 202.111 248.232 199.12 250.934C196.855 252.98 193.659 253.737 190.694 253.975C187.249 254.252 183.75 253.957 180.333 253.495C175.54 252.846 170.726 251.989 166.027 250.84C156.928 248.615 148.206 245.075 140.159 240.274C136.235 237.934 132.49 235.3 128.512 233.049C124.458 230.754 120.145 228.974 115.616 227.868C110.547 226.631 105.249 226.103 100.039 226.408C99.1354 226.461 97.8293 226.789 96.95 226.445ZM91.0766 224.148C91.6092 225.877 92.0167 227.851 93.1535 229.304C94.2796 230.744 95.9784 231.252 97.7383 231.38C99.8602 231.534 102.007 231.435 104.134 231.514C108.495 231.676 112.797 232.385 116.967 233.685C120.852 234.897 124.459 236.787 127.934 238.883C131.147 240.822 134.266 242.904 137.48 244.837C136.624 245.229 135.778 245.653 134.928 246.023C133.145 246.798 131.35 247.545 129.548 248.274C125.993 249.711 122.423 251.114 118.817 252.416C111.546 255.043 104.155 257.338 96.6749 259.293C93.1075 260.226 89.4893 261.315 85.783 261.47C82.4966 261.607 79.4524 260.678 76.8018 258.723C71.3042 254.669 66.9304 248.817 63.3946 243.044C61.294 239.614 59.4608 236.011 57.9445 232.285C57.1776 230.401 56.4821 228.488 55.8561 226.552C55.5625 225.643 55.284 224.729 55.0204 223.811C54.9044 223.408 54.7932 223.003 54.6832 222.597C60.3048 220.881 65.9932 219.332 71.8151 218.472C74.9235 218.013 78.0732 217.78 81.2156 217.814C82.7754 217.831 84.3344 217.915 85.8859 218.076C86.7211 218.163 87.5528 218.274 88.381 218.412C88.7232 218.469 89.075 218.553 89.4278 218.615C89.9668 220.463 90.5101 222.309 91.0766 224.148ZM207.282 216.803C207.585 216.19 207.713 215.586 207.822 214.919C207.905 214.41 208.124 213.693 207.932 213.032C207.716 212.292 207.129 211.629 206.708 210.998C206.242 210.3 205.777 209.602 205.313 208.903C204.384 207.506 203.457 206.107 202.532 204.708C198.753 198.993 195 193.261 191.241 187.533C187.905 182.45 184.625 177.321 181.188 172.306C178.248 168.018 175.044 163.8 171.021 160.465C165.934 156.248 159.876 154.262 153.549 152.712C152.858 151.994 151.935 151.602 150.948 151.682C149.554 150.1 148.447 148.996 147.944 146.984C147.704 146.021 147.779 143.314 146.841 142.744C145.727 142.067 145.146 142.963 144.838 143.973C143.81 147.353 144.99 151.897 147.705 155.282C146.561 159.236 145.045 164.857 142.339 168.025C139.443 171.417 135.436 172.473 131.114 172.543C122.87 172.675 114.636 169.61 108.348 164.299C106.437 162.685 104.662 160.881 103.057 158.964C101.852 157.525 100.427 155.305 99.4851 153.627C99.4851 152.973 98.7132 152.289 106.571 151.761C114.429 151.232 115.025 140.469 115.199 139.004C115.341 137.815 115.945 135.968 115.107 134.998C114.752 134.586 114.022 134.52 113.571 134.8C112.721 135.328 112.442 136.679 112.174 137.596C111.8 138.88 110.576 146.854 108.257 147.777C107.171 148.209 105.926 148.217 104.778 148.297C103.36 148.396 101.938 148.469 100.526 148.634C100.005 148.695 99.4365 148.863 98.9225 148.868C98.588 148.872 98.243 148.709 97.9198 148.595C96.8288 148.209 95.7387 148.498 94.6147 148.65C84.6775 149.986 74.4456 153.035 65.9696 158.521C58.4987 163.357 53.2354 170.311 49.7624 178.442C46.2188 186.74 44.1877 195.714 42.4855 204.547C41.9153 207.507 41.4173 210.481 40.9895 213.464C40.5761 216.347 40.0589 219.295 39.9351 222.207C39.8861 223.359 40.1613 224.43 40.5849 225.482C41.062 226.667 42.1895 227.134 43.271 227.687C45.645 228.902 48.1494 229.844 50.7296 230.511C52.3059 233.38 53.6324 236.361 54.6985 239.454C54.303 240.238 54.2947 241.409 54.2187 242.171C54.03 244.068 53.9493 245.975 53.9324 247.881C53.8984 251.701 54.128 255.518 54.308 259.332C54.4906 263.2 55.0973 278.464 55.1962 280.328C55.2731 281.776 55.1696 283.801 55.932 285.087C57.1037 287.062 59.9956 286.996 61.335 285.394C94.6147 292.551 157.171 290.395 182.366 286.794C185.644 286.326 184.615 286.845 185.448 286.017C186.074 285.395 186.606 284.329 186.779 283.473C187.01 282.33 186.637 281.296 185.983 280.371C185.295 279.399 185.17 277.824 184.915 276.668C184.311 273.935 184.01 261.932 183.728 260.602C183.64 260.188 183.555 259.75 183.453 259.312C188.074 259.749 192.889 259.749 197.286 258.203C199.779 257.326 202.104 255.949 203.894 253.982C206.062 251.601 207.267 248.603 207.887 245.474C208.687 241.439 208.857 237.26 208.7 233.158C208.482 228.311 207.678 223.395 205.683 218.944C206.34 218.334 206.89 217.599 207.282 216.803Z" fill="black"/>
<path fill-rule="evenodd" clip-rule="evenodd" d="M133.581 60.2713C165.379 61.2784 167.297 76.3883 167.297 101.728C167.297 127.068 150.801 143.036 144.727 145.824C138.653 148.612 122.66 160.588 108.226 155.069C93.7932 149.55 97.9729 126.233 97.9729 116.215C97.9729 106.196 101.782 59.2642 133.581 60.2713Z" fill="white"/>
<path fill-rule="evenodd" clip-rule="evenodd" d="M146.481 137.502C140.642 140.763 133.955 140.889 127.674 138.837C123.907 137.61 120.453 135.711 117.22 133.441C114.408 131.465 111.899 129.274 109.412 126.946C107.365 122.43 105.542 117.922 104.688 113.008C103.923 108.597 103.822 104.017 104.709 99.6149C111.271 94.2149 117.793 88.7705 124.306 83.3094C127.623 80.5278 130.949 77.7615 134.314 75.0391C136.023 73.6568 137.716 72.2535 139.418 70.8649C139.699 70.6366 139.978 70.4084 140.259 70.1801C143.775 72.7544 147.544 74.9611 151.034 77.5774C152.861 78.9491 154.638 80.4095 156.33 81.9458C157.218 82.7512 158.084 83.5818 158.929 84.4336C159.702 85.2116 160.448 86.3273 161.545 86.6213C161.695 86.6612 161.836 86.6697 161.969 86.6507C163.435 99.4923 164.477 113.359 158.196 125.021C155.456 130.108 151.571 134.657 146.481 137.502ZM108.493 142.221C107.689 141.484 108.887 140.292 109.688 141.025C114.718 145.634 121.293 148.077 127.934 149.208C129.006 149.391 128.549 151.02 127.485 150.838C120.551 149.658 113.736 147.025 108.493 142.221ZM102.458 149.292C101.498 148.777 102.353 147.318 103.311 147.832C107.23 149.935 111.527 151.027 115.887 151.764C116.959 151.946 116.502 153.575 115.438 153.395C110.93 152.632 106.507 151.465 102.458 149.292ZM118.405 78.0617C121.657 75.1427 125.151 72.3653 128.842 70.0217C132.577 67.6503 136.657 66.2322 141.066 66.1984C140.758 66.4456 140.464 66.7204 140.166 66.9759C139.334 67.6884 138.503 68.4049 137.673 69.1192C136.012 70.5501 134.348 71.9786 132.708 73.4329C129.48 76.2988 126.241 79.1499 123.02 82.0222C116.827 87.5426 110.768 93.1833 104.84 98.9872C104.872 98.8456 104.906 98.704 104.939 98.5626C106.902 90.362 112.241 83.5967 118.405 78.0617ZM143.893 66.5555C143.914 66.4921 143.929 66.4306 143.937 66.3716C152.399 67.4749 159.466 73.7031 161.802 81.9037C161.599 82.187 161.487 82.523 161.529 82.88C161.551 83.0598 161.572 83.2416 161.593 83.4212C161.303 83.134 161.005 82.8654 160.752 82.6097C159.909 81.7558 159.045 80.925 158.158 80.1155C156.343 78.4608 154.458 76.9138 152.472 75.4702C149.018 72.9594 145.279 70.6515 141.161 69.4468C141.432 69.2248 141.702 69.0029 141.975 68.7831C142.788 68.1214 143.542 67.5763 143.893 66.5555ZM159.062 57.7866C153.867 52.1076 146.673 47.9483 139.098 46.5026C131.864 45.1204 124.374 46.0313 117.54 48.7176C103.239 54.3395 91.9551 66.7016 86.6713 81.0267C83.591 89.3729 82.5811 98.5223 83.5067 107.357C84.4276 116.151 87.0748 125.233 91.8917 132.715C92.3332 133.399 92.817 134.057 93.3241 134.693C93.098 137.275 92.2361 139.807 90.8797 142.01C90.8068 142.128 90.7299 142.243 90.6539 142.359C89.265 143.4 87.8244 144.376 86.418 145.384C85.1992 146.258 83.9928 147.154 82.8467 148.121C81.7648 149.034 80.5084 150.051 79.7759 151.284C79.1757 152.293 78.9306 153.666 79.7499 154.629C80.7372 155.789 82.41 155.38 83.7473 155.38C83.8618 155.38 83.9761 155.382 84.0904 155.384C84.492 155.636 84.9057 155.865 85.3065 156.077C89.3565 158.224 93.4213 160.349 97.4903 162.462C105.595 166.674 113.665 171.056 121.936 174.934C125.769 176.732 129.871 178.305 134.164 178.299C138.191 178.292 141.831 176.692 144.975 174.26C148.558 171.489 151.554 167.97 154.461 164.521C155.623 163.14 156.761 161.743 157.879 160.327C160.025 159.611 162.155 159.402 164.069 160.784C165.605 161.894 167.629 160.384 167.665 158.719C167.678 158.127 167.652 157.544 167.589 156.969C167.205 153.418 165.468 150.206 163.511 147.226C162.443 145.596 161.317 143.996 160.184 142.411C159.918 142.037 159.656 141.663 159.402 141.282C163.951 134.583 167.559 127.154 169.778 119.391C172.108 111.222 172.9 102.751 172.381 94.2868C171.582 81.3141 168.024 67.5848 159.062 57.7866Z" fill="black"/>
<path fill-rule="evenodd" clip-rule="evenodd" d="M143.152 128.274C141.732 127.695 140.465 126.728 139.538 125.493C139.216 125.063 139.133 124.61 139.2 124.195C139.276 123.729 139.552 123.306 139.928 123.023C140.305 122.739 140.777 122.598 141.233 122.67C141.63 122.732 142.024 122.949 142.337 123.399L142.402 123.489C142.953 124.235 143.67 124.846 144.488 125.241C145.276 125.621 146.158 125.798 147.07 125.695C148.807 125.499 150.005 124.559 151.278 123.282C151.436 123.121 151.593 122.955 151.752 122.786C151.852 122.633 151.991 122.534 152.146 122.483C152.317 122.425 152.511 122.429 152.689 122.491C152.86 122.55 153.013 122.664 153.116 122.815C153.213 122.958 153.269 123.135 153.251 123.339C153.134 124.661 152.443 125.842 151.461 126.769C150.37 127.799 148.924 128.511 147.563 128.761C146.064 129.036 144.536 128.839 143.152 128.274ZM148.271 107.866C149.866 108.836 152.297 111.098 150.581 113.503C148.56 115.624 145.652 113.193 144.218 112.093C142.889 111.241 141.396 113.433 142.629 114.428C152.986 122.099 157.19 108.12 149.077 106.726C148.184 106.572 147.853 107.566 148.271 107.866ZM129.711 98.9429C129.887 96.7541 133.219 96.257 133.551 98.423C133.847 100.363 133.498 102.145 132.624 103.892C131.79 105.561 129.692 104.783 129.533 103.263C129.32 101.226 129.601 100.304 129.711 98.9429ZM155.076 97.9738C155.541 97.3652 156.211 96.9496 157.015 97.1845C159.526 97.9185 158.786 101.485 157.904 103.22C157.425 104.163 155.876 104.402 155.176 103.572C154.035 102.219 153.489 99.5156 154.939 98.1825C154.979 98.1136 155.022 98.044 155.076 97.9738ZM132.589 89.3654L132.986 89.2959C134.213 89.0836 135.738 88.8796 136.606 89.8665C137.067 90.3898 137.225 91.3624 136.606 91.8633C135.518 92.7446 134.314 92.4031 133.01 92.4777C131.935 92.5394 130.902 92.7174 129.867 93.0135C127.595 93.663 125.744 94.8486 123.804 96.1506C123.549 96.3213 123.29 95.9956 123.411 95.7574C124.531 93.563 126.701 91.7604 128.875 90.6616C130.036 90.0751 131.305 89.5885 132.589 89.3654ZM152.787 88.3823L153.091 88.4445C156.394 89.1353 160.687 90.5153 162.251 93.7615C162.311 94.2205 162.248 94.3189 162.196 94.3832L162.179 94.4046C162.137 94.4595 162.104 94.5351 161.905 94.5976C161.849 94.5844 161.794 94.5705 161.737 94.5557C161.02 94.3677 160.453 94.1087 159.904 93.84L159.308 93.5465C158.617 93.2076 157.92 92.881 157.181 92.6399C155.605 92.1254 153.983 91.7631 152.337 91.5696C151.98 91.5277 151.636 91.4072 151.365 91.2006C151.107 91.0046 150.911 90.7332 150.821 90.3724C150.705 89.9056 150.738 89.5521 150.989 89.1309C151.177 88.8146 151.446 88.5953 151.756 88.4694C152.071 88.3411 152.43 88.3108 152.787 88.3823Z" fill="black"/>
<path fill-rule="evenodd" clip-rule="evenodd" d="M167.178 109.153C164.613 111.805 160.331 112.566 156.919 111.144C148.156 107.481 152.445 96.0578 159.203 92.99C160.047 92.7795 161.175 92.2801 162.203 92.1668C162.296 92.1212 162.498 92.2532 162.744 92.1283C170.195 92.9606 171.892 104.532 167.178 109.153ZM138.915 109.832C136.039 113.649 130.69 114.827 126.32 113.052C117.688 109.651 120.749 99.5216 126.656 95.5503C139.133 90.8602 144.285 102.794 138.915 109.832ZM120.201 101.374C120.193 101.37 120.185 101.369 120.177 101.365C120.223 101.345 120.268 101.325 120.314 101.304C120.299 101.343 120.283 101.381 120.269 101.42C120.246 101.404 120.226 101.386 120.201 101.374ZM173.118 97.2481C172.413 97.2496 171.396 97.3654 170.813 97.8542C169.375 93.0031 164.067 88.5134 159.451 91.7872C155.817 92.9566 153.119 95.5501 151.586 98.9981C148.822 97.3533 144.476 98.0557 142.079 100.231C140.51 95.0418 136.646 93.2248 132.048 92.9566C127.029 92.1342 122.027 97.0103 120.466 100.922C119.168 100.774 117.229 100.361 116.008 101.162C108.084 99.0834 94.2302 97.9373 92.6193 99.0923C91.4712 99.533 90.8412 102.244 92.4448 102.39C93.8421 102.192 92.2817 100.404 93.6902 100.209C101.195 99.7433 108.481 101.255 115.906 101.89C116.569 102.782 118.711 103.08 119.854 102.722C118.054 109.357 121.939 113.872 127.761 115.224C136.775 117.296 144.617 109.229 142.26 100.838C144.991 99.4791 148.132 99.5374 151.106 100.253C146.136 118.554 175.598 117.733 170.997 98.4813C174.059 100.005 174.724 97.5556 173.118 97.2481Z" fill="black"/>
</svg>
