<svg width="240" height="324" viewBox="0 0 240 324" fill="none" xmlns="http://www.w3.org/2000/svg">
<path fill-rule="evenodd" clip-rule="evenodd" d="M43.0084 273.246C42.7209 273.255 42.8115 273.171 42.9172 273.151C42.9476 273.183 42.978 273.215 43.0084 273.246ZM51.4983 279.56C59.5322 280.512 67.576 279.641 75.5704 278.767C91.7661 277.566 107.848 281.065 124.076 279.998C144.356 279.143 164.691 277.538 184.903 280.243C190.494 280.372 199.411 281.881 197.384 273.223C194.721 250.964 191.16 228.817 187.346 206.729C184.113 194.346 183.879 172.928 175.028 164.317C173.734 163.135 169.092 159.311 167.865 158.798C161.763 156.525 150.764 154.752 146.226 149.935C142.551 143.713 144.261 135.223 138.545 130.214C133.536 126.123 122.603 126.988 117.248 130.06C113.022 132.801 112.36 138.124 109.727 142.061C109.078 143.004 107.535 145.278 106.664 146.012C104.544 148.054 97.0965 150.199 94.9458 150.594C82.8091 153.082 76.7575 154.619 67.2118 162.687C42.2699 188.16 45.8055 233.214 38.904 266.524C38.6216 270.186 36.3963 275.155 40.3664 277.512C43.7858 279.151 47.8062 278.973 51.4983 279.56Z" fill="white"/>
<path fill-rule="evenodd" clip-rule="evenodd" d="M143.444 141.467C143.474 141.38 143.613 141.365 143.634 141.467C143.974 143.024 144.612 144.732 145.259 146.192C145.916 147.672 146.814 149.031 147.948 150.185C150.325 152.603 153.382 153.706 156.735 153.708L156.815 153.71C156.83 153.598 156.848 153.485 156.864 153.372L156.887 153.203C157.193 150.887 159.942 150.954 160.478 152.702C160.751 152.789 161.023 152.875 161.294 152.966L161.348 152.986C161.803 153.159 163.345 153.927 163.628 153.723C164.252 153.275 164.964 153.788 165.2 154.361C165.587 155.299 165.652 156.458 165.777 157.475L165.794 157.607L165.813 157.766C174.633 160.059 179.583 168.887 182.11 177.02C183.479 181.429 184.375 185.977 185.275 190.5C186.238 195.338 187.126 200.188 188.066 205.028C189.919 214.566 191.672 224.126 193.195 233.721L193.637 236.508C195.032 245.331 196.392 254.149 197.535 263.012C198.152 267.791 198.73 272.574 199.288 277.361C199.388 278.214 199.487 279.068 199.585 279.923L199.732 281.205C199.863 282.355 200.085 283.492 199.516 284.568C198.285 286.901 194.554 286.884 194.342 283.896C194.3 283.302 194.501 282.847 194.833 282.53L194.828 282.48C194.825 282.45 194.821 282.428 194.82 282.418C194.71 281.824 194.68 281.197 194.613 280.596C194.465 279.316 194.321 278.035 194.176 276.752C193.895 274.309 193.611 271.866 193.318 269.425C192.724 264.473 192.097 259.527 191.431 254.586L190.772 249.7C188.566 233.414 186.267 217.131 183.242 200.974C182.419 196.576 181.572 192.184 180.703 187.795C179.879 183.637 178.954 179.499 177.572 175.486C175.316 168.93 171.371 162.79 165.895 158.487C165.98 159.309 166.041 160.135 166.119 160.957C166.32 163.069 166.533 165.178 166.749 167.287C167.533 174.93 168.595 182.56 170.408 190.033C171.306 193.736 172.4 197.39 173.733 200.96C174.39 202.718 175.107 204.453 175.892 206.157C176.67 207.841 178.033 209.642 178.115 211.519C178.153 212.387 177.245 213.159 176.404 213.066C176.797 216.524 177.019 220.017 177.253 223.466C177.595 228.462 177.868 233.467 178.267 238.46C178.981 247.402 179.877 256.331 180.815 265.252C181.001 267.021 181.203 268.788 181.403 270.555L181.57 272.039C181.683 273.001 181.854 274.153 181.343 275.006C181.8 276.107 182.112 277.238 182.294 278.417C182.524 279.884 181.686 281.529 179.974 281.465C179.78 281.459 179.585 281.442 179.391 281.421C177.804 281.788 176.222 282.112 174.574 282.122C172.47 282.137 170.361 282.095 168.257 282.08C164.186 282.053 160.115 282.025 156.044 281.991C141.306 281.873 126.561 281.879 111.826 281.643L105.93 281.549C100.525 281.462 95.1188 281.362 89.7164 281.165C85.996 281.03 82.2758 280.892 78.5572 280.742L77.8002 280.713C74.5192 280.594 71.2344 280.532 67.9896 280.03C67.9083 280.016 67.8731 279.932 67.8857 279.858L67.8903 279.838L67.7488 279.806C67.6664 280.161 65.9551 278.669 65.9678 277.678C65.2579 276.754 65.5896 275.279 65.6657 274.209C65.7396 273.168 65.8326 272.123 65.915 271.081C66.0903 268.856 66.2403 266.628 66.4199 264.403C67.1446 255.429 67.7699 246.432 68.1756 237.439C68.3805 232.905 68.5453 228.37 68.7185 223.836C68.7965 221.772 68.9051 219.706 69.1075 217.652L69.1601 217.138C69.3819 215.055 69.3608 212.814 70.1277 210.851C70.1382 210.823 70.1741 210.823 70.1847 210.851C70.9601 212.761 71.034 214.983 71.1903 217.079C71.2178 217.071 71.2453 217.067 71.2748 217.06C72.346 216.551 73.4277 216.092 74.4417 215.463C74.5791 215.378 74.7122 215.289 74.8474 215.203C76.4425 210.32 78.291 205.519 79.9917 200.668C85.4868 184.984 88.5206 168.281 89.1925 151.673C85.0009 154.376 80.4359 156.479 75.9982 158.737L75.5826 158.95C71.2115 161.186 67.0263 163.724 63.9143 167.602C61.2016 170.98 59.4291 175.095 57.7706 179.062C55.9896 183.325 54.384 187.664 52.9157 192.043C49.9368 200.928 47.6298 210.031 45.8298 219.227C44.053 228.302 42.7833 237.445 41.934 246.652C41.5009 251.348 41.1058 256.048 40.7741 260.755C40.6051 263.137 40.4551 265.521 40.3157 267.907C40.2481 269.065 40.1974 270.226 40.1213 271.384C40.0748 272.052 40.0664 272.74 39.8467 273.374C39.6629 273.903 39.3375 274.345 39.0333 274.812C38.4777 275.664 37.0748 275.818 36.553 274.812L36.3271 274.376C36.028 273.796 35.7548 273.211 35.7143 272.542C35.6763 271.908 35.7544 271.246 35.7903 270.61C35.8601 269.323 35.9403 268.034 36.0206 266.747C36.1896 264.039 36.3777 261.332 36.5889 258.627C37.0094 253.208 37.5502 247.803 38.2305 242.41C40.6241 223.466 44.0805 204.622 50.6763 186.645C52.3072 182.2 54.1263 177.791 56.1798 173.524C58.1657 169.399 60.6777 165.504 64.3241 162.663C67.6808 160.048 71.5826 158.297 75.4594 156.598L75.9439 156.386C80.2896 154.486 84.627 152.44 89.165 151.028C89.0636 151.041 88.9643 151.054 88.8779 151.083C88.7784 151.115 88.7194 150.986 88.7807 150.916C89.0382 150.631 89.146 150.337 89.442 150.056C89.6463 149.862 89.8589 149.678 90.0776 149.501L90.3922 149.25C90.968 148.793 91.5733 148.326 92.2981 148.167C93.3229 147.942 93.8258 148.875 93.5382 149.604C93.6861 149.411 94.0833 149.468 94.1868 149.733C97.5587 158.432 99.7727 167.64 104.311 175.86C107.661 181.932 112.157 187.539 118.123 191.206C121.328 193.176 124.996 194.689 128.784 194.928C132.185 195.141 135.458 194.277 138.35 192.491C143.957 189.031 147.619 182.957 150.23 177.071C153.101 170.591 155.15 163.686 156.354 156.686C152.539 156.739 148.512 154.997 145.975 152.159C144.64 150.665 143.645 148.845 143.14 146.905C142.63 144.948 142.793 143.339 143.444 141.467ZM111.435 136.384C111.9 135.553 112.93 135.278 113.773 135.616C114.709 135.993 114.99 136.902 114.857 137.825C114.703 138.907 114.008 140.076 113.467 141.021C112.901 142.01 112.172 142.921 111.418 143.772C109.998 145.379 108.479 146.827 106.677 148.01C104.883 149.187 102.855 150.069 100.77 150.561L100.274 150.677C98.6523 151.048 96.3447 151.473 94.9937 150.591C94.9284 150.548 94.9303 150.462 94.9937 150.419C95.7246 149.91 96.703 149.819 97.5437 149.579C98.4606 149.314 99.3798 149.014 100.256 148.638C101.987 147.894 103.643 146.913 105.118 145.742C106.599 144.567 108.031 143.166 109.022 141.549C109.521 140.738 109.945 139.886 110.353 139.028C110.765 138.167 110.972 137.212 111.435 136.384Z" fill="black"/>
<path fill-rule="evenodd" clip-rule="evenodd" d="M164.897 96.1525C163.447 78.4678 159.032 62.8046 138.284 62.1367C128.921 62.2204 119.363 64.2103 110.753 67.892C89.8262 78.3889 83.1862 116.745 101.624 132.185C101.514 132.247 101.488 132.428 101.617 132.515C105.426 135.078 109.66 137.188 113.901 138.96C125.197 143.737 138.494 145.812 150.014 140.63C167.594 133.147 167.858 112.324 164.897 96.1525Z" fill="white"/>
<path fill-rule="evenodd" clip-rule="evenodd" d="M199.501 87.9097C200.224 87.2587 200.762 86.4048 201.035 85.4474C201.284 84.5745 201.301 83.6214 201.037 82.7506C200.754 81.8164 200.143 81.0725 200.281 80.1003C200.296 80.0051 200.315 79.9058 200.344 79.8065C200.872 77.9762 202.172 76.6552 201.707 74.6263C201.576 74.0535 201.329 73.5378 200.984 73.132C201.022 72.6924 201.056 72.2486 201.084 71.8048C201.846 70.0189 201.819 67.8969 201.005 66.1385C200.906 65.2381 200.756 64.3462 200.545 63.4691C200.642 62.6934 200.507 61.8396 200.258 61.1612C199.82 59.9674 199.278 58.7911 198.691 57.6341C198.76 57.3177 198.729 56.9834 198.555 56.686C198.237 56.1456 197.818 55.6705 197.389 55.2062C197.086 54.6645 196.781 54.1272 196.478 53.5969C196.338 53.3532 196.183 53.0829 196.012 52.7965C196.477 51.933 196.726 51.0914 196.234 50.0758C196.049 49.6943 195.541 49.413 195.122 49.438C194.665 49.4652 194.203 49.4857 193.739 49.5033C192.871 48.4554 191.888 47.5147 190.835 46.9732C189.768 46.0686 188.686 45.181 187.634 44.2743C187.336 44.0164 187.036 43.7586 186.739 43.5007C186.736 43.4944 186.734 43.4859 186.732 43.4796C186.512 42.6786 186.265 41.8881 186.018 41.0934C185.864 40.601 185.817 40.0853 185.338 39.8169C184.336 39.2568 182.796 39.168 181.647 39.0729C181.533 38.9715 181.419 38.8722 181.305 38.7707C181.827 37.38 181.734 35.9027 181.077 34.5099C180.853 34.0365 180.075 33.823 179.648 34.1358C178.664 34.8586 177.496 35.1143 176.34 35.0087C174.641 33.7025 167.79 27.7961 166.731 27.1726C166.718 27.1502 166.708 27.1278 166.694 27.1056C166.099 26.155 165.376 25.3916 164.563 24.7795C164.447 24.6584 164.331 24.5371 164.215 24.4158C164.317 23.6911 164.586 22.9913 165.018 22.4058C165.065 22.3382 165.117 22.2727 165.17 22.2093C165.927 21.3089 165.003 20.1507 163.947 20.6221C163.871 20.6559 163.795 20.6897 163.719 20.7256C162.907 21.0879 162.008 21.4816 161.072 21.8139C160.73 21.6856 160.381 21.5693 160.063 21.4412L156.654 20.0702C156.092 19.8445 155.499 19.6532 154.956 19.388C154.767 18.1285 153.505 17.3026 152.195 17.3457C152.271 17.1039 152.384 16.8691 152.543 16.6466C152.589 16.581 152.64 16.5176 152.693 16.4563C153.367 15.6722 152.467 14.2181 151.503 14.9156C151.436 14.9642 151.366 15.0128 151.298 15.0614C151.031 15.2493 150.757 15.4256 150.48 15.5964C150.036 15.4028 149.537 15.3586 149.014 15.5634C147.857 16.0167 146.79 16.4777 145.771 17.1882C145.73 17.2172 145.687 17.2415 145.645 17.2688C145.139 16.6575 144.336 16.2488 143.613 16.2532C143.598 16.2532 143.587 16.253 143.574 16.2528C143.033 15.4288 142.042 14.9498 141.085 15.0663C141.15 13.8838 139.966 12.8285 138.889 12.7002C137.63 12.5506 136.496 13.2816 136.118 14.51C136.013 14.852 135.908 15.1942 135.803 15.5363C134.825 15.0428 133.794 14.6647 132.716 14.476C130.263 14.0461 127.864 14.5039 125.5 15.1853C125.263 15.2533 125.027 15.3233 124.791 15.393C124.454 15.0022 124.138 14.6022 123.836 14.2287C123.314 13.5841 122.061 14.0998 122.146 14.9283C122.204 15.5 121.972 15.9113 121.598 16.2036C121.188 16.2636 120.791 16.2818 120.193 16.2697C119.402 16.2537 119.042 16.2289 118.215 15.9064C117.83 15.7563 117.35 15.3618 117.126 15.0075C116.265 13.6492 114.078 13.2833 113.036 14.5785C111.94 14.0985 110.556 14.7605 109.948 15.6938C109.63 16.1818 108.965 16.4546 108.129 16.6892C107.502 16.8651 106.86 16.9982 106.215 17.1147C105.928 16.7248 105.323 16.4633 104.879 16.7903C104.578 17.0124 104.286 17.2404 103.998 17.4742C101.778 17.7802 99.5689 17.7912 97.4518 16.9251C95.6594 16.1917 94.0136 18.1947 94.3094 19.8762C93.7903 20.1465 93.2271 20.3264 92.7143 20.6096C91.5956 21.228 90.6771 22.2055 90.1172 23.354C90.0168 23.5596 89.9262 23.7684 89.8398 23.9783C89.4217 24.3188 89.0082 24.6684 88.6047 25.0372C87.9329 24.6927 87.2632 24.3482 86.5913 24.0037C86.0885 23.7458 85.2413 23.9255 85.142 24.5933C84.9794 25.6923 84.5843 26.6033 84.0202 27.3662C82.1864 28.33 80.4223 29.4121 78.7343 30.6147C76.7928 31.2234 74.7287 31.5785 73.0322 31.9779C72.4512 32.1153 72.1343 32.874 72.4618 33.3792C72.8082 33.9139 73.1547 34.4486 73.4991 34.9833C72.5336 35.9259 71.6273 36.9108 70.7716 37.9295C68.3906 40.7616 66.3984 43.8664 64.6153 47.155C63.9097 47.4403 63.204 47.7235 62.4984 48.0088C61.8181 48.2836 61.5118 49.074 62.0632 49.6552C62.3251 49.9321 62.5597 50.2238 62.7604 50.5302C61.7611 52.1851 60.5843 53.6941 58.9385 54.6833C58.4378 54.9834 58.0618 55.4547 57.8611 55.9894C57.6899 56.1035 57.5209 56.2261 57.354 56.3508C56.8892 56.7017 56.6082 57.4668 57.1533 57.9212C57.5357 58.2424 57.8949 58.6228 58.1991 59.0434C58.2646 59.2822 58.3322 59.5232 58.3998 59.762C56.8702 61.1696 55.5984 62.8055 54.6435 64.64C54.4174 64.6041 54.185 64.6273 53.997 64.7668C52.2899 66.0286 52.2392 68.0385 52.9259 69.835C52.5118 72.5424 52.778 75.3174 53.5766 77.9403C52.5266 78.9886 51.8949 80.5018 51.6371 81.9601C51.1829 84.5217 51.1512 88.4613 51.0329 91.0757C49.8878 92.181 49.0723 93.6119 48.6181 95.1505C48.2357 95.3407 47.8533 95.5309 47.4709 95.7212C47.1308 95.8902 46.8815 96.3362 46.9026 96.7124C46.9998 98.5321 47.7498 99.9693 48.7449 101.271C49.0977 102.275 49.6195 103.201 50.304 104.089C50.7773 104.697 51.2399 105.281 51.6477 105.938C51.6899 106.003 51.7153 106.065 51.7343 106.107C51.5737 106.28 51.4406 106.568 51.3244 106.773C50.3484 108.493 50.3336 110.509 51.7195 112.008C51.1977 112.435 51.1808 113.297 51.6413 113.825C54.6392 117.251 57.1385 121.417 61.2984 123.237C61.3174 123.269 61.3343 123.3 61.3491 123.332C60.5061 125.361 60.3921 126.416 61.0808 128.512C61.085 128.531 61.0913 128.548 61.0977 128.567C61.4653 129.666 62.1413 131.427 63.3604 131.769C63.7449 131.877 64.123 131.925 64.497 131.923C65.4646 132.855 66.4301 133.79 67.3956 134.724C67.4801 135.187 67.5329 135.654 67.5498 136.125C67.5773 136.913 68.3188 137.552 69.1174 137.319C69.3984 137.237 70.9533 135.726 71.2385 135.734C71.3822 135.878 71.5216 136.021 71.6611 136.167C72.1744 136.706 72.8864 137.556 72.9456 138.12C73.0597 139.183 73.7568 140.401 74.8829 140.616C75.3054 141.045 75.9815 141.174 76.4991 140.614C76.5329 140.578 76.5667 140.542 76.6026 140.511C76.6575 140.504 76.7104 140.498 76.7653 140.491C77.0146 141.235 77.2639 141.979 77.5153 142.721C78.0075 144.184 79.8878 145.124 81.223 144.27C81.4385 144.399 81.6498 144.537 81.8611 144.674C82.1822 144.879 82.5075 145.088 82.8413 145.285C82.8604 145.34 82.8794 145.395 82.8963 145.448C83.1118 146.105 84.0075 146.458 84.559 146.08C84.7301 146.135 84.9054 146.179 85.0829 146.215C86.0146 146.399 86.9526 146.348 87.8526 146.037C88.497 145.818 89.1118 145.397 89.8047 145.34C89.848 145.336 89.8926 145.339 89.9366 145.338C90.5019 146.497 91.7938 147.495 92.8119 147.834C94.1454 148.279 95.5102 148.12 96.7246 147.576C97.0523 148.231 97.4638 148.851 97.9554 149.425C98.228 149.742 98.7202 149.675 99.0012 149.425C99.5349 148.952 100.065 148.477 100.595 148C100.978 147.853 101.365 147.675 101.768 147.51C103.03 146.995 104.414 146.781 105.581 146.036C106.135 145.682 106.656 145.231 107.086 144.708C107.895 144.24 108.638 143.659 109.307 142.992C109.641 142.994 109.989 142.916 110.327 142.744C111.741 142.026 112.484 140.563 112.55 139.067C113.695 136.372 114.371 133.498 114.557 130.556C114.616 129.59 114.627 128.616 114.553 127.65C114.502 126.969 114.331 126.515 114.073 125.9C113.986 125.699 113.908 125.515 113.847 125.312C113.862 124.661 113.87 124.01 113.879 123.362C114.054 122.814 114.367 122.305 114.802 121.876C115.476 121.212 115.784 119.834 115.172 119.014C114.772 118.484 114.375 117.953 113.976 117.423C114.088 115.146 114.633 111.524 113.424 111.143C113.473 110.805 113.577 110.471 113.636 110.135C113.919 108.521 113.75 107.077 112.892 105.665C112.712 105.371 112.56 105.111 112.436 104.858C112.358 104.393 112.279 103.928 112.201 103.463C112.081 102.746 111.962 102.024 111.861 101.297C111.808 100.371 111.76 99.4452 111.707 98.5173C111.658 97.6635 111.603 96.8096 111.546 95.9536C111.57 95.5711 111.603 95.1886 111.652 94.806C111.941 92.5255 112.873 91.6823 114.487 90.0971C114.741 90.057 114.992 90.0126 115.239 89.9619C116.391 89.723 117.595 89.3532 118.78 89.4863C120.067 89.63 121.218 90.1859 122.469 89.4758C122.836 89.2644 123.646 88.6811 123.715 88.2182C123.72 88.1886 123.726 88.1633 123.734 88.1443C123.821 88.1316 123.933 88.121 124.003 88.1189C124.996 88.0851 125.944 88.4761 126.946 88.3683C128.131 88.2415 129.191 87.7152 129.889 86.9353C130.782 87.1551 131.695 87.2545 132.622 87.1319C133.4 87.0304 134.097 86.7768 134.786 86.4006C135.286 86.1301 135.128 86.0519 135.673 86.2717C136.913 86.7747 138.035 87.4383 139.431 87.0938C140.156 86.9163 140.781 86.5253 141.308 85.999C141.432 85.8765 141.643 85.6926 141.785 85.5193C142.448 85.8553 144.117 86.6141 144.392 86.6817C145.17 86.8719 145.993 86.8423 146.75 86.5887C147.305 86.4027 147.986 85.8955 148.474 85.7919C149.105 85.6567 150.508 86.5359 151.262 86.8381C152.585 87.3686 153.986 87.4996 155.325 86.9522C155.786 86.7641 156.681 86.0138 157.026 86.0202C157.586 86.7113 159.149 90.4924 159.618 91.8725C161.517 97.4521 162.01 114.874 161.133 119.318C161.099 119.449 161.063 119.578 161.027 119.709C159.95 123.575 158.828 127.506 157.026 131.108C155.325 134.502 152.974 137.558 149.6 139.411C146.101 141.335 141.994 141.84 138.06 141.58C135.527 141.415 133.036 140.906 130.586 140.267C129.305 139.936 128.036 139.566 126.772 139.181C126.221 139.014 125.661 138.858 125.12 138.663C124.165 138.319 123.665 138.291 122.75 138.733C121.917 139.135 121.704 140.32 122.137 141.066C122.843 142.284 124.136 142.368 125.384 142.723C126.656 143.085 127.932 143.431 129.217 143.742C131.678 144.334 134.179 144.788 136.702 144.997C141.219 145.376 145.873 144.792 149.984 142.821C150.449 142.597 150.897 142.358 151.33 142.1C151.17 142.324 151.007 142.548 150.842 142.77C150.386 143.385 150.724 144.431 151.364 144.767C151.567 144.873 151.77 144.974 151.974 145.074C152.002 145.139 152.031 145.205 152.065 145.27C152.65 146.445 153.876 147.138 155.124 147.439C156.608 147.794 158.268 147.542 159.777 147.498C161.175 147.455 162.574 147.413 163.97 147.371C164.3 147.363 164.629 147.352 164.959 147.341C166.62 147.291 168.278 147.242 169.936 147.191C171.415 147.147 171.346 147.261 172.734 146.669C173.353 146.403 173.86 146.027 174.286 145.526C174.553 145.408 174.81 145.272 175.058 145.118C175.852 144.623 176.558 143.96 177.208 143.228C178.313 143.577 179.862 143.254 180.077 141.865C180.424 139.644 183.31 138.695 184.658 137.089C185.746 135.793 186.523 134.096 186.483 132.467C189.225 131.139 190.717 127.641 191.065 124.674C191.228 123.298 191.203 121.825 191.437 120.426C191.541 120.314 191.634 120.196 191.712 120.069C192.4 118.955 193 117.807 193.529 116.632C194.247 116.114 195.111 115.795 196.015 115.742C198.238 115.613 198.656 112.614 196.537 111.892C196.527 111.887 196.518 111.885 196.508 111.881C197.082 110.444 197.034 108.742 196.336 107.381C196.366 107.233 196.393 107.088 196.421 106.94C197.61 105.661 198.293 103.884 198.217 102.153C198.76 101.77 199.368 101.474 200.034 101.29C201.062 101.007 201.069 99.7516 200.308 99.1894C200.002 98.9633 199.748 98.6991 199.537 98.4074C200.063 96.8265 199.856 94.9983 198.781 93.7007C199.463 92.8257 200.146 91.9507 200.828 91.0757C201.28 90.4966 201.519 89.5138 200.828 88.9643C200.386 88.6113 199.945 88.2605 199.501 87.9097Z" fill="black"/>
<path fill-rule="evenodd" clip-rule="evenodd" d="M150.685 125.112L150.831 125.078C151.999 124.803 153.122 124.428 154.209 125.152C155.245 125.841 155.388 127.116 154.581 128.046C153.752 129.002 152.65 128.949 151.487 128.962L151.414 128.963C150.449 128.976 149.467 128.962 148.505 128.876C147.608 128.796 146.706 128.668 145.819 128.501L145.295 128.398C144.759 128.29 144.232 128.149 143.956 127.63C143.475 126.726 147.052 126.017 147.486 125.893C148.541 125.592 149.616 125.354 150.685 125.112ZM152.67 114.213C152.099 114.804 151.346 115.208 150.501 115.46C148.376 116.092 145.664 115.755 143.929 115.111C143.569 114.977 143.232 114.705 143.039 114.365C142.862 114.053 142.802 113.688 142.937 113.315C142.975 113.209 143.022 113.104 143.068 113.002C143.196 112.723 143.455 112.506 143.76 112.382C144.077 112.253 144.436 112.227 144.725 112.318C144.764 112.33 144.804 112.343 144.844 112.356C145.944 112.702 147.748 113.277 149.242 113.165C150.139 113.099 150.927 112.782 151.335 111.961C151.55 111.528 151.491 111.1 151.3 110.708C151.012 110.117 150.437 109.603 149.952 109.249C149.268 108.749 148.538 108.55 147.784 108.339C147.5 108.26 147.212 108.179 146.921 108.083C146.825 108.051 146.741 107.989 146.679 107.909C146.617 107.829 146.576 107.731 146.563 107.634C146.55 107.532 146.566 107.431 146.613 107.344C146.657 107.264 146.726 107.193 146.83 107.146C148.306 106.485 150.215 106.922 151.656 107.963C152.376 108.483 152.976 109.151 153.347 109.898C153.69 110.59 153.836 111.351 153.702 112.126C153.551 112.994 153.184 113.679 152.67 114.213ZM128.48 99.452C128.895 99.2691 129.235 100.125 129.321 100.358L129.497 100.842C129.785 101.623 130.116 102.416 130.721 102.996C131.228 103.481 132.04 103.892 132.628 103.324C133.186 102.786 132.914 102.18 132.996 101.519C133.145 100.325 134.773 99.1307 135.752 100.377C137.963 103.194 134.542 107.11 131.39 106.423C129.787 106.074 128.497 104.788 127.967 103.259L127.94 103.178C127.622 102.21 127.301 99.9721 128.48 99.452ZM157.018 101.413L157.003 101.378C155.95 98.9808 159.707 97.9507 160.026 100.103L160.046 100.248C160.356 102.637 159.703 105.85 156.778 106.088C153.494 106.356 152.127 102.691 152.42 100.001C152.473 99.52 153.057 99.4534 153.237 99.8909L153.276 99.9864C153.806 101.338 154.309 103.937 156.177 103.935C157.425 103.933 157.366 102.247 157.018 101.413ZM159.401 94.4748C161.288 94.4078 161.286 97.3629 159.401 97.4072C153.105 97.5554 146.804 97.7524 140.505 97.7862L139.361 97.7932C133.445 97.8329 127.509 97.9137 121.61 97.417C121.107 97.3747 121.2 96.6675 121.621 96.696C127.805 95.8156 134.064 95.5581 140.295 95.2236C146.658 94.8818 153.033 94.7009 159.401 94.4748Z" fill="black"/>
<path fill-rule="evenodd" clip-rule="evenodd" d="M170.723 102.353C168.709 115.983 154.648 117.49 152.15 103.959C152.551 103.784 152.839 103.438 152.779 102.767C152.765 99.818 153.68 96.7014 156.339 95.0616C159.087 93.3695 162.302 93.2017 165.482 93.2444C171.55 93.0998 171.423 98.1737 170.723 102.353ZM149.949 96.4256C148.044 96.3453 145.635 96.4125 143.929 97.5732C143.46 96.3098 142.242 94.9607 141.01 94.2394C145.587 94.3734 150.298 93.9228 154.908 93.573C153.805 94.3256 152.778 95.4564 152.11 96.7636C151.491 96.4332 150.604 96.4641 149.949 96.4256ZM141.555 103.798C136.274 121.982 123.093 114.056 121.656 111.726C119.064 107.87 118.576 98.4956 120.834 95.9892C124.066 93.7227 128.641 94.306 132.459 94.2504C139.474 94.3451 144.455 96.4442 141.555 103.798ZM176.958 95.435C175.524 95.2473 173.99 95.2095 172.657 95.8415C172.246 94.0951 170.956 92.6351 169.501 91.9925C169.324 91.7715 169.351 91.6527 168.749 91.6859C165.053 90.5746 160.917 91.1626 157.365 92.3022C151.755 92.7748 145.87 93.1474 140.213 93.7985C134.914 91.4179 118.923 91.0689 117.929 96.9367C116.679 96.7496 114.55 95.7654 113.5 97.1005C105.795 95.7937 97.8329 97.6098 90.0944 98.4187C88.1465 98.7775 87.1432 102.645 89.3543 102.592C90.5974 102.254 89.3161 100.184 90.99 100.028C98.4564 99.2123 105.759 98.0549 113.302 97.9194C113.04 99.2224 118.291 99.3072 118.369 98.5463C118.38 98.552 118.392 98.5558 118.403 98.5609C117.106 103.399 118.277 110.361 120.622 113.361C123.908 117.289 132.157 118.416 135.814 115.889C140.532 113.556 145.441 101.847 144.062 97.9566C146.564 97.1632 149.038 97.4014 151.635 97.8055C151.04 99.4856 150.014 103.621 151.491 103.98C151.22 112.191 158.689 117.314 165.575 113.946C171.536 111.147 173.62 102.288 172.891 96.9102C173.633 98.3445 179.862 96.783 176.958 95.435Z" fill="black"/>
</svg>
