<svg width="240" height="324" viewBox="0 0 240 324" fill="none" xmlns="http://www.w3.org/2000/svg">
<path fill-rule="evenodd" clip-rule="evenodd" d="M188.18 197.386C187.516 195.563 188.485 193.744 189.023 191.98C190.933 185.864 193.019 179.747 195.969 174.043C197.087 172.134 195.248 169.794 193.117 170.332C189.47 170.843 185.709 170.436 182.055 170.21C180.719 166.752 177.152 165.317 174.345 163.325C171.16 161.337 168.062 159.052 164.749 157.309C164.565 155.661 162.568 155.253 161.347 156.431C157.993 154.344 153.971 154.732 150.376 153.364C147.644 148.947 147.439 144.302 146.716 140.041C146.4 138.183 146.735 136.391 145.466 134.735C141.204 128.738 124.363 126.137 118.153 129.691C114.811 127.606 114.73 131.383 114.2 133.714C113.609 134.88 113.29 136.201 113.389 137.592C109.799 145.094 101.585 148.485 94.2286 151.233C93.3058 150.344 91.9868 150.457 91.1088 151.192C84.7327 152.578 78.5445 155.016 73.2024 158.822C67.1331 160.598 62.8587 165.536 59.7679 170.831C59.4273 171.389 59.347 171.958 59.4465 172.481C49.9418 186.419 45.4055 203.105 44.7683 219.957C38.6561 223.627 47.6734 256.593 49.7726 263.437C49.7747 263.436 49.7768 263.435 49.7789 263.434C51.1408 265.846 52.687 272.729 56.0952 272.196C58.4331 274.841 62.1588 274.321 65.3314 274.524C64.8146 276.507 65.0686 278.775 65.6836 280.735C66.411 283.067 69.9806 283.146 70.4868 280.603C102.081 286.744 134.497 281.845 166.446 282.766C175.684 282.832 184.92 283.118 194.136 283.776C195.433 283.869 196.749 282.542 196.66 281.25C194.679 260.163 192.819 232.423 190.603 211.543C190.078 206.781 189.662 201.967 188.18 197.386Z" fill="white"/>
<path fill-rule="evenodd" clip-rule="evenodd" d="M114.72 130.993C114.811 130.745 115.18 130.778 115.187 131.056C115.333 136.985 113.857 144.23 109.115 148.235C106.68 150.291 103.462 151.232 100.506 152.313L100.173 152.436L94.9504 154.382C93.5654 154.898 92.0713 155.692 90.8478 154.963C91.8378 157.419 92.669 159.942 93.8747 162.309C95.3755 165.256 97.1901 167.951 99.4109 170.403C108.209 180.117 122.134 183.08 134.63 180.234C141.064 178.768 147.326 175.99 151.716 170.924C155.052 167.073 156.969 161.905 157.421 156.807C157.289 156.828 157.15 156.827 157.008 156.796C155.427 156.451 153.831 155.603 152.44 154.772L152.306 154.692C150.967 153.885 149.572 152.962 148.611 151.709C147.657 150.465 146.656 146.408 146.656 146.408C146.383 144.883 146.127 141.845 146.171 140.304C146.175 140.159 146.82 140.073 146.889 140.224C147.485 141.532 147.678 144.408 148.138 145.769L148.23 146.041C148.722 147.464 149.143 149.195 150.161 150.345C152.074 152.504 154.959 153.418 157.534 154.5C157.719 152.06 161.614 152.117 161.565 154.662C161.562 154.8 161.556 154.938 161.551 155.075C161.859 155.244 162.154 155.437 162.43 155.624L162.7 155.807C163.72 156.501 164.748 157.161 165.834 157.749C167.936 158.89 170.163 159.794 172.317 160.828C174.497 161.876 176.535 163.123 178.439 164.617C179.332 165.318 180.19 166.064 181.003 166.858L181.223 167.076C181.997 167.847 183.004 168.709 183.445 169.722C183.542 169.945 184.029 170.465 184.293 170.482C188.387 170.751 192.471 171.13 196.539 171.698C197.592 171.845 198.009 172.388 197.619 173.266C196.282 176.284 191.045 188.336 189.652 191.57C189.815 193.946 189.595 196.743 189.742 199.12C189.956 202.588 190.237 206.055 190.573 209.513C191.778 221.885 193.603 234.197 195.253 246.515C196.078 252.679 196.831 258.853 197.574 265.028C197.949 268.149 198.268 271.272 198.513 274.406C198.615 275.712 198.707 277.019 198.789 278.326L198.859 279.486C198.957 280.945 199.18 282.338 198.277 283.591C197.868 284.159 196.933 284.479 196.395 283.833C195.719 283.022 195.467 282.416 195.403 281.35C195.353 280.534 195.341 279.715 195.304 278.898C195.224 277.128 195.123 275.358 195.005 273.59C194.769 270.055 194.499 266.521 194.187 262.991C193.094 250.616 191.015 238.334 189.632 225.989C188.935 219.766 188.439 213.531 188.177 207.273C188.046 204.148 187.998 201.023 188.029 197.896C188.041 196.727 188.096 195.564 188.176 194.404C186.104 199.113 183.926 203.777 181.648 208.378L181.108 209.468C179.665 212.377 178.183 215.296 176.449 218.038L176.15 218.506C175.448 219.62 174.488 221.376 173.206 221.727C172.313 221.972 171.223 221.8 170.307 221.782C169.399 221.765 168.49 221.761 167.582 221.724C166.564 221.683 165.593 221.549 164.609 221.284C164.445 221.24 164.291 221.192 164.15 221.131C163.159 222.754 161.474 223.99 159.752 224.71C158.373 225.287 156.927 225.682 155.479 226.048L154.968 226.177C153.416 226.563 151.64 226.747 150.764 228.247L150.561 228.595C149.91 229.701 149.286 230.673 148.208 231.466C147.049 232.32 145.675 232.857 144.306 233.275C142.905 233.703 141.471 234.03 140.048 234.381L139.66 234.478C138.721 234.713 137.773 234.929 136.839 235.184C136.441 235.294 136.036 235.406 135.645 235.54C135.187 235.698 134.855 235.943 134.494 236.21C134.169 237.344 132.782 237.96 131.642 237.881C131.043 237.84 130.505 237.637 130.017 237.339C129.163 238.065 128.224 238.716 127.354 239.389C126.136 240.332 124.913 241.268 123.684 242.195C121.148 244.107 118.594 245.993 116.013 247.842C111.432 251.125 106.751 254.257 101.991 257.273C100.006 258.53 98.0077 259.786 95.9899 261.011L96.2052 261.091L96.6323 261.252C97.642 261.629 98.767 262.239 98.9626 263.417C99.1177 264.352 98.5959 264.996 97.6735 265.11C96.5772 265.245 95.7241 264.471 95.0415 263.731C94.7402 263.405 94.403 263.102 94.1144 262.766C93.9968 262.629 93.9063 262.471 93.8267 262.305C91.8354 263.479 89.8228 264.613 87.7784 265.674L87.2666 265.938C82.1968 268.531 77.2623 271.372 72.1494 273.892C70.8156 274.55 69.1895 275.26 67.4945 275.746C67.9443 277.49 67.9373 279.405 67.9487 281.175C67.9595 282.9 65.2192 282.892 65.2771 281.175L65.3049 280.346C65.3548 278.951 65.4363 277.504 65.767 276.148C60.7729 276.976 55.7839 275.176 54.855 274.635C53.8297 274.038 52.8991 273.084 52.1246 272.199C50.4672 270.303 49.3171 268.032 48.2966 265.747C46.1109 260.853 44.5623 255.621 43.4301 250.389C39.2561 231.1 41.0514 210.455 47.8299 191.965C49.5235 187.345 51.5229 182.827 53.8141 178.473L54.0986 177.934C56.3849 173.628 58.9261 169.338 62.1539 165.674C65.516 161.857 69.6634 158.889 74.179 156.585C76.3828 155.46 78.6503 154.486 80.9679 153.622C81.3401 153.483 81.7149 153.359 82.0906 153.24C84.5058 151.7 87.4369 150.226 90.3691 150.284C90.5683 150.288 90.7297 150.363 90.8501 150.477C90.9915 150.502 91.1328 150.532 91.2744 150.573C91.5868 150.664 91.9168 151.007 91.8721 151.359L91.8568 151.476C91.8486 151.533 91.8382 151.588 91.8203 151.642C91.9251 151.658 92.028 151.683 92.1287 151.717C94.9342 150.924 97.6944 149.712 100.432 148.735L101.055 148.514C103.348 147.711 105.701 146.923 107.581 145.332C109.453 143.749 110.86 141.699 111.877 139.483C113.13 136.753 113.691 133.796 114.72 130.993ZM170.888 274.99C171.443 274.577 172.1 275.056 172.308 275.568C172.99 277.247 172.653 279.856 171.691 281.341C170.695 282.879 168.309 282.272 168.251 280.409C168.191 278.466 169.32 276.158 170.888 274.99ZM176.625 228.622C176.675 228.404 177.014 228.406 177.065 228.622C177.527 230.593 177.517 232.715 177.652 234.735L177.668 234.959C177.831 237.187 177.968 239.421 178.065 241.652C178.257 246.043 178.486 250.434 178.743 254.822C178.87 256.997 179.007 259.173 179.152 261.347C179.608 261.093 180.078 260.87 180.565 260.673C181.294 260.378 182.004 260.344 182.788 260.352C183.742 260.362 184.46 261.202 184.334 262.137C184.196 263.155 183.3 263.592 182.369 263.447C181.338 263.285 180.303 263.035 179.262 262.931C179.378 264.613 179.497 266.294 179.624 267.974C179.793 270.199 180.012 272.42 180.167 274.646C180.181 274.858 180.197 275.07 180.213 275.284C180.834 274.961 181.493 274.795 182.24 274.592L182.435 274.537C183.519 274.226 184.68 273.795 185.684 274.524C186.358 275.015 186.493 275.822 185.934 276.469C185.087 277.451 183.832 277.261 182.662 277.21L182.032 277.187C181.438 277.164 180.891 277.126 180.342 276.976C180.443 278.426 180.496 279.881 180.318 281.31C180.222 282.082 179.206 282.284 178.937 281.496C178.234 279.438 178.089 277.218 177.832 275.062C177.592 273.049 177.446 271.02 177.289 268.998L177.241 268.391C176.888 263.941 176.605 259.489 176.398 255.031C176.191 250.572 176.067 246.115 176.018 241.652C175.995 239.626 176.029 237.592 176.108 235.566L176.133 234.959C176.224 232.875 176.161 230.664 176.625 228.622ZM83.7896 275.318C83.8166 275.034 84.0446 274.68 84.3837 274.724C84.6962 274.765 85.0181 274.745 85.3272 274.797C85.7352 274.864 86.0635 275.106 86.4429 275.257C87.0596 275.504 87.7319 275.631 88.3646 275.833C89.5517 276.212 90.1986 277.462 89.707 278.63C89.19 279.857 87.891 280.136 86.7685 279.621C85.8837 279.215 85.2242 278.566 84.6293 277.815L84.4608 277.601C84.2044 277.278 83.9134 276.918 83.8059 276.528C83.7013 276.147 83.7528 275.706 83.7896 275.318ZM141.465 269.549C142.944 269.34 144.207 269.846 145.575 270.323L145.686 270.361C147.078 270.842 149.11 271.175 149.824 272.601C150.254 273.46 149.92 274.602 148.907 274.857C147.302 275.259 145.863 274.086 144.536 273.296L144.466 273.255C143.186 272.504 141.864 271.873 141.046 270.579C140.828 270.234 141.017 269.612 141.465 269.549ZM89.8483 151.913C89.2559 152.045 88.6635 152.163 88.0717 152.275C85.8207 153.482 83.6357 154.735 81.3116 155.81C78.8456 156.951 76.3888 158.13 74.0465 159.51C69.3143 162.299 65.4133 165.925 62.1897 170.369C56.6216 178.047 52.4797 186.9 49.5154 195.884C48.7537 198.192 48.0722 200.526 47.4692 202.879C48.5353 201.893 49.7974 201.286 51.2127 200.767C51.8125 200.547 52.5591 200.92 52.8631 201.439C52.9998 201.672 53.0769 201.903 53.0628 202.177C53.0313 202.781 52.6383 203.467 51.9897 203.587C50.4777 203.866 49.0075 204.408 47.5495 204.886C47.3285 204.958 47.1386 204.931 46.9869 204.846C45.5395 210.979 44.634 217.238 44.3133 223.535C44.0421 228.866 44.2094 234.239 44.7997 239.563C45.2533 239.359 45.6969 239.168 46.1942 239.052C46.8392 238.902 47.4737 238.719 48.1028 238.513C49.9185 237.917 50.7466 240.916 48.8909 241.373C48.2002 241.543 47.5054 241.684 46.8016 241.788C46.1883 241.878 45.6458 241.838 45.0676 241.744C45.5093 245.065 46.1127 248.362 46.8813 251.613L47.0509 252.324C48.0493 256.475 49.2129 260.665 50.8956 264.589C51.721 266.513 52.8139 268.341 54.1633 269.945C54.8262 270.734 55.5621 271.411 56.3645 272.052C57.0325 272.585 59.3032 273.742 61.9926 273.742C64.682 273.742 65.41 273.488 66.7668 273.021C69.4502 272.097 71.9979 270.622 74.5143 269.308L74.7745 269.173C75.8873 268.597 76.9958 268.012 78.1014 267.423C77.9617 266.295 78.2061 265.348 78.7935 264.307C79.4283 263.18 81.0014 263.741 81.1183 264.894L81.1221 264.938C81.1398 265.197 81.1833 265.462 81.2374 265.726C88.6299 261.675 95.8658 257.34 102.987 252.823C107.573 249.914 112.111 246.917 116.583 243.833C118.819 242.291 121.035 240.721 123.229 239.121C124.378 238.283 125.522 237.438 126.661 236.585C127.135 236.23 127.6 235.857 128.075 235.5C127.96 235.356 127.847 235.212 127.738 235.069C125.963 232.744 124.812 229.973 124.238 227.114C123.891 225.389 123.724 223.598 123.673 221.839L123.651 221.074C123.616 219.786 123.606 218.437 123.844 217.189C123.521 217.366 123.191 217.541 122.862 217.727C121.681 218.396 120.5 219.063 119.317 219.728C116.947 221.057 114.571 222.372 112.164 223.633C107.865 225.886 103.524 228.029 99.0654 229.95L96.8961 230.885C93.131 232.506 89.3353 234.096 85.4207 235.301C83.2128 235.98 80.9881 236.56 78.7485 237.078L79.6542 238.14C80.2683 238.859 80.2791 239.892 79.4942 240.498C78.7227 241.093 77.6875 240.845 77.1735 240.054L76.2365 238.613C76.0362 238.304 75.9226 238.016 75.8581 237.712C74.8265 237.928 73.7921 238.135 72.7549 238.335L70.7942 238.71C67.9944 239.25 65.2799 240.321 62.7773 241.691C61.9073 242.167 61.6649 241.242 62.5867 240.597C65.282 238.712 68.4258 237.646 71.6697 236.75L71.829 236.707C73.0191 236.381 74.2071 236.041 75.3925 235.689C75.2621 235.217 75.1869 234.727 75.2019 234.188C75.2353 232.985 75.3416 231.779 75.4054 230.577C75.5393 228.055 75.7102 225.541 75.9105 223.024C75.9874 222.055 76.0736 221.082 76.1723 220.111C75.5366 219.77 74.9883 219.317 74.2796 219.094L74.1599 219.06C73.4019 218.855 73.6578 217.878 74.3311 217.794C74.941 217.719 75.548 217.754 76.1492 217.883C76.2424 217.903 76.3305 217.926 76.4146 217.951C76.5251 217.051 76.6476 216.154 76.7868 215.261C77.1551 212.903 77.4156 210.418 78.1821 208.152C78.2389 207.985 78.488 207.925 78.5803 208.1C79.6953 210.222 79.7341 212.826 79.8598 215.189L79.8754 215.471C80.0235 218.049 80.0319 220.652 79.9842 223.234C79.9352 225.894 79.8441 228.548 79.7247 231.206C79.6768 232.277 79.6787 233.387 79.4964 234.411C86.1318 232.253 92.6501 229.67 98.8979 226.611C103.305 224.454 107.674 222.21 111.994 219.882C114.158 218.716 116.332 217.569 118.494 216.398C119.252 215.988 120.009 215.576 120.765 215.164L121.9 214.545C122.962 213.965 123.848 213.388 125.085 213.348C125.453 213.336 125.784 213.508 126.019 213.77C126.683 213.298 127.452 213.009 128.258 213.016C129.471 211.339 130.703 209.676 131.985 208.049L132.931 206.844C134.569 204.766 136.304 202.656 138.393 201.074C139.326 200.369 140.351 199.839 141.421 199.402C141.169 199.34 140.923 199.216 140.703 199.013C139.682 198.065 139.541 196.305 139.333 194.983C139.118 193.612 139.201 192.385 139.414 191.018C139.497 190.487 140.376 190.377 140.591 190.865C141.043 191.893 141.522 192.879 141.933 193.919L142.055 194.233C142.497 195.404 143.438 196.635 143.375 197.905C143.359 198.254 143.242 198.557 143.062 198.801C143.96 198.503 144.87 198.237 145.767 197.959C148.589 197.087 151.421 196.239 154.298 195.563C155.063 195.383 155.833 195.215 156.605 195.062C157.01 193.14 157.6 191.253 158.295 189.4C157.637 189.062 157.211 188.496 156.643 187.993C156.113 187.522 155.748 186.948 155.295 186.407C154.883 185.915 155.115 185.025 155.855 185.054L156.065 185.063C156.833 185.099 157.576 185.178 158.272 185.536L158.52 185.664C158.86 185.841 159.232 186.043 159.563 186.282C159.996 185.285 160.447 184.297 160.902 183.319L161.493 182.055C163.026 178.763 164.554 175.347 166.477 172.282C167.332 170.92 168.47 170.069 170.104 169.938C171.786 169.802 173.535 169.977 175.219 170.037C177.172 170.107 179.124 170.19 181.075 170.293C180.575 169.769 180.119 169.186 179.617 168.683C178.783 167.849 177.902 167.058 176.976 166.328C175.144 164.882 173.129 163.691 171.037 162.665C168.944 161.639 166.789 160.744 164.824 159.476C163.581 158.674 162.47 157.665 161.456 156.573C160.818 163.46 157.493 169.86 152.498 174.668C147.31 179.661 140.141 182.404 133.128 183.571C125.974 184.761 118.508 184.324 111.665 181.837C108.137 180.554 104.753 178.722 101.735 176.423C101.702 176.623 101.662 176.821 101.583 177.007C101.478 177.256 101.349 177.469 101.202 177.688L100.939 178.073C100.773 178.315 100.604 178.555 100.415 178.779C99.9593 179.323 99.313 179.561 98.6169 179.558C97.284 179.554 96.2746 178.246 96.6333 176.953C96.8587 176.141 97.3411 175.652 98.094 175.333C98.332 175.233 98.5746 175.149 98.8185 175.066L99.0016 175.004C99.2482 174.919 99.4928 174.839 99.7466 174.792C98.3175 173.53 96.9916 172.158 95.8043 170.677C92.0803 166.034 88.4072 159.53 89.6522 153.363C89.6737 153.258 89.769 153.191 89.8717 153.174C89.944 152.741 90.1742 152.323 90.4897 152.041C90.2773 151.985 90.0633 151.942 89.8483 151.913ZM128.519 258.538C129.256 258.127 130.018 259.102 129.419 259.704L128.524 260.6C127.693 261.435 126.885 262.279 126.174 263.23L126.002 263.463C125.042 264.769 124.019 266.282 122.447 266.77C120.545 267.361 118.717 265.043 119.818 263.35C120.78 261.871 122.633 261.313 124.23 260.701C125.741 260.122 127.106 259.323 128.519 258.538ZM67.1662 251.71C67.5995 251.143 68.7294 251.442 68.4334 252.245C67.4719 254.852 67.08 258.408 64.6517 260.141C63.8683 260.699 62.6377 260.443 61.9927 259.797C61.2598 259.064 61.2304 258.032 61.6496 257.137C62.1608 256.046 63.4181 255.255 64.2995 254.424L64.3785 254.348C65.3267 253.427 66.3522 252.776 67.1662 251.71ZM168.656 254.712C169.43 254.378 171.446 253.73 172.043 254.497C172.071 254.525 172.095 254.556 172.114 254.59C172.26 254.845 172.282 255.204 172.114 255.456C171.418 256.503 170.693 257.284 169.703 258.029L169.592 258.112C168.515 258.904 167.502 259.835 166.19 260.192C164.37 260.688 163.099 258.408 164.377 257.078C165.407 256.005 166.978 255.449 168.342 254.851L168.656 254.712ZM95.5824 239.812C95.278 239.261 95.9 238.586 96.4632 238.93C98.0699 239.913 99.9415 240.65 101.746 241.179C102.477 241.393 103.135 242.134 103.081 242.933L103.073 243.054C103.051 243.336 103.012 243.617 102.833 243.851C102.204 244.674 101.305 244.991 100.345 244.504C98.2051 243.419 96.7404 241.905 95.5824 239.812ZM142.542 238.145C142.503 237.913 142.672 237.735 142.908 237.78C144.265 238.037 145.519 238.693 146.685 239.447C147.311 239.852 147.914 240.296 148.538 240.704C149.309 241.209 149.597 241.625 149.711 242.551C149.786 243.162 149.216 243.72 148.693 243.888C147.268 244.348 145.635 242.84 144.67 241.859L144.626 241.815C143.616 240.785 142.782 239.566 142.542 238.145ZM183.324 236.544C183.014 235.708 184.081 235.014 184.778 235.425C185.435 235.812 186.148 236.132 186.767 236.575C187.337 236.983 187.856 237.465 188.402 237.907L188.672 238.12C189.673 238.926 191.326 240.917 189.894 242.073C188.532 243.172 186.725 241.768 185.81 240.741L185.746 240.669C185.22 240.06 184.571 239.4 184.19 238.689C183.83 238.021 183.586 237.254 183.324 236.544ZM169.885 171.818C168.178 172.15 167.482 174.257 166.763 175.631C165.067 178.873 163.507 182.175 161.94 185.481C161.458 186.497 160.988 187.522 160.515 188.545C160.486 188.625 160.448 188.704 160.405 188.782C159.434 190.873 158.434 192.95 157.266 194.935C158.335 194.734 159.41 194.563 160.489 194.429C160.435 193.413 161.13 192.053 161.474 191.197L161.503 191.125C161.932 190.028 162.382 188.301 163.486 187.732C163.854 187.543 164.248 187.78 164.276 188.186C164.36 189.392 163.18 190.774 162.603 191.798C162.254 192.418 161.914 193.04 161.583 193.669C161.459 193.905 161.355 194.136 161.228 194.344C161.784 194.283 162.341 194.23 162.9 194.191L163.264 194.166C165.335 194.029 167.534 193.99 169.405 195.012C171.141 195.959 172.029 197.982 171.075 199.824C169.887 202.119 167.271 202.423 164.97 202.609C162.096 202.84 159.216 203.259 156.363 203.667C153.411 204.09 150.632 205.178 147.724 205.738C147.454 205.79 147.286 205.436 147.534 205.285C149.827 203.888 152.615 203.12 155.179 202.337L155.387 202.273C156.777 201.846 158.137 201.358 159.576 201.115C160.972 200.88 162.378 200.69 163.786 200.545L163.923 200.532C165.474 200.402 169.431 200.446 169.264 198.149C169.153 196.628 166.683 196.366 165.555 196.348C160.384 196.265 155.177 197.638 150.263 199.109L149.166 199.438C147.153 200.044 145.139 200.667 143.164 201.377C140.927 202.181 139.164 203.435 137.535 205.152C135.728 207.056 133.978 209.002 132.104 210.842C130.922 212.001 129.725 213.14 128.519 214.27C128.246 214.623 128.028 215.007 127.877 215.505C127.622 216.347 127.681 217.129 127.777 217.993C128.02 220.176 128.074 222.382 128.378 224.558C128.66 226.575 129.055 228.665 129.892 230.535C130.223 231.275 130.654 232.003 131.146 232.653L131.542 233.169C131.715 233.393 131.908 233.638 132.111 233.868C132.409 233.505 132.84 233.268 133.341 233.328C134.405 233.453 135.242 233.423 136.286 233.178C137.095 232.989 137.897 232.767 138.701 232.562C140.282 232.159 141.876 231.792 143.44 231.329L143.709 231.248C144.875 230.89 146.041 230.442 147.011 229.689C148.138 228.815 148.485 227.553 149.32 226.461C151.102 224.131 154.954 224.18 157.563 223.542C159.779 223 161.913 222.144 163.447 220.535L163.536 220.439C163.468 220.152 163.578 219.828 163.845 219.679L163.903 219.647C164.007 219.589 164.119 219.565 164.229 219.567C164.371 219.358 164.509 219.142 164.633 218.912C164.736 218.722 164.993 218.862 164.959 219.049C164.939 219.161 164.911 219.27 164.885 219.379C166.371 218.997 168.003 219.07 169.511 219.071L171.469 219.064C171.808 219.06 172.313 219.043 172.358 219.022L172.404 219.002C172.526 218.949 172.353 219.036 172.438 218.923C172.532 218.798 172.624 218.672 172.715 218.544C173.04 218.09 173.347 217.622 173.647 217.15C170.369 217.986 166.972 218.506 163.625 218.939C160.033 219.405 156.394 219.728 152.771 219.731C151.772 219.732 151.781 218.223 152.771 218.186C156.608 218.039 160.425 217.836 164.236 217.344C166.207 217.089 168.169 216.77 170.121 216.396C170.875 216.252 171.626 216.099 172.376 215.938L172.938 215.815C173.291 215.737 174.287 215.625 174.773 215.299C174.869 215.135 174.964 214.971 175.059 214.807C175.012 214.231 173.549 214.308 173.205 214.307C172.233 214.305 171.259 214.313 170.286 214.316C168.34 214.321 166.395 214.304 164.448 214.289C160.56 214.257 156.657 214.121 152.772 214.287C151.829 214.328 151.334 212.815 152.266 212.417C156.381 210.659 160.949 210.277 165.343 209.737C167.654 209.453 169.965 209.125 172.224 208.55L172.783 208.408C174.202 208.044 175.769 207.6 176.964 206.733C175.168 206.006 172.935 206.089 171.074 205.986L170.931 205.978C168.324 205.818 165.713 205.736 163.101 205.732C157.757 205.725 152.412 205.914 147.074 206.168C146.94 206.174 146.912 205.962 147.042 205.934C152.529 204.737 158.105 204.16 163.72 204.071C166.334 204.029 168.951 204.066 171.563 204.182L172.522 204.226C174.749 204.322 177.221 204.348 179.085 205.694C179.369 205.899 179.519 206.161 179.542 206.438C182.042 201.454 184.35 196.365 186.668 191.31C188.47 187.38 190.205 183.417 192.072 179.517L192.677 178.256C193.486 176.572 194.316 174.889 195.237 173.266C191.793 172.806 188.33 172.486 184.865 172.241C181.707 172.018 171.405 171.524 169.885 171.818ZM168.36 225.839C168.752 225.62 169.354 225.798 169.451 226.283C169.523 226.643 169.646 227.044 169.646 227.413C169.646 227.855 169.488 228.335 169.404 228.768C169.21 229.763 168.971 230.571 168.466 231.457C168.149 232.011 167.511 232.387 166.869 232.373C166.361 232.361 165.91 232.225 165.561 231.831C165.144 231.359 164.857 230.666 165.086 230.031C165.686 228.368 166.79 226.711 168.36 225.839ZM85.0576 224.179C85.9766 222.569 88.155 221.13 90.056 221.272C92.9104 221.486 93.4929 225.331 90.7293 226.248C89.0774 226.797 86.8048 226.234 85.3597 225.331C84.9701 225.088 84.8273 224.583 85.0576 224.179ZM55.721 218.678C55.5123 218.374 55.8573 218.028 56.1683 218.096C56.8581 218.247 57.6017 218.314 58.2774 218.519C58.9693 218.73 59.639 219.079 60.3243 219.319C61.7601 219.822 63.2937 220.075 64.6832 220.682C65.2386 220.925 65.6755 221.73 65.6242 222.323L65.6111 222.462C65.5804 222.756 65.5294 223.013 65.3648 223.282C64.9226 224.005 64.0465 224.378 63.2196 224.155C61.6855 223.743 60.1866 222.684 58.8786 221.804L58.6369 221.644C58.0655 221.267 57.451 220.873 56.9905 220.389C56.5099 219.882 56.1148 219.251 55.721 218.678ZM108.453 212.821C108.276 212.185 109.068 211.765 109.529 212.195C110.45 213.054 111.414 213.85 112.316 214.731L112.377 214.791C113.023 215.441 113.964 216.693 113.123 217.533C112.046 218.611 110.546 217.012 109.968 216.179C109.236 215.122 108.796 214.057 108.453 212.821ZM178.975 207.562C177.608 209.01 175.502 209.676 173.647 210.228C171.448 210.882 169.183 211.272 166.915 211.594C164.723 211.904 162.549 212.181 160.392 212.537C162.023 212.558 163.655 212.57 165.282 212.599C167.159 212.633 169.035 212.674 170.912 212.728C172.278 212.768 173.882 212.58 175.181 213.088C175.415 213.18 175.633 213.307 175.824 213.461C176.916 211.519 177.963 209.55 178.975 207.562ZM94.6496 194.015C96.0765 193.562 97.4182 192.96 98.9309 193.117C99.333 193.158 99.6209 193.549 99.4014 193.936C98.6845 195.198 97.5189 195.911 96.3714 196.755L96.2702 196.83C95.0142 197.764 93.6657 198.616 92.2999 199.383C89.9482 200.703 87.8408 196.924 90.2157 195.816C91.6447 195.148 93.1458 194.493 94.6496 194.015ZM120.34 190.735C122.523 190.879 124.705 190.976 126.89 191.065C129.422 191.167 128.571 195.065 126.456 194.276C124.366 193.497 122.277 192.727 120.169 192C119.527 191.779 119.578 190.724 120.299 190.733L120.34 190.735ZM64.3482 183.801C64.914 183.762 65.4846 183.885 66.0512 183.94L66.6542 183.999C67.897 184.122 69.0624 184.275 70.2476 184.781C72.4347 185.715 71.26 189.232 69.0645 189.151C67.4418 189.091 66.0542 188.394 64.6839 187.583C63.486 186.873 62.7517 185.985 61.9427 184.871C61.6748 184.502 62.0481 184.089 62.413 184.052C63.0557 183.986 63.7053 183.846 64.3482 183.801ZM173.979 176.619C173.617 178.878 172.718 180.995 171.365 182.839C170.684 183.765 169.49 183.8 168.816 182.839C167.862 181.479 168.45 179.92 169.169 178.614L169.381 178.232C169.703 177.658 170.197 176.821 170.762 176.244L170.771 176.185C171.074 173.819 174.351 174.291 173.979 176.619ZM85.6826 162.121C86.2268 161.63 87.229 161.778 87.4057 162.576C87.6528 163.693 87.8033 164.953 87.6414 166.087C87.5538 166.702 87.5208 167.392 87.2791 167.965C87.0192 168.581 86.5194 169.055 86.0485 169.519C85.1083 170.443 83.1264 170.138 82.8746 168.68L82.8426 168.502C82.716 167.812 82.5539 167.075 82.7415 166.392C82.8831 165.876 83.1995 165.35 83.4613 164.872L83.5164 164.77C84.0408 163.793 84.8582 162.863 85.6826 162.121ZM162.181 164.498L162.378 164.5C163.897 164.53 166.674 164.9 166.689 166.778C166.692 167.221 166.365 167.679 165.925 167.781C165.017 167.992 164.43 167.455 163.783 166.913C163.254 166.469 162.637 166.115 161.996 165.861C161.304 165.585 161.349 164.497 162.181 164.498Z" fill="black"/>
<path fill-rule="evenodd" clip-rule="evenodd" d="M164.804 91.3169C164.02 85.0565 161.557 78.4097 158.966 72.5733C153.14 60.2334 139.804 58.5344 127.848 55.9902C116.05 54.2719 103.556 52.7204 91.9363 56.1487C85.4037 57.7497 82.8522 65.5328 83.8832 71.6749C84.4716 75.5022 86.2131 79.1246 87.6981 82.6717C90.6497 89.9561 92.5224 97.7547 92.5255 105.641C92.3229 110.795 91.5958 116.678 97.5163 118.861C103.15 121.664 103.626 129.262 110.681 133.572C113.533 139.352 121.303 139.861 126.896 141.202C130.431 141.879 134.005 142.377 137.59 142.699C147.968 144.029 156.271 141.02 161.704 131.771C165.34 126.142 168.047 119.643 167.378 112.821C166.712 105.637 165.602 98.491 164.804 91.3169Z" fill="white"/>
<path fill-rule="evenodd" clip-rule="evenodd" d="M127.937 40.9931C128.53 40.3214 129.442 40.5518 129.996 41.0829C130.357 41.1892 130.706 41.3473 131.036 41.5565C131.782 41.4608 132.564 41.4608 133.296 41.4876C133.473 41.3881 133.663 41.2995 133.87 41.2234C135.349 40.6826 136.659 40.9573 137.739 41.6814C138.259 41.189 138.916 40.88 139.755 40.9267C140.504 40.9685 141.037 41.3211 141.495 41.7854C141.951 41.1275 142.688 40.6581 143.607 40.5928C144.891 40.5015 146.125 41.0165 147.148 41.8139C147.744 41.13 148.556 40.7369 149.462 40.7331C150.058 40.6249 150.686 40.6676 151.255 40.8392C152.079 41.0884 152.804 41.5553 153.38 42.1612C154.293 41.287 155.41 40.6581 156.698 40.7498C158.365 40.8703 159.746 42.0963 160.388 43.6053C161.517 44.0574 162.558 44.7023 163.429 45.6216C163.475 45.67 163.519 45.7208 163.566 45.7717C164.035 45.9448 164.477 46.1902 164.865 46.5133C166.097 47.5386 166.372 49.0223 165.964 50.4761C166.021 50.7088 166.069 50.9455 166.114 51.182C167.267 51.3575 168.315 52.0234 168.911 53.1077C169.727 54.5956 169.566 56.5567 168.683 57.9772C168.303 58.5882 167.821 59.103 167.28 59.5532C167.892 60.9439 167.598 62.6034 166.612 63.7282C166.371 64.116 166.076 64.466 165.744 64.7829C166.11 66.2207 165.458 67.7041 164.157 68.4724L164.046 68.7511C164.027 68.7974 164.008 68.8435 163.988 68.8892C163.974 68.9484 163.956 69.0056 163.939 69.0633C163.908 69.5735 163.74 70.0742 163.406 70.546C162.724 71.5127 161.878 72.1432 161.429 73.2717L161.384 73.3903C161.192 73.9244 160.569 74.3012 160.038 74.1364C162.985 80.1897 164.529 86.9252 165.59 93.5261C166.119 96.8192 166.527 100.124 166.858 103.441L167.182 106.744C167.468 109.68 167.722 112.626 167.724 115.572C167.728 122.236 165.822 128.646 161.732 133.949C157.864 138.962 152.39 142.595 146.206 144.026C139.822 145.501 132.332 144.92 126.607 141.543C124.919 140.55 126.398 138.161 128.115 138.96C131.367 140.474 134.671 141.598 138.275 141.849C141.788 142.096 145.31 141.657 148.642 140.507C154.154 138.603 158.844 134.615 161.859 129.648C163.344 127.201 164.419 124.544 164.992 121.737C165.705 118.239 165.597 114.623 165.335 111.079L165.317 110.838C164.8 104.011 164.117 97.1423 163.015 90.3835C162.04 84.4067 160.541 78.5511 158.595 72.8249C157.833 72.1537 156.98 71.5983 156.067 71.1764C149.386 70.8972 142.692 70.9788 136.019 71.44C130.328 71.8359 124.664 72.5056 119.043 73.4817L118.441 73.5875C117.197 73.8092 115.815 73.936 114.643 74.4371C113.637 74.8683 113.229 75.6968 112.976 76.7153C112.338 79.2916 112.241 82.1113 112.133 84.7531C112.027 87.3356 112.266 89.9397 112.059 92.5137C111.884 94.6674 111.332 96.8717 109.737 98.4296C108.903 99.2452 107.876 99.6912 106.912 100.31C106.289 100.71 106.025 101.122 106.105 101.862C106.279 103.481 107.582 105.52 106.118 106.907C105.86 107.15 105.415 107.181 105.161 106.907C104.557 106.25 103.722 105.748 103.006 105.218C102.706 104.998 102.955 104.571 103.296 104.723C103.743 104.924 104.2 105.161 104.667 105.368C103.636 104.519 102.169 104.102 100.948 103.855C100.334 103.732 99.6871 103.696 99.0469 103.754C98.5737 103.979 98.0899 104.189 97.6061 104.394C96.9913 104.652 96.3702 104.886 95.7448 105.108C93.5751 106.877 92.5399 109.754 92.992 112.567C93.2392 114.12 93.9554 115.809 95.3054 116.716C96.9047 117.789 99.0469 117.328 100.775 118.125C102.393 118.871 103.378 120.378 104.115 121.938L104.423 122.588C105.107 124.025 105.81 125.425 106.746 126.733C107.827 128.249 109.152 129.61 110.597 130.779C111.298 131.345 112.045 131.853 112.817 132.317L113.029 132.442C113.81 132.901 114.37 133.338 114.423 134.308C114.44 134.646 114.227 134.955 113.952 135.13C112.769 135.881 111.592 134.942 110.608 134.287C109.545 133.581 108.529 132.787 107.588 131.92C105.801 130.276 104.255 128.323 103.065 126.203C102.159 124.588 101.643 122.316 100.211 121.065C99.3364 120.302 98.1005 120.296 97.0082 120.156C95.992 120.025 95.0308 119.814 94.1265 119.313C90.4484 117.269 89.4089 112.322 90.2815 108.498C90.4293 107.854 90.6364 107.226 90.892 106.621C89.523 106.85 87.985 105.434 88.5406 104.005C88.5829 103.897 88.6315 103.796 88.6779 103.692C87.7758 103.098 87.0639 102.198 86.7258 101.021C86.5526 100.412 86.5272 99.7968 86.6181 99.2029C86.1808 98.9094 85.8195 98.5055 85.5871 98.0088C84.8603 97.6728 84.216 97.17 83.8315 96.4514C83.2991 95.4599 83.3667 94.5469 83.7723 93.7247C83.7153 93.6214 83.6603 93.5157 83.6075 93.4077C82.1181 92.4632 81.0786 90.8356 81.197 89.0307C81.235 88.4325 81.3829 87.8936 81.611 87.4077C81.592 87.3464 81.573 87.2828 81.5561 87.2215C80.3096 86.5874 79.2786 85.5457 78.911 84.155C78.5434 82.7557 78.9765 81.3608 79.8427 80.2871C78.5751 79.3595 77.8124 78.0639 78.2751 76.1045C78.4631 75.3079 78.8413 74.5827 79.3526 73.9719C79.3505 73.9531 79.3462 73.9341 79.342 73.9149L79.2234 73.8229C77.6586 72.5875 76.759 71.0132 77.7195 69.0771C78.1505 68.2065 78.7653 67.5997 79.4878 67.2003L79.5237 67.0862C79.0061 65.9766 78.8308 64.7444 79.1878 63.4488C79.4793 62.3817 80.1702 61.5319 81.0533 60.9678C80.9941 60.4899 81.0026 59.9808 81.0977 59.4289C81.2561 58.4971 81.7188 57.6834 82.3948 57.1064C82.4202 56.9836 82.4519 56.8634 82.4878 56.7427C82.716 56.0053 83.1427 55.2043 83.6371 54.6101C84.0448 54.1177 84.5012 53.9381 85.0589 53.919C85.0251 53.4648 85.0484 53.0039 85.1413 52.5368C85.4265 51.0956 86.3434 49.7406 87.7019 49.1256C88.2596 48.8741 88.8469 48.8003 89.4131 48.8614C89.8948 47.8469 90.835 47.1117 91.9906 46.9531C92.4406 46.8897 92.8589 46.8937 93.2434 46.951C93.461 46.8494 93.6871 46.7587 93.9237 46.6761C94.08 46.6211 94.2385 46.5704 94.3969 46.5199C94.9315 45.8562 95.635 45.3255 96.4568 45.0066C97.4054 44.6367 98.3709 44.6746 99.2265 44.9853L99.4991 44.9282C99.9258 44.1885 100.606 43.6157 101.652 43.3557C102.839 43.062 104.058 43.472 104.992 44.2183C104.996 44.2183 105 44.2183 105.007 44.2159C105.495 43.1233 106.329 42.3624 107.73 42.4152C108.603 42.4491 109.391 42.8825 109.999 43.4997C110.337 43.4572 110.675 43.4191 111.015 43.3813C111.374 42.9605 111.774 42.5676 112.215 42.2147C112.938 41.6354 113.878 41.6821 114.41 42.4977C114.527 42.6752 114.634 42.8548 114.742 43.0345L115.23 43.0007C115.805 42.225 116.588 41.7009 117.662 41.6588C118.646 41.6184 119.348 42.1005 119.882 42.7745C120.317 42.764 120.755 42.7557 121.192 42.7492C121.701 42.1595 122.301 41.6396 122.986 41.2084C123.51 40.8787 124.283 40.9909 124.708 41.4306C124.994 41.7294 125.261 42.0414 125.51 42.3643C126.15 41.6466 127.014 41.1738 127.937 40.9931ZM96.8434 108.107C97.8301 107.545 99.1568 108.154 100.112 108.631C101.276 109.213 102.431 110.09 103.143 111.189C104.113 112.685 101.834 113.894 100.813 112.552C100.186 111.726 99.685 110.893 98.9244 110.17C98.2294 109.506 97.2216 109.063 96.8223 108.188C96.8075 108.158 96.8118 108.124 96.8434 108.107ZM97.5371 71.7865L97.5556 71.7337C97.8361 70.9659 96.6116 70.6349 96.3334 71.3964C95.9117 72.5506 96.3978 73.8054 97.5374 74.3038C97.8532 74.442 98.2141 74.394 98.4044 74.0764C98.5644 73.809 98.4902 73.3457 98.1771 73.209C97.5359 72.9285 97.3212 72.4334 97.5371 71.7865ZM86.9869 69.6395C87.5998 69.0985 86.7004 68.2042 86.0905 68.743C85.5213 69.2456 85.0992 69.9282 85.2089 70.7134C85.3206 71.5136 85.9238 72.0785 86.584 72.4777C87.2837 72.9011 87.9216 71.805 87.2237 71.3827L87.1454 71.3348C86.8524 71.1528 86.5096 70.9025 86.46 70.5445C86.4074 70.1641 86.7292 69.8671 86.9869 69.6395ZM90.4673 60.0924L90.5107 60.0605C91.169 59.5904 90.5367 58.4902 89.8708 58.9655C89.2602 59.4015 88.7705 59.9679 88.719 60.7491C88.6689 61.5082 89.0551 62.1664 89.56 62.7005C90.1218 63.2946 91.0171 62.3968 90.4564 61.8039C89.9101 61.2261 89.8033 60.5956 90.4673 60.0924Z" fill="black"/>
<path fill-rule="evenodd" clip-rule="evenodd" d="M150.578 122.331C150.724 122.292 150.853 122.489 150.732 122.596C150.234 123.038 149.919 123.861 149.556 124.421C149.21 124.955 148.878 125.483 148.574 126.041C148.234 126.667 147.905 127.29 147.64 127.952L147.588 128.086C147.667 128.275 147.729 128.461 147.775 128.584L147.788 128.618C148.241 129.774 147.291 131.059 146.219 131.382C144.387 131.935 142.815 130.429 142.771 128.639C142.736 127.231 143.691 125.976 144.66 125.045C145.509 124.23 146.458 123.537 147.521 123.029C147.99 122.805 148.477 122.618 148.986 122.51C149.506 122.399 150.068 122.469 150.578 122.331ZM147.124 127.435C147.259 127.499 147.374 127.654 147.47 127.835C147.422 127.681 147.322 127.529 147.124 127.435ZM148.271 107.866C149.866 108.836 152.297 111.098 150.581 113.503C148.561 115.624 145.652 113.192 144.219 112.093C142.89 111.24 141.396 113.432 142.63 114.427C152.987 122.098 157.19 108.12 149.078 106.725C148.185 106.572 147.853 107.566 148.271 107.866ZM135.157 98.5507L135.438 98.527C136.661 98.4192 137.899 98.2549 139.105 98.5316C140.725 98.9036 140.606 101.261 139.105 101.695C137.782 102.076 136.316 101.911 134.95 101.924C134.735 101.926 134.521 101.932 134.306 101.935C134.264 102.446 134.096 102.887 133.84 103.327C133.656 103.643 133.422 103.942 133.191 104.223C132.643 104.889 131.349 104.874 130.795 104.223C130.386 103.741 130.06 103.186 130.055 102.533C130.053 102.366 130.074 102.188 130.114 102.014L129.368 102.027C127.544 102.055 125.706 102.042 123.914 101.752C123.277 101.884 122.756 100.734 123.635 100.39C126.026 99.4542 128.697 99.1788 131.234 98.8979C132.538 98.7534 133.849 98.6538 135.157 98.5507ZM155.525 97.584L155.59 97.5775C157.173 97.4154 158.917 97.1347 160.502 97.2962C162.869 97.5369 162.865 100.738 160.502 100.978C159.634 101.065 158.72 101.023 157.809 100.939C158.275 101.927 157.722 103.108 156.6 103.259C155.557 103.399 154.476 102.385 154.818 101.298L154.834 101.25C154.901 101.061 154.961 100.85 155.032 100.642L154.654 100.61C153.526 100.51 151.96 100.306 151.545 99.415C151.419 99.1464 151.448 98.897 151.641 98.6675C152.432 97.7256 154.382 97.6946 155.525 97.584ZM138.701 90.2548C139.846 89.8386 141.036 90.8125 141.184 91.9101C141.355 93.1749 140.443 94.0076 139.288 94.1586L139.23 94.1656C136.678 94.4467 134.146 94.9607 131.592 95.2513C130.431 95.3831 129.262 95.4699 128.094 95.5011L127.26 95.5198C126.237 95.5457 125.14 95.569 124.195 95.2167L124.199 95.2103C123.948 95.1376 123.833 94.7758 124.112 94.578C125.117 93.8668 126.473 93.5979 127.643 93.26C128.82 92.9199 130.005 92.6065 131.194 92.3121C133.69 91.6945 136.282 91.1336 138.701 90.2548ZM149.262 90.5505C149.565 88.9503 151.831 88.7787 152.663 89.943C153.201 90.1278 153.99 90.3205 154.478 90.4655C155.33 90.7181 156.182 90.9691 157.036 91.2124C158.804 91.7163 160.53 92.355 162.268 92.9503C162.447 93.0118 162.398 93.2393 162.226 93.2619C159.799 93.5778 157.414 93.7248 154.972 93.6235L154.472 93.601C152.321 93.5171 148.669 93.6771 149.262 90.5505Z" fill="black"/>
<path fill-rule="evenodd" clip-rule="evenodd" d="M152.745 131.526C150.778 129.772 148.572 126.247 145.746 129.036C145.047 129.824 144.764 131.591 143.695 131.938C142.275 132.398 140.868 130.896 140.384 129.742C138.404 123.33 146.588 121.571 151.25 122.607C153.527 123.543 155.204 127.309 155.306 129.275C155.371 130.596 154.254 132.538 152.745 131.526ZM167.589 121.643C167.57 121.558 167.543 121.481 167.511 121.411C166.64 121.082 165.952 121.417 165.526 122.044C165.54 122.2 165.587 122.358 165.616 122.512C165.288 123.204 164.992 124.06 164.547 124.658C164.459 124.665 164.368 124.656 164.28 124.63C156.904 125.401 160.505 117.681 153.024 115.763C147.241 114.809 136.789 115.902 134.061 121.923C131.909 131.542 120.969 124.84 117.377 119.838C113.545 115.285 111.067 109.723 108.677 104.325C108.172 103.182 106.596 103.999 106.768 105.095C104.559 109.528 104.633 114.851 104.086 119.707C103.155 129.394 102.249 142.979 111.246 148.894C122.968 162.15 152.241 166.827 165.762 154.648C170.442 144.581 169.865 132.301 167.589 121.643Z" fill="black"/>
</svg>
