<svg width="259" height="324" viewBox="0 0 259 324" fill="none" xmlns="http://www.w3.org/2000/svg">
<path fill-rule="evenodd" clip-rule="evenodd" d="M245.914 194.94C248.078 193.81 250.191 192.582 252.27 191.304C253.735 190.428 252.438 188.22 250.936 189.018C250.168 189.426 249.403 189.838 248.635 190.244C249.24 189.723 249.8 189.156 250.302 188.538L250.267 188.504C252.203 186.769 249.716 183.494 247.515 184.92C245.573 186.328 243.613 187.765 241.384 188.692C236.768 190.65 231.676 190.974 226.721 191.031C224.907 190.894 223.175 191.209 221.416 191.559C222.106 188.791 223.832 186.7 224.748 184.019C225.423 181.312 221.517 179.468 220.133 182.07C219.793 182.709 219.469 183.355 219.153 184.005C216.161 186.727 211.165 186.488 208.147 189.411C206.428 190.937 205.587 193.008 205.255 195.086C205.029 196.497 205.38 197.912 204.527 199.162C200.403 204.997 193.888 214.22 190.579 220.641C188.236 205.382 181.98 186.508 175.517 172.556C173.38 168.094 170.935 163.733 167.725 159.951C168.089 158.69 166.805 156.451 165.988 157.14C163.475 154.068 159.032 153.273 155.459 151.746C150.637 149.683 146.635 145.395 144.669 140.521C142.141 131.241 135.92 130.062 127.292 130.472C119.035 130.462 112.926 133.995 111.124 142.403C107.464 148.786 98.8218 147.73 92.6044 149.42C88.0478 150.461 83.6257 152.071 79.4232 154.115C74.748 149.679 58.004 168.297 56.4821 173.089C57.378 173.263 58.2685 173.472 59.151 173.727C59.9369 173.954 59.6069 175.142 58.8142 174.952C57.8278 174.715 56.8351 174.551 55.8377 174.438C55.8073 174.534 55.7806 174.629 55.7608 174.722C55.6488 174.715 55.5371 174.705 55.4251 174.698C55.6733 174.827 55.9123 174.977 56.1451 175.17C56.7079 175.638 55.9752 176.54 55.3771 176.168C54.8137 175.746 54.0757 175.812 53.3999 175.671C53.3597 177.061 48.4006 175.506 47.6304 175.045C44.2068 174.617 40.6847 175.076 37.4887 173.425C33.2361 172.529 28.9516 171.538 24.7467 170.397C23.6335 170.831 22.5873 172.385 23.4715 173.525C23.9688 174.043 23.3295 174.89 22.7033 174.522C20.6031 173.285 18.9789 171.355 17.6018 169.275C16.9537 168.621 15.8031 168.761 14.9323 168.49C14.8159 168.699 14.7472 168.932 14.7483 169.172C11.0542 169.78 13.6894 173.816 15.5464 175.074C14.5613 175.715 14.5239 176.972 14.6101 178.021C14.4014 178.395 14.3316 178.858 14.5133 179.277C15.208 180.879 16.7103 182.227 17.8526 183.525C19.1139 184.957 20.2385 186.398 21.7731 187.56C27.6227 192.02 34.6818 194.514 41.9236 195.49C44.4949 195.885 48.1936 196.489 49.7857 198.664C49.3951 201.246 48.6778 203.722 48.0271 206.239C47.1172 209.58 47.1791 213.078 47.1671 216.485C47.0399 216.383 46.7956 216.404 46.7593 216.599C46.5476 218.011 46.3902 219.455 45.5323 220.641C44.7802 222.848 44.2797 225.201 43.9985 227.519C42.872 238.508 42.603 249.821 45.1429 260.639C46.123 264.653 47.717 268.467 49.8888 271.979C50.5364 273.026 51.5775 273.333 52.5123 273.128C55.6412 274.754 59.5828 275.275 62.9553 274.862C74.4527 271.606 70.4466 279.446 86.567 277.045C114.392 273.499 142.513 280.468 170.279 276.377C170.963 281.661 179.915 280.145 183.025 277.911C192.349 270.977 196.979 249.023 201.658 237.885C204.875 229.107 210.261 213.56 217.314 207.669C219.429 206.014 221.986 205.143 224.544 204.44C234.091 201.979 243.674 199.651 253.239 197.259C254.861 196.859 254.57 194.092 252.835 194.269C250.533 194.505 248.223 194.718 245.914 194.94Z" fill="white"/>
<path fill-rule="evenodd" clip-rule="evenodd" d="M33.3897 193.294C32.7432 193.214 32.1094 192.984 31.4798 192.802C30.5186 192.521 29.5763 192.193 28.6488 191.819C26.7348 191.052 24.8777 190.145 23.1369 189.035C20.3249 187.241 17.8404 184.942 15.9665 182.173L15.8378 181.98C14.768 180.35 12.7946 176.73 15.0073 175.492C13.5812 174.3 12.2333 172.159 12.3093 170.506C12.4171 168.169 15.2819 168.201 16.7629 169.192C17.7326 169.841 18.4593 170.749 19.1882 171.644C19.9953 172.637 20.8572 173.584 21.753 174.495C21.9907 174.735 22.2307 174.972 22.475 175.204L22.7206 175.435C22.6826 175.344 22.6488 175.251 22.6192 175.156C22.1248 173.615 22.7143 171.61 24.2544 170.904C25.1969 170.472 26.1758 170.735 27.0891 171.102L27.2291 171.159C28.4586 171.669 29.703 172.119 30.9833 172.48C36.2016 173.954 41.6481 174.199 46.9953 174.934C49.0551 175.22 51.153 175.579 53.2023 176.107C53.984 172.787 55.9002 169.604 57.979 166.985C67.934 154.458 84.3516 150.318 99.3706 147.638C100.74 147.395 101.874 149.209 102.671 148.78C104.181 147.968 105.51 146.818 106.676 145.569C109.163 142.904 110.927 139.77 113 136.8C114.024 135.333 116.382 136.646 115.431 138.221L114.965 138.99C113.048 142.142 110.924 145.39 108.174 147.835C106.712 149.133 105.09 150.158 103.235 150.798C101.83 151.282 99.8587 151.69 98.3207 151.22L98.1361 150.952C98.1971 151.041 98.2586 151.131 98.3206 151.221C102.335 157.039 107.371 161.964 112.678 166.611C118.035 171.3 123.814 175.498 129.628 179.603L130.112 179.945C139.583 173.034 147.584 164.02 153.197 153.721C152.021 153.579 150.857 152.825 149.851 152.263C148.64 151.582 147.502 150.77 146.614 149.688C144.681 147.332 144.933 144.295 144.584 141.435C144.563 141.258 144.797 141.213 144.905 141.302C145.953 142.173 146.321 143.599 146.758 144.832C147.24 146.186 147.785 147.302 148.89 148.255C149.919 149.143 151.173 149.796 152.392 150.377C153.021 150.676 156.142 151.442 156.497 152.077C161.889 150.811 167.141 152.998 171.136 156.688C174.996 160.254 177.829 164.889 180.331 169.464C182.999 174.347 185.185 179.436 187.07 184.667C188.98 189.976 190.444 195.401 191.249 200.989C191.928 205.701 192.345 210.486 192.614 215.25L192.647 215.845C196.636 209.583 200.724 203.386 204.897 197.244C203.948 194.71 204.998 192.123 206.775 190.166C208.744 188 211.467 186.994 214.072 185.823L214.414 185.668C215.67 185.095 216.921 184.464 218.006 183.606C219.049 182.777 219.816 181.636 220.915 180.873C222.512 179.761 225.411 179.998 225.485 182.427C225.523 183.76 224.95 185.223 224.426 186.421C223.833 187.776 223.032 189.004 222.081 190.132C222.037 190.185 221.989 190.226 221.94 190.259L221.904 190.282C223.218 190.5 224.542 190.676 225.892 190.737C228.616 190.862 231.368 190.661 234.035 190.086C236.764 189.498 239.409 188.543 241.864 187.212C243.962 186.074 245.906 184.603 248.289 184.257C248.509 184.223 248.73 184.202 248.959 184.189C249.339 184.168 249.719 184.616 249.569 184.992C249.487 185.199 249.4 185.405 249.305 185.612C248.481 187.427 247.217 189.188 245.641 190.525L245.519 190.627C246.075 190.435 246.622 190.219 247.161 189.976C250.328 188.549 253.201 186.394 256.596 185.527C256.757 185.485 256.919 185.447 257.082 185.411C258.132 185.185 258.685 186.326 258.069 187.108C257.969 187.235 257.87 187.359 257.766 187.484C256.252 189.365 254.581 191.111 252.738 192.679C252.107 193.216 251.456 193.736 250.792 194.233C250.513 194.443 250.232 194.649 249.948 194.852L249.808 194.951C250.14 194.717 250.467 194.478 250.792 194.233C252.871 193.603 254.921 192.857 256.926 192.03C257.722 191.703 258.341 192.51 258.426 193.174C258.709 195.397 256.241 197.006 254.635 198.075C253.026 199.149 251.253 199.965 249.438 200.62C245.949 201.881 242.284 202.454 238.625 202.967L236.848 203.215C229.813 204.199 222.466 205.375 217.418 210.851C214.59 213.92 212.676 217.733 210.924 221.484C209.175 225.231 207.639 229.078 206.181 232.946C204.671 236.949 203.354 241.025 201.956 245.069C200.671 248.781 199.137 252.446 197.617 256.074L197.378 256.646C194.152 264.357 190.298 271.618 184.928 278.056C184.042 279.119 182.612 277.61 183.43 276.558C189.047 269.313 192.956 260.764 196.182 252.235C197.65 248.355 198.88 244.382 200.291 240.48L201.131 238.162C202.252 235.073 203.383 231.987 204.563 228.922C206.057 225.043 207.698 221.211 209.576 217.504L209.775 217.114C211.614 213.538 213.799 210.013 216.806 207.307C222.218 202.433 229.42 201.264 236.383 200.338L238.573 200.049C241.517 199.658 244.469 199.226 247.332 198.438C248.984 197.986 250.598 197.407 252.115 196.608C252.719 196.291 253.309 195.943 253.879 195.562C252.252 196.04 250.602 196.431 248.923 196.737C248.101 196.887 247.287 196.999 246.476 197.077C244.387 197.284 242.314 197.276 240.174 197.164C239.993 197.153 239.933 196.868 240.128 196.832C241.618 196.567 243.11 196.236 244.596 195.876L245.042 195.767C245.05 195.52 245.147 195.258 245.35 195.008C246.09 194.108 247.495 193.647 248.469 193.011C249.489 192.345 250.478 191.627 251.42 190.857C252.282 190.154 253.11 189.409 253.907 188.632L254.145 188.397C254.066 188.476 253.986 188.554 253.907 188.632C251.756 189.625 249.717 190.9 247.471 191.686C245.686 192.314 243.814 192.736 241.926 192.886L241.808 192.896L241.691 192.903C239.72 193.045 237.736 192.988 235.795 193.415C235.577 193.463 235.509 193.172 235.704 193.089C237.4 192.383 239.164 192.111 240.947 191.781C240.985 191.641 241.083 191.517 241.252 191.436L241.708 191.218C243.066 190.566 244.333 189.907 245.462 188.847C246.459 187.911 247.29 186.816 247.913 185.603C245.418 186.151 243.227 188.042 240.958 189.105C238.486 190.266 235.871 191.098 233.183 191.572L232.877 191.624C227.855 192.462 221.816 192.356 217.317 189.743C217.173 189.659 217.277 189.467 217.425 189.49C218.701 189.699 219.964 189.946 221.228 190.166C220.98 189.94 220.871 189.534 221.156 189.209C222.291 187.908 223.188 186.421 223.761 184.794L223.871 184.476C224.135 183.721 224.582 182.549 224.126 181.869C223.691 181.22 222.666 181.308 222.054 181.583C220.78 182.158 219.933 183.593 218.859 184.46C217.689 185.407 216.358 186.108 214.995 186.736L214.708 186.867C212.351 187.927 209.832 188.82 207.979 190.692C206.982 191.698 206.124 192.956 205.837 194.366C205.706 195.012 205.706 195.678 205.879 196.319C206.016 196.819 206.304 197.128 206.139 197.637C205.923 198.295 205.161 199.081 204.768 199.666C204.311 200.343 203.857 201.021 203.403 201.7C202.497 203.056 201.595 204.418 200.692 205.777C198.888 208.499 197.103 211.234 195.333 213.977C194.757 214.87 194.182 215.764 193.61 216.66L192.753 218.003L192.3 218.711L191.528 219.926C191.555 220.038 191.553 220.157 191.517 220.26C191.385 220.635 191.139 220.892 190.832 221.078L190.778 221.11C186.269 228.239 181.833 235.414 177.352 242.56C177.113 244.741 176.889 246.924 176.695 249.107C176.253 254.049 175.951 259.003 175.854 263.963C175.807 266.364 175.999 268.78 176.103 271.179C176.154 272.324 176.223 273.467 176.314 274.61L176.38 275.421C176.47 276.534 176.52 277.64 176.12 278.701C175.765 279.633 174.683 279.842 174.043 279.132C165.692 278.796 157.334 278.54 148.976 278.382C134.016 278.094 119.05 278.139 104.088 278.428C96.5734 278.574 89.0565 278.779 81.5439 279.033C77.8424 279.155 74.1389 279.329 70.4354 279.379C68.4401 279.406 65.2997 278.68 65.1387 276.434L65.1347 276.365C64.8854 276.433 64.6277 276.488 64.3636 276.528C64.246 276.546 64.1331 276.541 64.0288 276.517L63.977 276.503C61.0026 277.41 57.2402 276.116 54.4138 275.362L54.1805 275.3C51.4826 274.596 49.315 273.59 47.5467 271.354C44.4516 267.438 43.3953 262.179 42.846 257.333C42.3305 252.772 42.3009 248.127 42.9284 243.575C42.5587 239.865 42.9199 236.038 43.3404 232.35C43.5474 230.526 43.7904 228.704 44.0819 226.89C44.2446 225.878 44.458 224.876 44.6756 223.876C44.7625 223.477 44.8348 223.047 44.9449 222.631L44.9946 222.454C44.6565 222.498 44.2868 222.425 43.9298 222.228C43.0805 221.761 42.8333 220.816 42.8185 219.912C42.772 217.185 43.0974 214.381 43.3847 211.671C43.6741 208.966 44.0713 206.25 44.591 203.578L44.7255 202.89C45.1193 200.891 45.5699 198.828 46.3636 196.95C43.3827 196.443 40.4101 195.904 37.5179 194.987C36.1066 194.537 34.7165 193.977 33.3897 193.294ZM188.98 221.668C188.933 221.679 188.889 221.691 188.845 221.704C187.653 222.038 186.449 222.321 185.249 222.625C183.174 223.147 181.146 223.731 179.217 224.638C178.813 229.74 178.214 234.825 177.645 239.913L177.531 240.931C178.406 239.307 179.302 237.697 180.238 236.106C183.088 231.255 186.003 226.442 188.98 221.668ZM45.7212 222.173C45.7276 222.78 45.6008 223.41 45.5332 223.993C45.4233 224.94 45.3346 225.891 45.2226 226.838C44.9945 228.74 44.8001 230.644 44.6585 232.555C44.5677 233.774 44.5085 234.998 44.4557 236.222C45.6536 231.743 47.2403 227.362 48.7487 222.974C48.4966 222.947 48.2388 222.886 47.9729 222.815L47.5253 222.695C47.2614 222.627 46.4052 222.416 45.7212 222.173ZM192.753 218.003L192.761 218.204C192.793 218.916 192.366 219.318 191.849 219.421C192.149 218.948 192.451 218.474 192.753 218.003ZM55.6827 184.246C56.944 184.358 58.1799 184.627 59.3588 185.092L59.4725 185.136C60.3445 185.473 61.6193 185.896 61.9045 186.827C61.9848 187.091 61.7693 187.309 61.5221 187.33C60.5757 187.406 59.4602 186.391 58.5834 186.049C57.6073 185.669 56.5848 185.385 55.5496 185.235C53.2235 184.895 50.7982 185.153 48.6095 186.001C48.4806 186.051 48.4003 185.846 48.5165 185.785C50.7221 184.584 53.1749 184.024 55.6827 184.246ZM28.9553 190.291C28.8095 190.162 28.6637 190.027 28.52 189.892C27.3873 188.82 26.3843 187.569 25.6416 186.194L25.4461 185.822C24.8413 184.65 24.0985 182.981 25.52 182.137C26.3693 181.632 27.3919 181.759 28.3383 182.065C28.3996 182.084 28.4609 182.105 28.5221 182.126C28.9447 182.275 29.3524 182.452 29.7158 182.621C31.294 183.346 32.6862 184.401 34.144 185.331C35.7235 186.339 37.2831 186.983 39.1061 187.361L39.2778 187.395C40.989 187.734 42.844 187.951 44.0376 189.359C44.3376 189.714 44.063 190.38 43.5454 190.204C40.2454 189.091 36.7531 188.845 33.7235 187.017C32.4686 186.26 31.2813 185.392 29.9989 184.675C29.3186 184.295 28.6162 183.962 27.8678 183.733L27.4588 183.613C27.2193 183.543 26.9334 183.474 26.7412 183.543C26.3752 183.669 26.492 183.865 26.6052 184.207L26.6165 184.242C27.5059 186.994 30.0412 189.297 32.3904 190.821C32.9292 191.172 33.4806 191.494 34.0426 191.792C37.8465 193.82 42.1029 194.764 46.2833 195.885C46.2833 195.885 48.7004 196.56 49.5011 196.813C50.3926 196.739 51.4088 197.054 52.0807 197.43C52.7335 197.796 53.2595 198.286 53.6567 198.863C53.6567 198.863 54.0391 199.182 54.1088 199.677C54.3095 200.136 54.4447 200.63 54.5123 201.146C54.5504 201.448 54.4743 201.68 54.3307 201.845C54.7628 208.48 52.9713 215.078 50.9516 221.383L50.7515 222.005L50.6229 222.399C48.4447 229.084 45.9454 235.721 44.8299 242.691C44.0842 247.347 44.1074 252.166 44.6546 256.843L44.6932 257.165C45.2323 261.588 46.2696 266.548 49.0807 270.107C50.5144 271.924 52.2132 272.731 54.385 273.316L54.5039 273.347C56.4687 273.865 58.4969 274.599 60.5229 274.821C62.4032 275.025 63.9792 274.326 65.6715 273.671L65.6736 273.669C69.2377 270.513 70.856 265.918 72.0518 261.281C75.1511 249.281 74.7665 236.824 73.0088 224.648C72.0919 218.286 70.8454 211.98 69.6032 205.675C68.982 202.524 68.3123 199.379 67.7567 196.217L67.4267 194.356C67.2446 193.323 67.0685 192.288 66.918 191.248C66.7151 189.851 66.6539 188.478 66.5842 187.072C64.8771 184.242 62.3989 181.911 59.5278 180.239C57.4722 179.041 55.2961 178.21 53.0504 177.608C46.6299 175.877 39.6306 175.999 33.17 174.668C30.9997 174.221 28.9395 173.558 26.8804 172.763L26.5996 172.654C25.6553 172.286 24.6919 172.081 24.2229 173.195C23.8891 173.987 24.0877 174.812 24.5884 175.477C25.8158 177.109 28.2834 177.866 30.1405 178.453C31.2581 178.808 32.3989 179.089 33.5524 179.299C34.706 179.508 35.8637 179.561 36.9708 179.969C37.3975 180.125 37.482 180.803 36.9708 180.924C35.5679 181.251 34.1567 180.97 32.7623 180.698C31.2306 180.395 29.7222 179.966 28.256 179.423C27.9855 179.324 27.7057 179.218 27.4206 179.107L27.206 179.022C27.4278 179.182 27.6496 179.341 27.8736 179.5C27.9327 179.542 27.8968 179.654 27.8186 179.626C24.3712 178.339 21.2344 176.018 18.8043 173.271L18.6834 173.134C17.8278 172.153 15.8778 169.185 14.2341 170.012C12.6907 170.787 15.3217 173.775 16.3216 174.996L16.4377 175.139C17.5743 175.169 18.675 175.877 19.5961 176.447C21.1954 177.439 22.8666 178.293 24.5694 179.091C27.9539 180.683 31.5476 181.805 34.8961 183.477C34.9405 183.5 34.9067 183.557 34.8645 183.551C32.7328 183.211 30.6243 182.667 28.5645 181.993L28.4726 181.965L28.3807 181.934C27.094 181.511 25.8243 181.034 24.5757 180.524C23.1877 179.958 21.8314 179.322 20.5152 178.601C19.3236 177.95 18.0011 176.777 16.6194 176.604C16.4715 176.585 16.3405 176.583 16.2264 176.593C14.6398 176.726 15.9518 179.356 16.3955 180.142C17.1201 181.433 17.9948 182.625 18.9983 183.714C21.0328 185.924 23.4983 187.676 26.1666 189.04C27.0772 189.505 28.0088 189.915 28.9553 190.291Z" fill="black"/>
<path fill-rule="evenodd" clip-rule="evenodd" d="M129.727 53.949C141.723 53.949 159.281 61.9626 160.602 69.6725C162.158 78.7585 165.614 112.924 163.732 124.104C161.851 135.285 154.514 143.545 138.289 143.545C122.064 143.545 109.953 134.694 107.173 131.655C104.392 128.615 101.023 119.158 101.023 119.158C101.023 119.158 92.1396 117.651 92.0984 110.567C92.0572 103.483 96.561 101.294 96.561 101.294C96.561 101.294 94.1303 71.9055 99.2391 64.6268C104.348 57.3481 117.731 53.949 129.727 53.949Z" fill="white"/>
<path fill-rule="evenodd" clip-rule="evenodd" d="M165.945 91.3743C166.602 98.5158 166.849 105.719 166.976 112.888C167.098 119.68 166.501 126.765 162.632 132.573C159.25 137.654 154.099 141.342 148.363 143.333C145.099 144.468 141.484 144.888 138.037 144.992C136.256 145.045 134.47 144.968 132.7 144.785C132.477 144.761 132.253 144.741 132.029 144.721C130.53 144.588 129.043 144.455 127.95 143.322C127.606 142.965 127.61 142.231 128.12 141.999C129.089 141.557 129.746 141.511 130.809 141.657C131.69 141.777 132.573 141.872 133.46 141.933C135.362 142.067 137.276 142.071 139.177 141.925C142.672 141.657 146.246 140.669 149.419 139.173C154.395 136.823 158.669 132.972 160.976 127.919C163.621 122.133 163.488 115.442 163.364 109.212L163.359 108.956C163.222 102.045 162.966 95.1553 162.366 88.2674C162.139 85.6617 161.815 83.0701 161.491 80.4776C161.399 79.7478 161.308 79.0178 161.219 78.2875C161.005 76.5206 160.725 74.7619 160.38 73.0164C160.276 72.4892 160.155 71.9662 160.033 71.4439C159.942 71.051 159.851 70.6584 159.768 70.2646C159.626 70.2876 159.482 70.3005 159.334 70.3067C158.451 70.3365 157.486 70.1209 156.831 69.4932C156.579 69.6644 156.26 69.7722 155.876 69.7912C153.527 69.9072 151.155 69.8555 148.788 69.8039C147.495 69.7757 146.203 69.7475 144.917 69.7468C141.267 69.7447 137.614 69.7468 133.961 69.7574C133.404 69.7589 132.847 69.7611 132.29 69.7632C129.196 69.775 126.097 69.7869 123.007 69.7045C122.352 69.687 121.693 69.6756 121.032 69.6642C118.264 69.6163 115.456 69.5678 112.752 69.0662C111.626 73.0692 111.666 77.4674 114.013 81.0435C114.676 82.0516 114.138 83.2394 113.274 83.8692C112.391 84.5119 110.803 85.4975 109.444 85.5987C109.392 85.7171 109.338 85.8352 109.285 85.9531C109.206 86.1298 109.126 86.306 109.049 86.4819C108.401 87.9599 107.817 89.4472 107.408 91.012C107.197 91.8185 107.016 92.6384 106.863 93.4633C106.876 93.6076 106.889 93.7517 106.904 93.8957C106.904 93.9105 106.906 93.9251 106.908 93.942C106.917 94.0014 106.927 94.069 106.934 94.107C106.953 94.2086 106.972 94.3101 106.991 94.4117C107.049 94.7243 107.108 95.0366 107.17 95.3477C107.367 96.3516 107.519 97.3639 107.627 98.3803C107.823 100.24 107.804 102.658 105.991 103.759C105.022 104.349 103.86 104.288 102.835 103.892C102.264 103.672 101.763 103.375 101.247 103.069C101.142 103.006 101.035 102.943 100.927 102.88C100.761 102.783 100.591 102.693 100.421 102.604C100.208 102.491 99.9952 102.38 99.7905 102.252C99.6893 102.189 99.5922 102.113 99.5013 102.033C98.8147 102.178 98.1448 102.451 97.7689 102.637C96.761 103.138 95.876 103.863 95.1236 104.696C93.5245 106.469 93.045 108.967 93.2689 111.286C93.4779 113.443 94.3253 115.922 96.03 117.358C96.7715 117.983 97.6971 118.349 98.6753 118.338C99.1567 118.334 99.6006 118.233 100.065 118.11C100.264 118.058 100.482 118.035 100.7 118.012C100.987 117.982 101.273 117.952 101.513 117.856C102.14 117.605 102.913 118.372 102.658 119.002C102.601 119.142 102.551 119.277 102.503 119.408C102.389 119.719 102.284 120.003 102.114 120.264C103.864 123.121 105.78 125.89 107.819 128.547C109.111 130.229 110.565 131.724 112.025 133.225C112.641 133.858 113.258 134.492 113.865 135.143C114.768 136.111 115.144 138.017 113.51 138.431C112.074 138.799 110.958 137.481 110.072 136.436C109.954 136.296 109.839 136.16 109.729 136.035C105.852 131.624 102.922 126.56 101.55 120.843C100.932 121.282 100.222 121.521 99.4736 121.625C97.9842 121.83 96.4781 121.536 95.1724 120.782C90.2286 117.926 89.0328 110.21 91.3483 105.374C91.9067 104.21 92.7315 103.17 93.7369 102.363C93.6576 102.212 93.6264 102.034 93.6773 101.843C93.7667 101.509 93.8649 101.179 93.968 100.85C93.8554 100.8 93.773 100.697 93.7886 100.543C93.8673 99.738 93.9443 98.9334 94.0212 98.1288L94.0633 97.6894C94.0536 97.2533 94.0404 96.8173 94.0273 96.3812C93.997 95.3802 93.9668 94.3784 93.9786 93.3715C93.9905 92.3001 94.027 91.2292 94.0635 90.1583C94.1055 88.9265 94.1475 87.6948 94.152 86.4625C94.1657 82.4714 94.2533 78.4824 94.3408 74.4935C94.4296 70.4511 94.5184 66.4088 94.5302 62.3643C94.5426 58.4351 94.5511 54.5 94.4476 50.5731C94.4465 50.5453 94.4459 50.518 94.4454 50.4907C94.4449 50.4662 94.4445 50.4417 94.4436 50.4167C94.4306 49.9348 94.4 49.4278 94.3686 48.9076C94.1954 46.0351 93.9977 42.7562 96.5985 41.0347C97.1034 40.7009 97.733 40.6967 98.2823 40.9123C99.8626 39.8111 101.844 39.2804 103.739 38.974C106.533 38.5228 109.345 38.2523 112.159 37.9817C112.982 37.9026 113.805 37.8234 114.628 37.7397C116.525 37.5474 118.522 37.4736 120.431 37.5159C121.425 37.5376 122.425 37.5017 123.427 37.4658C124.372 37.4319 125.319 37.398 126.263 37.4123C128.468 37.4482 130.691 37.5307 132.905 37.7124C132.956 37.7072 133.008 37.7024 133.06 37.6977C133.113 37.6929 133.166 37.6882 133.218 37.6828C136.571 37.3611 139.921 37.5312 143.273 37.7014C144.084 37.7426 144.896 37.7839 145.708 37.8181C149.675 37.9851 153.864 38.3951 157.427 40.2949C157.885 40.5388 158.273 40.8161 158.604 41.1251C159.068 41.1904 159.511 41.3221 159.908 41.5434C161.055 41.3115 162.335 41.8255 162.607 43.1568C163.002 45.1076 163.152 47.075 162.915 49.0535C162.912 49.0784 162.909 49.104 162.906 49.1302C162.904 49.1528 162.901 49.1759 162.898 49.1993C163.377 51.0347 163.345 53.0391 162.947 54.8493C163.115 57.1366 163.211 59.4304 163.224 61.7203C163.226 62.0669 163.231 62.4148 163.236 62.7634C163.254 64.0085 163.272 65.2628 163.157 66.4967C163.027 67.8852 162.456 68.984 161.557 70.0387C161.387 70.2373 161.101 70.2703 160.863 70.2221C160.801 70.2097 160.748 70.1927 160.699 70.1727C161.143 71.1239 161.51 72.1225 161.87 73.0994C161.949 73.3161 162.029 73.5317 162.108 73.7455C162.806 75.6181 163.482 77.5224 163.961 79.4626C164.933 83.3745 165.573 87.3607 165.945 91.3743ZM98.6208 109.078C98.4202 108.94 98.2179 108.8 97.999 108.697C97.9716 108.684 96.8138 108.308 97.0378 108.804C97.1138 108.969 96.9152 109.153 96.7737 109.007C96.3723 108.599 96.5962 108.109 96.9786 107.745C97.6692 107.088 98.7004 107.24 99.5476 107.397C100.726 107.614 101.872 108.13 102.865 108.792C103.934 109.504 105.254 110.491 105.465 111.841C105.657 113.082 104.424 114.449 103.154 113.619C102.467 113.169 101.986 112.499 101.503 111.827C101.159 111.349 100.814 110.868 100.393 110.466C99.896 109.992 99.3594 109.576 98.7913 109.195C98.7343 109.157 98.6776 109.118 98.6208 109.078Z" fill="black"/>
<path fill-rule="evenodd" clip-rule="evenodd" d="M147.453 124.137C147.777 123.574 148.523 123.051 149.206 123.131C152.265 123.49 152.26 127.2 151.079 129.366C150.032 131.287 147.864 132.414 145.695 132.249C143.416 132.076 141.474 130.736 140.62 128.603C140.054 127.192 139.793 124.588 141.297 123.64C141.325 123.622 141.371 123.627 141.393 123.652C142.114 124.491 142.142 125.751 142.773 126.685C143.36 127.553 144.272 128.271 145.34 128.381C146.138 128.464 146.945 128.176 147.257 127.46C147.426 127.072 147.406 126.862 147.343 126.595L147.285 126.363C147.085 125.551 146.996 124.933 147.453 124.137ZM148.271 107.866C149.866 108.837 152.297 111.099 150.581 113.504C148.561 115.624 145.652 113.193 144.219 112.093C142.89 111.241 141.396 113.433 142.63 114.428C152.987 122.099 157.19 108.12 149.078 106.726C148.185 106.572 147.853 107.566 148.271 107.866ZM131.424 101.214C132.403 99.7445 134.638 99.9609 135.177 101.705C135.47 102.65 135.066 103.499 135.087 104.442C135.105 105.239 135.052 106.127 134.808 106.899C134.251 108.659 132.669 109.903 130.797 109.851C128.931 109.8 127.287 108.618 126.506 106.954C125.722 105.284 125.888 103.555 126.46 101.857C126.488 101.775 126.595 101.736 126.659 101.805C127.336 102.524 127.831 103.284 128.344 104.089L128.869 104.915C129.271 105.537 129.854 106.331 130.604 106.281L130.716 106.27C130.925 106.252 130.893 106.294 131.053 106.01C131.128 105.878 131.114 105.634 131.15 105.479L131.163 105.426L131.156 105.398C131.14 105.323 131.124 105.181 131.112 104.936L131.109 104.881C131.055 103.732 130.73 102.256 131.424 101.214ZM156.246 102.193C156.07 100.313 158.712 99.8955 159.59 101.286C160.048 102.012 160.182 102.923 160.283 103.786L160.33 104.196C160.434 105.082 160.475 106.005 160.091 106.832C159.485 108.134 158.167 108.823 156.746 108.714C155.388 108.609 154.15 107.822 153.497 106.627C152.915 105.561 152.336 103.478 153.043 102.366C153.086 102.299 153.171 102.29 153.23 102.342C153.898 102.935 154.007 104.017 154.404 104.79C154.813 105.587 155.435 106.364 156.376 106.485C157.277 106.601 157.621 106.109 157.392 105.25C157.095 104.141 156.357 103.386 156.246 102.193ZM132.137 90.0387L132.569 89.8732C134.05 89.3138 136.082 88.6673 137.285 89.8713C138.028 90.6138 138.169 91.7075 137.639 92.6136C136.997 93.7111 135.845 93.7382 134.733 93.8999C133.468 94.0838 132.182 94.4333 131.004 94.9317C129.678 95.4933 128.447 96.1932 127.241 96.975C126.094 97.7179 124.952 98.9321 123.58 99.161C123.524 99.1703 123.46 99.1462 123.446 99.0847C123.134 97.7427 124 96.4219 124.773 95.3749C125.708 94.1072 126.841 93.0667 128.107 92.1338C129.329 91.2333 130.726 90.5825 132.137 90.0387ZM159.025 94.8103L159.157 94.7872C160.055 94.6377 160.868 94.6722 161.544 95.3833C162.061 95.9259 162.26 96.629 162.014 97.3463C161.786 98.0081 161.279 98.6804 160.541 98.819C158.053 99.2874 155.297 99.21 152.796 98.8554C151.651 98.693 150.497 98.4944 149.382 98.1812L148.869 98.0325C147.939 97.7666 146.874 97.4888 146.198 96.8042C145.955 96.5582 146.095 96.2061 146.386 96.0922C147.565 95.6302 149.181 95.876 150.439 95.8398C151.902 95.798 153.367 95.6883 154.823 95.5372C156.245 95.3892 157.622 95.0678 159.025 94.8103Z" fill="black"/>
<path fill-rule="evenodd" clip-rule="evenodd" d="M169.071 112.228C168.37 111.288 167.112 110.054 165.839 110.12C165.676 110.129 165.615 110.305 165.713 110.424C166.129 110.933 166.698 111.295 167.115 111.814C167.609 112.429 167.965 113.17 168.197 113.92C168.534 115.009 168.627 116.241 168.327 117.349C167.798 119.301 166.125 120.732 164.3 121.462C162.494 122.186 160.32 122.433 158.612 121.373C156.091 119.809 153.952 117.554 150.783 117.509C150.041 117.499 149.519 117.838 149.208 118.323C148.895 117.856 148.379 117.525 147.656 117.517C144.103 117.477 141.452 119.923 138.47 121.449C136.454 122.48 133.847 122.16 131.768 121.478C129.806 120.836 127.677 119.546 126.938 117.51C126.529 116.385 126.621 115.071 127.04 113.963C127.316 113.234 127.741 112.529 128.268 111.956C128.814 111.362 129.532 110.988 130.092 110.425C130.206 110.309 130.116 110.13 129.965 110.12C127.59 109.959 125.444 112.797 124.996 114.856C124.554 116.884 125.213 118.906 126.546 120.453C129.257 123.599 134.277 124.636 138.184 123.712C141.347 122.964 144.35 121.241 147.656 121.488C148.381 121.543 148.901 121.241 149.215 120.782C149.529 121.254 150.053 121.562 150.783 121.492C153.864 121.193 156.614 123.376 159.605 123.909C161.986 124.333 164.558 123.761 166.598 122.478C168.731 121.136 170.232 118.984 170.331 116.419C170.388 114.943 169.955 113.416 169.071 112.228Z" fill="black"/>
<path fill-rule="evenodd" clip-rule="evenodd" d="M163.095 111.465C159.925 112.993 155.501 110.74 153.369 108.379C152.593 107.52 151.995 105.061 152.293 103.502C153.102 99.2791 156.14 96.7446 159.347 95.8791C163.793 94.679 168.267 97.7191 167.746 101.307C167.251 104.707 166.502 109.638 163.095 111.465ZM141.514 103.353C141.26 107.955 137.566 111.983 133.15 113.177C126.036 115.163 122.52 110.16 120.928 104.77C120.769 104.235 120.397 102.6 121.396 101.198C125.322 95.6827 134.874 96.6228 139.645 98.1369C141.041 99.4729 141.612 101.401 141.514 103.353ZM166.54 95.4154C166.538 95.4181 166.536 95.4205 166.534 95.4232C166.517 95.4133 166.501 95.4031 166.485 95.3934C166.503 95.401 166.522 95.4076 166.54 95.4154ZM172.493 95.9474C172.08 91.2617 157.383 93.0559 155.665 93.4399C150.976 94.8196 146.925 98.5732 141.683 96.9232C136.25 90.8652 117.957 92.6025 114.122 95.6884C113.396 95.4035 112.513 95.5564 111.578 95.8252C106.775 95.6517 84.8488 97.308 89.3336 103.44C90.0143 103.913 90.6944 103.432 90.7132 102.459C114.093 94.0162 111.826 101.924 114.599 101.001C115.022 101.123 115.464 101.2 115.851 101.281C117.997 101.972 118.725 101.758 119.008 104.168C120.95 122.778 145.722 116.355 143.691 101.09C145.702 100.98 147.462 100.109 149.589 100.959C151.066 115.339 162.633 115.919 166.114 110.934C168.739 107.475 167.698 102.253 171.307 99.5316C172.731 100.724 172.823 96.6995 172.493 95.9474Z" fill="black"/>
</svg>
