<svg width="240" height="324" viewBox="0 0 240 324" fill="none" xmlns="http://www.w3.org/2000/svg">
<path fill-rule="evenodd" clip-rule="evenodd" d="M41.085 260.27C40.4525 266.071 39.0197 272.461 41.7509 277.934C40.0308 278.011 41.4262 278.509 42.3545 278.68C42.8846 279.09 43.597 279.253 44.2669 279.196C47.7452 279.931 51.3359 280.198 54.8677 280.614C98.9631 284.278 143.354 283.305 187.532 281.726C188.969 281.664 189.933 280.62 190.043 279.213C191.662 258.518 192.468 237.758 192.426 216.999C191.707 209.703 197.219 212.55 194.279 202.937C191.915 192.798 188.417 182.928 183.955 173.524C180.872 167.404 177.966 160.965 173.266 155.89C171.781 155.685 170.516 154.209 169.261 153.385C167.99 153.137 167.048 152.057 165.76 151.725C163.304 151.087 157.81 149.728 155.719 151.362C155.637 151.339 155.553 151.32 155.47 151.297C155.061 151.751 154.499 151.41 154.194 151.002C153.149 150.191 148.583 150.107 148.064 148.862C145.363 146.41 144.64 141.251 144.64 138.232C143.63 137.096 143.56 137.307 142.188 136.707C140.844 135.011 139.219 133.533 137.407 132.368C127.204 125.666 112.399 132.728 110.011 144.376C106.235 147.367 102.349 150.405 97.7246 151.963C95.4679 150.802 92.8969 150.431 90.5018 150.429C88.7164 150.364 86.2492 149.331 85.0889 151.211C65.5684 157.603 53.7873 176.196 45.4101 193.813C44.2359 196.321 42.8312 198.947 43.1905 201.805C43.4375 205.227 47.1503 207.264 46.4487 210.891C45.4289 220.868 44.2688 230.835 43.2072 240.809C42.4997 247.296 41.7924 253.783 41.085 260.27Z" fill="white"/>
<path fill-rule="evenodd" clip-rule="evenodd" d="M183.891 212.676C182.629 213.133 180.859 213.578 179.957 214.611C179.853 213.649 179.748 212.686 179.642 211.724C182.287 211.661 184.937 211.638 187.583 211.564C186.334 211.87 185.1 212.238 183.891 212.676ZM178.08 273.216C177.17 273.225 176.257 273.288 175.348 273.324C173.596 273.392 171.844 273.459 170.092 273.524C166.518 273.658 162.944 273.787 159.37 273.912C152.291 274.158 145.212 274.385 138.132 274.594C123.973 275.011 109.806 275.263 95.6489 275.739C91.7212 275.871 87.7937 275.974 83.8697 276.188C81.8362 276.299 79.7933 276.394 77.7695 276.63C76.0623 276.828 74.3793 277.164 72.6816 277.413C72.7954 275.2 72.9021 272.987 73.013 270.774C73.118 268.68 73.2161 266.587 73.3135 264.492C79.9407 264.839 86.5758 264.979 93.2119 265.039C100.231 265.101 107.249 265.276 114.269 265.289C128.166 265.317 142.065 265.142 155.962 265.002C159.892 264.963 163.823 264.923 167.754 264.884C169.719 264.864 171.685 264.844 173.65 264.824C174.631 264.815 175.618 264.835 176.598 264.795C177.644 264.751 178.279 264.454 179.039 263.75C179.444 263.374 179.46 262.609 179.039 262.237C178.429 261.698 177.864 261.285 177.019 261.225C176.19 261.165 175.324 261.247 174.492 261.258C172.667 261.282 170.842 261.306 169.017 261.33C165.508 261.376 161.998 261.422 158.489 261.468C151.47 261.561 144.45 261.655 137.432 261.762C130.553 261.867 123.673 261.945 116.796 262.118C109.773 262.295 102.759 262.615 95.7387 262.84C88.2657 263.08 80.7966 263.367 73.3405 263.928C73.5197 260.047 73.6847 256.164 73.8399 252.282C88.6445 253.088 103.459 253.662 118.289 253.687C133.738 253.713 149.187 253.449 164.631 253.046C166.807 252.989 168.983 252.931 171.159 252.863C172.282 252.828 173.405 252.795 174.528 252.754C175.354 252.724 176.202 252.689 176.949 252.294C178.422 251.515 178.676 249.239 176.928 248.616C175.973 248.276 174.96 248.608 174.727 249.47C174.656 249.477 174.588 249.483 174.528 249.485C173.686 249.517 172.844 249.54 172.001 249.567C170.176 249.625 168.351 249.684 166.526 249.741C163.157 249.847 159.787 249.944 156.417 250.034C149.537 250.216 142.656 250.365 135.774 250.479C122.15 250.706 108.526 250.916 94.9031 251.228C87.8878 251.388 80.8745 251.597 73.86 251.774C74.0275 247.554 74.1858 243.334 74.3284 239.113C74.3451 238.618 74.3633 238.123 74.3812 237.628C75.3864 237.849 76.4157 237.972 77.4397 238.117C79.2167 238.368 80.9992 238.554 82.7837 238.743C86.1463 239.098 89.5198 239.315 92.8948 239.502C99.7756 239.881 106.658 240.149 113.546 240.359C127.171 240.774 140.814 240.865 154.444 240.818C161.846 240.793 169.293 240.89 176.691 240.567C177.147 240.692 177.617 240.679 178.071 240.531C178.444 247.129 178.838 253.726 179.226 260.323C179.487 264.775 179.718 269.241 180.038 273.694C179.412 273.385 178.835 273.21 178.08 273.216ZM49.8132 206.181C48.5151 205.545 47.0836 204.966 45.9377 204.066C44.6851 203.082 44.3775 201.926 44.7624 200.382C44.7911 200.267 44.8249 200.152 44.8549 200.037C54.0854 200.06 63.2925 199.653 72.5189 199.434C81.8929 199.212 91.2634 199.025 100.64 198.972C119.339 198.867 138.037 199.288 156.727 199.814C163.458 200.003 170.189 200.189 176.921 200.373C176.767 202.015 176.826 203.697 176.792 205.327C176.761 206.759 176.769 208.193 176.79 209.627C173.269 209.618 169.748 209.542 166.226 209.502C157.508 209.404 148.794 209.654 140.077 209.854C122.644 210.253 105.207 210.567 87.7773 211.092C83.0434 211.234 78.2792 211.309 73.5235 211.512C73.36 210.738 73.1785 209.969 72.9738 209.204C72.6484 207.989 72.2813 206.741 71.3084 205.897C71.2617 205.856 71.197 205.874 71.1761 205.932C70.8066 206.956 70.9 207.999 71.0082 209.072C71.0937 209.92 71.1516 210.771 71.1945 211.622C68.2374 211.777 65.2864 211.996 62.3508 212.324C61.5115 211.909 60.6717 211.495 59.8306 211.083C56.492 209.448 53.1522 207.815 49.8132 206.181ZM156.975 236.684C150.087 236.74 143.2 236.746 136.313 236.702C122.681 236.614 109.053 236.279 95.4231 236.008C91.6298 235.933 87.8415 235.858 84.0476 235.858C82.0834 235.858 80.1127 235.871 78.1507 235.956C76.9158 236.01 75.6638 236.018 74.4347 236.166C74.583 232.194 74.7374 228.218 74.7326 224.243C87.7353 226.213 100.878 226.754 114.009 227.142C127.312 227.535 140.618 227.738 153.927 227.758C157.71 227.763 161.492 227.755 165.274 227.733C167.095 227.722 168.916 227.708 170.737 227.691C171.716 227.682 172.701 227.701 173.679 227.66C174.713 227.617 175.338 227.372 176.06 226.636C176.43 226.259 176.448 225.61 176.06 225.235C174.771 223.99 173.254 224.26 171.578 224.281C169.897 224.302 168.216 224.32 166.535 224.335C163.173 224.366 159.811 224.385 156.449 224.394C149.865 224.411 143.281 224.385 136.698 224.318C123.392 224.182 110.089 223.886 96.787 223.574C89.4328 223.402 82.08 223.45 74.7317 223.806C74.729 223.146 74.7229 222.486 74.71 221.827C74.6616 219.328 74.4182 216.829 74.0375 214.357C77.6388 214.345 81.2398 214.268 84.8248 214.222C93.5424 214.11 102.258 213.934 110.974 213.759C119.621 213.586 128.267 213.412 136.913 213.239C145.554 213.066 154.222 213.053 162.852 212.587C167.51 212.335 172.169 211.992 176.83 211.812C176.839 212.24 176.849 212.669 176.858 213.096C176.97 218.347 177.175 223.593 177.44 228.839C177.567 231.359 177.701 233.879 177.839 236.399C177.772 236.393 177.704 236.389 177.634 236.388C170.752 236.343 163.857 236.629 156.975 236.684ZM47.995 191.081C48.7835 189.052 49.6399 187.036 50.5657 185.048C54.4961 186.157 58.6887 186.73 62.7451 187.111C67.0634 187.517 71.3902 187.745 75.7262 187.834C84.2745 188.008 92.8228 187.603 101.362 187.25C118.926 186.524 136.488 185.994 154.069 185.96C158.978 185.95 163.888 185.973 168.797 186.029C171.252 186.056 173.706 186.09 176.16 186.132C177.423 186.153 178.685 186.177 179.947 186.203C180.506 186.215 181.071 186.256 181.63 186.239C182.377 186.217 182.922 185.992 183.615 185.722C184.411 185.412 184.881 184.08 183.887 183.639C182.895 183.198 182.099 182.94 180.999 182.916C179.807 182.891 178.615 182.867 177.423 182.845C175.249 182.805 173.075 182.772 170.901 182.745C166.483 182.69 162.064 182.667 157.646 182.667C148.949 182.668 140.252 182.771 131.558 182.976C114.103 183.386 96.6869 184.604 79.2383 185.126C74.429 185.27 69.6106 185.298 64.8011 185.154C60.1427 185.014 55.4942 184.622 50.8414 184.457C52.4485 181.067 54.2669 177.767 56.3187 174.628C64.075 174.901 71.8146 174.699 79.5725 174.463C83.6435 174.339 87.7144 174.213 91.7849 174.074C93.8202 174.004 95.8556 173.934 97.8909 173.864C98.8735 173.831 99.8561 173.797 100.839 173.763C101.897 173.727 103.011 173.796 104.039 173.517C104.225 173.467 104.373 173.359 104.485 173.221C107.221 174.63 110.115 175.741 113.091 176.564C119.551 178.351 126.5 179.021 133.181 178.471C138.543 178.03 143.886 176.702 148.601 174.103C159.247 175.083 170.043 174.622 180.712 174.553C181.731 174.546 182.155 173.612 181.985 172.841C185.409 180.223 187.677 188.226 189.8 196.01C191.119 200.848 192.292 205.715 193.409 210.601C193.363 210.605 193.316 210.609 193.27 210.613C193.4 210.078 193.109 209.447 192.376 209.43C188.058 209.331 183.726 209.579 179.407 209.619C179.285 208.539 179.164 207.457 179.036 206.377C178.861 204.905 178.653 203.437 178.475 201.965C178.41 201.432 178.35 200.916 178.277 200.41C181.697 200.503 185.117 200.597 188.537 200.687C190.756 200.746 190.752 197.307 188.537 197.239C169.743 196.664 150.949 196.082 132.149 195.763C113.338 195.443 94.4614 195.246 75.6645 196.211C65.4212 196.737 55.2033 197.439 45.0873 199.173C45.873 196.43 46.9691 193.722 47.995 191.081ZM63.9921 164.953C64.3325 165.208 64.4415 165.369 64.9502 165.458C65.5018 165.555 66.0691 165.586 66.626 165.64C67.8175 165.757 69.012 165.801 70.2076 165.857C72.5949 165.971 74.982 166.091 77.371 166.163C82.1134 166.307 86.9573 166.511 91.6975 166.3C92.8572 166.249 93.3847 165.292 93.2793 164.421C94.1683 165.522 95.1403 166.556 96.1755 167.499C97.8399 169.014 99.6365 170.357 101.531 171.542C100.302 171.587 99.0507 171.741 97.891 171.791C95.9258 171.875 93.9606 171.96 91.9954 172.044C87.8541 172.222 83.7133 172.413 79.5727 172.607C71.9094 172.965 64.2722 173.411 56.6381 174.142C58.8184 170.864 61.2606 167.772 63.9921 164.953ZM188.718 180.874C185.48 171.983 181.306 162.747 173.794 156.641C169.932 153.502 165.63 151.33 160.759 150.302C160.609 150.27 160.549 150.483 160.695 150.531C169.12 153.296 175.355 160.613 179.573 168.111C180.337 169.47 181.045 170.861 181.715 172.273C181.497 172.007 181.163 171.83 180.712 171.838C170.749 172.005 160.669 171.837 150.729 172.81C150.983 172.641 151.237 172.472 151.486 172.295C154.201 170.359 156.644 167.99 158.664 165.307C159.881 165.615 161.161 165.691 162.402 165.809C164.059 165.966 165.727 166.038 167.389 166.128C169.048 166.217 170.714 166.225 172.375 166.265C173.517 166.293 175.748 166.483 175.749 164.736C175.751 162.987 173.517 163.172 172.375 163.195C170.713 163.227 169.049 163.232 167.389 163.31C165.798 163.385 164.197 163.445 162.61 163.587C161.642 163.674 160.647 163.731 159.673 163.885C161.257 161.522 162.518 158.947 163.359 156.232C163.444 155.958 163.472 155.703 163.458 155.467C163.815 155.09 164.043 154.573 164.043 154.1C164.043 152.976 163.166 152.317 162.142 152.199C158.089 151.736 153.624 151.075 150.358 148.41C148.884 147.207 147.698 145.784 146.582 144.254C145.328 142.534 144.858 140.367 144.854 138.261C144.853 138.143 144.657 138.107 144.639 138.232C144.026 142.501 144.911 147.374 147.974 150.573C150.981 153.713 155.066 154.89 159.211 155.577C157.502 160.461 154.681 164.75 150.72 168.124C146.307 171.883 140.72 173.893 135.024 174.652C128.879 175.47 122.439 175.072 116.396 173.736C110.575 172.449 104.88 170.146 100.142 166.472C97.752 164.618 95.5532 162.432 93.6372 160.094C92.0558 158.163 90.8434 156.011 89.486 153.943C94.5503 155.332 100.673 153.434 104.915 150.754C107.414 149.176 109.603 147.205 111.401 144.861C112.288 143.705 113.077 142.484 113.728 141.179C114.066 140.5 114.371 139.802 114.65 139.097C114.824 138.661 114.993 138.214 114.993 137.736C114.992 137.383 114.903 137.055 114.727 136.75C114.364 136.365 114.292 136.253 114.51 136.415C114.154 135.685 113.123 135.499 112.464 135.878C112.218 136.02 111.641 136.293 111.356 136.75C111.164 137.059 111.061 137.429 110.938 137.768C110.744 138.303 110.548 138.832 110.304 139.347C109.738 140.544 109.059 141.687 108.285 142.761C106.869 144.724 105.049 146.499 103.067 147.884C100.987 149.338 98.7439 150.527 96.3116 151.27C93.7426 152.054 91.1998 152.288 88.5492 152.575C88.5209 152.536 88.4934 152.496 88.4651 152.457C88.414 152.387 88.3035 152.409 88.2991 152.502C88.297 152.547 88.298 152.591 88.2967 152.635C87.9188 152.812 87.8875 153.345 88.3086 153.55C88.4647 156.003 89.5227 158.418 90.6756 160.541C91.1558 161.425 91.6984 162.281 92.2861 163.109C92.1122 163.042 91.9168 163 91.6975 162.992C86.9556 162.81 82.1129 163.044 77.371 163.218C75.052 163.303 72.7354 163.433 70.4182 163.557C69.2239 163.621 68.0267 163.662 66.8366 163.785C66.2415 163.847 65.6427 163.896 65.0508 163.985C65.0079 163.992 64.9679 163.998 64.9303 164.005C66.3948 162.562 67.9386 161.195 69.5683 159.92C74.9146 155.736 81.0549 152.327 87.6063 150.473C87.6684 150.456 87.6593 150.35 87.5907 150.357C74.5601 151.69 63.7058 159.904 56.1129 170.218C51.8998 175.942 48.7043 182.277 45.9547 188.81C44.5688 192.103 43.2574 195.455 42.1593 198.856C41.6011 200.585 41.3495 202.418 42.1489 204.114C42.762 205.415 43.8934 206.382 45.0792 207.15C45.158 207.201 45.2391 207.249 45.3188 207.299C44.1065 211.524 43.2944 215.859 42.5153 220.181C41.6689 224.876 40.9305 229.591 40.2963 234.32C39.0287 243.771 38.0577 253.243 37.6337 262.773C37.5165 265.408 37.4381 268.046 37.4039 270.684C37.3867 272.004 37.3943 273.324 37.4123 274.643C37.4328 276.12 37.2329 277.786 37.9844 279.104C38.9886 280.865 40.9388 280.259 41.7965 279.055C41.809 279.071 41.8219 279.088 41.8346 279.104C41.9123 278.951 41.9774 278.799 42.0329 278.646C42.1253 278.443 42.1855 278.231 42.2074 278.014C42.3691 277.196 42.3082 276.366 42.3017 275.477C42.2922 274.227 42.2993 272.976 42.3029 271.726C42.3099 269.365 42.3367 267.006 42.4039 264.645C42.5385 259.927 42.8013 255.212 43.1607 250.505C43.8748 241.155 44.9281 231.848 45.8296 222.516C46.2885 217.765 46.842 213.001 46.9375 208.224C48.0503 208.811 49.1985 209.342 50.3091 209.907C52.3698 210.957 54.4303 212.006 56.4908 213.055C58.4892 214.073 60.4905 215.084 62.4927 216.095C64.5116 217.114 66.517 218.461 68.7883 218.711C70.0024 218.845 70.4419 217.209 69.7265 216.445C68.7923 215.447 67.5517 214.827 66.3046 214.246C67.9616 214.307 69.6207 214.339 71.2806 214.352C71.3034 216.442 71.2297 218.535 71.1249 220.62C70.8672 225.734 70.5089 230.838 70.1696 235.946C69.4643 246.565 68.7817 257.19 68.2491 267.819C68.1188 270.422 67.9882 273.025 67.8577 275.629C67.7943 276.894 67.7062 278.161 67.6703 279.428C67.6301 280.849 67.665 282.63 68.9797 283.508C69.9084 284.127 70.9079 283.835 71.6051 282.983C72.5374 281.844 72.536 280.193 72.611 278.795C72.6283 278.472 72.6437 278.148 72.6604 277.825C74.0843 278.01 75.4979 278.265 76.928 278.404C78.6748 278.575 80.4325 278.675 82.1869 278.72C85.7643 278.812 89.336 278.845 92.9144 278.845C99.9961 278.845 107.077 278.724 114.158 278.61C128.319 278.381 142.479 277.985 156.636 277.545C160.561 277.423 164.486 277.295 168.41 277.162C170.442 277.093 172.474 277.022 174.507 276.95C176.43 276.881 178.532 277.13 180.225 276.131C180.274 276.739 180.324 277.347 180.377 277.955C180.479 279.106 181.288 280.095 182.516 280.095C183.671 280.095 184.663 279.116 184.655 277.955C184.224 267.454 183.291 256.953 182.552 246.47C181.873 236.842 181.237 227.2 180.266 217.594C180.541 217.772 180.878 217.882 181.275 217.884C182.543 217.889 183.809 217.102 184.996 216.684C186.193 216.262 187.41 215.897 188.643 215.598C189.373 215.42 190.106 215.272 190.842 215.145C190.753 216.648 190.776 218.164 190.748 219.662C190.705 221.964 190.633 224.264 190.578 226.566C190.467 231.1 190.428 235.635 190.342 240.17C190.167 249.312 189.88 258.448 189.391 267.579C189.257 270.088 189.106 272.596 188.939 275.103C188.851 276.426 188.758 277.749 188.66 279.071C188.564 280.371 188.34 281.752 188.829 282.998C188.845 282.989 188.86 282.98 188.876 282.971C189.217 284.044 190.717 284.559 191.425 283.338C192.53 281.434 192.275 278.706 192.402 276.565C192.538 274.267 192.66 271.969 192.768 269.669C192.985 265.07 193.135 260.47 193.222 255.866C193.396 246.657 193.366 237.435 192.803 228.24C192.649 225.726 192.434 223.216 192.213 220.708C192.047 218.827 191.955 216.895 191.662 215.013C193.096 214.802 194.542 214.679 196.001 214.643C197.413 214.608 198.324 213.333 198.024 211.985C195.68 201.421 192.419 191.036 188.718 180.874Z" fill="black"/>
<path fill-rule="evenodd" clip-rule="evenodd" d="M129.726 53.9492C141.722 53.9492 154.13 63.2512 158.527 69.187C162.224 74.1775 164.215 96.7446 164.215 111.996C164.215 115.185 165.974 121.198 165.461 124.249C163.579 135.429 155.382 144.806 139.156 144.806C122.931 144.806 111.298 138.372 99.2387 121.098C93.3873 121.098 90.5514 116.609 90.5103 109.525C90.4691 102.44 96.1584 99.863 96.1584 99.863C96.1584 99.863 94.1299 71.9058 99.2387 64.6271C104.348 57.3483 117.73 53.9492 129.726 53.9492Z" fill="white"/>
<path fill-rule="evenodd" clip-rule="evenodd" d="M124.679 49.9962C132.253 49.229 139.675 49.8736 147.139 51.2074C147.709 51.3108 148.033 51.6851 148.153 52.135C151.668 52.2957 155.188 52.5537 158.699 52.7461C159.973 52.8158 160.696 54.0752 160.115 55.2125C159.999 55.4384 159.878 55.6582 159.756 55.8781L159.909 55.8273C160.966 55.4883 162.107 55.3212 163.136 55.8592C164.446 56.544 164.959 58.055 164.67 59.4456C164.596 59.8007 164.471 60.141 164.33 60.473C164.617 60.454 164.906 60.4603 165.194 60.4984C166.723 60.7013 167.86 61.8743 167.94 63.4362C168.059 65.7946 166.54 68.1873 164.75 69.8758C165.01 70.4107 165.109 71.0405 165.001 71.6788C164.786 72.9406 163.857 73.6961 162.78 74.189C163.229 75.6158 163.441 77.1076 163.316 78.632C163.274 79.141 162.829 79.5613 162.359 79.6645C164.11 84.4862 164.996 89.663 165.633 94.7073C166.087 98.2963 166.311 101.906 166.339 105.522C166.352 107.155 166.325 108.789 166.257 110.422L166.229 111.034C166.144 112.799 166.14 114.652 165.823 116.398C166.905 118.239 167.34 120.524 167.524 122.587C167.752 125.14 167.391 127.773 166.586 130.202C163.548 139.378 154.379 145.169 145.17 146.674C136.645 148.067 126.781 146.192 121.799 138.446C121.721 138.324 121.888 138.222 121.985 138.303C125.549 141.202 129.684 142.496 134.175 143.126C141.942 144.212 150.671 142.369 156.903 137.483C159.895 135.137 162.052 131.721 163.001 128.046C163.485 126.167 163.652 124.208 163.461 122.274C163.267 120.313 162.399 118.639 161.852 116.785C161.668 116.159 161.862 115.578 162.244 115.164C162.352 113.659 162.606 112.142 162.703 110.641C162.81 108.935 162.876 107.23 162.899 105.522C162.944 101.98 162.796 98.4313 162.498 94.9041C161.953 88.445 160.506 82.1428 159.656 75.7386C159.342 76.0208 158.891 76.1366 158.419 75.8901L158.37 75.8633L158.112 75.7156C158.097 75.7156 158.08 75.7177 158.065 75.7196C156.302 75.891 154.472 75.6459 152.782 75.1194C151.013 74.5701 149.372 73.7247 147.906 72.5982C147.627 74.0119 147.51 75.4406 147.509 76.882C147.506 77.7824 146.554 78.2497 145.797 77.865C142.444 76.1613 139.242 74.1981 136.202 71.9916C135.846 73.8113 135.492 75.6308 135.134 77.4527C134.997 78.1546 134.103 78.4378 133.531 78.1039C131.254 76.7785 129.287 75.0435 127.685 72.9805C127.366 73.5922 127.045 74.2037 126.722 74.8139L126.236 75.7281C125.756 76.6263 125.114 77.6199 124.064 77.9071C122.953 78.2114 122.025 77.4909 121.652 76.4847C121.537 76.1721 121.432 75.8507 121.335 75.5273C120.388 77.6896 119.319 79.8031 118.111 81.8194C116.298 84.8436 114.122 87.5383 111.952 90.3028C111.293 91.1421 110.165 90.3408 110.074 89.5252C110.021 89.0455 109.977 88.5636 109.939 88.0836C108.674 90.6359 107.355 93.1643 105.918 95.6193L106.124 96.426C106.717 98.8096 107.209 101.21 107.745 103.606C107.917 104.38 107.507 105.485 106.604 105.617C105.525 105.774 104.504 106.325 103.4 105.946C102.195 105.532 101.957 104.49 101.388 103.503C101.274 103.306 101.142 103.125 101 102.954L100.964 103.001C100.875 103.117 100.664 102.99 100.717 102.857L100.779 102.703C100.29 102.184 99.7055 101.752 99.1678 101.286C97.8901 101.071 96.4528 101.307 95.5725 101.826C93.5675 103.009 92.6466 105.448 92.6276 107.691C92.6044 110.316 93.4175 113.266 94.7908 115.511C95.3952 116.498 96.2234 117.389 97.3175 117.827C98.4037 118.262 99.5804 118.127 100.685 118.537C101.416 118.81 101.866 119.622 101.425 120.357C101.395 120.408 101.361 120.454 101.33 120.503L101.658 120.939C101.884 121.241 102.12 121.565 102.34 121.902C102.902 122.549 103.493 123.172 104.066 123.808C105.124 124.981 106.151 126.186 107.192 127.376C108.175 128.498 109.214 129.553 110.285 130.59C111.297 131.573 112.561 132.4 113.49 133.448C114.394 134.471 114.64 136.257 113.152 136.849C111.506 137.505 110.05 135.967 108.942 134.941L108.895 134.898C106.865 133.028 105.031 130.892 103.574 128.54C102.132 129.522 100.045 129.616 98.609 128.634C97.8531 128.117 97.2732 127.249 96.9913 126.304C96.7256 126.364 96.46 126.398 96.201 126.394C96.0677 126.472 95.9339 126.547 95.7987 126.617C94.7274 127.175 93.4114 126.926 92.9213 125.74C92.4749 124.663 92.9349 123.441 93.3369 122.403L93.4199 122.189C93.648 121.598 93.8994 120.953 94.2121 120.346C93.3417 119.691 92.5978 118.877 91.9684 117.952C89.8537 114.834 88.7973 110.275 89.2642 106.556C89.5452 104.311 90.5992 101.986 92.3253 100.473L92.2621 100.308C91.7783 99.0804 91.3387 97.848 91.0537 96.5505C90.7199 95.033 90.557 93.4606 90.4093 91.9156C90.0966 88.6524 90.1811 85.3151 90.5973 82.0646C91.379 75.946 93.3607 69.9394 96.8783 64.848C95.8809 63.6536 95.091 62.2482 95.5027 60.6315C95.691 59.8895 96.1196 59.1859 96.7663 58.7609C97.1232 58.5265 97.548 58.4906 97.9051 58.2961L98.0124 58.237C98.1693 58.1454 98.0493 58.1551 97.9558 57.7297C97.5861 56.0302 97.8924 54.3882 99.7621 53.8239C101.522 53.2935 103.187 54.4199 104.228 55.762C106.954 53.828 110.545 52.8158 113.704 51.9556C117.295 50.9811 120.979 50.3726 124.679 49.9962ZM95.2407 106.997C95.2278 105.613 96.5398 104.759 97.8309 104.986C98.6978 105.137 99.421 105.654 100.1 106.189L100.431 106.451C101.258 107.101 102.207 107.801 102.7 108.72C103.423 110.077 101.896 111.903 100.47 110.952C99.4914 110.296 98.8643 109.245 98.2227 108.269L98.1562 108.168C97.8647 107.731 97.609 107.266 97.2095 106.915L97.1232 106.839C96.9919 106.727 96.8509 106.625 96.6814 106.577C96.3542 106.483 95.7483 106.615 95.6041 107.004L95.5912 107.044C95.5384 107.241 95.2428 107.198 95.2407 106.997Z" fill="black"/>
<path fill-rule="evenodd" clip-rule="evenodd" d="M143.152 128.274C141.732 127.695 140.465 126.728 139.538 125.493C139.216 125.063 139.133 124.61 139.2 124.195C139.276 123.729 139.552 123.306 139.928 123.023C140.305 122.739 140.777 122.598 141.233 122.67C141.63 122.732 142.024 122.949 142.337 123.399L142.402 123.489C142.953 124.235 143.67 124.846 144.488 125.241C145.276 125.621 146.158 125.798 147.07 125.695C148.808 125.499 150.005 124.559 151.278 123.282C151.436 123.121 151.594 122.955 151.752 122.786C151.852 122.633 151.991 122.534 152.146 122.483C152.317 122.425 152.511 122.429 152.689 122.491C152.86 122.55 153.013 122.664 153.116 122.815C153.213 122.958 153.269 123.135 153.251 123.339C153.134 124.661 152.443 125.842 151.461 126.769C150.37 127.799 148.924 128.511 147.563 128.761C146.064 129.036 144.536 128.839 143.152 128.274ZM148.271 107.866C149.866 108.836 152.297 111.098 150.581 113.503C148.56 115.624 145.652 113.193 144.219 112.093C142.889 111.241 141.396 113.433 142.629 114.428C152.986 122.099 157.19 108.12 149.078 106.726C148.184 106.572 147.853 107.566 148.271 107.866ZM129.711 98.9429C129.887 96.7541 133.219 96.257 133.551 98.423C133.847 100.363 133.498 102.145 132.624 103.892C131.79 105.561 129.692 104.783 129.533 103.263C129.32 101.226 129.601 100.304 129.711 98.9429ZM155.076 97.9738C155.541 97.3652 156.212 96.9496 157.015 97.1845C159.526 97.9185 158.786 101.485 157.904 103.22C157.425 104.163 155.876 104.402 155.176 103.572C154.035 102.219 153.489 99.5156 154.939 98.1825C154.979 98.1136 155.023 98.044 155.076 97.9738ZM132.589 89.3654L132.986 89.2959C134.213 89.0836 135.738 88.8796 136.606 89.8665C137.067 90.3898 137.225 91.3624 136.606 91.8633C135.518 92.7446 134.314 92.4031 133.01 92.4777C131.935 92.5394 130.902 92.7174 129.867 93.0135C127.595 93.663 125.744 94.8486 123.804 96.1506C123.55 96.3213 123.29 95.9956 123.411 95.7574C124.531 93.563 126.701 91.7604 128.875 90.6616C130.036 90.0751 131.305 89.5885 132.589 89.3654ZM152.787 88.3823L153.091 88.4445C156.394 89.1353 160.687 90.5153 162.251 93.7615C162.311 94.2205 162.248 94.3189 162.196 94.3832L162.179 94.4046C162.137 94.4595 162.104 94.5351 161.905 94.5976C161.849 94.5844 161.794 94.5705 161.737 94.5557C161.02 94.3677 160.453 94.1087 159.904 93.84L159.308 93.5465C158.617 93.2076 157.92 92.881 157.181 92.6399C155.605 92.1254 153.983 91.7631 152.337 91.5696C151.98 91.5277 151.636 91.4072 151.365 91.2006C151.107 91.0046 150.911 90.7332 150.821 90.3724C150.705 89.9056 150.738 89.5521 150.989 89.1309C151.177 88.8146 151.447 88.5953 151.756 88.4694C152.071 88.3411 152.43 88.3108 152.787 88.3823Z" fill="black"/>
<path fill-rule="evenodd" clip-rule="evenodd" d="M159.38 76.3794C160.601 75.9607 161.575 77.2311 161.34 78.3384C161.063 79.6424 159.703 80.689 158.801 81.6082C157.854 82.5762 156.889 83.5251 155.887 84.4382C153.975 86.1841 151.994 87.8282 149.904 89.3605L149.265 89.8289C147.35 91.2307 145.44 92.6001 143.389 93.8137C142.278 94.4689 141.156 95.1029 140.019 95.7137C139.614 95.9314 139.119 96.2672 138.61 96.5168C140.471 97.954 141.904 100.148 142.214 102.192C142.983 107.268 139.713 111.973 135.098 113.843C132.798 114.775 130.237 115.046 127.778 114.765C125.277 114.479 122.742 113.74 121.117 111.69C119.674 109.87 119.154 107.547 119.051 105.267C119.002 104.185 119.013 103.119 119.241 102.162C118.246 102.17 117.251 102.166 116.264 102.177C113.826 102.2 111.384 102.211 108.944 102.143C106.428 102.071 103.924 101.959 101.416 101.735C100.316 101.636 99.2212 101.473 98.1266 101.317C97.0641 101.167 95.8916 101.109 94.8986 100.674C94.831 100.647 94.859 100.549 94.9176 100.53C95.9761 100.188 97.1782 100.249 98.281 100.182L99.3559 100.116C100.251 100.063 101.146 100.014 102.044 99.9849C104.118 99.9167 106.19 99.8999 108.264 99.8643L109.153 99.8477C111.593 99.7991 114.033 99.7716 116.473 99.6934C117.485 99.6617 118.499 99.6026 119.516 99.5476C119.634 99.279 119.807 99.0338 119.974 98.7952C120.473 98.0808 121.106 97.451 121.763 96.8804C123.109 95.7051 124.624 94.8324 126.314 94.2469C127.989 93.6688 130.439 93.3819 132.211 93.4193C133.982 93.4566 136.508 93.7066 137.319 95.1558C137.404 95.3058 138.948 95.0163 139.406 94.6652C140.478 93.8475 141.53 93.0063 142.563 92.144C144.481 90.5399 146.454 88.9611 148.271 87.2449C150.145 85.4738 152.004 83.6731 153.787 81.8132C154.683 80.8811 155.577 79.947 156.445 78.9917C157.332 78.0174 158.095 76.8169 159.38 76.3794Z" fill="black"/>
</svg>
