<svg width="240" height="324" viewBox="0 0 240 324" fill="none" xmlns="http://www.w3.org/2000/svg">
<path fill-rule="evenodd" clip-rule="evenodd" d="M55.2056 285.479C57.7347 285.636 60.2637 285.759 62.7925 285.853C95.8623 287.086 128.905 283.315 161.955 282.49C173.464 282.186 184.914 282.338 196.394 283.262C197.519 283.353 198.805 282.142 198.667 280.989C196.546 262.674 193.892 244.408 192.517 226.019C192.516 225.046 192.642 224.075 192.976 223.159C193.039 223.087 193.366 222.281 193.656 222.231C193.561 222.301 193.991 222.178 193.717 222.199C195.377 221.927 197.005 220.135 195.8 218.42C183.392 199.395 166.454 182.03 161.005 159.433C159.717 153.324 155.067 152.946 150.113 150.426C148.567 149.506 144.787 146.959 144.172 145.188C142.703 138.804 145.29 132.55 137.73 129.968C132.74 128.583 123.919 127.412 118.869 128.872C112.71 130.923 113.171 137.867 109.598 142.644C107.75 145.407 104.6 149.19 101.692 149.613C100.282 149.819 99.2435 146.966 97.8359 147.162C75.8949 152.493 46.0018 188.859 36.5716 208.99C34.4465 215.326 41.3001 213.415 40.8791 219.783C40.36 231.864 39.2247 247.329 39.898 259.425C40.5287 266.445 40.062 273.801 42.2433 280.557C41.6562 281.27 42.4998 281.99 43.1881 282.3C44.0554 283.776 52.5889 285.275 55.2056 285.479Z" fill="white"/>
<path fill-rule="evenodd" clip-rule="evenodd" d="M112.328 135.035C112.898 132.467 116.982 133.569 116.282 136.126C115.199 140.08 112.951 143.817 109.778 146.44C107.327 148.465 103.987 150.271 100.674 150.605C100.985 150.908 101.282 151.231 101.595 151.539C102.301 152.241 103.051 152.892 103.824 153.518C105.413 154.803 107.065 155.959 108.869 156.927C116.075 160.795 124.216 161.687 132.265 160.786C136.085 160.359 139.961 159.634 143.553 158.237C145.218 157.591 146.836 156.741 148.264 155.667L148.638 155.387C149.389 154.819 150.391 154.019 150.861 153.144C149.432 153.465 147.626 151.943 146.635 151.058C145.552 150.086 144.639 148.832 143.965 147.547C142.644 145.026 141.945 141.773 143.052 139.07C143.126 138.89 143.363 138.92 143.384 139.114C143.711 142.266 144.561 145.22 146.821 147.554C147.825 148.587 149.027 149.454 150.339 150.056L150.523 150.141C151.082 150.399 151.671 150.703 151.906 151.256C151.997 151.246 152.088 151.254 152.175 151.278C152.253 151.299 152.325 151.322 152.394 151.347C152.238 151.041 152.156 150.679 152.17 150.252C152.226 148.597 154.497 148.547 154.811 150.02C154.754 149.826 154.678 150.014 154.822 150.073C154.82 150.056 154.816 150.037 154.811 150.02L154.816 150.036L154.824 150.073L154.822 150.073C154.828 150.1 154.832 150.127 154.835 150.155L154.838 150.192L154.837 150.161C154.835 150.138 154.832 150.118 154.829 150.099L154.824 150.073C154.845 150.083 154.875 150.09 154.909 150.09L154.922 150.095C154.975 150.118 155.162 150.205 155.217 150.227C155.595 150.367 156.018 150.411 156.404 150.531C157.243 150.789 157.983 151.216 158.494 151.943C158.862 152.465 159.066 153.063 159.151 153.685C162.863 155.471 166.376 157.791 169.319 160.664C175.888 167.072 180.468 175.092 184.226 183.394C186.139 187.621 187.844 191.937 189.511 196.265L189.774 196.948C191.561 201.6 193.142 206.302 193.53 211.303C193.566 211.751 193.418 212.172 193.163 212.521C193.254 212.897 193.3 213.273 193.287 213.641C193.285 213.698 193.281 213.755 193.277 213.812C193.877 213.801 194.464 214.053 195.022 214.759C195.248 214.687 195.493 214.678 195.734 214.756C197.202 215.226 197.439 216.838 197.716 218.189C198.001 219.584 198.125 221.013 198.128 222.435C198.128 222.944 197.836 223.587 197.342 223.805C196.412 224.214 195.411 224.483 194.449 224.855C193.727 225.134 193.002 225.398 192.271 225.645C192.677 226.353 192.808 227.338 193.028 228.084C193.372 229.249 193.649 230.418 193.881 231.61C195.457 239.715 196.549 247.907 198.024 256.029C198.761 260.098 199.619 264.139 200.494 268.18C200.925 270.166 201.383 272.149 201.875 274.123C202.138 275.175 202.41 276.228 202.691 277.274C202.773 277.58 202.855 277.884 202.939 278.189L203.086 278.722C203.407 278.899 203.682 279.168 203.872 279.535C204.567 280.88 204.168 282.395 202.835 283.152C201.385 283.976 199.655 283.198 198.856 281.86C198.294 280.916 198.111 279.664 197.834 278.614C197.521 277.435 197.223 276.249 196.936 275.063C194.984 267.008 193.677 258.812 192.692 250.585L192.622 249.997C192.121 245.762 191.637 241.516 191.325 237.261C191.171 235.171 191.048 233.081 190.972 230.986C190.934 229.908 190.995 228.824 191.056 227.748C191.084 227.277 191.124 226.803 191.139 226.332L191.144 226.265C191.147 226.217 191.153 226.155 191.157 226.089L191.162 226.009C189.704 226.465 188.225 226.846 186.732 227.167C183.554 227.854 180.303 228.237 177.06 228.042C177.512 233.415 178.101 238.774 178.925 244.098C179.72 249.226 180.637 254.342 181.672 259.428C182.19 261.983 182.749 264.532 183.339 267.072C183.656 268.429 184.017 269.777 184.302 271.141C184.471 271.952 184.524 272.63 184.184 273.389C184.558 274.41 184.891 275.435 185.218 276.401L185.316 276.689C185.895 278.379 186.994 280.108 185.847 281.769C185.253 282.627 184.286 283.118 183.311 283.147C183.294 283.158 183.275 283.171 183.256 283.181C182.732 283.462 182.128 283.517 181.554 283.397C180.681 283.568 179.806 283.733 178.93 283.883C176.764 284.257 174.588 284.565 172.408 284.826C168.256 285.32 164.078 285.591 159.901 285.741C144.609 286.292 129.301 285.324 114.003 285.603C106.209 285.745 98.4155 286.096 90.6346 286.561C86.7515 286.793 82.8662 287.043 78.981 287.235L77.7784 287.294C74.3039 287.46 70.8269 287.588 67.355 287.334C67.2874 287.33 67.2345 287.302 67.1986 287.265C66.0007 287.129 64.7967 286.026 64.9169 284.752C65.4345 279.324 65.9522 273.897 66.4719 268.467C67.3951 258.794 68.3268 249.12 69.2691 239.448L69.4052 238.052C69.7218 234.793 70.0241 231.527 70.1775 228.255C69.4043 228.201 68.6334 228.131 67.862 228.046C59.5052 227.131 51.494 224.602 43.8018 221.281L43.4902 221.146C42.7972 220.843 42.0388 220.541 41.2613 220.218C41.2742 221.695 41.2254 223.175 41.219 224.637C41.2085 227.066 41.2275 229.494 41.2338 231.92C41.2486 236.921 41.4388 241.923 41.6881 246.916C42.1254 255.733 42.6388 264.538 43.4162 273.334C43.6127 275.547 43.8791 277.756 44.0669 279.969C44.1791 281.273 43.9106 282.359 42.7171 283.044C42.1296 283.382 41.6754 283.24 41.0923 282.968C39.6683 282.3 39.6282 280.721 39.493 279.347C39.3897 278.312 39.2944 277.276 39.2014 276.238C39.0031 274.026 38.8317 271.813 38.6923 269.595C38.1411 260.786 37.9803 251.986 38.3606 243.166C38.5371 239.041 38.792 234.907 39.1303 230.789L39.2099 229.839C39.4888 226.548 39.6683 223.094 40.2451 219.783C37.919 218.751 35.6141 217.439 34.5451 215.257C33.1594 212.425 34.6824 210.003 36.8521 208.336C36.831 208.055 36.8521 207.776 36.9113 207.522C37.5345 204.823 38.5782 202.156 39.5859 199.582C40.6021 196.995 41.724 194.448 42.9578 191.956C47.9099 181.974 54.6747 172.852 62.7388 165.167C66.7444 161.351 71.1282 157.823 75.8078 154.864C78.1275 153.4 80.5064 152.047 82.9698 150.842L83.334 150.665C85.0488 149.832 86.9722 148.947 88.8791 148.484C89.0775 148.336 89.2782 148.196 89.481 148.063C90.231 147.564 91.2493 147.925 91.693 148.638C91.9087 148.471 92.1578 148.323 92.443 148.19L92.7249 148.061C94.436 147.29 96.4906 146.569 98.3479 147.076C99.5015 147.391 100.41 148.24 100.818 149.323C101.754 148.828 102.673 148.319 103.57 147.695C105.013 146.698 106.321 145.459 107.496 144.159C109.851 141.545 111.563 138.482 112.328 135.035ZM194.065 217.462C193.904 217.508 193.735 217.525 193.56 217.504C193.877 217.541 193.242 217.729 193.068 217.818L193.055 217.825C192.738 218.007 192.419 218.182 192.096 218.352C191.342 218.749 190.571 219.106 189.787 219.442C188.242 220.1 186.647 220.605 185.01 220.975C183.408 221.336 181.729 221.547 180.087 221.581C178.989 221.602 177.685 221.552 176.549 221.228C176.68 223.221 176.825 225.212 176.988 227.201L179.233 226.686C181.478 226.171 183.72 225.643 185.935 225.001C187.598 224.519 189.237 223.955 190.858 223.346C191.707 223.027 192.55 222.689 193.382 222.325C193.797 222.144 194.185 221.929 194.569 221.711L194.897 221.524C194.821 220.634 194.682 219.761 194.479 218.882C194.373 218.417 194.194 217.94 194.065 217.462ZM40.3507 208.076C40.0655 209.002 39.6282 209.866 38.631 210.075C38.2782 210.149 37.9826 210.109 37.7373 209.989L37.6785 210.107C36.8586 211.791 36.6178 213.568 38.5042 214.864C39.3558 215.45 40.2831 215.957 41.2422 216.411C42.9575 217.228 44.7841 217.884 46.5063 218.552L46.8493 218.686C49.9296 219.895 53.0584 220.996 56.2359 221.917C59.4601 222.849 62.7408 223.597 66.0622 224.073C67.4627 224.272 68.8739 224.411 70.2875 224.502C70.3106 222.6 70.3 220.696 70.2936 218.793C69.7908 218.73 69.2922 218.662 68.8108 218.605C67.3444 218.434 65.8824 218.225 64.4289 217.965C61.3929 217.422 58.3887 216.671 55.4584 215.712C50.0289 213.93 44.9775 211.383 40.3507 208.076ZM99.8798 149.811C98.646 148.505 96.2861 148.976 94.7969 149.61C94.3467 149.802 93.8924 149.997 93.4615 150.231L93.378 150.278C92.8761 150.567 92.8786 150.739 93.1236 151.315C93.4425 152.074 93.8861 152.807 94.3086 153.511C96.1173 156.532 98.4981 159.161 101.217 161.382C110.847 169.244 124.68 172.017 136.723 169.384C142.502 168.121 148.077 165.573 152.332 161.393L152.719 161.008C154.435 159.29 156.789 156.805 156.624 154.26C156.546 153.036 155.547 152.966 154.526 152.729C154.108 152.632 153.709 152.495 153.362 152.3C153.641 153.503 152.156 155.291 151.389 156.041C149.781 157.616 147.846 158.846 145.799 159.765C141.903 161.517 137.665 162.346 133.446 162.87C128.659 163.466 123.768 163.413 119.016 162.532C114.882 161.765 110.807 160.313 107.249 158.051C105.618 157.015 104.01 155.834 102.649 154.458L102.36 154.166C101.378 153.17 100.235 151.967 99.6474 150.66C99.4234 150.662 99.2016 150.656 98.9798 150.641C98.8234 150.633 98.7391 150.411 98.8953 150.328C99.0706 150.235 99.246 150.143 99.4213 150.052C99.392 149.954 99.3664 149.859 99.3453 149.762C99.3284 149.68 99.415 149.604 99.491 149.65C99.5967 149.713 99.6981 149.781 99.7974 149.853C99.8248 149.84 99.8523 149.826 99.8798 149.811Z" fill="black"/>
<path fill-rule="evenodd" clip-rule="evenodd" d="M133.581 60.2713C165.379 61.2784 167.297 76.3883 167.297 101.728C167.297 127.068 150.801 143.036 144.727 145.824C138.653 148.612 122.66 160.588 108.226 155.069C93.7932 149.55 97.9729 126.233 97.9729 116.215C97.9729 106.196 101.782 59.2642 133.581 60.2713Z" fill="white"/>
<path fill-rule="evenodd" clip-rule="evenodd" d="M146.481 137.502C140.642 140.763 133.955 140.889 127.674 138.837C123.907 137.61 120.453 135.711 117.22 133.441C114.408 131.465 111.899 129.274 109.412 126.946C107.365 122.43 105.542 117.922 104.688 113.008C103.923 108.597 103.822 104.017 104.709 99.6149C111.271 94.2149 117.793 88.7705 124.306 83.3094C127.623 80.5278 130.949 77.7615 134.314 75.0391C136.023 73.6568 137.716 72.2535 139.418 70.8649C139.699 70.6366 139.978 70.4084 140.259 70.1801C143.775 72.7544 147.544 74.9611 151.034 77.5774C152.861 78.9491 154.638 80.4095 156.33 81.9458C157.218 82.7512 158.084 83.5818 158.929 84.4336C159.702 85.2116 160.448 86.3273 161.545 86.6213C161.695 86.6612 161.836 86.6697 161.969 86.6507C163.435 99.4923 164.477 113.359 158.196 125.021C155.456 130.108 151.571 134.657 146.481 137.502ZM108.493 142.221C107.689 141.484 108.887 140.292 109.688 141.025C114.718 145.634 121.293 148.077 127.934 149.208C129.006 149.391 128.549 151.02 127.485 150.838C120.551 149.658 113.736 147.025 108.493 142.221ZM102.458 149.292C101.498 148.777 102.353 147.318 103.311 147.832C107.23 149.935 111.527 151.027 115.887 151.764C116.959 151.946 116.502 153.575 115.438 153.395C110.93 152.632 106.507 151.465 102.458 149.292ZM118.405 78.0617C121.657 75.1427 125.151 72.3653 128.842 70.0217C132.577 67.6503 136.657 66.2322 141.066 66.1984C140.758 66.4456 140.464 66.7204 140.166 66.9759C139.334 67.6884 138.503 68.4049 137.673 69.1192C136.012 70.5501 134.348 71.9786 132.708 73.4329C129.48 76.2988 126.241 79.1499 123.02 82.0222C116.827 87.5426 110.768 93.1833 104.84 98.9872C104.872 98.8456 104.906 98.704 104.939 98.5626C106.902 90.362 112.241 83.5967 118.405 78.0617ZM143.893 66.5555C143.914 66.4921 143.929 66.4306 143.937 66.3716C152.399 67.4749 159.466 73.7031 161.802 81.9037C161.599 82.187 161.487 82.523 161.529 82.88C161.551 83.0598 161.572 83.2416 161.593 83.4212C161.303 83.134 161.005 82.8654 160.752 82.6097C159.909 81.7558 159.045 80.925 158.158 80.1155C156.343 78.4608 154.458 76.9138 152.472 75.4702C149.018 72.9594 145.279 70.6515 141.161 69.4468C141.432 69.2248 141.702 69.0029 141.975 68.7831C142.788 68.1214 143.542 67.5763 143.893 66.5555ZM159.062 57.7866C153.867 52.1076 146.673 47.9483 139.098 46.5026C131.864 45.1204 124.374 46.0313 117.54 48.7176C103.239 54.3395 91.9551 66.7016 86.6713 81.0267C83.591 89.3729 82.5811 98.5223 83.5067 107.357C84.4276 116.151 87.0748 125.233 91.8917 132.715C92.3332 133.399 92.817 134.057 93.3241 134.693C93.098 137.275 92.2361 139.807 90.8797 142.01C90.8068 142.128 90.7299 142.243 90.6539 142.359C89.265 143.4 87.8244 144.376 86.418 145.384C85.1992 146.258 83.9928 147.154 82.8467 148.121C81.7648 149.034 80.5084 150.051 79.7759 151.284C79.1757 152.293 78.9306 153.666 79.7499 154.629C80.7372 155.789 82.41 155.38 83.7473 155.38C83.8618 155.38 83.9761 155.382 84.0904 155.384C84.492 155.636 84.9057 155.865 85.3065 156.077C89.3565 158.224 93.4213 160.349 97.4903 162.462C105.595 166.674 113.665 171.056 121.936 174.934C125.769 176.732 129.871 178.305 134.164 178.299C138.191 178.292 141.831 176.692 144.975 174.26C148.558 171.489 151.554 167.97 154.461 164.521C155.623 163.14 156.761 161.743 157.879 160.327C160.025 159.611 162.155 159.402 164.069 160.784C165.605 161.894 167.629 160.384 167.665 158.719C167.678 158.127 167.652 157.544 167.589 156.969C167.205 153.418 165.468 150.206 163.511 147.226C162.443 145.596 161.317 143.996 160.184 142.411C159.918 142.037 159.656 141.663 159.402 141.282C163.951 134.583 167.559 127.154 169.778 119.391C172.108 111.222 172.9 102.751 172.381 94.2868C171.582 81.3141 168.024 67.5848 159.062 57.7866Z" fill="black"/>
<path fill-rule="evenodd" clip-rule="evenodd" d="M143.152 128.274C141.732 127.695 140.465 126.728 139.538 125.493C139.216 125.063 139.133 124.61 139.2 124.195C139.276 123.729 139.552 123.306 139.928 123.023C140.305 122.739 140.777 122.598 141.233 122.67C141.63 122.732 142.024 122.949 142.337 123.399L142.402 123.489C142.953 124.235 143.67 124.846 144.488 125.241C145.276 125.621 146.158 125.798 147.07 125.695C148.808 125.499 150.005 124.559 151.278 123.282C151.436 123.121 151.594 122.955 151.752 122.786C151.852 122.633 151.991 122.534 152.146 122.483C152.317 122.425 152.511 122.429 152.689 122.491C152.86 122.55 153.013 122.664 153.116 122.815C153.213 122.958 153.269 123.135 153.251 123.339C153.134 124.661 152.443 125.842 151.461 126.769C150.37 127.799 148.924 128.511 147.563 128.761C146.064 129.036 144.536 128.839 143.152 128.274ZM148.271 107.866C149.866 108.836 152.297 111.098 150.581 113.503C148.56 115.624 145.652 113.193 144.219 112.093C142.89 111.241 141.396 113.433 142.629 114.428C152.987 122.099 157.19 108.12 149.078 106.726C148.184 106.572 147.853 107.566 148.271 107.866ZM129.711 98.9429C129.887 96.7541 133.219 96.257 133.551 98.423C133.847 100.363 133.498 102.145 132.624 103.892C131.79 105.561 129.692 104.783 129.533 103.263C129.32 101.226 129.601 100.304 129.711 98.9429ZM155.076 97.9738C155.541 97.3652 156.212 96.9496 157.015 97.1845C159.526 97.9185 158.786 101.485 157.904 103.22C157.425 104.163 155.876 104.402 155.176 103.572C154.036 102.219 153.489 99.5156 154.94 98.1825C154.979 98.1136 155.023 98.044 155.076 97.9738ZM132.589 89.3654L132.986 89.2959C134.213 89.0836 135.738 88.8796 136.606 89.8665C137.067 90.3898 137.225 91.3624 136.606 91.8633C135.518 92.7446 134.314 92.4031 133.01 92.4777C131.935 92.5394 130.902 92.7174 129.867 93.0135C127.595 93.663 125.744 94.8486 123.804 96.1506C123.55 96.3213 123.29 95.9956 123.411 95.7574C124.531 93.563 126.701 91.7604 128.875 90.6616C130.036 90.0751 131.305 89.5885 132.589 89.3654ZM152.787 88.3823L153.091 88.4445C156.395 89.1353 160.687 90.5153 162.251 93.7615C162.311 94.2205 162.248 94.3189 162.197 94.3832L162.18 94.4046C162.137 94.4595 162.104 94.5351 161.905 94.5976C161.85 94.5844 161.794 94.5705 161.737 94.5557C161.02 94.3677 160.453 94.1087 159.904 93.84L159.308 93.5465C158.617 93.2076 157.92 92.881 157.181 92.6399C155.605 92.1254 153.983 91.7631 152.337 91.5696C151.98 91.5277 151.636 91.4072 151.365 91.2006C151.108 91.0046 150.911 90.7332 150.821 90.3724C150.705 89.9056 150.739 89.5521 150.989 89.1309C151.177 88.8146 151.447 88.5953 151.756 88.4694C152.071 88.3411 152.43 88.3108 152.787 88.3823Z" fill="black"/>
<path fill-rule="evenodd" clip-rule="evenodd" d="M167.178 109.153C164.613 111.805 160.331 112.566 156.919 111.144C148.156 107.481 152.445 96.0578 159.203 92.99C160.047 92.7795 161.175 92.2801 162.203 92.1668C162.296 92.1212 162.498 92.2532 162.743 92.1283C170.195 92.9606 171.892 104.532 167.178 109.153ZM138.915 109.832C136.038 113.649 130.69 114.827 126.32 113.052C117.687 109.651 120.749 99.5216 126.656 95.5503C139.132 90.8602 144.285 102.794 138.915 109.832ZM120.201 101.374C120.193 101.37 120.185 101.369 120.177 101.365C120.222 101.345 120.268 101.325 120.314 101.304C120.299 101.343 120.283 101.381 120.268 101.42C120.246 101.404 120.226 101.386 120.201 101.374ZM173.117 97.2481C172.413 97.2496 171.395 97.3654 170.812 97.8542C169.374 93.0031 164.067 88.5134 159.451 91.7872C155.816 92.9566 153.119 95.5501 151.586 98.9981C148.822 97.3533 144.476 98.0557 142.079 100.231C140.509 95.0418 136.646 93.2248 132.048 92.9566C127.029 92.1342 122.027 97.0103 120.466 100.922C119.168 100.774 117.229 100.361 116.008 101.162C108.084 99.0834 94.2299 97.9373 92.619 99.0923C91.471 99.533 90.841 102.244 92.4445 102.39C93.8418 102.192 92.2814 100.404 93.6899 100.209C101.195 99.7433 108.48 101.255 115.906 101.89C116.569 102.782 118.711 103.08 119.854 102.722C118.054 109.357 121.939 113.872 127.76 115.224C136.775 117.296 144.617 109.229 142.26 100.838C144.991 99.4791 148.132 99.5374 151.106 100.253C146.135 118.554 175.598 117.733 170.997 98.4813C174.059 100.005 174.724 97.5556 173.117 97.2481Z" fill="black"/>
</svg>
