<svg width="240" height="324" viewBox="0 0 240 324" fill="none" xmlns="http://www.w3.org/2000/svg">
<path fill-rule="evenodd" clip-rule="evenodd" d="M51.5018 284.881C64.4381 285.244 76.6584 285.643 89.5698 284.881C110.231 283.603 170.864 285.908 184.192 284.881C185.198 284.804 188.657 285.908 188.729 284.881C189.315 277.736 189.695 205.447 187.954 200.473C186.213 195.499 177.622 171.588 166.674 160.438C163.621 157.426 158.976 156.259 156.41 152.778C154.197 148.983 154.369 146.755 152.184 144.758C151.236 143.891 149 143.54 147.338 142.337C145.668 140.676 147.25 137.019 146.564 134.706C145.15 128.931 139.943 125.226 134.252 124.353C126.342 122.459 117.991 124.25 114.202 130.466C112.791 132.779 113.542 135.592 111.807 139.299C111.931 142.101 108.661 142.778 106.707 143.888L102.826 147.813C90.8678 154.543 76.8009 158.178 66.3235 167.221C57.4156 176.261 48.5554 186.709 44.603 198.94C43.7848 202.273 43.5178 205.718 43.1787 209.123C42.2106 219.075 39.5151 228.735 37.1954 238.429C34.5503 250.642 32.0847 263.608 35.6496 275.937C36.6774 278.546 49.162 284.759 51.5018 284.881Z" fill="white"/>
<path fill-rule="evenodd" clip-rule="evenodd" d="M113.516 131.461C113.62 131.122 114.066 131.218 114.1 131.539C114.435 134.726 114.013 138.057 113.607 141.223C113.413 142.751 113.301 144.341 113.005 145.847C112.967 146.008 112.931 146.171 112.897 146.331C112.994 146.505 113.282 146.699 113.419 146.832L114.015 147.412L115.211 148.57C117.55 150.835 119.888 153.103 122.227 155.369L125.66 158.698C126.837 159.839 128.174 160.932 129.207 162.204C129.767 162.895 129.894 163.742 129.342 164.482C129.07 164.848 128.58 165.114 128.083 165.169C128.277 165.439 128.427 165.746 128.523 166.086C128.717 166.78 128.016 167.631 127.27 167.342C126.423 167.016 125.723 166.433 124.861 166.154C123.991 165.871 123.045 165.816 122.142 165.968C121.728 166.038 121.323 166.141 120.927 166.272C125.155 168.219 129.729 169.337 134.394 169.497C135.344 169.529 136.293 169.516 137.237 169.453C138.826 169.349 140.404 169.109 141.955 168.72C143.174 168.413 144.381 168.028 145.551 167.563C146.126 167.335 146.694 167.084 147.243 166.799L147.291 166.77C147.416 166.692 149.711 165.39 149.751 165.194C149.791 164.999 149.791 164.931 149.716 164.76C149.642 164.59 149.434 164.472 149.434 164.472C148.725 164.169 147.99 163.887 147.216 163.882C145.432 163.871 143.487 165.19 142.012 166.088C140.392 167.075 138.902 168.229 137.343 169.299C137.307 169.324 137.267 169.335 137.229 169.335C137.064 169.335 136.912 169.132 137.018 168.973C138.135 167.327 139.643 165.957 141.221 164.76L141.857 164.283C143.302 163.205 144.992 162.012 146.749 161.751C148.901 161.434 151.15 162.777 153.07 163.563L156.471 164.955C157.077 165.203 157.737 165.414 158.347 165.695L156.922 161.234C156.21 159.003 155.499 156.771 154.796 154.538L154.66 154.101C153.959 151.834 153.316 149.476 152.149 147.405C151.87 146.908 151.551 146.441 151.236 145.97C150.908 145.482 150.786 144.943 150.374 144.507C149.559 143.643 148.39 143.136 147.275 142.804C147.002 142.724 147.083 142.364 147.338 142.337C148.483 142.216 149.575 142.483 150.609 142.966L151.039 143.171C152.017 143.634 152.971 144.065 153.697 144.896C155.353 146.794 156.214 149.184 157.004 151.542L157.215 152.175C157.511 152.078 159.52 152.691 159.771 152.837C167.303 156.022 173.104 161.952 177.347 168.901C181.995 176.516 184.525 185.218 186.615 193.828C187.26 196.486 187.876 199.151 188.469 201.823C185.829 202.838 183.024 203.37 180.553 204.801C179.612 205.346 180.462 206.808 181.406 206.261C183.72 204.921 186.356 204.426 188.834 203.484C190.177 209.669 191.371 215.888 192.372 222.132C195.446 241.297 197.387 260.775 197.265 280.203C197.263 280.632 197.136 281.111 196.901 281.524C197.039 281.456 197.147 281.376 197.208 281.279C197.987 280.055 199.942 281.19 199.158 282.42L199.043 282.598C198.455 283.505 197.906 284.198 196.872 284.711C195.83 285.227 194.702 285.313 193.553 285.343C189.647 285.446 185.738 285.513 181.827 285.561C181.291 281.377 181.073 277.152 180.334 272.993C180.144 271.923 178.515 272.376 178.705 273.442C179.418 277.459 179.646 281.537 180.144 285.581C171.784 285.671 163.42 285.672 155.066 285.696C143.746 285.729 132.426 285.706 121.106 285.699L116.254 285.698C103.177 285.698 90.0993 285.655 77.0221 285.569L73.912 285.547C72.6748 278.251 71.8327 270.892 71.8171 263.478C71.8147 262.39 70.1246 262.388 70.1269 263.478C70.1426 270.884 70.9754 278.243 72.2011 285.537C69.1048 285.524 66.0099 285.535 62.9134 285.645L61.3373 285.701C58.184 285.809 55.0242 285.876 51.8768 285.624C48.3824 285.343 44.8481 284.7 41.715 283.054C40.304 282.311 39.0615 281.361 37.9997 280.245C39.079 279.617 40.1738 279.014 41.2194 278.33C42.1259 277.736 41.2802 276.272 40.3663 276.87C39.2396 277.608 38.0552 278.25 36.8952 278.932C36.0552 277.811 35.3658 276.566 34.8423 275.223C34.0162 273.103 33.6972 270.823 33.4204 268.578C33.0932 265.935 32.9578 263.269 32.9578 260.606C32.9578 255.006 33.5472 249.422 34.3692 243.889C35.1553 238.588 36.1945 233.33 37.2928 228.088L37.443 227.373C38.5268 222.221 39.5599 217.053 40.8021 211.936C41.9508 207.205 43.2782 202.496 44.8602 197.877C46.2683 198.748 47.7418 199.51 49.128 200.418C50.0409 201.015 50.8887 199.552 49.9811 198.958C48.5022 197.99 46.9249 197.185 45.4325 196.239C47.2014 191.294 49.2778 186.464 51.7671 181.838C56.7528 172.575 63.4714 164.288 72.0763 158.171C76.3838 155.111 81.1099 152.606 86.0728 150.784C91.1326 148.925 96.3761 147.906 101.738 147.488C101.891 147.475 101.977 147.617 101.971 147.748L101.969 147.773L102.18 147.807C102.258 147.276 102.419 146.762 102.725 146.291C103.422 145.218 104.744 144.529 105.801 143.869L106.051 143.713C107.308 142.934 108.634 142.166 110.096 141.893C110.147 141.884 110.178 141.937 110.144 141.978C109.18 143.083 107.948 143.928 106.818 144.863L106.559 145.08C105.622 145.851 104.317 146.725 104.282 148.014C104.242 149.531 104.552 151.11 104.664 152.623C104.776 154.132 104.854 155.639 104.894 157.152C105.04 162.574 104.865 167.997 104.385 173.397L106.506 171.976C109.807 169.766 113.119 167.562 116.499 165.492C118.545 164.239 120.843 163.167 123.294 163.216C123.98 163.229 124.756 163.328 125.5 163.54C124.699 162.781 123.932 161.973 123.148 161.211C121.857 159.953 120.566 158.695 119.276 157.44L115.554 153.813L111.83 150.186C110.677 149.06 109.325 148.022 109.447 146.247C109.547 144.831 110.267 143.421 110.759 142.056C110.829 141.859 110.892 141.665 110.951 141.473C111.945 138.171 112.508 134.749 113.516 131.461ZM161.62 273.107C160.85 272.336 159.655 273.531 160.425 274.302L160.832 274.708C161.513 275.387 162.187 276.086 162.658 276.926L162.727 277.053C163.234 278.016 164.693 277.162 164.186 276.199C163.559 275.009 162.561 274.048 161.62 273.107ZM128.634 272.889C126.183 272.421 123.821 272.421 121.37 272.889C120.303 273.093 120.755 274.723 121.82 274.52C123.963 274.11 126.041 274.11 128.185 274.52C129.248 274.722 129.703 273.093 128.634 272.889ZM95.5347 255.846C94.4801 255.578 94.0301 257.209 95.0856 257.476L95.6052 257.607C97.3717 258.043 99.0541 258.369 100.889 257.963C101.937 257.732 101.513 256.141 100.481 256.324L100.44 256.333C98.7418 256.708 97.1776 256.262 95.5347 255.846ZM154.319 244.863C153.538 244.104 152.342 245.299 153.124 246.059C154.099 247.008 155.249 247.729 156.642 247.767C157.713 247.797 157.729 246.157 156.69 246.079L156.642 246.077C155.708 246.051 154.964 245.491 154.319 244.863ZM54.8489 240.348C55.822 239.861 54.967 238.402 53.996 238.888L48.1549 241.809C47.1818 242.296 48.0368 243.755 49.0077 243.269L54.8489 240.348ZM170.271 240.72C169.183 240.69 169.184 242.38 170.271 242.411C171.293 242.44 172.341 242.827 173.252 243.269C174.226 243.743 175.084 242.285 174.105 241.809C172.914 241.231 171.607 240.757 170.271 240.72ZM115.694 232.557C116.588 231.949 115.744 230.483 114.841 231.097C113.609 231.934 112.492 232.924 111.28 233.786L110.947 234.018C110.052 234.626 110.897 236.092 111.8 235.478C113.144 234.565 114.35 233.47 115.694 232.557ZM178.546 220.268C177.458 220.268 177.457 221.958 178.546 221.959L178.752 221.958C179.65 221.953 180.596 221.928 181.431 222.287L181.527 222.33C182.505 222.792 183.364 221.334 182.38 220.871C181.156 220.294 179.876 220.269 178.546 220.268ZM84.6839 219.06L84.8259 219.007C85.8421 218.642 85.4039 217.007 84.3765 217.377C82.8284 217.933 81.6239 218.984 80.2809 219.897C79.386 220.505 80.2306 221.97 81.1338 221.357C82.291 220.571 83.3676 219.575 84.6839 219.06ZM148.079 214.662L148.306 214.54C149.274 214.041 148.42 212.582 147.454 213.08C146.686 213.474 146 214 145.247 214.418L145.02 214.54C144.052 215.038 144.906 216.498 145.873 216C146.64 215.605 147.326 215.08 148.079 214.662ZM122.367 198.284L122.193 198.116C121.415 197.354 120.219 198.549 120.998 199.312C122.943 201.216 125.242 202.662 127.561 204.06L127.983 204.314C128.918 204.875 129.769 203.413 128.836 202.854L128.217 202.481C126.155 201.237 124.117 199.953 122.367 198.284ZM75.5959 196.706C76.2513 195.855 74.8261 195.021 74.16 195.823L74.1365 195.852C73.4543 196.738 72.6448 197.541 71.7988 198.273L71.6397 198.409C71.1361 198.838 70.2194 199.756 69.5119 199.816C68.4361 199.908 68.4264 201.6 69.5119 201.507C70.6066 201.414 71.5487 200.643 72.3758 199.983C73.5796 199.022 74.6564 197.926 75.5959 196.706ZM165.514 190.547C166.299 189.809 165.139 188.634 164.347 189.326L164.319 189.351C162.852 190.73 160.74 191.1 158.851 191.568C157.796 191.83 158.243 193.461 159.3 193.199L160.161 192.986C162.092 192.504 164.029 191.943 165.514 190.547ZM132.042 179.882C130.987 179.613 130.537 181.244 131.592 181.512C133.385 181.968 135.083 182.557 136.745 183.375C137.717 183.853 138.575 182.396 137.598 181.915C135.81 181.035 133.972 180.372 132.042 179.882ZM149.307 144.239C149.282 144.163 149.362 144.076 149.44 144.104C151.337 144.811 150.329 147.296 149.739 148.784L149.633 149.056C148.709 151.44 147.419 153.76 146.012 155.895C144.539 158.129 142.904 160.268 141.133 162.276C140.365 163.147 139.569 163.994 138.745 164.815L138.435 165.122C137.603 165.94 136.53 167.378 135.239 167.219C133.849 167.052 133.073 165.566 134.087 164.438C134.804 163.639 135.797 163.003 136.597 162.276C137.392 161.557 138.161 160.815 138.911 160.052C140.445 158.486 141.898 156.831 143.227 155.088C144.512 153.401 145.742 151.669 146.861 149.867L147.083 149.506C147.934 148.105 149.899 146.044 149.307 144.239ZM82.1073 161.95C81.2069 161.334 80.3606 162.799 81.2542 163.41C82.8975 164.533 84.3432 165.894 86.1218 166.818C87.0742 167.313 87.9211 165.895 87.0087 165.377L86.9749 165.358C85.1975 164.435 83.7497 163.073 82.1073 161.95Z" fill="black"/>
<path fill-rule="evenodd" clip-rule="evenodd" d="M160.887 72.2152C148.183 63.8028 122.732 64.7164 108.747 69.8704C95.1017 74.1995 90.3243 86.2623 88.0587 99.2948C85.3048 113.942 85.675 135.057 105.478 134.801C108.262 136.148 111.346 136.732 114.227 137.848C118.17 139.211 122.035 140.794 126.036 141.989C133.916 144.527 142.684 144.307 150.159 140.592C154.289 138.596 155.998 135.488 158.699 132.176C166.556 122.542 170.51 108.754 170.156 96.5033C169.534 87.8771 168.108 77.8912 160.887 72.2152Z" fill="white"/>
<path fill-rule="evenodd" clip-rule="evenodd" d="M176.963 107.724C175.659 99.6295 175.298 91.3974 173.591 83.3661C171.985 75.8084 168.983 68.6667 163.737 62.9052C159.043 57.7504 152.973 53.9651 146.458 51.5663C133.765 46.8933 119.166 47.9501 106.887 53.4053C95.3944 58.5092 86.2275 67.9523 80.8846 79.2849C77.4135 86.6483 75.6684 94.4767 74.893 102.557C74.0332 111.533 73.9402 120.602 73.5895 129.61C73.5473 130.721 73.486 131.833 73.4712 132.945C73.4543 134.162 73.9466 135.229 74.348 136.362C74.3754 136.442 74.4156 136.519 74.4642 136.591C74.162 136.628 73.8599 136.673 73.5578 136.721C73.2198 136.774 73.2346 137.324 73.5578 137.389C76.2937 137.947 79.1057 138.025 81.8881 138.163C84.7719 138.307 87.6599 138.385 90.548 138.482C93.3642 138.577 96.1804 138.672 98.9966 138.767C100.475 138.818 101.954 138.869 103.433 138.917C104.137 138.941 104.84 138.966 105.546 138.989C105.897 139.002 106.249 139.012 106.6 139.025C106.885 139.034 107.35 139.215 107.38 139.006C107.432 139.038 107.49 139.065 107.551 139.084C107.618 139.12 107.684 139.163 107.747 139.209C108.092 139.446 108.613 139.416 108.962 139.209C108.994 139.19 109.028 139.169 109.061 139.148C109.321 138.993 109.503 138.769 109.604 138.516C111.049 140.262 113.608 138.3 112.129 136.453C111.335 135.46 103.433 111.106 106.704 92.5535L119.819 90.8162C122.217 90.5731 126.679 90.0891 126.679 90.0891C126.679 90.0891 127.771 86.5236 128.084 85.376C128.107 85.2915 128.13 85.2048 128.156 85.1203C128.468 85.6721 128.783 86.2214 129.1 86.7709L130.718 90.0616C130.718 90.0616 154.604 89.6622 160.461 89.7002C160.56 89.7002 161.031 96.8227 160.818 99.9592C160.387 106.257 159.928 112.551 159.29 118.833C158.883 122.855 157.901 126.799 156.439 130.506C154.13 136.362 147.423 141.928 140.885 141.928C136.814 141.928 127.617 138.63 126.278 137.964C124.938 137.298 124.14 139.116 125.361 139.843C127.833 141.316 134.649 144.44 140.885 144.44C149.94 144.44 156.776 135.844 157.615 134.612C165.861 134.16 174.294 134.369 182.53 135.187C183.22 135.255 183.816 134.422 183.594 133.786C180.637 125.317 178.387 116.582 176.963 107.724Z" fill="black"/>
<path fill-rule="evenodd" clip-rule="evenodd" d="M153.708 116.647C154.02 116.239 154.781 118.017 154.936 118.234L154.944 118.244C155.62 119.064 156.173 120.318 156.251 121.37C156.254 121.402 156.254 121.432 156.254 121.463C157.339 121.314 158.424 121.162 159.509 120.996C159.928 120.68 160.515 120.778 161.084 121.065C162.351 121.705 161.734 123.737 160.369 123.705C156.678 123.617 152.908 124.091 149.248 124.518C147.366 124.737 145.487 124.97 143.614 125.268C141.865 125.546 140.076 125.939 138.305 126.015C138.209 126.019 138.168 125.875 138.255 125.83C139.816 125.028 141.599 124.543 143.285 124.073C145.109 123.564 146.946 123.087 148.796 122.684C150.457 122.323 152.126 122.052 153.799 121.809C153.786 121.776 153.773 121.742 153.763 121.707C153.551 120.995 153.556 120.178 153.511 119.428L153.485 119.03C153.443 118.343 153.402 117.047 153.708 116.647ZM148.271 107.866C149.866 108.836 152.297 111.098 150.581 113.503C148.561 115.624 145.652 113.193 144.219 112.093C142.89 111.241 141.397 113.433 142.63 114.428C152.987 122.099 157.19 108.12 149.078 106.726C148.185 106.572 147.853 107.566 148.271 107.866ZM122.62 99.3277C125.275 98.9225 127.994 98.876 130.676 99.01C132.071 99.0796 133.464 99.1831 134.854 99.3209C135.579 99.393 136.304 99.4737 137.027 99.5644C137.546 99.6295 138.347 99.9267 138.84 99.7914C140.347 99.3786 141.778 100.805 141.362 102.314C140.95 103.812 139.184 104.207 138.047 103.307C137.509 103.117 136.967 102.937 136.422 102.769C136.38 102.941 136.319 103.111 136.233 103.275C136.136 103.459 136.043 103.644 135.955 103.832C135.974 103.802 135.828 104.152 135.824 104.162L135.707 104.467C135.503 104.993 135.276 105.492 134.723 105.764C133.964 106.139 132.772 105.932 132.465 105.039C131.986 104.099 132.303 102.786 132.578 101.813L132.599 101.738C129.286 100.95 125.918 100.359 122.62 99.557C122.513 99.5308 122.502 99.3459 122.62 99.3277ZM162.021 95.7926C162.193 95.4474 162.584 95.4459 162.816 95.7702C163.333 96.4899 162.175 97.5208 161.692 97.9997L161.644 98.0481C160.558 99.1505 159.233 100.039 157.92 100.842C157.645 101.011 157.365 101.171 157.084 101.33C157.136 101.434 157.183 101.541 157.222 101.65C157.421 102.212 157.425 102.883 157.245 103.45C156.872 104.634 155.88 105.58 154.592 105.579C153.913 105.578 153.109 104.936 153.201 104.187C153.234 103.921 153.261 103.637 153.302 103.354C152.396 103.655 151.284 103.302 150.708 102.555C149.907 101.517 150.128 99.816 151.354 99.1714C152.256 98.6976 153.251 98.5779 154.228 98.3275C155.197 98.0794 156.159 97.7943 157.108 97.4758C158.044 97.1617 158.975 96.8252 159.905 96.4928C160.365 96.3281 160.82 96.1764 161.288 96.0369C161.497 95.9747 161.798 95.8114 162.021 95.7926Z" fill="black"/>
</svg>
