<svg width="240" height="324" viewBox="0 0 240 324" fill="none" xmlns="http://www.w3.org/2000/svg">
<path fill-rule="evenodd" clip-rule="evenodd" d="M49.1621 285.363C50.2761 287.056 52.4674 286.796 53.4081 285.485C64.1207 287.981 75.103 286.997 85.9645 286.385C116.571 285.139 147.351 289.045 177.834 284.959C181.068 284.312 184.832 284.622 187.477 282.378C191.709 277.417 190.798 269.885 190.124 263.842C184.72 229.78 177.038 195.406 173.206 161.125C172.992 157.859 174.337 153.802 175.543 150.732C175.841 150.161 177.723 149.602 178.7 148.943C181.698 146.79 181.212 142.932 178.613 140.668C170.198 134.734 158.484 136.808 149.557 138.997C147.846 132.569 145.923 128.342 142.666 127.923C136.467 127.126 121.428 124.691 116.796 127.923C114.58 129.469 113.157 134.917 111.562 137.571C99.928 137.365 76.3161 121.794 71.4618 139.328C67.5179 139.6 63.6115 143.045 64.3659 147.178C59.2509 151.7 63.2853 158.48 63.2145 164.108C62.5421 176.049 56.0832 186.728 53.3961 198.263C47.2539 220.636 40.3019 261.331 47.92 283.169C47.7561 283.083 47.398 283.212 47.63 283.394C48.4926 283.637 48.6048 284.724 49.1621 285.363Z" fill="white"/>
<path fill-rule="evenodd" clip-rule="evenodd" d="M182.916 279.674C181.487 268.199 180.494 254.346 180.482 242.775C180.481 241.686 182.171 241.687 182.172 242.775C182.184 254.346 183.177 268.199 184.606 279.674C184.74 280.752 183.049 280.739 182.916 279.674ZM172.332 208.524C170.124 209.874 167.225 208.937 165.04 208.043C164.045 207.636 164.483 206.001 165.489 206.413C167.152 207.093 169.582 208.096 171.337 207.146C173.089 206.199 173.168 203.592 173.181 201.872C173.189 200.782 174.879 200.783 174.871 201.872C174.853 204.212 174.54 207.172 172.332 208.524ZM168.245 261.035C166.018 259.893 164.117 258.332 162.588 256.35C161.923 255.488 163.392 254.647 164.047 255.496C165.393 257.241 167.147 258.575 169.098 259.575C170.068 260.072 169.211 261.531 168.245 261.035ZM157.539 202.026C153.717 217.347 151.152 232.942 149.895 248.684C149.64 251.879 149.46 255.071 149.359 258.264C149.257 259.097 149.16 259.932 149.069 260.766C148.725 263.924 148.461 267.132 148.484 270.311C148.494 271.738 148.539 273.158 148.636 274.58C148.467 274.105 148.311 273.627 148.159 273.152C147.848 272.177 147.643 271.167 147.326 270.199C147.064 269.398 146.726 268.631 146.411 267.855V267.853C146.506 264.676 146.291 261.47 146.181 258.308C146.04 254.212 145.864 250.121 145.773 246.023C145.592 237.826 145.682 229.624 145.978 221.432C146.572 204.926 148.072 188.497 149.585 172.058C150.005 167.487 150.457 162.918 150.77 158.337C151.085 153.709 151.211 149.072 151.247 144.431C151.249 144.097 150.742 144.008 150.649 144.331C150.567 143.23 150.421 142.131 150.178 141.068C153.823 143.393 157.666 145.403 161.432 147.516C163.416 148.63 165.392 149.763 167.437 150.761C168.561 151.31 169.695 151.815 170.853 152.293C172.053 152.788 173.2 153.468 174.521 153.123C174.635 153.094 174.742 153.052 174.846 152.997C174.696 153.282 174.546 153.565 174.402 153.853C173.904 154.844 173.428 155.839 172.968 156.843C172.845 156.934 172.737 157.059 172.653 157.222C172.429 157.659 172.211 158.101 172 158.549C171.958 158.509 171.916 158.469 171.873 158.428C171.696 158.262 171.451 158.513 171.607 158.695C171.679 158.777 171.749 158.858 171.818 158.94C170.441 161.905 169.321 165.023 168.168 168.066C166.75 171.807 165.406 175.575 164.141 179.369C161.646 186.832 159.444 194.392 157.539 202.026ZM102.899 257.627C95.8549 261.4 89.2727 265.91 82.9418 270.775C82.0788 271.438 81.238 269.968 82.0887 269.315C88.4196 264.45 95.002 259.94 102.046 256.167C103.005 255.653 103.858 257.113 102.899 257.627ZM79.1079 213.43C78.7417 213.402 78.3859 213.19 78.293 212.809C77.7224 210.472 77.2755 207.926 77.8062 205.542C78.0429 204.479 79.6719 204.932 79.436 205.992C79.0174 207.871 79.35 209.903 79.7845 211.778C85.928 212.047 91.989 209.841 97.8667 208.36C98.9237 208.094 99.3701 209.725 98.3161 209.991C92.0812 211.562 85.632 213.913 79.1079 213.43ZM201.411 275.77C201.417 275.755 201.423 275.738 201.428 275.724C201.789 274.629 201.797 273.357 201.837 272.209C201.907 270.167 201.833 268.121 201.649 266.086C201.261 261.802 200.424 257.588 199.425 253.409C197.445 245.133 194.648 237.08 193.129 228.692C190.148 212.226 190.856 195.081 185.006 179.198C182.574 172.595 179.101 166.248 174.381 161.003C174.725 159.954 175.061 158.904 175.389 157.849C175.961 156.015 176.547 154.121 176.899 152.232C176.908 152.181 176.918 152.128 176.925 152.075C178.934 151.209 180.761 149.575 181.074 147.402C181.209 146.464 181.053 145.424 180.647 144.517C181.475 143.752 182.008 142.759 181.881 141.427C181.644 138.921 178.718 138.276 176.682 137.786C174.366 137.23 171.964 137.076 169.596 137.338C168.4 137.469 167.217 137.689 166.061 138.018C165.058 138.304 163.966 138.597 163.161 139.286C163.066 139.367 163.144 139.523 163.258 139.523C164.887 139.517 166.509 138.919 168.155 138.84C169.879 138.76 171.599 138.902 173.289 139.257C174.941 139.604 176.589 140.111 178.091 140.895C178.513 141.117 179.132 141.267 178.636 141.715C178.273 142.043 177.559 142.07 177.092 142.119C176.059 142.226 175.167 142.831 175.036 143.934C174.92 144.908 175.501 146.012 176.536 146.231C176.593 146.244 176.646 146.259 176.692 146.278C176.72 146.331 176.762 146.375 176.758 146.303C176.758 146.303 176.76 146.301 176.76 146.303C176.785 146.458 176.794 146.519 176.794 146.529C176.787 146.517 176.777 146.464 176.768 146.422C176.775 146.46 176.787 146.521 176.804 146.612C176.781 146.513 176.8 146.756 176.781 146.794C176.232 147.808 174.607 148.094 173.661 148.531C173.477 148.615 173.318 148.715 173.183 148.827C172.959 148.749 172.731 148.67 172.501 148.584C171.366 148.159 170.234 147.747 169.085 147.364C166.866 146.622 164.62 145.961 162.402 145.217C158.202 143.809 154.142 142.032 150.02 140.421C149.889 139.935 149.737 139.46 149.557 138.997C149.521 138.9 149.348 138.868 149.329 138.997C149.266 139.407 149.215 139.819 149.173 140.233C149.156 140.271 149.151 140.314 149.16 140.354C148.921 142.763 148.985 145.23 148.862 147.637C148.71 150.638 148.285 153.618 148.165 156.621V156.676C147.721 159.24 147.32 161.812 146.956 164.393C146.549 164.266 146.082 164.291 145.604 164.547C142.228 166.35 138.434 167.354 134.616 167.578C132.694 167.69 130.79 167.627 128.878 167.405C127.621 167.261 126.383 166.999 125.143 166.749C125.796 164.012 126.497 161.288 127.29 158.591C127.942 156.374 128.669 154.168 129.567 152.035C130.473 149.881 131.601 147.825 132.651 145.737C133.135 144.771 132.565 143.294 131.308 143.395C130.936 143.425 130.564 143.448 130.19 143.465C126.552 143.638 122.768 143.233 119.177 142.871C115.089 142.457 110.946 142.028 106.894 141.354C106.594 141.305 106.471 141.713 106.767 141.812C108.69 142.459 110.589 143.19 112.56 143.674C114.588 144.175 116.629 144.632 118.687 144.989C120.658 145.329 122.637 145.614 124.623 145.855C125.918 146.014 127.228 146.094 128.532 146.2C126.776 149.007 125.566 152.172 124.511 155.29C123.157 159.293 122.162 163.412 121.188 167.523C119.105 176.334 117.387 185.234 116.044 194.189C115.08 200.61 114.301 207.056 113.716 213.519C113.542 211.556 113.331 209.599 113.092 207.644C112.294 201.153 111.128 194.705 109.568 188.354C109.708 188.108 109.773 187.815 109.727 187.529C109.446 185.784 108.706 184.264 108.058 182.645C107.413 180.384 106.718 178.137 105.97 175.907C105.121 172.87 104.168 169.879 102.949 166.959C102.018 164.733 100.955 162.564 99.7719 160.462C98.3585 157.522 96.8057 154.646 95.1008 151.896C95.012 151.64 94.8684 151.401 94.6634 151.2C94.3529 150.71 94.0381 150.226 93.717 149.746C93.5078 149.433 92.9078 149.624 93.0663 150.021C93.1402 150.207 93.2142 150.393 93.2902 150.577C86.3458 148.84 79.5367 151.496 72.9219 153.458C71.2529 153.954 69.567 154.402 67.8557 154.726C66.5099 154.979 64.9423 155.288 63.6008 155.009C62.7029 154.823 62.3057 154.415 62.743 153.455C63.1951 152.462 64.4289 151.809 65.5001 151.37C65.9036 151.283 66.3008 151.128 66.6832 150.896C67.5747 150.355 67.9656 149.226 67.5451 148.265C67.1627 147.396 66.0472 146.648 65.0606 147.045C64.9191 147.102 64.7796 147.157 64.6402 147.212C64.6254 147.191 64.6085 147.161 64.5937 147.119C64.4522 146.732 64.3909 147.195 64.4522 146.641C64.5536 145.737 65.5106 144.915 66.1656 144.397C67.7944 143.106 70.148 142.15 72.2501 142.639C72.4085 142.674 72.567 142.719 72.7233 142.774C74.8888 143.524 75.943 140.405 74.2127 139.242C74.1071 139.172 73.974 139.084 73.8282 138.98C73.1078 138.479 72.0536 137.636 72.3409 136.875C72.6958 135.93 74.7895 135.387 75.5818 135.066C78.4465 133.903 81.5416 133.244 84.6303 133.109C87.7381 132.973 90.886 133.316 93.8839 134.155C95.3543 134.565 96.8649 135.188 98.255 135.818C99.5036 136.383 102.22 137.129 102.394 138.71C102.432 139.058 102.928 139.177 103.036 138.796C103.887 135.761 100.583 133.802 98.4029 132.549C96.9726 131.724 95.3501 131.211 93.7804 130.706C92.2761 130.22 90.7402 129.862 89.1726 129.647C85.8071 129.186 82.4015 129.245 79.0634 129.892C76.0233 130.482 72.6409 131.488 70.1839 133.445C68.6754 134.645 67.993 136.556 68.5994 138.42C68.6205 138.481 68.6416 138.545 68.6627 138.606C65.948 139.092 63.3789 140.648 61.6613 142.816C60.2501 144.598 59.5106 147.077 60.774 149.15C60.7212 149.188 60.6684 149.228 60.6177 149.271C59.4134 150.234 58.5177 151.634 58.2515 153.164C57.7296 156.182 59.5529 158.293 62.1029 159.101C61.4712 159.718 60.8649 160.373 60.2712 161.028C58.9423 162.497 57.6726 164.097 56.5529 165.729C54.2839 169.034 52.3444 172.633 50.648 176.26C47.1599 183.708 44.9606 191.725 43.7944 199.853C43.2071 203.949 42.8141 208.066 42.6641 212.2C42.4909 216.913 42.6663 221.629 42.5754 226.344C42.4867 230.875 41.986 235.297 40.974 239.714C40.0043 243.939 38.7113 248.079 37.5409 252.249C36.2205 256.945 34.767 261.62 34.0698 266.462C33.717 268.926 33.4634 271.397 33.6599 273.889C33.8585 276.427 34.7796 278.598 35.6289 280.959C35.8444 281.561 36.5015 281.804 37.0275 281.675C37.1458 282.806 37.5726 283.909 38.2085 284.865C39.5585 286.889 41.6374 288.181 44.0184 288.65C46.7015 289.176 49.467 289.051 52.1839 288.954C55.1311 288.849 58.0803 288.753 61.0275 288.631C64.1131 288.503 67.1984 288.372 70.284 288.241C70.182 285.077 70.0603 281.914 69.9227 278.752C69.1789 261.657 68.0074 244.552 67.9763 227.435C67.9165 227.4 67.8578 227.358 67.8016 227.304C66.4125 225.961 64.7072 225.078 63.1049 224.027C62.1982 223.432 63.0458 221.969 63.958 222.567C65.3089 223.454 66.7165 224.241 67.9825 225.234C67.9899 223.452 68.0055 221.671 68.0408 219.889C68.0623 218.8 69.7525 218.8 69.7309 219.889C69.6249 225.259 69.6603 230.631 69.7818 236.001C70.175 253.403 71.4109 270.773 71.9737 288.168C80.2554 287.814 88.5375 287.458 96.8205 287.155C103.558 286.91 110.295 286.665 117.032 286.42C118.446 286.37 119.24 285.359 119.413 284.038C119.73 281.607 119.135 279.095 117.787 277.051C117.647 276.84 117.482 276.652 117.299 276.491C117.33 275.035 117.39 273.576 117.307 272.12C117.185 269.897 117.001 267.673 116.84 265.452C116.515 261.003 116.263 256.546 116.164 252.086C115.961 243.167 116.109 234.24 116.614 225.334C117.626 207.54 119.982 189.861 123.837 172.456C124.118 171.188 124.401 169.92 124.695 168.654C127.693 170.211 131.34 170.771 134.616 170.792C138.723 170.818 142.74 169.873 146.449 168.155C146.424 168.347 146.399 168.537 146.375 168.73C145.34 176.972 144.468 185.232 143.707 193.502C142.19 209.99 141.261 226.545 141.39 243.106C141.425 247.694 141.601 252.268 141.818 256.85C142.04 261.51 142.38 266.435 143.678 270.93C143.821 271.427 144.14 271.712 144.508 271.816C144.527 272.471 144.569 273.128 144.616 273.775C144.766 275.878 145.194 280.247 146.111 282.153C147.005 284.013 148.494 285.488 150.394 286.3C152.806 287.329 155.416 287.033 157.963 286.868C169.042 286.145 180.113 285.177 191.185 284.328C192.728 284.209 194.27 284.093 195.81 283.973C197.181 283.867 198.599 283.774 199.816 283.062C201.199 282.252 202.279 278.277 201.801 276.632C201.715 276.332 201.584 276.036 201.411 275.77Z" fill="black"/>
<path fill-rule="evenodd" clip-rule="evenodd" d="M169.522 68.4448C169.451 65.9175 165.776 64.8681 164.715 67.3711C164.649 67.4381 164.577 67.5026 164.51 67.5603C164.842 67.2752 164.147 67.7469 164.034 67.8053C163.938 67.8551 163.839 67.9002 163.74 67.9466C163.057 61.544 160.739 54.6417 154.749 51.4279C146.395 47.3751 136.742 46.584 127.576 46.9866C122.933 47.2622 117.572 48.0049 113.447 45.6551C112.161 44.923 111.131 43.7705 109.678 43.318C105.093 42.0772 103.014 46.7873 103.638 50.6607C101.682 50.6762 99.7423 51.7593 98.8983 53.5427C98.4027 54.5982 98.4113 55.7372 97.9839 56.7964C96.6726 59.4827 94.7963 61.4136 95.8571 64.6705C93.9914 66.7944 95.0551 70.0096 96.5606 72.043C97.3041 73.1006 98.1895 74.116 98.7341 75.2997C99.2627 76.4332 98.4648 77.7774 98.0207 78.8519C94.7376 86.64 94.9252 95.2168 96.6918 103.34C93.1467 104.879 92.0828 109.689 94.3945 112.718C95.1899 113.789 96.1603 114.186 97.2608 114.845C98.6534 115.612 97.516 118.683 97.962 120.166C98.5679 123.788 101.864 126.017 105.122 123.666C107.19 123.353 108.858 129.372 110.36 130.883C111.285 132.1 112.312 133.193 113.429 134.202C116.757 142.767 133.807 147.11 142.237 146.614C151.065 145.69 157.02 138.19 161.979 131.534C164.526 127.987 166.182 124.017 166.784 119.688C167.389 115.336 167.124 110.977 166.715 106.621C165.856 97.3645 164.501 84.0291 163.625 74.6729C166.788 74.4123 169.618 71.7182 169.522 68.4448Z" fill="white"/>
<path fill-rule="evenodd" clip-rule="evenodd" d="M100.567 62.8797C100.564 62.8928 100.569 62.9027 100.571 62.9166C100.572 62.9126 100.573 62.9105 100.574 62.9057C100.571 62.8951 100.569 62.8881 100.567 62.8797Z" fill="#4F66AF"/>
<path fill-rule="evenodd" clip-rule="evenodd" d="M100.566 63.0143C100.555 63.0021 100.538 62.993 100.522 62.9807C100.521 62.9811 100.521 62.9816 100.521 62.982C100.536 62.9921 100.551 63.0038 100.566 63.0143Z" fill="#4F66AF"/>
<path fill-rule="evenodd" clip-rule="evenodd" d="M169.018 69.6408C170.057 68.7773 171.694 69.5724 171.342 70.9941C170.959 72.5425 169.3 73.6005 167.931 74.2366C166.521 74.8912 165.148 75.0174 163.61 74.9459L163.591 74.9417C164.018 76.6543 164.26 78.4345 164.587 80.1574C165.002 82.3432 165.409 84.53 165.811 86.7179C166.199 88.8327 166.691 90.9502 166.989 93.0756C167.29 95.221 167.579 97.3679 167.875 99.5139C168.369 103.098 168.767 106.699 169.187 110.294L169.387 111.995C169.808 115.596 170.147 119.202 169.349 122.786C168.602 126.145 166.919 129.278 164.966 132.082C163.054 134.827 160.918 137.467 158.573 139.855C154.05 144.46 148.473 148.149 141.933 148.833C139.117 149.128 136.109 148.8 133.462 147.776L133.286 147.707C130.606 146.649 127.324 144.836 126.627 141.862C126.198 140.038 128.078 138.614 129.725 139.479C130.489 139.881 131.063 140.339 131.689 140.914L131.801 141.016C132.313 141.492 132.51 141.638 133.101 142.011C134.313 142.773 135.221 143.134 136.598 143.481C139.136 144.12 141.875 144.019 144.452 143.263C149.923 141.66 154.166 137.475 157.802 133.279C159.776 131 161.65 128.61 163.095 125.954C164.611 123.168 165.311 120.243 165.269 117.073C165.222 113.496 164.728 109.905 164.403 106.344C164.073 102.715 163.767 99.0866 163.498 95.452C163.246 92.0435 163.222 88.6197 163.134 85.2006L163.116 84.5596C163.064 82.7446 163.029 80.9288 162.987 79.1133C162.947 77.3031 162.803 75.4699 162.99 73.6673C163.003 73.536 163.18 73.5028 163.223 73.6356C163.333 73.9733 163.429 74.3163 163.52 74.6613C163.534 74.6507 163.549 74.6412 163.568 74.6346C164.773 74.2204 165.883 73.3934 166.787 72.5015C167.65 71.6504 168.101 70.4036 169.018 69.6408ZM103.087 44.2793C103.844 41.169 107.251 40.4743 109.77 41.9722C110.981 42.6924 111.952 43.7312 113.083 44.5568C114.209 45.3776 115.452 46.0368 116.764 46.5024C119.371 47.4273 122.121 47.7636 124.876 47.7756C131.582 47.805 138.15 45.9198 144.866 46.13C150.062 46.2928 155.577 47.8291 159.347 51.5869C161.377 53.6112 162.686 56.2138 163.387 58.9768C163.715 60.2681 163.96 61.5907 164.153 62.9103L164.2 63.2401C164.308 64.0113 164.481 64.8278 164.497 65.6072C164.512 66.3072 164.335 67.0398 164.239 67.7326C164.037 69.193 161.775 69.0267 161.451 67.7326C160.711 64.7861 161.02 61.7452 160.116 58.809C159.314 56.2051 157.761 53.9284 155.509 52.3714C146.011 45.8027 133.83 51.3035 123.365 50.7924C120.807 50.6675 118.211 50.2721 115.799 49.391C114.555 48.9366 113.33 48.3824 112.202 47.6854C111.168 47.0472 110.273 46.2453 109.316 45.5074L108.894 45.1865C108.238 44.6929 107.122 43.9211 106.46 44.5741C106.172 44.8583 106.155 45.501 106.16 45.9917L106.163 46.2135C106.193 48.297 106.618 50.3767 105.838 52.3896C105.483 53.3077 104.495 53.8866 103.555 53.3667L103.506 53.3388C101.519 52.1558 98.9069 54.5329 100.434 56.5003L100.481 56.5598C101.341 57.6043 100.883 59.4437 99.3448 59.4391L99.2895 59.4381C96.5497 59.3526 95.3342 62.7779 97.6957 64.2745L97.7683 64.3193C99.6856 65.4671 98.0039 68.2267 96.0389 67.2792C96.2054 67.3595 95.9159 67.3585 95.7503 67.5808C95.5912 67.7943 95.5794 67.979 95.6172 68.2487C95.7319 69.0658 96.4502 69.7544 97.0321 70.2713C98.3538 71.4458 99.9921 72.2567 101.68 72.7505C108.443 74.7283 115.381 72.309 121.97 70.8479C128.839 69.3247 136.598 68.7111 142.589 73.0335C142.66 73.0846 142.598 73.1989 142.519 73.1533C138.22 70.6556 132.954 70.8773 128.254 71.9013C122.092 73.2442 115.983 75.7438 109.671 76.4024C111.443 79.5316 112.185 83.2275 111.711 86.8067C111.386 89.2706 110.405 91.4078 109.248 93.5735L109.027 93.9863C107.995 95.9303 107.195 97.7668 107.182 100.019C107.17 102.256 103.845 102.728 103.281 100.547C102.001 95.5943 106.663 91.6929 108.565 87.6086C110.191 84.1171 110.241 80.0463 108.925 76.4713C107.441 76.5907 105.945 76.6032 104.434 76.4683C103.136 76.3523 101.801 76.1183 100.5 75.748L99.979 77.9376C99.2892 80.8541 98.6501 83.7686 98.4564 86.7979C98.3138 89.0238 98.3214 91.2607 98.5384 93.4812C98.726 95.399 99.1219 97.2485 99.5248 99.1208C99.8705 99.5769 100.047 100.275 99.9499 100.831C102.194 101.477 103.958 103.249 104.603 105.594C104.642 105.737 104.442 105.817 104.368 105.694C102.838 103.154 98.8986 102.22 96.4067 103.898C94.027 105.499 93.0883 108.733 94.4354 111.293C95.1439 112.639 96.1944 113.585 97.549 114.236L97.8214 114.364C98.5312 114.7 99.1828 115.066 99.6393 115.741C100.232 116.616 100.251 117.542 100.196 118.542L100.171 118.948C100.134 119.618 100.125 120.308 100.325 120.953L100.37 121.097C100.423 121.258 100.478 121.399 100.575 121.553C100.603 121.599 100.873 121.863 100.961 121.959L101.072 121.993L101.195 121.998C101.333 122 101.513 121.94 101.454 121.981L101.47 121.972C101.522 121.94 101.57 121.905 101.61 121.875L101.687 121.815C101.867 121.556 102.091 121.341 102.367 121.178L102.63 121.061C103.315 120.338 104.487 120.718 104.978 121.438C105.331 121.956 105.521 122.482 105.536 123.001C105.592 122.913 105.714 122.864 105.792 122.963L106.257 123.556C108.037 125.831 109.786 128.12 111.808 130.194C112.922 131.336 114.12 132.41 115.373 133.399C116.442 134.243 118.471 135.055 118.502 136.593C118.512 137.093 118.157 137.446 117.724 137.616C116.313 138.167 114.569 136.292 113.55 135.379L113.467 135.305C112.22 134.212 111.081 133.013 110.031 131.73C107.991 129.238 106.285 126.37 105.533 123.214C105.498 123.765 105.261 124.304 104.802 124.814C104.19 125.491 103.352 125.966 102.457 126.162C100.43 126.605 98.4509 125.875 97.2448 124.186C96.2254 122.757 95.9252 120.871 96.0568 119.145L96.073 118.938C96.0914 118.661 96.115 118.153 96.1866 117.937L95.5483 117.587C94.7658 117.17 94.0405 116.624 93.3896 116.024C90.7735 113.611 89.4609 109.69 90.6569 106.258C91.405 104.112 92.977 102.244 94.99 101.273C94.6535 100.496 94.541 99.5718 94.414 98.7545L94.3927 98.6193C94.1774 97.2785 93.9972 95.9208 93.9285 94.5639C93.8001 92.0298 93.9562 89.4721 94.3543 86.9674C95.0007 82.8991 96.3391 78.5846 98.7924 75.1717C96.9207 74.4282 95.1981 73.3518 93.8683 71.8571C92.4788 70.2952 91.593 68.0591 92.6675 66.0756C92.9413 65.57 93.2981 65.145 93.7082 64.8075C92.9971 63.4642 92.767 61.8765 93.2058 60.359C93.7302 58.5448 95.1539 57.1298 96.8738 56.4691C96.4562 54.7502 96.7976 52.9013 98.0738 51.4688C99.3397 50.0476 101.306 49.53 103.125 49.8549C103.224 48.0267 102.648 46.0823 103.087 44.2793ZM97.9848 108.466C99.653 107.65 101.63 107.779 103.296 108.553L103.409 108.607C105.228 109.489 107.638 111.551 107.06 113.744C106.721 115.027 105.297 115.465 104.192 114.911C103.27 114.449 103.059 113.622 102.596 112.791C102.269 112.203 101.865 111.744 101.389 111.272C100.388 110.276 99.2628 109.537 97.9848 108.945C97.8006 108.86 97.8069 108.554 97.9848 108.466ZM140.017 64.1399C139.86 64.0684 139.974 63.8235 140.131 63.8683C144.323 65.0658 148.231 67.7538 150.567 71.4847C150.709 71.7123 150.731 72.0871 150.567 72.3124L150.491 72.4146C150.384 72.5545 150.278 72.6577 150.077 72.689C149.698 72.7477 149.369 72.649 149.151 72.3124C146.851 68.7562 143.903 65.9182 140.017 64.1399ZM168.078 64.8441C168.433 64.2424 169.375 64.3635 169.562 65.0381L169.589 65.0968C169.691 65.3268 169.644 65.3739 169.456 65.2438C169.923 65.6288 170.135 66.2024 169.992 66.8192C169.22 70.15 165.449 72.5286 162.161 72.2012C161.874 72.1727 161.835 71.8199 162.095 71.7147C163.36 71.2024 164.483 70.3703 165.385 69.3492C166.263 68.3567 166.632 67.2212 167.104 66.0226C167.281 65.5726 167.556 65.2486 167.945 65.0717C167.996 65.0007 168.041 64.925 168.078 64.8441ZM149.382 62.7037L149.404 62.7051C151.094 62.9234 152.555 63.7574 153.741 64.9795C154.884 66.1562 156.326 68.0981 156.202 69.8251C156.12 70.97 154.493 71.6245 153.886 70.4528C153.524 69.7536 153.442 68.9873 153.188 68.248C152.955 67.5704 152.633 66.927 152.248 66.3236C151.456 65.0805 150.366 64.0273 149.25 63.0771C149.12 62.9659 149.211 62.7043 149.382 62.7037ZM106.054 62.1963C105.679 61.8395 106.069 61.2313 106.545 61.3517C109.058 61.9881 111.546 62.7621 114.158 62.839C115.463 62.8772 116.76 62.7743 118.053 62.6054L118.707 62.5185C119.715 62.3869 120.741 62.2836 121.737 62.4907C122.401 62.6287 122.531 63.4847 122.117 63.9312C120.163 66.0403 116.393 65.8387 113.801 65.4832C110.986 65.0968 108.146 64.1902 106.054 62.1963ZM151.427 55.6223C151.255 55.3837 151.545 55.0071 151.818 55.1129C154.315 56.0784 156.932 58.592 157.62 61.2218C157.802 61.9165 156.926 62.4411 156.412 61.9254C155.454 60.9644 154.777 59.8292 153.967 58.749C153.16 57.6722 152.215 56.7158 151.427 55.6223ZM110.514 56.7968C110.314 56.5967 110.515 56.1981 110.803 56.2999C112.429 56.8759 114.067 57.3742 115.775 57.6357C117.524 57.9032 119.29 57.6999 121.048 57.8083C121.759 57.8521 122.244 58.9592 121.453 59.3037C117.939 60.834 113.167 59.4463 110.514 56.7968ZM115.004 53.3642C114.725 53.1575 114.884 52.5902 115.264 52.7485C116.812 53.3933 118.377 53.5519 120.039 53.4855C120.653 53.4608 120.782 54.4256 120.184 54.5558C118.347 54.9554 116.505 54.4742 115.004 53.3642Z" fill="black"/>
<path fill-rule="evenodd" clip-rule="evenodd" d="M132.525 123.613C132.547 121.284 134.564 120.882 136.48 121.193C139.724 121.718 142.981 122.087 146.268 122.154L146.835 122.164C146.926 122.031 147.079 121.93 147.286 121.907C149.109 121.71 150.97 121.742 152.803 121.688C154.402 121.641 156.044 121.481 157.643 121.607L157.77 121.618C159.724 121.807 161.785 122.805 161.549 125.098C161.333 127.222 159.303 129.102 157.682 130.283C157.355 130.519 157.02 130.741 156.675 130.943C156.567 131.081 156.409 131.177 156.227 131.197C154.631 132.059 152.87 132.569 151.047 132.739C147.182 133.099 142.69 132.709 138.978 131.034C137.771 130.489 136.646 129.809 135.651 128.974C134.116 127.685 132.508 125.732 132.525 123.613ZM147.751 128.23C146.202 128.183 144.655 128.4 143.18 128.878C142.18 129.201 141.268 129.822 140.31 130.253C143.539 131.485 147.291 131.754 150.603 131.529C152.057 131.431 153.466 131.096 154.778 130.519C154.574 130.371 154.367 130.221 154.15 130.09C153.495 129.694 152.81 129.356 152.096 129.087C150.705 128.565 149.236 128.277 147.751 128.23ZM148.27 107.866C147.852 107.566 148.184 106.572 149.077 106.726C157.189 108.12 152.986 122.099 142.629 114.428C141.396 113.433 142.889 111.241 144.218 112.093L144.69 112.457C146.224 113.634 148.762 115.412 150.58 113.504C152.296 111.099 149.865 108.836 148.27 107.866ZM153.762 97.2866C155.487 95.8148 157.649 96.8995 158.919 98.3903L159.143 98.6568C159.397 98.9609 159.678 99.3152 159.847 99.6939C161.254 98.4956 163.161 97.6523 164.987 98.1997C166.757 98.7325 167.767 100.423 167.463 102.239C167.118 104.303 165.557 105.69 163.879 106.763L163.403 107.065C161.388 108.351 159.501 109.646 157.842 111.414C157.571 111.701 156.986 111.663 156.809 111.28L156.666 110.973L156.522 110.665C155.345 108.154 154.084 105.66 153.048 103.091C152.281 101.186 152.032 98.7619 153.762 97.2866ZM134.105 98.6199L134.368 98.316C135.631 96.845 137.771 95.8601 139.46 97.2867C141.257 98.8063 140.905 101.319 140.104 103.257C139.14 105.595 138.013 107.881 136.931 110.174L136.7 110.665C136.603 110.87 136.508 111.075 136.413 111.28C136.236 111.663 135.648 111.701 135.38 111.413C133.772 109.701 131.954 108.435 130.011 107.19L129.424 106.817C127.719 105.734 126.107 104.337 125.757 102.239C125.457 100.427 126.46 98.726 128.233 98.1996C130.062 97.6566 131.966 98.4935 133.375 99.694C133.543 99.3057 133.832 98.9399 134.105 98.6199ZM136.417 88.0667C137.034 88.8682 136.375 90.1779 135.474 90.385C134.358 90.6418 133.231 90.4856 132.135 90.8041C131.131 91.096 130.169 91.6808 129.309 92.2637C128.328 92.9282 127.424 93.67 126.593 94.5152C126.099 95.018 125.477 96.2092 124.715 96.2314C123.958 96.2536 124.974 93.8841 125.059 93.6791C125.656 92.2198 126.495 90.8768 127.544 89.7005C129.615 87.3792 134 84.9299 136.417 88.0667ZM159.541 87.4253L160.058 87.5689C161.337 87.9246 162.702 88.3617 163.799 89.1287L163.886 89.1897L164.018 89.2869C165.396 90.3143 167.345 92.3644 166.369 94.1529C166.301 94.2761 166.159 94.2884 166.044 94.2381C164.746 93.6693 163.783 92.5335 162.403 92.0584L162.148 91.9716C160.811 91.5211 159.157 91.0473 157.717 91.0904C156.706 91.4195 155.339 91.1469 155.075 89.9146L155.064 89.8542L155.041 89.7266C154.889 88.8846 155.115 87.8111 155.985 87.4053C157.177 86.8494 158.34 87.0968 159.541 87.4253Z" fill="black"/>
<path fill-rule="evenodd" clip-rule="evenodd" d="M129.449 129.599C131.16 125.59 134.893 122.644 139.191 121.566C142.347 120.778 145.66 120.803 148.877 121.116C150.563 121.279 152.371 121.412 153.96 122.039C155.317 122.574 156.422 123.585 157.254 124.772C158.243 126.179 158.916 127.789 159.389 129.439C159.456 129.674 159.519 129.91 159.578 130.148C159.372 131.393 158.936 132.453 157.783 133.236C156.658 134 155.316 134.313 153.978 134.424C153.847 134.361 153.72 134.296 153.604 134.23C151.518 133.035 150.051 130.213 147.419 130.595C145.07 130.936 143.524 133.893 142.127 135.626C137.644 136.149 133.164 134.801 129.516 132.236C129.33 131.359 129.32 130.473 129.449 129.599ZM162.625 126.558C162.266 125.551 161.815 124.576 161.279 123.657C159.509 120.619 156.791 118.198 153.565 116.814C145.934 113.546 136.06 115.85 129.897 121.211C127.792 123.044 125.663 125.737 125.019 128.634C124.827 128.672 124.646 128.772 124.496 128.913C120.043 126.108 115.458 123.41 111.87 119.523C109.264 116.698 107.452 113.355 106.342 109.682C106.251 109.38 105.764 109.424 105.779 109.759C105.783 109.837 105.787 109.915 105.792 109.993C105.745 109.849 105.526 109.923 105.509 110.063C104.912 114.525 104.165 119.256 104.853 123.742C105.264 126.418 106.479 128.377 108.104 130.493C109.845 132.761 111.815 134.87 113.83 136.893C115.109 138.177 116.444 139.658 118.01 140.6C119.831 141.694 121.896 142.525 123.839 143.369C125.816 144.231 127.823 145.026 129.867 145.716C133.954 147.1 138.178 148.056 142.476 148.475C145.917 148.809 149.85 149.173 153.148 147.878C155.675 146.886 157.715 145.092 159.334 142.934C161.095 140.583 162.488 137.905 163.258 135.082C164.058 132.149 162.793 127.03 162.625 126.558Z" fill="black"/>
</svg>
