<svg width="240" height="324" viewBox="0 0 240 324" fill="none" xmlns="http://www.w3.org/2000/svg">
<path fill-rule="evenodd" clip-rule="evenodd" d="M47.4645 286.051C75.0656 290.245 103.167 290.456 130.998 288.933C142.012 288.108 153.06 287.96 164.065 289.014C170.568 289.498 199.081 291.678 201.411 285.852C199.944 254.825 196.975 223.533 187.865 193.693C184.119 183.097 180.901 174.303 173.589 165.535C171.284 163.141 166.315 158.12 163.467 156.482C161 155.064 159.969 155.57 158.552 153.174C157.144 150.527 156.106 146.107 154.107 144.24C152.072 142.338 149.056 143.018 145.317 143.631C146.004 134.346 141.72 131.981 135.818 130.216C125.444 126.255 115.198 128.245 112.587 140.879C107.746 140.879 105.026 142.963 102.086 144.966C100.884 145.784 101.72 147.87 100.285 148.513C97.6289 149.459 92.9354 149.228 90.3781 150.392C78.7492 155.686 68.3917 163.364 61.5897 174.576C46.3403 198.515 35.8652 248.942 37.6779 277.315C36.8837 278.561 37.9819 280.348 38.2611 281.687C38.6135 282.853 39.7545 283.628 40.9454 283.495C42.6072 285.283 45.1775 285.681 47.4645 286.051Z" fill="white"/>
<path fill-rule="evenodd" clip-rule="evenodd" d="M161.709 155.78C161.54 155.686 161.689 155.444 161.859 155.524C170.045 159.365 176.324 166.105 180.743 173.892C185.318 181.955 187.926 191.11 190.174 200.058L190.255 200.382C192.652 209.954 194.691 219.625 196.526 229.319C198.384 239.137 199.876 249.015 201.076 258.934C201.67 263.838 202.199 268.751 202.612 273.674C202.818 276.135 203.005 278.597 203.174 281.06C203.241 282.045 203.304 283.03 203.359 284.016L203.398 284.755C203.431 285.426 203.511 286.099 203.345 286.76C203.202 287.331 202.9 287.847 202.635 288.371C202.109 289.406 200.67 289.236 200.104 288.371L199.939 288.119C199.564 287.539 199.252 287 199.134 286.277C199.02 285.578 199.016 284.845 198.965 284.139C198.871 282.839 198.791 281.539 198.7 280.239C198.508 277.502 198.293 274.767 198.055 272.034C197.583 266.639 197.078 261.249 196.457 255.869C195.354 246.308 193.969 236.772 192.337 227.286C190.742 218.02 188.727 208.848 186.624 199.688L186.406 198.74C182.723 182.746 177.048 164.327 161.709 155.78ZM74.5219 218.408C74.5821 218.248 74.8411 218.211 74.8848 218.408C75.4362 220.892 75.4907 223.45 75.575 225.992C75.6581 228.501 75.6547 231.02 75.6181 233.53C75.4833 242.754 75.2302 251.97 75.0114 261.193C74.9019 265.806 74.7993 270.42 74.7205 275.033C74.6907 276.764 74.6656 278.494 74.6448 280.225L74.6193 282.507C74.6067 283.516 74.5802 284.513 74.4572 285.521C74.3761 286.184 74.2033 286.816 73.8374 287.385C73.5777 287.788 73.2076 287.993 72.8468 288.267L72.7793 288.319C72.3192 288.683 71.8345 288.686 71.3788 288.319L71.2465 288.215C70.8112 287.874 70.435 287.608 70.1571 287.069C69.7704 286.321 69.7085 285.507 69.6428 284.682C69.5431 283.431 69.6093 282.161 69.6221 280.906C69.6479 278.389 69.6828 275.873 69.7269 273.356C69.889 264.126 70.2093 254.894 70.793 245.681C71.068 241.341 71.4409 236.987 71.941 232.665L72.0363 231.855C72.188 230.583 72.3264 229.289 72.4823 227.99C70.1547 226.353 68.1088 224.365 66.3642 222.111C66.2357 221.945 66.4472 221.713 66.6023 221.873C68.385 223.72 70.429 225.192 72.6919 226.349C73.0626 223.631 73.5724 220.928 74.5219 218.408ZM113.406 136.132C113.438 136.108 113.488 136.097 113.518 136.132C114.019 136.716 113.917 137.608 113.933 138.347L113.935 138.416C113.971 139.497 113.978 140.575 113.974 141.657L113.963 145.1C113.961 145.573 113.923 146.066 113.947 146.542L113.96 146.727C114.223 146.996 114.345 147.385 114.256 147.776C114.24 148.277 113.978 148.695 113.596 148.958L114.415 150.121L115.235 151.283C116.925 153.68 118.633 156.057 120.414 158.389C122.229 160.766 124.166 163.054 126.193 165.254C127.183 166.329 128.19 167.389 129.221 168.425C129.64 168.846 130.069 169.257 130.493 169.672L130.916 170.089C131.165 170.339 131.479 170.586 131.645 170.902C131.742 171.089 131.764 171.549 131.799 171.625C132.112 172.312 131.578 173.409 130.692 173.066L130.732 173.039C130.894 172.927 130.79 172.925 130.422 173.034C130.189 173.033 129.972 172.98 129.768 172.874L129.707 172.841C129.421 172.695 129.165 172.413 128.932 172.187L128.874 172.132C128.341 171.633 127.834 171.103 127.323 170.582C126.258 169.493 125.217 168.381 124.208 167.239C122.197 164.961 120.29 162.591 118.485 160.147C116.645 157.658 114.936 155.041 113.466 152.317C112.908 151.283 112.396 150.229 111.906 149.163C110.951 148.857 110.73 147.841 110.796 146.697C110.444 145.877 110.127 145.039 109.939 144.184C109.914 144.066 110.064 143.956 110.154 144.058C110.46 144.405 110.742 144.775 111.014 145.154C111.178 144.352 111.386 143.614 111.483 143.143L111.906 141.066C109.522 140.941 106.909 141.921 105.265 143.637C105.177 144.084 104.833 144.404 104.498 144.821C104.115 145.299 103.781 145.835 103.532 146.395C102.979 147.637 103.291 149.467 102.219 150.378C102.107 150.473 101.982 150.539 101.854 150.58C102.362 153.075 102.131 155.825 102.12 158.357L102.12 158.58C102.123 161.413 102.028 164.249 101.918 167.08L101.807 169.882C101.663 173.62 101.569 177.358 101.932 181.075C103.59 179.607 105.303 178.205 107.076 176.87C108.242 175.992 109.431 175.145 110.641 174.33L111.625 173.672C112.804 172.882 114.011 172.068 115.302 171.502C116.99 170.761 118.595 171.016 120.225 171.775C121.848 172.532 123.422 173.41 125.014 174.23C126.633 175.064 128.256 175.89 129.877 176.719C130.951 177.268 132.525 177.764 133.313 178.774C133.363 178.551 133.422 178.328 133.49 178.106C133.412 177.767 133.442 177.401 133.632 177.052C136.279 172.186 138.729 167.204 141.161 162.228C142.392 159.71 143.562 157.162 144.796 154.645L145.995 152.194C146.195 151.785 146.396 151.377 146.598 150.97C146.9 150.36 147.215 149.756 147.521 149.147C147.651 148.89 147.813 148.635 147.939 148.375L147.998 148.245C148.001 148.239 148.292 147.325 148.067 147.412L148.048 147.421C147.933 147.486 147.842 147.342 147.916 147.25C148.233 146.857 148.675 147.205 148.856 147.568C149.355 148.568 148.441 150.138 148.089 151.095L148.07 151.149C146.979 154.238 145.743 157.27 144.477 160.291C142.05 166.084 139.443 171.787 136.841 177.501L136.81 177.599C137.365 177.174 137.957 176.788 138.465 176.412C139.744 175.463 141.061 174.562 142.376 173.663C144.788 172.015 147.264 170.476 149.782 168.997L150.286 168.702C151.544 167.969 152.79 167.375 154.283 167.595C155.669 167.799 156.959 168.544 158.212 169.15L158.341 169.212L162.213 171.053C161.799 169.402 161.351 167.759 160.883 166.122C159.971 162.929 158.968 159.763 157.88 156.626C156.864 153.694 155.765 150.794 154.603 147.918L154.253 147.054C153.78 145.87 153.309 144.578 151.955 144.214C150.601 143.849 149.049 144.39 147.812 143.618C147.7 143.548 147.714 143.363 147.85 143.328L148.613 143.136C150.046 142.779 151.726 142.421 153.081 142.768C154.556 143.145 155.775 144.383 156.491 145.67C157.286 147.102 157.847 148.704 158.45 150.23L158.546 150.471C159.239 152.198 159.905 153.936 160.543 155.685C161.818 159.181 162.978 162.719 164.029 166.288C164.535 168.009 165.015 169.738 165.477 171.47C165.609 171.969 165.828 172.573 166.008 173.203C166.213 173.404 166.408 173.628 166.591 173.884C166.894 174.308 166.677 174.805 166.3 175.058C166.285 175.492 166.189 175.9 165.958 176.25C165.06 177.615 162.683 177.263 162.78 175.428C162.794 175.147 162.904 174.879 163.069 174.652L163.065 174.615L163.046 174.548C162.633 174.35 162.219 174.13 161.782 173.914L157.719 171.906C156.542 171.324 155.238 170.425 153.929 170.203C152.709 169.997 151.422 170.906 150.374 171.455L150.306 171.49C147.772 172.789 145.256 174.132 142.751 175.485C141.528 176.146 140.321 176.834 139.102 177.503C138.084 178.062 136.984 178.865 135.839 179.181C135.35 179.561 134.769 179.51 134.302 179.222C134.516 180.544 134.502 181.901 134.568 183.253C134.656 185.06 134.669 186.872 134.699 188.681L134.71 189.359C134.787 193.359 134.828 197.36 134.844 201.361C134.898 215.608 134.74 229.859 134.704 244.106C134.685 251.264 134.543 258.428 134.357 265.583C134.278 268.615 134.114 271.643 133.936 274.671L133.838 276.322C133.631 279.806 133.508 283.329 132.863 286.766C132.779 287.214 132.021 287.225 131.947 286.766C131.353 283.083 131.32 279.319 131.206 275.593L131.182 274.848C131.045 270.847 130.98 266.849 130.994 262.846C131.044 248.593 131.415 234.35 131.718 220.101C131.87 212.943 131.973 205.781 132.209 198.624C132.327 195.043 132.461 191.465 132.62 187.885C132.691 186.287 132.759 184.69 132.866 183.095L132.913 182.411C132.946 181.965 132.973 181.524 133.005 181.087C131.564 181.614 130.246 180.639 128.949 179.972C127.454 179.202 125.96 178.432 124.465 177.664L122.969 176.898L119.974 175.37C118.626 174.681 117.587 173.996 116.149 174.804C110.968 177.711 106.207 181.58 101.893 185.64C101.066 186.419 99.3173 186.21 99.1077 184.905C98.2125 179.33 98.757 173.675 99.214 168.084L99.3825 166.008C99.5867 163.528 99.809 161.049 100.105 158.58C100.238 157.475 100.37 156.371 100.516 155.269L100.628 154.442C100.811 153.135 100.93 151.836 101.319 150.583C101.196 150.543 101.078 150.478 100.973 150.378C99.8026 149.268 100.367 147.341 100.901 146.02C101.428 144.716 102.232 143.578 103.238 142.599C103.458 142.385 103.767 142.247 104.078 142.24C106.519 140.622 109.197 139.815 111.983 140.698C112.062 140.324 112.142 139.95 112.226 139.577L112.311 139.204C112.528 138.279 112.608 136.751 113.406 136.132ZM138.421 282.222C139.179 282.013 140.008 282.233 140.563 282.788C141.118 283.343 141.338 284.173 141.129 284.93C141.024 285.303 140.836 285.627 140.563 285.902C140.308 286.156 140.011 286.336 139.671 286.445L139.592 286.468L139.468 286.52C139.088 286.622 138.708 286.622 138.329 286.52C137.966 286.418 137.651 286.234 137.383 285.969C137.118 285.701 136.934 285.386 136.832 285.023C136.73 284.643 136.73 284.263 136.832 283.884L136.884 283.76C136.989 283.387 137.177 283.063 137.45 282.788C137.725 282.515 138.049 282.326 138.421 282.222ZM183.394 206.719C183.518 206.576 183.72 206.759 183.643 206.911C182.463 209.225 181.148 211.522 179.856 213.777C179.959 214.402 180.062 215.022 180.18 215.626C180.684 218.202 181.3 220.731 181.702 223.331C183.147 232.676 183.898 242.124 184.541 251.553C185.187 261.017 185.269 270.484 185.366 279.966C185.375 280.788 184.743 281.743 183.896 281.898C183.509 281.969 183.219 281.955 182.832 281.898C181.95 281.768 181.399 280.758 181.361 279.966C181.109 274.667 180.769 269.374 180.375 264.083C179.677 254.702 179.25 245.297 178.687 235.907L178.488 232.625C178.275 229.069 178.08 225.51 178.016 221.949C177.974 219.589 178.1 217.23 178.023 214.874C177.951 212.698 177.731 210.332 178.21 208.194C178.228 208.114 178.354 208.094 178.391 208.17C178.89 209.22 179.205 210.362 179.449 211.527C180.734 209.901 182.042 208.272 183.394 206.719ZM99.2255 149.243C99.4059 149.23 99.3988 149.501 99.2255 149.521C96.7038 149.814 94.2678 150.84 91.8868 151.713L91.6828 151.787C89.2774 152.66 86.9321 153.676 84.6751 154.886C80.2623 157.252 76.2102 160.303 72.6276 163.796C58.3237 177.739 51.805 197.846 47.0285 216.741C44.3745 227.239 42.4873 237.914 41.264 248.672C40.6592 253.992 40.2316 259.332 39.9823 264.681C39.8547 267.422 39.7742 270.166 39.7406 272.91C39.7233 274.315 39.7182 275.721 39.7199 277.127C39.7207 277.771 39.8357 278.582 39.6635 279.207C39.5038 279.787 39.0533 280.297 38.7202 280.779C38.3253 281.352 37.6157 281.322 37.2153 280.779L37.0677 280.582C36.6407 280.015 36.2229 279.474 36.1619 278.733C36.0966 277.939 36.1427 277.121 36.1397 276.324C36.133 274.717 36.1528 273.11 36.185 271.504C36.2469 268.426 36.3681 265.349 36.5483 262.275C36.9142 256.037 37.5166 249.811 38.379 243.622C39.9119 232.622 42.2097 221.726 45.2194 211.035C48.0588 200.95 51.4226 190.894 56.2146 181.552C60.6639 172.878 66.5008 164.809 74.2028 158.747C77.7844 155.928 81.6833 153.579 85.8869 151.809C88.007 150.917 90.2333 150.188 92.4975 149.773C94.7365 149.363 96.9658 149.42 99.2255 149.243ZM138.856 264.395C139.255 264.392 139.701 264.48 140.045 264.701L140.503 265.056C140.627 265.215 140.751 265.376 140.874 265.536C141.161 265.91 141.199 266.514 141.139 266.96C141.125 267.257 141.037 267.534 140.874 267.79L140.525 268.242C140.189 268.516 139.91 268.711 139.503 268.843C139.291 268.911 139.087 268.926 138.883 268.915L138.815 268.911L138.856 268.916L138.784 268.908C138.718 268.903 138.651 268.896 138.584 268.886C138.539 268.881 138.493 268.877 138.448 268.871C138.404 268.867 138.362 268.866 138.318 268.87C137.802 268.918 137.282 268.625 136.916 268.289C136.586 267.986 136.289 267.343 136.335 266.887L136.355 266.696C136.39 266.375 136.418 266.248 136.554 265.925C136.687 265.611 136.872 265.334 137.123 265.1C137.605 264.652 138.194 264.4 138.856 264.395ZM137.257 240.875C137.942 240.128 139.119 240.073 139.969 240.525C140.176 240.635 140.367 240.812 140.549 240.96C141.009 241.332 141.19 242.003 141.215 242.568C141.24 243.127 140.945 243.791 140.549 244.177L140.453 244.27C140.216 244.501 139.877 244.701 139.546 244.762C139.011 244.86 138.563 244.857 138.065 244.647C137.637 244.467 137.269 244.177 137.018 243.783L136.978 243.716C136.961 243.689 136.944 243.661 136.929 243.632L136.907 243.589C136.431 242.673 136.559 241.636 137.257 240.875ZM137.612 217.232C137.921 217.135 138.23 217.121 138.539 217.19C138.749 217.191 138.945 217.244 139.126 217.349C139.323 217.404 139.494 217.504 139.639 217.648C139.813 217.751 139.953 217.89 140.056 218.065C140.261 218.29 140.4 218.553 140.472 218.856L140.555 219.474L140.472 220.093L140.238 220.648C140.173 220.732 140.108 220.816 140.043 220.9C139.939 221.075 139.8 221.215 139.625 221.319C139.511 221.432 139.38 221.517 139.234 221.575C138.717 221.946 138.027 222.068 137.414 221.898C137.05 221.797 136.733 221.612 136.465 221.346C136.199 221.077 136.014 220.761 135.913 220.397L135.871 220.106C135.816 219.716 135.808 219.5 135.918 219.004C135.967 218.786 136.107 218.478 136.181 218.348C136.495 217.796 137.009 217.417 137.612 217.232ZM164.45 200.222C165.337 200.216 166.225 200.217 167.112 200.227L167.778 200.236C168.892 200.253 169.847 200.139 170.723 200.912C171.359 201.473 171.079 202.415 170.475 202.838C169.561 203.478 168.413 203.156 167.362 203.086C166.253 203.011 165.144 202.95 164.034 202.9C161.885 202.804 159.734 202.742 157.583 202.733C155.436 202.724 153.287 202.744 151.14 202.779C148.956 202.814 146.682 203.018 144.51 202.792C144.212 202.761 144.145 202.368 144.439 202.266C146.486 201.558 148.788 201.328 150.933 201.057C153.145 200.778 155.357 200.58 157.583 200.452C159.87 200.32 162.16 200.238 164.45 200.222ZM137.608 193.265L137.681 193.267C138.072 193.268 138.438 193.36 138.778 193.543L138.851 193.583L139.32 193.945C139.607 194.235 139.806 194.576 139.916 194.969L139.999 195.585C140.011 195.904 139.944 196.202 139.799 196.478C139.706 196.765 139.546 197.014 139.32 197.224C139.11 197.45 138.861 197.61 138.574 197.703C138.319 197.837 138.046 197.904 137.755 197.905L137.681 197.903C137.263 197.902 136.873 197.796 136.512 197.587L136.043 197.224C135.756 196.935 135.557 196.594 135.447 196.201L135.364 195.585C135.352 195.266 135.418 194.968 135.564 194.692C135.657 194.404 135.817 194.155 136.043 193.945C136.253 193.719 136.501 193.56 136.789 193.466C137.044 193.332 137.317 193.265 137.608 193.265ZM144.478 138.807C144.978 138.083 145.882 138.727 145.753 139.308C145.787 140.942 145.871 142.527 146.242 144.127C146.412 144.86 146.635 145.593 146.979 146.264L147.123 146.547C147.568 147.426 147.914 148.255 147.314 149.22C147.032 149.675 146.521 150.016 145.968 149.993C143.514 149.887 143.177 146.47 143.028 144.562C142.874 142.598 143.352 140.439 144.478 138.807Z" fill="black"/>
<path fill-rule="evenodd" clip-rule="evenodd" d="M141.465 68.7232C117.151 67.8355 93.917 84.1832 86.0944 107.29C85.526 109.103 87.2948 110.796 89.0797 110.489C87.2543 119.684 91.2438 132.061 101.636 133.365C103.764 133.634 105.904 133.479 108.035 133.675C109.935 133.849 120.278 139.669 124.151 141.033C132.305 143.883 152.824 143.361 160.986 141.033C161.283 141.709 167.622 115.704 169.066 107.641C169.592 104.147 164.782 101.561 165.137 97.9607C165.592 93.3364 170.999 87.6982 169.343 83.2958C164.976 72.0908 152.304 68.9643 141.465 68.7232Z" fill="white"/>
<path fill-rule="evenodd" clip-rule="evenodd" d="M129.39 48.3543C130.482 48.4452 131.581 48.5995 132.66 48.8024C135.941 48.2655 139.336 48.8616 142.518 49.8951C149.969 52.315 157.142 56.5167 162.757 62.0012C165.647 64.8248 168.012 68.0775 169.467 71.8607C170.207 73.7798 170.623 75.8277 170.743 77.8799L170.757 78.1286C170.79 78.8095 170.806 79.626 170.724 80.4347C170.984 82.0674 171.216 83.7134 171.234 85.3647C171.242 86.1296 171.192 86.8932 171.099 87.6517L171.131 87.7238C170.997 88.6294 170.836 89.5313 170.652 90.4284L170.606 90.4878C170.581 90.6702 170.552 90.8522 170.525 91.0342C170.425 91.4953 170.321 91.9555 170.211 92.4139C169.971 93.4066 169.707 94.3927 169.422 95.373C169.372 95.5448 169.42 95.6803 169.513 95.7693C169.305 96.5153 169.078 97.2559 168.826 97.9884C168.95 98.6295 169.075 99.2703 169.207 99.909C169.898 103.231 170.483 106.575 171.269 109.878C172.862 116.582 175.283 123.179 175.949 130.071C176.466 135.416 175.607 141.26 172.285 145.626C169.423 149.388 165.117 151.609 160.467 152.201C158.243 152.487 155.961 152.356 153.785 151.793L153.548 151.731C152.458 151.437 151.071 150.978 150.058 150.238C148.959 149.851 147.922 149.137 147.297 148.439C146.443 147.486 145.512 145.857 145.744 144.502C144.474 144.605 143.196 144.635 141.939 144.631C138.842 144.624 135.717 144.379 132.738 143.479C130.081 142.676 126.983 141.334 125.412 138.912C125.338 138.797 125.46 138.633 125.589 138.677C126.859 139.123 128.046 139.725 129.356 140.066C130.645 140.399 131.933 140.714 133.262 140.852C135.86 141.12 138.497 141.084 141.104 140.955L141.999 140.908C144.788 140.759 147.671 140.546 150.28 139.501C151.303 139.092 152.251 138.52 153.115 137.84L153.25 137.732C153.713 137.356 154.19 137.039 154.676 136.739C154.746 136.65 154.816 136.561 154.885 136.47C155.99 135.052 157.178 133.685 158.173 132.186C160.15 129.213 160.913 126.123 161.016 122.576C161.125 118.833 161.137 115.084 161.182 111.34L161.198 110.092C161.255 105.81 161.264 101.513 161.593 97.2417C161.745 95.2573 161.961 93.2821 162.293 91.3212L162.366 90.9012L162.903 87.8768C163.032 87.1483 163.108 86.3976 163.273 85.6722C163.087 85.3679 162.873 85.0749 162.624 84.796C162.395 84.5387 162.162 84.2891 161.93 84.0412L161.762 83.8933C161.379 83.5516 161.05 83.2254 160.742 82.7552L160.668 82.6389C160.337 82.2393 160.024 81.8212 159.748 81.3619L159.698 81.2728C159.629 81.1863 159.56 81.0997 159.489 81.0143C159.268 80.7482 159.036 80.4969 158.796 80.2562C157.955 81.8814 156.765 83.2892 155.081 84.1693C154.472 84.4876 153.729 84.215 153.529 83.5378C153.025 81.8284 152.26 80.2388 151.248 78.7993C149.557 81.6141 146.876 83.8157 143.716 84.89C142.927 85.1584 142.232 84.3299 142.417 83.59C142.987 81.3157 143.101 79.0029 142.766 76.7165C141.573 77.569 140.343 78.372 139.08 79.1163C136.27 81.2897 133.292 83.2455 130.016 84.6499C129.26 84.9746 128.121 84.4291 128.465 83.4566C128.754 82.6379 128.992 81.8054 129.145 80.9505L129.178 80.7528C129.179 80.7469 129.18 80.741 129.181 80.7349C121.595 91.2034 103.199 101.291 101.787 101.389L101.748 101.389C102.63 102.232 103.342 103.273 103.808 104.469C104.297 105.726 102.302 106.273 101.787 105.071L101.77 105.031C100.977 102.992 99.0147 101.531 96.8798 101.186C95.5894 101.42 94.3698 102.042 93.5376 102.986C91.9003 104.844 91.8855 107.084 93.0031 109.198L93.1671 109.506C93.7721 110.635 94.4094 111.766 94.7503 113.006C95.1665 114.528 94.8517 116.071 95.1242 117.591L95.139 117.671C95.2682 118.347 95.5472 119.115 96.3517 118.931C96.4138 118.916 96.4738 118.897 96.5336 118.876C96.7032 119.012 96.9073 119.123 97.1617 119.198C97.7845 119.379 98.4726 119.291 99.0925 119.144C99.6912 119.003 100.273 118.781 100.832 118.521C100.894 118.674 100.932 118.834 100.936 118.988C100.955 119.774 100.63 120.421 100.129 120.947C100.928 121.957 101.61 123.069 102.379 124.1C103.484 125.58 104.614 127.027 105.816 128.429C107.067 129.889 108.43 131.269 109.843 132.573C110.834 133.486 112.471 134.463 113.093 135.788C113.807 136.01 114.413 136.557 114.635 137.457C115.038 139.089 115.157 142.912 114.84 144.572C114.525 146.216 113.325 147.241 111.998 148.107C111.631 148.348 111.214 148.323 110.876 148.143C110.578 148.433 110.243 148.699 109.858 148.936C108.438 149.813 106.788 150.132 105.153 150.316C102.945 151.022 100.564 151.208 98.2108 150.768C97.4418 150.859 96.6728 150.942 95.9017 151.009C88.0129 151.696 79.9932 151.111 72.2989 149.232C68.7686 148.369 65.435 146.802 62.3291 144.789C56.9761 141.319 54.7104 131.58 57.8165 122.27L58.0624 121.536C59.4621 117.376 60.9714 113.239 62.9946 109.358L63.2362 108.897C65.0959 105.358 67.1416 101.822 69.8587 98.8691C71.2193 97.3918 72.7996 96.0497 74.5848 95.1113C75.2625 94.7554 76.0537 94.5086 76.827 94.2285L76.8428 94.035L76.8595 93.8415C76.9104 93.2214 76.9753 92.6024 77.0589 91.9848C77.3712 89.6752 77.8119 87.3996 78.4379 85.1527C79.0647 82.9029 79.8354 80.6909 80.7627 78.547C82.3096 74.9701 84.2524 71.5771 86.495 68.3933C86.6551 68.0644 86.8176 67.7368 86.9841 67.4118C88.8749 63.7153 91.3235 60.1899 94.482 57.4614C98.1073 54.3292 102.474 52.3848 107.031 51.0194C111.757 49.6055 116.688 48.6375 121.613 48.312C124.205 48.1408 126.802 48.1387 129.39 48.3543ZM94.8266 107.74C97.1992 106.186 100.432 107.251 101.634 109.775C102.502 111.603 99.6309 112.632 99.1766 110.811C98.7245 108.984 96.783 107.676 94.9175 107.955C94.7886 107.976 94.7083 107.816 94.8266 107.74Z" fill="black"/>
<path fill-rule="evenodd" clip-rule="evenodd" d="M150.685 125.112L150.831 125.078C151.999 124.803 153.122 124.428 154.209 125.152C155.245 125.841 155.388 127.116 154.581 128.046C153.752 129.002 152.65 128.949 151.487 128.962L151.414 128.963C150.449 128.976 149.467 128.962 148.505 128.876C147.608 128.796 146.706 128.668 145.819 128.501L145.295 128.398C144.759 128.29 144.232 128.149 143.956 127.63C143.475 126.726 147.052 126.017 147.486 125.893C148.541 125.592 149.616 125.354 150.685 125.112ZM152.67 114.213C152.099 114.804 151.346 115.208 150.501 115.46C148.376 116.092 145.664 115.755 143.929 115.111C143.569 114.977 143.232 114.705 143.039 114.365C142.862 114.053 142.802 113.688 142.937 113.315C142.975 113.209 143.022 113.104 143.068 113.002C143.196 112.723 143.455 112.506 143.76 112.382C144.077 112.253 144.436 112.227 144.725 112.318C144.764 112.33 144.804 112.343 144.844 112.356C145.944 112.702 147.748 113.277 149.242 113.165C150.139 113.099 150.927 112.782 151.335 111.961C151.55 111.528 151.491 111.1 151.3 110.708C151.012 110.117 150.437 109.603 149.952 109.249C149.268 108.749 148.538 108.55 147.784 108.339C147.5 108.26 147.212 108.179 146.921 108.083C146.825 108.051 146.741 107.989 146.679 107.909C146.617 107.829 146.576 107.731 146.563 107.634C146.55 107.532 146.566 107.431 146.613 107.344C146.657 107.264 146.726 107.193 146.83 107.146C148.306 106.485 150.215 106.922 151.656 107.963C152.376 108.483 152.976 109.151 153.347 109.898C153.69 110.59 153.836 111.351 153.702 112.126C153.551 112.994 153.184 113.679 152.67 114.213ZM128.48 99.452C128.895 99.2691 129.235 100.125 129.321 100.358L129.497 100.842C129.785 101.623 130.116 102.416 130.721 102.996C131.228 103.481 132.04 103.892 132.628 103.324C133.186 102.786 132.914 102.18 132.996 101.519C133.145 100.325 134.773 99.1307 135.752 100.377C137.963 103.194 134.542 107.11 131.39 106.423C129.787 106.074 128.497 104.788 127.967 103.259L127.94 103.178C127.622 102.21 127.301 99.9721 128.48 99.452ZM157.018 101.413L157.003 101.378C155.95 98.9808 159.707 97.9507 160.026 100.103L160.046 100.248C160.356 102.637 159.703 105.85 156.778 106.088C153.494 106.356 152.127 102.691 152.42 100.001C152.473 99.52 153.057 99.4534 153.237 99.8909L153.276 99.9864C153.806 101.338 154.309 103.937 156.177 103.935C157.425 103.933 157.366 102.247 157.018 101.413ZM159.401 94.4748C161.288 94.4078 161.286 97.3629 159.401 97.4072C153.105 97.5554 146.804 97.7524 140.505 97.7862L139.361 97.7932C133.445 97.8329 127.509 97.9137 121.61 97.417C121.107 97.3747 121.2 96.6675 121.621 96.696C127.805 95.8156 134.064 95.5581 140.295 95.2236C146.658 94.8818 153.033 94.7009 159.401 94.4748Z" fill="black"/>
</svg>
