<svg width="240" height="324" viewBox="0 0 240 324" fill="none" xmlns="http://www.w3.org/2000/svg">
<path fill-rule="evenodd" clip-rule="evenodd" d="M114.339 135.723C119.555 131.751 132.647 129.964 138.214 133.789C143.711 137.631 144.31 143.843 146.872 149.557C149.289 148.417 153.281 150.05 153.982 152.294C154.851 153.352 154.89 156.325 155.489 157.747C181.569 161.9 185.528 182.24 188.667 205.332C192.82 228.764 202.247 252.145 198.154 276.257C198.687 277.029 199.108 277.78 199.497 278.671C200.428 280.256 199.228 282.501 197.349 282.414C194.918 282.2 192.51 281.908 190.066 281.817C183.293 281.582 176.514 281.61 169.738 281.696L168.814 281.708C134.666 282.133 100.52 282.971 66.3711 283.194C65.1322 283.195 64.5257 282.084 64.6911 280.987C65.0243 278.78 65.3334 276.571 65.656 274.363C57.5788 276.497 48.992 277.034 40.9377 274.587C40.3742 274.013 42.2505 274.324 42.5482 274.237C35.1356 269.17 37.3493 258.495 38.0059 250.807C42.0889 224.462 43.5282 195.313 59.3034 172.832C66.1279 163.658 76.1334 156.394 87.6303 154.76L87.9493 154.716C91.311 154.267 95.0576 154.123 97.9968 152.294C101.303 149.653 102.711 144.775 106.189 144.73C107.337 144.715 108.9 146.168 110.581 147.155C110.706 144.984 111.876 143.152 112.134 141.469L112.155 141.325C112.424 139.363 112.055 137.598 114.339 135.723ZM170.386 206.028C163.057 200.935 144.125 203.494 143.692 203.779C142.737 204.407 142.326 204.463 141.81 205.278C141.301 205.346 140.791 205.416 140.283 205.488C139.262 205.822 140.018 207.077 141.197 206.629C140.488 209.688 142.575 211.864 143.406 214.888C143.675 215.87 143.415 217.636 143.406 218.64C143.486 219.919 144.9 221.43 144.664 222.714C143.827 227.276 139.281 231.727 141.197 236.152C142.467 238.652 146.286 239.926 148.825 240.776C154.085 242.795 163.251 240.7 166.307 236.152C167.938 233.727 169.826 227.609 170.798 225.711L171.014 222.701C171.545 215.218 172.018 207.162 170.386 206.028Z" fill="white"/>
<path fill-rule="evenodd" clip-rule="evenodd" d="M104.912 144.288C105.418 143.84 106.167 144.403 105.845 145.009C105.123 146.37 104.382 147.659 103.412 148.862C102.824 149.592 102.194 150.282 101.556 150.964C103.194 152.381 104.599 154.141 105.925 155.791C107.621 157.9 109.225 160.099 111.129 162.029C113.007 163.933 115.084 165.264 117.594 166.151L118.101 166.327C120.624 167.213 123.319 168.409 124.741 170.798C125.021 171.269 124.457 171.851 123.982 171.557C121.512 170.027 118.609 169.719 115.92 168.708C113.323 167.732 111.058 166.229 109.058 164.31C107.06 162.395 105.383 160.216 103.634 158.083C101.904 155.974 100.042 154.172 97.9955 152.388C94.838 154.513 91.2338 155.438 87.5689 156.346L87.1689 156.445C83.4996 157.354 79.8499 158.409 76.4075 159.992C73.3725 161.387 70.3872 163.053 67.915 165.323C65.2906 167.733 63.2481 170.81 61.3786 173.819C57.1967 180.552 54.2567 187.928 51.6685 195.394C48.9765 203.159 46.7248 211.08 44.9071 219.095C43.9826 223.172 43.2317 227.278 42.6146 231.413C42.3176 233.404 42.0537 235.4 41.822 237.4C41.5746 239.536 41.5177 241.733 40.8628 243.786C40.582 244.666 39.9191 245.032 39.2555 245L39.1207 246.687C38.942 248.935 38.7754 251.184 38.7191 253.446C38.6257 257.208 38.668 260.959 38.9385 264.712L38.9768 265.224C39.1894 267.964 39.6643 271.042 41.7235 273.048C43.856 275.126 47.1356 275.779 50.0098 275.816C56.7043 275.903 63.1484 272.739 69.0723 269.963C75.1733 267.104 81.1076 263.931 86.8997 260.489C89.8494 258.736 92.7672 256.925 95.6479 255.061C97.0615 254.146 98.4651 253.216 99.8582 252.271C100.656 251.729 101.412 251.136 102.225 250.655C101.827 250.284 101.649 249.702 101.982 249.193C99.6341 247.153 98.6567 243.515 98.5424 240.57C98.4501 238.194 98.7998 235.824 99.0757 233.47C99.2149 232.282 99.3869 231.097 99.5654 229.916C99.636 229.449 99.6898 228.949 99.7722 228.456C93.4315 231.942 86.913 235.047 80.222 237.804C76.7922 239.218 73.3186 240.489 69.797 241.654L69.0832 241.889C65.7464 242.982 62.3299 244.014 58.8803 244.638C58.6959 244.672 58.5461 244.399 58.743 244.313C62.1047 242.829 65.5828 241.577 68.995 240.21L69.5557 239.982C69.4913 239.978 69.4245 239.969 69.3548 239.953C67.3536 239.47 65.3682 238.725 63.4055 238.098C61.5839 237.516 59.5374 237.151 57.8348 236.273C57.7038 236.205 57.7771 236.023 57.9047 236.014C59.8184 235.881 61.8958 236.439 63.772 236.768L64.4769 236.891C65.6577 237.099 66.8646 237.323 68.0396 237.615C68.0821 237.222 68.302 236.826 68.6149 236.594C72.0579 234.043 71.7083 228.892 72.0765 225.093L72.3496 222.272C72.8299 217.336 73.338 212.4 74.11 207.501C74.1512 207.24 74.5558 207.315 74.5575 207.562C74.5973 213.635 74.139 219.68 73.9093 225.743L73.8737 226.738C73.7467 230.48 73.6472 234.365 71.2917 237.244C71.621 237.051 72.0664 237.051 72.3332 237.369C72.6611 237.759 72.8504 238.197 72.8445 238.627C74.973 237.735 77.0922 236.819 79.2011 235.884C85.9813 232.879 92.6194 229.516 99.0818 225.878C99.7773 225.486 100.438 225.794 100.782 226.31L100.832 226.303C100.84 226.302 100.849 226.301 100.857 226.301L100.907 226.299C100.908 226.299 100.91 226.299 100.912 226.299C101.822 225.799 103.061 226.155 103.842 226.884C103.865 226.906 103.884 226.93 103.905 226.953C104.893 226.509 105.816 225.91 106.653 225.151C108.367 223.597 109.819 221.676 111.084 219.749C113.415 216.2 115.394 212.254 118.543 209.333C121.1 206.96 124.271 205.482 127.598 204.555C127.584 204.458 127.622 204.354 127.689 204.285C127.86 204.11 127.982 204.049 128.202 204.156C128.22 204.164 128.23 204.176 128.238 204.189L128.562 203.634C128.739 203.333 128.921 203.029 128.984 202.95C129.362 202.474 129.751 202.002 130.146 201.54C130.815 200.757 131.577 199.985 132.46 199.442C134.393 198.254 136.425 198.926 138.413 199.576C139.614 199.968 140.81 200.373 142.009 200.772L142.133 200.812C143.027 201.099 144.073 201.351 144.472 202.298C144.63 202.673 144.655 203.062 144.581 203.439C153.071 201.28 162.5 202.272 170.785 204.807C171.103 204.905 171.42 205.166 171.487 205.51C172.436 210.38 172.859 215.374 172.429 220.326C172.059 224.602 171.112 228.791 169.328 232.705L169.226 232.926C167.549 236.553 164.891 241.025 160.832 242.162C158.381 242.848 155.671 242.444 153.171 242.318C150.742 242.195 148.258 242.178 145.852 241.796C143.709 241.455 141.831 240.494 140.507 238.751C139.364 237.247 138.763 235.429 138.27 233.621C138.044 233.693 137.82 233.77 137.599 233.856C136.668 234.22 135.879 234.807 135.166 235.498C133.66 236.957 132.492 238.729 130.916 240.121C129.489 241.382 127.864 242.362 126.12 243.116C122.507 244.678 118.631 245.302 114.81 246.129L114.543 246.187C111.666 246.819 108.73 247.594 106.19 249.093C106.14 249.534 105.94 249.949 105.618 250.221C106.065 250.642 106.255 251.308 105.862 251.933C104.762 253.679 102.868 254.672 101.168 255.788L101.058 255.861C99.3854 256.97 97.6984 258.057 95.9977 259.122C92.5403 261.288 89.0107 263.334 85.4312 265.29C79.6739 268.437 73.7931 271.405 67.8058 274.097C68.1651 275.866 68.0338 277.689 68.3039 279.47L68.3453 279.724C68.4607 280.385 68.3049 280.937 67.8499 281.369L67.8017 281.413L67.8026 281.407L67.7599 281.447L67.7457 281.459L67.7504 281.455C67.698 281.503 67.6439 281.548 67.5887 281.586L67.5184 281.631C67.0802 281.897 66.516 281.894 66.0674 281.659L66.0161 281.631L65.9299 281.582C65.3371 281.24 64.9283 280.395 65.1742 279.724C65.7786 278.074 66.007 276.312 66.5652 274.651L66.1224 274.849L65.5387 275.104C59.2265 277.834 52.2149 280.134 45.3372 278.272C42.2984 277.45 39.4581 275.709 37.9376 272.873C36.4414 270.082 36.2299 266.841 36.1505 263.736C36.0525 259.904 36.2578 256.014 36.7629 252.214C37.102 249.664 37.5121 247.066 38.1446 244.542C37.8193 244.255 37.5801 243.843 37.517 243.333C37.2184 240.922 37.7409 238.416 38.0608 236.019C38.3732 233.677 38.7184 231.34 39.1089 229.011C39.8971 224.307 40.8129 219.612 41.8792 214.963C43.7768 206.688 46.2827 198.561 49.2996 190.627L49.5638 189.936C52.3515 182.685 55.5794 175.589 60.074 169.219C62.2241 166.171 64.4969 163.408 67.5349 161.212C70.3811 159.154 73.5915 157.672 76.9046 156.54C80.2213 155.407 83.6303 154.647 87.0996 154.175C90.6229 153.695 94.3418 153.401 97.6285 151.955C97.2127 151.21 97.5696 150.203 98.2693 149.74C100.624 148.184 102.802 146.159 104.912 144.288ZM180.294 211.967C180.392 211.817 180.627 211.912 180.583 212.089C179.438 216.783 178.363 221.487 177.661 226.27C176.393 234.904 176.627 243.65 176.73 252.348L176.735 252.797C176.789 257.482 176.863 262.167 177.017 266.85C177.096 269.217 177.25 271.607 177.166 273.975C177.12 275.26 176.778 276.475 176.657 277.744C176.551 278.854 176.645 279.98 176.698 281.092C176.734 281.831 175.644 281.799 175.569 281.092L175.475 280.177C175.351 279.019 175.199 277.868 174.82 276.76C174.364 275.427 174.145 274.118 173.987 272.718C173.744 270.573 173.636 268.407 173.543 266.248L173.479 264.754C173.088 255.728 173.102 246.66 173.734 237.644L173.781 237C174.407 228.478 175.493 219.269 180.294 211.967ZM155.881 158.253C155.581 158.13 155.686 157.678 156.018 157.757L156.62 157.9C161.034 158.958 165.369 160.104 169.489 162.072C173.612 164.042 177.102 166.982 179.876 170.597C185.267 177.625 187.508 186.166 189.277 194.698C191.242 204.18 193.032 213.696 195.015 223.174L195.383 224.94C197.217 233.768 198.95 242.601 200.226 251.533L200.318 252.181C201.605 261.367 202.379 270.87 200.974 280.08C200.697 281.902 197.666 281.448 197.784 279.648C198.127 274.444 198.372 269.267 198.135 264.052C197.898 258.835 197.409 253.641 196.68 248.47C196.066 244.118 195.151 239.82 194.342 235.503L194.215 234.821C193.537 231.149 192.839 227.481 192.142 223.813L191.1 218.32C189.538 210.096 187.946 201.864 186.147 193.692L186.04 193.211C184.28 185.348 181.685 177.112 176.404 170.868C171.045 164.532 163.374 161.341 155.881 158.253ZM136.409 241.652C136.538 241.364 136.988 241.396 137.127 241.652C137.67 242.654 137.73 243.933 137.833 245.065L137.844 245.181C137.974 246.562 138.09 247.948 138.161 249.333C138.295 251.962 138.359 254.587 138.351 257.22C138.342 259.917 138.288 262.612 138.143 265.306L138.103 266.027C137.971 268.368 137.748 270.979 136.636 273.026C136.232 273.77 135.133 273.551 134.899 272.799C134.132 270.335 134.526 267.414 134.722 264.891L134.875 262.922C135.026 260.953 135.171 258.984 135.285 257.012C135.442 254.315 135.571 251.616 135.695 248.918C135.736 248.041 135.78 247.165 135.826 246.288L135.897 244.974C135.957 243.874 135.952 242.668 136.409 241.652ZM50.1803 245.143L50.5198 244.815C51.562 243.795 52.879 242.223 54.4196 242.321C55.034 242.36 55.4255 242.87 55.2981 243.475C55.026 244.767 53.7079 245.438 52.7591 246.227C51.7196 247.091 50.74 248.015 49.7622 248.948C48.8948 249.775 48.0606 250.625 47.2464 251.503L46.942 251.833C46.6502 252.151 44.5719 254.032 44.7966 254.52L44.8089 254.542C44.8714 254.635 44.7672 254.763 44.6635 254.731C43.766 254.447 43.822 253.678 44.1613 252.898C44.8133 251.4 45.955 250.014 46.952 248.735C47.9462 247.458 49.0224 246.27 50.1803 245.143ZM139.661 207.575C138.967 205.934 136.41 205.968 134.959 206.067C131.304 206.314 127.349 207.239 124.097 208.948C120.726 210.719 118.455 213.558 116.423 216.697L116.328 216.845C114.347 219.925 112.439 223.571 109.338 225.688C107.758 226.767 105.914 227.753 103.997 228.179C103.866 228.411 103.652 228.594 103.373 228.66L103.243 228.69C102.697 228.811 101.849 228.944 101.116 228.864C101.121 229.223 101.118 229.579 101.127 229.918C101.152 230.892 101.163 231.869 101.163 232.843C101.164 234.883 101.054 236.928 101.139 238.968C101.215 240.773 101.47 242.659 102.336 244.272C102.971 245.456 103.81 246.239 104.822 246.987C107.312 245.469 110.127 244.543 112.985 243.847C116.441 243.006 119.979 242.445 123.357 241.304C124.982 240.754 126.545 240.036 127.961 239.059C129.464 238.023 130.611 236.62 131.792 235.248L131.977 235.035C133.182 233.652 134.497 232.329 136.201 231.579C137.667 230.934 139.601 230.819 140.883 229.819C141.554 229.296 141.61 228.538 141.681 227.761C140.859 227.878 139.99 227.69 139.171 227.594L138.747 227.544C137.973 227.452 137.216 227.351 136.454 227.154C136.313 227.117 136.313 226.904 136.454 226.867C137.355 226.635 138.248 226.536 139.171 226.427L139.388 226.4C140.223 226.291 141.101 226.125 141.921 226.309C142.068 225.75 142.28 225.215 142.578 224.68C142.996 223.928 143.787 223.076 143.894 222.198C143.926 221.936 143.865 221.626 143.742 221.394L143.699 221.315C143.647 221.222 143.586 221.128 143.496 221.07C143.486 221.082 143.464 221.095 143.419 221.109C142.788 221.308 142.238 220.999 141.946 220.523C140.706 220.677 139.354 220.625 138.191 220.677L137.016 220.734C135.76 220.791 134.447 220.816 133.267 220.563C133.102 220.527 133.053 220.253 133.218 220.182C134.668 219.562 136.428 219.364 137.981 219.125C138.849 218.992 139.723 218.89 140.593 218.773C141.172 218.695 141.787 218.566 142.387 218.535C143.892 216.661 143.081 213.704 140.987 212.897C140.224 213.233 139.538 213.038 138.704 212.966C137.872 212.895 137.038 212.846 136.203 212.85C134.529 212.857 132.755 213.298 131.098 213.108C130.828 213.077 130.578 212.718 130.846 212.499C132.115 211.463 133.933 211.126 135.544 210.905L135.877 210.86C136.417 210.789 137.074 210.686 137.755 210.625C137.909 210.324 138.186 210.097 138.601 210.04C138.724 210.023 138.848 210.014 138.972 210.003L138.97 209.991C139.982 209.942 139.938 208.231 139.661 207.575ZM70.3505 239.579C70.3326 239.606 70.313 239.633 70.2922 239.658L70.2601 239.695L70.4266 239.628L70.3505 239.579ZM157.327 203.908C153.066 203.45 148.799 203.547 144.525 203.67C144.183 204.788 142.993 205.741 141.84 205.777C142.743 207.152 142.836 209.013 142.203 210.471C143.548 211.006 144.706 211.968 145.409 213.338C146.384 215.236 146.256 217.349 145.293 219.103C146.115 219.848 146.6 221.058 146.552 222.198C146.497 223.469 145.74 224.555 145.111 225.608C144.431 226.746 144.408 227.748 144.199 229.023C143.893 230.889 142.635 232.02 141.017 232.727L141.103 233.066C141.52 234.691 142.039 236.405 143.232 237.593C144.766 239.122 147.146 239.108 149.173 239.204L149.271 239.209C151.127 239.302 152.982 239.411 154.838 239.516L156.23 239.594C158.366 239.711 160.418 239.725 162.162 238.313C165.009 236.006 166.961 232.19 168.196 228.811C170.789 221.719 170.82 213.936 169.63 206.549C165.638 205.262 161.496 204.356 157.327 203.908ZM121.89 215.675L121.921 215.677C122.799 215.777 123.401 216.488 123.616 217.331C123.928 218.556 123.775 219.664 124.525 220.77C125.297 221.908 125.771 222.819 125.883 224.224C125.929 224.802 125.908 225.379 126.037 225.945L126.13 226.341C126.229 226.764 126.31 227.171 126.261 227.625C126.216 228.039 126.015 228.362 125.599 228.495C124.247 228.928 123.202 227.93 122.853 226.669C122.551 225.58 122.954 224.282 122.528 223.259C122.292 222.692 121.857 222.218 121.611 221.647C121.367 221.081 121.245 220.49 121.206 219.875C121.132 218.712 122.16 217.314 121.586 216.26C121.464 216.035 121.603 215.668 121.89 215.675ZM103.921 203.67C104.837 203.484 105.876 203.057 106.779 203.412C107.244 203.595 107.473 204.161 107.081 204.555C106.4 205.238 105.41 205.276 104.492 205.437L104.412 205.451C103.327 205.652 102.24 205.843 101.152 206.023C99.1043 206.362 97.0521 206.662 94.9926 206.917C92.8774 207.179 90.7563 207.412 88.6322 207.588L87.8099 207.655C86.0157 207.799 84.1487 207.907 82.3882 207.632C82.1324 207.592 82.1736 207.219 82.3882 207.154C84.3169 206.57 86.4325 206.414 88.4265 206.166C90.5463 205.903 92.6626 205.625 94.7734 205.296C96.8807 204.966 98.9854 204.613 101.082 204.222C102.03 204.046 102.976 203.862 103.921 203.67ZM136.975 201.795C136.171 201.51 135.286 201.089 134.415 201.23C132.913 201.473 131.576 202.937 130.387 203.901L130.984 203.785C134.039 203.198 138.084 202.565 140.649 204.508C140.655 204.497 140.66 204.486 140.668 204.475C140.875 204.16 141.115 203.915 141.376 203.646C141.401 203.622 141.426 203.598 141.449 203.573L141.591 203.423L141.268 203.311C140.576 203.066 139.756 202.75 139.627 202.704L139.618 202.701C138.735 202.402 137.852 202.106 136.975 201.795ZM111.876 137.74C111.75 136.123 114.266 136.136 114.391 137.74C114.663 141.242 113.875 144.711 112.179 147.782C112.167 147.804 112.153 147.824 112.14 147.845C113.201 148.397 114.273 148.927 115.37 149.4C116.772 150.006 118.201 150.557 119.656 151.025C120.972 151.449 122.593 151.616 123.699 152.497C126.032 154.356 125.155 158.212 124.707 160.712L124.637 161.106C124.413 162.392 124.252 163.712 124.794 164.947C125.372 166.265 126.543 167.243 127.587 168.187L127.798 168.378C128.724 169.221 129.781 170.246 130.459 171.389C131.079 170.108 131.923 169.061 132.816 167.882C133.453 167.041 132.999 166.763 132.542 165.942C132.101 165.151 131.886 164.308 132.024 163.405C132.278 161.739 133.609 160.536 134.934 159.631C136.499 158.564 138.246 157.773 139.864 156.78C143.188 154.739 146.425 152.406 149.341 149.815C149.422 149.744 149.561 149.838 149.497 149.935C147.193 153.441 144.492 156.47 141.172 159.042C139.825 160.084 138.411 160.949 136.987 161.858L136.578 162.121C136.006 162.491 135.293 162.987 135.035 163.617C134.775 164.251 135.33 164.73 135.628 165.256C136.576 166.924 136.119 168.481 134.995 169.896L134.943 169.961C133.826 171.338 132.979 172.618 132.575 174.377C131.705 178.156 132.916 182.091 134.184 185.638L134.235 185.778C134.921 187.69 135.65 189.588 136.246 191.53L136.41 192.067C136.95 193.855 137.392 195.617 136.786 197.455C136.58 198.08 135.728 198.228 135.374 197.639C134.126 195.565 133.815 193.069 133.032 190.789C132.269 188.566 131.394 186.384 130.657 184.152C129.708 181.279 129.073 178.186 129.418 175.172C129.408 175.154 129.397 175.138 129.388 175.119L129.147 174.591C128.488 173.16 127.852 171.911 126.655 170.77C125.406 169.58 124.05 168.527 123.067 167.087C120.933 163.959 122.253 160.479 122.511 157.059L122.54 156.639C122.587 155.929 122.613 154.964 122.149 154.472C121.627 153.919 120.404 153.778 119.712 153.533C117.923 152.9 116.161 152.162 114.482 151.276C112.884 150.433 111.336 149.501 109.895 148.41L109.164 147.86C108.012 146.99 106.817 146.04 106.044 144.855C105.955 144.719 106.106 144.499 106.268 144.564C107.557 145.088 108.736 145.921 109.942 146.645C109.961 146.601 109.983 146.556 110.007 146.512C111.5 143.809 112.114 140.814 111.876 137.74ZM153.069 156.258C153.583 154.848 155.925 154.957 155.831 156.632C155.76 157.919 155.214 159.08 154.715 160.248L154.661 160.373C154.146 161.59 153.55 162.733 152.838 163.849C151.477 165.981 149.882 167.96 148.179 169.828C146.635 171.521 144.609 172.557 142.274 172.385C141.29 172.312 140.297 172.062 139.435 171.57C138.411 170.986 137.298 169.232 135.992 169.657C135.866 169.698 135.748 169.513 135.857 169.425C137.365 168.21 139.077 170.094 140.521 170.548C142.697 171.232 144.93 170.476 146.33 168.716C147.792 166.879 149.138 164.822 150.367 162.821C150.991 161.805 151.561 160.751 152.052 159.665C152.549 158.568 152.662 157.376 153.069 156.258ZM149.562 147.584C149.499 147.389 149.74 147.204 149.911 147.315C150.902 147.96 151.761 148.813 152.675 149.561C153.69 150.39 154.711 151.203 155.749 152.003C157.261 153.169 155.507 155.316 154.176 154.042C152.354 152.299 150.358 150.02 149.562 147.584ZM144.121 140.761C144.523 139.208 146.905 139.849 146.558 141.384L146.546 141.43C145.889 143.966 146.825 146.547 148.824 148.191L148.897 148.251C150.161 149.263 148.37 151.032 147.118 150.03C144.386 147.842 143.249 144.125 144.121 140.761Z" fill="black"/>
<path fill-rule="evenodd" clip-rule="evenodd" d="M164.804 91.3169C164.02 85.0565 161.557 78.4097 158.966 72.5733C153.14 60.2334 139.804 58.5344 127.848 55.9902C116.05 54.2719 103.556 52.7204 91.9363 56.1487C85.4037 57.7497 82.8522 65.5328 83.8832 71.6749C84.4716 75.5022 86.2131 79.1246 87.6981 82.6717C90.6497 89.9561 92.5224 97.7547 92.5255 105.641C92.3229 110.795 91.5958 116.678 97.5163 118.861C103.15 121.664 103.626 129.262 110.681 133.572C113.533 139.352 121.303 139.861 126.896 141.202C130.431 141.879 134.005 142.377 137.59 142.699C147.968 144.029 156.271 141.02 161.704 131.771C165.34 126.142 168.047 119.643 167.378 112.821C166.712 105.637 165.602 98.491 164.804 91.3169Z" fill="white"/>
<path fill-rule="evenodd" clip-rule="evenodd" d="M127.937 40.9933C128.53 40.3216 129.443 40.552 129.997 41.0831C130.357 41.1894 130.707 41.3475 131.037 41.5568C131.782 41.461 132.564 41.461 133.296 41.4879C133.473 41.3883 133.663 41.2998 133.87 41.2237C135.349 40.6828 136.659 40.9576 137.739 41.6817C138.259 41.1892 138.916 40.8802 139.755 40.9269C140.504 40.9688 141.038 41.3213 141.495 41.7857C141.951 41.1277 142.688 40.6583 143.607 40.593C144.891 40.5017 146.125 41.0168 147.148 41.8142C147.744 41.1303 148.557 40.7371 149.462 40.7333C150.058 40.6251 150.687 40.6678 151.255 40.8394C152.079 41.0886 152.804 41.5555 153.38 42.1614C154.293 41.2873 155.41 40.6583 156.698 40.75C158.365 40.8705 159.746 42.0966 160.389 43.6056C161.517 44.0577 162.558 44.7025 163.429 45.6219C163.475 45.6703 163.52 45.721 163.566 45.7719C164.035 45.945 164.477 46.1904 164.865 46.5136C166.097 47.5388 166.372 49.0225 165.964 50.4764C166.021 50.7091 166.07 50.9458 166.114 51.1823C167.267 51.3577 168.315 52.0237 168.911 53.1079C169.727 54.5958 169.566 56.5569 168.683 57.9774C168.303 58.5884 167.821 59.1033 167.28 59.5535C167.892 60.9441 167.599 62.6037 166.612 63.7285C166.371 64.1163 166.076 64.4663 165.744 64.7831C166.111 66.2209 165.459 67.7044 164.157 68.4726L164.046 68.7514C164.027 68.7977 164.008 68.8438 163.989 68.8894C163.974 68.9486 163.956 69.0059 163.939 69.0636C163.908 69.5738 163.74 70.0745 163.407 70.5462C162.724 71.513 161.878 72.1434 161.429 73.272L161.385 73.3906C161.192 73.9246 160.569 74.3015 160.038 74.1366C162.985 80.1899 164.529 86.9254 165.59 93.5263C166.119 96.8194 166.527 100.124 166.858 103.441L167.183 106.744C167.468 109.68 167.722 112.626 167.724 115.572C167.728 122.236 165.822 128.646 161.732 133.949C157.864 138.962 152.39 142.596 146.206 144.026C139.822 145.502 132.332 144.92 126.607 141.543C124.919 140.55 126.398 138.161 128.115 138.961C131.367 140.474 134.671 141.598 138.275 141.85C141.789 142.097 145.31 141.657 148.642 140.507C154.154 138.603 158.844 134.615 161.859 129.648C163.344 127.201 164.42 124.544 164.992 121.737C165.705 118.239 165.597 114.623 165.336 111.08L165.317 110.838C164.8 104.011 164.117 97.1425 163.015 90.3838C162.04 84.407 160.541 78.5513 158.595 72.8252C157.833 72.1539 156.98 71.5985 156.068 71.1767C149.386 70.8975 142.692 70.979 136.019 71.4402C130.328 71.8361 124.664 72.5058 119.043 73.482L118.441 73.5877C117.197 73.8094 115.815 73.9363 114.643 74.4374C113.637 74.8685 113.229 75.697 112.976 76.7155C112.338 79.2919 112.241 82.1115 112.133 84.7534C112.027 87.3359 112.266 89.9399 112.059 92.514C111.884 94.6676 111.332 96.872 109.737 98.4299C108.903 99.2455 107.876 99.6914 106.913 100.311C106.289 100.71 106.025 101.122 106.106 101.862C106.279 103.481 107.582 105.52 106.118 106.907C105.86 107.15 105.415 107.182 105.161 106.907C104.557 106.25 103.722 105.749 103.006 105.218C102.706 104.999 102.956 104.572 103.296 104.724C103.744 104.925 104.2 105.161 104.667 105.368C103.636 104.519 102.17 104.102 100.948 103.855C100.334 103.732 99.6872 103.696 99.0471 103.754C98.5738 103.98 98.09 104.189 97.6062 104.394C96.9914 104.652 96.3703 104.886 95.745 105.109C93.5752 106.877 92.54 109.754 92.9921 112.567C93.2393 114.12 93.9555 115.809 95.3055 116.716C96.9048 117.79 99.0471 117.329 100.775 118.126C102.394 118.871 103.378 120.379 104.115 121.938L104.423 122.588C105.107 124.026 105.811 125.425 106.746 126.734C107.827 128.249 109.152 129.61 110.597 130.779C111.298 131.345 112.045 131.854 112.818 132.317L113.029 132.442C113.81 132.901 114.37 133.338 114.423 134.308C114.44 134.647 114.227 134.955 113.952 135.131C112.769 135.881 111.592 134.943 110.608 134.287C109.545 133.581 108.529 132.787 107.589 131.92C105.801 130.276 104.255 128.323 103.065 126.203C102.159 124.589 101.644 122.317 100.211 121.065C99.3365 120.302 98.1006 120.296 97.0083 120.156C95.9921 120.026 95.0309 119.814 94.1266 119.313C90.4485 117.27 89.409 112.322 90.2816 108.499C90.4295 107.854 90.6365 107.226 90.8921 106.622C89.5231 106.85 87.9851 105.434 88.5407 104.005C88.583 103.897 88.6316 103.796 88.6781 103.692C87.7759 103.098 87.064 102.198 86.7259 101.021C86.5527 100.412 86.5274 99.7971 86.6182 99.2032C86.1809 98.9096 85.8196 98.5057 85.5872 98.0091C84.8605 97.673 84.2161 97.1702 83.8316 96.4516C83.2992 95.4602 83.3668 94.5471 83.7724 93.725C83.7154 93.6216 83.6605 93.516 83.6076 93.408C82.1182 92.4634 81.0788 90.8358 81.1971 89.0309C81.2351 88.4328 81.383 87.8938 81.6112 87.4079C81.5921 87.3466 81.5731 87.283 81.5562 87.2217C80.3097 86.5877 79.2788 85.5459 78.9112 84.1553C78.5436 82.7559 78.9767 81.361 79.8428 80.2873C78.5752 79.3597 77.8126 78.0641 78.2752 76.1047C78.4633 75.3081 78.8414 74.583 79.3527 73.9722C79.3506 73.9534 79.3464 73.9344 79.3421 73.9151L79.2235 73.8231C77.6587 72.5878 76.7591 71.0135 77.7196 69.0773C78.1506 68.2068 78.7654 67.6 79.4879 67.2005L79.5238 67.0864C79.0062 65.9768 78.8309 64.7446 79.1879 63.4491C79.4795 62.382 80.1703 61.5321 81.0534 60.968C80.9943 60.4902 81.0027 59.981 81.0978 59.4292C81.2562 58.4973 81.7189 57.6836 82.395 57.1066C82.4203 56.9839 82.452 56.8636 82.4879 56.7429C82.7161 56.0055 83.1428 55.2045 83.6372 54.6104C84.045 54.1179 84.5013 53.9383 85.059 53.9193C85.0252 53.4651 85.0485 53.0041 85.1414 52.537C85.4266 51.0958 86.3436 49.7409 87.702 49.1259C88.2597 48.8743 88.8471 48.8006 89.4133 48.8617C89.895 47.8472 90.8351 47.1119 91.9907 46.9534C92.4407 46.89 92.859 46.894 93.2436 46.9513C93.4612 46.8496 93.6872 46.7589 93.9238 46.6763C94.0802 46.6214 94.2386 46.5706 94.3971 46.5201C94.9316 45.8565 95.6351 45.3258 96.4569 45.0068C97.4055 44.637 98.371 44.6748 99.2266 44.9855L99.4992 44.9284C99.9259 44.1887 100.606 43.6159 101.652 43.356C102.839 43.0622 104.058 43.4722 104.992 44.2185C104.996 44.2185 105.001 44.2185 105.007 44.2162C105.495 43.1235 106.329 42.3626 107.73 42.4155C108.603 42.4493 109.391 42.8828 109.999 43.4999C110.337 43.4574 110.675 43.4194 111.015 43.3816C111.375 42.9608 111.774 42.5679 112.215 42.2149C112.938 41.6356 113.878 41.6823 114.41 42.4979C114.527 42.6754 114.634 42.8551 114.742 43.0347L115.23 43.0009C115.805 42.2253 116.589 41.7011 117.662 41.6591C118.646 41.6187 119.348 42.1008 119.882 42.7748C120.317 42.7642 120.755 42.756 121.192 42.7494C121.701 42.1597 122.301 41.6398 122.986 41.2087C123.51 40.879 124.283 40.9912 124.708 41.4308C124.995 41.7296 125.262 42.0416 125.51 42.3645C126.15 41.6468 127.014 41.174 127.937 40.9933ZM96.8436 108.107C97.8302 107.545 99.1569 108.154 100.112 108.632C101.276 109.213 102.432 110.09 103.144 111.189C104.113 112.685 101.834 113.894 100.813 112.552C100.186 111.726 99.6851 110.893 98.9246 110.17C98.2295 109.507 97.2217 109.063 96.8224 108.188C96.8077 108.158 96.8119 108.124 96.8436 108.107ZM97.5372 71.7868L97.5557 71.734C97.8363 70.9662 96.6118 70.6352 96.3335 71.3967C95.9118 72.5509 96.398 73.8056 97.5375 74.304C97.8534 74.4422 98.2142 74.3943 98.4046 74.0766C98.5645 73.8092 98.4903 73.346 98.1772 73.2092C97.5361 72.9287 97.3213 72.4336 97.5372 71.7868ZM86.987 69.6398C87.5999 69.0987 86.7006 68.2045 86.0906 68.7432C85.5215 69.2458 85.0994 69.9285 85.209 70.7136C85.3208 71.5138 85.9239 72.0787 86.5841 72.478C87.2839 72.9013 87.9217 71.8053 87.2239 71.383L87.1455 71.335C86.8526 71.153 86.5097 70.9028 86.4601 70.5448C86.4075 70.1643 86.7293 69.8674 86.987 69.6398ZM90.4674 60.0927L90.5109 60.0607C91.1692 59.5907 90.5368 58.4904 89.8709 58.9657C89.2604 59.4017 88.7706 59.9682 88.7191 60.7493C88.669 61.5085 89.0552 62.1666 89.5601 62.7007C90.1219 63.2948 91.0173 62.397 90.4566 61.8042C89.9102 61.2264 89.8034 60.5959 90.4674 60.0927Z" fill="black"/>
<path fill-rule="evenodd" clip-rule="evenodd" d="M147.453 124.137C147.777 123.574 148.524 123.051 149.206 123.131C152.265 123.49 152.26 127.2 151.079 129.366C150.032 131.287 147.864 132.414 145.695 132.249C143.416 132.076 141.474 130.736 140.62 128.603C140.054 127.192 139.793 124.588 141.297 123.64C141.325 123.622 141.371 123.627 141.393 123.652C142.114 124.491 142.142 125.751 142.773 126.685C143.36 127.553 144.272 128.271 145.34 128.381C146.138 128.464 146.945 128.176 147.257 127.46C147.426 127.072 147.406 126.862 147.343 126.595L147.285 126.363C147.085 125.551 146.996 124.933 147.453 124.137ZM148.271 107.866C149.866 108.837 152.297 111.099 150.581 113.504C148.561 115.624 145.652 113.193 144.219 112.093C142.89 111.241 141.397 113.433 142.63 114.428C152.987 122.099 157.19 108.12 149.078 106.726C148.185 106.572 147.853 107.566 148.271 107.866ZM131.424 101.214C132.403 99.7445 134.638 99.9609 135.178 101.705C135.47 102.65 135.066 103.499 135.087 104.442C135.105 105.239 135.052 106.127 134.808 106.899C134.251 108.659 132.669 109.903 130.797 109.851C128.931 109.8 127.288 108.618 126.506 106.954C125.722 105.284 125.888 103.555 126.46 101.857C126.488 101.775 126.595 101.736 126.659 101.805C127.336 102.524 127.831 103.284 128.344 104.089L128.869 104.915C129.271 105.537 129.854 106.331 130.604 106.281L130.716 106.27C130.925 106.252 130.893 106.294 131.054 106.01C131.128 105.878 131.114 105.634 131.15 105.479L131.163 105.426L131.156 105.398C131.14 105.323 131.124 105.181 131.112 104.936L131.109 104.881C131.055 103.732 130.73 102.256 131.424 101.214ZM156.246 102.193C156.07 100.313 158.712 99.8955 159.59 101.286C160.048 102.012 160.182 102.923 160.283 103.786L160.33 104.196C160.434 105.082 160.476 106.005 160.091 106.832C159.485 108.134 158.167 108.823 156.746 108.714C155.388 108.609 154.15 107.822 153.497 106.627C152.915 105.561 152.336 103.478 153.043 102.366C153.086 102.299 153.171 102.29 153.23 102.342C153.898 102.935 154.007 104.017 154.404 104.79C154.814 105.587 155.435 106.364 156.377 106.485C157.277 106.601 157.622 106.109 157.392 105.25C157.095 104.141 156.358 103.386 156.246 102.193ZM132.138 90.0387L132.57 89.8732C134.05 89.3138 136.082 88.6673 137.285 89.8713C138.028 90.6138 138.169 91.7075 137.639 92.6136C136.997 93.7111 135.845 93.7382 134.733 93.8999C133.469 94.0838 132.182 94.4333 131.005 94.9317C129.678 95.4933 128.447 96.1932 127.241 96.975C126.094 97.7179 124.952 98.9321 123.58 99.161C123.524 99.1703 123.46 99.1462 123.446 99.0847C123.134 97.7427 124 96.4219 124.773 95.3749C125.708 94.1072 126.841 93.0667 128.107 92.1338C129.33 91.2333 130.726 90.5825 132.138 90.0387ZM159.025 94.8103L159.157 94.7872C160.055 94.6377 160.868 94.6722 161.544 95.3833C162.061 95.9259 162.26 96.629 162.014 97.3463C161.787 98.0081 161.279 98.6804 160.542 98.819C158.053 99.2874 155.297 99.21 152.796 98.8554C151.651 98.693 150.497 98.4944 149.382 98.1812L148.87 98.0325C147.939 97.7666 146.874 97.4888 146.198 96.8042C145.955 96.5582 146.095 96.2061 146.386 96.0922C147.565 95.6302 149.181 95.876 150.439 95.8398C151.902 95.798 153.367 95.6883 154.823 95.5372C156.245 95.3892 157.622 95.0678 159.025 94.8103Z" fill="black"/>
<path fill-rule="evenodd" clip-rule="evenodd" d="M129.449 129.599C131.159 125.59 134.893 122.644 139.191 121.566C142.347 120.778 145.66 120.803 148.877 121.116C150.563 121.279 152.371 121.412 153.96 122.039C155.317 122.574 156.422 123.585 157.254 124.772C158.243 126.179 158.916 127.789 159.389 129.439C159.456 129.674 159.519 129.91 159.578 130.148C159.372 131.393 158.936 132.453 157.783 133.236C156.658 134 155.316 134.313 153.978 134.424C153.847 134.361 153.72 134.296 153.603 134.23C151.518 133.035 150.051 130.213 147.419 130.595C145.07 130.936 143.524 133.893 142.127 135.626C137.644 136.149 133.164 134.801 129.516 132.236C129.33 131.359 129.32 130.473 129.449 129.599ZM162.625 126.558C162.266 125.551 161.814 124.576 161.279 123.657C159.509 120.619 156.791 118.198 153.565 116.814C145.934 113.546 136.06 115.85 129.897 121.211C127.792 123.044 125.663 125.737 125.019 128.634C124.827 128.672 124.645 128.772 124.496 128.913C120.043 126.108 115.458 123.41 111.87 119.523C109.264 116.698 107.452 113.355 106.342 109.682C106.251 109.38 105.764 109.424 105.779 109.759C105.783 109.837 105.787 109.915 105.791 109.993C105.745 109.849 105.526 109.923 105.509 110.063C104.912 114.525 104.165 119.256 104.853 123.742C105.264 126.418 106.479 128.377 108.104 130.493C109.845 132.761 111.815 134.87 113.83 136.893C115.109 138.177 116.444 139.658 118.01 140.6C119.831 141.694 121.896 142.525 123.839 143.369C125.816 144.231 127.823 145.026 129.867 145.716C133.954 147.1 138.178 148.056 142.476 148.475C145.917 148.809 149.85 149.173 153.148 147.878C155.675 146.886 157.715 145.092 159.334 142.934C161.095 140.583 162.488 137.905 163.258 135.082C164.058 132.149 162.793 127.03 162.625 126.558Z" fill="black"/>
</svg>
