<svg width="240" height="324" viewBox="0 0 240 324" fill="none" xmlns="http://www.w3.org/2000/svg">
<path fill-rule="evenodd" clip-rule="evenodd" d="M181.079 176.597C179.238 169.453 177.544 166.425 174.273 163.942C171.213 161.619 166.747 159.669 160.23 158.244C153.442 157.057 153.249 153.528 151.547 147.857C151.051 146.152 148.59 145.698 147.528 146.927C147.379 146.765 147.223 146.617 147.061 146.484C147.205 145.671 146.022 143.34 146.061 142.562C146.474 134.444 143.819 130.367 137.193 128.851C135.752 128.522 125.963 128.327 124.558 128.716C118.415 130.415 112.368 135.808 113.293 142.305C111.365 144.826 109.478 146.364 106.503 147.176C99.8828 148.017 93.2631 148.764 86.641 149.404C73.6784 151.438 61.5249 158.3 53.2183 168.309C52.4521 169.233 52.2308 170.487 52.907 171.472C52.3773 173.741 49.3956 179.246 51.7417 180.801C47.8837 190.03 39.0072 207.868 38.9905 212.964C38.9206 234.373 41.2327 262.24 62.3546 274.087C63.2003 274.919 63.3213 275.839 63.6874 277.076C64.6161 280.974 67.9885 283.759 71.6798 283.532C89.8637 283.936 107.476 281.717 125.66 281.61C133.679 281.562 143.323 282.76 150.29 283.557C157.256 284.355 164.288 283.649 170.973 281.61C171.537 282.497 172.677 283.015 173.833 282.76C180.763 281.382 186.368 277.111 191.249 272.442C192.74 269.728 198.566 261.995 196.25 259.303C198.349 250.428 198.24 240.892 194.51 232.441C195.039 230.892 194.075 229.189 194.51 227.589C194.825 226.432 195.631 225.953 196.037 224.806C196.608 223.193 195.987 221.029 195.344 219.383C195.081 218.563 195.829 217.68 196.037 216.842C197.024 212.894 194.765 213.242 193.136 210.602C193.161 210.594 193.584 208.709 193.582 208.719C193.831 207.373 193.207 205.65 192.662 204.527C192.294 203.768 191.505 203.293 190.721 203.38C191.51 200.699 192.509 198.469 193.582 195.887C195.481 191.336 197.884 186.977 200.61 182.857C201.726 181.17 200.227 179.216 198.42 179.101C192.573 178.729 186.789 177.887 181.079 176.597Z" fill="white"/>
<path fill-rule="evenodd" clip-rule="evenodd" d="M164.013 211.017C161.675 210.1 159.156 209.593 156.625 209.396C157.988 209.158 159.355 208.927 160.733 208.809C161.694 208.726 162.585 208.735 163.308 209.464C163.79 209.95 164.016 210.576 164.333 211.151C164.229 211.104 164.121 211.06 164.013 211.017ZM189.116 202.441C185.286 202.636 181.451 203.546 177.987 205.197C176.569 205.873 175.284 206.85 174.908 208.456C174.718 209.276 174.765 210.124 174.866 210.952C174.942 211.58 174.961 212.381 175.506 212.806C175.599 212.877 175.699 212.932 175.802 212.972C174.524 213.549 173.307 214.243 172.225 214.957C171.237 215.61 170.22 216.616 169.764 217.751C169.726 217.622 169.688 217.502 169.65 217.388C168.872 215.088 167.675 213.205 165.788 211.939C166.122 211.789 166.352 211.434 166.244 210.944C165.796 208.896 163.905 207.116 161.77 207.243C159.431 207.38 156.919 208.232 154.804 209.308C154.033 209.291 153.264 209.301 152.503 209.335C152.372 209.339 152.379 209.517 152.503 209.532C153.12 209.61 153.737 209.697 154.354 209.798C155.82 210.033 157.282 210.331 158.712 210.7C160.428 211.145 162.203 211.59 163.806 212.366C166.916 213.873 168.841 217.813 168.446 221.241C168.38 221.803 168.163 223.502 167.383 223.327C166.724 223.179 166.462 221.803 166.232 221.293C165.615 219.941 164.503 219.057 163.17 218.459C161.605 217.755 159.93 217.28 158.307 216.726C157.388 216.411 156.469 216.096 155.548 215.783C154.606 215.46 153.71 215.014 152.706 215.24C152.1 215.378 152.03 216.1 152.37 216.515C152.888 217.147 153.657 217.333 154.403 217.593C155.387 217.935 156.37 218.278 157.352 218.62C158.871 219.148 160.462 219.594 161.943 220.241L161.896 220.346C161.776 220.313 161.634 220.433 161.658 220.581C161.88 221.949 162.188 223.529 161.845 224.899C161.575 225.985 160.622 227.188 159.384 226.869C159.579 226.691 159.651 226.385 159.52 226.102C159.029 225.053 152.607 220.915 152.034 222.452C152.015 222.506 152.074 222.547 152.121 222.538C152.609 222.437 153.427 223.269 153.817 223.534C154.381 223.914 154.954 224.286 155.512 224.677C156.122 225.104 156.718 225.552 157.299 226.015C157.756 226.379 158.1 226.757 158.624 226.941C158.349 227.072 158.131 227.315 158.039 227.625C157.802 228.435 157.346 229.122 156.553 229.479C155.723 229.851 154.787 229.616 153.913 229.707C152.721 229.828 151.682 230.394 150.813 231.204C148.99 232.907 148.075 235.908 145.525 236.713C144.002 237.193 142.312 236.891 140.77 236.673C139.048 236.43 137.37 236.238 135.636 236.492C133.975 236.735 132.406 237.309 130.889 238.011C129.467 238.668 127.895 239.413 126.634 240.393C126.374 239.592 126.112 238.799 125.913 237.982C125.444 236.048 125.191 234.078 125.129 232.091C125.072 230.2 125.178 228.3 125.341 226.416C125.421 225.476 125.548 224.54 125.628 223.599C125.649 223.362 125.691 223.109 125.723 222.855C127.975 221.526 130.341 220.507 132.726 219.459C132.733 219.457 132.739 219.452 132.746 219.451C132.82 219.417 132.891 219.385 132.965 219.353C132.963 219.349 132.961 219.345 132.957 219.34C133.23 219.174 133.42 218.952 133.534 218.702C136.971 216.422 139.844 213.309 141.987 209.678C142.884 208.156 143.749 206.577 144.923 205.244C146.174 203.821 147.659 202.976 149.497 202.536C151.646 202.021 153.86 201.712 156.061 201.536C157.263 201.441 158.607 201.293 159.917 201.3C160.83 201.306 161.723 201.384 162.543 201.61C163.758 201.944 164.468 202.868 165.23 203.802C165.959 204.698 166.684 205.597 167.364 206.531C168.008 207.416 168.617 208.331 169.145 209.291C169.462 209.866 169.756 210.458 170.003 211.068C170.089 211.284 170.203 211.529 170.256 211.753C170.309 211.979 170.212 212.218 170.465 212.218C169.42 212.233 169.43 213.905 170.47 213.843C174.539 213.607 168.71 205.66 167.858 204.552C166.652 202.984 165.408 200.938 163.477 200.209C163.449 200.198 163.42 200.188 163.392 200.179C163.954 199.647 164.398 199.009 164.822 198.36C165.26 197.692 165.781 196.927 165.925 196.134C166.016 195.629 165.389 195.342 165.091 195.783C164.658 196.428 164.449 197.244 164.125 197.952C163.796 198.67 163.394 199.349 163.077 200.074C162.315 199.839 161.491 199.732 160.652 199.696C161.71 198.263 163.519 195.498 163.737 195.143C164.738 193.499 165.691 191.804 166.601 190.106C167.586 188.268 168.429 186.353 169.371 184.493C169.906 183.439 170.444 182.375 171.038 181.352C171.243 181.002 171.463 180.651 171.712 180.332C171.76 180.268 171.822 180.216 171.879 180.156C171.944 180.12 172.012 180.08 172.05 180.059C172.392 179.863 172.513 179.406 172.753 179.116C173.138 178.649 173.59 178.594 174.169 178.588C175.403 178.575 176.641 178.624 177.872 178.658C179.683 178.708 181.491 178.78 183.3 178.875C183.847 178.905 184.392 178.935 184.939 178.968C187.57 179.125 190.198 179.33 192.82 179.581C195.139 179.803 197.459 180.165 199.781 180.338C196.637 187.809 193.151 195.145 189.205 202.226C189.165 202.297 189.135 202.369 189.116 202.441ZM171.674 221.688C171.167 221.921 170.675 222.21 170.216 222.54C170.292 222.027 170.311 221.486 170.29 220.942C170.668 221.348 171.152 221.581 171.674 221.688ZM193.319 208.836C193.283 208.84 193.249 208.859 193.232 208.895C192.53 210.343 192.824 211.96 193.969 213.095C194.569 213.687 195.877 214.355 195.835 215.327C195.799 216.113 194.943 216.772 194.578 217.421C194.238 218.026 194.111 218.689 194.383 219.345C194.732 220.184 195.706 220.518 196.04 221.342C196.462 222.388 195.776 223.65 195.294 224.561C194.846 225.404 194.267 226.247 193.883 227.139C191.307 228.473 189.002 230.519 187.021 232.596C184.851 234.868 182.99 237.542 179.544 237.474C179.2 237.468 178.938 237.65 178.781 237.901C177.822 237.946 176.861 237.965 175.902 237.969C174.216 237.977 172.53 237.96 170.846 237.907C170.728 237.5 170.814 236.946 170.808 236.601C170.787 235.492 170.776 234.384 170.73 233.275C170.717 232.966 170.704 232.655 170.692 232.347C171.298 233.444 172.481 233.943 173.829 233.866C175.997 233.74 178.177 233.385 180.323 233.065C181.454 232.898 182.582 232.708 183.708 232.505C184.633 232.341 185.939 232.383 186.585 231.641C186.738 231.468 186.746 231.151 186.507 231.034C185.867 230.719 185.464 230.895 184.76 231.03C183.902 231.197 183.042 231.356 182.18 231.504C180.526 231.791 178.868 232.057 177.205 232.292C176.259 232.425 175.31 232.556 174.361 232.66C173.533 232.748 172.6 232.869 171.932 232.246C170.586 230.986 171.34 228.874 172.192 227.602C172.209 227.577 172.209 227.553 172.202 227.532C173.005 227.344 173.806 227.124 174.604 226.97C176.14 226.674 177.687 226.425 179.235 226.203C182.417 225.749 185.62 225.448 188.818 225.146C189.611 225.07 189.619 223.823 188.818 223.897C184.223 224.318 179.605 224.717 175.071 225.603C173.935 225.822 172.806 226.072 171.685 226.353C171.154 226.484 170.586 226.689 170.03 226.696C169.997 226.696 169.963 226.696 169.929 226.693C168.841 226.66 168.683 225.728 169.28 224.952C169.354 224.857 169.43 224.761 169.509 224.671C170.565 223.411 171.881 222.57 173.237 221.699C174.757 221.492 176.271 221.031 177.759 220.693C181.43 219.856 185.102 219.019 188.776 218.184C189.496 218.019 189.19 216.912 188.47 217.075C185.681 217.707 182.892 218.339 180.104 218.97L176.022 219.896C175.207 220.08 174.188 220.45 173.229 220.583C172.756 220.649 172.297 220.657 171.883 220.56C170.546 220.243 170.478 218.571 171.055 217.578C171.702 216.462 172.923 215.764 174.007 215.132C175.885 214.035 177.883 213.247 179.835 212.338C180.182 212.262 180.528 212.186 180.875 212.11C182.89 211.666 185.193 211.449 187.09 210.635C187.659 210.394 187.348 209.498 186.786 209.51C185.314 209.542 183.773 210.066 182.335 210.377C180.778 210.715 179.219 211.051 177.661 211.387C177.505 211.421 176.58 211.717 176.44 211.651C176.352 211.609 176.32 211.301 176.29 211.098C176.195 210.43 176.126 209.728 176.229 209.058C176.457 207.555 177.71 206.85 178.978 206.273C181.8 204.99 184.895 204.187 187.976 203.865C188.685 203.791 189.395 203.745 190.109 203.722C190.948 203.696 191.639 203.548 192.064 204.375C192.731 205.677 193.099 207.351 193.319 208.836ZM189.398 256.04C188.783 253.912 188.951 251.64 188.529 249.47C188.312 248.35 188.015 247.239 187.691 246.146C187.43 245.263 186.993 244.324 186.944 243.403C186.941 243.341 187.013 243.306 187.063 243.334C187.931 243.831 188.597 244.906 189.092 245.749C189.684 246.758 190.137 247.815 190.502 248.926C191.229 251.14 191.826 253.81 190.888 256.04C190.609 256.704 189.629 256.837 189.398 256.04ZM170.392 227.856C170.912 227.805 171.431 227.706 171.951 227.589C171.37 228.156 170.833 228.838 170.535 229.595C170.489 229.014 170.43 228.435 170.352 227.858C170.364 227.858 170.379 227.858 170.392 227.856ZM165.397 272.149C164.481 271.509 163.813 270.614 163.035 269.825C162.271 269.049 163.466 267.853 164.231 268.63C164.894 269.303 165.469 270.144 166.25 270.689C166.625 270.95 166.799 271.424 166.553 271.845C166.336 272.217 165.772 272.41 165.397 272.149ZM160.286 247.559C161.959 246.835 163.604 246.047 165.355 245.526C166.402 245.214 166.845 246.846 165.805 247.156C164.192 247.636 162.68 248.352 161.139 249.018C160.15 249.446 159.29 247.989 160.286 247.559ZM142.617 247.052C142.208 246.042 143.844 245.607 144.247 246.603C144.711 247.749 145.243 248.865 145.707 250.011C146.116 251.021 144.481 251.457 144.078 250.461C143.614 249.315 143.081 248.198 142.617 247.052ZM125.178 267.219C124.906 267.583 124.452 267.78 124.022 267.523C123.663 267.307 123.443 266.734 123.719 266.366C124.525 265.292 125.341 264.231 126.285 263.273C127.05 262.497 128.245 263.693 127.48 264.469C126.637 265.324 125.898 266.26 125.178 267.219ZM122.685 154.064C123.461 154.594 124.14 155.238 124.803 155.901C125.574 156.671 124.378 157.866 123.608 157.096C123.049 156.538 122.486 155.971 121.832 155.524C121.454 155.266 121.284 154.785 121.529 154.367C121.748 153.993 122.308 153.807 122.685 154.064ZM148.056 181.273C147.618 182.151 147.223 183.012 147.198 184.011C147.171 185.099 145.481 185.099 145.508 184.011C145.54 182.704 146.022 181.571 146.597 180.419C147.083 179.444 148.54 180.302 148.056 181.273ZM157.365 159.42C158.274 158.815 159.119 160.28 158.218 160.88C157.488 161.367 156.758 161.854 156.028 162.341C155.12 162.947 154.274 161.482 155.175 160.881C155.905 160.394 156.635 159.907 157.365 159.42ZM116.989 197.627C116.834 198.701 115.205 198.242 115.359 197.178C115.597 195.533 115.887 193.91 116.333 192.308C116.625 191.259 118.254 191.708 117.962 192.757C117.516 194.359 117.226 195.982 116.989 197.627ZM111.063 216.995C109.975 216.972 109.975 215.281 111.063 215.304C112.048 215.325 113.015 215.584 113.965 215.821C115.021 216.085 114.571 217.716 113.516 217.452C112.713 217.251 111.895 217.013 111.063 216.995ZM108.876 256.01C108.502 256.192 108.118 256.356 107.741 256.529C106.984 256.875 106.228 257.221 105.472 257.569C103.897 258.292 102.323 259.017 100.751 259.746C97.6029 261.203 94.4307 262.61 91.2752 264.051C88.0574 265.522 84.848 267.012 81.6427 268.51C80.1326 269.215 78.611 269.894 77.0924 270.581C75.794 271.169 74.189 272.195 72.7635 272.292C72.6902 272.297 72.6657 272.204 72.7076 272.156C73.2461 271.544 74.1051 271.187 74.8128 270.789C75.5358 270.382 76.2723 269.999 77.0054 269.611C78.5337 268.801 80.0639 267.997 81.607 267.216C84.6936 265.653 87.7861 264.102 90.8793 262.553C94.034 260.972 97.1846 259.381 100.367 257.857C101.865 257.14 103.365 256.424 104.866 255.711C105.679 255.325 106.492 254.939 107.305 254.554C107.657 254.387 108.004 254.208 108.364 254.059C108.841 253.862 109.204 253.902 109.696 253.78C110.499 253.582 110.846 254.603 110.23 255.048C109.722 255.414 109.455 255.727 108.876 256.01ZM97.5922 273.348C97.4187 272.926 97.7819 272.413 98.1824 272.307C98.6622 272.181 99.0469 272.473 99.2221 272.898C99.6854 274.026 100.345 275.06 101.195 275.934C101.954 276.715 100.76 277.911 99.9998 277.129C98.9352 276.034 98.1704 274.754 97.5922 273.348ZM89.2913 246.208C88.5208 245.437 89.7162 244.242 90.4864 245.012L92.6768 247.203C93.4473 247.974 92.2518 249.17 91.4817 248.399L89.2913 246.208ZM66.8187 242.635C65.2439 243.097 63.4072 243.522 62.3335 244.866C62.2811 244.932 62.193 244.848 62.2245 244.782C63.599 241.931 67.5408 240.932 70.27 239.933C72.2003 239.226 74.181 238.641 76.1783 238.117C75.9786 235.838 76.5292 233.395 76.7206 231.127C76.9249 228.705 77.0912 226.277 77.1765 223.848C77.2638 221.37 77.2849 218.875 77.2034 216.396C77.1222 213.926 76.8017 211.487 76.6615 209.026C76.6479 208.788 76.9792 208.776 77.0506 208.973C77.88 211.257 78.2343 213.787 78.5043 216.196C78.7824 218.677 78.8747 221.15 78.8392 223.646C78.8024 226.212 78.6533 228.771 78.4486 231.329C78.3516 232.541 78.239 233.752 78.1327 234.963C78.0516 235.888 78.014 236.805 77.8255 237.7C79.0302 237.404 80.2376 237.124 81.4412 236.852C85.2791 235.986 89.133 235.182 92.9548 234.245C94.8309 233.785 96.6801 233.235 98.5477 232.746C100.306 232.285 102.163 231.727 103.968 231.521C104.612 231.448 104.694 232.329 104.268 232.629C102.8 233.659 100.851 234.377 99.1564 234.954C97.4553 235.533 95.6869 235.95 93.9434 236.378C90.3072 237.273 86.6367 238.005 82.9716 238.766C79.3116 239.528 75.6446 240.283 72.0258 241.222C70.2831 241.674 68.5462 242.128 66.8187 242.635ZM58.1892 197.402C57.2482 197.954 56.3987 196.492 57.3363 195.942C58.5631 195.221 59.8707 194.68 61.1888 194.152C62.2003 193.747 62.6355 195.383 61.6381 195.783C60.4535 196.257 59.2916 196.754 58.1892 197.402ZM54.7816 260.218C53.8381 260.765 52.988 259.304 53.9288 258.758C55.25 257.992 56.697 257.481 58.0662 256.81C59.0404 256.333 59.896 257.792 58.9191 258.27C57.5501 258.941 56.1029 259.452 54.7816 260.218ZM53.2492 224.56C54.1614 225.427 55.379 225.836 56.527 226.291C57.528 226.688 57.089 228.322 56.0776 227.921C54.6474 227.354 53.1905 226.836 52.054 225.756C51.2635 225.005 52.4607 223.811 53.2492 224.56ZM63.3417 176.135C64.3446 176.528 63.9053 178.163 62.8923 177.765C61.7688 177.325 60.6085 176.989 59.485 176.548C58.4823 176.155 58.9213 174.52 59.9344 174.918C61.0579 175.358 62.2182 175.694 63.3417 176.135ZM81.1457 156.9C82.2114 156.721 82.6652 158.35 81.5951 158.531C80.2675 158.755 78.9602 159.017 77.701 159.505C76.6842 159.898 76.2479 158.263 77.2516 157.874C78.511 157.387 79.8183 157.125 81.1457 156.9ZM87.0285 203.732C86.0514 203.251 86.9088 201.794 87.8814 202.272C88.9065 202.776 89.9685 203.166 91.087 203.404C92.152 203.631 91.6984 205.261 90.6376 205.035C89.3789 204.766 88.1812 204.299 87.0285 203.732ZM92.5849 177.352C93.637 177.064 94.0819 178.695 93.0342 178.983C91.1909 179.488 89.2931 179.751 87.4363 180.2C86.378 180.456 85.9304 178.826 86.9869 178.57C88.8437 178.12 90.7418 177.858 92.5849 177.352ZM116.155 169.074C117.225 169.272 116.769 170.901 115.706 170.705C114.574 170.495 113.427 170.492 112.28 170.491C111.19 170.491 111.192 168.8 112.28 168.8C113.583 168.801 114.87 168.836 116.155 169.074ZM193.027 177.907C190.266 177.643 187.5 177.432 184.73 177.273C184.601 177.267 184.475 177.259 184.346 177.252C184.331 177.223 184.312 177.195 184.293 177.165C183.389 175.838 182.723 174.511 182.147 173.01C181.595 171.582 181.061 170.109 180.211 168.819C179.243 167.351 177.935 166.201 176.502 165.205C175.632 165.79 174.826 166.475 174.087 167.2C173.311 167.964 172.115 166.769 172.892 166.005C173.548 165.36 174.248 164.764 174.988 164.226C174.134 163.706 173.262 163.218 172.411 162.732C169.223 160.913 165.959 159.23 162.628 157.692C161.079 156.975 159.511 156.339 157.933 155.694C157.084 155.348 156.245 154.902 155.396 154.5C155.457 153.9 155.278 153.228 154.817 152.833C154.477 152.543 154.213 152.435 153.807 152.231C153.716 152.199 153.661 152.18 153.636 152.169C153.655 152.173 153.71 152.19 153.801 152.22C154.016 152.319 154.033 152.29 153.851 152.133C153.841 151.791 153.167 151.068 153.013 150.715C152.476 149.504 152.309 148.223 151.517 147.12C150.425 145.6 148.591 145.026 146.882 145.541C146.704 143.713 146.658 141.805 145.969 140.173C145.95 140.129 145.889 140.109 145.861 140.158C145.143 141.382 145.082 142.745 145.027 144.157C144.974 145.482 145.025 146.837 145.198 148.153C145.088 148.238 144.976 148.318 144.86 148.396C144.315 148.756 143.728 149.033 143.111 149.238C141.936 149.626 140.704 149.796 139.473 149.855C136.293 150.007 133.016 149.686 129.89 149.14C126.727 148.589 121.878 147.76 119.064 146.177C117.207 145.133 115.494 143.859 113.757 142.624C114.387 140.595 114.547 138.414 113.913 136.7C113.837 136.495 113.516 136.457 113.455 136.7C113.058 138.336 112.942 139.98 112.413 141.597C112.405 141.621 112.397 141.646 112.388 141.669C112.223 141.557 112.059 141.447 111.894 141.337C111.513 141.086 110.996 141.274 110.768 141.633C107.119 147.384 101.341 147.714 95.2733 148.741C88.633 149.865 81.9592 151.078 75.5747 153.279C69.4691 155.384 63.6339 158.448 59.0114 163.026C57.9649 164.063 56.9864 165.167 56.0627 166.32C56.9564 166.433 57.8426 166.608 58.7175 166.883C59.7533 167.209 59.3082 168.84 58.2681 168.513C57.1438 168.16 56.0069 167.985 54.8585 167.898C51.7176 172.197 49.2685 177.071 47.1508 181.868C43.0888 191.066 40.4447 200.862 39.228 210.835C39.8961 210.434 40.5761 210.053 41.2731 209.698C42.2416 209.205 43.0957 210.664 42.1262 211.158C41.0496 211.706 40.0038 212.31 38.9906 212.964C38.548 217.33 38.3764 221.723 38.4804 226.11C38.7276 236.568 40.1388 247.332 43.3311 257.309C44.8966 262.206 46.9712 267.063 50.0621 271.202C51.4607 273.076 53.0494 274.767 54.9212 276.177C55.8276 276.861 56.7867 277.472 57.7987 277.988C59.1022 278.656 60.8008 278.876 61.9247 279.82C62.2945 280.131 62.5797 280.541 62.7952 281.004C62.6705 281.883 62.6557 282.764 62.8966 283.644C62.9726 283.919 63.1797 284.142 63.4353 284.25C63.4395 284.326 63.4395 284.4 63.4395 284.472C63.4395 284.506 63.4902 284.514 63.4966 284.481C63.5071 284.415 63.5177 284.35 63.5283 284.282C63.6107 284.309 63.6973 284.322 63.786 284.322C66.9952 284.334 70.2083 284.256 73.4217 284.147C73.1733 283.386 72.9041 282.631 72.6457 281.869C72.2948 280.835 73.9277 280.395 74.2754 281.42C74.5778 282.31 74.8938 283.192 75.175 284.086C78.618 283.958 82.06 283.804 85.4959 283.69C92.8036 283.447 100.109 283.367 107.419 283.213C118.771 282.972 130.205 282.479 141.574 282.961C141.967 282.126 142.407 281.311 142.824 280.487C143.317 279.516 144.774 280.372 144.284 281.341C143.994 281.913 143.693 282.478 143.408 283.049C145.711 283.169 148.011 283.327 150.306 283.542C154.223 283.91 158.102 284.563 162.015 284.969C165.993 285.383 169.885 285.309 173.831 284.652C174.541 284.534 174.959 284.104 175.132 283.572C175.139 283.57 175.143 283.566 175.147 283.559C175.35 283.322 175.54 283.126 175.736 282.955C175.971 282.803 176.225 282.674 176.523 282.559C177.078 282.348 177.657 282.219 178.244 282.133C178.891 282.036 179.546 282.027 180.192 281.947C180.737 281.877 181.27 281.773 181.802 281.647C182.759 281.418 183.668 281.12 184.572 280.725C185.36 280.381 186.072 279.886 186.744 279.347C188.134 278.33 189.338 277.033 190.39 275.684C191.003 274.896 191.58 274.078 192.104 273.226C193.016 271.751 193.794 270.219 194.58 268.674C194.865 268.216 195.125 267.747 195.363 267.268C193.827 266.816 192.276 266.447 190.648 266.421C189.56 266.403 189.56 264.712 190.648 264.73C192.516 264.76 194.282 265.196 196.037 265.716C196.123 265.489 196.205 265.26 196.28 265.028C196.49 264.544 196.663 264.047 196.806 263.544C196.891 263.316 196.975 263.088 197.06 262.86C197.25 262.069 197.44 261.276 197.632 260.484C198.015 259.216 198.317 257.929 198.539 256.625C198.725 255.767 198.868 254.902 198.966 254.027C199.261 251.907 199.502 249.792 199.519 247.649C199.494 246.328 199.409 245.009 199.266 243.696C199.204 242.804 199.101 241.917 198.961 241.035C198.78 239.725 198.6 238.428 198.298 237.134C198.072 236.259 197.846 235.384 197.62 234.509C197.056 232.685 196.39 230.897 195.623 229.149C195.581 229.039 195.367 228.798 195.239 228.796C195.142 228.794 195.006 228.883 195.051 229.001C195.055 229.012 195.059 229.024 195.063 229.035C195.019 228.936 194.977 228.834 194.932 228.735C194.894 228.642 194.747 228.456 194.632 228.458C194.626 228.458 194.62 228.458 194.611 228.46C194.641 228.439 194.668 228.412 194.696 228.38C195.454 227.482 195.947 226.3 196.49 225.26C196.94 224.402 197.364 223.498 197.487 222.528C197.594 221.676 197.449 220.837 196.914 220.148C196.306 219.364 195.161 218.996 195.797 217.863C196.519 216.574 197.582 215.456 196.523 213.991C195.985 213.245 195.131 212.835 194.497 212.186C193.768 211.436 193.422 210.432 193.441 209.407C193.485 209.432 193.544 209.42 193.566 209.356C194.178 207.505 193.735 205.472 193.107 203.669C192.765 202.69 192.04 202.422 191.197 202.373C194.848 195.24 198.264 187.993 201.309 180.579C201.41 180.336 201.509 180.093 201.608 179.85C201.756 179.486 201.444 179.002 201.082 178.922C198.45 178.345 195.708 178.161 193.027 177.907Z" fill="black"/>
<path fill-rule="evenodd" clip-rule="evenodd" d="M163.535 85.4321C161.623 77.3683 157.442 69.8641 150.75 63.7993C130.61 43.8804 93.625 54.692 93.7925 84.7084C93.0702 88.2143 92.7769 91.8191 93.0161 95.3945C93.115 96.92 93.775 99.049 92.8883 100.422C90.8882 102.99 89.7258 104.884 90.4065 108.3C90.9752 111.284 93.0047 113.397 95.7435 114.521C97.3862 114.992 98.9447 116.019 99.5531 117.585C103.209 124.281 105.918 129.851 111.682 134.415C113.169 135.59 128.424 142.637 133.45 142.637C148.165 142.637 166.712 137.304 167.02 120.861C167.073 117.25 166.439 113.596 166.042 110.013C165.074 101.836 165.416 93.3636 163.535 85.4321Z" fill="white"/>
<path fill-rule="evenodd" clip-rule="evenodd" d="M163.204 81.3988C163.208 81.299 163.351 81.2766 163.379 81.3751C163.926 83.3163 164.236 85.2939 164.664 87.2654C165.076 89.1644 165.465 91.0689 165.788 92.9846C166.399 96.6 166.914 100.225 167.392 103.859L167.511 104.768C168.343 111.163 169.717 117.825 168.516 124.257C167.491 129.746 164.053 134.169 159.623 137.412C155.428 140.483 150.342 142.454 145.293 143.574C139.873 144.777 133.449 145.136 129.039 141.16C127.273 139.568 129.68 136.409 131.595 137.846C136.092 141.218 141.813 140.224 146.887 138.882L147.041 138.841C151.495 137.654 155.978 135.856 159.514 132.821C163.423 129.466 165.356 124.809 165.579 119.702C165.704 116.833 165.437 113.967 165.148 111.115L165.116 110.798C164.785 107.536 164.438 104.275 164.117 101.012C163.825 98.0364 163.573 95.0434 163.439 92.0544L163.377 90.5469C163.248 87.5075 163.073 84.4236 163.204 81.3988ZM110.462 56.1441C117.78 52.3328 126.19 50.9687 134.334 52.2478C142.164 53.4775 149.349 57.5189 154.719 63.3139C157.341 66.1433 159.669 69.416 161.156 72.9914C161.895 74.7676 162.473 76.6205 162.781 78.5235C162.94 79.5019 163.096 80.5155 163.125 81.5074C163.153 82.4257 162.883 83.2869 162.915 84.2205C162.92 84.3665 162.696 84.3946 162.662 84.2547C162.408 83.2138 161.795 82.4267 161.41 81.438C161.123 80.6998 160.797 79.9791 160.465 79.2605L160.18 78.6448C159.352 76.8553 158.363 75.1394 157.384 73.4296C155.413 69.9858 152.884 66.8561 149.923 64.2153C144.724 59.5787 138.054 56.5858 131.093 56.0468C123.867 55.4872 116.538 57.2101 110.368 61.0267C104.197 64.843 99.5317 70.7756 97.1093 77.6063C95.8871 81.0532 95.2121 84.6446 95.0551 88.2964C94.9757 90.1448 95.0499 92.0087 95.1794 93.8536L95.2437 94.7334C95.3191 95.7884 95.3707 96.8394 95.2132 97.8688C96.3261 97.5216 97.4927 97.3777 98.6636 97.5495C100.403 97.8048 101.443 98.5183 102.223 100.073C102.264 100.155 102.182 100.236 102.101 100.195C101.09 99.6902 99.4527 99.9561 98.3811 100.221C97.266 100.497 96.2617 100.976 95.3141 101.624C93.5613 102.822 92.1872 104.679 91.85 106.809C91.524 108.867 92.3684 110.95 93.7869 112.425C94.517 113.185 95.3898 113.841 96.3669 114.25C97.5527 114.747 98.7265 114.732 99.7757 115.552C100.424 116.059 100.268 116.927 99.8277 117.49C102.041 119.918 104.004 122.574 106.217 125.011C107.243 126.141 108.261 127.272 109.244 128.439L109.611 128.878C110.592 130.063 112.154 131.315 112.603 132.805C112.882 133.732 111.889 134.945 110.886 134.522C109.347 133.874 108.248 132.188 107.208 130.894L107.14 130.81C106.05 129.47 105.082 128.054 104.196 126.571L103.905 126.083C102.305 123.39 100.718 120.597 99.6971 117.638C99.6297 117.707 99.5583 117.77 99.4831 117.824C98.0127 118.87 95.8751 118.066 94.4065 117.386C93.0202 116.745 91.7492 115.781 90.7586 114.618C88.6041 112.09 87.6109 108.816 88.3305 105.535C88.94 102.755 90.8657 100.051 93.3903 98.6455C92.225 97.3035 91.7425 95.4943 91.4213 93.7255C91.0115 91.4677 90.9297 89.1538 91.041 86.8642C91.2631 82.3039 92.4363 77.8087 94.2498 73.6329C97.4944 66.161 103.231 59.911 110.462 56.1441ZM95.0607 106.004C96.5966 105.716 98.028 105.646 99.5094 106.297C101.116 107.002 102.247 108.167 103.298 109.532C104.495 111.085 101.429 112.781 100.656 110.72L100.633 110.656C100.426 110.046 100.056 109.456 99.5859 108.913C99.445 109.129 99.2565 109.319 99.0351 109.428C98.767 109.56 98.3576 109.469 98.2931 109.126C98.2217 108.746 98.3007 108.285 98.52 107.963L98.55 107.919C97.4844 107.061 96.2026 106.435 95.0607 106.233C94.9466 106.213 94.9479 106.025 95.0607 106.004Z" fill="black"/>
<path fill-rule="evenodd" clip-rule="evenodd" d="M132.112 117.319C132.156 117.278 132.226 117.263 132.28 117.297C133.194 117.875 133.302 119.82 133.312 120.943C133.691 121.041 134.064 121.153 134.417 121.232C135.167 121.398 135.922 121.542 136.674 121.695L137.239 121.812C139.124 122.209 141.045 122.503 142.967 122.651C144.832 122.793 146.751 122.846 148.611 122.605C149.41 122.502 150.204 122.33 150.975 122.099C151.888 121.827 152.614 121.376 153.463 120.981C155.587 119.991 157.367 122.891 155.323 124.164C153.568 125.256 151.174 125.65 149.148 125.819C147.078 125.992 145.015 125.802 142.97 125.474C140.759 125.12 138.593 124.576 136.495 123.787C135.609 123.453 134.75 123.049 133.913 122.606L133.685 122.485C133.545 122.41 133.4 122.334 133.254 122.257C133.097 123.658 132.645 125.011 132.098 126.311L132.085 126.288C131.786 127.314 130.706 127.949 129.632 127.496C128.371 126.964 128.275 125.569 129.009 124.578L129.044 124.532C129.907 123.422 130.447 122.044 130.917 120.731C131.158 120.058 131.381 119.369 131.575 118.68C131.715 118.182 131.72 117.681 132.112 117.319ZM164.612 106.165C163.864 108.425 162.234 110.166 159.963 110.931C157.712 111.689 155.208 111.413 152.908 111.003C152.404 110.913 151.894 110.814 151.385 110.699C151.802 110.957 152.17 111.32 152.522 111.705C153.043 112.273 153.515 112.872 153.659 113.583C153.801 114.289 153.577 114.826 153.168 115.231C152.54 115.854 151.526 116.19 150.667 116.376C148.744 116.791 146.818 116.727 144.905 116.301C144.416 116.192 144.085 115.93 143.899 115.588C143.673 115.173 143.654 114.656 143.784 114.186C143.914 113.716 144.194 113.283 144.6 113.043C144.934 112.845 145.353 112.791 145.827 112.949C146.78 113.266 147.726 113.476 148.733 113.501C149.159 113.511 149.587 113.498 150.013 113.459C150.253 113.437 150.493 113.406 150.732 113.368C150.591 113.181 150.455 112.99 150.321 112.797C150.164 112.57 150.01 112.339 149.864 112.104C149.44 111.425 149.087 110.727 148.777 109.99C148.677 109.754 148.585 109.517 148.497 109.28C148.484 109.245 148.471 109.211 148.458 109.177C148.431 109.154 148.404 109.131 148.377 109.107C147.77 108.582 147.262 107.936 146.902 107.135C145.928 104.965 146.087 102.272 146.678 100.019C147.151 98.2131 148.197 96.5428 149.578 95.4081C149.819 95.0112 149.978 94.7704 150.173 94.5676C150.967 93.7415 152.075 93.1843 153.155 92.8454C155.57 92.0881 158.199 92.6314 160.245 94.0733C162.134 95.4046 163.614 97.4012 164.413 99.6219C165.17 101.725 165.318 104.032 164.612 106.165ZM131.73 92.4301C134.601 92.4056 137.522 93.2536 139.852 94.9505C142.081 96.5743 143.83 98.9716 143.828 101.827C143.826 104.608 142.34 107.341 140.693 109.494C138.843 111.91 136.426 113.075 133.388 113.102C131.808 113.116 130.217 112.976 128.649 112.784L127.807 112.678C126.648 112.529 125.478 112.352 124.38 111.953C119.152 110.057 118.99 103.211 120.926 98.8357C122.421 95.4575 126.205 92.163 129.977 92.5584C130.546 92.4788 131.13 92.4354 131.73 92.4301ZM136.579 95.6492C132.984 94.0349 128.615 94.5183 125.128 96.241C123.747 97.7488 122.737 99.649 122.328 101.394C121.892 103.256 121.956 105.262 122.612 107.067C123.413 109.27 125.385 109.816 127.512 110.154L128.338 110.284L128.685 110.336C130.775 110.648 133.061 110.891 135.07 110.501C137.309 110.065 138.73 108.256 139.85 106.401L139.902 106.314C141.064 104.37 142.037 102.006 141.062 99.7786C140.233 97.8855 138.423 96.4773 136.579 95.6492ZM157.799 96.2117C156.565 95.5278 155.158 95.4035 153.826 95.8613C153.252 96.0582 152.757 96.3774 152.277 96.7352L152.085 96.8802C151.495 97.3337 150.943 97.5634 150.5 98.1759L150.443 98.258C150.219 98.5919 149.828 98.7255 149.472 98.6811C149.057 99.826 148.886 101.064 148.882 102.283L148.883 102.444L148.885 102.609C148.911 104.05 149.163 105.812 150.296 106.778C151.329 107.659 152.894 107.87 154.291 107.993L155.368 108.082L155.654 108.104C157.127 108.206 158.741 108.171 159.975 107.299C161.05 106.54 161.557 105.251 161.688 103.978C161.999 100.97 160.478 97.6964 157.799 96.2117ZM130.942 96.4895C132.922 95.4784 135.3 95.7319 136.978 96.9991C136.829 97.0283 136.682 97.0655 136.536 97.1388C136.155 97.3297 135.919 97.7118 135.829 98.1184C135.728 98.5781 135.966 99.0133 136.419 99.1583C136.814 99.2842 137.282 99.3419 137.649 99.102C137.841 98.9765 137.975 98.811 138.063 98.6026L138.075 98.572L138.091 98.5495L138.097 98.539C138.098 98.535 138.091 98.5426 138.08 98.5597C138.091 98.5337 138.102 98.5077 138.112 98.4813C138.127 98.4498 138.142 98.4181 138.154 98.3854C138.176 98.367 138.195 98.3465 138.215 98.326C138.519 98.795 138.759 99.3246 138.91 99.9138C139.885 103.696 135.888 107.621 132.317 108.014C130.967 108.162 129.737 107.841 128.715 107.207C128.725 107.194 128.735 107.183 128.744 107.17C129.154 107.244 129.644 107.06 129.793 106.602C130.173 105.435 129.783 104.069 128.511 103.687C127.693 103.442 126.855 103.713 126.27 104.273C125.828 103.19 125.669 101.97 125.879 100.749C126.174 99.0255 127.213 97.4727 128.83 96.7558C129.618 96.4065 130.296 96.3331 130.942 96.4895ZM151.792 98.823L151.853 98.728C152.464 97.7862 153.634 96.6309 154.846 96.9486C155.016 96.9931 155.183 97.065 155.333 97.1582C155.999 97.0678 156.696 97.2191 157.269 97.5714L157.253 97.6109C157.251 97.6175 157.249 97.6242 157.247 97.6312C157.195 97.8603 157.225 98.0721 157.332 98.2826C157.448 98.5106 157.614 98.7269 157.838 98.8577C157.991 98.9473 158.172 98.9944 158.349 98.9908C158.608 98.9862 158.837 98.8718 159.025 98.6973C159.127 98.6026 159.198 98.4637 159.237 98.3208C159.33 98.4096 159.419 98.5085 159.505 98.6208C160.91 100.469 160.716 103.44 159.068 105.087C159.001 105.154 158.93 105.214 158.86 105.275C158.191 106.197 157.159 106.822 155.92 106.949C154.773 107.066 153.626 106.727 152.746 106.031C152.817 105.993 152.883 105.944 152.94 105.88C153.09 105.71 153.214 105.542 153.305 105.334C153.328 105.282 153.35 105.229 153.371 105.176L153.402 105.096C153.407 105.081 153.454 104.946 153.441 104.97L153.439 104.975L153.455 104.936C153.613 104.543 153.549 104.094 153.175 103.847L153.134 103.821C153.012 103.75 152.861 103.717 152.708 103.716C152.326 103.249 151.758 103.142 151.225 103.278L151.206 103.127C151.204 103.102 151.201 103.077 151.199 103.052C150.786 101.682 150.985 100.125 151.792 98.823ZM133.455 85.0324L133.592 85.0111C134.629 84.8611 135.334 85.0338 136.009 85.9203C136.33 86.3428 136.231 86.9808 136.009 87.4126C135.291 88.8078 133.316 88.5193 131.986 88.7963C130.687 89.0667 129.391 89.4346 128.176 89.9702C126.936 90.5167 125.772 91.1633 124.637 91.9015C123.611 92.5696 122.68 93.5737 121.507 93.9624C121.454 93.9799 121.391 93.9326 121.394 93.8766C121.478 92.5423 122.592 91.3175 123.454 90.3673C124.452 89.2685 125.666 88.2929 126.93 87.5173C128.235 86.7171 129.645 86.0583 131.104 85.5988C131.873 85.3568 132.66 85.1645 133.455 85.0324ZM149.252 86.8441C150.558 84.9341 153.804 85.3004 155.719 85.8108C158.12 86.4503 160.722 87.744 162.406 89.6166C163.914 91.2941 161.657 93.4735 159.961 92.0619L159.509 91.6864L159.219 91.4484C157.917 90.3845 156.628 89.4217 155.041 88.7124C153.181 87.8812 151.295 87.4762 149.329 87.0332C149.252 87.0159 149.206 86.9111 149.252 86.8441Z" fill="black"/>
<path fill-rule="evenodd" clip-rule="evenodd" d="M129.449 129.599C131.16 125.59 134.893 122.644 139.191 121.566C142.347 120.778 145.66 120.803 148.877 121.116C150.563 121.279 152.371 121.412 153.96 122.039C155.317 122.574 156.422 123.585 157.254 124.772C158.243 126.179 158.916 127.789 159.389 129.439C159.456 129.674 159.519 129.91 159.578 130.148C159.372 131.393 158.936 132.453 157.783 133.236C156.658 134 155.316 134.313 153.978 134.424C153.847 134.361 153.72 134.296 153.604 134.23C151.518 133.035 150.051 130.213 147.419 130.595C145.07 130.936 143.524 133.893 142.127 135.626C137.644 136.149 133.164 134.801 129.516 132.236C129.33 131.359 129.32 130.473 129.449 129.599ZM162.625 126.558C162.266 125.551 161.815 124.576 161.279 123.657C159.509 120.619 156.791 118.198 153.565 116.814C145.934 113.546 136.06 115.85 129.897 121.211C127.792 123.044 125.663 125.737 125.019 128.634C124.827 128.672 124.646 128.772 124.496 128.913C120.043 126.108 115.458 123.41 111.87 119.523C109.264 116.698 107.452 113.355 106.342 109.682C106.251 109.38 105.764 109.424 105.779 109.759C105.783 109.837 105.787 109.915 105.792 109.993C105.745 109.849 105.526 109.923 105.509 110.063C104.912 114.525 104.165 119.256 104.853 123.742C105.264 126.418 106.479 128.377 108.104 130.493C109.845 132.761 111.815 134.87 113.83 136.893C115.109 138.177 116.444 139.658 118.01 140.6C119.831 141.694 121.896 142.525 123.839 143.369C125.816 144.231 127.823 145.026 129.867 145.716C133.954 147.1 138.178 148.056 142.476 148.475C145.917 148.809 149.85 149.173 153.148 147.878C155.675 146.886 157.715 145.092 159.334 142.934C161.095 140.583 162.488 137.905 163.258 135.082C164.058 132.149 162.793 127.03 162.625 126.558Z" fill="black"/>
</svg>
