<svg width="240" height="324" viewBox="0 0 240 324" fill="none" xmlns="http://www.w3.org/2000/svg">
<path fill-rule="evenodd" clip-rule="evenodd" d="M51.5018 284.882C64.4381 285.244 76.6584 285.644 89.5698 284.882C110.231 283.603 170.864 285.908 184.192 284.882C185.198 284.804 188.657 285.908 188.729 284.882C189.315 277.737 189.695 205.447 187.954 200.473C186.213 195.499 177.622 171.588 166.674 160.438C163.621 157.426 158.976 156.259 156.41 152.779C154.197 148.983 154.369 146.755 152.184 144.758C151.236 143.891 149 143.54 147.338 142.337C145.668 140.676 147.25 137.02 146.564 134.707C145.15 128.931 139.943 125.226 134.252 124.353C126.342 122.46 117.991 124.25 114.202 130.466C112.791 132.78 113.542 135.592 111.807 139.3C111.931 142.101 108.661 142.778 106.707 143.889L102.826 147.813C90.8678 154.543 76.8009 158.178 66.3235 167.221C57.4156 176.261 48.5554 186.71 44.603 198.94C43.7848 202.273 43.5178 205.718 43.1787 209.123C42.2106 219.075 39.5151 228.735 37.1954 238.429C34.5503 250.642 32.0847 263.608 35.6496 275.937C36.6774 278.547 49.162 284.76 51.5018 284.882Z" fill="white"/>
<path fill-rule="evenodd" clip-rule="evenodd" d="M113.516 131.461C113.62 131.122 114.066 131.217 114.1 131.539C114.435 134.726 114.013 138.057 113.607 141.223C113.413 142.751 113.301 144.34 113.005 145.847C112.967 146.008 112.931 146.17 112.897 146.331C112.994 146.504 113.282 146.699 113.419 146.832L114.015 147.412L115.211 148.569C117.55 150.835 119.888 153.103 122.227 155.369L125.66 158.697C126.837 159.838 128.174 160.931 129.207 162.204C129.767 162.895 129.894 163.742 129.342 164.482C129.07 164.847 128.58 165.114 128.083 165.169C128.277 165.439 128.427 165.746 128.523 166.086C128.717 166.779 128.016 167.631 127.27 167.341C126.423 167.016 125.723 166.433 124.861 166.154C123.991 165.87 123.045 165.816 122.142 165.968C121.728 166.037 121.323 166.141 120.927 166.272C125.155 168.219 129.729 169.337 134.394 169.497C135.344 169.529 136.293 169.516 137.237 169.453C138.826 169.349 140.404 169.108 141.955 168.72C143.174 168.413 144.381 168.028 145.551 167.563C146.126 167.335 146.694 167.084 147.243 166.798L147.291 166.77C147.416 166.692 149.711 165.39 149.751 165.194C149.791 164.999 149.791 164.93 149.716 164.76C149.642 164.59 149.434 164.472 149.434 164.472C148.725 164.169 147.99 163.887 147.216 163.882C145.432 163.871 143.487 165.19 142.012 166.088C140.392 167.075 138.902 168.229 137.343 169.299C137.307 169.324 137.267 169.335 137.229 169.335C137.064 169.335 136.912 169.131 137.018 168.973C138.135 167.327 139.643 165.957 141.221 164.76L141.857 164.283C143.302 163.205 144.992 162.011 146.749 161.751C148.901 161.434 151.15 162.776 153.07 163.562L156.471 164.955C157.077 165.202 157.737 165.414 158.347 165.695L156.922 161.234C156.21 159.003 155.499 156.771 154.796 154.538L154.66 154.1C153.959 151.834 153.316 149.476 152.149 147.405C151.87 146.908 151.551 146.441 151.236 145.97C150.908 145.482 150.786 144.943 150.374 144.507C149.559 143.643 148.39 143.135 147.275 142.804C147.002 142.723 147.083 142.364 147.338 142.337C148.483 142.216 149.575 142.483 150.609 142.966L151.039 143.171C152.017 143.634 152.971 144.065 153.697 144.896C155.353 146.794 156.214 149.184 157.004 151.542L157.215 152.175C157.511 152.078 159.52 152.691 159.771 152.836C167.303 156.022 173.104 161.952 177.347 168.901C181.995 176.516 184.525 185.217 186.615 193.828C187.26 196.485 187.876 199.151 188.469 201.822C185.829 202.838 183.024 203.37 180.553 204.801C179.612 205.346 180.462 206.808 181.406 206.261C183.72 204.921 186.356 204.425 188.834 203.484C190.177 209.669 191.371 215.887 192.372 222.132C195.446 241.297 197.387 260.775 197.265 280.202C197.263 280.632 197.136 281.111 196.901 281.523C197.039 281.456 197.147 281.375 197.208 281.278C197.987 280.054 199.942 281.19 199.158 282.42L199.043 282.598C198.455 283.505 197.906 284.198 196.872 284.71C195.83 285.226 194.702 285.313 193.553 285.343C189.647 285.446 185.738 285.513 181.827 285.561C181.291 281.376 181.073 277.152 180.334 272.992C180.144 271.923 178.515 272.376 178.705 273.442C179.418 277.459 179.646 281.537 180.144 285.581C171.784 285.671 163.42 285.672 155.066 285.696C143.746 285.729 132.426 285.705 121.106 285.699L116.254 285.697C103.177 285.697 90.0993 285.655 77.0221 285.569L73.912 285.547C72.6748 278.251 71.8327 270.892 71.8171 263.478C71.8147 262.39 70.1246 262.388 70.1269 263.478C70.1426 270.884 70.9754 278.243 72.2011 285.537C69.1048 285.524 66.0099 285.535 62.9134 285.645L61.3373 285.701C58.184 285.809 55.0242 285.875 51.8768 285.624C48.3824 285.343 44.8481 284.7 41.715 283.054C40.304 282.311 39.0615 281.361 37.9997 280.245C39.079 279.617 40.1738 279.014 41.2194 278.33C42.1259 277.736 41.2802 276.272 40.3663 276.87C39.2396 277.607 38.0552 278.25 36.8952 278.932C36.0552 277.811 35.3658 276.566 34.8423 275.223C34.0162 273.103 33.6972 270.823 33.4204 268.578C33.0932 265.934 32.9578 263.269 32.9578 260.606C32.9578 255.005 33.5472 249.422 34.3692 243.888C35.1553 238.588 36.1945 233.329 37.2928 228.088L37.443 227.373C38.5268 222.221 39.5599 217.053 40.8021 211.936C41.9508 207.205 43.2782 202.495 44.8602 197.877C46.2683 198.748 47.7418 199.51 49.128 200.417C50.0409 201.015 50.8887 199.552 49.9811 198.958C48.5022 197.989 46.9249 197.185 45.4325 196.239C47.2014 191.294 49.2778 186.464 51.7671 181.838C56.7528 172.575 63.4714 164.287 72.0763 158.171C76.3838 155.11 81.1099 152.606 86.0728 150.784C91.1326 148.924 96.3761 147.906 101.738 147.487C101.891 147.475 101.977 147.617 101.971 147.748L101.969 147.772L102.18 147.806C102.258 147.276 102.419 146.762 102.725 146.291C103.422 145.217 104.744 144.528 105.801 143.869L106.051 143.713C107.308 142.934 108.634 142.166 110.096 141.893C110.147 141.884 110.178 141.937 110.144 141.977C109.18 143.083 107.948 143.928 106.818 144.863L106.559 145.08C105.622 145.85 104.317 146.725 104.282 148.013C104.242 149.531 104.552 151.11 104.664 152.623C104.776 154.132 104.854 155.639 104.894 157.152C105.04 162.573 104.865 167.997 104.385 173.397L106.506 171.976C109.807 169.766 113.119 167.561 116.499 165.492C118.545 164.239 120.843 163.167 123.294 163.216C123.98 163.228 124.756 163.328 125.5 163.539C124.699 162.781 123.932 161.973 123.148 161.21C121.857 159.953 120.566 158.695 119.276 157.44L115.554 153.813L111.83 150.186C110.677 149.06 109.325 148.022 109.447 146.247C109.547 144.831 110.267 143.421 110.759 142.056C110.829 141.859 110.892 141.665 110.951 141.472C111.945 138.171 112.508 134.749 113.516 131.461ZM161.62 273.106C160.85 272.336 159.655 273.531 160.425 274.302L160.832 274.707C161.513 275.386 162.187 276.086 162.658 276.925L162.727 277.052C163.234 278.015 164.693 277.162 164.186 276.199C163.559 275.009 162.561 274.048 161.62 273.106ZM128.634 272.889C126.183 272.421 123.821 272.421 121.37 272.889C120.303 273.093 120.755 274.723 121.82 274.519C123.963 274.11 126.041 274.11 128.185 274.519C129.248 274.722 129.703 273.093 128.634 272.889ZM95.5347 255.846C94.4801 255.578 94.0301 257.209 95.0856 257.476L95.6052 257.606C97.3717 258.043 99.0541 258.368 100.889 257.963C101.937 257.731 101.513 256.141 100.481 256.324L100.44 256.332C98.7418 256.708 97.1776 256.262 95.5347 255.846ZM154.319 244.863C153.538 244.104 152.342 245.299 153.124 246.059C154.099 247.008 155.249 247.729 156.642 247.767C157.713 247.797 157.729 246.157 156.69 246.079L156.642 246.076C155.708 246.05 154.964 245.491 154.319 244.863ZM54.8489 240.347C55.822 239.861 54.967 238.402 53.996 238.888L48.1549 241.809C47.1818 242.296 48.0368 243.755 49.0077 243.269L54.8489 240.347ZM170.271 240.72C169.183 240.689 169.184 242.38 170.271 242.411C171.293 242.439 172.341 242.827 173.252 243.269C174.226 243.742 175.084 242.285 174.105 241.809C172.914 241.231 171.607 240.757 170.271 240.72ZM115.694 232.556C116.588 231.948 115.744 230.482 114.841 231.096C113.609 231.934 112.492 232.923 111.28 233.786L110.947 234.018C110.052 234.626 110.897 236.092 111.8 235.478C113.144 234.564 114.35 233.47 115.694 232.556ZM178.546 220.268C177.458 220.267 177.457 221.958 178.546 221.959L178.752 221.958C179.65 221.953 180.596 221.928 181.431 222.287L181.527 222.33C182.505 222.791 183.364 221.334 182.38 220.87C181.156 220.294 179.876 220.268 178.546 220.268ZM84.6839 219.06L84.8259 219.007C85.8421 218.642 85.4039 217.007 84.3765 217.377C82.8284 217.933 81.6239 218.984 80.2809 219.896C79.386 220.504 80.2306 221.97 81.1338 221.357C82.291 220.57 83.3676 219.575 84.6839 219.06ZM148.079 214.661L148.306 214.539C149.274 214.041 148.42 212.582 147.454 213.079C146.686 213.474 146 213.999 145.247 214.418L145.02 214.54C144.052 215.038 144.906 216.497 145.873 216C146.64 215.605 147.326 215.08 148.079 214.661ZM122.367 198.284L122.193 198.116C121.415 197.354 120.219 198.549 120.998 199.312C122.943 201.216 125.242 202.662 127.561 204.06L127.983 204.313C128.918 204.874 129.769 203.413 128.836 202.853L128.217 202.481C126.155 201.237 124.117 199.952 122.367 198.284ZM75.5959 196.706C76.2513 195.854 74.8261 195.021 74.16 195.823L74.1365 195.852C73.4543 196.738 72.6448 197.54 71.7988 198.272L71.6397 198.409C71.1361 198.837 70.2194 199.756 69.5119 199.816C68.4361 199.908 68.4264 201.599 69.5119 201.507C70.6066 201.414 71.5487 200.643 72.3758 199.982C73.5796 199.021 74.6564 197.926 75.5959 196.706ZM165.514 190.546C166.299 189.808 165.139 188.634 164.347 189.326L164.319 189.351C162.852 190.73 160.74 191.1 158.851 191.568C157.796 191.83 158.243 193.46 159.3 193.199L160.161 192.986C162.092 192.504 164.029 191.942 165.514 190.546ZM132.042 179.881C130.987 179.613 130.537 181.244 131.592 181.512C133.385 181.967 135.083 182.556 136.745 183.374C137.717 183.853 138.575 182.395 137.598 181.914C135.81 181.034 133.972 180.372 132.042 179.881ZM149.307 144.239C149.282 144.163 149.362 144.076 149.44 144.103C151.337 144.811 150.329 147.296 149.739 148.784L149.633 149.055C148.709 151.44 147.419 153.76 146.012 155.895C144.539 158.129 142.904 160.268 141.133 162.275C140.365 163.147 139.569 163.994 138.745 164.815L138.435 165.122C137.603 165.94 136.53 167.377 135.239 167.219C133.849 167.052 133.073 165.566 134.087 164.438C134.804 163.639 135.797 163.002 136.597 162.275C137.392 161.557 138.161 160.815 138.911 160.052C140.445 158.486 141.898 156.831 143.227 155.087C144.512 153.401 145.742 151.668 146.861 149.867L147.083 149.506C147.934 148.104 149.899 146.044 149.307 144.239ZM82.1073 161.95C81.2069 161.334 80.3606 162.798 81.2542 163.409C82.8975 164.533 84.3432 165.894 86.1218 166.818C87.0742 167.313 87.9211 165.895 87.0087 165.377L86.9749 165.358C85.1975 164.434 83.7497 163.072 82.1073 161.95Z" fill="black"/>
<path fill-rule="evenodd" clip-rule="evenodd" d="M139.312 145.72C134.623 145.747 130.637 144.416 127.596 142.214C123.801 140.86 119.224 138.772 116.444 136.581C115.359 136.857 114.062 135.705 113.232 135.097C108.072 131.242 104.021 125.599 102.821 119.947C100.968 122.287 98.3317 122.384 95.806 121.221C90.5116 118.218 90.7096 111.893 92.6156 107.168C88.6085 98.1733 85.8314 74.429 91.9482 64.8461C93.1993 63.4123 95.0355 62.5547 96.3574 61.0843C97.5337 59.8001 98.6526 58.4866 100.021 57.4704C104.197 54.2909 111.389 52.598 115.893 51.8018C134.692 47.7359 149.136 55.0439 166.164 61.2084C165.184 63.66 163.829 65.8959 162.275 67.9807C166.502 69.5592 164.561 73.1085 161.281 74.9077L159.328 73.9583C162.372 84.8526 169.377 111.944 166.355 120.644C163.944 134.217 153.367 145.818 139.312 145.72Z" fill="white"/>
<path fill-rule="evenodd" clip-rule="evenodd" d="M142.028 146.888C135.939 147.513 128.706 146.074 124.647 141.125C124.525 140.977 124.472 140.81 124.469 140.648C124.466 140.468 124.526 140.294 124.63 140.158C124.74 140.016 124.896 139.917 125.075 139.885C125.226 139.858 125.398 139.875 125.575 139.975L125.948 140.182C128.721 141.714 131.599 143.02 134.741 143.579C137.976 144.155 141.269 144.091 144.475 143.36C150.315 142.029 155.041 138.633 158.52 134.156C162.401 129.16 164.732 122.818 165.327 116.475C166.047 108.789 164.376 101.149 162.648 93.7064C160.833 85.8862 158.848 78.1059 156.543 70.4159C156.473 70.1844 156.454 69.9678 156.474 69.7682C155.794 69.5017 155.071 69.5757 154.35 69.819C153.034 70.2635 151.723 71.2659 150.63 72.0934C150.234 72.3931 149.865 72.6717 149.534 72.8983C148.178 73.8265 146.696 74.4943 145.039 74.5993C143.315 74.7083 141.625 74.1724 140.059 73.5017C139.264 73.1609 138.482 72.8075 137.702 72.4554C135.483 71.4529 133.29 70.4604 130.893 69.8153C127.681 68.9507 124.366 68.5248 121.04 68.5553C115.104 68.6096 109.15 70.1381 105.513 75.1602C104.039 77.1946 103.078 79.5327 103.827 82.0435C104.235 83.4093 105.004 84.6492 105.844 85.7896L106.132 86.178C106.592 86.8039 106.993 87.4274 107.113 88.0912C107.214 88.6473 107.135 89.2355 106.738 89.8803C106.489 90.2862 106.171 90.6501 105.851 91.0129C105.62 91.2746 105.389 91.5358 105.19 91.817C104.789 92.384 104.434 92.9947 104.156 93.6316C103.61 94.8783 103.379 96.2194 103.331 97.572C103.272 99.2038 103.502 100.8 103.729 102.399C103.89 103.532 104.051 104.667 104.116 105.815C104.128 106.016 104.066 106.165 103.981 106.276C103.876 106.411 103.722 106.496 103.548 106.52C103.495 106.527 103.44 106.528 103.385 106.523C103.412 106.634 103.436 106.744 103.457 106.856C103.347 106.714 103.23 106.577 103.106 106.444C103.098 106.44 103.09 106.436 103.082 106.431C102.955 106.361 102.847 106.254 102.779 106.117C102.603 105.954 102.418 105.799 102.223 105.654C101.21 104.898 100.028 104.45 98.8413 104.435C97.6976 104.421 96.5511 104.81 95.6695 105.633C93.9174 107.269 93.4042 109.938 93.3858 112.23C93.3673 114.57 93.9085 117.378 95.9477 118.83C96.7657 119.413 97.7647 119.763 98.7711 119.773C99.6054 119.782 100.404 119.486 101.19 119.205C101.432 119.118 101.673 119.032 101.914 118.954C102.187 118.865 102.437 118.87 102.654 118.935C102.898 119.009 103.106 119.16 103.261 119.362C103.416 119.563 103.517 119.815 103.549 120.079C103.579 120.335 103.544 120.6 103.436 120.839C103.409 120.899 103.38 120.958 103.351 121.015L103.799 121.753C105.516 124.57 107.264 127.336 109.555 129.758C110.87 131.148 112.264 132.46 113.794 133.608L114.014 133.772C114.146 133.869 114.292 133.988 114.449 134.116C114.895 134.481 115.429 134.971 115.928 134.99C116.076 134.996 116.206 134.977 116.323 134.962C116.607 134.924 116.846 134.913 117.08 135.009C117.269 135.086 117.464 135.23 117.665 135.526C117.801 135.727 117.871 135.979 117.871 136.234C117.871 136.491 117.8 136.747 117.674 136.95C117.415 137.37 117.1 137.63 116.759 137.778C116.379 137.943 115.959 137.968 115.522 137.887C114.446 137.686 113.255 136.794 112.498 136.213L112.351 136.1C110.672 134.819 109.08 133.401 107.681 131.815C105.298 129.115 103.158 125.933 102.059 122.456C101.284 122.965 100.327 123.207 99.3266 123.245C97.8686 123.3 96.3255 122.925 95.1884 122.385C92.6824 121.197 91.1603 118.948 90.4469 116.362C89.6185 113.359 89.8878 109.907 90.9365 107.209C90.9669 107.131 90.9986 107.053 91.0312 106.974C87.8027 98.7907 86.81 89.7041 87.0865 80.9715C87.2158 76.8839 87.4941 72.5953 88.4581 68.6088C88.8901 66.822 89.6408 65.1204 90.8394 63.7137C91.5228 62.9115 92.3613 62.287 93.2036 61.6643C93.9332 61.1249 94.6655 60.5867 95.2818 59.9132L95.5731 59.5934C95.6363 59.5238 95.6993 59.4544 95.7622 59.385C96.8264 58.2117 97.8624 57.0731 99.1538 56.1108C100.651 54.9951 102.304 54.1218 104.021 53.3965C107.721 51.8346 111.703 50.8981 115.641 50.1736C124.163 48.6064 132.911 48.5291 141.328 50.732C145.242 51.7561 149.04 53.1579 152.831 54.558C153.183 54.688 153.535 54.8179 153.887 54.9476C156.834 56.0329 159.782 57.1136 162.73 58.1943C164.1 58.6966 165.47 59.1988 166.84 59.7016C167.137 59.8107 167.428 60.0457 167.594 60.3378C167.756 60.6227 167.804 60.9549 167.673 61.2858C166.833 63.4165 165.772 65.4154 164.481 67.2821C164.93 67.5874 165.311 67.9934 165.6 68.4686C165.966 69.0696 166.182 69.7811 166.197 70.5359C166.246 73.0639 163.946 74.7776 162.038 76.0171C161.86 76.1327 161.684 76.2009 161.514 76.2323C163.363 83.3035 165.133 90.3986 166.636 97.55L166.74 98.0457C168.289 105.53 169.288 113.168 167.823 120.752C166.562 127.282 163.631 133.585 159.052 138.45C154.565 143.217 148.543 146.219 142.028 146.888ZM101.935 103.834C101.138 101.303 100.716 98.5489 101.021 95.9832C101.213 94.3705 101.697 92.8179 102.487 91.3964C102.939 90.5822 103.49 89.8285 104.091 89.1187L104.298 88.8803C104.403 88.7585 104.508 88.6466 104.54 88.5063C104.559 88.4248 104.54 88.3356 104.49 88.2291C104.38 87.9931 104.176 87.7657 103.985 87.5437C103.864 87.4027 103.746 87.2642 103.646 87.1295C101.899 84.7633 100.596 81.9462 101.019 78.9456C101.432 76.0181 103.35 73.2892 105.392 71.2327C109.888 66.7042 116.858 65.6636 122.964 65.9134C126.519 66.0587 130.068 66.6854 133.453 67.7801C135.122 68.3201 136.754 68.9776 138.34 69.7313L138.691 69.9C138.881 69.9918 139.07 70.0847 139.259 70.1776C140.499 70.7858 141.744 71.3999 143.089 71.7306C145.718 72.3762 147.5 71.0165 149.374 69.6451C150.016 69.1752 150.668 68.6987 151.361 68.2806L151.504 68.1962C152.754 67.4712 154.25 66.9832 155.686 67.0051C156.934 67.0241 158.138 67.4227 159.118 68.3646C159.319 68.5581 159.435 68.7693 159.489 68.9794C159.598 69.1315 159.685 69.3129 159.742 69.5271C160.094 70.8451 160.443 72.1639 160.791 73.4832L161.076 73.2996C161.92 72.7513 162.837 72.1247 163.252 71.2075C163.411 70.8544 163.389 70.2663 163.188 69.8338C163.117 69.6827 163.025 69.5484 162.896 69.4645C162.803 69.4035 162.69 69.3749 162.56 69.3854C162.242 69.4264 161.95 69.3799 161.702 69.2752C161.416 69.1545 161.189 68.9558 161.041 68.7164C160.89 68.4713 160.821 68.1832 160.858 67.8843C160.889 67.6273 161 67.359 161.219 67.1068C162.658 65.4469 163.871 63.6159 164.792 61.6285L158.698 59.3729C156.525 58.569 154.351 57.7662 152.177 56.9664L150.986 56.5289C147.033 55.0781 143.056 53.6604 138.945 52.7263C130.773 50.8703 122.252 51.3065 114.104 53.0536L113.611 53.16C110.192 53.906 106.726 54.8084 103.588 56.3772C102.047 57.1471 100.583 58.0834 99.3253 59.2663C98.7699 59.7887 98.2678 60.3606 97.7655 60.9318C97.0616 61.7323 96.3569 62.5306 95.52 63.2048L94.7431 63.8272C93.5874 64.7588 92.545 65.6664 91.8928 67.1112C91.211 68.6217 90.8855 70.2904 90.62 71.9162C89.9503 76.0118 89.6859 80.173 89.7111 84.3216C89.7538 91.2873 90.8116 98.1111 92.1481 104.911C93.2203 103.376 94.7265 102.186 96.6597 101.932C97.9201 101.767 99.1696 102.002 100.253 102.559C100.879 102.881 101.45 103.311 101.935 103.834ZM99.9102 112.105C98.4985 111.558 97.0163 111.379 95.5228 111.64C95.3663 111.668 95.2171 111.635 95.0916 111.562C94.9645 111.488 94.8643 111.371 94.8099 111.242C94.747 111.093 94.7438 110.932 94.7993 110.788C94.8474 110.664 94.9392 110.543 95.108 110.462C96.7252 109.69 98.5228 109.349 100.307 109.592L100.483 109.617C101.395 109.752 102.678 110.037 103.64 110.598C104.396 111.038 104.949 111.645 105.086 112.438C105.158 112.852 105.056 113.283 104.817 113.596C104.587 113.898 104.235 114.1 103.78 114.087C102.976 114.064 102.5 113.724 101.928 113.284C101.858 113.231 101.787 113.176 101.713 113.121C101.16 112.707 100.555 112.355 99.9102 112.105Z" fill="black"/>
<path fill-rule="evenodd" clip-rule="evenodd" d="M143.152 128.274C141.732 127.694 140.465 126.727 139.538 125.492C139.216 125.063 139.133 124.61 139.2 124.195C139.276 123.729 139.552 123.306 139.928 123.023C140.305 122.738 140.777 122.598 141.233 122.67C141.63 122.732 142.024 122.949 142.337 123.399L142.402 123.489C142.953 124.235 143.67 124.846 144.488 125.24C145.276 125.62 146.158 125.798 147.07 125.695C148.808 125.498 150.005 124.558 151.278 123.282C151.436 123.121 151.594 122.954 151.752 122.786C151.852 122.632 151.991 122.534 152.146 122.482C152.317 122.425 152.511 122.428 152.689 122.49C152.86 122.55 153.013 122.663 153.116 122.814C153.213 122.958 153.269 123.135 153.251 123.338C153.134 124.661 152.443 125.842 151.461 126.769C150.37 127.798 148.924 128.511 147.563 128.76C146.064 129.036 144.536 128.839 143.152 128.274ZM148.271 107.866C149.866 108.836 152.297 111.098 150.581 113.503C148.56 115.624 145.652 113.192 144.219 112.093C142.89 111.241 141.396 113.432 142.629 114.427C152.987 122.098 157.19 108.12 149.078 106.725C148.184 106.572 147.853 107.566 148.271 107.866ZM129.711 98.9426C129.887 96.7538 133.219 96.2568 133.551 98.4227C133.847 100.363 133.498 102.145 132.624 103.892C131.79 105.561 129.692 104.782 129.533 103.263C129.32 101.226 129.601 100.304 129.711 98.9426ZM155.076 97.9736C155.541 97.3649 156.212 96.9494 157.015 97.1842C159.526 97.9182 158.786 101.484 157.904 103.22C157.425 104.163 155.876 104.402 155.176 103.572C154.036 102.218 153.489 99.5154 154.94 98.1822C154.979 98.1133 155.023 98.0438 155.076 97.9736ZM132.589 89.3651L132.986 89.2957C134.213 89.0834 135.738 88.8794 136.606 89.8662C137.067 90.3895 137.225 91.3622 136.606 91.8631C135.518 92.7444 134.314 92.4029 133.01 92.4775C131.935 92.5392 130.902 92.7171 129.867 93.0132C127.595 93.6627 125.744 94.8484 123.804 96.1503C123.55 96.3211 123.29 95.9954 123.411 95.7572C124.531 93.5627 126.701 91.7601 128.875 90.6613C130.036 90.0748 131.305 89.5883 132.589 89.3651ZM152.787 88.3821L153.091 88.4442C156.395 89.1351 160.687 90.515 162.251 93.7613C162.311 94.2203 162.248 94.3187 162.197 94.3829L162.18 94.4043C162.137 94.4592 162.104 94.5349 161.905 94.5974C161.85 94.5842 161.794 94.5703 161.737 94.5555C161.02 94.3675 160.453 94.1085 159.904 93.8398L159.308 93.5462C158.617 93.2073 157.92 92.8807 157.181 92.6396C155.605 92.1252 153.983 91.7628 152.337 91.5693C151.98 91.5274 151.636 91.4069 151.365 91.2004C151.108 91.0044 150.911 90.733 150.821 90.3722C150.705 89.9053 150.739 89.5518 150.989 89.1306C151.177 88.8143 151.447 88.5951 151.756 88.4692C152.071 88.3408 152.43 88.3106 152.787 88.3821Z" fill="black"/>
<path fill-rule="evenodd" clip-rule="evenodd" d="M102.133 106.046C103.626 106.046 104.237 109.524 104.237 109.524C108.035 116.075 111.691 122.608 118.213 127.115C125.454 130.017 132.575 134.961 140.825 135.503C144.545 135.112 145.635 131.707 150.229 132.905C153.159 133.617 156.45 135.022 159.159 132.993C161.449 131.495 163.06 129.227 165.036 127.392C165.136 127.061 165.792 130.554 165.594 131.734L165.441 132.405C164.218 137.809 162.981 144.169 157.508 147.14C155.841 148.019 153.501 148.867 151.651 148.372C141.874 149.932 131.269 148.79 122.703 143.911C119.688 143.128 117.445 140.722 115.07 138.905C109.262 133.816 102.606 127.369 101.986 119.637C101.366 111.906 101.642 106.046 102.133 106.046ZM131.673 121.312C135.001 115.967 141.613 116.835 146.757 119.27C149.599 117.34 153.349 117.695 156.432 119.055L156.431 119.057C159.272 120.611 161.423 123.164 163.4 125.605C163.881 126.253 164.073 127.125 163.396 127.445C160.209 130.073 153.587 128.53 150.581 126.576C148.413 126.402 148.889 123.322 146.386 125.477C144.716 127.048 142.618 128.021 140.339 128.599C135.244 130.348 130.553 130.058 126.116 127.33C125.545 127.275 123.207 125.952 124.038 125.481C124.941 125.725 129.948 122.85 131.673 121.312Z" fill="white"/>
<path fill-rule="evenodd" clip-rule="evenodd" d="M101.355 111.794C101.389 111.512 101.825 111.499 101.835 111.794C102.037 117.979 104.051 124.76 107.456 130.056C115.639 143.423 132.342 150.12 148.419 147.819C160.167 147.66 161.422 141 164.342 131.701C165.858 130.456 166.603 130.902 166.132 132.361C162.512 143.583 161.272 150.019 146.95 149.896C123.952 153.18 99.0116 134.369 101.355 111.794ZM133.846 116.781C137.598 115.106 142.063 115.342 145.197 117.659L145.418 117.71C145.967 117.832 146.493 117.926 147.11 117.863C155.403 113.495 160.94 121.112 165.192 126.815C165.513 126.826 165.774 127.078 165.687 127.373L165.823 127.519C165.288 128.956 164.32 130.343 162.997 131.215C158.658 136.994 155.418 135.187 149.765 132.808C143.952 131.937 143.717 138.792 135.608 135.652L135.302 135.552C132.634 134.671 129.572 133.334 127.632 131.402C127.569 131.338 127.631 131.216 127.728 131.248C132.227 132.605 138.013 137.036 142.594 134.051C143.752 133.274 144.792 132.33 146.086 131.745C153.476 129.271 156.072 139.04 162.539 128.898C157.273 129.816 151.339 128.903 147.403 125.317C141.52 132.406 130.069 131.27 122.788 126.867C121.792 127.01 120.319 126.025 121.236 125.087C122.239 124.29 123.826 124.602 125.059 124.17C128.995 122.769 129.924 118.304 133.846 116.781ZM147 119.746C142.841 116.786 136.622 116.288 132.642 119.779C130.156 122.276 128.544 125.86 124.537 126.52C131.418 130.482 141.305 130.549 146.603 124.245C146.77 123.7 147.632 123.935 147.736 124.408C151.53 127.056 156.382 128.464 161.108 127.652C161.87 127.527 162.622 127.349 163.355 127.12L162.658 126.161C158.949 121.085 154.179 115.175 147.106 119.349C146.946 119.43 146.878 119.223 146.858 119.117L146.771 119.18C146.834 119.312 147.355 119.744 147 119.746ZM164.029 128.559C164.063 128.591 164.092 128.625 164.116 128.66C164.233 128.599 164.353 128.538 164.477 128.479L164.444 128.454C164.31 128.492 164.171 128.527 164.029 128.559ZM101.89 104.118L101.889 103.915C101.889 101.874 102.437 104.448 102.684 104.954C103.742 106.861 104.628 108.748 105.749 110.607C110.247 118.701 110.943 122.21 120.005 126.821C120.679 127.398 119.971 128.433 119.135 128.22C117.884 127.902 116.704 127.104 115.615 126.461C109.444 123.277 107.142 116.782 104.373 111.129C103.56 108.888 101.684 106.496 101.89 104.118Z" fill="black"/>
<path fill-rule="evenodd" clip-rule="evenodd" d="M170.723 102.353C168.709 115.983 154.648 117.49 152.15 103.959C152.551 103.784 152.839 103.438 152.779 102.767C152.765 99.8178 153.68 96.7012 156.339 95.0613C159.087 93.3693 162.302 93.2014 165.482 93.2441C171.55 93.0996 171.423 98.1735 170.723 102.353ZM149.949 96.4254C148.044 96.3451 145.635 96.4123 143.929 97.573C143.46 96.3095 142.242 94.9605 141.01 94.2392C145.587 94.3732 150.298 93.9226 154.908 93.5728C153.805 94.3254 152.778 95.4561 152.11 96.7633C151.491 96.433 150.604 96.4638 149.949 96.4254ZM141.555 103.798C136.274 121.982 123.093 114.056 121.656 111.726C119.064 107.87 118.576 98.4953 120.834 95.9889C124.066 93.7224 128.641 94.3057 132.459 94.2502C139.474 94.3448 144.455 96.444 141.555 103.798ZM176.958 95.4348C175.524 95.2471 173.99 95.2093 172.657 95.8412C172.246 94.0948 170.956 92.6348 169.501 91.9923C169.324 91.7712 169.351 91.6525 168.749 91.6856C165.053 90.5744 160.917 91.1623 157.365 92.3019C151.755 92.7745 145.87 93.1471 140.213 93.7983C134.914 91.4176 118.923 91.0687 117.929 96.9364C116.679 96.7494 114.55 95.7651 113.5 97.1002C105.795 95.7934 97.8329 97.6096 90.0944 98.4184C88.1465 98.7773 87.1432 102.645 89.3543 102.592C90.5974 102.254 89.3161 100.184 90.99 100.028C98.4564 99.212 105.759 98.0547 113.302 97.9192C113.04 99.2222 118.291 99.3069 118.369 98.5461C118.38 98.5518 118.392 98.5556 118.403 98.5607C117.106 103.398 118.277 110.361 120.622 113.361C123.908 117.289 132.157 118.416 135.814 115.888C140.532 113.556 145.441 101.847 144.062 97.9564C146.564 97.163 149.038 97.4012 151.635 97.8053C151.04 99.4853 150.014 103.621 151.491 103.98C151.22 112.191 158.689 117.314 165.575 113.946C171.536 111.147 173.62 102.287 172.891 96.91C173.633 98.3442 179.862 96.7828 176.958 95.4348Z" fill="black"/>
</svg>
