<svg width="240" height="324" viewBox="0 0 240 324" fill="none" xmlns="http://www.w3.org/2000/svg">
<path fill-rule="evenodd" clip-rule="evenodd" d="M194.637 251.934C193.785 247.123 193.005 242.299 192.295 237.465C191.958 235.169 191.63 232.872 191.335 230.571C191.128 228.959 190.813 227.115 191.909 225.921C193.452 224.24 194.854 222.802 195.042 220.395C195.22 218.129 194.455 215.66 193.976 213.462C192.972 208.851 191.722 204.297 190.341 199.786C188.938 195.204 187.399 190.664 185.839 186.133C184.38 181.897 182.977 177.622 181.077 173.558C177.47 165.845 171.369 160.132 163.828 156.318C161.953 155.37 158.128 151.984 156.169 151.225C154.367 150.528 154.374 152.564 152.601 151.797C151.184 151.184 149.864 150.367 149.071 148.998C148.209 147.512 146.049 145.433 145.72 143.703C145.023 140.035 145.778 136.914 143.161 134.154C140.839 131.703 137.717 130.024 134.486 129.123C127.38 127.14 117.903 128.526 113.616 135.132C111.568 138.286 110.852 142.1 108.089 144.674C105.676 146.922 106.216 148.459 103.091 149.617C102.914 149.683 98.1168 148.654 97.9397 148.72C94.521 147.988 91.2535 150.037 88.117 151.225C83.441 152.998 78.9892 155.304 74.8067 158.045C66.3731 163.573 59.1499 170.752 53.1949 178.874C47.1906 187.064 42.532 196.244 39.2149 205.838C38.4093 208.168 37.6857 210.527 37.0475 212.908C36.6902 214.241 36.3085 215.624 36.7435 216.988C37.0992 218.105 37.8906 218.936 38.82 219.606C40.0798 220.514 42.6068 221.104 42.5575 222.931C42.5199 224.32 42.049 225.781 41.8192 227.153C41.5456 228.787 41.3208 230.431 41.096 232.073C40.0735 239.544 39.2776 247.057 38.9256 254.592C38.5792 262.011 38.2916 269.581 38.8061 276.998C38.8401 277.487 38.9859 277.936 39.221 278.315C39.0015 278.399 38.9846 278.808 39.2578 278.866C39.4492 278.907 39.6401 278.948 39.8316 278.988C40.2292 279.289 40.725 279.474 41.2956 279.492C41.6825 279.504 42.0691 279.521 42.4555 279.541C46.5332 280.394 50.6102 281.199 54.7411 281.809C59.7625 282.551 64.7987 283.155 69.8506 283.646C80.2312 284.656 90.5301 284.321 100.924 283.777C111.303 283.234 121.675 283.107 132.064 283.377C142.462 283.648 152.857 284.1 163.257 284.285C174.877 284.492 186.478 284.174 198.064 283.25C199.653 283.124 200.636 281.859 200.322 280.281C198.445 270.825 196.318 261.431 194.637 251.934Z" fill="white"/>
<path fill-rule="evenodd" clip-rule="evenodd" d="M94.6976 148.487C95.7721 148.44 96.8677 148.614 97.9397 148.72C98.0331 148.729 98.0686 148.873 97.9634 148.895C96.0449 149.296 94.1475 149.844 92.2633 150.401L91.4566 150.64C89.3318 151.269 87.2694 151.918 85.2125 152.756C81.1131 154.428 77.2197 156.684 73.6363 159.275C59.838 169.256 49.8514 184.366 43.5493 200.01C41.8378 204.259 40.3877 208.613 39.213 213.041C38.9274 214.118 38.6587 215.199 38.4039 216.284C38.3291 216.602 38.0031 217.417 38.1818 217.742C38.3399 218.03 38.9542 218.208 39.2396 218.357L40.2033 218.857C42.0829 219.826 45.2138 221.419 45.5278 221.575L46.0175 221.816C54.0268 225.744 62.5846 229.075 71.5976 229.305L71.6682 228.535C72.07 224.278 72.5973 219.999 73.7483 215.873C73.8102 215.651 74.0923 215.726 74.118 215.923C74.7592 220.808 74.5543 225.73 74.3306 230.637C73.9344 239.328 73.4084 248.015 72.9408 256.702C72.7068 261.048 72.4042 265.392 72.1311 269.735C71.8575 274.088 71.7689 278.544 71.1442 282.861C71.005 283.823 69.8785 284.346 69.0254 284.245C68.0815 284.132 67.3554 283.301 67.3509 282.347C67.3395 279.833 67.6554 277.288 67.8309 274.78C67.9976 272.397 68.1765 270.015 68.3599 267.633C69.0301 258.94 69.801 250.257 70.514 241.568C70.7667 238.486 71.0396 235.407 71.3206 232.328C61.7728 232.02 52.8529 228.482 44.3435 224.349C44.2203 227.146 43.9228 229.939 43.6349 232.725C42.831 240.5 42.1222 248.271 41.5917 256.07C41.3238 260.009 41.1288 263.953 40.9589 267.897C40.8755 269.836 40.8075 271.775 40.7553 273.714C40.7378 274.361 40.722 275.007 40.7081 275.654L40.6791 277.135C40.6553 278.073 40.5599 278.943 39.7706 279.626C38.9688 280.32 37.8858 280.357 37.0923 279.626C36.0301 278.647 36.2179 277.314 36.2494 276C36.2756 274.891 36.307 273.783 36.3436 272.675C36.4169 270.459 36.5105 268.243 36.6244 266.028C37.0228 258.285 37.819 250.573 38.8595 242.892L39.2657 239.927C40.0242 234.415 40.8569 228.777 42.5525 223.468C41.8923 223.139 41.234 222.808 40.5782 222.476C39.415 221.887 38.2123 221.334 37.0815 220.684C36.1845 220.168 35.4108 219.46 35.1611 218.416C34.8826 217.252 35.3085 215.98 35.5914 214.845L35.616 214.745C35.8934 213.602 36.1921 212.464 36.5073 211.331C37.7855 206.737 39.366 202.232 41.2156 197.837C44.9192 189.038 49.6995 180.679 55.5387 173.121C60.7949 166.317 67.004 160.148 74.2813 155.52C77.8391 153.258 81.6305 151.4 85.6401 150.087C87.5143 149.473 89.5535 148.939 91.5157 148.72C92.5742 148.601 93.6341 148.533 94.6976 148.487ZM113.736 134.544C115.013 133.173 117.549 134.592 116.936 136.408C115.494 140.682 113.198 144.58 109.614 147.388C106.245 150.027 102.228 151.742 97.9014 151.376C97.868 151.373 97.8391 151.364 97.8135 151.352L98.1863 151.858C101.113 155.819 104.201 159.725 107.923 162.963C115.506 169.559 125.831 173.117 135.8 170.586C143.644 168.595 150.555 162.39 152.587 154.482C152.296 154.613 151.95 154.658 151.57 154.575C149.944 154.222 148.334 152.511 147.285 151.284C146.15 149.957 145.264 148.524 144.615 146.904C143.426 143.94 143.045 140.123 144.668 137.252C144.868 136.898 145.33 137.096 145.37 137.442L145.431 137.981C145.744 140.672 146.134 143.275 147.402 145.729C148.023 146.929 148.767 148.101 149.673 149.106C150.158 149.644 150.683 150.158 151.25 150.609C151.803 151.049 152.472 151.366 152.967 151.871L153.058 151.967L153.061 151.95C153.186 150.885 153.933 150.415 154.664 150.445C155.371 150.473 156.202 150.785 156.523 150.934L156.554 150.948C161.487 153.317 166.031 156.405 170.307 159.831C179.15 166.917 185.775 176.179 188.986 187.086C190.561 192.44 191.465 197.956 192.42 203.446L193.007 206.81C193.898 211.879 194.893 217.047 196.904 221.762C197.424 222.981 197.023 224.125 195.748 224.605C194.155 225.204 192.557 225.784 190.956 226.356C191.742 229.73 192.221 233.221 192.81 236.611C194.062 243.818 195.596 250.979 196.912 258.176C197.584 261.856 198.191 265.549 198.863 269.229C199.186 271.001 199.524 272.771 199.852 274.543C200.029 275.498 200.189 276.456 200.358 277.413L200.387 277.572C200.484 278.076 200.605 278.598 200.467 279.103C200.308 279.679 199.859 280.086 199.458 280.499C199.128 280.839 198.65 280.841 198.246 280.656L198.113 280.594C197.39 280.256 196.824 279.919 196.568 279.103C196.406 278.587 196.347 278.005 196.241 277.473C196.038 276.454 195.845 275.433 195.663 274.409C195.298 272.36 194.943 270.31 194.595 268.258L194.271 266.337C193.157 259.715 192.1 253.054 191.565 246.362C191.328 243.394 191.077 240.428 190.823 237.461L190.633 235.236C190.392 232.42 190.098 229.533 190.056 226.678L189.099 227.018L184.427 228.67C183.269 229.08 181.795 229.919 180.548 229.766C179.938 229.691 179.473 229.499 179.114 229.15C179.544 235.223 180.126 241.285 180.902 247.316C181.608 252.804 182.391 258.285 183.315 263.74C183.773 266.442 184.244 269.141 184.755 271.832C185.01 273.179 185.274 274.523 185.546 275.866C185.681 276.536 185.842 277.206 185.948 277.882C186.069 278.655 185.856 279.131 185.424 279.768C185.069 280.29 184.359 280.559 183.784 280.198C183.022 279.72 182.625 279.305 182.401 278.434C182.197 277.643 182.073 276.817 181.916 276.016C181.625 274.537 181.343 273.056 181.072 271.574C180.504 268.473 179.981 265.364 179.514 262.246C177.867 251.263 176.822 240.187 176.294 229.093C176.034 223.62 175.953 218.142 175.999 212.663C176.023 209.854 176.115 207.038 176.313 204.237C176.514 201.401 176.933 198.622 177.306 195.813C177.319 195.714 177.459 195.709 177.465 195.813C177.642 198.962 177.919 202.107 178.055 205.264C178.184 208.276 178.241 211.293 178.344 214.307C178.48 218.268 178.668 222.232 178.916 226.192C179.366 225.7 180.045 225.415 180.724 225.526C181.708 225.32 182.767 224.804 183.704 224.49L187.24 223.309C189.098 222.688 190.957 222.071 192.822 221.473C191.154 215.861 190.012 210.165 189.037 204.387L188.602 201.788C187.741 196.672 186.812 191.554 185.253 186.6C183.613 181.392 181.159 176.55 177.904 172.165C174.696 167.844 170.792 164.039 166.773 160.48C163.332 157.433 159.651 154.682 156.142 151.719C156.178 151.915 156.186 152.131 156.154 152.369C155.408 157.832 152.559 162.92 148.588 166.704C140.612 174.307 128.805 175.884 118.596 172.319C108.721 168.871 99.9896 160.704 96.9048 150.597C96.852 150.425 97.0836 150.356 97.1765 150.483C97.3477 150.718 97.5196 150.952 97.6918 151.187C97.6802 151.094 97.7286 150.992 97.8435 150.948C101.443 149.557 104.977 147.586 107.675 144.797C108.99 143.437 110.137 141.897 111.043 140.235C111.477 139.44 111.867 138.616 112.178 137.764L112.257 137.544C112.634 136.477 112.949 135.389 113.736 134.544Z" fill="black"/>
<path fill-rule="evenodd" clip-rule="evenodd" d="M111.129 50.5837L112.954 52.7546C111.944 53.4669 110.99 54.1827 110.093 54.9018L110.092 54.8996C114.248 52.1871 118.85 50.5837 123.822 50.5837C133.399 50.5837 152.85 58.8131 157.248 64.7489C159.43 67.6946 163.485 76.7378 165.589 86.5694C167.279 94.4689 169.793 116.786 167.279 125.172C164.062 135.904 153.477 145.824 142.563 145.824C131.649 145.824 114.704 137.941 102.644 120.667C102.093 119.877 95.7605 118.962 91.243 115.997L92.4291 129.069L93.3305 136.673L93.1316 137.214C89.8962 145.967 87.3323 150.534 85.44 150.914C83.5091 151.302 79.5767 148.135 73.6429 141.415L72.8847 138.231C70.9589 130.11 69.996 125.75 69.996 125.153L69.9973 125.044C70.0257 123.67 70.499 115.89 70.5088 113.797L70.5089 82.4188C76.8905 61.1954 82.9803 50.5837 88.7783 50.5837H111.129Z" fill="white"/>
<path fill-rule="evenodd" clip-rule="evenodd" d="M96.0084 43.356C97.8847 42.6289 100.058 42.7663 101.839 43.8611C105.336 43.7111 108.814 45.7569 110.637 48.7433C110.675 48.7856 110.715 48.8278 110.751 48.8701L111.137 49.3206C111.503 49.7508 111.889 50.225 112.195 50.7146C110.697 50.7488 109.45 51.3594 108.579 52.5926C107.958 53.4726 109.381 54.3088 110.016 53.4765L110.038 53.4461C110.561 52.7057 111.35 52.4189 112.229 52.4039C112.481 52.3997 112.673 52.3031 112.808 52.1606C112.862 52.357 112.91 52.5554 112.954 52.7547C117.379 51.0333 122.148 50.5774 126.898 50.9857C126.69 51.323 126.516 51.6845 126.382 52.0643C126.23 52.4948 126.554 52.9891 126.972 53.1041C127.425 53.2284 127.833 52.9633 127.997 52.5537L128.012 52.5136C128.194 51.9962 128.493 51.5522 128.893 51.2079C131.129 51.5111 133.349 51.9935 135.515 52.6152C138.119 53.3632 140.698 54.276 143.22 55.3212C142.793 55.4888 142.424 55.772 142.165 56.2448C141.649 57.1885 143.068 58.0338 143.606 57.1316L143.625 57.0982C143.678 57.0014 143.724 56.9433 143.759 56.9102L143.771 56.8989L143.845 56.8647L143.984 56.8249L144.037 56.8119C144.084 56.8013 144.103 56.8019 144.227 56.7951C144.391 56.7858 144.556 56.7867 144.72 56.7865C145.107 56.7862 145.354 56.5705 145.466 56.2944C146.711 56.8564 147.939 57.4482 149.146 58.0681L149.433 58.2167C153.159 60.164 156.688 62.7213 158.736 66.4841C158.871 66.7356 158.913 67.0103 158.88 67.2724C159.317 67.7965 159.739 68.3376 160.145 68.8871C161.383 70.5695 162.289 72.4822 163.147 74.378C164.873 78.1907 166.035 82.1071 166.942 86.1904C167.818 90.1257 168.526 94.1033 169.183 98.0809C169.912 102.5 170.518 106.958 170.645 111.44C170.869 119.432 169.308 127.469 164.822 134.196C160.821 140.199 154.796 144.965 147.651 146.491C140.383 148.042 132.693 146.529 126.966 141.685C126.042 140.905 126.169 139.33 126.966 138.531C127.868 137.631 129.199 137.756 130.118 138.531C135.511 143.094 143.362 143.798 149.861 141.473C155.869 139.322 160.576 134.359 163.464 128.786C166.988 121.989 167.582 114.182 167.041 106.662C166.745 102.532 166.13 98.436 165.496 94.3464L165.114 91.8846C164.696 89.2182 164.258 86.5555 163.686 83.9162L163.552 83.3013C162.853 80.1186 162.034 76.8543 160.768 73.8623C160.105 72.292 159.307 70.7787 158.489 69.2844C158.33 68.9949 158.168 68.7011 158.001 68.4052C157.777 68.4834 157.521 68.4961 157.253 68.4116C154.944 67.693 152.571 67.2111 150.157 67.0505C149.056 66.9769 147.955 66.9655 146.854 67.0084C144.97 66.8987 143.034 67.0644 141.239 67.6423C141.064 67.4916 140.886 67.344 140.708 67.1965C140.66 67.1927 140.612 67.1876 140.564 67.1781C140.106 67.0881 139.784 66.7626 139.59 66.3515C139.58 66.3298 139.571 66.308 139.562 66.2862C139.332 66.1106 139.101 65.9377 138.867 65.7672C138.298 65.9149 137.799 65.4408 137.664 64.9213C137.538 64.8357 137.409 64.7529 137.281 64.669C137.18 64.6935 137.081 64.7138 136.983 64.721C136.564 64.7512 136.159 64.6869 135.787 64.4868C135.317 64.2334 135.016 63.8246 134.815 63.3603C134.104 63.404 133.384 63.173 132.747 62.7554C132.231 62.4166 131.836 61.9489 131.442 61.482C126.651 59.3442 121.443 58.082 116.223 57.7587C115.708 57.8576 115.198 57.9753 114.694 58.1123C114.574 58.1448 114.405 58.2086 114.21 58.2851C115.374 58.1444 116.553 58.1304 117.748 58.3027C123.421 59.1234 127.84 63.3728 131.643 67.384C132.548 67.2012 133.462 68.3731 132.625 69.1492L126.097 75.2003C126.258 75.8771 125.482 76.5441 124.802 76.3816C123.663 76.1077 122.521 75.8414 121.379 75.5795C120.187 76.1563 118.689 76.0576 117.608 75.2215C117.558 75.1826 117.449 75.1205 117.354 75.0587C117.265 75.1321 117.146 75.2056 117.098 75.2369C116.714 75.4914 116.246 75.5662 115.797 75.4948C115.335 75.4214 114.918 75.187 114.559 74.8952C114.33 74.7092 113.797 73.9335 113.5 73.8763L113.471 73.8731C113.669 73.8788 113.033 74.4703 112.862 74.5927C112.463 74.8774 112.022 75.027 111.526 74.9725C110.661 74.8773 109.917 74.0888 109.494 73.3606L109.463 73.3047L109.449 73.2701L109.438 73.3076C109.436 73.3142 109.434 73.3213 109.431 73.3293C109.367 73.5007 109.168 73.6955 109.033 73.8154C108.648 74.1563 108.171 74.3061 107.661 74.2171C107.23 74.1421 106.867 73.8814 106.576 73.5659L106.53 73.5157C106.444 73.4183 105.876 72.6546 105.965 72.4716L105.976 72.4562L105.948 72.4503C105.602 72.5352 105.312 72.45 105.099 72.2719C103.913 72.0119 102.743 71.7091 101.609 71.324C101.521 71.5734 101.434 71.8228 101.349 72.0743C101.968 72.4568 102.541 73.0021 103.067 73.391C104.064 74.1265 105.061 74.862 106.056 75.5996L109.999 78.509L110.45 78.3879C111.026 78.2332 111.52 78.5687 111.732 79.0816L111.749 79.126C111.833 79.3506 111.934 79.5584 112.053 79.7573C113.038 79.718 113.873 80.3233 114.143 81.1915C114.386 81.186 114.632 81.1953 114.883 81.223C115.572 81.2986 116.036 81.8101 115.911 82.5124L115.902 82.5606L115.885 82.6388C116.284 82.8083 116.574 83.1357 116.638 83.6307C116.745 83.7915 116.831 83.9665 116.886 84.1614C117.174 85.1725 116.614 86.4224 116.315 87.391L116.292 87.4669C116.101 88.1035 115.903 88.737 115.702 89.3703L115.203 90.9425C113.818 95.3242 112.467 99.9441 113.588 104.538C113.827 105.51 112.584 105.949 112.046 105.189C110.74 103.347 109.329 101.611 107.847 99.9444L107.775 99.933C106.738 99.7244 106.335 98.9912 105.859 98.2439C105.578 98.3265 105.276 98.346 104.985 98.2897C104.563 98.2084 104.184 97.9672 103.886 97.6627C103.633 97.4044 103.401 96.742 103.102 96.5778C102.728 96.3726 101.977 96.6659 101.53 96.6C101.167 96.5465 100.828 96.4218 100.499 96.2652C99.8943 97.0897 99.4935 98.0589 99.3953 99.1039C99.357 99.5012 99.2387 99.8372 99.0676 100.116C99.6972 100.093 100.329 100.137 100.952 100.254C103.259 100.683 104.914 102.107 105.843 104.229C105.883 104.322 105.763 104.398 105.708 104.309C104.328 102.185 101.326 102.078 99.1457 102.826C96.8303 103.62 95.531 105.66 95.0685 107.987C94.5615 110.538 95.2119 113.288 96.6002 115.46C97.2443 116.471 98.1234 117.392 99.2915 117.764C100.68 118.206 101.962 117.415 103.384 117.823C104.351 118.1 104.778 119.036 104.603 119.973C104.533 120.34 104.404 120.662 104.231 120.941C104.742 121.955 105.215 122.999 105.818 123.959C106.747 125.44 107.871 126.666 109.096 127.902C110.362 129.179 111.651 130.43 113.005 131.614C114.302 132.749 115.79 133.556 117.15 134.596C118.105 135.325 118.578 136.348 118.107 137.519C117.718 138.487 116.408 139.311 115.348 138.874C113.318 138.037 111.541 136.612 109.923 135.145C108.423 133.784 107.117 132.157 106.13 130.39C105.2 128.724 104.514 126.833 103.935 125.01L103.863 124.783C103.591 123.916 103.304 122.942 103.118 121.959C102.004 122.568 100.494 122.657 99.3023 122.492C97.3774 122.228 95.6218 121.258 94.295 119.844C93.6767 119.186 93.1301 118.435 92.6581 117.622C92.701 118.117 92.7266 118.596 92.7541 119.032C93.8571 120.241 94.2995 121.985 93.908 123.576C94.8308 124.526 95.0894 125.953 94.6077 127.167C95.6178 128.169 95.5798 129.764 95.1431 131.212C96.3372 132.548 96.4502 134.627 95.5179 136.134L95.4898 136.242C96.4312 137.818 96.2188 139.855 95.0393 141.246C95.8449 142.809 95.7203 144.912 93.7071 145.518C92.9734 145.739 92.2622 145.551 91.73 145.139C92.216 147.557 92.4334 150.011 91.7854 152.44C91.5274 153.404 90.5852 154.108 89.5943 154.108C88.7662 154.108 88.1641 153.691 87.7481 153.078C87.7967 154.298 87.7227 155.524 87.4629 156.76C87.3061 157.507 86.6138 158.089 85.8788 158.269C86.1439 158.569 86.2496 159.001 85.9954 159.452C84.9177 161.36 82.3138 160.569 82.1379 158.74C81.4024 158.191 81.0606 157.289 80.9191 156.315C80.7129 154.895 80.6381 153.497 80.4044 152.095L80.3151 152.178L80.269 152.218L80.2542 152.32C80.1203 153.013 79.7294 153.498 79.2222 153.788C79.3324 154.997 79.1284 156.229 78.3615 157.147C77.8506 157.759 76.9804 158 76.2344 157.867C76.1875 157.87 76.1396 157.87 76.0897 157.863C74.4002 157.638 73.4227 156.035 73.8674 154.564C73.1871 153.73 72.9006 152.672 73.1019 151.626C71.7855 150.754 71.8124 148.839 72.2683 147.3C70.8883 146.211 70.3692 144.174 71.0626 142.555C69.8189 141.01 69.6458 138.857 70.4909 137.097C69.1225 135.973 69.1303 133.801 70.4875 132.651C69.7648 131.216 69.3289 129.496 70.0512 128.183C69.5417 127.62 69.2619 126.818 69.3209 126.043C69.4073 124.906 70.1598 124.119 71.0936 123.595L71.1583 123.239C71.3776 123.267 71.6112 123.205 71.8172 123.008C72.0211 122.812 72.2309 122.654 72.4479 122.524C72.6936 122.52 72.905 122.411 73.0538 122.242C73.4607 122.104 73.8982 122.043 74.3835 122.038C75.4316 122.026 75.4686 120.458 74.4931 120.357C74.3391 120.201 74.127 120.103 73.8969 120.103L73.7168 120.104C73.2956 120.108 72.8703 120.134 72.4796 120.302C72.2256 120.41 72.0298 120.574 71.8863 120.774C71.8595 121.078 71.6947 121.38 71.3379 121.629C70.9257 121.918 70.362 121.951 69.9209 121.69C69.3034 121.325 69.297 120.755 69.3682 120.136C69.5241 118.78 68.745 117.504 68.9305 116.117C69.0127 115.504 69.2167 114.975 69.5495 114.547C68.8479 113.497 68.7241 112.14 69.2643 110.987C68.1389 109.776 67.9443 107.909 68.6619 106.451C68.6723 106.416 68.6803 106.38 68.6915 106.345C68.7727 106.097 68.8844 105.874 69.0076 105.66C68.3776 104.568 68.3822 103.228 69.0226 102.141C68.0527 101.01 68.0218 99.21 68.8844 97.9913C68.8895 97.8903 68.9 97.7893 68.9087 97.6882C68.5128 96.66 68.6079 95.491 69.11 94.5349C68.9309 94.1217 68.7927 93.6768 68.7044 93.203C68.4781 91.9813 68.5946 90.7936 68.9326 89.6015C68.9873 89.4134 69.0486 89.2253 69.1141 89.0372C69.125 88.2208 69.1561 87.4079 69.1971 86.5966C69.0364 85.9097 69.0105 85.1549 69.007 84.4542L69.006 83.9998C68.9981 82.8435 68.9176 81.1504 69.6484 80.1675C69.1791 79.1057 69.372 77.7678 70.1552 76.9262C69.6055 75.9804 69.4901 74.8191 70.0426 73.7697C70.1313 73.6008 70.2342 73.4436 70.347 73.2948C70.3014 72.3338 70.5036 71.3428 71.0155 70.3877C71.348 69.7659 71.8447 69.2276 72.4352 68.7969C72.4253 68.6694 72.4191 68.5422 72.4212 68.4168C72.4316 67.8576 72.5556 67.2961 72.7643 66.7721C72.3898 66.1326 72.2161 65.4117 72.4352 64.6347C72.6803 63.7555 73.3248 62.9989 74.1296 62.572C74.1944 61.743 74.3239 60.919 74.509 60.1059C74.0144 59.0042 74.4082 57.5501 75.526 56.901C75.3803 56.0205 75.5117 55.1075 76.1522 54.4198C76.395 54.1592 76.681 53.9615 76.9889 53.8305C76.8405 52.9452 77.0079 52.0241 77.6199 51.3032C78.1198 50.7146 78.8605 50.357 79.6143 50.3043C79.9046 48.7644 81.3752 47.613 82.9267 47.7047C83.1207 47.0267 83.584 46.4356 84.3027 46.1359C84.4867 46.0592 84.6727 46.0086 84.8579 45.9805C86.1196 44.7074 87.998 43.8444 89.6241 43.4025C91.2553 42.961 92.9087 42.9182 94.3092 43.4316L94.4112 43.4701L94.5253 43.4553C95.0199 43.4004 95.5141 43.3687 96.0084 43.356ZM83.6135 147.707C83.1779 147.571 82.692 147.868 82.5739 148.298C82.4492 148.752 82.7269 149.201 83.1642 149.338C83.709 149.508 84.2814 149.55 84.8492 149.55C85.3058 149.551 85.6943 149.162 85.6943 148.705C85.6943 148.246 85.3075 147.86 84.8492 147.86C84.3874 147.859 84.0464 147.842 83.6135 147.707ZM79.738 138.729C79.0866 138.73 78.528 138.885 78.0451 139.342C77.7231 139.647 77.7151 140.235 78.0451 140.538C78.3784 140.844 78.862 140.862 79.2041 140.57L79.27 140.511C79.2779 140.504 79.2841 140.498 79.289 140.493C79.3165 140.476 79.3442 140.457 79.3733 140.442L79.3182 140.478C79.2762 140.509 79.3736 140.459 79.4282 140.436L79.4454 140.429L79.4508 140.427L79.4946 140.424C79.5755 140.42 79.6568 140.42 79.738 140.42C80.1799 140.42 80.6033 140.032 80.583 139.575C80.5623 139.117 80.2116 138.729 79.738 138.729ZM92.0289 133.366C92.9436 132.804 92.1266 131.369 91.2092 131.886L91.176 131.906C90.7057 132.194 90.1273 132.155 89.5945 132.155C88.5071 132.156 88.5052 133.847 89.5945 133.846L89.7745 133.846C90.5556 133.84 91.3456 133.785 92.0289 133.366ZM84.8306 127.194C84.1395 127.064 83.3654 126.948 82.6382 127.027L82.5175 127.042H82.2937C82.0994 127.042 81.9111 127.121 81.7601 127.244C81.5209 127.343 81.2944 127.476 81.0878 127.655C80.2645 128.369 81.4643 129.561 82.2829 128.851C82.3284 128.811 82.3812 128.779 82.4398 128.752L82.4849 128.733H83.3889C83.4711 128.733 83.5512 128.716 83.6291 128.691C83.9226 128.732 84.196 128.79 84.3813 128.825C85.4444 129.025 85.8999 127.396 84.8306 127.194ZM84.0588 110.967C82.7342 110.352 81.2671 110.357 80.042 111.21C79.1659 111.821 79.9797 113.26 80.8633 112.691L80.8949 112.67C81.0047 112.594 81.1175 112.53 81.2316 112.472C81.8536 112.651 82.4796 112.66 83.0809 112.439L83.1592 112.409L83.2059 112.427C84.1862 112.882 85.0456 111.425 84.0588 110.967ZM98.483 108.318C97.1448 108.168 97.134 106.053 98.483 106.204C101.331 106.524 103.915 107.79 105.808 109.966C106.688 110.977 105.239 112.457 104.342 111.491L104.314 111.46C102.809 109.73 100.778 108.575 98.483 108.318ZM83.4917 97.4602C83.1942 97.4276 82.8974 97.4114 82.6052 97.4255C81.9033 97.4593 81.0486 97.9277 81.3566 98.7739C81.6036 99.452 82.4131 99.4788 82.8129 99.1172C82.9791 99.1212 83.1452 99.1322 83.3106 99.1491C83.7519 99.1945 84.1891 99.2786 84.6241 99.3644C85.6865 99.5735 86.1414 97.9442 85.0734 97.7339L84.601 97.6404C84.4419 97.6092 84.2813 97.5787 84.12 97.5508C84.0234 97.5028 83.9199 97.4705 83.8093 97.4623L83.7534 97.4602H83.4917ZM75.0947 84.3427L74.9955 84.3293C73.5683 84.1466 71.2775 84.3147 71.1043 86.132C71.0086 87.1385 72.4621 87.2017 72.749 86.341C73.8028 86.151 74.8653 86.1147 75.9119 86.2301C76.3112 85.8243 76.3144 85.0442 75.6497 84.8495C75.5559 84.5972 75.3601 84.381 75.0947 84.3427ZM107.716 81.2733C107.386 80.9704 106.845 80.9303 106.521 81.2733C106.334 81.4707 106.178 81.6901 106.054 81.9314L105.972 82.0944C105.958 82.1215 105.944 82.1483 105.929 82.1749C105.901 82.2241 105.87 82.2711 105.84 82.3188L105.82 82.3388C105.812 82.347 105.802 82.3569 105.791 82.3689C105.487 82.6904 105.448 83.2498 105.791 83.5645C106.121 83.8674 106.661 83.9076 106.986 83.5645C107.173 83.3671 107.329 83.148 107.453 82.9064L107.535 82.7436C107.549 82.7165 107.563 82.6897 107.578 82.6631C107.605 82.6137 107.637 82.5667 107.667 82.519L107.7 82.4854C107.705 82.4804 107.71 82.4749 107.716 82.4689C108.02 82.1476 108.059 81.588 107.716 81.2733ZM90.3863 79.0716C89.1956 78.2275 87.7797 78.1882 86.6851 79.2037C85.8951 79.9367 87.0557 81.1112 87.8523 80.4244L87.8802 80.3993C87.9092 80.3723 87.9385 80.3486 87.9677 80.326C88.1105 80.4477 88.292 80.5249 88.4994 80.5251C88.5537 80.5252 88.6078 80.5251 88.6619 80.5262L88.743 80.5291L88.7866 80.5327L88.792 80.5338L88.8301 80.5499C88.8996 80.5813 88.9955 80.6297 88.8639 80.5473C88.8932 80.5627 88.9207 80.5809 88.9486 80.5986L88.9972 80.6428C89.3158 80.9442 89.867 80.9839 90.1832 80.6506C90.7433 80.4613 91.0406 79.5351 90.3863 79.0716ZM102.028 76.302L102.05 76.2951C103.094 75.9969 102.65 74.3651 101.6 74.6646C100.487 74.9827 99.9548 76.0193 99.7321 77.0812C99.6385 77.5277 99.8631 77.995 100.322 78.1212C100.742 78.2364 101.268 77.9796 101.362 77.5307C101.428 77.215 101.504 76.9472 101.625 76.6987L101.698 76.5568C101.732 76.4921 101.744 76.4814 101.859 76.3807C101.879 76.3638 101.966 76.3229 102.028 76.302ZM84.3436 67.7864L84.1803 67.7491C83.1631 67.5262 81.8131 67.4098 81.1989 68.4185C80.639 69.3375 82.0513 70.174 82.633 69.3054C82.6418 69.3051 82.652 69.3052 82.6639 69.3061L82.683 69.3083L82.9437 69.2872C83.2685 69.2849 83.5792 69.3424 83.8942 69.417C84.9518 69.6674 85.4033 68.0375 84.3436 67.7864ZM120.858 61.2865C121.628 60.5162 120.433 59.3201 119.663 60.0911C119.054 60.7004 118.466 61.314 118.07 62.0882C117.863 62.4944 117.964 63.0054 118.374 63.2449C118.751 63.4658 119.321 63.3495 119.53 62.9416C119.873 62.2706 120.306 61.839 120.858 61.2865ZM111.141 59.2643C110.38 59.7149 109.887 60.4572 109.589 61.3163C109.439 61.7475 109.759 62.241 110.179 62.3562C110.629 62.48 111.041 62.2159 111.203 61.8058L111.218 61.7657C111.298 61.5359 111.426 61.2645 111.585 61.0597C111.72 60.885 111.93 60.71 112.088 60.6518C112.469 60.5119 112.739 60.1666 112.704 59.7633C112.078 59.98 111.496 59.7194 111.141 59.2643ZM88.367 55.5868C87.5995 54.8742 86.5698 54.7797 85.6394 55.211C85.2251 55.403 85.1213 56.0004 85.3362 56.3678C85.5846 56.7928 86.0767 56.8638 86.4923 56.6711C86.3856 56.7205 86.5782 56.6552 86.6615 56.6313C86.6721 56.6363 86.8116 56.6299 86.8598 56.6306L86.9176 56.6343C86.9181 56.6346 86.9039 56.6344 86.8751 56.6334C86.9156 56.6426 86.9557 56.6535 86.9952 56.6661L87.0456 56.6836C87.0202 56.6783 87.1344 56.7527 87.1661 56.7775L87.1719 56.7822C87.9684 57.5217 89.1665 56.3289 88.367 55.5868Z" fill="black"/>
<path fill-rule="evenodd" clip-rule="evenodd" d="M149.69 120.752C150.415 119.473 152.578 119.681 152.908 121.173C153.579 124.198 149.973 126.992 147.234 127.062C144.512 127.131 141.459 124.813 141.853 121.886C141.95 121.162 142.917 121.25 143.246 121.704L143.374 121.878C144.269 123.081 145.451 124.326 147.112 124.033C147.8 123.912 148.426 123.481 148.842 122.928C149.344 122.259 149.289 121.461 149.69 120.752ZM132.383 98.6196C132.752 98.5179 133.124 98.5573 133.451 98.6963C134.181 98.8301 134.791 99.4388 135.005 100.134C135.022 100.194 135.041 100.253 135.061 100.312L135.094 100.4L135.006 100.177C135.047 100.396 135.225 100.627 135.29 100.847C135.369 101.118 135.388 101.425 135.361 101.723C135.593 101.726 135.825 101.734 136.057 101.754L136.28 101.774C137.532 101.89 138.906 102.104 139.647 103.185C140.064 103.793 139.673 104.887 138.908 105.004C137.729 105.185 136.714 104.533 135.54 104.402C134.43 104.278 133.269 104.349 132.173 104.55C129.911 104.963 127.832 105.881 125.628 106.456L125.328 106.532L125.328 106.531C124.951 106.622 124.522 106.097 124.895 105.789C126.661 104.338 128.922 103.162 131.15 102.446C130.825 101.929 130.725 101.249 130.947 100.695C130.981 100.58 131.024 100.468 131.069 100.357L131.162 100.128C131.172 100.02 131.192 99.9131 131.222 99.8085L131.227 99.7765L131.23 99.7784C131.396 99.2393 131.829 98.7726 132.383 98.6196ZM154.914 98.7031C155.397 98.2197 156.075 98.2911 156.579 98.6716L156.646 98.724C157.121 98.9351 157.515 99.3965 157.773 99.8241C158.041 100.268 158.219 100.72 158.226 101.209C159.395 101.213 160.515 101.564 161.373 102.508C161.651 102.813 161.84 103.283 161.687 103.696L161.597 103.942C161.308 104.722 160.012 105.172 159.572 104.254L159.552 104.209C159.084 103.119 157.287 103.234 156.333 103.345C155.667 103.423 155.01 103.589 154.367 103.774C154.141 103.839 153.916 103.91 153.692 103.983L153.468 104.055C153.348 104.094 152.726 104.432 153.113 104.352C153.217 104.331 153.296 104.482 153.189 104.533C152.728 104.754 152.235 104.314 152.266 103.818C152.319 102.957 153.686 102.484 154.344 102.187L154.384 102.169C154.636 102.053 154.9 101.941 155.173 101.837C155.02 101.609 154.893 101.355 154.788 101.083C154.688 100.826 154.621 100.576 154.585 100.303C154.549 100.169 154.549 100.036 154.585 99.9021L154.59 99.8638C154.572 99.7755 154.563 99.6842 154.564 99.5922L154.56 99.5565H154.564C154.577 99.2346 154.705 98.9121 154.914 98.7031ZM147.197 107.877C149.052 108.45 152.114 110.013 151.147 112.425C149.797 114.639 146.216 113.012 144.481 112.296C142.922 111.779 142.11 113.965 143.617 114.624C156.073 119.554 156.028 106.543 147.649 106.734C146.726 106.755 146.697 107.686 147.197 107.877ZM130.717 90.9122L131.033 90.8198C132.678 90.3432 134.357 89.5202 135.817 90.8043C136.391 91.3086 136.509 92.3565 136.099 92.9855C135.164 94.4186 133.778 94.1997 132.268 94.3218C131.119 94.4148 129.987 94.7526 128.914 95.1746C128.037 95.5198 127.224 96.0057 126.456 96.5476C125.702 97.0804 125.187 97.9133 124.413 98.3929C124.13 98.5687 123.802 98.3878 123.7 98.1027C123.339 97.0914 123.949 95.8315 124.465 94.9698C125.095 93.9186 126.052 93.0588 127.08 92.4083C128.207 91.6958 129.452 91.2844 130.717 90.9122ZM154.682 89.824C157.462 89.8231 160.137 91.37 161.692 93.6376C162.221 94.408 161.834 95.5492 161.075 95.9929C160.224 96.4908 159.314 96.1322 158.754 95.4187L158.721 95.3755C157.829 94.1875 156.679 93.2519 155.317 92.6428C154.652 92.3454 153.916 92.1042 153.197 91.9819L152.965 91.942C152.639 91.8874 152.261 91.8353 151.967 91.8863C151.809 91.907 151.664 91.9592 151.53 92.0387C151.595 92.1791 151.429 92.3481 151.276 92.264C150.585 91.8844 150.67 91.2073 151.24 90.681C152.047 89.9364 153.64 89.8242 154.682 89.824Z" fill="black"/>
</svg>
