<svg width="240" height="324" viewBox="0 0 240 324" fill="none" xmlns="http://www.w3.org/2000/svg">
<path fill-rule="evenodd" clip-rule="evenodd" d="M181.079 176.597C179.238 169.453 177.544 166.425 174.273 163.942C171.213 161.619 166.747 159.669 160.23 158.244C153.442 157.057 153.249 153.528 151.547 147.857C151.051 146.152 148.59 145.698 147.528 146.927C147.379 146.765 147.222 146.617 147.061 146.484C147.205 145.671 146.022 143.34 146.061 142.562C146.474 134.444 143.819 130.367 137.193 128.851C135.752 128.522 125.963 128.327 124.558 128.716C118.415 130.415 112.368 135.808 113.293 142.305C111.365 144.826 109.478 146.364 106.503 147.176C99.8828 148.017 93.2631 148.764 86.641 149.404C73.6784 151.438 61.5249 158.3 53.2182 168.309C52.4521 169.233 52.2307 170.487 52.9069 171.472C52.3772 173.741 49.3956 179.246 51.7417 180.801C47.8837 190.03 39.0072 207.868 38.9905 212.964C38.9205 234.373 41.2327 262.24 62.3546 274.087C63.2003 274.919 63.3212 275.839 63.6874 277.076C64.616 280.974 67.9885 283.759 71.6798 283.532C89.8636 283.936 107.476 281.717 125.66 281.61C133.679 281.562 143.323 282.76 150.29 283.557C157.256 284.355 164.288 283.649 170.973 281.61C171.537 282.497 172.677 283.015 173.833 282.76C180.763 281.382 186.368 277.111 191.249 272.442C192.74 269.728 198.566 261.995 196.25 259.303C198.349 250.428 198.24 240.892 194.51 232.441C195.039 230.892 194.075 229.189 194.51 227.589C194.825 226.432 195.631 225.953 196.037 224.806C196.608 223.193 195.987 221.029 195.344 219.383C195.081 218.563 195.829 217.68 196.037 216.842C197.023 212.894 194.765 213.242 193.136 210.602C193.161 210.594 193.584 208.709 193.582 208.719C193.831 207.373 193.207 205.65 192.662 204.527C192.294 203.768 191.505 203.293 190.721 203.38C191.51 200.699 192.509 198.469 193.582 195.887C195.481 191.336 197.884 186.977 200.61 182.857C201.726 181.17 200.227 179.216 198.42 179.101C192.573 178.729 186.789 177.887 181.079 176.597Z" fill="white"/>
<path fill-rule="evenodd" clip-rule="evenodd" d="M164.013 211.017C161.675 210.1 159.156 209.593 156.625 209.396C157.988 209.158 159.355 208.927 160.733 208.809C161.694 208.726 162.585 208.735 163.308 209.464C163.79 209.95 164.016 210.576 164.333 211.151C164.229 211.104 164.121 211.06 164.013 211.017ZM189.116 202.441C185.286 202.636 181.451 203.546 177.987 205.197C176.569 205.873 175.284 206.85 174.908 208.456C174.718 209.276 174.765 210.124 174.866 210.952C174.942 211.58 174.961 212.381 175.506 212.806C175.599 212.877 175.699 212.932 175.802 212.972C174.524 213.549 173.307 214.243 172.225 214.957C171.237 215.61 170.22 216.616 169.764 217.751C169.726 217.622 169.688 217.502 169.65 217.388C168.872 215.088 167.675 213.205 165.788 211.939C166.122 211.789 166.352 211.434 166.244 210.944C165.796 208.896 163.905 207.116 161.77 207.243C159.431 207.38 156.919 208.232 154.804 209.308C154.033 209.291 153.264 209.301 152.503 209.335C152.372 209.339 152.379 209.517 152.503 209.532C153.12 209.61 153.737 209.697 154.354 209.798C155.82 210.033 157.282 210.331 158.712 210.7C160.428 211.145 162.203 211.59 163.806 212.366C166.916 213.873 168.841 217.813 168.446 221.241C168.38 221.803 168.163 223.502 167.383 223.327C166.724 223.179 166.462 221.803 166.232 221.293C165.615 219.941 164.503 219.057 163.17 218.459C161.605 217.755 159.93 217.28 158.307 216.726C157.388 216.411 156.469 216.096 155.548 215.783C154.606 215.46 153.71 215.014 152.706 215.24C152.1 215.378 152.03 216.1 152.37 216.515C152.888 217.147 153.657 217.333 154.403 217.593C155.387 217.935 156.37 218.278 157.352 218.62C158.871 219.148 160.462 219.594 161.943 220.241L161.896 220.346C161.776 220.313 161.634 220.433 161.658 220.581C161.88 221.949 162.188 223.529 161.845 224.899C161.575 225.985 160.622 227.188 159.384 226.869C159.579 226.691 159.651 226.385 159.52 226.102C159.029 225.053 152.607 220.915 152.034 222.452C152.015 222.506 152.074 222.547 152.121 222.538C152.609 222.437 153.427 223.269 153.817 223.534C154.381 223.914 154.954 224.286 155.512 224.677C156.122 225.104 156.718 225.552 157.299 226.015C157.756 226.379 158.1 226.757 158.624 226.941C158.349 227.072 158.131 227.315 158.039 227.625C157.802 228.435 157.346 229.122 156.553 229.479C155.723 229.851 154.787 229.616 153.913 229.707C152.721 229.828 151.682 230.394 150.813 231.204C148.99 232.907 148.075 235.908 145.525 236.713C144.002 237.193 142.312 236.891 140.77 236.673C139.048 236.43 137.37 236.238 135.636 236.492C133.975 236.735 132.406 237.309 130.889 238.011C129.467 238.668 127.895 239.413 126.634 240.393C126.374 239.592 126.112 238.799 125.913 237.982C125.444 236.048 125.191 234.078 125.129 232.091C125.072 230.2 125.178 228.3 125.341 226.416C125.421 225.476 125.548 224.54 125.628 223.599C125.649 223.362 125.691 223.109 125.723 222.855C127.975 221.526 130.341 220.507 132.726 219.459C132.733 219.457 132.739 219.452 132.746 219.451C132.82 219.417 132.891 219.385 132.965 219.353C132.963 219.349 132.961 219.345 132.957 219.34C133.23 219.174 133.42 218.952 133.534 218.702C136.971 216.422 139.844 213.309 141.987 209.678C142.884 208.156 143.749 206.577 144.923 205.244C146.174 203.821 147.659 202.976 149.497 202.536C151.646 202.021 153.86 201.712 156.061 201.536C157.263 201.441 158.607 201.293 159.917 201.3C160.83 201.306 161.723 201.384 162.543 201.61C163.758 201.944 164.468 202.868 165.23 203.802C165.959 204.698 166.684 205.597 167.364 206.531C168.008 207.416 168.617 208.331 169.145 209.291C169.462 209.866 169.756 210.458 170.003 211.068C170.089 211.284 170.203 211.529 170.256 211.753C170.309 211.979 170.212 212.218 170.465 212.218C169.42 212.233 169.43 213.905 170.47 213.843C174.539 213.607 168.71 205.66 167.858 204.552C166.652 202.984 165.408 200.938 163.477 200.209C163.449 200.198 163.42 200.188 163.392 200.179C163.954 199.647 164.398 199.009 164.822 198.36C165.26 197.692 165.781 196.927 165.925 196.134C166.016 195.629 165.389 195.342 165.091 195.783C164.658 196.428 164.449 197.244 164.125 197.952C163.796 198.67 163.394 199.349 163.077 200.074C162.315 199.839 161.491 199.732 160.652 199.696C161.71 198.263 163.519 195.498 163.737 195.143C164.738 193.499 165.691 191.804 166.601 190.106C167.586 188.268 168.429 186.353 169.371 184.493C169.906 183.439 170.444 182.375 171.038 181.352C171.243 181.002 171.463 180.651 171.712 180.332C171.76 180.268 171.822 180.216 171.879 180.156C171.944 180.12 172.012 180.08 172.05 180.059C172.392 179.863 172.513 179.406 172.753 179.116C173.138 178.649 173.59 178.594 174.169 178.588C175.403 178.575 176.641 178.624 177.872 178.658C179.683 178.708 181.491 178.78 183.3 178.875C183.847 178.905 184.392 178.935 184.939 178.968C187.57 179.125 190.198 179.33 192.82 179.581C195.139 179.803 197.459 180.165 199.781 180.338C196.637 187.809 193.151 195.145 189.205 202.226C189.165 202.297 189.135 202.369 189.116 202.441ZM171.674 221.688C171.167 221.921 170.675 222.21 170.216 222.54C170.292 222.027 170.311 221.486 170.29 220.942C170.668 221.348 171.152 221.581 171.674 221.688ZM193.319 208.836C193.283 208.84 193.249 208.859 193.232 208.895C192.53 210.343 192.824 211.96 193.969 213.095C194.569 213.687 195.877 214.355 195.835 215.327C195.799 216.113 194.943 216.772 194.578 217.421C194.238 218.026 194.111 218.689 194.383 219.345C194.732 220.184 195.706 220.518 196.04 221.342C196.462 222.388 195.776 223.65 195.294 224.561C194.846 225.404 194.267 226.247 193.883 227.139C191.307 228.473 189.002 230.519 187.021 232.596C184.851 234.868 182.99 237.542 179.544 237.474C179.2 237.468 178.938 237.65 178.781 237.901C177.822 237.946 176.861 237.965 175.902 237.969C174.216 237.977 172.53 237.96 170.846 237.907C170.728 237.5 170.814 236.946 170.808 236.601C170.787 235.492 170.776 234.384 170.73 233.275C170.717 232.966 170.704 232.655 170.692 232.347C171.298 233.444 172.481 233.943 173.829 233.866C175.997 233.74 178.177 233.385 180.323 233.065C181.454 232.898 182.582 232.708 183.708 232.505C184.633 232.341 185.939 232.383 186.585 231.641C186.738 231.468 186.746 231.151 186.507 231.034C185.867 230.719 185.464 230.895 184.76 231.03C183.902 231.197 183.042 231.356 182.18 231.504C180.526 231.791 178.868 232.057 177.205 232.292C176.259 232.425 175.31 232.556 174.361 232.66C173.533 232.748 172.6 232.869 171.932 232.246C170.586 230.986 171.34 228.874 172.192 227.602C172.209 227.577 172.209 227.553 172.202 227.532C173.005 227.344 173.806 227.124 174.604 226.97C176.14 226.674 177.687 226.425 179.235 226.203C182.417 225.749 185.62 225.448 188.818 225.146C189.611 225.07 189.619 223.823 188.818 223.897C184.223 224.318 179.605 224.717 175.071 225.603C173.935 225.822 172.806 226.072 171.685 226.353C171.154 226.484 170.586 226.689 170.03 226.696C169.997 226.696 169.963 226.696 169.929 226.693C168.841 226.66 168.683 225.728 169.28 224.952C169.354 224.857 169.43 224.761 169.509 224.671C170.565 223.411 171.881 222.57 173.237 221.699C174.757 221.492 176.271 221.031 177.759 220.693C181.43 219.856 185.102 219.019 188.776 218.184C189.496 218.019 189.19 216.912 188.47 217.075C185.681 217.707 182.892 218.339 180.104 218.97L176.022 219.896C175.207 220.08 174.188 220.45 173.229 220.583C172.756 220.649 172.297 220.657 171.883 220.56C170.546 220.243 170.478 218.571 171.055 217.578C171.702 216.462 172.923 215.764 174.007 215.132C175.885 214.035 177.883 213.247 179.835 212.338C180.182 212.262 180.528 212.186 180.875 212.11C182.89 211.666 185.193 211.449 187.09 210.635C187.659 210.394 187.348 209.498 186.786 209.51C185.314 209.542 183.773 210.066 182.335 210.377C180.778 210.715 179.219 211.051 177.661 211.387C177.505 211.421 176.58 211.717 176.44 211.651C176.352 211.609 176.32 211.301 176.29 211.098C176.195 210.43 176.126 209.728 176.229 209.058C176.457 207.555 177.71 206.85 178.978 206.273C181.8 204.99 184.895 204.187 187.976 203.865C188.685 203.791 189.395 203.745 190.109 203.722C190.948 203.696 191.639 203.548 192.064 204.375C192.731 205.677 193.099 207.351 193.319 208.836ZM189.398 256.04C188.783 253.912 188.951 251.64 188.529 249.47C188.312 248.35 188.015 247.239 187.691 246.146C187.43 245.263 186.993 244.324 186.944 243.403C186.941 243.341 187.013 243.306 187.063 243.334C187.931 243.831 188.597 244.906 189.092 245.749C189.684 246.758 190.137 247.815 190.502 248.926C191.229 251.14 191.826 253.81 190.888 256.04C190.609 256.704 189.629 256.837 189.398 256.04ZM170.392 227.856C170.912 227.805 171.431 227.706 171.951 227.589C171.37 228.156 170.833 228.838 170.535 229.595C170.489 229.014 170.43 228.435 170.352 227.858C170.364 227.858 170.379 227.858 170.392 227.856ZM165.397 272.149C164.481 271.509 163.813 270.614 163.035 269.825C162.271 269.049 163.466 267.853 164.231 268.63C164.894 269.303 165.469 270.144 166.25 270.689C166.625 270.95 166.799 271.424 166.553 271.845C166.336 272.217 165.772 272.41 165.397 272.149ZM160.286 247.559C161.959 246.835 163.604 246.047 165.355 245.526C166.402 245.214 166.845 246.846 165.805 247.156C164.192 247.636 162.68 248.352 161.139 249.018C160.15 249.446 159.29 247.989 160.286 247.559ZM142.617 247.052C142.208 246.042 143.844 245.607 144.247 246.603C144.711 247.749 145.243 248.865 145.707 250.011C146.116 251.021 144.481 251.457 144.078 250.461C143.614 249.315 143.081 248.198 142.617 247.052ZM125.178 267.219C124.906 267.583 124.452 267.78 124.022 267.523C123.663 267.307 123.443 266.734 123.719 266.366C124.525 265.292 125.341 264.231 126.285 263.273C127.05 262.497 128.245 263.693 127.48 264.469C126.637 265.324 125.898 266.26 125.178 267.219ZM122.685 154.064C123.461 154.594 124.14 155.238 124.803 155.901C125.574 156.671 124.378 157.866 123.608 157.096C123.049 156.538 122.486 155.971 121.832 155.524C121.454 155.266 121.284 154.785 121.529 154.367C121.748 153.993 122.308 153.807 122.685 154.064ZM148.056 181.273C147.618 182.151 147.223 183.012 147.198 184.011C147.171 185.099 145.481 185.099 145.508 184.011C145.54 182.704 146.022 181.571 146.597 180.419C147.083 179.444 148.54 180.302 148.056 181.273ZM157.365 159.42C158.274 158.815 159.119 160.28 158.218 160.88C157.488 161.367 156.758 161.854 156.028 162.341C155.12 162.947 154.274 161.482 155.175 160.881C155.905 160.394 156.635 159.907 157.365 159.42ZM116.989 197.627C116.834 198.701 115.205 198.242 115.359 197.178C115.597 195.533 115.887 193.91 116.333 192.308C116.625 191.259 118.254 191.708 117.962 192.757C117.516 194.359 117.226 195.982 116.989 197.627ZM111.063 216.995C109.975 216.972 109.975 215.281 111.063 215.304C112.048 215.325 113.015 215.584 113.965 215.821C115.021 216.085 114.571 217.716 113.516 217.452C112.713 217.251 111.895 217.013 111.063 216.995ZM108.876 256.01C108.502 256.192 108.118 256.356 107.741 256.529C106.984 256.875 106.228 257.221 105.472 257.569C103.897 258.292 102.323 259.017 100.751 259.746C97.6029 261.203 94.4307 262.61 91.2752 264.051C88.0574 265.522 84.848 267.012 81.6427 268.51C80.1326 269.215 78.611 269.894 77.0924 270.581C75.794 271.169 74.189 272.195 72.7635 272.292C72.6902 272.297 72.6657 272.204 72.7076 272.156C73.2461 271.544 74.1051 271.187 74.8128 270.789C75.5358 270.382 76.2723 269.999 77.0054 269.611C78.5337 268.801 80.0639 267.997 81.607 267.216C84.6936 265.653 87.7861 264.102 90.8793 262.553C94.034 260.972 97.1846 259.381 100.367 257.857C101.865 257.14 103.365 256.424 104.866 255.711C105.679 255.325 106.492 254.939 107.305 254.554C107.657 254.387 108.004 254.208 108.364 254.059C108.841 253.862 109.204 253.902 109.696 253.78C110.499 253.582 110.846 254.603 110.23 255.048C109.722 255.414 109.455 255.727 108.876 256.01ZM97.5922 273.348C97.4187 272.926 97.7819 272.413 98.1824 272.307C98.6622 272.181 99.0469 272.473 99.2221 272.898C99.6854 274.026 100.345 275.06 101.195 275.934C101.954 276.715 100.76 277.911 99.9998 277.129C98.9352 276.034 98.1704 274.754 97.5922 273.348ZM89.2913 246.208C88.5208 245.437 89.7162 244.242 90.4864 245.012L92.6768 247.203C93.4473 247.974 92.2518 249.17 91.4817 248.399L89.2913 246.208ZM66.8187 242.635C65.2439 243.097 63.4072 243.522 62.3335 244.866C62.2811 244.932 62.193 244.848 62.2245 244.782C63.599 241.931 67.5408 240.932 70.27 239.933C72.2003 239.226 74.181 238.641 76.1783 238.117C75.9786 235.838 76.5292 233.395 76.7206 231.127C76.9249 228.705 77.0912 226.277 77.1765 223.848C77.2638 221.37 77.2849 218.875 77.2034 216.396C77.1222 213.926 76.8017 211.487 76.6615 209.026C76.6479 208.788 76.9792 208.776 77.0506 208.973C77.88 211.257 78.2343 213.787 78.5043 216.196C78.7824 218.677 78.8747 221.15 78.8392 223.646C78.8024 226.212 78.6533 228.771 78.4486 231.329C78.3516 232.541 78.239 233.752 78.1327 234.963C78.0516 235.888 78.014 236.805 77.8255 237.7C79.0302 237.404 80.2376 237.124 81.4412 236.852C85.2791 235.986 89.133 235.182 92.9548 234.245C94.8309 233.785 96.6801 233.235 98.5477 232.746C100.306 232.285 102.163 231.727 103.968 231.521C104.612 231.448 104.694 232.329 104.268 232.629C102.8 233.659 100.851 234.377 99.1564 234.954C97.4553 235.533 95.6869 235.95 93.9434 236.378C90.3072 237.273 86.6367 238.005 82.9716 238.766C79.3116 239.528 75.6446 240.283 72.0258 241.222C70.2831 241.674 68.5462 242.128 66.8187 242.635ZM58.1892 197.402C57.2482 197.954 56.3987 196.492 57.3363 195.942C58.5631 195.221 59.8707 194.68 61.1888 194.152C62.2003 193.747 62.6355 195.383 61.6381 195.783C60.4535 196.257 59.2916 196.754 58.1892 197.402ZM54.7816 260.218C53.8381 260.765 52.988 259.304 53.9288 258.758C55.25 257.992 56.697 257.481 58.0662 256.81C59.0404 256.333 59.896 257.792 58.9191 258.27C57.5501 258.941 56.1029 259.452 54.7816 260.218ZM53.2492 224.56C54.1614 225.427 55.379 225.836 56.527 226.291C57.528 226.688 57.089 228.322 56.0776 227.921C54.6474 227.354 53.1905 226.836 52.054 225.756C51.2635 225.005 52.4607 223.811 53.2492 224.56ZM63.3417 176.135C64.3446 176.528 63.9053 178.163 62.8923 177.765C61.7688 177.325 60.6085 176.989 59.485 176.548C58.4823 176.155 58.9213 174.52 59.9344 174.918C61.0579 175.358 62.2182 175.694 63.3417 176.135ZM81.1457 156.9C82.2114 156.721 82.6652 158.35 81.5951 158.531C80.2675 158.755 78.9602 159.017 77.701 159.505C76.6842 159.898 76.2479 158.263 77.2516 157.874C78.511 157.387 79.8183 157.125 81.1457 156.9ZM87.0285 203.732C86.0514 203.251 86.9088 201.794 87.8814 202.272C88.9065 202.776 89.9685 203.166 91.087 203.404C92.152 203.631 91.6984 205.261 90.6376 205.035C89.3789 204.766 88.1812 204.299 87.0285 203.732ZM92.5849 177.352C93.637 177.064 94.0819 178.695 93.0342 178.983C91.1909 179.488 89.2931 179.751 87.4363 180.2C86.378 180.456 85.9304 178.826 86.9869 178.57C88.8437 178.12 90.7418 177.858 92.5849 177.352ZM116.155 169.074C117.225 169.272 116.769 170.901 115.706 170.705C114.574 170.495 113.427 170.492 112.28 170.491C111.19 170.491 111.192 168.8 112.28 168.8C113.583 168.801 114.87 168.836 116.155 169.074ZM193.027 177.907C190.266 177.643 187.5 177.432 184.73 177.273C184.601 177.267 184.475 177.259 184.346 177.252C184.331 177.223 184.312 177.195 184.293 177.165C183.389 175.838 182.723 174.511 182.147 173.01C181.595 171.582 181.061 170.109 180.211 168.819C179.243 167.351 177.935 166.201 176.502 165.205C175.632 165.79 174.826 166.475 174.087 167.2C173.311 167.964 172.115 166.769 172.892 166.005C173.548 165.36 174.248 164.764 174.988 164.226C174.134 163.706 173.262 163.218 172.411 162.732C169.223 160.913 165.959 159.23 162.628 157.692C161.079 156.975 159.511 156.339 157.933 155.694C157.084 155.348 156.245 154.902 155.396 154.5C155.457 153.9 155.278 153.228 154.817 152.833C154.477 152.543 154.213 152.435 153.807 152.231C153.716 152.199 153.661 152.18 153.636 152.169C153.655 152.173 153.71 152.19 153.801 152.22C154.016 152.319 154.033 152.29 153.851 152.133C153.841 151.791 153.167 151.068 153.013 150.715C152.476 149.504 152.309 148.223 151.517 147.12C150.425 145.6 148.591 145.026 146.882 145.541C146.704 143.713 146.658 141.805 145.969 140.173C145.95 140.129 145.889 140.109 145.861 140.158C145.143 141.382 145.082 142.745 145.027 144.157C144.974 145.482 145.025 146.837 145.198 148.153C145.088 148.238 144.976 148.318 144.86 148.396C144.315 148.756 143.728 149.033 143.111 149.238C141.936 149.626 140.704 149.796 139.473 149.855C136.293 150.007 133.016 149.686 129.89 149.14C126.727 148.589 121.878 147.76 119.064 146.177C117.207 145.133 115.494 143.859 113.757 142.624C114.387 140.595 114.547 138.414 113.913 136.7C113.837 136.495 113.516 136.457 113.455 136.7C113.058 138.336 112.942 139.98 112.413 141.597C112.405 141.621 112.397 141.646 112.388 141.669C112.223 141.557 112.059 141.447 111.894 141.337C111.513 141.086 110.996 141.274 110.768 141.633C107.119 147.384 101.341 147.714 95.2733 148.741C88.633 149.865 81.9592 151.078 75.5747 153.279C69.4691 155.384 63.6339 158.448 59.0114 163.026C57.9649 164.063 56.9864 165.167 56.0627 166.32C56.9564 166.433 57.8426 166.608 58.7175 166.883C59.7533 167.209 59.3082 168.84 58.2681 168.513C57.1438 168.16 56.0069 167.985 54.8585 167.898C51.7176 172.197 49.2685 177.071 47.1508 181.868C43.0888 191.066 40.4447 200.862 39.228 210.835C39.8961 210.434 40.5761 210.053 41.2731 209.698C42.2416 209.205 43.0957 210.664 42.1262 211.158C41.0496 211.706 40.0038 212.31 38.9906 212.964C38.548 217.33 38.3764 221.723 38.4804 226.11C38.7276 236.568 40.1388 247.332 43.3311 257.309C44.8966 262.206 46.9712 267.063 50.0621 271.202C51.4607 273.076 53.0494 274.767 54.9212 276.177C55.8276 276.861 56.7867 277.472 57.7987 277.988C59.1022 278.656 60.8008 278.876 61.9247 279.82C62.2945 280.131 62.5797 280.541 62.7952 281.004C62.6705 281.883 62.6557 282.764 62.8966 283.644C62.9726 283.919 63.1797 284.142 63.4353 284.25C63.4395 284.326 63.4395 284.4 63.4395 284.472C63.4395 284.506 63.4902 284.514 63.4966 284.481C63.5071 284.415 63.5177 284.35 63.5283 284.282C63.6107 284.309 63.6973 284.322 63.786 284.322C66.9952 284.334 70.2083 284.256 73.4217 284.147C73.1733 283.386 72.9041 282.631 72.6457 281.869C72.2948 280.835 73.9277 280.395 74.2754 281.42C74.5778 282.31 74.8938 283.192 75.175 284.086C78.618 283.958 82.06 283.804 85.4959 283.69C92.8036 283.447 100.109 283.367 107.419 283.213C118.771 282.972 130.205 282.479 141.574 282.961C141.967 282.126 142.407 281.311 142.824 280.487C143.317 279.516 144.774 280.372 144.284 281.341C143.994 281.913 143.693 282.478 143.408 283.049C145.711 283.169 148.011 283.327 150.306 283.542C154.223 283.91 158.102 284.563 162.015 284.969C165.993 285.383 169.885 285.309 173.831 284.652C174.541 284.534 174.959 284.104 175.132 283.572C175.139 283.57 175.143 283.566 175.147 283.559C175.35 283.322 175.54 283.126 175.736 282.955C175.971 282.803 176.225 282.674 176.523 282.559C177.078 282.348 177.657 282.219 178.244 282.133C178.891 282.036 179.546 282.027 180.192 281.947C180.737 281.877 181.27 281.773 181.802 281.647C182.759 281.418 183.668 281.12 184.572 280.725C185.36 280.381 186.072 279.886 186.744 279.347C188.134 278.33 189.338 277.033 190.39 275.684C191.003 274.896 191.58 274.078 192.104 273.226C193.016 271.751 193.794 270.219 194.58 268.674C194.865 268.216 195.125 267.747 195.363 267.268C193.827 266.816 192.276 266.447 190.648 266.421C189.56 266.403 189.56 264.712 190.648 264.73C192.516 264.76 194.282 265.196 196.037 265.716C196.123 265.489 196.205 265.26 196.28 265.028C196.49 264.544 196.663 264.047 196.806 263.544C196.891 263.316 196.975 263.088 197.06 262.86C197.25 262.069 197.44 261.276 197.632 260.484C198.015 259.216 198.317 257.929 198.539 256.625C198.725 255.767 198.868 254.902 198.966 254.027C199.261 251.907 199.502 249.792 199.519 247.649C199.494 246.328 199.409 245.009 199.266 243.696C199.204 242.804 199.101 241.917 198.961 241.035C198.78 239.725 198.6 238.428 198.298 237.134C198.072 236.259 197.846 235.384 197.62 234.509C197.056 232.685 196.39 230.897 195.623 229.149C195.581 229.039 195.367 228.798 195.239 228.796C195.142 228.794 195.006 228.883 195.051 229.001C195.055 229.012 195.059 229.024 195.063 229.035C195.019 228.936 194.977 228.834 194.932 228.735C194.894 228.642 194.747 228.456 194.632 228.458C194.626 228.458 194.62 228.458 194.611 228.46C194.641 228.439 194.668 228.412 194.696 228.38C195.454 227.482 195.947 226.3 196.49 225.26C196.94 224.402 197.364 223.498 197.487 222.528C197.594 221.676 197.449 220.837 196.914 220.148C196.306 219.364 195.161 218.996 195.797 217.863C196.519 216.574 197.582 215.456 196.523 213.991C195.985 213.245 195.131 212.835 194.497 212.186C193.768 211.436 193.422 210.432 193.441 209.407C193.485 209.432 193.544 209.42 193.566 209.356C194.178 207.505 193.735 205.472 193.107 203.669C192.765 202.69 192.04 202.422 191.197 202.373C194.848 195.24 198.264 187.993 201.309 180.579C201.41 180.336 201.509 180.093 201.608 179.85C201.756 179.486 201.444 179.002 201.082 178.922C198.45 178.345 195.708 178.161 193.027 177.907Z" fill="black"/>
<path fill-rule="evenodd" clip-rule="evenodd" d="M111.129 50.5837L112.954 52.7546C111.944 53.4669 110.99 54.1827 110.093 54.9018L110.092 54.8996C114.248 52.1871 118.85 50.5837 123.822 50.5837C133.399 50.5837 152.85 58.8131 157.248 64.7489C159.43 67.6946 163.485 76.7378 165.589 86.5694C167.279 94.4689 169.793 116.786 167.279 125.172C164.062 135.904 153.477 145.824 142.563 145.824C131.649 145.824 114.704 137.941 102.644 120.667C102.093 119.877 95.7605 118.962 91.243 115.997L92.4291 129.069L93.3305 136.673L93.1316 137.214C89.8962 145.967 87.3323 150.534 85.44 150.914C83.5091 151.302 79.5767 148.135 73.6429 141.415L72.8847 138.231C70.9589 130.11 69.996 125.75 69.996 125.153L69.9973 125.044C70.0257 123.67 70.499 115.89 70.5088 113.797L70.5089 82.4188C76.8905 61.1954 82.9803 50.5837 88.7783 50.5837H111.129Z" fill="white"/>
<path fill-rule="evenodd" clip-rule="evenodd" d="M96.0084 43.356C97.8847 42.6289 100.058 42.7663 101.839 43.8611C105.336 43.7111 108.814 45.7569 110.637 48.7433C110.675 48.7856 110.715 48.8278 110.751 48.8701L111.137 49.3206C111.503 49.7508 111.889 50.225 112.195 50.7146C110.697 50.7488 109.45 51.3594 108.579 52.5926C107.958 53.4726 109.381 54.3088 110.016 53.4765L110.038 53.4461C110.561 52.7057 111.35 52.4189 112.229 52.4039C112.481 52.3997 112.673 52.3031 112.808 52.1606C112.862 52.357 112.91 52.5554 112.954 52.7547C117.379 51.0333 122.148 50.5774 126.898 50.9857C126.69 51.323 126.516 51.6845 126.382 52.0643C126.23 52.4948 126.554 52.9891 126.972 53.1041C127.425 53.2284 127.833 52.9633 127.997 52.5537L128.012 52.5136C128.194 51.9962 128.493 51.5522 128.893 51.2079C131.129 51.5111 133.349 51.9935 135.515 52.6152C138.119 53.3632 140.698 54.276 143.22 55.3212C142.793 55.4888 142.424 55.772 142.165 56.2448C141.649 57.1885 143.068 58.0338 143.606 57.1316L143.625 57.0982C143.678 57.0014 143.724 56.9433 143.759 56.9102L143.771 56.8989L143.845 56.8647L143.984 56.8249L144.037 56.8119C144.084 56.8013 144.103 56.8019 144.227 56.7951C144.391 56.7858 144.556 56.7867 144.72 56.7865C145.107 56.7862 145.354 56.5705 145.466 56.2944C146.711 56.8564 147.939 57.4482 149.146 58.0681L149.433 58.2167C153.159 60.164 156.688 62.7213 158.736 66.4841C158.871 66.7356 158.913 67.0103 158.88 67.2724C159.317 67.7965 159.739 68.3376 160.145 68.8871C161.383 70.5695 162.289 72.4822 163.147 74.378C164.873 78.1907 166.035 82.1071 166.942 86.1904C167.818 90.1257 168.526 94.1033 169.183 98.0809C169.912 102.5 170.518 106.958 170.645 111.44C170.869 119.432 169.308 127.469 164.822 134.196C160.821 140.199 154.796 144.965 147.651 146.491C140.383 148.042 132.693 146.529 126.966 141.685C126.042 140.905 126.169 139.33 126.966 138.531C127.868 137.631 129.199 137.756 130.118 138.531C135.511 143.094 143.362 143.798 149.861 141.473C155.869 139.322 160.576 134.359 163.464 128.786C166.988 121.989 167.582 114.182 167.041 106.662C166.745 102.532 166.13 98.436 165.496 94.3464L165.114 91.8846C164.696 89.2182 164.258 86.5555 163.686 83.9162L163.552 83.3013C162.853 80.1186 162.034 76.8543 160.768 73.8623C160.105 72.292 159.307 70.7787 158.489 69.2844C158.33 68.9949 158.168 68.7011 158.001 68.4052C157.777 68.4834 157.521 68.4961 157.253 68.4116C154.944 67.693 152.571 67.2111 150.157 67.0505C149.056 66.9769 147.955 66.9655 146.854 67.0084C144.97 66.8987 143.034 67.0644 141.239 67.6423C141.064 67.4916 140.886 67.344 140.708 67.1965C140.66 67.1927 140.612 67.1876 140.564 67.1781C140.106 67.0881 139.784 66.7626 139.59 66.3515C139.58 66.3298 139.571 66.308 139.562 66.2862C139.332 66.1106 139.101 65.9377 138.867 65.7672C138.298 65.9149 137.799 65.4408 137.664 64.9213C137.538 64.8357 137.409 64.7529 137.281 64.669C137.18 64.6935 137.081 64.7138 136.983 64.721C136.564 64.7512 136.159 64.6869 135.787 64.4868C135.317 64.2334 135.016 63.8246 134.815 63.3603C134.104 63.404 133.384 63.173 132.747 62.7554C132.231 62.4166 131.836 61.9489 131.442 61.482C126.651 59.3442 121.443 58.082 116.223 57.7587C115.708 57.8576 115.198 57.9753 114.694 58.1123C114.574 58.1448 114.405 58.2086 114.21 58.2851C115.374 58.1444 116.553 58.1304 117.748 58.3027C123.421 59.1234 127.84 63.3728 131.643 67.384C132.548 67.2012 133.462 68.3731 132.625 69.1492L126.097 75.2003C126.258 75.8771 125.482 76.5441 124.802 76.3816C123.663 76.1077 122.521 75.8414 121.379 75.5795C120.187 76.1563 118.689 76.0576 117.608 75.2215C117.558 75.1826 117.449 75.1205 117.354 75.0587C117.265 75.1321 117.146 75.2056 117.098 75.2369C116.714 75.4914 116.246 75.5662 115.797 75.4948C115.335 75.4214 114.918 75.187 114.559 74.8952C114.33 74.7092 113.797 73.9335 113.5 73.8763L113.471 73.8731C113.669 73.8788 113.033 74.4703 112.862 74.5927C112.463 74.8774 112.022 75.027 111.526 74.9725C110.661 74.8773 109.917 74.0888 109.494 73.3606L109.463 73.3047L109.449 73.2701L109.438 73.3076C109.436 73.3142 109.434 73.3213 109.431 73.3293C109.367 73.5007 109.168 73.6955 109.033 73.8154C108.648 74.1563 108.171 74.3061 107.661 74.2171C107.23 74.1421 106.867 73.8814 106.576 73.5659L106.53 73.5157C106.444 73.4183 105.876 72.6546 105.965 72.4716L105.976 72.4562L105.948 72.4503C105.602 72.5352 105.312 72.45 105.099 72.2719C103.913 72.0119 102.743 71.7091 101.609 71.324C101.521 71.5734 101.434 71.8228 101.349 72.0743C101.968 72.4568 102.541 73.0021 103.067 73.391C104.064 74.1265 105.061 74.862 106.056 75.5996L109.999 78.509L110.45 78.3879C111.026 78.2332 111.52 78.5687 111.732 79.0816L111.749 79.126C111.833 79.3506 111.934 79.5584 112.053 79.7573C113.038 79.718 113.873 80.3233 114.143 81.1915C114.386 81.186 114.632 81.1953 114.883 81.223C115.572 81.2986 116.036 81.8101 115.911 82.5124L115.902 82.5606L115.885 82.6388C116.284 82.8083 116.574 83.1357 116.638 83.6307C116.745 83.7915 116.831 83.9665 116.886 84.1614C117.174 85.1725 116.614 86.4224 116.315 87.391L116.292 87.4669C116.101 88.1035 115.903 88.737 115.702 89.3703L115.203 90.9425C113.818 95.3242 112.467 99.9441 113.588 104.538C113.827 105.51 112.584 105.949 112.046 105.189C110.74 103.347 109.329 101.611 107.847 99.9444L107.775 99.933C106.738 99.7244 106.335 98.9912 105.859 98.2439C105.578 98.3265 105.276 98.346 104.985 98.2897C104.563 98.2084 104.184 97.9672 103.886 97.6627C103.633 97.4044 103.401 96.742 103.102 96.5778C102.728 96.3726 101.977 96.6659 101.53 96.6C101.167 96.5465 100.828 96.4218 100.499 96.2652C99.8943 97.0897 99.4935 98.0589 99.3953 99.1039C99.357 99.5012 99.2387 99.8372 99.0676 100.116C99.6972 100.093 100.329 100.137 100.952 100.254C103.259 100.683 104.914 102.107 105.843 104.229C105.883 104.322 105.763 104.398 105.708 104.309C104.328 102.185 101.326 102.078 99.1457 102.826C96.8303 103.62 95.531 105.66 95.0685 107.987C94.5615 110.538 95.2119 113.288 96.6002 115.46C97.2443 116.471 98.1234 117.392 99.2915 117.764C100.68 118.206 101.962 117.415 103.384 117.823C104.351 118.1 104.778 119.036 104.603 119.973C104.533 120.34 104.404 120.662 104.231 120.941C104.742 121.955 105.215 122.999 105.818 123.959C106.747 125.44 107.871 126.666 109.096 127.902C110.362 129.179 111.651 130.43 113.005 131.614C114.302 132.749 115.79 133.556 117.15 134.596C118.105 135.325 118.578 136.348 118.107 137.519C117.718 138.487 116.408 139.311 115.348 138.874C113.318 138.037 111.541 136.612 109.923 135.145C108.423 133.784 107.117 132.157 106.13 130.39C105.2 128.724 104.514 126.833 103.935 125.01L103.863 124.783C103.591 123.916 103.304 122.942 103.118 121.959C102.004 122.568 100.494 122.657 99.3023 122.492C97.3774 122.228 95.6218 121.258 94.295 119.844C93.6767 119.186 93.1301 118.435 92.6581 117.622C92.701 118.117 92.7266 118.596 92.7541 119.032C93.8571 120.241 94.2995 121.985 93.908 123.576C94.8308 124.526 95.0894 125.953 94.6077 127.167C95.6178 128.169 95.5798 129.764 95.1431 131.212C96.3372 132.548 96.4502 134.627 95.5179 136.134L95.4898 136.242C96.4312 137.818 96.2188 139.855 95.0393 141.246C95.8449 142.809 95.7203 144.912 93.7071 145.518C92.9734 145.739 92.2622 145.551 91.73 145.139C92.216 147.557 92.4334 150.011 91.7854 152.44C91.5274 153.404 90.5852 154.108 89.5943 154.108C88.7662 154.108 88.1641 153.691 87.7481 153.078C87.7967 154.298 87.7227 155.524 87.4629 156.76C87.3061 157.507 86.6138 158.089 85.8788 158.269C86.1439 158.569 86.2496 159.001 85.9954 159.452C84.9177 161.36 82.3138 160.569 82.1379 158.74C81.4024 158.191 81.0606 157.289 80.9191 156.315C80.7129 154.895 80.6381 153.497 80.4044 152.095L80.3151 152.178L80.269 152.218L80.2542 152.32C80.1203 153.013 79.7294 153.498 79.2222 153.788C79.3324 154.997 79.1284 156.229 78.3615 157.147C77.8506 157.759 76.9804 158 76.2344 157.867C76.1875 157.87 76.1396 157.87 76.0897 157.863C74.4002 157.638 73.4227 156.035 73.8674 154.564C73.1871 153.73 72.9006 152.672 73.1019 151.626C71.7855 150.754 71.8124 148.839 72.2683 147.3C70.8883 146.211 70.3692 144.174 71.0626 142.555C69.8189 141.01 69.6458 138.857 70.4909 137.097C69.1225 135.973 69.1303 133.801 70.4875 132.651C69.7648 131.216 69.3289 129.496 70.0512 128.183C69.5417 127.62 69.2619 126.818 69.3209 126.043C69.4073 124.906 70.1598 124.119 71.0936 123.595L71.1583 123.239C71.3776 123.267 71.6112 123.205 71.8172 123.008C72.0211 122.812 72.2309 122.654 72.4479 122.524C72.6936 122.52 72.905 122.411 73.0538 122.242C73.4607 122.104 73.8982 122.043 74.3835 122.038C75.4316 122.026 75.4686 120.458 74.4931 120.357C74.3391 120.201 74.127 120.103 73.8969 120.103L73.7168 120.104C73.2956 120.108 72.8703 120.134 72.4796 120.302C72.2256 120.41 72.0298 120.574 71.8863 120.774C71.8595 121.078 71.6947 121.38 71.3379 121.629C70.9257 121.918 70.362 121.951 69.9209 121.69C69.3034 121.325 69.297 120.755 69.3682 120.136C69.5241 118.78 68.745 117.504 68.9305 116.117C69.0127 115.504 69.2167 114.975 69.5495 114.547C68.8479 113.497 68.7241 112.14 69.2643 110.987C68.1389 109.776 67.9443 107.909 68.6619 106.451C68.6723 106.416 68.6803 106.38 68.6915 106.345C68.7727 106.097 68.8844 105.874 69.0076 105.66C68.3776 104.568 68.3822 103.228 69.0226 102.141C68.0527 101.01 68.0218 99.21 68.8844 97.9913C68.8895 97.8903 68.9 97.7893 68.9087 97.6882C68.5128 96.66 68.6079 95.491 69.11 94.5349C68.9309 94.1217 68.7927 93.6768 68.7044 93.203C68.4781 91.9813 68.5946 90.7936 68.9326 89.6015C68.9873 89.4134 69.0486 89.2253 69.1141 89.0372C69.125 88.2208 69.1561 87.4079 69.1971 86.5966C69.0364 85.9097 69.0105 85.1549 69.007 84.4542L69.006 83.9998C68.9981 82.8435 68.9176 81.1504 69.6484 80.1675C69.1791 79.1057 69.372 77.7678 70.1552 76.9262C69.6055 75.9804 69.4901 74.8191 70.0426 73.7697C70.1313 73.6008 70.2342 73.4436 70.347 73.2948C70.3014 72.3338 70.5036 71.3428 71.0155 70.3877C71.348 69.7659 71.8447 69.2276 72.4352 68.7969C72.4253 68.6694 72.4191 68.5422 72.4212 68.4168C72.4316 67.8576 72.5556 67.2961 72.7643 66.7721C72.3898 66.1326 72.2161 65.4117 72.4352 64.6347C72.6803 63.7555 73.3248 62.9989 74.1296 62.572C74.1944 61.743 74.3239 60.919 74.509 60.1059C74.0144 59.0042 74.4082 57.5501 75.526 56.901C75.3803 56.0205 75.5117 55.1075 76.1522 54.4198C76.395 54.1592 76.681 53.9615 76.9889 53.8305C76.8405 52.9452 77.0079 52.0241 77.6199 51.3032C78.1198 50.7146 78.8605 50.357 79.6143 50.3043C79.9046 48.7644 81.3752 47.613 82.9267 47.7047C83.1207 47.0267 83.584 46.4356 84.3027 46.1359C84.4867 46.0592 84.6727 46.0086 84.8579 45.9805C86.1196 44.7074 87.998 43.8444 89.6241 43.4025C91.2553 42.961 92.9087 42.9182 94.3092 43.4316L94.4112 43.4701L94.5253 43.4553C95.0199 43.4004 95.5141 43.3687 96.0084 43.356ZM83.6135 147.707C83.1779 147.571 82.692 147.868 82.5739 148.298C82.4492 148.752 82.7269 149.201 83.1642 149.338C83.709 149.508 84.2814 149.55 84.8492 149.55C85.3058 149.551 85.6943 149.162 85.6943 148.705C85.6943 148.246 85.3075 147.86 84.8492 147.86C84.3874 147.859 84.0464 147.842 83.6135 147.707ZM79.738 138.729C79.0866 138.73 78.528 138.885 78.0451 139.342C77.7231 139.647 77.7151 140.235 78.0451 140.538C78.3784 140.844 78.862 140.862 79.2041 140.57L79.27 140.511C79.2779 140.504 79.2841 140.498 79.289 140.493C79.3165 140.476 79.3442 140.457 79.3733 140.442L79.3182 140.478C79.2762 140.509 79.3736 140.459 79.4282 140.436L79.4454 140.429L79.4508 140.427L79.4946 140.424C79.5755 140.42 79.6568 140.42 79.738 140.42C80.1799 140.42 80.6033 140.032 80.583 139.575C80.5623 139.117 80.2116 138.729 79.738 138.729ZM92.0289 133.366C92.9436 132.804 92.1266 131.369 91.2092 131.886L91.176 131.906C90.7057 132.194 90.1273 132.155 89.5945 132.155C88.5071 132.156 88.5052 133.847 89.5945 133.846L89.7745 133.846C90.5556 133.84 91.3456 133.785 92.0289 133.366ZM84.8306 127.194C84.1395 127.064 83.3654 126.948 82.6382 127.027L82.5175 127.042H82.2937C82.0994 127.042 81.9111 127.121 81.7601 127.244C81.5209 127.343 81.2944 127.476 81.0878 127.655C80.2645 128.369 81.4643 129.561 82.2829 128.851C82.3284 128.811 82.3812 128.779 82.4398 128.752L82.4849 128.733H83.3889C83.4711 128.733 83.5512 128.716 83.6291 128.691C83.9226 128.732 84.196 128.79 84.3813 128.825C85.4444 129.025 85.8999 127.396 84.8306 127.194ZM84.0588 110.967C82.7342 110.352 81.2671 110.357 80.042 111.21C79.1659 111.821 79.9797 113.26 80.8633 112.691L80.8949 112.67C81.0047 112.594 81.1175 112.53 81.2316 112.472C81.8536 112.651 82.4796 112.66 83.0809 112.439L83.1592 112.409L83.2059 112.427C84.1862 112.882 85.0456 111.425 84.0588 110.967ZM98.483 108.318C97.1448 108.168 97.134 106.053 98.483 106.204C101.331 106.524 103.915 107.79 105.808 109.966C106.688 110.977 105.239 112.457 104.342 111.491L104.314 111.46C102.809 109.73 100.778 108.575 98.483 108.318ZM83.4917 97.4602C83.1942 97.4276 82.8974 97.4114 82.6052 97.4255C81.9033 97.4593 81.0486 97.9277 81.3566 98.7739C81.6036 99.452 82.4131 99.4788 82.8129 99.1172C82.9791 99.1212 83.1452 99.1322 83.3106 99.1491C83.7519 99.1945 84.1891 99.2786 84.6241 99.3644C85.6865 99.5735 86.1414 97.9442 85.0734 97.7339L84.601 97.6404C84.4419 97.6092 84.2813 97.5787 84.12 97.5508C84.0234 97.5028 83.9199 97.4705 83.8093 97.4623L83.7534 97.4602H83.4917ZM75.0947 84.3427L74.9955 84.3293C73.5683 84.1466 71.2775 84.3147 71.1043 86.132C71.0086 87.1385 72.4621 87.2017 72.749 86.341C73.8028 86.151 74.8653 86.1147 75.9119 86.2301C76.3112 85.8243 76.3144 85.0442 75.6497 84.8495C75.5559 84.5972 75.3601 84.381 75.0947 84.3427ZM107.716 81.2733C107.386 80.9704 106.845 80.9303 106.521 81.2733C106.334 81.4707 106.178 81.6901 106.054 81.9314L105.972 82.0944C105.958 82.1215 105.944 82.1483 105.929 82.1749C105.901 82.2241 105.87 82.2711 105.84 82.3188L105.82 82.3388C105.812 82.347 105.802 82.3569 105.791 82.3689C105.487 82.6904 105.448 83.2498 105.791 83.5645C106.121 83.8674 106.661 83.9076 106.986 83.5645C107.173 83.3671 107.329 83.148 107.453 82.9064L107.535 82.7436C107.549 82.7165 107.563 82.6897 107.578 82.6631C107.605 82.6137 107.637 82.5667 107.667 82.519L107.7 82.4854C107.705 82.4804 107.71 82.4749 107.716 82.4689C108.02 82.1476 108.059 81.588 107.716 81.2733ZM90.3863 79.0716C89.1956 78.2275 87.7797 78.1882 86.6851 79.2037C85.8951 79.9367 87.0557 81.1112 87.8523 80.4244L87.8802 80.3993C87.9092 80.3723 87.9385 80.3486 87.9677 80.326C88.1105 80.4477 88.292 80.5249 88.4994 80.5251C88.5537 80.5252 88.6078 80.5251 88.6619 80.5262L88.743 80.5291L88.7866 80.5327L88.792 80.5338L88.8301 80.5499C88.8996 80.5813 88.9955 80.6297 88.8639 80.5473C88.8932 80.5627 88.9207 80.5809 88.9486 80.5986L88.9972 80.6428C89.3158 80.9442 89.867 80.9839 90.1832 80.6506C90.7433 80.4613 91.0406 79.5351 90.3863 79.0716ZM102.028 76.302L102.05 76.2951C103.094 75.9969 102.65 74.3651 101.6 74.6646C100.487 74.9827 99.9548 76.0193 99.7321 77.0812C99.6385 77.5277 99.8631 77.995 100.322 78.1212C100.742 78.2364 101.268 77.9796 101.362 77.5307C101.428 77.215 101.504 76.9472 101.625 76.6987L101.698 76.5568C101.732 76.4921 101.744 76.4814 101.859 76.3807C101.879 76.3638 101.966 76.3229 102.028 76.302ZM84.3436 67.7864L84.1803 67.7491C83.1631 67.5262 81.8131 67.4098 81.1989 68.4185C80.639 69.3375 82.0513 70.174 82.633 69.3054C82.6418 69.3051 82.652 69.3052 82.6639 69.3061L82.683 69.3083L82.9437 69.2872C83.2685 69.2849 83.5792 69.3424 83.8942 69.417C84.9518 69.6674 85.4033 68.0375 84.3436 67.7864ZM120.858 61.2865C121.628 60.5162 120.433 59.3201 119.663 60.0911C119.054 60.7004 118.466 61.314 118.07 62.0882C117.863 62.4944 117.964 63.0054 118.374 63.2449C118.751 63.4658 119.321 63.3495 119.53 62.9416C119.873 62.2706 120.306 61.839 120.858 61.2865ZM111.141 59.2643C110.38 59.7149 109.887 60.4572 109.589 61.3163C109.439 61.7475 109.759 62.241 110.179 62.3562C110.629 62.48 111.041 62.2159 111.203 61.8058L111.218 61.7657C111.298 61.5359 111.426 61.2645 111.585 61.0597C111.72 60.885 111.93 60.71 112.088 60.6518C112.469 60.5119 112.739 60.1666 112.704 59.7633C112.078 59.98 111.496 59.7194 111.141 59.2643ZM88.367 55.5868C87.5995 54.8742 86.5698 54.7797 85.6394 55.211C85.2251 55.403 85.1213 56.0004 85.3362 56.3678C85.5846 56.7928 86.0767 56.8638 86.4923 56.6711C86.3856 56.7205 86.5782 56.6552 86.6615 56.6313C86.6721 56.6363 86.8116 56.6299 86.8598 56.6306L86.9176 56.6343C86.9181 56.6346 86.9039 56.6344 86.8751 56.6334C86.9156 56.6426 86.9557 56.6535 86.9952 56.6661L87.0456 56.6836C87.0202 56.6783 87.1344 56.7527 87.1661 56.7775L87.1719 56.7822C87.9684 57.5217 89.1665 56.3289 88.367 55.5868Z" fill="black"/>
<path fill-rule="evenodd" clip-rule="evenodd" d="M149.69 120.752C150.415 119.473 152.578 119.681 152.908 121.173C153.579 124.198 149.973 126.992 147.234 127.062C144.512 127.131 141.459 124.813 141.853 121.886C141.95 121.162 142.917 121.25 143.246 121.704L143.374 121.878C144.269 123.081 145.451 124.326 147.112 124.033C147.8 123.912 148.426 123.481 148.842 122.928C149.344 122.259 149.289 121.461 149.69 120.752ZM132.383 98.6196C132.752 98.5179 133.124 98.5573 133.451 98.6963C134.181 98.8301 134.791 99.4388 135.005 100.134C135.022 100.194 135.041 100.253 135.061 100.312L135.094 100.4L135.006 100.177C135.047 100.396 135.225 100.627 135.29 100.847C135.369 101.118 135.388 101.425 135.361 101.723C135.593 101.726 135.825 101.734 136.057 101.754L136.28 101.774C137.532 101.89 138.906 102.104 139.647 103.185C140.064 103.793 139.673 104.887 138.908 105.004C137.729 105.185 136.714 104.533 135.54 104.402C134.43 104.278 133.269 104.349 132.173 104.55C129.911 104.963 127.832 105.881 125.628 106.456L125.328 106.532L125.328 106.531C124.951 106.622 124.522 106.097 124.895 105.789C126.661 104.338 128.922 103.162 131.15 102.446C130.825 101.929 130.725 101.249 130.947 100.695C130.981 100.58 131.024 100.468 131.069 100.357L131.162 100.128C131.172 100.02 131.192 99.9131 131.222 99.8085L131.227 99.7765L131.23 99.7784C131.396 99.2393 131.829 98.7726 132.383 98.6196ZM154.914 98.7031C155.397 98.2197 156.075 98.2911 156.579 98.6716L156.646 98.724C157.121 98.9351 157.515 99.3965 157.773 99.8241C158.041 100.268 158.219 100.72 158.226 101.209C159.395 101.213 160.515 101.564 161.373 102.508C161.651 102.813 161.84 103.283 161.687 103.696L161.597 103.942C161.308 104.722 160.012 105.172 159.572 104.254L159.552 104.209C159.084 103.119 157.287 103.234 156.333 103.345C155.667 103.423 155.01 103.589 154.367 103.774C154.141 103.839 153.916 103.91 153.692 103.983L153.468 104.055C153.348 104.094 152.726 104.432 153.113 104.352C153.217 104.331 153.296 104.482 153.189 104.533C152.728 104.754 152.235 104.314 152.266 103.818C152.319 102.957 153.686 102.484 154.344 102.187L154.384 102.169C154.636 102.053 154.9 101.941 155.173 101.837C155.02 101.609 154.893 101.355 154.788 101.083C154.688 100.826 154.621 100.576 154.585 100.303C154.549 100.169 154.549 100.036 154.585 99.9021L154.59 99.8638C154.572 99.7755 154.563 99.6842 154.564 99.5922L154.56 99.5565H154.564C154.577 99.2346 154.705 98.9121 154.914 98.7031ZM147.197 107.877C149.052 108.45 152.114 110.013 151.147 112.425C149.797 114.639 146.216 113.012 144.481 112.296C142.922 111.779 142.11 113.965 143.617 114.624C156.073 119.554 156.028 106.543 147.649 106.734C146.726 106.755 146.697 107.686 147.197 107.877ZM130.717 90.9122L131.033 90.8198C132.678 90.3432 134.357 89.5202 135.817 90.8043C136.391 91.3086 136.509 92.3565 136.099 92.9855C135.164 94.4186 133.778 94.1997 132.268 94.3218C131.119 94.4148 129.987 94.7526 128.914 95.1746C128.037 95.5198 127.224 96.0057 126.456 96.5476C125.702 97.0804 125.187 97.9133 124.413 98.3929C124.13 98.5687 123.802 98.3878 123.7 98.1027C123.339 97.0914 123.949 95.8315 124.465 94.9698C125.095 93.9186 126.052 93.0588 127.08 92.4083C128.207 91.6958 129.452 91.2844 130.717 90.9122ZM154.682 89.824C157.462 89.8231 160.137 91.37 161.692 93.6376C162.221 94.408 161.834 95.5492 161.075 95.9929C160.224 96.4908 159.314 96.1322 158.754 95.4187L158.721 95.3755C157.829 94.1875 156.679 93.2519 155.317 92.6428C154.652 92.3454 153.916 92.1042 153.197 91.9819L152.965 91.942C152.639 91.8874 152.261 91.8353 151.967 91.8863C151.809 91.907 151.664 91.9592 151.53 92.0387C151.595 92.1791 151.429 92.3481 151.276 92.264C150.585 91.8844 150.67 91.2073 151.24 90.681C152.047 89.9364 153.64 89.8242 154.682 89.824Z" fill="black"/>
<path fill-rule="evenodd" clip-rule="evenodd" d="M148.503 116.101C146.153 115.042 141.934 115.966 140.403 116.333C136.842 117.188 133.259 119.034 132.152 121.926C130.905 125.186 133.394 126.212 133.76 126.044C136.225 126.218 139.161 124.668 141.744 124.268C143.841 123.94 146.053 123.654 148.018 122.539C149.452 123.329 152.692 123.755 155.307 124.446C157.534 125.033 158.499 126.307 160.564 126.037C163.038 125.712 162.025 120.506 159.268 118.397C156.249 116.088 151.145 115.152 148.503 116.101ZM153.155 138.361C151.099 138.863 150.961 134.356 150.731 132.763C150.551 131.519 149.537 128.311 146.964 128.45C144.392 128.588 143.425 131.276 143.555 132.948C143.64 134.032 144.639 139.523 141.451 140.218C139.419 140.21 137.068 140.073 134.931 139.679C132.416 139.109 129.146 137.114 128.282 141.043C127.971 142.457 139.05 146.658 143.966 147.038C148.951 148.049 154.784 146.495 158.334 142.679C159.142 141.811 161.416 138.208 161.578 137.326C161.918 135.471 161.13 134.278 158.836 134.931C157.216 135.797 154.477 138.039 153.155 138.361Z" fill="black"/>
<path fill-rule="evenodd" clip-rule="evenodd" d="M167.178 109.153C164.613 111.805 160.331 112.566 156.919 111.144C148.156 107.481 152.445 96.0578 159.203 92.99C160.047 92.7795 161.175 92.2801 162.203 92.1668C162.296 92.1212 162.498 92.2532 162.744 92.1283C170.195 92.9606 171.892 104.532 167.178 109.153ZM138.915 109.832C136.039 113.649 130.69 114.827 126.32 113.052C117.688 109.651 120.749 99.5216 126.656 95.5503C139.133 90.8602 144.285 102.794 138.915 109.832ZM120.201 101.374C120.193 101.37 120.185 101.369 120.177 101.365C120.223 101.345 120.268 101.325 120.314 101.304C120.299 101.343 120.283 101.381 120.269 101.42C120.246 101.404 120.226 101.386 120.201 101.374ZM173.118 97.2481C172.413 97.2496 171.396 97.3654 170.813 97.8542C169.375 93.0031 164.067 88.5134 159.451 91.7872C155.817 92.9566 153.119 95.5501 151.586 98.9981C148.822 97.3533 144.476 98.0557 142.079 100.231C140.51 95.0418 136.646 93.2248 132.048 92.9566C127.029 92.1342 122.027 97.0103 120.466 100.922C119.168 100.774 117.229 100.361 116.008 101.162C108.084 99.0834 94.2302 97.9373 92.6193 99.0923C91.4712 99.533 90.8412 102.244 92.4448 102.39C93.8421 102.192 92.2817 100.404 93.6902 100.209C101.195 99.7433 108.481 101.255 115.906 101.89C116.569 102.782 118.711 103.08 119.854 102.722C118.054 109.357 121.939 113.872 127.761 115.224C136.775 117.296 144.617 109.229 142.26 100.838C144.991 99.4791 148.132 99.5374 151.106 100.253C146.136 118.554 175.598 117.733 170.997 98.4813C174.059 100.005 174.724 97.5556 173.118 97.2481Z" fill="black"/>
</svg>
