<svg width="240" height="324" viewBox="0 0 240 324" fill="none" xmlns="http://www.w3.org/2000/svg">
<path fill-rule="evenodd" clip-rule="evenodd" d="M152.881 154.95C147.65 150.085 149.329 145.392 147.581 139.463C144.201 132.128 137.228 124.903 129.153 123.338C125.121 120.976 119.851 122.315 117.097 126.019C114.509 126.705 114.424 130.284 113.559 132.401C111.96 136.56 110.738 140.797 109.736 145.117C78.5913 151.603 54.7035 172.817 49.7233 204.992C48.8719 209.668 48.1751 214.375 47.5206 219.082C47.1372 223.137 45.1069 229.571 49.2805 232.195C49.3999 235.104 49.7489 238.042 50.8559 240.78C51.281 243.508 51.6245 246.255 52.5228 248.885C54.5032 253.439 54.8085 258.435 57.0325 262.975C58.5866 266.324 60.8681 269.012 63.6896 271.354C64.8815 272.399 66.5187 273.533 66.769 275.168C66.6942 277.632 68.5633 281.194 71.5153 280.037C73.6105 280.825 75.8605 281.03 78.0799 281.014C115.69 279.387 153.379 279.25 190.99 281.069C192.309 281.13 193.561 279.864 193.507 278.551C192.907 264.228 191.426 249.947 189.097 235.802C183.899 206.513 178.346 173.752 152.881 154.95Z" fill="white"/>
<path fill-rule="evenodd" clip-rule="evenodd" d="M112.644 140.399L112.784 140.011C113.636 137.656 114.679 137.481 114.177 139.763L114.1 140.107C113.665 142.06 113.144 144.078 112.077 145.787C110.237 148.733 105.415 149.826 102.2 150.874C102.21 150.948 102.21 151.022 102.202 151.092C104.167 151.392 106.184 152.339 107.83 153.4C109.336 154.374 110.697 155.467 111.711 156.919L116.672 154.763C118.309 154.053 119.959 153.207 121.738 152.922C124.246 152.52 128.112 153.865 127.816 157.029C127.778 157.456 127.51 157.773 127.18 157.929C127.431 157.908 127.685 157.901 127.936 157.91C129.614 157.967 131.984 159.453 131.108 161.412C130.884 161.917 130.237 161.585 130.186 161.163C129.855 158.384 126.984 159.037 124.992 159.491C123.189 159.901 121.408 160.404 119.665 161.019C117.802 161.676 116 162.513 114.337 163.589C112.622 164.7 111.018 166.049 111.124 168.268C111.128 168.315 111.054 168.338 111.033 168.293C110.148 166.404 111.872 164.411 113.272 163.323C115.3 161.748 117.675 160.615 120.075 159.732C121.309 159.278 122.581 158.922 123.858 158.606L124.153 158.533C124.903 158.352 125.68 158.142 126.462 158.016C126.173 157.945 125.921 157.735 125.809 157.356L125.794 157.303C124.666 152.833 118.619 156.429 116.171 157.508C114.419 158.28 112.647 159.02 110.915 159.837L110.692 159.944C109.349 160.589 107.949 161.35 107.046 162.564C104.731 165.671 106.81 169.866 107.541 173.146C107.75 174.087 107.95 175.084 107.963 176.05C107.973 176.841 107.731 177.587 107.535 178.347L107.42 178.796C107.522 178.798 107.625 178.904 107.591 179.011C106.77 181.695 105.379 184.24 104.025 186.688C102.643 189.186 101.222 191.671 99.6962 194.083C94.2709 202.659 88.0596 210.756 81.2462 218.274C77.98 221.877 74.4476 225.24 71.2596 228.915C69.7765 230.625 68.3887 232.417 67.2307 234.37C66.6054 235.425 66.0434 236.52 65.5702 237.654L65.4768 237.879C65.0888 238.807 64.7075 239.624 63.9857 240.366C63.6267 240.736 62.9082 240.58 62.7941 240.051C62.2638 237.566 64.0218 234.882 65.2978 232.853C66.6751 230.663 68.285 228.621 69.9962 226.683C70.48 226.134 70.9723 225.593 71.4709 225.058C69.2401 225.671 66.8906 225.833 64.6174 226.235C62.2892 226.645 59.9758 227.133 57.7197 227.844C55.6469 228.495 53.6737 229.355 51.7873 230.433C50.8828 230.95 49.9978 231.519 49.1697 232.155C49.0913 232.214 49.0152 232.278 48.9392 232.339C50.2913 235.738 51.3307 239.263 52.4166 242.748C53.158 245.131 53.8827 247.52 54.6026 249.91L56.2195 255.29C57.3859 259.168 58.3575 263.386 60.4133 266.914C61.3007 268.436 62.5005 269.811 63.8737 270.915C64.5394 271.452 65.264 271.859 66.0159 272.255C66.4892 272.504 66.9075 272.827 67.3469 273.123C67.6362 272.793 68.075 272.589 68.6135 272.675L68.6737 272.686C70.3744 273.02 72.1281 272.417 73.6406 271.673C75.2166 270.896 76.7866 269.983 78.1195 268.833C80.7413 266.569 82.9152 263.748 85.0345 261.026C92.5892 251.312 99.0225 240.673 104.266 229.543C106.93 223.883 109.417 218.128 111.753 212.324C112.922 209.425 114.073 206.519 115.195 203.6L115.343 203.209C116.348 200.531 117.228 197.624 118.843 195.262C118.856 195.241 118.873 195.224 118.892 195.211C118.896 195.143 118.918 195.08 118.951 195.025C119.452 194.224 120.411 193.989 121.242 193.618C122.177 193.197 123.111 192.778 124.045 192.36C124.78 192.03 125.857 191.751 126.409 191.126C127.034 190.422 127.244 189.169 127.548 188.298C128.237 186.33 128.982 184.386 129.728 182.439C130.383 180.729 130.949 178.895 131.868 177.302C132.653 175.942 133.774 175.225 135.07 174.442L135.351 174.273C135.892 173.942 136.47 173.547 136.685 172.928C137.036 171.918 136.256 170.952 135.428 170.47C133.588 169.403 131.384 170.635 129.77 171.576C128.148 172.523 126.565 173.66 124.831 174.393C124.793 174.408 124.765 174.351 124.793 174.325C126.187 173.048 127.891 171.995 129.493 170.956L129.891 170.697C130.953 170.001 132.164 169.323 133.444 169.135C133.178 169.046 133.26 168.701 133.514 168.67C136.032 168.363 138.589 168.756 141.082 168.169C143.306 167.645 145.248 166.387 146.803 164.732C148.269 163.173 149.431 161.368 150.515 159.529C151.144 158.459 151.759 157.382 152.397 156.316C152.492 156.156 152.587 155.978 152.684 155.788C151.543 155.524 150.381 154.674 149.606 154.015C148.402 152.992 147.523 151.61 146.911 150.168C145.474 146.784 145.588 142.915 146.663 139.453C146.729 139.241 147.042 139.231 147.103 139.453C147.929 142.418 148.003 145.633 149.3 148.46C149.819 149.593 150.544 150.612 151.436 151.479C151.888 151.916 152.344 152.284 152.898 152.588C153.491 152.916 154.125 153.023 154.596 153.543C154.624 153.573 154.649 153.603 154.672 153.634C154.948 153.597 155.186 153.637 155.376 153.756L155.416 153.782L155.424 153.77C154.573 153.189 153.717 152.613 152.811 152.106C152.57 151.971 152.746 151.648 152.986 151.69L153.583 151.795C155.575 152.15 157.605 152.554 159.424 153.44C161.442 154.425 163.368 155.562 165.206 156.849C168.827 159.381 172.123 162.372 175.007 165.717C180.327 171.891 184.087 179.313 186.413 187.095C189.32 196.819 190.444 207.034 191.672 217.079C192.258 221.888 192.785 226.706 193.253 231.529L193.379 232.844C193.613 235.325 193.867 237.802 194.105 240.277C194.528 240.941 194.558 241.729 194.308 242.414C194.492 244.42 194.657 246.428 194.788 248.442C195.122 253.639 195.337 258.853 195.43 264.063C195.523 269.346 195.331 274.622 195.269 279.906C195.244 282.129 191.876 282.12 191.824 279.906C191.689 274.068 191.27 268.228 190.972 262.395C190.681 256.701 190.41 251.01 190.062 245.32C190.028 244.779 189.996 244.236 189.967 243.695C189.475 243.882 188.867 243.96 188.351 244.062L188.224 244.088C187.186 244.309 186.146 244.468 185.091 244.564L184.75 244.593C183.793 244.659 178.89 244.764 175.991 244.236C176.222 247.958 176.454 251.68 176.71 255.399C177.001 259.641 177.056 263.889 177.27 268.135C177.377 270.257 177.506 272.365 177.777 274.474C177.9 275.434 178.026 276.395 178.177 277.352L178.254 277.83C178.389 278.652 178.558 279.356 178.21 280.089C178.514 281.03 178.041 282.216 176.794 282.12C168.804 281.522 160.795 281.269 152.784 281.233C138.952 281.167 125.129 281.722 111.304 282.102L107.568 282.203C94.6178 282.558 81.604 282.936 68.714 281.503C68.6864 283.154 65.6019 283.135 65.7666 281.294L65.8071 280.85C65.9927 278.847 66.2333 276.772 66.8547 274.844C66.3392 274.858 65.8216 274.838 65.3357 274.677C64.645 274.451 63.9814 274.041 63.3814 273.635C62.0462 272.734 60.9181 271.625 59.9443 270.344C58.0321 267.831 56.7624 264.853 55.7589 261.879C54.6919 258.71 53.7156 255.504 52.8035 252.287L51.8218 248.803C50.5756 244.372 49.352 239.873 48.6096 235.325C48.5295 235.431 48.4195 235.522 48.2739 235.587C44.3019 237.363 40.9047 233.721 40.2328 230.04C39.8373 227.868 39.93 225.646 39.9633 223.448L39.9667 223.213C40.0005 220.681 40.011 218.149 40.1401 215.619C40.5667 207.161 42.5378 198.965 45.6033 191.086C48.4913 183.669 51.9814 176.194 56.4774 169.606C58.6131 166.478 61.0765 163.473 64.0448 161.095C67.1758 158.59 70.6957 156.686 74.3824 155.135C78.1493 153.55 82.0554 152.296 85.9662 151.113C90.2802 149.807 94.645 148.684 99.0838 147.896C99.4068 147.839 99.7237 147.934 99.9035 148.23C100.06 148.49 100.205 148.756 100.347 149.027C100.953 148.646 101.885 148.553 102.492 148.367C104.395 147.778 107.819 147.425 109.328 146.081C111.048 144.549 111.875 142.507 112.644 140.399ZM48.2695 232.929C48.0014 233.174 47.7328 233.419 47.4563 233.649C47.8173 233.497 48.1448 233.599 48.3857 233.823C48.3436 233.525 48.3054 233.227 48.2695 232.929ZM135.591 175.769C135.181 176.023 134.775 176.276 134.406 176.581C133.077 177.68 132.628 179.473 132.075 181.038L132.04 181.137C131.359 183.031 130.672 184.929 129.952 186.808C129.726 187.398 129.515 188.029 129.289 188.666C132.335 191.595 135.449 194.493 138.709 197.183C144.675 202.105 151.176 206.381 158.084 209.864C161.636 211.656 165.303 213.288 169.077 214.554C170.44 215.01 171.827 215.412 173.237 215.71L173.239 215.689C173.245 215.638 173.328 215.615 173.336 215.676L173.344 215.733C173.948 215.858 174.557 215.964 175.168 216.046C176.325 216.2 177.496 216.27 178.664 216.26C179.389 216.253 180.107 216.164 180.821 216.2C177.659 213.349 174.479 210.519 171.291 207.702C165.248 202.359 159.173 197.058 153.086 191.766C150.383 189.416 147.651 187.094 144.96 184.728L142.368 182.438C140.078 180.412 137.802 178.354 135.818 176.038L135.591 175.769ZM108.584 191.477C108.4 191.25 108.679 190.963 108.906 191.155C110.255 192.299 111.781 192.8 113.401 193.415C113.779 193.558 113.75 194.161 113.302 194.154C111.419 194.121 109.723 192.903 108.584 191.477ZM127.497 163.325L127.632 163.271C129.536 162.524 132.005 162.153 133.503 163.885C134.589 165.142 134.866 167.522 133.451 168.619C133.111 168.883 132.39 168.657 132.606 168.127C133.227 166.611 133.358 164.627 131.403 164.043C129.708 163.537 127.726 164.525 126.182 165.212L125.74 165.407C122.73 166.744 119.74 168.364 117.895 171.195C117.846 171.267 117.717 171.221 117.749 171.134C119.222 167.055 123.73 164.859 127.497 163.325ZM105.193 154.59L104.462 154.313C102.6 153.618 100.283 152.912 99.128 154.913C98.6953 155.661 98.323 156.587 98.162 157.448L98.1414 157.565C98.097 157.832 98.0397 158.117 98.2301 158.322C98.5235 158.643 99.4785 158.8 99.863 158.939L102.281 159.817L103.488 160.258C104.038 160.459 104.747 160.66 105.153 161.101C106.573 159.237 108.831 158.176 110.963 157.244C109.043 156.35 107.181 155.338 105.193 154.59Z" fill="black"/>
<path fill-rule="evenodd" clip-rule="evenodd" d="M119.872 55.5157C151.894 53.9404 166.344 76.4952 167.279 86.5694C167.928 93.5625 163.798 101.623 163.798 107.872C163.798 111.061 167.701 117.909 165.884 122.558C161.839 132.906 153.274 144.389 142.36 144.389C131.446 144.389 117.242 147.409 105.182 130.135C104.051 128.514 89.7386 119.302 88.3481 110.549C84.8847 88.7449 97.0235 56.6398 119.872 55.5157Z" fill="white"/>
<path fill-rule="evenodd" clip-rule="evenodd" d="M118.363 41.479C119.508 40.1686 121.441 39.6444 123.158 39.7459C125.653 39.8938 127.823 41.4346 130.306 41.5487C132.908 41.6692 135.42 40.7667 138.029 41.1852C139.629 41.443 141.213 42.1849 142.238 43.4361C145.787 42.4195 149.641 43.7658 151.901 46.7057C154.69 46.2724 157.724 48.1198 158.577 50.808C162.12 50.9221 165.465 53.769 165.86 57.3366C167.275 57.7107 168.505 58.6873 169.259 59.9785C170.136 61.4748 170.282 63.191 170.123 64.8776C171.79 65.7293 172.637 67.5596 172.859 69.4956C174.382 70.6326 175.044 72.6764 174.733 74.606C175.899 75.2633 176.502 76.7935 176.495 78.1588C176.489 79.4332 176.151 80.5621 176.626 81.7919C177.05 82.8873 177.202 83.8002 176.969 84.9476L176.945 85.0594C176.904 85.2464 176.869 85.4259 176.838 85.6028C177.153 85.8796 177.42 86.2267 177.621 86.6304C178.351 88.1056 178.242 89.7881 177.685 91.2843C177.929 92.2371 177.898 93.2435 177.538 94.1593C178.213 95.1326 178.568 96.3263 178.464 97.5648C178.347 98.9514 177.714 100.193 176.754 101.111C177.01 103.005 176.24 105.052 174.848 106.385C175.045 107.519 174.875 108.708 174.255 109.783C173.813 110.549 173.218 111.12 172.531 111.517C172.554 112.15 172.468 112.797 172.258 113.445C171.966 114.345 171.471 115.173 170.82 115.841C171.208 118.326 169.721 121.083 167.103 121.78C166.883 121.839 166.674 121.866 166.473 121.87C166.213 124.26 165.645 126.617 164.765 128.856C162.53 134.556 158.465 139.539 153.165 142.648C150.543 144.185 147.598 145.237 144.591 145.677C142.428 145.994 140.347 145.916 138.175 145.7C135.45 145.427 132.712 145.019 130.063 144.318L129.636 144.204C128.538 143.91 127.38 143.57 126.429 142.978C125.364 142.314 124.811 141.291 124.566 140.087C124.429 139.416 124.853 138.695 125.587 138.681L125.634 138.681C125.795 138.684 125.954 138.678 126.115 138.668L126.237 138.66H126.243C126.251 138.658 126.256 138.658 126.264 138.658C126.336 138.647 126.406 138.626 126.475 138.616C127.282 138.48 127.988 138.614 128.746 138.867L128.841 138.899C130.118 139.338 131.383 139.746 132.701 140.048C134.064 140.359 135.444 140.606 136.827 140.801L136.965 140.818L137.007 140.824L137.028 140.826C137.032 140.826 137.037 140.826 137.041 140.828L137.448 140.879C137.77 140.917 138.091 140.951 138.412 140.985C139.003 141.044 139.595 141.09 140.187 141.124C150.397 141.699 158.972 133.657 161.56 124.015C162.498 120.526 162.56 117.045 162.283 113.562C162.194 113.308 162.141 113.027 162.144 112.719C162.144 112.558 162.152 112.4 162.163 112.239C161.818 108.87 161.221 105.499 160.846 102.117C160.409 98.1673 160.166 94.1942 160.255 90.2184C160.299 88.255 160.508 86.3106 160.783 84.3664L160.882 83.6679C159.641 83.4254 158.487 82.8366 157.568 81.9842C155.574 83.1361 152.994 83.2382 151.026 82.0219C148.82 83.4056 145.738 83.5311 143.517 82.1783C142.175 83.1369 140.484 83.5506 138.823 83.1866C138.076 83.023 137.334 82.669 136.698 82.1789C136.244 82.259 135.784 82.2901 135.327 82.2662L135.232 82.319C134.178 82.8749 133.01 83.2407 131.808 83.1999C130.918 83.1699 130.002 82.9943 129.153 82.662C128.246 83.2094 127.254 83.5831 126.193 83.7171C124.643 83.9126 122.97 83.5696 121.681 82.6899C119.325 84.0324 116.427 84.2391 113.884 83.3371C113.364 84.2195 112.643 84.9803 111.799 85.5668C111.95 86.1083 111.998 86.6857 111.946 87.2409C111.861 88.1548 111.632 88.9742 111.257 89.7102C111.652 90.5319 111.771 91.5409 111.55 92.5537C111.235 93.998 110.395 95.2545 109.307 96.2331C109.212 98.538 107.948 100.699 105.891 101.9C105.787 101.961 105.684 102.01 105.58 102.055C105.49 102.179 105.381 102.288 105.257 102.38C103.949 103.589 101.88 103.493 100.24 102.81C100.209 102.812 100.177 102.814 100.145 102.815C99.5598 102.83 99.1607 102.601 98.9238 102.265C98.6853 102.278 98.4485 102.303 98.21 102.348C97.3393 102.511 96.3844 102.823 95.5964 103.229C93.5513 104.282 92.6048 106.142 92.3217 108.378C92.0135 110.817 92.7147 113.302 94.6015 114.953C95.5182 115.756 96.6907 116.259 97.8823 116.47C99.1985 116.705 100.606 116.128 101.577 117.259C101.772 117.483 101.905 117.795 101.799 118.098C101.47 119.04 100.927 119.402 100.077 119.533C101.305 120.989 102.564 122.397 103.958 123.705C105.467 125.123 107.026 126.497 108.387 128.061C109.825 129.716 111.125 131.47 112.027 133.478C112.542 134.632 112.956 135.821 113.402 137.003L113.482 137.209C113.979 138.464 114.641 139.674 113.875 140.985C113.571 141.5 112.882 141.999 112.248 141.917C110.463 141.689 109.866 140.482 109.316 138.909C108.902 137.722 108.585 136.5 108.14 135.323C108.056 135.105 107.965 134.889 107.87 134.674C106.841 134.962 105.709 134.734 104.79 134.147C103.809 134.582 102.721 134.799 101.671 134.78C100.265 134.756 98.9803 134.365 97.8757 133.66C97.7879 133.637 97.6996 133.614 97.6119 133.589C95.9317 134.233 93.9639 134.118 92.4426 133.075C91.4574 132.399 90.7839 131.497 90.4011 130.493C89.1282 130.469 87.8691 130.017 86.957 129.114C86.1196 128.285 85.63 127.214 85.4847 126.103C84.3891 125.885 83.3619 125.356 82.5563 124.463C81.8836 123.718 81.4748 122.768 81.3367 121.783C80.0023 121.402 78.7989 120.53 78.1417 119.315C77.53 118.183 77.4417 116.956 77.7409 115.84L77.6634 115.728C76.2888 115.009 75.2399 113.83 75.1322 112.148C75.1017 111.669 75.1533 111.189 75.2832 110.736C75.2363 110.229 75.2663 109.722 75.3992 109.232C73.5506 107.433 72.8809 104.544 73.8844 102.156C72.0781 100.211 71.6006 97.1359 72.9253 94.8282C72.0168 93.729 71.5499 92.3277 71.6281 90.8314C71.7253 88.9632 72.5809 87.3314 73.6055 85.8203C72.845 84.9791 72.4393 83.8061 72.4691 82.6732C72.5112 81.0311 73.3837 79.6171 74.4762 78.4462C73.5231 75.555 74.5879 72.4185 76.9267 70.5882C76.4534 69.8084 76.2781 68.8425 76.4325 67.8639C76.7027 66.1541 77.9851 64.9896 79.3689 64.0681C79.0795 63.1257 79.1555 62.1089 79.6161 61.1345C80.2309 59.8347 81.3907 59.0105 82.6013 58.313C82.914 55.4302 86.1337 52.968 88.8337 54.4559C88.164 52.3107 90.0931 49.9943 92.3114 49.7491C93.3971 46.4563 97.1429 44.3808 100.51 45.1987C102.232 42.8443 105.437 41.9378 108.158 42.9479C111.15 40.6547 114.862 40.3144 118.363 41.479ZM97.0521 106.133C99.1543 106.019 100.73 107.735 101.838 109.306C102.877 110.779 100.211 112.334 99.4331 110.711C99.1543 110.132 98.8374 109.519 98.4127 109.012C98.3414 109.112 98.2784 109.215 98.2157 109.321L98.1528 109.428C98.1064 109.506 98.0578 109.587 98.0176 109.669C98.0219 109.684 97.9585 109.878 97.9564 109.887C97.7831 110.413 97.405 110.751 96.8897 110.933C96.224 111.166 95.5944 110.665 95.381 110.077C95.0411 109.139 95.831 108.321 96.6528 107.949C95.8458 107.818 95.0514 108.092 94.4683 108.714C94.3883 108.8 94.2528 108.731 94.2488 108.623C94.181 107.15 95.7212 106.205 97.0521 106.133Z" fill="black"/>
<path fill-rule="evenodd" clip-rule="evenodd" d="M132.112 117.319C132.156 117.278 132.226 117.263 132.28 117.297C133.194 117.875 133.302 119.82 133.313 120.943C133.691 121.041 134.064 121.153 134.418 121.232C135.168 121.398 135.922 121.542 136.675 121.695L137.239 121.812C139.125 122.209 141.046 122.503 142.967 122.651C144.832 122.793 146.752 122.846 148.611 122.605C149.41 122.502 150.204 122.33 150.976 122.099C151.888 121.827 152.614 121.376 153.463 120.981C155.587 119.991 157.367 122.891 155.323 124.164C153.568 125.256 151.174 125.65 149.148 125.819C147.078 125.992 145.016 125.802 142.97 125.474C140.759 125.12 138.593 124.576 136.496 123.787C135.609 123.453 134.751 123.049 133.913 122.606L133.685 122.485C133.545 122.41 133.4 122.334 133.254 122.257C133.097 123.658 132.645 125.011 132.098 126.311L132.086 126.288C131.787 127.314 130.707 127.949 129.632 127.496C128.371 126.964 128.275 125.569 129.009 124.578L129.044 124.532C129.907 123.422 130.447 122.044 130.917 120.731C131.158 120.058 131.381 119.369 131.575 118.68C131.715 118.182 131.72 117.681 132.112 117.319ZM164.612 106.165C163.864 108.425 162.234 110.166 159.963 110.931C157.712 111.689 155.208 111.413 152.908 111.003C152.404 110.913 151.894 110.814 151.385 110.699C151.802 110.957 152.17 111.32 152.522 111.705C153.043 112.273 153.515 112.872 153.659 113.583C153.801 114.289 153.577 114.826 153.168 115.231C152.54 115.854 151.526 116.19 150.667 116.376C148.744 116.791 146.818 116.727 144.905 116.301C144.416 116.192 144.085 115.93 143.899 115.588C143.673 115.173 143.655 114.656 143.784 114.186C143.914 113.716 144.194 113.283 144.6 113.043C144.934 112.845 145.353 112.791 145.827 112.949C146.78 113.266 147.726 113.476 148.733 113.501C149.159 113.511 149.588 113.498 150.013 113.459C150.253 113.437 150.493 113.406 150.732 113.368C150.592 113.181 150.455 112.99 150.322 112.797C150.164 112.57 150.01 112.339 149.864 112.104C149.44 111.425 149.087 110.727 148.777 109.99C148.677 109.754 148.585 109.517 148.497 109.28C148.484 109.245 148.471 109.211 148.459 109.177C148.431 109.154 148.404 109.131 148.377 109.107C147.771 108.582 147.262 107.936 146.902 107.135C145.928 104.965 146.087 102.272 146.678 100.019C147.152 98.2131 148.197 96.5428 149.578 95.4081C149.819 95.0112 149.978 94.7704 150.173 94.5676C150.967 93.7415 152.075 93.1843 153.156 92.8454C155.57 92.0881 158.199 92.6314 160.245 94.0733C162.135 95.4046 163.614 97.4012 164.413 99.6219C165.17 101.725 165.318 104.032 164.612 106.165ZM131.73 92.4301C134.601 92.4056 137.522 93.2536 139.852 94.9505C142.081 96.5743 143.83 98.9716 143.828 101.827C143.826 104.608 142.341 107.341 140.693 109.494C138.843 111.91 136.427 113.075 133.388 113.102C131.808 113.116 130.217 112.976 128.649 112.784L127.807 112.678C126.649 112.529 125.478 112.352 124.38 111.953C119.152 110.057 118.99 103.211 120.926 98.8357C122.421 95.4575 126.205 92.163 129.978 92.5584C130.546 92.4788 131.13 92.4354 131.73 92.4301ZM136.579 95.6492C132.984 94.0349 128.616 94.5183 125.128 96.241C123.747 97.7488 122.737 99.649 122.328 101.394C121.892 103.256 121.956 105.262 122.612 107.067C123.413 109.27 125.385 109.816 127.513 110.154L128.338 110.284L128.685 110.336C130.775 110.648 133.061 110.891 135.07 110.501C137.309 110.065 138.731 108.256 139.85 106.401L139.902 106.314C141.064 104.37 142.037 102.006 141.062 99.7786C140.233 97.8855 138.423 96.4773 136.579 95.6492ZM157.799 96.2117C156.565 95.5278 155.158 95.4035 153.826 95.8613C153.253 96.0582 152.757 96.3774 152.277 96.7352L152.086 96.8802C151.495 97.3337 150.943 97.5634 150.5 98.1759L150.443 98.258C150.22 98.5919 149.829 98.7255 149.472 98.6811C149.057 99.826 148.886 101.064 148.882 102.283L148.883 102.444L148.885 102.609C148.912 104.05 149.163 105.812 150.296 106.778C151.329 107.659 152.894 107.87 154.292 107.993L155.368 108.082L155.655 108.104C157.127 108.206 158.741 108.171 159.975 107.299C161.05 106.54 161.557 105.251 161.688 103.978C161.999 100.97 160.478 97.6964 157.799 96.2117ZM130.943 96.4895C132.922 95.4784 135.301 95.7319 136.978 96.9991C136.829 97.0283 136.682 97.0655 136.536 97.1388C136.155 97.3297 135.919 97.7118 135.829 98.1184C135.728 98.5781 135.966 99.0133 136.419 99.1583C136.814 99.2842 137.282 99.3419 137.649 99.102C137.841 98.9765 137.975 98.811 138.063 98.6026L138.075 98.572L138.091 98.5495L138.097 98.539C138.098 98.535 138.091 98.5426 138.08 98.5597C138.091 98.5337 138.102 98.5077 138.112 98.4813C138.128 98.4498 138.142 98.4181 138.154 98.3854C138.176 98.367 138.195 98.3465 138.215 98.326C138.519 98.795 138.759 99.3246 138.911 99.9138C139.885 103.696 135.888 107.621 132.317 108.014C130.968 108.162 129.737 107.841 128.716 107.207C128.725 107.194 128.735 107.183 128.744 107.17C129.154 107.244 129.644 107.06 129.793 106.602C130.173 105.435 129.783 104.069 128.511 103.687C127.693 103.442 126.855 103.713 126.27 104.273C125.828 103.19 125.67 101.97 125.879 100.749C126.174 99.0255 127.213 97.4727 128.83 96.7558C129.618 96.4065 130.296 96.3331 130.943 96.4895ZM151.792 98.823L151.853 98.728C152.464 97.7862 153.634 96.6309 154.846 96.9486C155.016 96.9931 155.183 97.065 155.333 97.1582C155.999 97.0678 156.697 97.2191 157.269 97.5714L157.254 97.6109C157.251 97.6175 157.249 97.6242 157.247 97.6312C157.195 97.8603 157.225 98.0721 157.332 98.2826C157.448 98.5106 157.614 98.7269 157.838 98.8577C157.991 98.9473 158.172 98.9944 158.349 98.9908C158.609 98.9862 158.837 98.8718 159.025 98.6973C159.127 98.6026 159.198 98.4637 159.237 98.3208C159.33 98.4096 159.42 98.5085 159.505 98.6208C160.91 100.469 160.716 103.44 159.068 105.087C159.001 105.154 158.93 105.214 158.86 105.275C158.191 106.197 157.159 106.822 155.92 106.949C154.773 107.066 153.626 106.727 152.746 106.031C152.817 105.993 152.883 105.944 152.94 105.88C153.09 105.71 153.214 105.542 153.305 105.334C153.328 105.282 153.35 105.229 153.371 105.176L153.402 105.096C153.407 105.081 153.454 104.946 153.442 104.97L153.439 104.975L153.455 104.936C153.613 104.543 153.549 104.094 153.175 103.847L153.134 103.821C153.012 103.75 152.861 103.717 152.708 103.716C152.326 103.249 151.758 103.142 151.225 103.278L151.206 103.127C151.204 103.102 151.201 103.077 151.199 103.052C150.786 101.682 150.986 100.125 151.792 98.823ZM133.455 85.0324L133.592 85.0111C134.629 84.8611 135.334 85.0338 136.009 85.9203C136.33 86.3428 136.231 86.9808 136.009 87.4126C135.291 88.8078 133.316 88.5193 131.986 88.7963C130.687 89.0667 129.392 89.4346 128.176 89.9702C126.936 90.5167 125.773 91.1633 124.638 91.9015C123.611 92.5696 122.68 93.5737 121.507 93.9624C121.454 93.9799 121.391 93.9326 121.394 93.8766C121.478 92.5423 122.592 91.3175 123.455 90.3673C124.453 89.2685 125.666 88.2929 126.93 87.5173C128.235 86.7171 129.645 86.0583 131.105 85.5988C131.873 85.3568 132.66 85.1645 133.455 85.0324ZM149.252 86.8441C150.558 84.9341 153.804 85.3004 155.719 85.8108C158.12 86.4503 160.722 87.744 162.406 89.6166C163.914 91.2941 161.658 93.4735 159.962 92.0619L159.509 91.6864L159.219 91.4484C157.917 90.3845 156.628 89.4217 155.041 88.7124C153.181 87.8812 151.296 87.4762 149.329 87.0332C149.252 87.0159 149.207 86.9111 149.252 86.8441Z" fill="black"/>
</svg>
