<svg width="240" height="324" viewBox="0 0 240 324" fill="none" xmlns="http://www.w3.org/2000/svg">
<path fill-rule="evenodd" clip-rule="evenodd" d="M55.9684 287.806C63.0179 287.828 69.8677 288.069 76.937 288.093C105.673 288.189 134.674 288.049 163.515 286.884C171.666 286.554 173.701 286.562 181.817 286.051C186.61 286.034 201.004 285.638 200.284 279.108C199.966 266.946 196.956 254.836 196.008 242.707C194.188 219.907 192.639 196.393 183.503 175.067C181.388 169.974 176.846 166.643 172.35 163.648C167.841 160.417 166.735 156.83 162.573 153.18C161.693 152.409 156.697 152.095 154.008 150.137C150.095 147.288 148.155 142.623 146.695 141.829C145.62 141.244 145.64 137.213 143.487 135.786C140.597 133.872 131.39 132.448 128.04 132.182C124.825 131.926 119.232 132.463 116.215 133.641C111.185 135.605 109.178 139.352 106.963 144.179C77.6922 153.229 50.9383 168.553 42.6296 199.464C35.4644 225.389 35.2018 253.182 37.9698 279.77C38.5236 281.715 38.1355 284.763 39.8151 286.051C33.9782 286.386 55.1765 287.59 55.9684 287.806Z" fill="white"/>
<path fill-rule="evenodd" clip-rule="evenodd" d="M189.101 262.208C188.547 261.931 187.97 261.615 187.338 261.593C186.251 261.555 186.25 259.864 187.338 259.902C188.286 259.935 189.12 260.331 189.955 260.748C190.929 261.234 190.072 262.692 189.101 262.208ZM187.337 214.615C188.079 214.616 188.826 214.71 189.395 215.228C189.734 215.537 189.707 216.112 189.395 216.424C189.062 216.757 188.537 216.731 188.2 216.424C188.31 216.524 188.201 216.425 188.161 216.402C188.152 216.397 188.146 216.394 188.144 216.391C188.135 216.389 188.127 216.388 188.113 216.384C188.025 216.362 187.938 216.34 187.848 216.324C187.847 216.328 187.66 216.312 187.616 216.31C187.523 216.307 187.43 216.306 187.337 216.306C186.879 216.306 186.492 215.92 186.492 215.461C186.492 215.004 186.881 214.615 187.337 214.615ZM179.391 233.581C179.149 234.643 177.519 234.191 177.761 233.132C178.112 231.591 178.048 230.013 177.761 228.468C177.563 227.403 179.192 226.95 179.391 228.019C179.735 229.872 179.812 231.733 179.391 233.581ZM177.256 172.816C175.997 172.517 174.752 172.481 173.465 172.481C172.376 172.48 172.377 170.789 173.465 170.79C174.901 170.79 176.303 170.852 177.705 171.185C178.765 171.437 178.313 173.067 177.256 172.816ZM173.038 213.999C172.308 213.634 171.578 213.269 170.848 212.904C169.874 212.417 170.731 210.959 171.701 211.444L173.891 212.54C174.865 213.027 174.009 214.485 173.038 213.999ZM172.734 247.296C171.808 248.631 170.506 249.461 168.944 249.876C167.889 250.155 167.444 248.524 168.494 248.245C169.612 247.949 170.604 247.409 171.275 246.442C171.891 245.553 173.356 246.4 172.734 247.296ZM166.894 187.766C166.644 187.298 166.266 187.1 165.798 187.089C164.711 187.064 164.71 185.373 165.798 185.398C166.865 185.423 167.844 185.958 168.353 186.913C168.867 187.873 167.407 188.726 166.894 187.766ZM156.174 199.259C155.871 199.589 155.284 199.581 154.979 199.259C154.792 199.062 154.636 198.842 154.512 198.601C154.465 198.509 154.421 198.416 154.37 198.327C154.347 198.287 154.321 198.248 154.295 198.21C154.286 198.202 154.268 198.183 154.249 198.163C153.924 197.82 153.932 197.313 154.249 196.967C154.552 196.637 155.139 196.646 155.444 196.967C155.63 197.164 155.787 197.384 155.91 197.626C155.957 197.717 156.001 197.81 156.053 197.9C156.076 197.939 156.102 197.978 156.128 198.016C156.137 198.024 156.155 198.043 156.174 198.063C156.499 198.407 156.491 198.914 156.174 199.259ZM155.273 224.225C154.172 224.729 152.965 224.729 151.864 224.225C151.447 224.035 151.348 223.432 151.561 223.069C151.807 222.647 152.302 222.576 152.717 222.765C153.216 222.994 153.921 222.994 154.42 222.765C154.836 222.575 155.327 222.642 155.576 223.069C155.79 223.435 155.688 224.035 155.273 224.225ZM152.271 241.897C152.081 242.345 151.673 242.583 151.196 242.601C150.723 242.619 150.37 242.2 150.351 241.756C150.338 241.469 150.493 241.224 150.715 241.073C150.715 241.057 150.716 241.041 150.716 241.025C150.716 240.552 151.103 240.201 151.561 240.18C152.017 240.16 152.406 240.583 152.406 241.025C152.406 241.324 152.387 241.62 152.271 241.897ZM147.91 269.992C146.561 270.014 145.243 270.336 143.894 270.358C142.805 270.375 142.808 268.684 143.894 268.667C145.243 268.645 146.561 268.323 147.91 268.302C149 268.284 148.997 269.975 147.91 269.992ZM142.301 161.642C141.512 162.394 140.536 162.765 139.575 163.235C138.6 163.711 137.744 162.253 138.721 161.775C139.536 161.377 140.438 161.083 141.106 160.446C141.894 159.695 143.091 160.89 142.301 161.642ZM140.182 181.13C139.628 180.854 139.051 180.537 138.418 180.515C137.332 180.477 137.33 178.787 138.418 178.825C139.367 178.858 140.2 179.253 141.035 179.67C142.01 180.157 141.153 181.615 140.182 181.13ZM130.022 259.348C129.772 258.879 129.395 258.681 128.927 258.671C127.839 258.646 127.838 256.955 128.927 256.98C129.993 257.004 130.972 257.54 131.482 258.494C131.995 259.455 130.535 260.308 130.022 259.348ZM126.504 222.632C126.167 222.323 126.191 221.75 126.504 221.437C126.869 221.072 127.234 220.706 127.599 220.341C127.933 220.007 128.457 220.031 128.794 220.341C129.13 220.65 129.107 221.224 128.794 221.537C128.429 221.902 128.064 222.267 127.699 222.632C127.364 222.967 126.841 222.942 126.504 222.632ZM122.355 279.853C121.136 279.825 119.993 279.475 118.845 279.092C117.816 278.75 118.26 277.118 119.294 277.462C120.292 277.794 121.294 278.138 122.355 278.162C123.443 278.188 123.443 279.878 122.355 279.853ZM116.879 243.697C115.778 243.666 114.864 243.105 114.091 242.354C113.31 241.594 114.506 240.399 115.286 241.158C115.729 241.588 116.239 241.988 116.879 242.006C117.966 242.036 117.967 243.727 116.879 243.697ZM120.279 197.2C120.293 197.65 120.483 198.133 120.762 198.428C121.509 199.22 120.315 200.417 119.567 199.624C118.95 198.97 118.615 198.095 118.589 197.2C118.558 196.11 120.248 196.115 120.279 197.2ZM107.388 160.375C107.034 159.682 106.57 158.87 105.865 158.487C104.908 157.967 105.762 156.508 106.719 157.027C107.677 157.548 108.363 158.573 108.847 159.522C109.341 160.49 107.882 161.344 107.388 160.375ZM105.197 177.959C104.805 177.948 104.415 177.88 104.037 177.778C103.876 177.734 103.716 177.683 103.554 177.639C103.485 177.621 103.191 177.584 103.371 177.594C102.914 177.569 102.526 177.226 102.526 176.748C102.526 176.309 102.915 175.878 103.371 175.903C103.999 175.936 104.569 176.25 105.197 176.268C106.284 176.299 106.285 177.989 105.197 177.959ZM99.7207 204.984H97.8953C96.806 204.984 96.808 203.294 97.8953 203.294H99.7207C100.81 203.294 100.808 204.984 99.7207 204.984ZM97.5917 279.738C97.0382 280.015 96.3858 280.277 95.9375 280.701C95.1469 281.449 93.9503 280.255 94.7424 279.506C95.3134 278.966 96.0435 278.626 96.7388 278.278C97.1485 278.073 97.6521 278.165 97.8951 278.581C98.1146 278.957 97.9999 279.533 97.5917 279.738ZM93.5131 258.374C93.4423 258.355 93.3675 258.341 93.2959 258.331C93.0086 258.292 92.7079 258.306 92.4193 258.306C91.3301 258.305 91.3317 256.614 92.4193 256.615C93.2765 256.615 94.1684 256.627 94.8424 257.228C95.1844 257.533 95.1512 258.114 94.8424 258.423C94.5065 258.759 93.9878 258.727 93.6472 258.423C93.6831 258.455 93.56 258.387 93.5131 258.374ZM92.4199 229.643C92.6654 229.136 92.6692 228.806 92.6697 228.243C92.6705 227.153 94.3606 227.155 94.3598 228.243C94.3594 229.06 94.2379 229.756 93.8794 230.496C93.6793 230.909 93.0937 231.016 92.7233 230.799C92.308 230.556 92.2211 230.053 92.4199 229.643ZM87.5328 189.981C86.5525 190.314 85.6775 190.786 84.8142 191.356C83.903 191.958 83.0573 190.493 83.9611 189.896C84.9463 189.246 85.9652 188.731 87.0834 188.35C88.1174 187.998 88.557 189.632 87.5328 189.981ZM81.8323 161.524C81.1041 161.545 80.3524 161.824 79.7034 162.139C78.7279 162.613 77.8721 161.155 78.8505 160.679C79.7775 160.229 80.7918 159.863 81.8323 159.834C82.9222 159.803 82.9176 161.494 81.8323 161.524ZM79.2767 237.488C78.9902 237.501 78.7453 237.346 78.5936 237.124C78.5778 237.124 78.5622 237.123 78.5465 237.123C78.0729 237.123 77.7222 236.736 77.7015 236.278C77.681 235.821 78.1046 235.432 78.5465 235.432C78.8448 235.433 79.1408 235.451 79.418 235.568C79.8657 235.757 80.1036 236.165 80.1218 236.643C80.1397 237.116 79.7201 237.469 79.2767 237.488ZM75.1205 179.024C74.0825 179.364 73.6418 177.73 74.6711 177.394C75.8794 176.999 77.114 176.693 78.322 176.298C79.36 175.959 79.8007 177.592 78.7712 177.929C77.5634 178.323 76.3285 178.629 75.1205 179.024ZM71.3301 210.938C71.0082 211.975 69.3774 211.53 69.7002 210.488C70.012 209.483 70.0344 208.471 70.0351 207.426C70.0357 206.336 71.7258 206.338 71.7252 207.426C71.7246 208.615 71.6846 209.793 71.3301 210.938ZM60.0302 249.162C59.9687 249.583 59.6349 249.886 59.198 249.906C58.7533 249.926 58.3369 249.503 58.3529 249.06C58.384 248.209 59.0776 247.516 59.9282 247.484C60.4014 247.467 60.7534 247.886 60.7732 248.33C60.7927 248.762 60.4322 249.099 60.0302 249.162ZM54.3115 200.572C53.4184 200.87 52.4641 201.154 51.764 201.815C50.9728 202.562 49.7762 201.368 50.5689 200.62C51.4921 199.748 52.6796 199.336 53.8623 198.941C54.8979 198.596 55.338 200.229 54.3115 200.572ZM50.436 233.418C50.1905 233.837 49.6934 233.913 49.2799 233.721C48.7256 233.463 48.1135 233.472 47.5158 233.471C46.4268 233.47 46.4284 231.779 47.5158 231.78C48.4378 231.781 49.2884 231.868 50.133 232.261C50.5486 232.454 50.6498 233.052 50.436 233.418ZM48.2458 273.279C47.7726 273.297 47.4206 272.878 47.4007 272.434C47.3813 272.002 47.7415 271.665 48.144 271.602C48.2052 271.181 48.5392 270.877 48.9759 270.858C49.4209 270.838 49.8373 271.261 49.821 271.703C49.79 272.555 49.0968 273.248 48.2458 273.279ZM202.223 279.672C201.936 278.639 201.279 277.804 200.783 276.874C200.616 276.561 200.558 276.366 200.468 276.136C200.345 276.382 200.108 276.566 199.75 276.566C199.064 276.566 198.261 276.522 197.621 276.816C197.204 277.007 196.714 276.939 196.465 276.513C196.251 276.147 196.353 275.546 196.768 275.356C197.712 274.923 198.726 274.876 199.75 274.875C200.003 274.875 200.194 274.968 200.329 275.108C200.721 269.749 200.711 264.385 200.341 259.021C199.946 253.289 199.037 247.672 198.087 242.014C197.626 239.271 197.028 236.5 197.145 233.706C197.261 230.931 198.45 228.344 197.607 225.56C197.269 224.444 196.69 223.421 196.314 222.318C195.911 221.13 195.947 219.957 196.13 218.727C196.509 216.223 197.136 213.748 196.132 211.303C195.689 210.218 194.97 209.25 194.624 208.13C194.193 206.737 194.252 205.197 194.18 203.753C194.035 200.841 193.997 197.909 193.756 195.003C193.648 193.701 193.414 192.467 192.879 191.273C192.365 190.123 191.603 189.077 191.263 187.857C190.925 186.657 190.895 185.391 190.714 184.163C190.523 182.865 190.225 181.587 189.824 180.34C188.273 175.512 185.432 171.176 182.075 167.416C178.506 163.419 174.241 160.409 169.714 157.605C167.333 156.13 164.952 154.655 162.573 153.18C162.522 153.457 162.346 153.711 162.007 153.825C161.114 154.123 160.16 154.407 159.46 155.068C158.669 155.815 157.472 154.621 158.265 153.873C159.091 153.091 160.131 152.68 161.188 152.319C160.104 151.636 159.009 150.928 157.785 150.533C156.714 150.186 155.134 150.489 154.265 149.702C153.583 149.083 153.368 147.936 153.106 147.094C152.778 146.05 152.495 144.949 152.079 143.935C151.796 143.241 151.384 142.576 150.864 142.039C150.636 141.16 150.218 140.356 149.478 139.868C147.543 138.587 145.166 139.86 144.315 141.686C143.611 141.684 142.87 141.838 142.185 141.88C140.778 141.969 139.369 142.009 137.96 142.005C135.203 141.997 132.444 141.817 129.71 141.451C124.821 140.796 120.078 139.475 115.272 138.446C115.245 138.382 115.213 138.319 115.175 138.256C114.14 136.518 111.56 136.812 109.935 137.469C109.238 137.751 108.528 138.106 108.129 138.765C107.706 139.05 107.341 139.397 107.098 139.763C106.595 140.517 106.206 142.039 105.186 142.166C104.514 142.248 103.832 142.119 103.149 142.216C102.296 142.335 101.531 142.635 100.743 142.977C94.7431 145.583 88.5403 148.481 82.0288 149.491C80.5015 149.728 78.9466 149.973 77.6199 150.829C76.5424 151.524 75.7098 152.48 74.8206 153.386C73.9544 154.27 73.2403 154.661 72.0044 154.819C70.5044 155.012 69.2051 155.426 68.1086 156.516C67.198 157.423 66.6044 158.581 65.8903 159.634C65.1633 160.707 64.0966 161.312 62.9896 161.935C60.372 163.411 57.9339 165.192 55.8107 167.329C51.3382 171.835 48.6297 177.626 45.9001 183.269C42.9487 189.373 40.1896 195.551 38.2755 202.069C36.3994 208.468 35.2839 215.052 34.7685 221.697C34.2255 228.669 34.1494 235.669 33.6973 242.646C33.4713 246.131 33.3001 249.62 33.1269 253.108C32.9579 256.553 32.7107 260.004 32.7506 263.453C32.8269 270.121 34.1598 276.811 36.4903 283.054C37.0713 284.607 37.7154 286.14 38.402 287.649C39.0044 288.974 41.0642 288.826 41.7107 287.649C41.8586 287.378 41.9748 287.099 42.072 286.816C43.7621 286.831 45.4692 286.7 47.1487 286.856C50.1149 287.133 53.0873 287.287 56.0619 287.471C61.948 287.837 67.8445 288.08 73.7325 288.416C74.3038 288.448 74.8751 288.481 75.4461 288.515C71.2501 275.523 71.7944 261.477 71.1304 247.965C71.0769 246.875 72.7675 246.882 72.8205 247.965C73.4873 261.535 72.9196 275.617 77.2639 288.63C78.9494 288.744 80.6325 288.884 82.31 289.088C83.6661 289.251 85.029 289.443 86.398 289.375C87.9508 289.301 89.4677 288.946 90.9825 288.638C93.7354 288.078 96.3868 288.331 99.1501 288.676C102.106 289.046 105.072 289.251 108.047 289.38C119.958 289.902 131.949 290.377 143.856 289.58C146.738 289.388 149.614 289.118 152.476 288.75C155.425 288.371 158.343 287.735 161.29 287.374C164.195 287.019 166.866 287.993 169.737 288.173C172.665 288.357 175.671 287.746 178.572 287.395C179.518 287.28 180.466 287.169 181.413 287.058C180.193 278.694 179.5 270.267 178.826 261.843C178.739 260.756 180.43 260.766 180.516 261.843C181.184 270.201 181.862 278.565 183.08 286.863C188.103 286.279 193.131 285.687 198.102 284.776C199.517 284.519 200.924 284.098 201.771 282.834C202.399 281.898 202.525 280.75 202.223 279.672Z" fill="black"/>
<path fill-rule="evenodd" clip-rule="evenodd" d="M163.802 81.4504C167.632 78.9933 172.857 72.7236 169.888 67.9692C168.682 66.11 167.037 65.4111 165.231 65.3551C164.801 64.8148 164.086 64.6565 163.418 64.6527L163.422 64.6242C160.983 64.669 158.585 65.5239 156.623 66.9514C155.358 65.8395 153.786 65.2071 152.264 64.5234C152.903 61.3119 153.877 58.1793 154.983 55.1008C155.579 53.3282 153.689 51.4609 151.906 51.9964C152.345 50.0748 151.337 47.843 149.142 47.8677C147.968 47.8677 146.64 48.4971 145.505 48.7808C144.665 48.9908 143.837 49.2064 143.025 49.4805C143.022 49.4586 143.019 49.4364 143.017 49.414C145.143 47.9248 145.069 44.4963 141.945 44.8287C140.612 44.9464 139.257 45.854 138.024 46.4081C135.993 46.5305 134.041 47.1764 132.066 47.6399C126.662 48.9809 120.881 50.3285 116.429 53.7312C108.718 56.7041 99.127 61.2999 98.1716 70.3843C84.5903 65.1276 74.3305 81.9135 86.647 88.5188C89.0639 89.646 91.8577 90.2295 94.5017 89.6874C93.877 91.9987 93.2799 94.3179 92.7211 96.6463C88.0177 107.457 84.2149 118.882 85.5828 130.748C85.6029 132.9 88.3663 134.142 89.8937 132.534C91.1573 131.009 92.6905 132.792 92.2785 134.264C91.8881 135.9 93.0393 137.401 94.7138 137.462C96.7177 137.567 98.3094 136.223 99.7274 134.981C99.7001 135.008 99.7648 134.967 99.859 134.903C103.358 143.159 106.636 136.74 110.949 140.455C111.957 141.386 112.664 142.489 113.955 143.095C116.983 144.63 119.374 141.894 122.266 141.578C124.939 141.381 127.583 142.307 130.147 142.93C133.141 143.658 136.159 144.038 139.235 143.697C143.167 143.261 151.013 141.483 153.334 140.02C156.179 141.93 159.107 139.664 160.671 137.055C161.764 138.109 163.834 138.27 164.713 136.646C165.587 134.834 167.221 132.066 169.1 132.476C169.268 132.527 169.366 132.559 169.468 132.634C171.225 134.127 173.492 132.993 173.749 130.823C175.414 116.758 172.018 102.649 167.502 89.4126C166.516 86.6448 165.699 83.7677 163.802 81.4504Z" fill="white"/>
<path fill-rule="evenodd" clip-rule="evenodd" d="M162.25 81.0618C162.179 80.8669 162.478 80.7549 162.576 80.9244C165.803 86.474 168.383 92.369 170.589 98.3908C172.542 103.721 174.274 109.154 175.508 114.699L175.592 115.08C176.752 120.431 177.324 126.091 175.802 131.429L175.729 131.683C175.378 132.871 174.915 134.076 173.832 134.781C172.923 135.374 171.894 135.448 170.847 135.283C169.965 135.144 169.124 134.76 168.24 134.653C167.574 134.573 167.4 134.893 167.205 135.432L167.044 135.888C166.351 137.821 165.505 139.621 163.245 140.028C162.028 140.247 160.706 140.02 159.651 139.38C159.639 139.421 159.627 139.461 159.617 139.501L159.567 139.691C159.346 140.518 159.062 141.358 158.478 142.001C157.661 142.897 156.491 143.215 155.311 142.977C154.775 142.869 154.271 142.625 153.762 142.422C153.637 143.172 152.777 143.783 151.989 143.598C151.563 143.499 151.234 143.305 150.99 143.055C149.773 143.994 148.132 144.474 146.71 144.838C144.652 145.365 142.462 145.581 140.339 145.518C138.185 145.454 135.993 145.039 133.966 144.309L133.649 144.193C131.901 143.548 130.061 142.731 128.645 141.525C128.363 141.387 128.528 140.875 128.863 140.984C130.787 141.606 132.581 142.337 134.601 142.636C136.506 142.919 138.419 142.965 140.339 142.849C142.286 142.731 144.174 142.334 146.032 141.747C147.649 141.235 149.241 140.312 150.958 140.191C151.047 140.067 151.145 139.948 151.257 139.838C152.742 138.395 154.246 139.117 155.917 139.643C155.972 139.66 155.988 139.689 155.988 139.718L156.008 139.689L156.021 139.671L156.012 139.683C155.942 139.762 156.081 139.47 156.106 139.411L156.108 139.404C156.301 138.88 156.375 138.316 156.537 137.783C156.925 136.509 157.649 135.344 159.037 135.04C159.722 134.889 160.655 135.118 160.972 135.827C161.233 136.411 161.661 136.706 162.319 136.691C163.006 136.675 163.259 136.274 163.499 135.67C163.888 134.687 164.098 133.665 164.738 132.798C165.457 131.822 166.532 131.253 167.747 131.206C168.683 131.171 169.6 131.444 170.491 131.696L170.572 131.721C170.979 131.849 171.705 132.136 172.023 131.924C172.499 131.607 172.745 129.754 172.883 129.061L172.891 129.017C173.137 127.837 173.279 126.647 173.337 125.442C173.578 120.404 172.54 115.393 171.392 110.517C169.024 100.461 165.782 90.7604 162.25 81.0618ZM94.7697 93.3566C94.8337 93.2606 94.9735 93.3437 94.9235 93.4466C94.6913 93.9245 94.6066 94.4265 94.4498 94.9242C94.2763 95.4752 93.9816 96.0095 93.763 96.5442C93.4089 97.4101 93.066 98.2811 92.7201 99.1503C92.0249 100.898 91.3784 102.672 90.7657 104.451C89.5355 108.025 88.5301 111.698 87.7947 115.405C87.0719 119.047 86.4668 122.856 86.4899 126.579C86.5002 128.272 86.6851 130.015 87.3567 131.587C87.462 131.834 87.5856 132.076 87.7167 132.311L87.7961 132.451C87.8073 132.471 87.8191 132.49 87.8311 132.51L87.9037 132.626C88.1157 132.315 88.727 131.903 88.9792 131.685L89.0143 131.653L90.1978 130.558C90.7131 130.081 91.4566 129.966 92.0796 130.315C93.9734 131.375 93.912 133.344 94.3174 135.203L94.3353 135.283C94.5117 136.064 94.8168 136.713 95.7518 136.56C96.7274 136.4 97.2911 135.408 97.6097 134.555L97.6507 134.442C98.2137 132.854 100.238 132.917 100.821 134.442L101.04 135.019C101.492 136.203 102.108 137.631 103.274 138.1C104.255 138.494 105.379 137.905 106.271 137.539C106.762 137.338 107.334 137.757 107.465 138.217C107.501 138.342 107.525 138.462 107.543 138.58C108.476 138.489 109.369 138.712 110.286 139.136C111.487 139.69 112.997 140.886 113.222 142.273C113.489 143.912 111.591 144.686 110.612 143.374C109.995 142.547 109.772 141.544 109.035 140.758C108.602 140.297 108.063 139.896 107.498 139.556C106.993 141.342 104.158 141.857 102.468 141.328C100.845 140.821 99.7695 139.625 98.9663 138.225C97.4646 139.694 95.3809 140.405 93.2927 139.124C92.0836 138.382 91.5199 137.084 91.3015 135.737C91.2358 135.331 91.232 134.665 91.1158 134.08L91.0031 134.195C89.9832 135.227 88.7975 136.197 87.4609 135.974C85.7088 135.682 84.8771 133.731 84.3307 132.246C83.1945 129.158 83.4039 125.724 83.7888 122.517C84.2105 119.007 84.9161 115.53 85.8499 112.121C86.7607 108.795 87.9398 105.568 89.327 102.412C90.0341 100.804 90.8496 99.2353 91.7261 97.7127C92.1664 96.9485 92.6458 96.2052 93.1275 95.4665C93.6246 94.704 94.2709 94.1033 94.7697 93.3566ZM84.2734 71.6263C86.8463 69.2379 90.2861 68.149 93.7551 68.6402C95.3925 68.8716 96.9516 69.4638 98.3339 70.3775C99.7361 71.3042 100.645 72.4514 101.484 73.8863C101.542 73.9863 101.409 74.0812 101.328 74.0061C99.0913 71.9442 95.7041 70.8437 92.6937 70.9599C87.329 71.1669 82.8814 75.9151 83.2148 81.3267C83.3789 83.9918 84.8764 86.6836 87.1919 88.055C89.6458 89.5085 92.4389 89.026 95.0686 88.386C96.0182 88.155 96.4965 89.2225 95.9551 89.9094C93.288 93.2944 87.8039 92.4093 84.7249 90.081C78.7752 85.5824 78.9787 76.5417 84.2734 71.6263ZM92.9128 76.9561L93.1411 76.9169C95.0605 76.5999 99.1468 76.2341 99.748 78.5772C100.054 79.7704 98.8695 80.4129 97.8326 80.3601C96.9776 80.3166 96.149 80.0488 95.305 79.867C95.0627 80.705 94.9803 81.5802 94.8622 82.443C94.7591 83.1983 93.5445 82.9933 93.5589 82.2667C93.5792 81.2562 94.0484 80.3971 94.787 79.77C94.6146 79.7434 94.4414 79.721 94.2664 79.7092C92.1681 79.5682 90.095 79.9579 88.1348 80.6778L88.3421 80.7942C88.4409 80.8285 88.3987 80.9606 88.2998 80.947L87.3248 80.9961C86.9169 81.0916 86.676 80.6254 86.9331 80.3227C88.4437 78.5429 90.6229 77.3646 92.9128 76.9561ZM162.897 64.4129C165.828 64.0616 168.739 65.1421 170.312 67.7214C171.772 70.1141 171.899 73.1434 170.863 75.7147C170.275 77.1755 169.386 78.4857 168.287 79.6122C167.743 80.1691 167.12 80.7437 166.43 81.1121C165.628 81.5412 165.03 81.5037 164.184 81.3463C163.638 81.2448 163.262 80.5446 163.436 80.03L163.566 79.6398C163.708 79.2208 163.84 78.9102 164.228 78.515C164.567 78.1703 164.972 77.8911 165.344 77.5838C166.144 76.9225 166.887 76.1845 167.443 75.3025C168.46 73.6897 168.812 71.836 168.238 69.9966C167.622 68.0213 165.992 66.742 163.949 66.5036C162.788 66.3685 161.611 66.4907 160.467 66.6932L159.77 66.8193C158.796 66.9995 158.002 67.2089 157.331 68.1018C157.274 68.1768 157.165 68.1701 157.132 68.0758C156.796 67.1059 157.823 66.2405 158.551 65.7818C159.816 64.9861 161.428 64.589 162.897 64.4129ZM150.125 63.232C149.981 63.0491 150.105 62.6784 150.385 62.785C153.649 64.0249 156.399 67.0441 158.281 69.8965C158.85 70.7594 159.361 71.6555 159.822 72.5768C160.48 71.7767 161.464 71.1978 162.383 70.8043L162.485 70.7613C163.546 70.3204 165.841 69.5659 166.491 70.9786C166.7 71.4332 166.616 71.8996 166.25 72.252C165.683 72.7964 164.779 72.5901 164.072 72.5838C162.644 72.5715 161.51 73.023 160.246 73.4613C160.476 73.9631 160.694 74.4709 160.896 74.9858C161.172 75.686 161.376 76.4238 161.711 77.0991C162.029 77.7409 162.528 78.3143 162.955 78.8835C163.53 79.6516 162.761 80.9497 161.822 80.8575C159.88 80.6665 159.106 79.061 158.572 77.3595L158.28 76.4288C157.843 75.0387 157.394 73.6762 156.738 72.3538C155.894 70.6537 154.887 68.9929 153.729 67.4879C152.594 66.0123 151.269 64.6949 150.125 63.232ZM145.07 43.1955C146.276 42.7457 147.291 44.2947 146.69 45.3035C146.162 46.1894 145.848 47.1044 145.725 48.0643L151.044 46.7966C152.101 46.5447 153.101 47.4795 152.809 48.5631L151.988 51.6076C153.049 51.2528 154.158 51.0425 155.298 50.9683C156.276 50.9049 156.815 51.9139 156.655 52.7491C156.319 54.4893 155.853 56.1976 155.232 57.857L154.779 59.0514C154.245 60.442 153.622 61.8454 152.336 62.6289C151.714 63.0074 150.908 62.5179 150.905 61.808C150.898 60.0891 151.958 58.6204 152.548 57.0355C152.906 56.0734 153.209 55.0947 153.467 54.1034C152.469 54.3859 151.529 54.8337 150.642 55.4243L150.509 55.514C149.461 56.2333 148.143 55.0644 148.404 53.9425L148.414 53.9025L149.416 50.143L144.649 51.2938C143.666 51.5311 142.912 50.8442 142.819 49.8991C142.72 48.8943 142.783 47.8944 142.992 46.926C139.841 47.9185 136.626 48.6908 133.401 49.4123L132.917 49.5201C125.838 51.0926 118.606 52.4809 112.111 55.8465C109.243 57.3325 106.614 59.0917 104.222 61.2676C103.04 62.3427 101.959 63.5259 101.013 64.8136C100.569 65.4178 100.153 66.043 99.773 66.689L99.4684 67.2149C99.3221 67.4687 99.1797 67.7301 99.0926 68.0035L99.0496 68.1404C98.9791 68.3716 98.9029 68.6755 98.9671 68.8783C99.0595 69.1704 99.588 69.6506 99.9616 69.5191C100.012 69.5012 100.038 69.5675 100.01 69.602C99.6804 69.9985 99.2168 70.0699 98.7453 69.8706C97.9995 69.5551 97.8136 68.8348 97.896 68.0832C98.1003 66.2231 99.3941 64.172 100.417 62.6536C104.63 56.4004 111.561 52.6587 118.553 50.3144C127.247 47.3994 136.462 46.4042 145.07 43.1955Z" fill="black"/>
<path fill-rule="evenodd" clip-rule="evenodd" d="M143.152 128.274C141.732 127.695 140.465 126.728 139.538 125.493C139.216 125.063 139.133 124.61 139.2 124.195C139.276 123.729 139.552 123.306 139.928 123.023C140.305 122.739 140.777 122.598 141.233 122.67C141.63 122.732 142.024 122.949 142.337 123.399L142.402 123.489C142.953 124.235 143.67 124.846 144.488 125.241C145.276 125.621 146.158 125.798 147.07 125.695C148.808 125.499 150.005 124.559 151.278 123.282C151.436 123.121 151.594 122.955 151.752 122.786C151.852 122.633 151.991 122.534 152.146 122.483C152.317 122.425 152.511 122.429 152.689 122.491C152.86 122.55 153.013 122.664 153.116 122.815C153.213 122.958 153.269 123.135 153.251 123.339C153.134 124.661 152.443 125.842 151.461 126.769C150.37 127.799 148.924 128.511 147.563 128.761C146.064 129.036 144.536 128.839 143.152 128.274ZM148.271 107.866C149.866 108.836 152.297 111.098 150.581 113.503C148.56 115.624 145.652 113.193 144.219 112.093C142.89 111.241 141.396 113.433 142.629 114.428C152.987 122.099 157.19 108.12 149.078 106.726C148.184 106.572 147.853 107.566 148.271 107.866ZM129.711 98.9429C129.887 96.7541 133.219 96.257 133.551 98.423C133.847 100.363 133.498 102.145 132.624 103.892C131.79 105.561 129.692 104.783 129.533 103.263C129.32 101.226 129.601 100.304 129.711 98.9429ZM155.076 97.9738C155.541 97.3652 156.212 96.9496 157.015 97.1845C159.526 97.9185 158.786 101.485 157.904 103.22C157.425 104.163 155.876 104.402 155.176 103.572C154.036 102.219 153.489 99.5156 154.94 98.1825C154.979 98.1136 155.023 98.044 155.076 97.9738ZM132.589 89.3654L132.986 89.2959C134.213 89.0836 135.738 88.8796 136.606 89.8665C137.067 90.3898 137.225 91.3624 136.606 91.8633C135.518 92.7446 134.314 92.4031 133.01 92.4777C131.935 92.5394 130.902 92.7174 129.867 93.0135C127.595 93.663 125.744 94.8486 123.804 96.1506C123.55 96.3213 123.29 95.9956 123.411 95.7574C124.531 93.563 126.701 91.7604 128.875 90.6616C130.036 90.0751 131.305 89.5885 132.589 89.3654ZM152.787 88.3823L153.091 88.4445C156.395 89.1353 160.687 90.5153 162.251 93.7615C162.311 94.2205 162.248 94.3189 162.197 94.3832L162.18 94.4046C162.137 94.4595 162.104 94.5351 161.905 94.5976C161.85 94.5844 161.794 94.5705 161.737 94.5557C161.02 94.3677 160.453 94.1087 159.904 93.84L159.308 93.5465C158.617 93.2076 157.92 92.881 157.181 92.6399C155.605 92.1254 153.983 91.7631 152.337 91.5696C151.98 91.5277 151.636 91.4072 151.365 91.2006C151.108 91.0046 150.911 90.7332 150.821 90.3724C150.705 89.9056 150.739 89.5521 150.989 89.1309C151.177 88.8146 151.447 88.5953 151.756 88.4694C152.071 88.3411 152.43 88.3108 152.787 88.3823Z" fill="black"/>
<path fill-rule="evenodd" clip-rule="evenodd" d="M159.218 117.651C157.825 117.389 156.385 117.463 155.001 117.158C153.651 116.86 152.579 115.976 151.275 115.564C150.127 115.201 148.782 115.447 147.888 116.15C147.057 115.765 146.114 115.682 145.169 115.809C143.736 116.002 142.399 116.608 141.123 117.264C140.975 117.34 140.827 117.413 140.679 117.486C138.321 117.427 135.903 117.432 133.589 117.937C131.54 118.385 129.603 119.428 128.381 121.169C127.013 123.118 126.767 125.599 126.556 127.902C126.422 129.364 128.451 129.66 129.139 128.602C129.852 127.505 130.594 126.405 131.544 125.495C132.623 124.463 133.936 124.056 135.407 123.962C138.653 123.754 141.922 123.928 145.172 123.784C147.056 123.701 149.153 122.976 149.912 121.338C150.723 122.608 152.559 123.363 154.069 123.478C155.666 123.599 157.286 123.309 158.866 123.642C160.376 123.96 162.171 125.084 161.835 126.883C161.638 127.94 162.973 128.563 163.588 127.623C166.097 123.78 163.624 118.48 159.218 117.651Z" fill="black"/>
</svg>
