<svg width="259" height="324" viewBox="0 0 259 324" fill="none" xmlns="http://www.w3.org/2000/svg">
<path fill-rule="evenodd" clip-rule="evenodd" d="M245.914 194.94C248.078 193.81 250.191 192.582 252.27 191.304C253.735 190.428 252.438 188.22 250.936 189.018C250.168 189.426 249.403 189.838 248.635 190.244C249.24 189.723 249.8 189.156 250.302 188.538L250.267 188.504C252.203 186.769 249.716 183.494 247.515 184.92C245.573 186.328 243.613 187.765 241.384 188.692C236.768 190.65 231.676 190.974 226.721 191.031C224.907 190.894 223.175 191.209 221.416 191.559C222.106 188.791 223.832 186.7 224.748 184.019C225.423 181.312 221.517 179.468 220.133 182.07C219.793 182.709 219.469 183.355 219.153 184.005C216.161 186.727 211.165 186.488 208.147 189.411C206.428 190.937 205.587 193.008 205.255 195.086C205.029 196.497 205.38 197.912 204.527 199.162C200.403 204.997 193.888 214.22 190.578 220.641C188.236 205.382 181.98 186.508 175.517 172.556C173.38 168.094 170.935 163.733 167.725 159.951C168.089 158.69 166.805 156.451 165.988 157.14C163.475 154.068 159.032 153.273 155.459 151.746C150.637 149.683 146.635 145.395 144.669 140.521C142.141 131.241 135.92 130.062 127.292 130.472C119.035 130.462 112.926 133.995 111.124 142.403C107.464 148.786 98.8218 147.73 92.6044 149.42C88.0477 150.461 83.6257 152.071 79.4232 154.115C74.748 149.679 58.004 168.297 56.482 173.089C57.378 173.263 58.2685 173.472 59.151 173.727C59.9369 173.954 59.6069 175.142 58.8142 174.952C57.8278 174.715 56.8351 174.551 55.8377 174.438C55.8072 174.534 55.7806 174.629 55.7608 174.722C55.6488 174.715 55.537 174.705 55.4251 174.698C55.6733 174.827 55.9122 174.977 56.1451 175.17C56.7079 175.638 55.9752 176.54 55.3771 176.168C54.8137 175.746 54.0757 175.812 53.3999 175.671C53.3597 177.061 48.4006 175.506 47.6303 175.045C44.2068 174.617 40.6847 175.076 37.4887 173.425C33.2361 172.529 28.9515 171.538 24.7467 170.397C23.6335 170.831 22.5873 172.385 23.4715 173.525C23.9688 174.043 23.3295 174.89 22.7033 174.522C20.6031 173.285 18.9789 171.355 17.6018 169.275C16.9537 168.621 15.8031 168.761 14.9323 168.49C14.8158 168.699 14.7472 168.932 14.7482 169.172C11.0542 169.78 13.6894 173.816 15.5464 175.074C14.5613 175.715 14.5239 176.972 14.6101 178.021C14.4013 178.395 14.3316 178.858 14.5133 179.277C15.208 180.879 16.7103 182.227 17.8526 183.525C19.1139 184.957 20.2384 186.398 21.7731 187.56C27.6227 192.02 34.6818 194.514 41.9236 195.49C44.4949 195.885 48.1936 196.489 49.7857 198.664C49.3951 201.246 48.6778 203.722 48.0271 206.239C47.1172 209.58 47.1791 213.078 47.167 216.485C47.0399 216.383 46.7956 216.404 46.7593 216.599C46.5476 218.011 46.3902 219.455 45.5322 220.641C44.7801 222.848 44.2796 225.201 43.9984 227.519C42.872 238.508 42.603 249.821 45.1429 260.639C46.123 264.653 47.717 268.467 49.8888 271.979C50.5363 273.026 51.5775 273.333 52.5123 273.128C55.6412 274.754 59.5828 275.275 62.9553 274.862C74.4527 271.606 70.4466 279.446 86.567 277.045C114.392 273.499 142.513 280.468 170.279 276.377C170.963 281.661 179.915 280.145 183.025 277.911C192.349 270.977 196.979 249.023 201.658 237.885C204.875 229.107 210.261 213.56 217.314 207.669C219.429 206.014 221.986 205.143 224.544 204.44C234.091 201.979 243.674 199.651 253.239 197.259C254.861 196.859 254.57 194.092 252.835 194.269C250.533 194.505 248.223 194.718 245.914 194.94Z" fill="white"/>
<path fill-rule="evenodd" clip-rule="evenodd" d="M33.3898 193.294C32.7433 193.214 32.1095 192.984 31.48 192.802C30.5187 192.521 29.5764 192.193 28.649 191.819C26.7349 191.052 24.8778 190.145 23.137 189.036C20.325 187.241 17.8405 184.942 15.9666 182.173L15.8379 181.98C14.7681 180.35 12.7947 176.73 15.0074 175.492C13.5813 174.3 12.2334 172.159 12.3095 170.507C12.4172 168.169 15.282 168.201 16.763 169.192C17.7327 169.841 18.4595 170.75 19.1883 171.644C19.9954 172.637 20.8574 173.584 21.7531 174.495C21.9908 174.736 22.2309 174.972 22.4751 175.204L22.7207 175.435C22.6827 175.344 22.6489 175.251 22.6193 175.156C22.125 173.616 22.7144 171.61 24.2545 170.904C25.1971 170.472 26.1759 170.736 27.0892 171.103L27.2292 171.16C28.4588 171.669 29.7031 172.119 30.9834 172.481C36.2017 173.954 41.6482 174.199 46.9954 174.934C49.0552 175.22 51.1531 175.579 53.2024 176.107C53.9841 172.787 55.9003 169.604 57.9791 166.986C67.9341 154.459 84.3517 150.319 99.3707 147.639C100.74 147.396 101.874 149.209 102.671 148.78C104.181 147.968 105.51 146.819 106.676 145.569C109.163 142.904 110.927 139.77 113 136.801C114.024 135.334 116.382 136.646 115.431 138.221L114.966 138.99C113.048 142.142 110.924 145.391 108.174 147.835C106.712 149.133 105.09 150.158 103.235 150.798C101.83 151.282 99.8588 151.69 98.3208 151.221L98.1362 150.952C98.1973 151.042 98.2588 151.131 98.3207 151.221C102.335 157.039 107.371 161.964 112.678 166.611C118.035 171.3 123.814 175.498 129.628 179.604L130.112 179.945C139.583 173.035 147.584 164.02 153.197 153.721C152.021 153.58 150.857 152.825 149.851 152.263C148.641 151.583 147.502 150.771 146.614 149.689C144.681 147.332 144.933 144.295 144.584 141.435C144.563 141.258 144.798 141.213 144.905 141.302C145.953 142.173 146.321 143.6 146.758 144.832C147.24 146.187 147.785 147.303 148.89 148.256C149.919 149.144 151.174 149.796 152.393 150.378C153.021 150.676 156.142 151.442 156.497 152.077C161.889 150.811 167.141 152.998 171.136 156.689C174.996 160.254 177.829 164.889 180.331 169.465C182.999 174.347 185.186 179.436 187.07 184.667C188.98 189.976 190.444 195.402 191.249 200.99C191.928 205.701 192.345 210.486 192.615 215.25L192.648 215.846C196.636 209.583 200.724 203.386 204.897 197.245C203.948 194.71 204.998 192.124 206.775 190.166C208.744 188 211.467 186.994 214.072 185.823L214.415 185.668C215.67 185.095 216.921 184.464 218.006 183.606C219.05 182.778 219.816 181.636 220.915 180.873C222.512 179.762 225.411 179.998 225.485 182.427C225.523 183.761 224.95 185.223 224.426 186.421C223.833 187.776 223.032 189.004 222.081 190.133C222.037 190.185 221.989 190.227 221.941 190.26L221.904 190.283C223.218 190.5 224.543 190.676 225.893 190.737C228.616 190.862 231.369 190.661 234.035 190.086C236.764 189.499 239.409 188.543 241.864 187.212C243.962 186.075 245.906 184.604 248.289 184.257C248.509 184.223 248.731 184.202 248.959 184.189C249.339 184.168 249.719 184.616 249.569 184.992C249.487 185.2 249.4 185.405 249.305 185.612C248.481 187.427 247.218 189.188 245.641 190.525L245.519 190.627C246.075 190.435 246.622 190.219 247.161 189.976C250.328 188.55 253.201 186.394 256.596 185.527C256.757 185.485 256.919 185.447 257.082 185.411C258.132 185.185 258.686 186.326 258.069 187.108C257.969 187.235 257.87 187.36 257.767 187.484C256.252 189.365 254.581 191.111 252.738 192.679C252.107 193.216 251.456 193.736 250.793 194.233C250.513 194.443 250.232 194.649 249.948 194.852L249.808 194.951C250.14 194.717 250.467 194.478 250.793 194.233C252.871 193.603 254.921 192.857 256.926 192.031C257.722 191.703 258.341 192.51 258.426 193.174C258.709 195.397 256.241 197.006 254.635 198.075C253.026 199.149 251.253 199.965 249.438 200.62C245.949 201.881 242.284 202.454 238.625 202.967L236.848 203.215C229.813 204.199 222.466 205.376 217.419 210.851C214.59 213.92 212.676 217.733 210.924 221.484C209.175 225.232 207.639 229.078 206.181 232.946C204.671 236.949 203.355 241.026 201.956 245.069C200.671 248.781 199.137 252.446 197.618 256.074L197.378 256.647C194.152 264.357 190.298 271.619 184.928 278.056C184.043 279.119 182.612 277.611 183.43 276.558C189.047 269.313 192.956 260.764 196.182 252.236C197.65 248.356 198.88 244.382 200.291 240.48L201.131 238.163C202.252 235.073 203.383 231.987 204.563 228.922C206.057 225.043 207.698 221.212 209.576 217.505L209.776 217.114C211.614 213.538 213.799 210.013 216.806 207.307C222.218 202.433 229.42 201.264 236.383 200.338L238.573 200.049C241.517 199.658 244.469 199.226 247.332 198.439C248.984 197.987 250.598 197.407 252.115 196.608C252.719 196.291 253.309 195.943 253.879 195.562C252.252 196.04 250.602 196.431 248.923 196.737C248.101 196.887 247.288 197 246.476 197.078C244.387 197.285 242.314 197.276 240.174 197.164C239.993 197.154 239.933 196.868 240.128 196.833C241.618 196.567 243.11 196.236 244.596 195.876L245.042 195.767C245.05 195.52 245.148 195.258 245.35 195.009C246.09 194.108 247.495 193.647 248.469 193.011C249.489 192.345 250.478 191.627 251.42 190.857C252.282 190.154 253.11 189.41 253.907 188.632L254.145 188.397C254.066 188.476 253.987 188.554 253.907 188.632C251.756 189.626 249.717 190.9 247.471 191.686C245.686 192.314 243.814 192.736 241.926 192.887L241.808 192.896L241.691 192.903C239.72 193.045 237.736 192.988 235.795 193.415C235.577 193.464 235.509 193.172 235.704 193.089C237.4 192.384 239.164 192.111 240.948 191.781C240.986 191.642 241.083 191.517 241.252 191.437L241.708 191.219C243.067 190.566 244.333 189.907 245.462 188.848C246.459 187.911 247.29 186.817 247.913 185.603C245.418 186.151 243.227 188.042 240.958 189.105C238.486 190.266 235.871 191.098 233.183 191.572L232.877 191.625C227.855 192.463 221.816 192.356 217.317 189.744C217.174 189.659 217.277 189.467 217.425 189.49C218.701 189.699 219.964 189.947 221.228 190.166C220.981 189.94 220.871 189.534 221.156 189.209C222.291 187.908 223.188 186.421 223.762 184.794L223.871 184.476C224.136 183.722 224.582 182.55 224.126 181.869C223.691 181.22 222.666 181.309 222.054 181.583C220.78 182.158 219.933 183.594 218.859 184.46C217.689 185.407 216.358 186.109 214.995 186.736L214.708 186.867C212.351 187.928 209.832 188.82 207.979 190.693C206.982 191.699 206.124 192.956 205.837 194.366C205.706 195.013 205.706 195.678 205.879 196.319C206.016 196.82 206.304 197.129 206.139 197.638C205.924 198.295 205.161 199.081 204.768 199.667C204.312 200.343 203.857 201.021 203.403 201.7C202.497 203.057 201.595 204.418 200.693 205.777C198.888 208.499 197.103 211.234 195.333 213.977C194.757 214.87 194.182 215.765 193.61 216.66L192.753 218.003L192.3 218.712L191.528 219.927C191.555 220.039 191.553 220.157 191.517 220.26C191.386 220.636 191.139 220.892 190.832 221.078L190.778 221.11C186.269 228.239 181.833 235.414 177.352 242.56C177.113 244.741 176.889 246.924 176.695 249.108C176.253 254.049 175.951 259.003 175.854 263.964C175.807 266.365 176 268.78 176.103 271.179C176.154 272.324 176.223 273.467 176.314 274.611L176.38 275.421C176.47 276.534 176.52 277.64 176.12 278.701C175.765 279.633 174.683 279.842 174.043 279.132C165.692 278.796 157.334 278.54 148.976 278.382C134.017 278.095 119.05 278.139 104.088 278.428C96.5736 278.574 89.0567 278.779 81.544 279.033C77.8426 279.155 74.139 279.329 70.4355 279.38C68.4402 279.407 65.2998 278.68 65.1388 276.434L65.1348 276.366C64.8855 276.433 64.6278 276.488 64.3637 276.528C64.2461 276.546 64.1332 276.541 64.0289 276.517L63.9771 276.503C61.0027 277.41 57.2403 276.116 54.414 275.362L54.1806 275.3C51.4827 274.597 49.3151 273.591 47.5468 271.354C44.4518 267.438 43.3954 262.18 42.8461 257.333C42.3306 252.773 42.3011 248.127 42.9285 243.575C42.5588 239.866 42.9201 236.038 43.3405 232.35C43.5475 230.526 43.7905 228.704 44.082 226.891C44.2447 225.878 44.4581 224.876 44.6757 223.877C44.7626 223.477 44.8349 223.047 44.945 222.632L44.9947 222.454C44.6567 222.499 44.2869 222.425 43.9299 222.228C43.0806 221.761 42.8334 220.816 42.8186 219.912C42.7721 217.185 43.0975 214.381 43.3848 211.671C43.6743 208.966 44.0714 206.25 44.5912 203.579L44.7256 202.89C45.1195 200.892 45.5701 198.829 46.3637 196.951C43.3828 196.444 40.4102 195.905 37.518 194.987C36.1067 194.537 34.7166 193.977 33.3898 193.294ZM188.98 221.668C188.933 221.679 188.889 221.692 188.845 221.704C187.653 222.038 186.449 222.321 185.249 222.626C183.174 223.148 181.146 223.731 179.217 224.638C178.813 229.74 178.214 234.825 177.645 239.913L177.531 240.931C178.406 239.308 179.302 237.697 180.238 236.106C183.088 231.255 186.003 226.443 188.98 221.668ZM45.7213 222.174C45.7277 222.78 45.6009 223.41 45.5333 223.993C45.4235 224.94 45.3347 225.891 45.2227 226.838C44.9946 228.74 44.8002 230.644 44.6587 232.555C44.5678 233.775 44.5087 234.998 44.4558 236.222C45.6538 231.743 47.2404 227.362 48.7488 222.974C48.4967 222.948 48.2389 222.886 47.973 222.815L47.5254 222.695C47.2615 222.627 46.4053 222.416 45.7213 222.174ZM192.753 218.003L192.762 218.204C192.793 218.916 192.367 219.318 191.849 219.422C192.149 218.948 192.451 218.475 192.753 218.003ZM55.6828 184.247C56.9441 184.358 58.18 184.627 59.3589 185.092L59.4726 185.136C60.3446 185.473 61.6194 185.896 61.9046 186.827C61.9849 187.091 61.7694 187.309 61.5223 187.33C60.5758 187.406 59.4603 186.392 58.5835 186.049C57.6075 185.669 56.5849 185.386 55.5497 185.235C53.2237 184.895 50.7983 185.153 48.6096 186.001C48.4807 186.052 48.4004 185.846 48.5166 185.785C50.7223 184.585 53.1751 184.025 55.6828 184.247ZM28.9554 190.291C28.8096 190.162 28.6638 190.027 28.5201 189.892C27.3875 188.82 26.3844 187.569 25.6417 186.194L25.4463 185.822C24.8414 184.65 24.0986 182.981 25.5201 182.137C26.3694 181.632 27.392 181.759 28.3385 182.065C28.3997 182.084 28.461 182.106 28.5223 182.127C28.9448 182.275 29.3525 182.452 29.7159 182.621C31.2941 183.346 32.6863 184.401 34.1441 185.331C35.7236 186.339 37.2833 186.984 39.1062 187.361L39.2779 187.396C40.9892 187.734 42.8441 187.951 44.0378 189.359C44.3378 189.714 44.0631 190.38 43.5455 190.204C40.2455 189.091 36.7532 188.845 33.7237 187.017C32.4687 186.261 31.2814 185.392 29.999 184.676C29.3187 184.295 28.6164 183.962 27.8679 183.734L27.459 183.613C27.2194 183.543 26.9335 183.474 26.7413 183.543C26.3753 183.67 26.4921 183.866 26.6053 184.208L26.6166 184.242C27.5061 186.994 30.0413 189.298 32.3906 190.822C32.9293 191.172 33.4807 191.494 34.0427 191.792C37.8467 193.82 42.103 194.764 46.2834 195.885C46.2834 195.885 48.7005 196.56 49.5012 196.813C50.3927 196.739 51.4089 197.054 52.0808 197.431C52.7336 197.796 53.2597 198.287 53.6568 198.864C53.6568 198.864 54.0392 199.183 54.1089 199.677C54.3097 200.136 54.4449 200.63 54.5125 201.146C54.5505 201.448 54.4744 201.681 54.3308 201.846C54.7629 208.48 52.9714 215.078 50.9518 221.383L50.7516 222.005L50.623 222.399C48.4449 229.084 45.9456 235.721 44.8301 242.691C44.0843 247.347 44.1075 252.166 44.6547 256.843L44.6933 257.166C45.2324 261.588 46.2698 266.549 49.0808 270.108C50.5146 271.924 52.2133 272.731 54.3851 273.316L54.504 273.348C56.4688 273.865 58.497 274.599 60.523 274.821C62.4033 275.026 63.9794 274.326 65.6716 273.671L65.6737 273.669C69.2378 270.513 70.8561 265.919 72.0519 261.281C75.1512 249.281 74.7667 236.824 73.0089 224.648C72.092 218.287 70.8455 211.98 69.6033 205.675C68.9822 202.524 68.3124 199.379 67.7568 196.217L67.4268 194.357C67.2447 193.323 67.0686 192.288 66.9181 191.249C66.7153 189.852 66.654 188.478 66.5843 187.072C64.8772 184.242 62.3991 181.911 59.5279 180.239C57.4723 179.041 55.2962 178.21 53.0505 177.608C46.63 175.877 39.6307 176 33.1702 174.668C30.9998 174.221 28.9396 173.558 26.8805 172.763L26.5997 172.654C25.6554 172.286 24.692 172.081 24.223 173.195C23.8892 173.988 24.0878 174.812 24.5885 175.478C25.8159 177.109 28.2835 177.866 30.1406 178.453C31.2582 178.809 32.399 179.09 33.5526 179.299C34.7061 179.508 35.8638 179.561 36.9709 179.969C37.3976 180.125 37.4821 180.804 36.9709 180.924C35.5681 181.252 34.1568 180.971 32.7624 180.698C31.2307 180.396 29.7223 179.967 28.2561 179.424C27.9857 179.324 27.7058 179.219 27.4207 179.107L27.2061 179.022C27.4279 179.183 27.6497 179.341 27.8737 179.5C27.9328 179.542 27.8969 179.654 27.8188 179.626C24.3713 178.34 21.2345 176.018 18.8045 173.272L18.6835 173.134C17.8279 172.153 15.8779 169.186 14.2343 170.012C12.6908 170.787 15.3218 173.775 16.3217 174.996L16.4378 175.14C17.5744 175.169 18.6751 175.877 19.5963 176.448C21.1956 177.439 22.8667 178.293 24.5695 179.092C27.954 180.683 31.5477 181.806 34.8963 183.477C34.9406 183.501 34.9068 183.557 34.8646 183.551C32.7329 183.211 30.6244 182.668 28.5646 181.994L28.4727 181.965L28.3808 181.934C27.0942 181.512 25.8244 181.034 24.5758 180.525C23.1878 179.958 21.8315 179.322 20.5153 178.601C19.3237 177.951 18.0012 176.778 16.6195 176.604C16.4716 176.585 16.3406 176.583 16.2265 176.594C14.6399 176.727 15.9519 179.356 16.3956 180.142C17.1202 181.433 17.9949 182.625 18.9984 183.714C21.0329 185.925 23.4984 187.677 26.1667 189.04C27.0773 189.505 28.009 189.915 28.9554 190.291Z" fill="black"/>
<path fill-rule="evenodd" clip-rule="evenodd" d="M111.129 50.584L112.954 52.7549C111.944 53.4672 110.99 54.1829 110.093 54.9021L110.092 54.8999C114.248 52.1874 118.85 50.584 123.822 50.584C133.399 50.584 152.85 58.8133 157.248 64.7491C159.43 67.6949 163.485 76.7381 165.589 86.5696C167.279 94.4691 169.792 116.786 167.279 125.172C164.061 135.905 153.477 145.824 142.563 145.824C131.648 145.824 114.704 137.942 102.644 120.668C102.093 119.878 95.7603 118.962 91.2429 115.997L92.4289 129.069L93.3304 136.673L93.1315 137.214C89.896 145.967 87.3322 150.534 85.4399 150.914C83.5089 151.302 79.5766 148.135 73.6428 141.415L72.8846 138.231C70.9588 130.11 69.9958 125.751 69.9958 125.153L69.9972 125.045C70.0256 123.67 70.4989 115.891 70.5086 113.797L70.5088 82.4191C76.8904 61.1957 82.9802 50.584 88.7782 50.584H111.129Z" fill="white"/>
<path fill-rule="evenodd" clip-rule="evenodd" d="M96.0085 43.3557C97.8848 42.6287 100.059 42.7661 101.84 43.8609C105.336 43.7108 108.814 45.7567 110.637 48.7431C110.675 48.7853 110.715 48.8276 110.751 48.8699L111.137 49.3204C111.503 49.7506 111.889 50.2247 112.195 50.7143C110.697 50.7486 109.45 51.3592 108.579 52.5924C107.958 53.4723 109.381 54.3085 110.016 53.4763L110.038 53.4458C110.561 52.7055 111.351 52.4187 112.229 52.4036C112.482 52.3994 112.673 52.3028 112.808 52.1604C112.862 52.3567 112.91 52.5552 112.954 52.7545C117.379 51.033 122.148 50.5772 126.899 50.9855C126.69 51.3228 126.516 51.6842 126.382 52.064C126.23 52.4945 126.554 52.9889 126.973 53.1039C127.425 53.2281 127.833 52.9631 127.997 52.5534L128.012 52.5133C128.195 51.996 128.493 51.5519 128.893 51.2076C131.129 51.5109 133.349 51.9932 135.516 52.615C138.119 53.363 140.698 54.2758 143.22 55.3209C142.793 55.4885 142.424 55.7717 142.165 56.2445C141.65 57.1882 143.068 58.0335 143.606 57.1313L143.625 57.098C143.678 57.0012 143.724 56.943 143.759 56.9099L143.771 56.8986L143.845 56.8644L143.984 56.8247L144.037 56.8116C144.084 56.801 144.103 56.8017 144.227 56.7949C144.391 56.7856 144.556 56.7864 144.721 56.7862C145.108 56.786 145.355 56.5702 145.466 56.2942C146.711 56.8562 147.94 57.4479 149.147 58.0678L149.434 58.2164C153.159 60.1637 156.688 62.721 158.736 66.4838C158.871 66.7353 158.913 67.0101 158.88 67.2721C159.317 67.7963 159.74 68.3373 160.145 68.8869C161.383 70.5692 162.29 72.4819 163.147 74.3777C164.873 78.1905 166.035 82.1068 166.942 86.1901C167.819 90.1255 168.526 94.1031 169.183 98.0807C169.912 102.5 170.518 106.957 170.645 111.44C170.869 119.431 169.308 127.469 164.823 134.196C160.821 140.199 154.796 144.965 147.651 146.49C140.383 148.042 132.693 146.529 126.966 141.684C126.042 140.904 126.169 139.33 126.966 138.531C127.868 137.631 129.199 137.755 130.118 138.531C135.511 143.094 143.362 143.798 149.861 141.473C155.869 139.321 160.576 134.359 163.464 128.786C166.988 121.989 167.582 114.181 167.041 106.661C166.745 102.532 166.13 98.4357 165.497 94.3461L165.114 91.8844C164.697 89.218 164.258 86.5552 163.686 83.916L163.552 83.3011C162.853 80.1184 162.035 76.8541 160.769 73.862C160.105 72.2917 159.307 70.7784 158.489 69.2842C158.331 68.9946 158.168 68.7009 158.001 68.405C157.777 68.4832 157.521 68.4959 157.253 68.4113C154.944 67.6927 152.571 67.2109 150.157 67.0502C149.057 66.9767 147.955 66.9653 146.854 67.0082C144.97 66.8985 143.034 67.0642 141.239 67.642C141.064 67.4913 140.886 67.3438 140.708 67.1963C140.66 67.1925 140.612 67.1874 140.564 67.1779C140.106 67.0878 139.784 66.7624 139.59 66.3513C139.58 66.3295 139.571 66.3078 139.562 66.286C139.333 66.1103 139.101 65.9375 138.867 65.7669C138.298 65.9146 137.799 65.4406 137.664 64.9211C137.538 64.8355 137.409 64.7526 137.281 64.6687C137.18 64.6932 137.081 64.7135 136.983 64.7207C136.564 64.7509 136.159 64.6867 135.787 64.4865C135.317 64.2331 135.016 63.8244 134.815 63.36C134.104 63.4038 133.384 63.1728 132.748 62.7552C132.231 62.4164 131.836 61.9487 131.443 61.4818C126.651 59.344 121.443 58.0818 116.223 57.7584C115.709 57.8573 115.198 57.9751 114.694 58.112C114.574 58.1446 114.405 58.2084 114.21 58.2849C115.374 58.1441 116.553 58.1302 117.748 58.3024C123.422 59.1231 127.84 63.3725 131.643 67.3837C132.548 67.2009 133.462 68.3729 132.625 69.1489L126.097 75.2001C126.258 75.8768 125.482 76.5439 124.802 76.3813C123.663 76.1074 122.521 75.8411 121.379 75.5793C120.187 76.156 118.689 76.0573 117.608 75.2212C117.558 75.1824 117.449 75.1202 117.354 75.0585C117.265 75.1318 117.146 75.2054 117.098 75.2367C116.714 75.4911 116.246 75.566 115.797 75.4945C115.335 75.4212 114.918 75.1868 114.559 74.8949C114.33 74.709 113.797 73.9332 113.5 73.8761L113.472 73.8728C113.669 73.8785 113.033 74.4701 112.862 74.5925C112.463 74.8772 112.022 75.0268 111.526 74.9723C110.661 74.8771 109.918 74.0885 109.495 73.3604L109.463 73.3045L109.449 73.2698L109.438 73.3073C109.436 73.314 109.434 73.3211 109.431 73.329C109.367 73.5004 109.168 73.6953 109.033 73.8151C108.648 74.156 108.171 74.3059 107.661 74.2169C107.23 74.1418 106.867 73.8811 106.576 73.5657L106.53 73.5154C106.444 73.4181 105.876 72.6544 105.966 72.4714L105.976 72.4559L105.948 72.45C105.602 72.535 105.312 72.4498 105.099 72.2716C103.913 72.0117 102.743 71.7088 101.609 71.3237C101.521 71.5731 101.434 71.8225 101.35 72.074C101.968 72.4566 102.541 73.0019 103.067 73.3907C104.064 74.1262 105.061 74.8617 106.056 75.5993L109.999 78.5088L110.45 78.3877C111.026 78.233 111.52 78.5685 111.732 79.0813L111.749 79.1257C111.833 79.3504 111.934 79.5581 112.053 79.757C113.038 79.7177 113.873 80.323 114.143 81.1912C114.386 81.1858 114.632 81.1951 114.883 81.2227C115.572 81.2984 116.036 81.8099 115.911 82.5122L115.902 82.5604L115.885 82.6386C116.284 82.8081 116.574 83.1355 116.638 83.6304C116.745 83.7913 116.831 83.9663 116.886 84.1611C117.174 85.1723 116.614 86.4222 116.316 87.3908L116.293 87.4667C116.101 88.1033 115.903 88.7368 115.702 89.37L115.203 90.9422C113.818 95.324 112.467 99.9438 113.588 104.537C113.827 105.51 112.585 105.949 112.046 105.188C110.74 103.346 109.329 101.61 107.847 99.9442L107.775 99.9327C106.738 99.7241 106.335 98.991 105.859 98.2436C105.578 98.3263 105.276 98.3457 104.985 98.2895C104.563 98.2081 104.185 97.967 103.886 97.6624C103.633 97.4041 103.401 96.7418 103.102 96.5776C102.729 96.3723 101.977 96.6657 101.53 96.5997C101.167 96.5463 100.828 96.4216 100.499 96.265C99.8944 97.0894 99.4936 98.0587 99.3954 99.1036C99.3571 99.501 99.2388 99.837 99.0677 100.116C99.6973 100.093 100.329 100.137 100.952 100.253C103.259 100.682 104.914 102.107 105.843 104.229C105.883 104.322 105.763 104.398 105.708 104.309C104.328 102.185 101.326 102.077 99.1459 102.825C96.8304 103.62 95.5311 105.66 95.0686 107.987C94.5616 110.538 95.2121 113.287 96.6003 115.46C97.2445 116.47 98.1235 117.392 99.2916 117.764C100.68 118.205 101.962 117.415 103.384 117.823C104.352 118.1 104.778 119.036 104.603 119.972C104.533 120.34 104.404 120.661 104.231 120.94C104.743 121.955 105.216 122.999 105.818 123.958C106.747 125.44 107.871 126.666 109.097 127.902C110.362 129.179 111.651 130.43 113.005 131.614C114.302 132.748 115.79 133.556 117.15 134.596C118.105 135.325 118.578 136.348 118.107 137.519C117.719 138.487 116.409 139.311 115.348 138.873C113.318 138.036 111.541 136.612 109.923 135.145C108.423 133.784 107.117 132.157 106.13 130.39C105.2 128.724 104.514 126.832 103.935 125.01L103.863 124.783C103.591 123.916 103.304 122.942 103.118 121.959C102.005 122.568 100.494 122.656 99.3024 122.492C97.3776 122.227 95.6219 121.257 94.2952 119.843C93.6768 119.185 93.1302 118.435 92.6583 117.621C92.7012 118.117 92.7267 118.596 92.7542 119.032C93.8572 120.24 94.2996 121.984 93.9081 123.576C94.8309 124.526 95.0895 125.952 94.6078 127.167C95.6179 128.169 95.5799 129.764 95.1432 131.212C96.3373 132.547 96.4503 134.627 95.518 136.134L95.4899 136.242C96.4313 137.818 96.219 139.854 95.0395 141.246C95.845 142.809 95.7204 144.911 93.7072 145.518C92.9735 145.739 92.2624 145.55 91.7302 145.139C92.2161 147.557 92.4335 150.011 91.7855 152.44C91.5276 153.404 90.5853 154.108 89.5945 154.108C88.7663 154.108 88.1642 153.691 87.7482 153.078C87.7968 154.298 87.7228 155.524 87.463 156.76C87.3062 157.507 86.6139 158.089 85.8789 158.269C86.144 158.568 86.2497 159.001 85.9955 159.451C84.9178 161.36 82.314 160.568 82.138 158.74C81.4026 158.191 81.0607 157.289 80.9192 156.315C80.713 154.894 80.6382 153.497 80.4045 152.095L80.3152 152.178L80.2691 152.218L80.2543 152.32C80.1204 153.013 79.7295 153.498 79.2223 153.788C79.3326 154.997 79.1285 156.229 78.3616 157.147C77.8507 157.759 76.9805 158 76.2345 157.867C76.1876 157.87 76.1397 157.869 76.0898 157.863C74.4003 157.638 73.4228 156.035 73.8675 154.564C73.1872 153.73 72.9007 152.671 73.1021 151.626C71.7857 150.754 71.8125 148.838 72.2684 147.3C70.8884 146.21 70.3693 144.174 71.0627 142.555C69.819 141.01 69.6459 138.856 70.491 137.097C69.1226 135.972 69.1305 133.801 70.4876 132.651C69.7649 131.216 69.329 129.496 70.0514 128.182C69.5418 127.62 69.2621 126.818 69.321 126.043C69.4074 124.905 70.16 124.119 71.0938 123.595L71.1584 123.239C71.3777 123.266 71.6114 123.205 71.8174 123.007C72.0212 122.811 72.231 122.654 72.448 122.523C72.6937 122.52 72.9052 122.411 73.0539 122.242C73.4608 122.104 73.8983 122.043 74.3836 122.037C75.4317 122.026 75.4687 120.458 74.4933 120.356C74.3393 120.201 74.1271 120.103 73.8971 120.103L73.7169 120.104C73.2957 120.108 72.8705 120.134 72.4797 120.301C72.2257 120.41 72.0299 120.574 71.8864 120.774C71.8596 121.077 71.6948 121.38 71.338 121.629C70.9258 121.917 70.3621 121.951 69.921 121.69C69.3035 121.325 69.2971 120.755 69.3683 120.135C69.5243 118.78 68.7451 117.504 68.9306 116.117C69.0128 115.504 69.2169 114.975 69.5496 114.547C68.848 113.496 68.7242 112.14 69.2644 110.987C68.139 109.776 67.9444 107.908 68.6621 106.451C68.6724 106.415 68.6805 106.379 68.6916 106.344C68.7728 106.097 68.8845 105.873 69.0077 105.66C68.3777 104.568 68.3824 103.228 69.0227 102.141C68.0528 101.01 68.0219 99.2097 68.8845 97.9911C68.8896 97.89 68.9002 97.789 68.9088 97.688C68.5129 96.6598 68.608 95.4908 69.1102 94.5346C68.931 94.1215 68.7928 93.6766 68.7045 93.2027C68.4783 91.9811 68.5947 90.7933 68.9327 89.6013C68.9874 89.4132 69.0487 89.2251 69.1142 89.037C69.1252 88.2206 69.1562 87.4077 69.1972 86.5963C69.0366 85.9095 69.0107 85.1547 69.0071 84.454L69.0061 83.9996C68.9982 82.8433 68.9177 81.1502 69.6485 80.1673C69.1793 79.1054 69.3721 77.7676 70.1553 76.926C69.6056 75.9802 69.4902 74.8188 70.0427 73.7695C70.1314 73.6006 70.2343 73.4434 70.3471 73.2946C70.3015 72.3336 70.5037 71.3425 71.0156 70.3874C71.3481 69.7657 71.8448 69.2273 72.4353 68.7966C72.4254 68.6692 72.4193 68.5419 72.4214 68.4166C72.4317 67.8574 72.5557 67.2958 72.7645 66.7719C72.3899 66.1323 72.2162 65.4114 72.4353 64.6345C72.6804 63.7553 73.325 62.9986 74.1297 62.5717C74.1945 61.7428 74.324 60.9187 74.5091 60.1057C74.0145 59.0039 74.4083 57.5498 75.5262 56.9008C75.3804 56.0203 75.5118 55.1072 76.1524 54.4195C76.3951 54.1589 76.6812 53.9613 76.989 53.8303C76.8407 52.9449 77.008 52.0239 77.62 51.3029C78.1199 50.7143 78.8606 50.3567 79.6144 50.3041C79.9047 48.7642 81.3753 47.6128 82.9269 47.7045C83.1208 47.0265 83.5841 46.4353 84.3028 46.1356C84.4869 46.0589 84.6728 46.0084 84.8581 45.9803C86.1197 44.7071 87.9981 43.8442 89.6243 43.4022C91.2554 42.9607 92.9089 42.918 94.3093 43.4313L94.4114 43.4699L94.5254 43.4551C95.02 43.4001 95.5142 43.3684 96.0085 43.3557ZM83.6137 147.707C83.178 147.571 82.6921 147.868 82.574 148.297C82.4494 148.751 82.727 149.201 83.1643 149.337C83.7092 149.507 84.2815 149.55 84.8494 149.55C85.3059 149.551 85.6944 149.161 85.6944 148.705C85.6944 148.246 85.3076 147.86 84.8494 147.859C84.3875 147.859 84.0466 147.842 83.6137 147.707ZM79.7381 138.729C79.0867 138.73 78.5282 138.885 78.0452 139.342C77.7232 139.646 77.7152 140.234 78.0452 140.538C78.3785 140.843 78.8621 140.861 79.2042 140.57L79.2701 140.511C79.278 140.504 79.2842 140.498 79.2891 140.493C79.3166 140.475 79.3443 140.457 79.3734 140.442L79.3183 140.478C79.2764 140.508 79.3737 140.459 79.4283 140.436L79.4455 140.429L79.451 140.427L79.4947 140.424C79.5756 140.42 79.657 140.42 79.7381 140.42C80.1801 140.419 80.6034 140.031 80.5832 139.574C80.5624 139.117 80.2117 138.729 79.7381 138.729ZM92.029 133.365C92.9438 132.804 92.1267 131.369 91.2093 131.886L91.1761 131.905C90.7058 132.194 90.1274 132.155 89.5946 132.155C88.5072 132.156 88.5053 133.847 89.5946 133.846L89.7746 133.845C90.5557 133.839 91.3457 133.785 92.029 133.365ZM84.8307 127.194C84.1396 127.064 83.3655 126.948 82.6383 127.027L82.5176 127.042H82.2938C82.0995 127.042 81.9112 127.12 81.7602 127.243C81.521 127.343 81.2946 127.476 81.0879 127.655C80.2646 128.369 81.4644 129.561 82.2831 128.851C82.3285 128.811 82.3813 128.779 82.44 128.752L82.485 128.733H83.3891C83.4712 128.733 83.5513 128.716 83.6293 128.691C83.9227 128.732 84.1961 128.79 84.3814 128.825C85.4445 129.025 85.9 127.395 84.8307 127.194ZM84.0589 110.967C82.7343 110.352 81.2672 110.357 80.0421 111.21C79.166 111.82 79.9798 113.259 80.8634 112.691L80.895 112.67C81.0048 112.593 81.1177 112.529 81.2317 112.471C81.8537 112.651 82.4798 112.66 83.0811 112.438L83.1593 112.408L83.206 112.426C84.1863 112.881 85.0458 111.424 84.0589 110.967ZM98.4831 108.317C97.1449 108.167 97.1342 106.053 98.4831 106.204C101.331 106.524 103.915 107.79 105.808 109.965C106.689 110.977 105.239 112.457 104.342 111.491L104.314 111.46C102.809 109.73 100.778 108.575 98.4831 108.317ZM83.4918 97.4599C83.1943 97.4274 82.8975 97.4111 82.6053 97.4253C81.9035 97.4591 81.0487 97.9274 81.3567 98.7737C81.6037 99.4517 82.4133 99.4785 82.813 99.1169C82.9792 99.1209 83.1453 99.1319 83.3107 99.1488C83.7521 99.1943 84.1892 99.2784 84.6242 99.3642C85.6866 99.5732 86.1415 97.9439 85.0735 97.7336L84.6012 97.6401C84.442 97.609 84.2814 97.5785 84.1201 97.5506C84.0236 97.5026 83.9201 97.4703 83.8094 97.462L83.7535 97.4599H83.4918ZM75.0948 84.3425L74.9956 84.329C73.5685 84.1464 71.2776 84.3144 71.1044 86.1318C71.0087 87.1382 72.4622 87.2014 72.7491 86.3408C73.8029 86.1508 74.8654 86.1144 75.912 86.2298C76.3113 85.824 76.3145 85.044 75.6498 84.8493C75.556 84.597 75.3602 84.3807 75.0948 84.3425ZM107.716 81.273C107.386 80.9702 106.846 80.93 106.521 81.273C106.334 81.4704 106.178 81.6898 106.054 81.9312L105.972 82.0942C105.958 82.1212 105.944 82.1481 105.929 82.1747C105.901 82.2239 105.87 82.2708 105.84 82.3186L105.82 82.3386C105.812 82.3467 105.802 82.3566 105.791 82.3687C105.487 82.6901 105.448 83.2496 105.791 83.5643C106.121 83.8671 106.661 83.9073 106.986 83.5643C107.173 83.3669 107.329 83.1477 107.453 82.9061L107.535 82.7433C107.549 82.7163 107.563 82.6894 107.578 82.6629C107.605 82.6134 107.637 82.5665 107.667 82.5187L107.7 82.4851C107.705 82.4801 107.71 82.4747 107.716 82.4686C108.02 82.1474 108.059 81.5877 107.716 81.273ZM90.3864 79.0714C89.1957 78.2273 87.7798 78.1879 86.6852 79.2035C85.8953 79.9365 87.0559 81.1109 87.8524 80.4241L87.8803 80.3991C87.9093 80.372 87.9387 80.3484 87.9678 80.3258C88.1106 80.4475 88.2921 80.5246 88.4996 80.5249C88.5538 80.525 88.6079 80.5249 88.662 80.526L88.7432 80.5289L88.7867 80.5325L88.7922 80.5335L88.8302 80.5497C88.8997 80.581 88.9956 80.6295 88.864 80.547C88.8934 80.5625 88.9208 80.5807 88.9487 80.5984L88.9973 80.6426C89.3159 80.944 89.8671 80.9837 90.1834 80.6504C90.7434 80.461 91.0407 79.5349 90.3864 79.0714ZM102.028 76.3017L102.05 76.2949C103.094 75.9967 102.65 74.3648 101.6 74.6643C100.487 74.9824 99.9549 76.0191 99.7322 77.0809C99.6387 77.5275 99.8632 77.9948 100.323 78.121C100.742 78.2362 101.268 77.9794 101.362 77.5305C101.428 77.2148 101.504 76.9469 101.625 76.6984L101.698 76.5565C101.732 76.4919 101.744 76.4811 101.859 76.3805C101.879 76.3636 101.967 76.3226 102.028 76.3017ZM84.3437 67.7861L84.1804 67.7489C83.1633 67.526 81.8132 67.4096 81.199 68.4183C80.6391 69.3372 82.0515 70.1738 82.6331 69.3051C82.642 69.3048 82.6521 69.3049 82.664 69.3059L82.6832 69.3081L82.9439 69.2869C83.2686 69.2846 83.5794 69.3421 83.8944 69.4167C84.952 69.6672 85.4034 68.0372 84.3437 67.7861ZM120.858 61.2863C121.628 60.5159 120.433 59.3199 119.663 60.0909C119.054 60.7002 118.466 61.3138 118.07 62.0879C117.863 62.4941 117.964 63.0052 118.374 63.2446C118.751 63.4655 119.321 63.3493 119.53 62.9414C119.873 62.2703 120.306 61.8387 120.858 61.2863ZM111.141 59.2641C110.38 59.7147 109.888 60.4569 109.589 61.3161C109.439 61.7472 109.76 62.2407 110.179 62.3559C110.63 62.4798 111.041 62.2157 111.203 61.8055L111.218 61.7654C111.298 61.5357 111.426 61.2643 111.585 61.0595C111.72 60.8847 111.93 60.7097 112.089 60.6516C112.469 60.5117 112.739 60.1663 112.704 59.7631C112.078 59.9797 111.496 59.7191 111.141 59.2641ZM88.3672 55.5866C87.5996 54.8739 86.5699 54.7794 85.6395 55.2108C85.2252 55.4027 85.1215 56.0002 85.3363 56.3675C85.5848 56.7925 86.0768 56.8636 86.4924 56.6708C86.3857 56.7203 86.5784 56.655 86.6616 56.6311C86.6722 56.636 86.8118 56.6297 86.8599 56.6303L86.9178 56.634C86.9182 56.6344 86.904 56.6341 86.8752 56.6332C86.9158 56.6423 86.9558 56.6533 86.9953 56.6659L87.0457 56.6833C87.0203 56.678 87.1345 56.7525 87.1663 56.7772L87.172 56.782C87.9685 57.5215 89.1666 56.3286 88.3672 55.5866Z" fill="black"/>
<path fill-rule="evenodd" clip-rule="evenodd" d="M153.708 116.647C154.02 116.239 154.781 118.017 154.936 118.234L154.944 118.244C155.62 119.064 156.173 120.318 156.251 121.37C156.254 121.402 156.254 121.432 156.254 121.463C157.339 121.314 158.424 121.162 159.509 120.996C159.928 120.68 160.515 120.778 161.084 121.065C162.351 121.705 161.734 123.737 160.369 123.705C156.678 123.617 152.908 124.091 149.248 124.518C147.366 124.737 145.487 124.97 143.614 125.268C141.865 125.546 140.076 125.939 138.305 126.015C138.209 126.019 138.168 125.875 138.255 125.83C139.816 125.028 141.599 124.543 143.285 124.073C145.109 123.564 146.946 123.087 148.796 122.684C150.457 122.323 152.126 122.052 153.799 121.809C153.786 121.776 153.773 121.742 153.763 121.707C153.551 120.995 153.556 120.178 153.511 119.428L153.485 119.03C153.443 118.343 153.402 117.047 153.708 116.647ZM148.271 107.866C149.866 108.836 152.297 111.098 150.581 113.503C148.561 115.624 145.652 113.193 144.219 112.093C142.89 111.241 141.397 113.433 142.63 114.428C152.987 122.099 157.19 108.12 149.078 106.726C148.185 106.572 147.853 107.566 148.271 107.866ZM122.62 99.3277C125.275 98.9225 127.994 98.876 130.676 99.01C132.071 99.0796 133.464 99.1831 134.854 99.3209C135.579 99.393 136.304 99.4737 137.027 99.5644C137.546 99.6295 138.347 99.9267 138.84 99.7914C140.347 99.3786 141.778 100.805 141.362 102.314C140.95 103.812 139.184 104.207 138.047 103.307C137.509 103.117 136.967 102.937 136.422 102.769C136.38 102.941 136.319 103.111 136.233 103.275C136.136 103.459 136.043 103.644 135.955 103.832C135.974 103.802 135.828 104.152 135.824 104.162L135.707 104.467C135.503 104.993 135.276 105.492 134.723 105.764C133.964 106.139 132.772 105.932 132.465 105.039C131.986 104.099 132.303 102.786 132.578 101.813L132.599 101.738C129.286 100.95 125.918 100.359 122.62 99.557C122.513 99.5308 122.502 99.3459 122.62 99.3277ZM162.021 95.7926C162.193 95.4474 162.584 95.4459 162.816 95.7702C163.333 96.4899 162.175 97.5208 161.692 97.9997L161.644 98.0481C160.558 99.1505 159.233 100.039 157.92 100.842C157.645 101.011 157.365 101.171 157.084 101.33C157.136 101.434 157.183 101.541 157.222 101.65C157.421 102.212 157.425 102.883 157.245 103.45C156.872 104.634 155.88 105.58 154.592 105.579C153.913 105.578 153.109 104.936 153.201 104.187C153.234 103.921 153.261 103.637 153.302 103.354C152.396 103.655 151.284 103.302 150.708 102.555C149.907 101.517 150.128 99.816 151.354 99.1714C152.256 98.6976 153.251 98.5779 154.228 98.3275C155.197 98.0794 156.159 97.7943 157.108 97.4758C158.044 97.1617 158.975 96.8252 159.905 96.4928C160.365 96.3281 160.82 96.1764 161.288 96.0369C161.497 95.9747 161.798 95.8114 162.021 95.7926Z" fill="black"/>
</svg>
