<svg width="240" height="324" viewBox="0 0 240 324" fill="none" xmlns="http://www.w3.org/2000/svg">
<path fill-rule="evenodd" clip-rule="evenodd" d="M114.339 135.723C119.555 131.751 132.647 129.964 138.214 133.789C143.711 137.631 144.31 143.843 146.872 149.557C149.289 148.417 153.281 150.05 153.982 152.294C154.851 153.352 154.89 156.325 155.489 157.747C181.569 161.9 185.528 182.24 188.667 205.332C192.82 228.764 202.247 252.145 198.154 276.257C198.687 277.029 199.108 277.78 199.497 278.671C200.428 280.256 199.228 282.501 197.349 282.414C194.918 282.2 192.51 281.908 190.066 281.817C183.293 281.582 176.514 281.61 169.738 281.696L168.814 281.708C134.666 282.133 100.52 282.971 66.3711 283.194C65.1322 283.195 64.5257 282.084 64.6911 280.987C65.0243 278.78 65.3334 276.571 65.656 274.363C57.5788 276.497 48.992 277.034 40.9377 274.587C40.3742 274.013 42.2505 274.324 42.5482 274.237C35.1356 269.17 37.3493 258.495 38.0059 250.807C42.0889 224.462 43.5282 195.313 59.3034 172.832C66.1279 163.658 76.1334 156.394 87.6303 154.76L87.9493 154.716C91.311 154.267 95.0576 154.123 97.9968 152.294C101.303 149.653 102.711 144.775 106.189 144.73C107.337 144.715 108.9 146.168 110.581 147.155C110.706 144.984 111.876 143.152 112.134 141.469L112.155 141.325C112.424 139.363 112.055 137.598 114.339 135.723ZM170.386 206.028C163.057 200.935 144.125 203.494 143.692 203.779C142.737 204.407 142.326 204.463 141.81 205.278C141.301 205.346 140.791 205.416 140.283 205.488C139.262 205.822 140.018 207.077 141.197 206.629C140.488 209.688 142.575 211.864 143.406 214.888C143.675 215.87 143.415 217.636 143.406 218.64C143.486 219.919 144.9 221.43 144.664 222.714C143.827 227.276 139.281 231.727 141.197 236.152C142.467 238.652 146.286 239.926 148.825 240.776C154.085 242.795 163.251 240.7 166.307 236.152C167.938 233.727 169.826 227.609 170.798 225.711L171.014 222.701C171.545 215.218 172.018 207.162 170.386 206.028Z" fill="white"/>
<path fill-rule="evenodd" clip-rule="evenodd" d="M104.912 144.288C105.418 143.84 106.167 144.403 105.845 145.009C105.123 146.37 104.382 147.659 103.412 148.862C102.824 149.592 102.194 150.282 101.556 150.964C103.194 152.381 104.599 154.141 105.925 155.791C107.621 157.9 109.225 160.099 111.129 162.029C113.007 163.933 115.084 165.264 117.594 166.151L118.101 166.327C120.624 167.213 123.319 168.409 124.741 170.798C125.021 171.269 124.457 171.851 123.982 171.557C121.512 170.027 118.609 169.719 115.92 168.708C113.323 167.732 111.058 166.229 109.058 164.31C107.06 162.395 105.383 160.216 103.634 158.083C101.904 155.974 100.042 154.172 97.9955 152.388C94.838 154.513 91.2338 155.438 87.5689 156.346L87.1689 156.445C83.4996 157.354 79.8499 158.409 76.4075 159.992C73.3725 161.387 70.3872 163.053 67.915 165.323C65.2906 167.733 63.2481 170.81 61.3786 173.819C57.1967 180.552 54.2567 187.928 51.6685 195.394C48.9765 203.159 46.7248 211.08 44.9071 219.095C43.9826 223.172 43.2317 227.278 42.6146 231.413C42.3176 233.404 42.0537 235.4 41.822 237.4C41.5746 239.536 41.5177 241.733 40.8628 243.786C40.582 244.666 39.9191 245.032 39.2555 245L39.1207 246.687C38.942 248.935 38.7754 251.184 38.7191 253.446C38.6257 257.208 38.668 260.959 38.9385 264.712L38.9768 265.224C39.1894 267.964 39.6643 271.042 41.7235 273.048C43.856 275.126 47.1356 275.779 50.0098 275.816C56.7043 275.903 63.1484 272.739 69.0723 269.963C75.1733 267.104 81.1076 263.931 86.8997 260.489C89.8494 258.736 92.7672 256.925 95.6479 255.061C97.0615 254.146 98.4651 253.216 99.8582 252.271C100.656 251.729 101.412 251.136 102.225 250.655C101.827 250.284 101.649 249.702 101.982 249.193C99.6341 247.153 98.6567 243.515 98.5424 240.57C98.4501 238.194 98.7998 235.824 99.0757 233.47C99.2149 232.282 99.3869 231.097 99.5654 229.916C99.636 229.449 99.6898 228.949 99.7722 228.456C93.4315 231.942 86.913 235.047 80.222 237.804C76.7922 239.218 73.3186 240.489 69.797 241.654L69.0832 241.889C65.7464 242.982 62.3299 244.014 58.8803 244.638C58.6959 244.672 58.5461 244.399 58.743 244.313C62.1047 242.829 65.5828 241.577 68.995 240.21L69.5557 239.982C69.4913 239.978 69.4245 239.969 69.3548 239.953C67.3536 239.47 65.3682 238.725 63.4055 238.098C61.5839 237.516 59.5374 237.151 57.8348 236.273C57.7038 236.205 57.7771 236.023 57.9047 236.014C59.8184 235.881 61.8958 236.439 63.772 236.768L64.4769 236.891C65.6577 237.099 66.8646 237.323 68.0396 237.615C68.0821 237.222 68.302 236.826 68.6149 236.594C72.0579 234.043 71.7083 228.892 72.0765 225.093L72.3496 222.272C72.8299 217.336 73.338 212.4 74.11 207.501C74.1512 207.24 74.5558 207.315 74.5575 207.562C74.5973 213.635 74.139 219.68 73.9093 225.743L73.8737 226.738C73.7467 230.48 73.6472 234.365 71.2917 237.244C71.621 237.051 72.0664 237.051 72.3332 237.369C72.6611 237.759 72.8504 238.197 72.8445 238.627C74.973 237.735 77.0922 236.819 79.2011 235.884C85.9813 232.879 92.6194 229.516 99.0818 225.878C99.7773 225.486 100.438 225.794 100.782 226.31L100.832 226.303C100.84 226.302 100.849 226.301 100.857 226.301L100.907 226.299C100.908 226.299 100.91 226.299 100.912 226.299C101.822 225.799 103.061 226.155 103.842 226.884C103.865 226.906 103.884 226.93 103.905 226.953C104.893 226.509 105.816 225.91 106.653 225.151C108.367 223.597 109.819 221.676 111.084 219.749C113.415 216.2 115.394 212.254 118.543 209.333C121.1 206.96 124.271 205.482 127.598 204.555C127.584 204.458 127.622 204.354 127.689 204.285C127.86 204.11 127.982 204.049 128.202 204.156C128.22 204.164 128.23 204.176 128.238 204.189L128.562 203.634C128.739 203.333 128.921 203.029 128.984 202.95C129.362 202.474 129.751 202.002 130.146 201.54C130.815 200.757 131.577 199.985 132.46 199.442C134.393 198.254 136.425 198.926 138.413 199.576C139.614 199.968 140.81 200.373 142.009 200.772L142.133 200.812C143.027 201.099 144.073 201.351 144.472 202.298C144.63 202.673 144.655 203.062 144.581 203.439C153.071 201.28 162.5 202.272 170.785 204.807C171.103 204.905 171.42 205.166 171.487 205.51C172.436 210.38 172.859 215.374 172.429 220.326C172.059 224.602 171.112 228.791 169.328 232.705L169.226 232.926C167.549 236.553 164.891 241.025 160.832 242.162C158.381 242.848 155.671 242.444 153.171 242.318C150.742 242.195 148.258 242.178 145.852 241.796C143.709 241.455 141.831 240.494 140.507 238.751C139.364 237.247 138.763 235.429 138.27 233.621C138.044 233.693 137.82 233.77 137.599 233.856C136.668 234.22 135.879 234.807 135.166 235.498C133.66 236.957 132.492 238.729 130.916 240.121C129.489 241.382 127.864 242.362 126.12 243.116C122.507 244.678 118.631 245.302 114.81 246.129L114.543 246.187C111.666 246.819 108.73 247.594 106.19 249.093C106.14 249.534 105.94 249.949 105.618 250.221C106.065 250.642 106.255 251.308 105.862 251.933C104.762 253.679 102.868 254.672 101.168 255.788L101.058 255.861C99.3854 256.97 97.6984 258.057 95.9977 259.122C92.5403 261.288 89.0107 263.334 85.4312 265.29C79.6739 268.437 73.7931 271.405 67.8058 274.097C68.1651 275.866 68.0338 277.689 68.3039 279.47L68.3453 279.724C68.4607 280.385 68.3049 280.937 67.8499 281.369L67.8017 281.413L67.8026 281.407L67.7599 281.447L67.7457 281.459L67.7504 281.455C67.698 281.503 67.6439 281.548 67.5887 281.586L67.5184 281.631C67.0802 281.897 66.516 281.894 66.0674 281.659L66.0161 281.631L65.9299 281.582C65.3371 281.24 64.9283 280.395 65.1742 279.724C65.7786 278.074 66.007 276.312 66.5652 274.651L66.1224 274.849L65.5387 275.104C59.2265 277.834 52.2149 280.134 45.3372 278.272C42.2984 277.45 39.4581 275.709 37.9376 272.873C36.4414 270.082 36.2299 266.841 36.1505 263.736C36.0525 259.904 36.2578 256.014 36.7629 252.214C37.102 249.664 37.5121 247.066 38.1446 244.542C37.8193 244.255 37.5801 243.843 37.517 243.333C37.2184 240.922 37.7409 238.416 38.0608 236.019C38.3732 233.677 38.7184 231.34 39.1089 229.011C39.8971 224.307 40.8129 219.612 41.8792 214.963C43.7768 206.688 46.2827 198.561 49.2996 190.627L49.5638 189.936C52.3515 182.685 55.5794 175.589 60.074 169.219C62.2241 166.171 64.4969 163.408 67.5349 161.212C70.3811 159.154 73.5915 157.672 76.9046 156.54C80.2213 155.407 83.6303 154.647 87.0996 154.175C90.6229 153.695 94.3418 153.401 97.6285 151.955C97.2127 151.21 97.5696 150.203 98.2693 149.74C100.624 148.184 102.802 146.159 104.912 144.288ZM180.294 211.967C180.392 211.817 180.627 211.912 180.583 212.089C179.438 216.783 178.363 221.487 177.661 226.27C176.393 234.904 176.627 243.65 176.73 252.348L176.735 252.797C176.789 257.482 176.863 262.167 177.017 266.85C177.096 269.217 177.25 271.607 177.166 273.975C177.12 275.26 176.778 276.475 176.657 277.744C176.551 278.854 176.645 279.98 176.698 281.092C176.734 281.831 175.644 281.799 175.569 281.092L175.475 280.177C175.351 279.019 175.199 277.868 174.82 276.76C174.364 275.427 174.145 274.118 173.987 272.718C173.744 270.573 173.636 268.407 173.543 266.248L173.479 264.754C173.088 255.728 173.102 246.66 173.734 237.644L173.781 237C174.407 228.478 175.493 219.269 180.294 211.967ZM155.881 158.253C155.581 158.13 155.686 157.678 156.018 157.757L156.62 157.9C161.034 158.958 165.369 160.104 169.489 162.072C173.612 164.042 177.102 166.982 179.876 170.597C185.267 177.625 187.508 186.166 189.277 194.698C191.242 204.18 193.032 213.696 195.015 223.174L195.383 224.94C197.217 233.768 198.95 242.601 200.226 251.533L200.318 252.181C201.605 261.367 202.379 270.87 200.974 280.08C200.697 281.902 197.666 281.448 197.784 279.648C198.127 274.444 198.372 269.267 198.135 264.052C197.898 258.835 197.409 253.641 196.68 248.47C196.066 244.118 195.151 239.82 194.342 235.503L194.215 234.821C193.537 231.149 192.839 227.481 192.142 223.813L191.1 218.32C189.538 210.096 187.946 201.864 186.147 193.692L186.04 193.211C184.28 185.348 181.685 177.112 176.404 170.868C171.045 164.532 163.374 161.341 155.881 158.253ZM136.409 241.652C136.538 241.364 136.988 241.396 137.127 241.652C137.67 242.654 137.73 243.933 137.833 245.065L137.844 245.181C137.974 246.562 138.09 247.948 138.161 249.333C138.295 251.962 138.359 254.587 138.351 257.22C138.342 259.917 138.288 262.612 138.143 265.306L138.103 266.027C137.971 268.368 137.748 270.979 136.636 273.026C136.232 273.77 135.133 273.551 134.899 272.799C134.132 270.335 134.526 267.414 134.722 264.891L134.875 262.922C135.026 260.953 135.171 258.984 135.285 257.012C135.442 254.315 135.571 251.616 135.695 248.918C135.736 248.041 135.78 247.165 135.826 246.288L135.897 244.974C135.957 243.874 135.952 242.668 136.409 241.652ZM50.1803 245.143L50.5198 244.815C51.562 243.795 52.879 242.223 54.4196 242.321C55.034 242.36 55.4255 242.87 55.2981 243.475C55.026 244.767 53.7079 245.438 52.7591 246.227C51.7196 247.091 50.74 248.015 49.7622 248.948C48.8948 249.775 48.0606 250.625 47.2464 251.503L46.942 251.833C46.6502 252.151 44.5719 254.032 44.7966 254.52L44.8089 254.542C44.8714 254.635 44.7672 254.763 44.6635 254.731C43.766 254.447 43.822 253.678 44.1613 252.898C44.8133 251.4 45.955 250.014 46.952 248.735C47.9462 247.458 49.0224 246.27 50.1803 245.143ZM139.661 207.575C138.967 205.934 136.41 205.968 134.959 206.067C131.304 206.314 127.349 207.239 124.097 208.948C120.726 210.719 118.455 213.558 116.423 216.697L116.328 216.845C114.347 219.925 112.439 223.571 109.338 225.688C107.758 226.767 105.914 227.753 103.997 228.179C103.866 228.411 103.652 228.594 103.373 228.66L103.243 228.69C102.697 228.811 101.849 228.944 101.116 228.864C101.121 229.223 101.118 229.579 101.127 229.918C101.152 230.892 101.163 231.869 101.163 232.843C101.164 234.883 101.054 236.928 101.139 238.968C101.215 240.773 101.47 242.659 102.336 244.272C102.971 245.456 103.81 246.239 104.822 246.987C107.312 245.469 110.127 244.543 112.985 243.847C116.441 243.006 119.979 242.445 123.357 241.304C124.982 240.754 126.545 240.036 127.961 239.059C129.464 238.023 130.611 236.62 131.792 235.248L131.977 235.035C133.182 233.652 134.497 232.329 136.201 231.579C137.667 230.934 139.601 230.819 140.883 229.819C141.554 229.296 141.61 228.538 141.681 227.761C140.859 227.878 139.99 227.69 139.171 227.594L138.747 227.544C137.973 227.452 137.216 227.351 136.454 227.154C136.313 227.117 136.313 226.904 136.454 226.867C137.355 226.635 138.248 226.536 139.171 226.427L139.388 226.4C140.223 226.291 141.101 226.125 141.921 226.309C142.068 225.75 142.28 225.215 142.578 224.68C142.996 223.928 143.787 223.076 143.894 222.198C143.926 221.936 143.865 221.626 143.742 221.394L143.699 221.315C143.647 221.222 143.586 221.128 143.496 221.07C143.486 221.082 143.464 221.095 143.419 221.109C142.788 221.308 142.238 220.999 141.946 220.523C140.706 220.677 139.354 220.625 138.191 220.677L137.016 220.734C135.76 220.791 134.447 220.816 133.267 220.563C133.102 220.527 133.053 220.253 133.218 220.182C134.668 219.562 136.428 219.364 137.981 219.125C138.849 218.992 139.723 218.89 140.593 218.773C141.172 218.695 141.787 218.566 142.387 218.535C143.892 216.661 143.081 213.704 140.987 212.897C140.224 213.233 139.538 213.038 138.704 212.966C137.872 212.895 137.038 212.846 136.203 212.85C134.529 212.857 132.755 213.298 131.098 213.108C130.828 213.077 130.578 212.718 130.846 212.499C132.115 211.463 133.933 211.126 135.544 210.905L135.877 210.86C136.417 210.789 137.074 210.686 137.755 210.625C137.909 210.324 138.186 210.097 138.601 210.04C138.724 210.023 138.848 210.014 138.972 210.003L138.97 209.991C139.982 209.942 139.938 208.231 139.661 207.575ZM70.3505 239.579C70.3326 239.606 70.313 239.633 70.2922 239.658L70.2601 239.695L70.4266 239.628L70.3505 239.579ZM157.327 203.908C153.066 203.45 148.799 203.547 144.525 203.67C144.183 204.788 142.993 205.741 141.84 205.777C142.743 207.152 142.836 209.013 142.203 210.471C143.548 211.006 144.706 211.968 145.409 213.338C146.384 215.236 146.256 217.349 145.293 219.103C146.115 219.848 146.6 221.058 146.552 222.198C146.497 223.469 145.74 224.555 145.111 225.608C144.431 226.746 144.408 227.748 144.199 229.023C143.893 230.889 142.635 232.02 141.017 232.727L141.103 233.066C141.52 234.691 142.039 236.405 143.232 237.593C144.766 239.122 147.146 239.108 149.173 239.204L149.271 239.209C151.127 239.302 152.982 239.411 154.838 239.516L156.23 239.594C158.366 239.711 160.418 239.725 162.162 238.313C165.009 236.006 166.961 232.19 168.196 228.811C170.789 221.719 170.82 213.936 169.63 206.549C165.638 205.262 161.496 204.356 157.327 203.908ZM121.89 215.675L121.921 215.677C122.799 215.777 123.401 216.488 123.616 217.331C123.928 218.556 123.775 219.664 124.525 220.77C125.297 221.908 125.771 222.819 125.883 224.224C125.929 224.802 125.908 225.379 126.037 225.945L126.13 226.341C126.229 226.764 126.31 227.171 126.261 227.625C126.216 228.039 126.015 228.362 125.599 228.495C124.247 228.928 123.202 227.93 122.853 226.669C122.551 225.58 122.954 224.282 122.528 223.259C122.292 222.692 121.857 222.218 121.611 221.647C121.367 221.081 121.245 220.49 121.206 219.875C121.132 218.712 122.16 217.314 121.586 216.26C121.464 216.035 121.603 215.668 121.89 215.675ZM103.921 203.67C104.837 203.484 105.876 203.057 106.779 203.412C107.244 203.595 107.473 204.161 107.081 204.555C106.4 205.238 105.41 205.276 104.492 205.437L104.412 205.451C103.327 205.652 102.24 205.843 101.152 206.023C99.1043 206.362 97.0521 206.662 94.9926 206.917C92.8774 207.179 90.7563 207.412 88.6322 207.588L87.8099 207.655C86.0157 207.799 84.1487 207.907 82.3882 207.632C82.1324 207.592 82.1736 207.219 82.3882 207.154C84.3169 206.57 86.4325 206.414 88.4265 206.166C90.5463 205.903 92.6626 205.625 94.7734 205.296C96.8807 204.966 98.9854 204.613 101.082 204.222C102.03 204.046 102.976 203.862 103.921 203.67ZM136.975 201.795C136.171 201.51 135.286 201.089 134.415 201.23C132.913 201.473 131.576 202.937 130.387 203.901L130.984 203.785C134.039 203.198 138.084 202.565 140.649 204.508C140.655 204.497 140.66 204.486 140.668 204.475C140.875 204.16 141.115 203.915 141.376 203.646C141.401 203.622 141.426 203.598 141.449 203.573L141.591 203.423L141.268 203.311C140.576 203.066 139.756 202.75 139.627 202.704L139.618 202.701C138.735 202.402 137.852 202.106 136.975 201.795ZM111.876 137.74C111.75 136.123 114.266 136.136 114.391 137.74C114.663 141.242 113.875 144.711 112.179 147.782C112.167 147.804 112.153 147.824 112.14 147.845C113.201 148.397 114.273 148.927 115.37 149.4C116.772 150.006 118.201 150.557 119.656 151.025C120.972 151.449 122.593 151.616 123.699 152.497C126.032 154.356 125.155 158.212 124.707 160.712L124.637 161.106C124.413 162.392 124.252 163.712 124.794 164.947C125.372 166.265 126.543 167.243 127.587 168.187L127.798 168.378C128.724 169.221 129.781 170.246 130.459 171.389C131.079 170.108 131.923 169.061 132.816 167.882C133.453 167.041 132.999 166.763 132.542 165.942C132.101 165.151 131.886 164.308 132.024 163.405C132.278 161.739 133.609 160.536 134.934 159.631C136.499 158.564 138.246 157.773 139.864 156.78C143.188 154.739 146.425 152.406 149.341 149.815C149.422 149.744 149.561 149.838 149.497 149.935C147.193 153.441 144.492 156.47 141.172 159.042C139.825 160.084 138.411 160.949 136.987 161.858L136.578 162.121C136.006 162.491 135.293 162.987 135.035 163.617C134.775 164.251 135.33 164.73 135.628 165.256C136.576 166.924 136.119 168.481 134.995 169.896L134.943 169.961C133.826 171.338 132.979 172.618 132.575 174.377C131.705 178.156 132.916 182.091 134.184 185.638L134.235 185.778C134.921 187.69 135.65 189.588 136.246 191.53L136.41 192.067C136.95 193.855 137.392 195.617 136.786 197.455C136.58 198.08 135.728 198.228 135.374 197.639C134.126 195.565 133.815 193.069 133.032 190.789C132.269 188.566 131.394 186.384 130.657 184.152C129.708 181.279 129.073 178.186 129.418 175.172C129.408 175.154 129.397 175.138 129.388 175.119L129.147 174.591C128.488 173.16 127.852 171.911 126.655 170.77C125.406 169.58 124.05 168.527 123.067 167.087C120.933 163.959 122.253 160.479 122.511 157.059L122.54 156.639C122.587 155.929 122.613 154.964 122.149 154.472C121.627 153.919 120.404 153.778 119.712 153.533C117.923 152.9 116.161 152.162 114.482 151.276C112.884 150.433 111.336 149.501 109.895 148.41L109.164 147.86C108.012 146.99 106.817 146.04 106.044 144.855C105.955 144.719 106.106 144.499 106.268 144.564C107.557 145.088 108.736 145.921 109.942 146.645C109.961 146.601 109.983 146.556 110.007 146.512C111.5 143.809 112.114 140.814 111.876 137.74ZM153.069 156.258C153.583 154.848 155.925 154.957 155.831 156.632C155.76 157.919 155.214 159.08 154.715 160.248L154.661 160.373C154.146 161.59 153.55 162.733 152.838 163.849C151.477 165.981 149.882 167.96 148.179 169.828C146.635 171.521 144.609 172.557 142.274 172.385C141.29 172.312 140.297 172.062 139.435 171.57C138.411 170.986 137.298 169.232 135.992 169.657C135.866 169.698 135.748 169.513 135.857 169.425C137.365 168.21 139.077 170.094 140.521 170.548C142.697 171.232 144.93 170.476 146.33 168.716C147.792 166.879 149.138 164.822 150.367 162.821C150.991 161.805 151.561 160.751 152.052 159.665C152.549 158.568 152.662 157.376 153.069 156.258ZM149.562 147.584C149.499 147.389 149.74 147.204 149.911 147.315C150.902 147.96 151.761 148.813 152.675 149.561C153.69 150.39 154.711 151.203 155.749 152.003C157.261 153.169 155.507 155.316 154.176 154.042C152.354 152.299 150.358 150.02 149.562 147.584ZM144.121 140.761C144.523 139.208 146.905 139.849 146.558 141.384L146.546 141.43C145.889 143.966 146.825 146.547 148.824 148.191L148.897 148.251C150.161 149.263 148.37 151.032 147.118 150.03C144.386 147.842 143.249 144.125 144.121 140.761Z" fill="black"/>
<path fill-rule="evenodd" clip-rule="evenodd" d="M167.024 97.8957C166.94 93.161 166.847 88.3317 166.143 83.6431C165.456 79.0593 163.563 74.916 160.311 71.5875C153.404 64.5172 143.392 62.7902 134.073 61.2076L118.139 58.5017C113.278 57.6764 108.092 56.3571 103.181 57.5276C100.761 58.1044 98.7058 59.4443 96.8274 61.0297C95.0169 62.5577 93.0702 64.1987 91.8434 66.2545C90.6145 68.3132 90.1917 70.7199 89.7922 73.0483C89.3416 75.6735 88.9915 78.3192 88.7429 80.9712C88.2445 86.2846 88.1764 91.6378 88.5379 96.9622C88.7131 99.5447 88.9917 102.12 89.3475 104.683C89.5239 105.955 89.7233 107.223 89.9486 108.486C90.0149 108.859 90.0654 109.272 90.1334 109.688C89.6308 111.118 89.3452 112.599 89.3682 114.074C89.436 118.418 93.1009 121.152 96.7955 122.621C98.9378 123.472 101.177 124.05 103.282 125.001C105.497 126.002 107.004 127.623 108.518 129.473C111.405 133.002 114.663 136.173 118.384 138.818C126.272 144.428 136.264 147.081 145.835 145.067C148.131 144.584 150.448 143.834 152.512 142.703C154.692 141.51 156.331 139.78 157.707 137.735C160.262 133.939 162.095 129.665 163.481 125.315C164.895 120.878 165.899 116.433 166.446 111.806C166.992 107.194 167.107 102.536 167.024 97.8957Z" fill="white"/>
<path fill-rule="evenodd" clip-rule="evenodd" d="M116.178 42.0087C122.772 41.1014 131.873 44.0503 135.156 49.9965C150.834 46.2991 170.607 46.178 183.528 58.4864C197.011 73.0869 180.076 92.3378 168.846 96.678C169.664 100.653 168.389 126.117 159.369 137.476C152.21 147.1 135.54 151.542 127.826 140.046L127.766 139.952C126.939 138.624 127.651 138.667 128.499 139.654C136.053 146.299 146.324 146.413 154.238 139.4C169.07 126.582 167.541 95.1517 160.483 76.969C140.385 74.7608 118.867 80.8547 104.985 95.9893L105.924 101.642C106.084 102.606 106.266 103.568 106.404 104.534C106.493 105.154 106.503 105.769 106.074 106.271C104.658 107.926 102.271 105.439 100.308 104.45C99.7278 104.368 99.147 104.337 98.5775 104.377C89.1427 105.593 91.0016 123.902 101.371 120.693C102.242 120.15 102.991 120.315 103.329 121.103C105.8 123.368 107.43 127.407 111.537 131.298C112.985 132.757 114.304 133.978 115.934 135.149C116.891 136.117 119.779 137.105 118.864 138.762C117.132 142.533 106.921 130.688 105.116 127.412C99.4599 129.646 93.1916 128.887 87.33 128.341C56.4068 126.733 60.5349 94.1237 85.882 73.5358C90.6532 70.0219 95.9174 67.1554 101.389 64.9495C102.136 64.6483 101.81 63.4212 101.052 63.7266C97.4317 65.1864 93.9021 66.9239 90.5375 68.9349L90.5324 67.7327C90.5274 65.7077 90.5592 63.5994 90.9108 61.7492C91.0865 60.4672 91.3821 59.0979 91.8372 58.0677C92.3998 54.9095 101.213 44.0689 116.178 42.0087ZM98.1645 108.58C98.642 108.127 99.5333 108.668 99.9584 108.654C101.045 108.803 102.078 109.262 102.883 109.829C103.415 110.127 103.788 110.407 104.099 110.664L104.108 110.662C104.105 110.662 104.102 110.664 104.1 110.665L104.129 110.685C104.583 111.007 106.243 112.822 105.194 112.334C105.116 112.233 105.036 112.135 104.955 112.039C104.946 112.052 104.934 112.065 104.92 112.078L104.979 112.165C105.87 113.506 104.331 112.093 104.094 111.718C104.083 111.727 104.071 111.733 104.058 111.74L104.366 112.115C104.409 112.168 104.443 112.211 104.471 112.247L104.537 112.31C105.567 113.323 105.599 114.235 104.402 112.737C104.449 112.807 104.487 112.882 104.492 112.949L104.563 113.039C105.503 114.251 104.739 113.821 104.271 113.303L104.232 113.258L104.24 113.271C104.675 113.94 103.813 113.47 103.66 113.112L103.654 113.096C103.488 112.96 103.386 112.808 103.351 112.77L103.344 112.763C102.536 111.935 101.364 111.234 100.369 110.915C100.225 110.888 100.079 110.866 99.9311 110.85C99.3326 110.717 98.7275 110.625 98.1161 110.576C98.0413 110.567 97.9655 110.512 97.9089 110.441C96.9843 110.41 97.2697 110.031 97.6533 109.96L97.66 109.959L97.5839 109.953C96.9906 109.895 96.5854 109.682 97.1853 109.551L97.2613 109.536C97.2521 109.521 97.2438 109.507 97.2358 109.492C96.722 109.436 97.0573 108.936 97.3425 109.057C97.2225 108.665 97.7709 108.86 97.8394 108.802C97.8916 108.744 97.9564 108.693 97.9938 108.69C98.159 108.574 98.079 108.584 98.1645 108.58ZM101.309 102.226L101.188 102.296C101.091 102.353 100.991 102.391 100.89 102.413C101.032 102.474 101.173 102.539 101.311 102.609C101.309 102.524 101.308 102.438 101.308 102.353L101.309 102.226Z" fill="black"/>
<path fill-rule="evenodd" clip-rule="evenodd" d="M143.152 128.274C141.732 127.695 140.465 126.728 139.538 125.493C139.216 125.063 139.133 124.61 139.2 124.195C139.276 123.729 139.552 123.306 139.928 123.023C140.305 122.739 140.777 122.598 141.233 122.67C141.63 122.732 142.024 122.949 142.337 123.399L142.402 123.489C142.953 124.235 143.67 124.846 144.488 125.241C145.276 125.621 146.158 125.798 147.07 125.695C148.807 125.499 150.005 124.559 151.278 123.282C151.436 123.121 151.593 122.955 151.752 122.786C151.852 122.633 151.991 122.534 152.146 122.483C152.317 122.425 152.511 122.429 152.689 122.491C152.86 122.55 153.013 122.664 153.116 122.815C153.213 122.958 153.269 123.135 153.251 123.339C153.134 124.661 152.443 125.842 151.461 126.769C150.37 127.799 148.924 128.511 147.563 128.761C146.064 129.036 144.536 128.839 143.152 128.274ZM148.271 107.866C149.866 108.836 152.297 111.098 150.581 113.503C148.56 115.624 145.652 113.193 144.218 112.093C142.889 111.241 141.396 113.433 142.629 114.428C152.986 122.099 157.19 108.12 149.077 106.726C148.184 106.572 147.853 107.566 148.271 107.866ZM129.711 98.9429C129.887 96.7541 133.219 96.257 133.551 98.423C133.847 100.363 133.498 102.145 132.624 103.892C131.79 105.561 129.692 104.783 129.533 103.263C129.32 101.226 129.601 100.304 129.711 98.9429ZM155.076 97.9738C155.541 97.3652 156.211 96.9496 157.015 97.1845C159.526 97.9185 158.786 101.485 157.904 103.22C157.425 104.163 155.876 104.402 155.176 103.572C154.035 102.219 153.489 99.5156 154.939 98.1825C154.979 98.1136 155.022 98.044 155.076 97.9738ZM132.589 89.3654L132.986 89.2959C134.213 89.0836 135.738 88.8796 136.606 89.8665C137.067 90.3898 137.225 91.3624 136.606 91.8633C135.518 92.7446 134.314 92.4031 133.01 92.4777C131.935 92.5394 130.902 92.7174 129.867 93.0135C127.595 93.663 125.744 94.8486 123.804 96.1506C123.549 96.3213 123.29 95.9956 123.411 95.7574C124.531 93.563 126.701 91.7604 128.875 90.6616C130.036 90.0751 131.305 89.5885 132.589 89.3654ZM152.787 88.3823L153.091 88.4445C156.394 89.1353 160.687 90.5153 162.251 93.7615C162.311 94.2205 162.248 94.3189 162.196 94.3832L162.179 94.4046C162.137 94.4595 162.104 94.5351 161.905 94.5976C161.849 94.5844 161.794 94.5705 161.737 94.5557C161.02 94.3677 160.453 94.1087 159.904 93.84L159.308 93.5465C158.617 93.2076 157.92 92.881 157.181 92.6399C155.605 92.1254 153.983 91.7631 152.337 91.5696C151.98 91.5277 151.636 91.4072 151.365 91.2006C151.107 91.0046 150.911 90.7332 150.821 90.3724C150.705 89.9056 150.738 89.5521 150.989 89.1309C151.177 88.8146 151.446 88.5953 151.756 88.4694C152.071 88.3411 152.43 88.3108 152.787 88.3823Z" fill="black"/>
<path fill-rule="evenodd" clip-rule="evenodd" d="M169.071 112.228C168.37 111.288 167.112 110.054 165.839 110.12C165.676 110.129 165.615 110.305 165.713 110.424C166.129 110.933 166.698 111.295 167.115 111.814C167.609 112.429 167.965 113.17 168.197 113.92C168.534 115.009 168.627 116.241 168.327 117.349C167.798 119.301 166.125 120.732 164.3 121.462C162.494 122.186 160.32 122.433 158.612 121.373C156.091 119.809 153.952 117.554 150.783 117.509C150.041 117.499 149.519 117.838 149.208 118.323C148.895 117.856 148.379 117.525 147.656 117.517C144.103 117.477 141.452 119.923 138.47 121.449C136.454 122.48 133.847 122.16 131.768 121.478C129.806 120.836 127.677 119.546 126.938 117.51C126.529 116.385 126.621 115.071 127.04 113.963C127.316 113.234 127.741 112.529 128.268 111.956C128.814 111.362 129.532 110.988 130.092 110.425C130.206 110.309 130.116 110.13 129.965 110.12C127.589 109.959 125.444 112.797 124.996 114.856C124.554 116.884 125.213 118.906 126.546 120.453C129.257 123.599 134.277 124.636 138.184 123.712C141.347 122.964 144.35 121.241 147.656 121.488C148.381 121.543 148.901 121.241 149.215 120.782C149.529 121.254 150.053 121.562 150.783 121.492C153.864 121.193 156.614 123.376 159.605 123.909C161.986 124.333 164.558 123.761 166.598 122.478C168.731 121.136 170.232 118.984 170.331 116.419C170.388 114.943 169.955 113.416 169.071 112.228Z" fill="black"/>
</svg>
