<svg width="240" height="324" viewBox="0 0 240 324" fill="none" xmlns="http://www.w3.org/2000/svg">
<path fill-rule="evenodd" clip-rule="evenodd" d="M127.586 126.829C133.74 127.133 143.323 129.773 143.802 131.46C144.551 134.094 142.943 143.97 145.632 149.289C146.778 151.557 151.131 151.354 152.817 152.092C158.46 154.563 175.165 159.249 178.61 165.15C179.99 167.514 188.47 196.848 192.976 211.812C193.484 213.5 194.058 215.06 194.681 216.505L194.911 215.382C196.748 206.337 197.666 200.862 197.666 198.956C197.666 195.977 195.291 183.41 197.666 180.215C200.018 177.051 205.684 174.464 208.233 174.412L208.31 174.412C209.984 174.412 211.436 173.888 212.667 172.841L214.472 171.933C223.653 167.324 229.017 164.796 230.564 164.349C233.033 163.635 237.234 165.156 235.133 167.439C233.733 168.962 230.214 171.655 224.576 175.518L222.451 177.208L222.708 177.342C225.455 178.789 227.07 180.007 227.554 180.996C228.052 182.015 227.813 183.22 226.836 184.612L226.984 184.757C228.219 185.969 228.837 186.782 228.837 187.196V189.219C230.065 191.019 230.372 192.52 229.758 193.722C229.144 194.925 228.17 195.966 226.836 196.848C225.854 199.434 224.683 201.274 223.325 202.369C221.967 203.464 219.621 204.376 216.285 205.104L213.266 212.324L210.821 222.468L209.588 233.786L209.946 234.045C211.605 235.254 212.667 236.15 212.667 237.076C212.667 238.518 205.975 272.435 195.563 273.953C193.311 274.281 181.633 272.671 177.798 269.551L177.855 269.888C178.757 275.339 178.566 278.17 177.282 278.381C161.503 280.968 116.69 281.768 42.842 280.779C42.4027 241.569 44.3894 215.456 48.8021 202.439C60.0881 169.149 72.5313 157.779 76.8846 156.805C80.6978 155.952 93.9207 150.687 97.6171 149.289C100.03 148.377 100.547 145.642 103.296 145.642L103.519 145.644C106.178 145.67 108.536 146.146 109.861 144.778C113.337 141.188 112.365 136.218 113.808 131.46C114.602 128.838 120.033 126.457 127.586 126.829Z" fill="white"/>
<path fill-rule="evenodd" clip-rule="evenodd" d="M110.677 136.23C111.038 135.514 111.997 135.607 112.63 135.932C114.528 137.32 112.542 140.01 112.017 141.704C110.667 144.989 108.321 148.2 105.083 149.735C105.351 153.001 105.655 156.259 105.768 159.535C109.907 164.672 116.887 166.547 123.083 167.989C132.814 170.681 143.797 165.165 147.081 155.543C143.343 153.418 142.133 147.855 143.249 143.974C143.346 143.701 143.768 143.581 143.918 143.885C144.942 145.991 144.805 148.56 145.969 150.641C157.138 151.711 171.553 155.927 178.87 164.963C182.113 169.484 183.398 175.363 184.995 180.603C188.403 191.404 191.118 202.425 194.46 213.237L194.854 211.191C195.934 205.556 196.915 199.843 196.186 194.112L196.173 193.838C195.934 189.277 194.508 180.803 198.043 177.724C201.241 175.279 205.874 173.315 209.887 174.441C217.028 171.262 223.192 165.909 230.798 163.824C233.139 163.342 236.506 163.912 235.953 167.089C234.42 172.645 227.998 174.802 223.609 177.667C226.422 178.43 229.853 181.853 227.654 184.838C227.635 184.891 227.618 184.931 227.601 184.963C229.384 185.753 229.634 187.74 229.197 189.444C229.152 189.894 229.034 189.507 229.298 189.915C231.31 191.813 230.421 197.104 227.39 197.282C227.589 199.789 225.979 202.224 223.94 203.591C221.743 205.064 218.566 205.128 216.746 207.144C212.475 214.678 211.002 223.573 210.536 232.201C213.352 233.255 215.878 236.407 213.32 239.082C213.269 239.088 213.219 239.094 213.168 239.098C211.685 243.057 211.112 247.277 210.328 251.411C209.121 258.466 205.977 264.943 201.962 270.82C197.319 278.599 184.833 277.366 178.543 272.346C178.568 273.663 178.785 274.972 178.363 276.245C177.741 277.618 176.224 277.025 176.073 275.672C172.748 277.543 171.965 271.368 175.661 272.348C175.377 267.884 175.212 263.413 175.078 258.942C170.894 260.297 170.713 253.351 174.994 254.74L174.989 252.82C174.957 238.097 175.12 223.324 177.062 208.717C177.242 207.624 177.546 206.567 177.723 205.481C177.742 205.369 177.918 205.4 177.918 205.508C178.219 225.958 176.883 246.452 178.277 266.91C179.437 267.264 179.9 268.596 180.759 269.372C182.667 271.134 185.265 271.991 187.805 272.29C194.918 273.288 197.989 271.115 201.157 264.929C199.728 265.885 197.798 264.198 198.669 262.686L198.696 262.64C199.6 261.039 202.154 261.999 201.831 263.792C205.016 258.69 206.683 252.937 207.914 247.1L208.08 246.403C208.679 243.924 209.455 241.085 210.892 238.842C202.129 236.608 193.556 229.8 192.184 220.46C189.959 227.453 186.945 234.29 184.072 241.091C183.185 243.456 182.815 245.999 181.543 248.193C181.247 248.7 180.497 248.569 180.33 248.034C179.186 242.918 182.652 238.052 184.452 233.446C185.921 230.844 190.14 218.958 192.755 218.929C189.816 206.044 185.896 193.254 182.164 180.529C178.554 163.347 171.198 160.034 155.616 154.624C158.426 168.952 171.259 182.822 164.43 197.851L164.264 198.241C163.566 199.898 162.986 201.568 163.473 203.386C163.947 205.151 165.024 206.683 165.886 208.271C170.705 217.236 167.388 227.707 165.525 237.044C163.171 247.993 160.846 258.953 158.413 269.886C157.934 272.066 157.623 274.313 156.899 276.427C156.525 277.517 154.659 277.414 154.78 276.142C155.01 273.673 155.703 271.266 156.21 268.842C159.239 253.147 163.338 237.637 165.944 221.873C167.621 210.204 161.021 208.411 161.267 200.871C162.164 197.015 164.539 193.574 164.403 189.465C164.93 176.886 155.772 166.508 154.641 154.275L152.644 153.562C151.646 153.205 150.65 152.845 149.656 152.476C154.886 189.066 153.298 226.455 150.684 263.226C150.149 264.923 150.658 276.775 148.418 275.723C148.305 276.385 147.954 277.037 147.189 277.033C140.244 277.097 133.298 277.207 126.354 277.29C123.013 276.982 118.422 278.257 115.581 276.329C112.3 275.393 111.923 266.506 111.046 263.338L110.704 261.034C105.13 223.391 100.142 184.971 104.149 146.955C98.5744 147.169 97.4238 153.187 97.0104 157.57C95.9767 167.242 89.7299 175.571 89.4303 185.354C89.405 187.727 89.8528 190.027 90.8012 192.206C93.3174 197.545 97.6691 203.718 94.4167 209.681C90.5701 214.323 90.9031 215.544 92.3145 221.281C96.2857 240.246 102.881 258.478 109.154 276.763C107.791 283.87 99.5923 257.486 98.8209 255.497C95.1916 257.322 93.209 251.264 97.3719 250.832C94.6981 241.879 92.2374 232.859 90.1888 223.739L90.1345 223.482C89.2295 219.269 87.4495 214.335 90.4554 210.597C98.206 202.757 85.3349 193.992 86.9585 184.494C85.5565 185.534 83.4343 184.44 83.4662 182.693C83.4026 180.727 86.0431 179.719 87.3136 181.22C88.62 173.513 93.1649 166.785 94.5402 159.102L94.6024 158.741C95.0684 156.025 95.1998 153.168 96.5331 150.692C94.7181 151.872 92.7852 152.825 90.7972 153.666C94.3518 156.636 87.4685 159.347 88.0381 154.759C68.5448 160.401 64.1388 168.268 56.9817 186.337C58.3186 185.037 60.6088 186.719 59.8085 188.376C59.17 190.122 56.3849 189.611 56.3859 187.751L56.0597 188.529C51.7197 198.91 47.7696 209.544 45.7845 220.654C49.6786 220.104 48.6871 226.329 45.159 224.574C43.743 234.455 43.7206 244.475 43.8937 254.436C47.1783 252.713 47.2771 258.568 43.9254 256.898C44.0479 265.06 44.2275 273.223 44.3627 281.385C44.3902 283.122 41.7113 283.114 41.669 281.385C41.3561 268.843 40.7859 256.279 41.057 243.733C40.802 221.959 47.0593 200.972 56.3826 181.466C64.6319 159.007 76.0269 156.453 96.9916 149.923C98.9268 147.049 103.061 144.331 106.435 146.136C108.322 143.088 109.28 139.477 110.677 136.23ZM74.7576 214.505C74.8358 214.229 75.2309 214.298 75.2435 214.571C75.4189 218.094 75.2626 221.64 75.0217 225.179C74.8757 227.339 74.6964 229.496 74.5443 231.642C74.1407 237.302 73.8154 242.968 73.5682 248.639C73.6548 248.603 73.7435 248.571 73.8365 248.546C74.2633 248.429 74.6902 248.429 75.1168 248.546C75.4974 248.652 75.8301 248.838 76.1166 249.106L76.1774 249.165C76.4119 249.382 76.5788 249.64 76.6759 249.938C76.8144 250.203 76.8845 250.487 76.8843 250.79L76.8828 250.866C76.8809 251.301 76.7731 251.705 76.5534 252.081C76.34 252.443 76.0527 252.73 75.6914 252.946C75.3154 253.164 74.9116 253.271 74.4766 253.273C74.4302 253.278 74.3835 253.282 74.3372 253.284C74.0138 253.297 73.7119 253.229 73.4328 253.083L73.3907 253.071C73.2851 255.947 73.1985 258.826 73.1351 261.704C73.0781 264.213 73.002 266.722 72.9513 269.23L72.9277 270.485L72.8818 273.259C72.8668 274.399 72.8741 275.491 72.4865 276.567L72.44 276.691C72.1612 277.409 71.9438 278.409 71.1976 278.809C70.602 279.128 69.7992 279.01 69.4569 278.388C69.1696 277.868 69.4187 277.12 69.8435 276.769C69.8351 276.746 69.8224 276.725 69.8119 276.702C69.7464 276.511 69.6469 276.332 69.5879 276.139C69.4018 275.531 69.4527 274.882 69.4506 274.25C69.4506 273.134 69.4884 272.018 69.5182 270.904C69.5837 268.533 69.6597 266.164 69.7525 263.794C70.0665 255.847 70.6578 247.899 71.335 239.973L71.5648 237.298C71.871 233.741 72.1879 230.18 72.6365 226.641C72.6574 226.472 72.6788 226.303 72.702 226.134C72.4612 226.013 72.2372 225.847 72.0595 225.661C71.3478 224.913 70.9161 223.795 70.5112 222.832L70.4182 222.613C69.9788 221.586 69.5731 220.546 69.364 219.443L69.344 219.341C69.2485 218.871 69.0602 218.039 69.5583 217.811C69.8182 217.693 69.9828 217.777 70.0675 218.037C70.0783 218.071 70.0694 218.109 70.0506 218.139C70.2555 218.453 70.5766 218.747 70.7795 219.039L71.4736 220.032L71.8168 220.531C72.252 221.171 72.7168 221.784 73.1964 222.389C73.5743 219.734 74.0372 217.09 74.7576 214.505ZM103.224 273.66C104.092 272.98 105.506 273.349 105.506 274.605C105.506 275.867 104.09 276.23 103.224 275.55L103.181 275.518L103.14 275.484C102.668 275.115 102.652 274.156 103.104 273.756L103.14 273.726C103.167 273.702 103.194 273.681 103.224 273.66ZM65.398 271.207L65.4726 271.208C65.8656 271.208 66.2311 271.308 66.5712 271.507C66.7191 271.619 66.8649 271.733 67.0128 271.847C67.2832 272.117 67.4691 272.439 67.5726 272.809L67.651 273.387C67.6614 273.688 67.6001 273.967 67.4628 274.227C67.374 274.497 67.224 274.732 67.0128 274.928C66.8142 275.142 66.5818 275.292 66.3116 275.378C66.0732 275.504 65.819 275.568 65.5472 275.568L65.4726 275.567C65.0778 275.567 64.7121 275.467 64.3719 275.269C64.224 275.157 64.0783 275.042 63.9304 274.928C63.6621 274.658 63.474 274.336 63.3707 273.967C63.3452 273.774 63.32 273.58 63.2924 273.387C63.282 273.087 63.3452 272.809 63.4804 272.548C63.5691 272.278 63.7191 272.044 63.9304 271.847C64.1292 271.633 64.3614 271.483 64.6318 271.397C64.87 271.271 65.126 271.207 65.398 271.207ZM164.295 267.189L164.849 267.263C165.379 267.383 165.806 267.774 166.091 268.22C166.243 268.459 166.325 268.717 166.338 268.994C166.399 269.268 166.387 269.545 166.3 269.822C166.237 270.093 166.112 270.329 165.928 270.53C165.865 270.63 165.791 270.72 165.706 270.801C165.533 271.09 165.271 271.28 165.001 271.475C164.773 271.621 164.525 271.699 164.259 271.712C164.084 271.758 163.906 271.758 163.729 271.712C163.465 271.699 163.218 271.621 162.989 271.475C162.854 271.371 162.719 271.266 162.586 271.162C162.468 271.025 162.358 270.883 162.254 270.735C162.185 270.572 162.117 270.412 162.049 270.251C161.925 269.864 161.986 269.522 162.054 269.135C162.064 269.07 162.081 269.011 162.104 268.947L162.15 268.824C162.272 268.503 162.337 268.394 162.552 268.114L162.634 268.005C162.675 267.95 162.717 267.896 162.766 267.848C162.901 267.709 163.093 267.592 163.245 267.472C163.57 267.284 163.921 267.191 164.295 267.189ZM92.5668 265.835L92.6372 265.836C92.9435 265.838 93.2311 265.914 93.4971 266.069L93.8435 266.337C94.0548 266.55 94.2006 266.8 94.283 267.09C94.302 267.241 94.3233 267.394 94.3442 267.544C94.3527 267.778 94.3043 267.998 94.1963 268.203C94.129 268.415 94.0104 268.596 93.8435 268.753C93.6895 268.918 93.5055 269.036 93.2942 269.106C93.1099 269.202 92.9115 269.252 92.7008 269.253L92.6372 269.252C92.3287 269.252 92.0414 269.173 91.7752 269.019L91.4287 268.753C91.2175 268.539 91.0717 268.288 90.9893 267.998C90.9703 267.846 90.9492 267.696 90.928 267.544C90.9196 267.309 90.9682 267.09 91.0759 266.887C91.1456 266.675 91.2618 266.491 91.4287 266.337C91.583 266.17 91.7668 266.052 91.978 265.984C92.1625 265.887 92.3572 265.838 92.5668 265.835ZM78.6241 265.137C79.0654 265.132 79.5135 265.257 79.8748 265.513C80.2255 265.762 80.4915 266.031 80.6628 266.434C80.7093 266.544 80.7555 266.652 80.7959 266.762C80.9776 267.246 81.0114 267.732 80.76 268.205C80.517 268.664 79.9931 268.865 79.5238 269.002C79.1269 269.12 78.6769 269.139 78.2818 268.998C78.0853 268.928 77.8931 268.854 77.7156 268.746C77.3839 268.541 77.2043 268.298 76.9825 267.998C76.8093 267.702 76.7226 267.381 76.7226 267.039C76.7226 266.694 76.8093 266.375 76.9825 266.077C77.3224 265.496 77.9522 265.141 78.6241 265.137ZM56.2296 265.544C56.7875 265.544 57.2774 265.802 57.6136 266.237C57.9535 266.679 58.0781 267.229 57.9281 267.777C57.7697 268.355 57.2903 268.863 56.6965 269.008C56.2572 269.116 55.8979 269.112 55.4605 269.038C55.0908 268.975 54.8079 268.755 54.5246 268.526C54.2014 268.262 54.1021 267.781 54.1549 267.392C54.2056 267.003 54.3854 266.749 54.6579 266.519L54.6598 266.512L54.5584 266.591C54.5967 266.557 54.6345 266.521 54.6727 266.485C54.6852 266.464 54.6958 266.441 54.7063 266.417C54.8627 266.151 55.0739 265.942 55.338 265.785C55.6148 265.625 55.9105 265.544 56.2296 265.544ZM186.284 259.143C186.59 259.06 186.898 259.06 187.205 259.143C187.431 259.196 187.627 259.299 187.794 259.453C187.964 259.564 188.102 259.705 188.206 259.88L188.24 259.939C188.481 260.35 188.519 260.819 188.415 261.275C188.287 261.839 187.767 262.353 187.205 262.486L187.186 262.49L187.167 262.495C186.939 262.567 186.708 262.577 186.48 262.524C186.25 262.514 186.036 262.446 185.84 262.319C185.591 262.159 185.382 261.952 185.221 261.702C185.094 261.503 185.027 261.29 185.016 261.059C184.976 260.907 184.976 260.755 185.016 260.603C185.027 260.373 185.094 260.159 185.221 259.961L185.491 259.612L185.519 259.589C185.735 259.373 185.99 259.225 186.284 259.143ZM165.013 247.958C167.783 247.958 167.779 252.257 165.013 252.257C162.244 252.257 162.248 247.958 165.013 247.958ZM63.609 247.415C63.9007 247.349 64.1923 247.362 64.4817 247.453C64.6571 247.527 64.8303 247.601 65.0035 247.672L65.4472 248.015C65.5296 248.085 65.5697 248.161 65.6458 248.26L65.7409 248.385C65.8783 248.569 65.8816 248.608 66.0324 249C66.1338 249.376 66.1338 249.752 66.0324 250.129C65.9836 250.31 65.9099 250.481 65.8148 250.64C65.7279 250.792 65.6239 250.926 65.5068 251.049L65.4472 251.109C65.2486 251.323 65.0141 251.473 64.7437 251.561C64.5726 251.661 64.3888 251.709 64.1923 251.709C63.9007 251.775 63.609 251.762 63.3197 251.671C63.1444 251.597 62.9712 251.523 62.7977 251.452L62.3543 251.109L62.012 250.665L61.9029 250.405L61.7923 250.143L61.7141 249.562C61.7035 249.26 61.7648 248.981 61.9019 248.719C61.9547 248.535 62.0479 248.372 62.1829 248.237C62.2803 248.072 62.4111 247.941 62.5761 247.844C62.7111 247.708 62.874 247.616 63.0578 247.563C63.2289 247.463 63.4127 247.415 63.609 247.415ZM200.599 244.344C200.829 244.336 201.045 244.384 201.243 244.49C201.313 244.513 201.381 244.542 201.446 244.576C201.702 244.726 201.905 244.929 202.055 245.183C202.177 245.378 202.245 245.587 202.255 245.813C202.301 246.017 202.297 246.222 202.242 246.426L202.224 246.487C202.177 246.654 202.108 246.808 202.015 246.95C202.006 246.967 201.996 246.984 201.983 246.998C201.841 247.223 201.653 247.406 201.421 247.544C201.163 247.692 200.886 247.768 200.586 247.77C199.989 247.77 199.473 247.447 199.158 246.95C199.114 246.88 199.089 246.791 199.057 246.719C199.029 246.652 198.985 246.565 198.962 246.487C198.882 246.187 198.882 245.887 198.962 245.587C199.014 245.367 199.114 245.175 199.264 245.012C199.384 244.828 199.543 244.682 199.739 244.576C199.983 244.434 200.245 244.358 200.523 244.346L200.599 244.344ZM83.6583 242.241C83.9508 242.161 84.2417 242.155 84.5323 242.223L84.605 242.241C84.8372 242.296 85.0381 242.402 85.2111 242.558C85.4034 242.685 85.5578 242.852 85.6696 243.059C85.8303 243.336 85.9106 243.636 85.9125 243.957C85.9106 244.278 85.8303 244.579 85.6696 244.855C85.5111 245.124 85.2977 245.335 85.0296 245.494L84.7972 245.606C84.6029 245.728 84.3958 245.794 84.1717 245.804C84.0219 245.844 83.8717 245.844 83.724 245.804C83.5717 245.804 83.4301 245.766 83.2994 245.69C83.1557 245.65 83.0329 245.578 82.9273 245.472C82.7435 245.354 82.6001 245.198 82.4944 245.001L82.3231 244.597L82.2641 244.149L82.3231 243.704L82.4162 243.484C82.5005 243.181 82.6529 242.919 82.8745 242.697C83.0963 242.477 83.3583 242.325 83.6583 242.241ZM188.43 238.676C188.738 238.578 189.045 238.565 189.351 238.633C189.558 238.633 189.752 238.686 189.932 238.792C190.129 238.847 190.298 238.944 190.441 239.088C190.693 239.25 190.889 239.466 191.035 239.734L191.267 240.286C191.407 240.643 191.356 241.169 191.272 241.529C191.202 241.824 191.067 242.083 190.866 242.302C190.765 242.473 190.629 242.609 190.458 242.71C190.263 242.888 190.037 243.015 189.781 243.09L189.71 243.109L189.685 243.116C189.681 243.118 189.677 243.118 189.672 243.118C189.67 243.12 189.666 243.12 189.664 243.12C189.563 243.145 189.459 243.16 189.351 243.164C189.045 243.232 188.738 243.22 188.43 243.122C188.248 243.046 188.065 242.968 187.881 242.89C187.725 242.772 187.57 242.651 187.414 242.53C187.294 242.374 187.173 242.218 187.053 242.063C186.883 241.799 186.793 241.512 186.78 241.205C186.725 241 186.725 240.797 186.78 240.592C186.78 240.383 186.833 240.191 186.936 240.011C187.029 239.724 187.188 239.477 187.414 239.267C187.57 239.147 187.725 239.026 187.881 238.908C188.065 238.83 188.248 238.752 188.43 238.676ZM53.6839 231.109C54.0027 231.022 54.322 231.022 54.641 231.109L55.0696 231.289C55.2809 231.403 55.448 231.557 55.5748 231.754C55.7353 231.927 55.8429 232.132 55.8978 232.367C56.0227 232.688 56.0079 233.197 55.9086 233.525C55.7966 233.897 55.6234 234.193 55.3551 234.472C54.9093 234.932 54.2246 235.066 53.6184 234.926C53.4513 234.888 53.2929 234.814 53.1492 234.723C52.691 234.44 52.3825 233.945 52.3846 233.398C52.3846 233.339 52.3889 233.28 52.3973 233.221C52.3677 233.1 52.357 232.975 52.3614 232.844L52.4248 232.367L52.4288 232.354C52.5135 232.052 52.6656 231.79 52.8872 231.568C53.0922 231.365 53.3312 231.218 53.6044 231.13L53.6734 231.109H53.6839ZM213.104 183.651C212.527 178.917 210.357 173.824 203.739 176.604L203.247 176.788C201.61 177.408 199.701 178.223 198.705 179.656C198.018 180.643 198.25 182.556 198.155 183.708C197.724 187.453 197.955 191.192 198.405 194.922C198.985 203.663 197.148 212.72 193.49 220.664C197.151 226.589 202.05 232.116 208.733 234.586C209.016 227.849 210.334 221.236 211.737 214.662L211.793 214.375C212.354 211.411 212.635 208.369 214.581 205.903C218.54 201.604 223.984 204.037 226.59 197.13C226.042 196.853 226.344 195.907 227.004 196.089C229.289 196.494 229.66 192.257 228.096 191.236C226.467 190.242 228.107 188.408 227.413 187.085C227.027 186.514 226.192 186.495 225.814 185.838C224.811 183.418 229.829 181.867 223.928 179.139C222.72 178.71 221.37 178.976 220.152 178.971C218.36 179.139 216.936 180.402 215.297 180.799C217.082 185.421 212.579 189.872 208.516 186.18C206.304 188.271 203.831 193.037 209.207 190.815C211.838 189.059 214.103 186.788 217.157 185.707L217.221 185.687C218.355 185.315 223.316 182.904 223.07 184.991C221.212 186.785 218.147 186.764 215.995 188.22C213.011 189.6 211.103 192.945 207.531 192.899C206.708 197.901 212.382 194.857 214.494 193.478L215.08 193.16C218.061 191.549 221.086 190.057 224.561 190.037C225.521 190.031 225.516 191.511 224.561 191.523C220.032 191.552 216.345 194.384 212.551 196.49C212.177 199.41 216.451 198.131 218.073 197.701C219.774 197.462 222.505 195.622 223.993 196.594C224.575 198.09 222.014 197.978 221.122 198.432C225.193 200.389 221.626 201.62 220.535 198.614L220.215 198.723C217.488 199.64 210.877 201.526 211.664 196.906C210.666 197.348 209.449 197.612 208.347 197.367C205.597 201.436 201.211 199.861 207.586 197.088C206.149 196.42 205.67 193.839 207.05 192.878C202.031 192.572 205.757 187.304 207.834 185.549C207.638 185.351 207.448 185.149 207.271 184.944C206.073 185.515 204.814 185.861 203.468 185.984C202.18 186.1 201.893 183.906 203.164 183.727C204.527 183.534 205.782 183.171 206.982 182.486C208.8 181.7 209.421 185.076 211.241 185.195C212.234 185.392 212.906 184.521 213.104 183.651ZM170.855 227.208C171.295 227.208 171.685 227.392 172.004 227.683C172.323 227.975 172.461 228.412 172.48 228.831C172.488 229.055 172.442 229.264 172.34 229.458C172.275 229.659 172.163 229.832 172.004 229.981C171.709 230.274 171.271 230.456 170.855 230.456C170.416 230.456 170.025 230.272 169.706 229.981C169.387 229.687 169.249 229.251 169.23 228.831C169.222 228.609 169.269 228.4 169.37 228.205C169.429 228.024 169.525 227.864 169.66 227.728L169.706 227.683C170.002 227.387 170.439 227.208 170.855 227.208ZM184.17 217.184L184.241 217.185C184.613 217.188 184.957 217.28 185.278 217.466C185.418 217.574 185.557 217.68 185.695 217.788C185.95 218.045 186.125 218.348 186.223 218.697C186.322 219.06 186.322 219.426 186.223 219.789C186.189 219.999 186.111 220.201 185.988 220.377C185.806 220.679 185.566 220.922 185.261 221.102C184.946 221.286 184.606 221.376 184.241 221.378C183.876 221.376 183.535 221.286 183.22 221.102C182.916 220.922 182.675 220.679 182.496 220.377C182.371 220.201 182.293 219.999 182.259 219.789C182.16 219.426 182.16 219.06 182.259 218.697C182.349 218.373 182.507 218.089 182.734 217.844L182.787 217.788C182.973 217.587 183.193 217.445 183.449 217.363C183.673 217.245 183.914 217.185 184.17 217.184ZM82.5511 217.297C82.7076 217.255 82.8618 217.255 83.0182 217.297C83.2506 217.308 83.468 217.378 83.6689 217.505C83.7872 217.597 83.9055 217.688 84.0238 217.779L84.127 217.903C84.3474 218.172 84.353 218.218 84.5222 218.627C84.5921 218.855 84.6027 219.083 84.552 219.312C84.552 219.466 84.5119 219.61 84.4356 219.743C84.3935 219.889 84.3217 220.015 84.214 220.121C84.1377 220.25 84.0365 220.353 83.9074 220.43C83.7428 220.58 83.5485 220.683 83.3245 220.736L82.8701 220.797C82.8111 220.789 82.7499 220.78 82.6907 220.774C82.6194 220.772 82.5501 220.764 82.4823 220.751L82.4137 220.736L82.3513 220.719C82.2685 220.695 82.188 220.663 82.1097 220.622C81.9618 220.58 81.833 220.506 81.7229 220.396C81.533 220.273 81.3809 220.108 81.271 219.903L81.2414 219.836C81.2013 219.764 81.1675 219.69 81.1419 219.61C81.0703 219.483 81.0344 219.348 81.0323 219.202C80.9902 219.008 80.993 218.815 81.0433 218.623L81.0618 218.559L81.2245 218.172C81.309 218.041 81.3978 217.908 81.5116 217.8C81.5803 217.739 81.748 217.608 81.8425 217.543L81.9004 217.505C82.1013 217.378 82.3189 217.308 82.5511 217.297ZM57.081 214.275C57.3852 213.077 58.957 212.698 59.8126 213.554C60.6681 214.411 60.2901 215.983 59.0924 216.287L58.9549 216.321C57.7972 216.615 56.7535 215.569 57.0472 214.411L57.081 214.275ZM202.089 204.5C202.08 204.382 202.232 204.34 202.309 204.409C203.327 205.322 203.975 206.417 205.211 207.125C206.454 207.835 207.734 207.778 209.029 208.237C209.468 208.393 209.47 208.981 209.029 209.135C206.578 209.991 202.275 207.089 202.089 204.5ZM86.9373 204.314C87.2101 204.23 87.4847 204.217 87.7573 204.278C87.9432 204.278 88.1162 204.325 88.2747 204.418C88.45 204.466 88.6002 204.555 88.7289 204.682C88.8833 204.773 89.0058 204.897 89.0986 205.052C89.2805 205.25 89.403 205.483 89.4662 205.749L89.538 206.297L89.4662 206.844C89.3965 207.007 89.3268 207.172 89.2592 207.334L89.0704 207.59C88.9174 207.794 88.8929 207.796 88.5218 208.072C88.2854 208.222 88.0298 208.304 87.7573 208.315C87.5754 208.366 87.3937 208.366 87.2101 208.315C87.0263 208.315 86.8528 208.269 86.6925 208.176C86.519 208.127 86.3671 208.038 86.238 207.911C86.0143 207.765 85.839 207.573 85.7099 207.334C85.6401 207.172 85.5706 207.007 85.503 206.844L85.4289 206.297L85.503 205.749L85.507 205.732C85.6042 205.39 85.7777 205.092 86.0268 204.84L86.4368 204.523C86.5972 204.42 86.7641 204.367 86.9373 204.314ZM185.559 204.724C186.144 204.563 186.787 204.732 187.216 205.162C187.645 205.591 187.814 206.231 187.653 206.817C187.495 207.387 187.036 207.85 186.464 208.004C186.293 208.051 186.119 208.076 185.944 208.068C185.65 208.066 185.376 207.991 185.12 207.844L184.79 207.588C184.63 207.44 184.518 207.265 184.452 207.062C184.349 206.867 184.302 206.658 184.311 206.432L184.309 206.392C184.302 206.311 184.313 206.231 184.338 206.153C184.338 206.07 184.351 205.99 184.372 205.912C184.526 205.341 184.991 204.88 185.559 204.724ZM59.3986 199.001C59.5866 198.994 59.762 199.032 59.9247 199.119C60.0958 199.174 60.2416 199.267 60.3641 199.402C60.4993 199.525 60.5923 199.673 60.6472 199.842C60.7338 200.005 60.7719 200.18 60.7655 200.368C60.7655 200.615 60.7021 200.846 60.5796 201.057C60.5078 201.15 60.4359 201.243 60.3641 201.334C60.1951 201.505 59.9944 201.621 59.762 201.687L59.6268 201.733C59.4282 201.805 59.2338 201.81 59.0268 201.782C58.8092 201.753 58.6083 201.693 58.431 201.558C58.2576 201.457 58.1204 201.319 58.019 201.146L57.9028 200.871C57.8775 200.778 57.8669 200.639 57.8606 200.541C57.8606 200.527 57.8606 200.514 57.8585 200.499C57.8585 200.417 57.8838 200.216 57.9047 200.134C57.9514 199.96 58.0463 199.795 58.1543 199.656C58.2472 199.51 58.374 199.396 58.5303 199.311L58.5442 199.301L58.5599 199.29C58.6083 199.256 58.6592 199.223 58.7099 199.187C58.9212 199.064 59.1514 199.001 59.3986 199.001ZM168.495 197.5C168.833 197.5 169.148 197.587 169.439 197.756C169.45 197.76 169.46 197.764 169.469 197.769C169.748 197.933 169.969 198.156 170.134 198.434C170.304 198.724 170.388 199.037 170.388 199.371C170.388 199.707 170.304 200.017 170.134 200.307C169.969 200.586 169.748 200.808 169.469 200.973C169.46 200.979 169.45 200.983 169.439 200.987C169.148 201.157 168.833 201.241 168.495 201.243C168.159 201.241 167.844 201.157 167.553 200.987C166.982 200.654 166.625 200.03 166.625 199.371C166.625 198.711 166.982 198.088 167.553 197.756C167.844 197.587 168.159 197.5 168.495 197.5ZM80.7595 195.056L80.817 195.055C81.041 195.046 81.2499 195.093 81.4422 195.197C81.6429 195.262 81.8182 195.374 81.9663 195.533L82.2748 195.79L82.3643 195.863C82.3791 195.875 82.3936 195.888 82.4077 195.9C82.6149 196.109 82.7565 196.355 82.8368 196.638C82.8621 196.801 82.883 196.961 82.9001 197.124C82.9464 197.547 82.6973 197.98 82.4227 198.28C82.2748 198.439 82.0992 198.551 81.8966 198.618C81.7023 198.72 81.491 198.766 81.2668 198.758C80.8084 198.718 80.3734 198.62 80.0438 198.265C80.0056 198.223 79.9696 198.179 79.9318 198.134L79.6677 197.83C79.467 197.627 79.3274 197.388 79.2515 197.113C79.2302 196.968 79.2114 196.824 79.1924 196.68C79.1732 196.247 79.3844 195.841 79.6677 195.533C79.9293 195.247 80.3729 195.072 80.7595 195.056ZM70.0953 190.606C72.2923 190.606 72.288 194.015 70.0953 194.015C67.9 194.015 67.9042 190.606 70.0953 190.606ZM180.563 185.826L180.632 185.827C180.996 185.829 181.336 185.92 181.651 186.104L182.06 186.419C182.31 186.673 182.483 186.969 182.58 187.311C182.603 187.49 182.627 187.67 182.652 187.848C182.663 188.127 182.603 188.387 182.477 188.628C182.396 188.877 182.257 189.095 182.06 189.279C181.877 189.475 181.661 189.615 181.41 189.695C181.169 189.822 180.909 189.881 180.632 189.87C180.267 189.868 179.927 189.777 179.612 189.594C179.475 189.488 179.339 189.382 179.202 189.279C178.972 189.045 178.807 188.774 178.708 188.465L178.685 188.387L178.611 187.848C178.6 187.571 178.659 187.311 178.786 187.07C178.866 186.819 179.006 186.603 179.202 186.419C179.386 186.222 179.604 186.083 179.853 186.003C180.073 185.887 180.31 185.827 180.563 185.826ZM170.667 179.445C170.863 179.438 171.045 179.478 171.216 179.567C171.391 179.624 171.544 179.723 171.672 179.861C171.945 180.079 172.112 180.514 172.112 180.867C172.112 181.22 171.945 181.655 171.672 181.873C171.495 182.048 171.286 182.171 171.045 182.238L170.667 182.289C170.299 182.306 169.925 182.114 169.663 181.873C169.61 181.824 169.56 181.776 169.507 181.729C169.268 181.509 169.165 181.182 169.15 180.867C169.144 180.7 169.18 180.544 169.255 180.398C169.304 180.246 169.389 180.117 169.507 180.005C169.56 179.958 169.61 179.91 169.663 179.861C169.949 179.597 170.282 179.464 170.667 179.445ZM233.367 168.076C234.755 166.384 233.947 165.18 231.861 165.599C228.267 166.085 224.885 168.357 221.72 169.986C218.265 171.812 214.705 173.317 211.181 175.032C212.635 175.925 213.717 177.323 214.543 178.918C216.192 177.666 218.299 177.067 220.357 176.989C224.09 173.412 230.272 172.593 233.367 168.076ZM69.356 173.692C69.7324 173.694 70.0851 173.782 70.4156 173.959L70.4861 173.998L70.9382 174.349C71.1579 174.552 71.3121 174.793 71.403 175.07C71.5424 175.336 71.6058 175.625 71.5952 175.934C71.6058 176.243 71.5424 176.53 71.403 176.796C71.3121 177.075 71.1579 177.314 70.9382 177.517C70.8135 177.68 70.653 177.807 70.4607 177.9C70.2809 177.974 70.1037 178.05 69.9241 178.126C69.7234 178.189 69.491 178.198 69.2734 178.208C68.8783 178.206 68.5109 178.107 68.1682 177.908L67.7248 177.566C67.5114 177.367 67.3591 177.132 67.2704 176.86C67.1447 176.62 67.0809 176.363 67.081 176.089L67.0825 176.014C67.0825 175.998 67.0825 175.978 67.0849 175.959C67.11 175.761 67.1377 175.562 67.1647 175.364C67.2347 175.072 67.3678 174.816 67.5663 174.6C67.6171 174.499 67.6847 174.417 67.7715 174.349C68.0501 174.07 68.3795 173.88 68.76 173.772C68.9586 173.747 69.1572 173.719 69.356 173.692ZM167.383 168.092L167.447 168.093C167.732 168.093 167.996 168.165 168.242 168.306C168.349 168.389 168.455 168.471 168.561 168.554C168.757 168.75 168.892 168.983 168.966 169.249L169.023 169.667C169.03 169.885 168.985 170.086 168.886 170.274C168.823 170.468 168.715 170.638 168.561 170.781C168.419 170.935 168.25 171.043 168.054 171.107C167.868 171.206 167.665 171.25 167.447 171.242C167.164 171.242 166.898 171.17 166.653 171.026C166.547 170.946 166.439 170.864 166.334 170.781C166.156 170.601 166.027 170.391 165.95 170.152L165.93 170.086L165.873 169.667C165.865 169.45 165.909 169.249 166.008 169.061C166.072 168.865 166.182 168.695 166.334 168.554C166.477 168.399 166.647 168.292 166.841 168.228C167.01 168.139 167.191 168.094 167.383 168.092ZM81.7045 165.803L81.7782 165.804C82.1986 165.806 82.5895 165.912 82.9528 166.123C83.1092 166.244 83.2657 166.364 83.4219 166.487C83.7113 166.776 83.9099 167.119 84.0221 167.514L84.1042 168.131C84.1169 168.452 84.0493 168.75 83.9035 169.027C83.8108 169.317 83.65 169.566 83.4219 169.777C83.2129 170.004 82.9634 170.164 82.674 170.257C82.3972 170.403 82.0993 170.471 81.7782 170.458C81.3578 170.458 80.9669 170.352 80.6035 170.141C80.4474 170.02 80.2911 169.898 80.1326 169.777C79.8451 169.486 79.6465 169.143 79.5345 168.75L79.4521 168.131C79.4395 167.812 79.5071 167.512 79.6528 167.235C79.7458 166.948 79.9064 166.696 80.1326 166.487C80.3439 166.259 80.593 166.098 80.8824 166.005C81.1379 165.87 81.4114 165.804 81.7045 165.803ZM159.932 159.992C160.125 159.941 160.317 159.941 160.509 159.992C160.796 160.004 161.065 160.091 161.314 160.25L161.751 160.588C161.758 160.594 161.764 160.601 161.77 160.609C162.034 160.875 162.218 161.19 162.319 161.552L162.396 162.12C162.406 162.414 162.345 162.689 162.212 162.942C162.133 163.186 162.001 163.398 161.821 163.582L161.751 163.65C161.555 163.862 161.324 164.012 161.056 164.098C160.887 164.198 160.703 164.246 160.509 164.246C160.222 164.312 159.932 164.299 159.645 164.208C159.474 164.134 159.3 164.062 159.127 163.991L159.072 163.959C158.419 163.602 158.016 162.854 158.016 162.12C158.016 161.387 158.419 160.636 159.072 160.279C159.092 160.271 159.108 160.26 159.127 160.25C159.377 160.091 159.645 160.004 159.932 159.992Z" fill="black"/>
<path fill-rule="evenodd" clip-rule="evenodd" d="M157.905 48.827C146.609 45.5102 107.76 48.91 106.8 49.6284C105.228 50.9352 97.5808 55.0816 96.3909 56.0282C85.6321 67.4356 95.8886 84.3759 95.0993 98.1373C95.1496 103.019 93.0703 107.476 92.1146 112.172C91.711 114.633 91.8 117.178 93.0822 119.388C95.3364 123.336 100.097 124.136 103.969 125.728C105.895 126.558 107.695 127.734 109.345 129.021C120.454 138.853 126.638 145.585 142.848 143.367C142.931 144.142 143.617 144.902 144.466 144.556C146.457 143.745 148.433 142.885 150.44 142.117C150.869 143.151 152.102 143.447 152.937 142.533L152.941 142.54C156.657 139.524 159.021 135.401 160.776 130.987C162.004 128.44 163.01 125.783 163.779 123.047C163.865 122.737 163.854 122.461 163.775 122.223C167.322 109.997 168.634 97.1127 167.701 84.4196C167.512 81.8008 167.017 79.1473 167.139 76.5174C167.248 74.1414 168.272 71.8939 169.052 69.6811C173.074 60.2741 166.925 51.7888 157.905 48.827Z" fill="white"/>
<path fill-rule="evenodd" clip-rule="evenodd" d="M159.326 33.5531L159.446 33.4597C160.749 32.4375 161.977 31.0979 163.813 31.6002C165.319 32.0124 166.08 33.2593 166.403 34.7663C166.862 34.2865 167.307 33.7898 167.743 33.2762C168.926 31.8813 171.569 32.6041 171.922 34.3816C172.636 37.9619 172.672 41.6055 171.977 45.1922C171.871 45.7353 171.746 46.2764 171.6 46.8111C172.393 45.8241 173.13 44.7948 173.791 43.7106C174.507 42.5334 176.126 43.1167 176.238 44.3742C176.267 44.6997 176.284 45.0294 176.288 45.3612C176.793 45.5388 177.142 46.0587 177.009 46.697C176.274 50.2096 175.342 53.6736 174.222 57.0785C176.022 56.1232 178.04 55.5568 179.939 56.231C182.956 57.3046 183.674 60.5975 183.085 63.4317C182.343 66.9951 180.011 69.9772 177.003 71.9322C176.646 72.469 176.293 73.0101 175.957 73.5617C175.95 75.1194 175.667 76.6728 175.097 78.1163C174.455 79.7374 173.322 81.1386 171.928 82.2038C171.438 83.2714 170.14 84.0512 169 83.8351L168.941 83.8228L168.938 83.8249C169.23 84.8689 169.481 85.9236 169.699 86.9803C171.384 95.1676 170.531 103.69 168.994 111.831L168.945 112.091C167.565 119.336 165.96 126.839 162.839 133.566C160.017 139.649 155.231 144.998 148.393 146.325C140.348 147.887 131.443 145.412 124.524 141.285C122.016 139.788 124.315 135.845 126.812 137.366C130.416 139.56 134.331 141.092 138.472 141.9C142.342 142.652 146.671 142.908 150.383 141.348C155.553 139.175 158.624 133.868 160.568 128.872C161.713 125.924 162.571 122.88 163.369 119.824C164.398 115.895 165.357 111.941 166.078 107.942C167.419 100.484 167.855 92.7375 166.435 85.2578C165.983 82.8717 165.343 80.4707 164.508 78.1628C164.377 78.0001 164.253 77.8183 164.141 77.6196C163.268 76.0895 162.666 74.35 162.017 72.6952C161.449 71.7082 160.828 70.7592 160.169 69.8314C159.183 69.0737 158.245 68.2636 157.385 67.3797C159.882 65.762 162.086 63.7369 163.671 61.1571C163.933 60.7317 163.767 60.3251 163.457 60.0957C162.191 61.6802 160.552 63.0221 158.828 64.2109C157.945 64.9676 156.994 65.6473 155.997 66.2615C155.285 66.4024 154.565 66.4992 153.867 66.5787C151.879 66.8048 149.88 66.7203 147.903 66.4561C143.627 65.8855 125.542 60.9031 117.919 62.8399C116.332 63.2434 115.583 64.6681 114.742 66.0059C114.013 67.1696 113.085 68.1329 111.972 68.926L111.848 69.0135C109.672 70.5204 105.296 75.2876 103.457 79.5425C101.083 85.0359 98.8018 101.498 99.8518 101.64C102.598 102.012 104.119 103.457 106.357 105.009C106.505 105.11 106.418 105.385 106.228 105.315C104.751 104.782 103.154 104.467 101.605 104.21C100.205 103.975 98.73 103.933 97.3779 104.434C95.3033 105.203 94.2913 106.942 93.8751 108.904C93.7124 109.671 93.6406 110.472 93.6321 111.264L93.6309 111.494C93.632 113.993 94.0978 116.763 95.9117 118.607C96.6828 119.391 97.7286 119.919 98.823 120.065C100.021 120.226 100.76 119.685 101.861 119.404C103.129 119.08 104.117 119.915 103.999 121.004C104.267 121.238 104.527 121.485 104.785 121.737L104.785 121.738L104.787 121.739C104.956 121.815 105.117 121.917 105.262 122.039C105.501 122.242 105.702 122.464 105.862 122.703C106.219 122.773 106.562 122.971 106.843 123.335C107.422 124.081 107.956 124.835 108.453 125.605C109.342 126.549 110.227 127.496 111.1 128.458C112.15 129.614 113.172 130.796 114.201 131.971L114.717 132.558C115.272 133.19 115.826 133.822 116.379 134.456L116.544 134.642C117.101 135.266 117.528 135.726 117.588 136.624C117.63 137.29 116.914 137.742 116.32 137.59C115.405 137.354 114.98 136.635 114.432 135.922L113.603 134.859L112.824 133.858C112.437 133.359 112.046 132.862 111.657 132.366C111.541 133.281 110.574 134.018 109.691 134.059L109.485 134.067C107.411 134.136 104.891 133.843 103.312 132.38C102.603 133.097 101.719 133.661 100.631 133.999C98.1596 134.769 95.6328 133.406 94.6335 131.332C92.6962 132.163 90.5075 132.33 88.4138 131.719C87.2062 131.365 86.7886 129.859 87.6301 128.938L87.668 128.897L87.6778 128.886C87.5041 128.661 87.4086 128.384 87.3932 128.083C87.3744 127.717 87.6408 127.33 87.5859 126.988C87.3763 125.687 85.2543 126.651 84.5799 126.933C84.4511 126.987 84.3302 127.012 84.2174 127.016C83.1748 127.32 82.0409 125.95 82.5871 124.818C83.8103 122.291 85.004 119.744 86.242 117.22C86.0856 117.273 85.9251 117.322 85.7666 117.362C83.542 117.933 80.8441 116.838 81.3575 114.156C81.4758 113.526 82.0462 113.095 82.6124 112.9C83.7152 112.52 84.5434 112.795 85.3927 112.44C86.3497 112.042 87.349 111.313 88.1899 110.626C89.0878 109.895 89.8631 109.073 90.5497 108.181C90.8244 106.885 91.2997 105.647 92.0603 104.582C92.1068 104.518 92.1533 104.455 92.2018 104.393C87.3244 103.23 87.963 98.4314 85.8116 94.1787L85.6298 93.8262C84.1686 90.9815 82.8938 87.7743 83.6307 84.535C83.7617 83.9623 83.9518 83.4149 84.1969 82.9034C83.8061 82.952 83.4131 82.9964 83.0223 83.0408C82.1244 83.1422 81.2117 81.984 81.5687 81.1323C81.7568 80.6863 81.9638 80.2552 82.1878 79.8367C82.8089 78.6827 83.5716 77.6344 84.4694 76.6876C82.961 76.6474 81.4504 76.6474 79.9589 76.4741C78.5497 76.3114 77.0687 75.5399 77.1121 73.9147C77.1558 72.365 78.5149 71.192 79.7751 70.436C81.0154 68.7856 82.5887 67.414 84.3683 66.3946C84.0162 66.3154 83.6595 66.2568 83.297 66.2207L83.1152 66.2046C82.099 66.1243 81.1863 65.8453 80.2652 65.4205C79.4413 65.0401 79.454 63.8861 79.9927 63.3049C81.7344 61.4213 84.344 62.0347 86.3744 63.114C86.2331 62.9346 86.0782 62.7617 85.9095 62.5963L85.8066 62.4979C84.809 61.5686 86.3062 60.0773 87.3004 61.0035C87.6146 61.2962 87.896 61.6143 88.147 61.9514L88.1709 61.9015C89.4845 59.236 91.4057 56.8502 93.6788 54.9384L94.213 54.4941C98.312 51.0688 99.5768 49.4453 105.028 49.9497C104.796 48.9591 104.818 47.8447 104.871 46.9284L104.878 46.8048C105.087 43.3598 106.357 39.2363 109.716 37.6892C110.588 37.2898 111.577 37.9428 111.345 38.9425C111.182 39.6506 110.984 40.3396 110.736 41.0095C111.469 40.2381 112.255 39.5174 113.088 38.8538C116.481 36.1485 121.015 33.8215 125.474 34.5824C127.925 35.003 129.848 36.5416 131.899 37.8266C133.961 39.1201 136.264 39.8873 138.679 40.1641C142.053 40.553 145.439 40.162 148.775 39.5449C151.067 38.5452 153.292 37.3743 155.464 36.1126C156.799 35.3369 158.098 34.4894 159.326 33.5531ZM99.4237 108.377C100.138 108.194 100.939 108.196 101.655 108.375C103.503 108.84 105.223 110.387 105.331 112.338C105.379 113.219 104.67 114.063 103.846 114.289C102.912 114.547 102.109 114.09 101.564 113.359C100.979 112.577 100.833 111.729 100.117 111.019L99.9516 110.858C99.3428 110.276 98.4221 109.523 97.5773 109.658C97.4526 109.677 97.3596 109.508 97.4864 109.44C98.1751 109.064 98.6273 108.58 99.4237 108.377ZM109.026 99.1901C109.352 98.9238 109.783 99.2362 109.629 99.6191L109.617 99.6466C109.231 100.462 109.685 101.42 110.154 102.103C110.557 102.692 109.795 103.252 109.258 102.999C107.75 102.282 107.828 100.162 109.026 99.1901ZM114.54 74.6797C114.512 74.481 114.776 74.3986 114.844 74.5951C115.97 77.8647 116.293 80.7602 116.11 84.2179L116.092 84.5247C115.893 87.8552 115.31 91.3802 113.295 94.1154C112.829 94.7474 111.874 94.3754 112.028 93.5807C112.647 90.3999 113.836 87.3797 114.299 84.1608C114.783 80.7961 115 78.0465 114.54 74.6797ZM104.022 86.564C104.187 85.6912 105.528 84.7929 106.207 85.67C106.435 85.968 106.166 86.3337 105.892 86.4436C105.634 86.545 105.404 86.4055 105.15 86.4562C104.945 86.4977 104.795 86.6256 104.696 86.8006L104.675 86.8388C104.476 87.2192 103.952 86.936 104.022 86.564ZM103.473 79.6106C103.954 78.7187 105.064 78.1502 106.012 78.706C106.325 78.8899 106.202 79.4246 105.822 79.4077L105.597 79.3986C104.92 79.3739 104.244 79.3876 103.676 79.8156C103.549 79.9107 103.409 79.7311 103.473 79.6106ZM105.166 55.2529C102.464 54.0376 99.7771 55.1347 97.5709 56.8458C97.3883 56.9874 97.2998 57.1527 97.2804 57.3188C98.7533 56.745 100.322 56.3688 101.821 56.0583C103.047 55.8043 104.284 55.6329 105.523 55.5653C105.453 55.4408 105.34 55.3309 105.166 55.2529Z" fill="black"/>
<path fill-rule="evenodd" clip-rule="evenodd" d="M143.152 128.274C141.732 127.695 140.465 126.728 139.538 125.493C139.216 125.063 139.133 124.61 139.2 124.195C139.276 123.729 139.552 123.306 139.928 123.023C140.305 122.739 140.777 122.598 141.233 122.67C141.63 122.732 142.024 122.949 142.337 123.399L142.402 123.489C142.953 124.235 143.67 124.846 144.488 125.241C145.276 125.621 146.158 125.798 147.07 125.695C148.807 125.499 150.005 124.559 151.278 123.282C151.436 123.121 151.593 122.955 151.752 122.786C151.852 122.633 151.991 122.534 152.146 122.483C152.317 122.425 152.511 122.429 152.689 122.491C152.86 122.55 153.013 122.664 153.116 122.815C153.213 122.958 153.269 123.135 153.251 123.339C153.134 124.661 152.443 125.842 151.461 126.769C150.37 127.799 148.924 128.511 147.563 128.761C146.064 129.036 144.536 128.839 143.152 128.274ZM148.271 107.866C149.866 108.836 152.297 111.098 150.581 113.503C148.56 115.624 145.652 113.193 144.218 112.093C142.889 111.241 141.396 113.433 142.629 114.428C152.986 122.099 157.19 108.12 149.077 106.726C148.184 106.572 147.853 107.566 148.271 107.866ZM129.711 98.9429C129.887 96.7541 133.219 96.257 133.551 98.423C133.847 100.363 133.498 102.145 132.624 103.892C131.79 105.561 129.692 104.783 129.533 103.263C129.32 101.226 129.601 100.304 129.711 98.9429ZM155.076 97.9738C155.541 97.3652 156.211 96.9496 157.015 97.1845C159.526 97.9185 158.786 101.485 157.904 103.22C157.425 104.163 155.876 104.402 155.176 103.572C154.035 102.219 153.489 99.5156 154.939 98.1825C154.979 98.1136 155.022 98.044 155.076 97.9738ZM132.589 89.3654L132.986 89.2959C134.213 89.0836 135.738 88.8796 136.606 89.8665C137.067 90.3898 137.225 91.3624 136.606 91.8633C135.518 92.7446 134.314 92.4031 133.01 92.4777C131.935 92.5394 130.902 92.7174 129.867 93.0135C127.595 93.663 125.744 94.8486 123.804 96.1506C123.549 96.3213 123.29 95.9956 123.411 95.7574C124.531 93.563 126.701 91.7604 128.875 90.6616C130.036 90.0751 131.305 89.5885 132.589 89.3654ZM152.787 88.3823L153.091 88.4445C156.394 89.1353 160.687 90.5153 162.251 93.7615C162.311 94.2205 162.248 94.3189 162.196 94.3832L162.179 94.4046C162.137 94.4595 162.104 94.5351 161.905 94.5976C161.849 94.5844 161.794 94.5705 161.737 94.5557C161.02 94.3677 160.453 94.1087 159.904 93.84L159.308 93.5465C158.617 93.2076 157.92 92.881 157.181 92.6399C155.605 92.1254 153.983 91.7631 152.337 91.5696C151.98 91.5277 151.636 91.4072 151.365 91.2006C151.107 91.0046 150.911 90.7332 150.821 90.3724C150.705 89.9056 150.738 89.5521 150.989 89.1309C151.177 88.8146 151.446 88.5953 151.756 88.4694C152.071 88.3411 152.43 88.3108 152.787 88.3823Z" fill="black"/>
</svg>
