<svg width="240" height="324" viewBox="0 0 240 324" fill="none" xmlns="http://www.w3.org/2000/svg">
<path fill-rule="evenodd" clip-rule="evenodd" d="M200.256 272.088C199.919 265.825 199.505 259.567 199.009 253.314C198.022 240.859 196.729 228.394 194.577 216.083C192.454 203.935 189.482 192.123 185.202 180.547C183.216 175.177 181.065 170.596 177.945 165.768C174.995 161.203 171.23 158.111 166.54 155.355C162.314 152.873 157.405 148.565 153.352 145.785C151.66 144.625 148.179 144.702 147.019 142.985C145.499 140.737 146.484 137.296 144.953 135.055C143.202 132.493 140.749 130.503 137.983 129.057C134.964 127.012 131.409 126.087 127.843 126.214C122.586 125.895 117.292 127.569 113.916 131.85C112.232 133.986 111.249 136.451 111.113 139.18C111.077 139.89 111.305 140.45 111.68 140.854C111.458 141.152 111.236 141.449 111.016 141.749C110.326 140.726 108.712 140.182 107.637 140.954C104.119 143.481 100.317 145.489 96.3038 146.962C95.3649 146.517 94.2283 146.723 93.424 147.449C93.0976 147.743 92.7513 147.995 92.3894 148.208C90.9014 148.612 89.3905 148.949 87.8571 149.21C87.3771 149.291 86.9704 149.564 86.6619 149.931C86.205 149.504 85.5769 149.299 84.8755 149.566C76.7765 152.655 69.1282 157.452 63.3147 163.953C56.874 171.154 53.4912 180.112 50.9159 189.29C48.128 199.225 46.3464 209.407 44.85 219.606C43.3337 229.941 41.8402 240.315 40.797 250.71C40.2099 256.559 39.9859 262.461 40.2517 268.336C40.3842 271.273 40.6523 274.199 41.0793 277.108C41.1788 277.788 41.2829 278.572 41.4507 279.354C40.9409 279.255 40.3337 279.686 40.437 280.376C41.1566 285.182 46.9652 286.582 50.9712 287.135C57.5241 288.041 64.111 288.543 70.7269 288.581C77.2282 288.619 83.7285 288.202 90.2163 287.828C96.8679 287.445 103.519 287.06 110.171 286.669C136.82 285.106 163.47 283.56 190.119 281.997C192.554 281.854 195.334 281.661 197.42 280.248C200.278 278.311 200.425 275.233 200.256 272.088Z" fill="white"/>
<path fill-rule="evenodd" clip-rule="evenodd" d="M70.3425 218.33C70.25 218.157 70.4647 218.001 70.6071 218.126C73.8422 220.966 75.5359 225.527 75.8911 229.743C76.2673 234.214 75.7339 238.843 75.53 243.311C75.3031 248.289 75.0992 253.269 74.8223 258.244C74.5411 263.292 74.2381 268.338 73.9785 273.387L73.3943 284.745C73.3322 285.955 73.4668 287.444 73.0024 288.573C72.2828 290.325 70.1454 290.053 69.6962 288.59L69.6821 288.542L69.6411 288.573C69.2448 287.254 69.5414 285.688 69.6086 284.324L70.2206 271.915C70.653 263.144 71.0387 254.373 71.5032 245.603L71.6611 242.68C71.8782 238.745 72.0447 234.82 72.1784 230.886L72.2218 229.575C72.3487 225.625 72.248 221.896 70.3425 218.33ZM148.767 145.517C150.57 145.346 151.931 145.944 153.567 146.573C154.28 146.847 154.955 147.164 155.639 147.492C156.495 147.903 157.045 148.629 157.572 149.397L157.854 149.81C160.05 153.028 161.526 156.74 163.193 160.243C165.142 164.341 167.11 168.43 169.018 172.547L169.959 174.576C170.43 175.59 170.899 176.605 171.361 177.623L172.16 179.395C172.962 181.192 173.682 183.094 172.538 184.947C171.475 186.672 169.59 188.006 168.097 189.338C166.852 190.451 165.606 191.562 164.36 192.674C166.936 195.254 168.664 198.502 169.681 201.986C171.124 201.384 172.887 201.268 174.379 201.008C176.469 200.644 176.725 203.809 174.753 203.77C173.296 203.741 171.588 203.89 170.094 203.583C170.353 204.728 170.542 205.89 170.662 207.055C171.289 213.162 169.917 219.305 168.487 225.213L168.369 225.698C166.815 232.094 165.342 238.506 164.024 244.955C162.702 251.417 161.514 257.906 160.459 264.417C159.386 271.045 158.626 277.709 157.809 284.371C157.686 285.379 157.051 286.244 155.938 286.244C155.01 286.244 153.949 285.377 154.066 284.371C154.908 277.116 156.103 269.899 157.29 262.693C159.335 250.284 161.909 237.983 164.869 225.763L165.386 223.635C166.718 218.115 167.927 212.428 167.259 206.735C166.714 202.099 164.777 197.156 160.947 194.277L160.831 194.19C159.936 193.534 159.592 192.279 160.473 191.415C161.034 190.865 161.595 190.316 162.157 189.767L165.528 186.474L166.207 185.809C166.774 185.256 167.343 184.706 167.93 184.172C168.285 183.85 169.247 183.235 169.317 182.704C169.363 182.358 168.953 181.75 168.787 181.431L168.026 179.895C167.594 179.019 167.176 178.136 166.754 177.255C165.879 175.43 164.993 173.61 164.137 171.776L158.999 160.762C157.55 157.655 156.258 154.374 154.363 151.502L153.99 150.942C153.678 150.47 153.402 150.016 153.205 149.44C153.016 148.885 152.778 148.276 152.427 147.802C151.607 146.691 150.038 146.061 148.725 145.828C148.535 145.795 148.604 145.532 148.767 145.517ZM109.249 142.624C109.363 142.624 109.38 142.787 109.275 142.819C107.691 143.295 106.178 144.064 104.944 145.173C104.353 145.704 103.758 146.307 103.393 147.022C103.254 147.295 103.177 147.584 103.12 147.884L103.102 147.984C103.008 148.525 102.873 148.826 102.598 149.26L102.551 149.333C100.982 151.757 99.8824 154.449 98.877 157.145L96.6874 163.023L94.4993 168.902C93.7943 170.796 93.0889 172.69 92.3837 174.584C91.9941 175.63 91.5935 176.671 91.1932 177.713C91.0199 178.164 90.8336 178.612 90.6752 179.069C90.6534 179.131 90.5841 179.507 90.5321 179.598L90.5499 179.63C90.9912 180.372 92.1682 180.993 92.8354 181.532L95.1327 183.39C96.7706 184.715 98.4506 186.003 100.039 187.387C101.037 188.256 100.416 189.813 99.3035 190.176C97.4385 190.783 95.6112 191.511 93.774 192.199C93.0319 192.476 92.2592 192.718 91.5257 193.024L91.0792 193.217C90.9048 193.296 90.9887 193.295 90.9956 193.617C91.0026 193.955 91.0983 194.307 91.1533 194.638C91.7721 198.381 92.428 202.118 93.1204 205.848C95.5694 219.039 98.4952 232.133 101.832 245.127C103.518 251.688 105.325 258.218 107.048 264.77C108.766 271.304 111.027 277.745 113.186 284.145C113.795 285.95 110.934 286.727 110.34 284.93C107.852 277.403 105.576 269.81 103.226 262.24C99.0496 248.79 95.7589 235.048 92.8485 221.272C91.4059 214.445 90.0866 207.591 88.8916 200.716C88.6654 199.414 88.4435 198.112 88.2262 196.809L87.9095 194.892C87.6924 193.526 87.5688 192.103 88.6303 191.021C89.6668 189.966 91.4463 189.592 92.8103 189.097L92.9093 189.061C93.7772 188.737 94.6514 188.424 95.5223 188.103C94.2395 187.092 92.9725 186.06 91.6928 185.05C90.6606 184.236 89.6121 183.437 88.5946 182.604C87.7556 181.917 87.0716 181.035 86.9841 179.917C86.8949 178.775 87.3842 177.715 87.7788 176.667L87.8167 176.566C88.2042 175.52 88.5927 174.475 88.9911 173.433L91.4566 166.982C93.0234 162.884 94.524 158.752 96.1719 154.685C96.8239 153.075 97.5344 151.491 98.374 149.97C98.7787 149.237 99.2129 148.519 99.6847 147.826C100.213 147.05 100.693 146.671 101.512 146.243C102.822 145.558 103.85 144.409 105.165 143.703C106.456 143.01 107.784 142.64 109.249 142.624ZM113.501 135.312C113.551 135.226 113.683 135.264 113.685 135.362C113.719 137.399 113.235 139.48 112.938 141.495C112.639 143.516 112.543 145.649 112.11 147.649C112.101 147.742 112.083 147.834 112.058 147.924L112.037 147.993C111.855 148.553 111.38 149.028 110.798 149.176C110.981 150.192 111.153 151.209 111.298 152.231C111.548 153.989 111.775 155.749 111.999 157.51L112.267 159.623C112.52 161.614 112.766 163.606 113.009 165.599C113.627 165.857 114.258 166.071 114.905 166.256C116.393 166.682 117.917 166.855 119.453 167.006C122.581 167.313 125.733 167.455 128.872 167.629L129.545 167.667C133.074 167.869 136.622 167.905 140.142 167.543C141.887 167.363 143.619 167.062 145.321 166.635C146.186 166.418 147.027 166.094 147.89 165.881C148.177 165.811 148.432 165.649 148.719 165.475C148.847 165.314 149.025 165.192 149.258 165.145L149.321 165.134L149.384 165.125L149.405 165.115L149.404 165.122C149.58 165.098 149.748 165.099 149.906 165.12C149.969 163.567 150.037 162.013 150.123 160.46C150.353 156.289 150.987 151.938 150.14 147.803C150.112 147.664 150.301 147.615 150.35 147.745C152.011 152.122 151.824 156.909 151.908 161.516C151.99 166.021 151.94 170.53 151.918 175.036C152.241 175.173 152.528 175.36 152.756 175.621C153.212 176.143 153.343 177.05 152.756 177.554C152.497 177.778 152.209 177.933 151.904 178.04C151.888 181.955 151.86 185.87 151.821 189.786C152.565 190.361 152.634 191.726 151.793 192.294C151.652 204.972 151.422 217.651 151.231 230.328L150.831 256.923C150.778 260.467 150.69 264.01 150.658 267.553L150.683 267.563L150.772 267.604C150.921 267.674 151.143 267.788 151.189 267.904C151.201 267.934 151.204 267.955 151.202 267.97C151.447 268.005 151.688 268.12 151.898 268.319C152.415 268.81 152.31 269.55 151.898 270.05L151.788 270.184C151.531 270.496 151.044 270.616 150.646 270.553C150.65 272.764 150.664 274.976 150.657 277.187C150.655 277.863 150.644 278.538 150.633 279.213L150.605 280.833C150.586 281.757 150.504 282.932 149.558 283.347C148.491 283.815 147.533 283.432 147.101 282.347C146.984 282.053 147.009 281.78 147.052 281.489C147.039 281.053 146.97 280.547 146.979 280.142L147.014 278.454C147.02 278.193 147.03 277.933 147.038 277.673L147.007 277.676C143.214 277.86 139.394 277.77 135.594 277.768L133.905 277.77C132.495 277.771 131.082 277.764 129.674 277.71L129.146 277.688C128.092 277.638 126.984 277.622 125.891 277.528C126.03 278.65 126.16 279.773 126.276 280.897C126.386 281.963 125.287 282.868 124.306 282.868C123.141 282.868 122.474 281.952 122.335 280.897C121.677 275.918 121.407 270.893 120.778 265.912C120.215 261.45 119.726 256.977 119.23 252.507L119.064 251.017C117.247 234.748 115.483 218.473 113.796 202.19L113.01 194.578C112.217 186.906 111.418 179.233 110.745 171.55C110.36 167.158 110.006 162.764 109.672 158.367C109.427 155.137 109.273 151.924 109.173 148.701C108.778 148.294 108.58 147.701 108.755 147.088C108.857 146.73 108.976 146.374 109.102 146.019C109.094 145.67 109.086 145.322 109.079 144.972C109.073 144.642 109.408 144.472 109.677 144.526C110.165 143.344 110.702 142.172 111.151 141.002C111.877 139.107 112.475 137.065 113.501 135.312ZM72.9592 155.792C80.5477 151.034 89.5807 147.611 98.6278 147.979C98.8336 147.988 98.8915 148.301 98.6779 148.349C93.8521 149.427 88.9733 150.74 84.4047 152.651C79.8227 154.567 75.4659 157.148 71.5856 160.249C64.4261 165.971 58.8613 173.413 55.1971 181.802C53.0508 186.716 51.5464 191.905 50.2327 197.095C48.8426 202.587 47.6969 208.139 46.7443 213.725C44.8627 224.757 43.7673 235.912 43.1844 247.085C42.5914 258.451 42.8358 269.825 42.4129 281.193C42.3398 283.162 39.5257 283.124 39.3827 281.193C38.4244 268.269 38.9553 255.138 39.8415 242.223C40.6384 230.612 42.0301 219.026 44.271 207.603L44.4662 206.613C46.5611 196.044 49.0879 185.219 54.1524 175.648C58.4762 167.476 65.1514 160.687 72.9592 155.792ZM178.337 206.304C178.377 206.191 178.526 206.192 178.566 206.304C179.431 208.726 179.462 211.46 179.692 214.014L179.71 214.21C179.931 216.539 180.097 218.871 180.251 221.205L180.309 222.08C180.928 231.601 181.703 241.112 182.87 250.583C184.033 260.019 185.606 269.389 187.306 278.74C187.496 279.781 187.035 280.842 185.943 281.142C184.981 281.406 183.746 280.813 183.543 279.778C182.487 274.411 181.633 269.036 180.872 263.622C179.531 254.089 178.53 244.511 177.887 234.905C177.564 230.081 177.365 225.258 177.286 220.424C177.25 218.18 177.308 215.932 177.428 213.691L177.456 213.174C177.588 210.883 177.575 208.488 178.337 206.304ZM96.3384 266.949C96.4398 266.894 96.5653 267.007 96.5011 267.112C95.0317 269.501 93.0439 271.561 91.1227 273.591C89.1141 275.713 87.1553 277.899 85.1062 279.98C83.6256 281.483 81.244 279.058 82.8065 277.679C85.0035 275.741 87.2998 273.899 89.5358 272.003L90.5137 271.174C92.3471 269.625 94.2349 268.089 96.3384 266.949ZM166.129 265.753C166.019 265.544 166.27 265.374 166.44 265.513C167.625 266.477 168.688 267.627 169.832 268.645C170.966 269.652 172.141 270.593 173.349 271.509C174.562 272.43 175.801 273.314 177.074 274.15C178.13 274.844 179.218 275.399 180.323 275.975C180.835 276.041 181.309 276.293 181.689 276.769C182.289 277.523 182.352 278.944 181.52 279.598L181.371 279.716C180.4 280.479 179.247 280.572 178.291 279.716C177.223 278.759 176.214 277.707 175.189 276.697L174.881 276.395C173.78 275.324 172.705 274.218 171.692 273.062L170.774 272.019C169.073 270.077 167.301 267.985 166.129 265.753ZM160.669 153.836C160.472 153.705 160.594 153.353 160.837 153.437L161.284 153.592C163.149 154.24 165.068 154.959 166.761 155.957C168.581 157.03 170.261 158.308 171.867 159.679C175.189 162.516 178.016 166.005 180.418 169.642C185.239 176.939 188.22 185.297 190.626 193.66C193.193 202.576 195.168 211.684 196.782 220.819C198.421 230.101 199.685 239.468 200.517 248.858C200.926 253.483 201.201 258.112 201.339 262.753C201.41 265.141 201.408 267.527 201.388 269.916C201.383 270.53 201.387 271.144 201.394 271.758L201.417 273.601C201.43 274.765 201.569 275.989 201.293 277.127C200.847 278.959 197.82 278.617 197.919 276.745C197.828 276.122 197.824 275.478 197.848 274.833C197.834 274.75 197.818 274.666 197.801 274.579C197.751 274.332 197.793 274.102 197.891 273.906C197.906 273.596 197.92 273.289 197.925 272.986C197.945 271.757 197.944 270.532 197.91 269.302C197.838 266.71 197.735 264.117 197.631 261.526C197.423 256.348 197.134 251.168 196.714 246.002C195.254 228.023 192.171 209.941 186.994 192.643C184.589 184.61 181.273 176.725 176.519 169.784C174.408 166.703 172.027 163.856 169.387 161.215C166.731 158.556 163.803 155.912 160.669 153.836ZM124.841 269.74L125.2 272.337C125.379 273.635 125.557 274.934 125.725 276.234C126.871 276.077 128.042 276.011 129.146 275.913C131.078 275.742 133.023 275.659 134.961 275.579C138.968 275.414 142.995 275.127 147.007 275.147C147.048 275.147 147.087 275.15 147.125 275.153L147.324 270.03L144.506 270.026C142.118 270.022 139.731 270.002 137.343 269.981C135.193 269.963 133.042 269.96 130.891 269.915L129.97 269.893C128.34 269.849 126.539 269.94 124.841 269.74ZM147.561 262.304C147.446 262.318 147.329 262.329 147.204 262.334C146.646 262.358 146.084 262.342 145.525 262.346C144.336 262.357 143.146 262.365 141.957 262.364C139.578 262.364 137.199 262.379 134.821 262.407C132.372 262.437 129.925 262.479 127.476 262.484C126.29 262.486 125.107 262.455 123.921 262.422C124.113 264.108 124.314 265.793 124.535 267.474C126.377 267.225 128.358 267.35 130.158 267.333L130.392 267.33C132.848 267.288 135.307 267.319 137.765 267.322C140.293 267.325 142.821 267.333 145.349 267.354L147.426 267.371L147.43 267.266C147.491 265.614 147.53 263.959 147.561 262.304ZM123.008 254.238C123.238 256.228 123.454 258.222 123.674 260.215C123.821 260.192 123.969 260.173 124.12 260.157C125.308 260.033 126.494 259.926 127.686 259.852C130.063 259.705 132.44 259.627 134.821 259.563C137.269 259.497 139.718 259.447 142.167 259.413C143.357 259.396 144.545 259.398 145.735 259.406C146.293 259.41 146.857 259.392 147.414 259.429C147.481 259.434 147.544 259.441 147.607 259.448L147.649 256.456C147.656 255.957 147.664 255.458 147.672 254.96C145.833 255.073 143.963 255.03 142.126 255.031L141.702 255.032C139.393 255.042 137.084 255.011 134.775 254.963C132.393 254.913 130.017 254.835 127.639 254.682C126.676 254.621 125.72 254.539 124.762 254.433L124.283 254.378C123.866 254.329 123.437 254.289 123.008 254.238ZM147.862 245.793C143.433 246.145 139.028 246.292 134.587 246.336L133.921 246.341C129.997 246.371 126.04 246.533 122.107 246.429C122.342 248.469 122.577 250.509 122.813 252.548C123.376 252.522 123.942 252.522 124.493 252.502C125.613 252.461 126.729 252.451 127.849 252.449C130.158 252.443 132.467 252.463 134.775 252.459C137.155 252.454 139.533 252.414 141.912 252.369C143.841 252.333 145.79 252.187 147.724 252.193L147.862 245.793ZM148.049 237.091C147.536 237.262 146.93 237.273 146.266 237.303L144.551 237.389C143.757 237.428 142.962 237.464 142.167 237.493C139.517 237.59 136.868 237.681 134.218 237.765C131.502 237.852 128.774 237.902 126.058 237.816C124.728 237.774 123.409 237.704 122.082 237.593C121.754 237.566 121.42 237.548 121.085 237.524C121.394 240.227 121.704 242.929 122.015 245.631C125.929 245.15 129.874 244.851 133.784 244.354L137.319 243.902C140.853 243.451 144.383 243.009 147.93 242.635L148.049 237.091ZM148.238 228.293C147.485 228.479 146.627 228.47 145.903 228.515L145.77 228.525C144.399 228.629 143.026 228.681 141.653 228.715C138.961 228.781 136.268 228.814 133.575 228.831L131.956 228.841C129.798 228.853 127.641 228.859 125.482 228.808C124.097 228.776 122.715 228.708 121.332 228.639C120.917 228.618 120.493 228.604 120.068 228.583C120.357 231.142 120.65 233.7 120.941 236.258C121.396 236.186 121.853 236.131 122.288 236.057C123.403 235.869 124.516 235.718 125.64 235.583C128.073 235.292 130.518 235.082 132.963 234.905C135.472 234.723 137.984 234.569 140.494 234.393L142.271 234.268C142.864 234.226 143.456 234.187 144.049 234.15C145.061 234.088 146.238 234.158 147.242 233.938C147.514 233.825 147.816 233.799 148.118 233.863L148.238 228.293ZM148.466 217.995C148.205 218.326 147.816 218.499 147.352 218.559C144.935 218.873 142.456 218.923 140.019 219.071L139.59 219.098C137.073 219.264 134.555 219.394 132.037 219.528C129.45 219.665 126.863 219.777 124.274 219.868C123.175 219.906 122.071 219.91 120.97 219.896L120.498 219.889C120.046 219.882 119.573 219.883 119.098 219.867C119.361 222.26 119.626 224.652 119.895 227.044C120.379 226.991 120.862 226.951 121.331 226.901C122.714 226.755 124.096 226.61 125.482 226.501C128.108 226.294 130.737 226.169 133.368 226.039C136.06 225.906 138.754 225.817 141.446 225.691C142.752 225.63 144.057 225.554 145.358 225.434C146.271 225.35 147.354 225.04 148.306 225.154C148.358 222.767 148.412 220.381 148.466 217.995ZM148.678 208.769C148.637 208.833 148.589 208.895 148.53 208.952C147.466 210.004 146.155 209.923 144.745 210.033L144.658 210.04C143.277 210.156 141.894 210.267 140.511 210.367C137.745 210.566 134.975 210.706 132.205 210.831C129.371 210.958 126.519 211.046 123.682 210.988C121.865 210.951 119.963 210.957 118.11 210.78C118.394 213.415 118.68 216.05 118.969 218.684C119.49 218.586 120.014 218.511 120.511 218.432C121.763 218.235 123.016 218.037 124.275 217.892C126.79 217.603 129.307 217.332 131.827 217.087C133.983 216.878 136.138 216.666 138.295 216.475L139.59 216.363C142.164 216.146 144.77 215.789 147.352 215.736C147.778 215.727 148.259 215.959 148.503 216.325C148.56 213.806 148.619 211.288 148.678 208.769ZM148.857 201.301C148.2 201.381 147.491 201.335 146.885 201.355C145.351 201.405 143.817 201.452 142.284 201.497L133.081 201.769C129.947 201.861 126.803 201.93 123.668 201.886C122.29 201.866 120.905 201.864 119.526 201.789L119.067 201.761C118.5 201.724 117.804 201.718 117.124 201.649L117.926 209.086C119.77 208.819 121.671 208.72 123.499 208.563L123.89 208.529C126.586 208.283 129.296 208.121 131.997 207.938C134.769 207.75 137.536 207.522 140.303 207.289C141.686 207.173 143.069 207.057 144.451 206.93L144.622 206.913C145.928 206.776 147.155 206.486 148.312 207.256C148.481 207.369 148.613 207.519 148.704 207.688C148.755 205.559 148.804 203.43 148.857 201.301ZM149.071 192.622C143.466 192.847 137.861 193.019 132.252 193.094C129.095 193.136 125.942 193.106 122.785 193.04C121.416 193.012 120.036 192.946 118.668 192.841L118.156 192.8C117.505 192.745 116.822 192.705 116.142 192.64C116.423 195.197 116.702 197.754 116.979 200.312C117.648 200.188 118.347 200.13 118.934 200.055L119.067 200.037C120.524 199.837 121.995 199.72 123.459 199.591C126.31 199.34 129.176 199.178 132.035 199.04C134.962 198.899 137.891 198.78 140.819 198.65L143.748 198.519C144.236 198.497 144.724 198.476 145.212 198.455C145.909 198.426 146.606 198.398 147.303 198.369C147.647 198.354 148.005 198.308 148.349 198.326L148.447 198.312C148.492 198.307 148.532 198.302 148.569 198.298C148.662 198.227 148.763 198.168 148.87 198.123L148.935 198.097L149.071 192.622ZM115.223 184.397C115.483 186.699 115.741 189.001 115.995 191.304C116.794 191.212 117.603 191.162 118.366 191.093C119.905 190.955 121.452 190.834 122.995 190.763L126.081 190.62C128.137 190.525 130.194 190.433 132.252 190.358C137.885 190.152 143.518 189.916 149.147 189.629C149.187 188.067 149.228 186.505 149.27 184.944C148.999 185.233 148.609 185.424 148.096 185.422C142.186 185.407 136.271 185.441 130.362 185.344C127.404 185.295 124.449 185.223 121.495 185.071C120.049 184.997 118.595 184.846 117.161 184.647C116.549 184.562 115.879 184.502 115.223 184.397ZM114.277 176.194C114.555 178.552 114.828 180.911 115.096 183.27C115.83 183.139 116.588 183.069 117.273 182.976C118.744 182.776 120.224 182.616 121.706 182.533C124.589 182.37 127.474 182.287 130.362 182.226C136.271 182.101 142.186 182.101 148.096 182.055C148.651 182.05 149.063 182.27 149.334 182.598C149.375 181.126 149.418 179.653 149.463 178.18C148.892 178.12 148.326 178.035 147.802 177.998C146.193 177.886 144.582 177.783 142.971 177.691C139.61 177.498 136.245 177.333 132.881 177.187C129.516 177.04 126.15 176.897 122.784 176.772L121.312 176.719C118.971 176.632 116.591 176.522 114.277 176.194ZM113.219 167.314C113.508 169.702 113.793 172.091 114.077 174.48L114.163 175.219C116.978 174.671 119.945 174.511 122.784 174.39C126.151 174.247 129.511 174.173 132.881 174.184C136.247 174.194 139.608 174.273 142.971 174.413C144.652 174.482 146.332 174.562 148.012 174.653C148.474 174.678 149.015 174.665 149.572 174.673C149.585 174.298 149.595 173.922 149.608 173.547C149.659 172.027 149.709 170.506 149.761 168.986C148.625 169.57 147.148 169.805 146.006 170.054L145.876 170.083C143.991 170.506 142.066 170.781 140.142 170.949C136.363 171.278 132.545 171.155 128.77 170.836L128.109 170.779C124.794 170.492 121.357 170.127 118.143 169.307C116.612 168.916 115.03 168.369 113.658 167.576C113.515 167.494 113.368 167.406 113.219 167.314ZM145.138 138.935C145.171 138.806 145.364 138.776 145.428 138.897C145.874 139.745 146.041 140.764 146.35 141.673C146.684 142.65 146.995 143.634 147.363 144.6C148.132 146.617 149.039 148.555 150.12 150.424C151.191 152.274 148.193 153.595 147.405 151.569C146.591 149.479 145.922 147.318 145.518 145.109C145.32 144.031 145.144 142.939 145.087 141.844C145.038 140.903 144.906 139.852 145.138 138.935Z" fill="black"/>
<path fill-rule="evenodd" clip-rule="evenodd" d="M151.143 69.0517C137.248 57.7538 114.981 54.0854 100.107 65.4837C88.5496 76.1808 83.7669 106.578 85.8122 121.853C86.3809 131.65 93.863 142.755 104.846 139.656C106.711 139.473 108.522 138.757 110.404 138.608C112.656 138.348 114.924 138.344 117.172 138.661C122.068 139.354 126.408 141.955 131.161 143.171C139.979 145.427 149.818 143.909 157.408 138.828C182.491 122.33 171.129 85.0192 151.143 69.0517Z" fill="white"/>
<path fill-rule="evenodd" clip-rule="evenodd" d="M149.292 143.442C149.55 143.353 149.807 143.261 150.063 143.166C150.08 143.225 150.107 143.282 150.139 143.337C150.175 143.426 150.211 143.512 150.251 143.599C149.93 143.601 149.609 143.544 149.292 143.442ZM148.776 33.9586C148.662 33.7031 148.531 33.4579 148.383 33.221C148.742 33.3374 149.102 33.4981 149.427 33.7052C149.207 33.7792 148.992 33.8637 148.776 33.9586ZM93.8909 67.3859C93.8761 67.3834 93.8615 67.3812 93.847 67.3787C94.0354 66.8767 94.3711 66.4029 94.7419 66.0607C94.8084 65.9992 94.8805 65.9424 94.9502 65.8836C94.5566 66.3526 94.1996 66.8529 93.8909 67.3859ZM194.317 119.875C194.131 118.112 193.894 116.356 193.588 114.61C193.294 112.938 193.047 111.15 192.196 109.667C191.351 108.189 190.504 106.754 189.498 105.454C189.642 104.791 189.832 104.167 189.997 103.664C190.947 100.769 191.883 97.0912 189.908 94.4007C189.449 93.7773 188.89 93.2996 188.249 92.8684C187.977 92.6846 187.525 92.5176 187.316 92.264C187.168 92.0843 187.219 92.1816 187.212 92.0928C187.176 91.6151 188.296 90.607 188.558 90.2287C189.048 89.5289 189.413 88.7408 189.692 87.9355C190.795 84.7484 190.045 81.2378 189.382 78.0441C189.031 76.3514 188.645 74.6543 188.518 72.9254C188.399 71.3023 188.621 69.7171 188.752 68.1024C188.879 66.5086 188.845 64.8645 188.163 63.3891C187.829 62.6705 187.324 62.0365 186.709 61.5419C186.109 61.0581 185.361 60.777 184.776 60.2951C184.193 59.8152 184.36 59.1665 184.512 58.5029C184.721 57.6025 184.985 56.7085 185.011 55.7786C185.057 54.1575 184.396 52.5785 183.363 51.3529C182.298 50.0869 180.777 49.2307 179.133 49.0384C178.381 48.9496 177.642 49.0999 176.894 49.0471C176.154 48.9964 175.994 48.6265 175.854 47.9502C175.533 46.401 175.664 44.8708 174.902 43.4252C174.226 42.1401 173.023 41.2692 171.694 40.7558C169.259 39.8132 166.426 40.0076 163.856 40.5633C162.34 36.0998 157.605 33.1726 152.947 33.1366C152.22 31.9023 150.988 30.9809 149.583 30.4396C147.259 29.5413 144.798 30.0657 142.377 30.0657H142.367C142.123 30.0507 141.88 30.0446 141.638 30.0467C141.409 30.0338 141.181 30.0148 140.953 29.9896C138.198 29.6639 135.473 28.5353 132.743 29.6409C131.526 30.1333 130.559 30.8921 129.946 31.8601C129.023 32.1114 128.112 32.399 127.219 32.7329C123.346 32.8342 119.509 34.9118 117.551 38.2788C114.794 37.966 111.802 38.4965 109.979 40.7495C109.504 41.3357 109.136 42.0245 108.892 42.7558C107.033 43.3573 105.313 44.4291 104.187 46.0434C103.16 47.5165 102.962 49.4212 103.657 51.0025C101.997 52.2053 100.701 53.9272 100.076 55.9603C99.6962 57.1957 99.6397 58.472 99.884 59.6879C98.1847 60.065 96.5595 60.7639 95.1195 61.8128C93.6104 62.9117 91.7257 64.6606 91.6264 66.6735C91.619 66.8212 91.6247 66.9689 91.6365 67.1163C88.3143 66.8827 84.9269 67.4458 82.6813 70.1102C80.9952 72.1094 80.2623 74.6839 80.7123 77.0277C76.7595 77.8309 73.0219 79.8979 70.4149 82.954C68.52 85.1753 66.8362 87.9989 66.9374 91.0231C66.9691 91.9343 67.1827 92.8515 67.5524 93.6991V93.701C67.394 93.9992 67.2311 94.331 67.0747 94.6839C64.6262 96.3978 62.8473 99.0843 61.8459 102.045C61.0369 104.444 60.5278 107.559 61.3916 110C61.5228 110.372 61.6897 110.723 61.8841 111.049C61.7212 111.222 61.5672 111.395 61.4172 111.571C59.767 113.5 58.0959 115.931 58.2102 118.587C58.2567 119.657 58.6536 120.733 59.3024 121.616C57.0205 123.931 55.1827 126.851 55.3642 130.113C55.5205 132.951 57.0778 135.834 59.5177 137.197C59.1102 139.385 59.6552 141.692 61.3578 143.4C62.2074 144.254 63.2086 144.816 64.2693 145.116C64.5059 147.693 66.7916 149.766 69.2191 150.362C69.6714 150.474 70.1235 150.542 70.5733 150.573C72.7578 151.645 75.3628 151.522 77.5916 150.539C78.2487 151.374 79.1043 152.055 80.1015 152.543C80.505 152.742 80.932 152.907 81.3776 153.04C84.5254 153.972 87.7538 152.708 90.5064 151.233C90.5952 151.186 90.7578 151.127 90.9015 151.062C91.2818 151.486 91.9747 151.907 92.336 152.114C93.5616 152.818 95.0595 153.145 96.4665 153.053C98.1165 152.943 99.5719 152.397 100.92 151.622C101.117 151.656 101.315 151.675 101.514 151.685C102.781 151.753 103.911 151.351 104.928 150.717C105.599 150.806 106.288 150.797 106.985 150.675C108.521 151.066 110.017 150.444 111.219 149.457C111.752 149.02 112.202 148.506 112.683 148.016C113.184 147.507 113.564 147.388 114.149 147.046C115.533 146.237 115.7 144.184 115.1 142.7C115.214 142.441 115.28 142.151 115.28 141.83C115.275 139.027 113.985 136.457 112.4 134.215C111.692 133.215 110.924 132.236 110.08 131.349C109.402 130.637 108.45 129.481 107.446 129.191C107.385 129.147 107.321 129.102 107.258 129.06C107.452 128.379 107.566 127.686 107.518 126.978C107.467 126.251 107.232 125.562 106.857 124.975C108.118 122.529 108.65 119.847 108.397 117.049C109.423 115.593 110.201 113.984 110.602 112.222C110.849 111.131 110.991 109.984 110.972 108.865C110.963 108.329 110.767 107.65 110.763 107.094C110.793 107.27 111.021 106.615 111.109 106.452C112.128 104.56 113.435 103.085 113.653 100.855C113.78 99.5511 113.471 98.1099 112.69 97.0405C113.19 95.0665 113.184 92.9464 112.396 91.0635C112.185 90.5605 111.942 90.0681 111.663 89.601C111.792 89.2079 111.91 88.8105 112.062 88.4531C112.121 88.3115 112.18 88.168 112.24 88.0243C112.812 87.519 113.345 86.9675 113.793 86.4263C114.785 85.2281 115.544 83.8544 115.639 82.2711C115.686 81.4786 115.5 80.7198 115.269 79.9676C115.168 79.6273 115.106 79.249 114.986 78.9172C114.919 78.7331 114.756 78.5452 114.699 78.3719C114.686 78.3339 114.675 78.3022 114.667 78.2768C114.675 78.2515 114.682 78.1986 114.682 78.0991C114.684 77.3403 114.783 76.5985 114.788 75.8674C115.483 76.5691 116.319 77.093 117.27 77.3997C119.186 78.0147 121.185 77.7358 122.881 76.7868C124.707 78.038 126.758 79.1706 128.909 79.6252C130.187 79.8956 131.467 79.7837 132.749 79.9507C134.023 80.1177 135.255 80.6735 136.455 81.1068C139.126 82.0727 141.79 83.0637 144.468 84.0044C146.632 84.7632 148.973 85.3655 151.238 84.9386C151.874 85.919 152.7 86.7477 153.758 87.3564C154.516 87.7897 155.349 88.0833 156.209 88.2293C156.969 88.3582 157.861 88.3075 158.478 88.8295C159.08 89.3368 159.456 90.0932 159.997 90.6641C160.599 91.3023 161.342 91.8561 162.122 92.2534C162.747 92.5726 163.386 92.8027 164.034 92.953C163.977 94.3965 163.922 95.8379 163.905 97.2835C163.874 100.424 163.886 103.565 163.844 106.706C163.802 109.835 163.702 112.966 163.538 116.092C163.381 119.025 163.161 121.969 162.462 124.831C160.142 134.327 151.453 141.126 141.726 141.473C138.838 141.576 135.98 141.17 133.218 140.321C130.358 139.439 127.804 137.626 124.871 137.068C124.104 136.924 123.382 137.696 123.821 138.437C124.578 139.712 125.497 140.49 126.754 141.257C128.07 142.058 129.536 142.652 130.983 143.172C133.645 144.127 136.462 144.681 139.286 144.835C141.441 144.953 143.604 144.806 145.715 144.4C145.863 144.854 146.125 145.296 146.323 145.717C146.353 145.778 146.452 145.736 146.433 145.672C146.401 145.567 146.381 145.474 146.372 145.397C147.082 146.323 148.178 146.963 149.305 147.274C150.099 147.494 150.942 147.561 151.759 147.469C152.024 147.439 152.275 147.395 152.524 147.34C153.356 148.069 154.421 148.555 155.49 148.798C155.307 149.914 155.858 151.131 157.136 151.448C157.673 151.582 158.188 151.584 158.704 151.535C159.12 151.729 159.568 151.882 160.043 151.985C160.662 152.12 161.401 151.947 161.868 151.499C162.124 151.679 162.363 151.803 162.599 152.089C163.574 153.264 165.673 152.328 165.766 150.969C166.075 150.969 166.385 150.973 166.696 150.983C166.77 151.017 166.844 151.051 166.92 151.087C168.278 151.719 169.685 152.271 171.188 151.774C171.464 151.683 171.718 151.567 171.948 151.431C173.006 151.527 174.05 151.529 175.124 151.182C175.757 150.977 176.353 150.652 176.849 150.225C178.506 150.711 180.253 150.931 181.901 150.328C183.135 149.878 184.128 149.168 184.827 148.231C185.896 148.27 186.982 148.012 187.96 147.502C189.633 146.636 190.806 144.989 191.623 143.339C193.424 139.697 194.488 135.785 194.906 131.751C195.318 127.777 194.731 123.825 194.317 119.875Z" fill="black"/>
<path fill-rule="evenodd" clip-rule="evenodd" d="M143.152 128.274C141.732 127.695 140.465 126.728 139.538 125.493C139.216 125.063 139.133 124.61 139.2 124.195C139.276 123.729 139.552 123.306 139.928 123.023C140.305 122.739 140.777 122.598 141.233 122.67C141.63 122.732 142.024 122.949 142.337 123.399L142.402 123.489C142.953 124.235 143.67 124.846 144.488 125.241C145.276 125.621 146.158 125.798 147.07 125.695C148.808 125.499 150.005 124.559 151.278 123.282C151.436 123.121 151.594 122.955 151.752 122.786C151.852 122.633 151.991 122.534 152.146 122.483C152.317 122.425 152.511 122.429 152.689 122.491C152.86 122.55 153.013 122.664 153.116 122.815C153.213 122.958 153.269 123.135 153.251 123.339C153.134 124.661 152.443 125.842 151.461 126.769C150.37 127.799 148.924 128.511 147.563 128.761C146.064 129.036 144.536 128.839 143.152 128.274ZM148.271 107.866C149.866 108.836 152.297 111.098 150.581 113.503C148.56 115.624 145.652 113.193 144.219 112.093C142.89 111.241 141.396 113.433 142.629 114.428C152.987 122.099 157.19 108.12 149.078 106.726C148.184 106.572 147.853 107.566 148.271 107.866ZM129.711 98.9429C129.887 96.7541 133.219 96.257 133.551 98.423C133.847 100.363 133.498 102.145 132.624 103.892C131.79 105.561 129.692 104.783 129.533 103.263C129.32 101.226 129.601 100.304 129.711 98.9429ZM155.076 97.9738C155.541 97.3652 156.212 96.9496 157.015 97.1845C159.526 97.9185 158.786 101.485 157.904 103.22C157.425 104.163 155.876 104.402 155.176 103.572C154.036 102.219 153.489 99.5156 154.94 98.1825C154.979 98.1136 155.023 98.044 155.076 97.9738ZM132.589 89.3654L132.986 89.2959C134.213 89.0836 135.738 88.8796 136.606 89.8665C137.067 90.3898 137.225 91.3624 136.606 91.8633C135.518 92.7446 134.314 92.4031 133.01 92.4777C131.935 92.5394 130.902 92.7174 129.867 93.0135C127.595 93.663 125.744 94.8486 123.804 96.1506C123.55 96.3213 123.29 95.9956 123.411 95.7574C124.531 93.563 126.701 91.7604 128.875 90.6616C130.036 90.0751 131.305 89.5885 132.589 89.3654ZM152.787 88.3823L153.091 88.4445C156.395 89.1353 160.687 90.5153 162.251 93.7615C162.311 94.2205 162.248 94.3189 162.197 94.3832L162.18 94.4046C162.137 94.4595 162.104 94.5351 161.905 94.5976C161.85 94.5844 161.794 94.5705 161.737 94.5557C161.02 94.3677 160.453 94.1087 159.904 93.84L159.308 93.5465C158.617 93.2076 157.92 92.881 157.181 92.6399C155.605 92.1254 153.983 91.7631 152.337 91.5696C151.98 91.5277 151.636 91.4072 151.365 91.2006C151.108 91.0046 150.911 90.7332 150.821 90.3724C150.705 89.9056 150.739 89.5521 150.989 89.1309C151.177 88.8146 151.447 88.5953 151.756 88.4694C152.071 88.3411 152.43 88.3108 152.787 88.3823Z" fill="black"/>
</svg>
