<svg width="240" height="324" viewBox="0 0 240 324" fill="none" xmlns="http://www.w3.org/2000/svg">
<path fill-rule="evenodd" clip-rule="evenodd" d="M192.796 271.476C192.283 266.714 191.968 261.919 191.786 257.133C191.605 252.353 191.842 247.514 191.946 242.731C192.158 233.003 192.502 223.252 191.728 213.538C190.996 204.358 189.317 195.243 186.666 186.422C185.375 182.126 184.015 177.658 181.892 173.689C179.757 169.698 176.375 167.04 172.661 164.603C168.706 162.009 164.783 159.365 160.844 156.746C157.537 154.548 151.586 151.989 148.873 149.05C146.018 145.958 145.481 138.293 143.58 134.63C141.729 131.062 136.488 128.734 132.452 128.734C125.772 128.734 120.711 128.393 115.219 134.574C112.478 137.658 114.659 140.776 111.786 143.737C109.145 146.458 102.392 149.255 98.9881 150.834C94.9114 152.726 90.7319 154.395 86.4918 155.883C82.1665 157.4 77.7322 158.531 73.3826 159.964C69.2135 161.336 63.7695 166.994 60.5329 169.988C57.5238 172.772 56.777 172.46 54.4894 175.841C49.4688 183.262 44.4428 190.768 40.4448 198.802C38.4533 202.804 36.5251 207.014 35.8026 211.459C35.0319 216.2 35.796 220.781 37.0459 225.371C38.3181 230.042 42.3582 234.489 43.6744 239.148C44.2809 241.295 42.1989 243.639 43.1566 245.662C43.6349 246.672 44.2372 247.572 44.923 248.453C45.4514 249.131 47.5119 248.981 47.7786 249.811C48.0479 250.65 46.5571 252.39 46.535 253.258C46.5035 254.5 46.454 255.742 46.4133 256.984L46.1724 264.328C46.0142 269.153 45.8559 273.979 45.6977 278.805C45.6459 280.38 45.5705 281.919 45.9481 283.414C45.8118 283.287 45.6823 283.15 45.564 282.995C45.2177 282.543 44.4833 282.926 44.7772 283.455C45.2678 284.338 45.9732 284.959 46.802 285.406C47.7652 286.826 193.629 289.999 194.347 285.846C194.75 283.516 194.017 281.021 193.724 278.706C193.419 276.295 193.056 273.894 192.796 271.476Z" fill="white"/>
<path fill-rule="evenodd" clip-rule="evenodd" d="M44.6255 211.467C44.9823 210.445 46.6146 210.887 46.2552 211.917C44.4079 217.21 45.7184 222.97 47.7155 228.024C48.1163 229.038 46.4811 229.473 46.0858 228.473C43.985 223.158 42.6852 217.026 44.6255 211.467ZM57.0121 241.704C62.222 242.437 67.4361 242.889 72.6818 243.255C72.9163 243.272 73.1192 243.236 73.2945 243.16C73.1382 245.563 73.0114 247.968 72.9121 250.373C71.4818 250.333 70.022 250.428 68.6044 250.39C66.7516 250.339 64.9008 250.246 63.0523 250.105C59.4734 249.834 55.9008 249.403 52.3621 248.807C51.0396 248.585 49.36 248.45 47.8537 248.01C46.4297 247.594 45.1621 246.905 44.4966 245.607C43.9304 244.508 43.8269 243.162 43.8269 241.947C43.8269 241.109 43.9706 240.26 44.0572 239.416C44.1649 239.341 44.2621 239.25 44.3403 239.148C45.9121 239.645 47.5431 239.994 49.1403 240.332C51.741 240.885 54.3797 241.334 57.0121 241.704ZM54.0736 222.161C54.1023 223.777 54.5492 225.244 55.4185 226.604C56.0067 227.525 54.5433 228.372 53.9591 227.458C52.9357 225.856 52.4173 224.059 52.3835 222.161C52.364 221.071 54.0542 221.075 54.0736 222.161ZM187.622 239.784C188.327 239.824 189.037 239.848 189.745 239.885C190.369 240.419 191.233 240.693 192.022 240.523C192.049 240.591 192.074 240.668 192.096 240.756C192.236 241.3 192.306 241.883 192.386 242.437C192.466 242.982 192.527 243.532 192.57 244.081C192.591 244.358 192.724 244.983 192.555 245.225C192.403 245.442 192.067 245.423 191.834 245.451C191.209 245.518 190.575 245.55 189.946 245.603C188.756 245.706 187.567 245.81 186.38 245.913C185.215 246.015 183.937 245.983 182.799 246.29C182.604 244.005 182.427 241.72 182.262 239.433C184.026 239.694 185.87 239.687 187.622 239.784ZM39.7092 235.995C40.419 237.366 41.074 238.715 42.4324 239.539C42.6099 239.645 42.8085 239.702 43.0113 239.717C42.8592 240.37 42.7641 241.038 42.6796 241.655C42.4937 243.014 42.4535 244.419 42.7937 245.759C43.1254 247.063 43.6747 248.228 44.7521 249.063C45.2528 249.452 45.8 249.747 46.3747 249.982C46.2775 250.255 46.2204 250.525 46.25 250.823C46.1127 251.514 46.0218 252.218 45.9226 252.892C45.7049 254.389 45.4873 255.887 45.3162 257.392C44.974 260.385 44.7057 263.377 44.4796 266.381C44.2535 269.375 44.0909 272.375 43.9557 275.376C43.8859 276.91 43.8247 278.444 43.7676 279.981C43.7106 281.56 43.4549 283.174 44.1521 284.639C44.7141 285.823 46.6134 285.755 47.1965 284.639C47.9359 283.221 47.7183 281.536 47.7373 279.981C47.7564 278.516 47.7817 277.05 47.8134 275.585C47.8768 272.586 47.9697 269.589 48.0437 266.59C48.1155 263.663 48.2042 260.737 48.2634 257.81C48.293 256.278 48.2951 254.746 48.3035 253.213C48.3078 252.364 48.3437 251.457 48.2803 250.572C48.8085 250.696 49.3409 250.802 49.8669 250.91C53.8831 251.734 57.9416 252.334 62.0254 252.706C64.0768 252.892 66.1345 253.023 68.1923 253.097C69.7049 253.152 71.2726 253.258 72.8085 253.201C72.688 256.87 72.6331 260.541 72.6395 264.212C72.6437 266.86 72.6796 269.509 72.7451 272.157C72.781 273.55 72.8106 274.942 72.8528 276.335C72.8718 276.961 72.8718 277.593 72.9141 278.216C72.9268 278.411 72.9542 278.599 72.9902 278.785C72.8507 279.18 72.7345 279.571 72.6395 279.937C72.1747 281.712 72.1747 283.418 72.3817 285.227C72.5592 286.761 73.85 288.183 75.5549 287.645C75.8317 287.558 76.1085 287.467 76.3831 287.374C78.893 287.659 81.4176 287.725 83.9634 287.773C87.6838 287.845 91.4064 287.869 95.1289 287.888C102.43 287.926 109.734 287.945 117.037 287.966C131.714 288.008 146.391 288.048 161.068 288.09C165.141 288.103 169.214 288.114 173.287 288.127C175.396 288.133 177.5 288.135 179.606 288.215C180.589 288.253 181.573 288.306 182.556 288.321C183.694 288.34 184.702 288.012 185.79 287.714C186.405 287.543 186.648 286.926 186.517 286.404C187.501 286.638 188.695 286.14 189.031 285.03C189.276 284.225 189.185 283.352 188.82 282.606V282.604C188.114 278.146 187.218 273.71 186.515 269.251C185.744 264.366 185.002 259.472 184.349 254.568C183.859 250.865 183.456 253.49 183.107 249.771C184.626 249.889 186.344 249.426 187.848 249.229C188.927 249.09 190.016 248.978 191.097 248.83C191.017 249.921 191.04 251.032 191.011 252.078C190.954 254.156 190.979 256.225 191.032 258.303C191.133 262.312 191.359 259.979 191.72 263.971C192.086 267.993 192.534 272 193.077 276.004C193.356 278.064 193.654 280.123 193.968 282.179C194.114 283.139 194.264 284.096 194.418 285.056C194.602 286.186 194.661 287.258 195.508 288.107C196.153 288.752 197.469 288.697 197.896 287.799C198.437 286.664 198.192 285.692 197.991 284.5C197.828 283.542 197.672 282.585 197.518 281.628C197.188 279.575 196.875 277.521 196.582 275.465C196.016 271.502 195.481 267.532 195.004 263.559C194.522 259.554 194.023 261.894 193.55 257.889C193.311 255.868 193.073 253.852 192.794 251.838C192.652 250.802 192.563 249.699 192.377 248.631C192.437 248.623 192.496 248.612 192.555 248.602C193.839 248.367 194.936 247.642 195.259 246.319C195.568 245.053 195.2 243.597 194.94 242.354C194.718 241.296 194.518 239.945 193.837 239.038C196.237 235.98 197.798 232.131 198.793 228.432C199.878 224.401 200.332 220.194 200.428 216.028C200.54 211.203 200.176 206.405 199.35 201.687C199.33 200.687 199.284 199.688 199.21 198.689C198.483 188.891 195.432 177.295 185.761 172.716C185.723 172.698 185.682 172.681 185.642 172.664C184.884 171.757 183.937 170.941 183.173 170.178C181.818 168.825 180.403 167.532 178.903 166.34C175.932 163.979 172.675 162.094 169.288 160.397C165.863 158.679 162.388 157.066 159.042 155.191C156.126 153.555 153.502 151.586 151.011 149.362C148.212 146.862 146.22 143.491 145.438 139.811C145.398 139.619 145.113 139.672 145.108 139.856C144.904 146.6 149.454 152.56 154.692 156.33C160.954 160.835 168.515 162.967 174.866 167.334C176.444 168.418 177.92 169.642 179.325 170.941C177.173 170.721 174.982 170.861 172.964 171.457C172.17 171.408 171.371 171.394 170.575 171.355C168.754 171.264 166.93 171.18 165.107 171.1C161.391 170.935 157.673 170.785 153.954 170.654C146.659 170.396 139.362 170.201 132.065 170.073C117.401 169.813 102.718 169.762 88.0557 170.187C84.0796 170.301 63.1726 169.508 61.2373 169.732C64.0831 167.268 67.2057 165.256 70.6387 163.601C74.9338 161.536 79.3726 160.158 83.9592 158.898C93.4049 156.305 103.214 153.805 110.773 147.217C112.651 145.579 114.32 143.696 115.687 141.61C116.993 139.619 118.444 137.07 118.48 134.642C118.506 132.917 116.106 132.289 115.252 133.767C114.722 134.682 114.46 135.686 114.027 136.645C113.596 137.596 113.085 138.514 112.516 139.391C111.399 141.116 110.013 142.654 108.504 144.043C105.289 147.006 101.393 149.176 97.362 150.818C88.2099 154.545 78.2 156.117 69.5275 161.029C65.7331 163.178 62.1014 166.144 59.8218 169.927C59.4542 169.984 59.0888 170.051 58.7233 170.127C58.9958 169.783 59.2704 169.439 59.5472 169.096C59.7289 168.872 59.4479 168.576 59.2261 168.775C54.9141 172.613 50.9423 176.757 47.3423 181.276C43.8986 185.6 40.6873 190.132 38.4141 195.196C34.3282 204.292 33.4282 214.697 35.5388 224.424C36.1134 227.074 36.9247 229.669 37.9578 232.178C38.4902 233.473 39.0669 234.75 39.7092 235.995Z" fill="black"/>
<path fill-rule="evenodd" clip-rule="evenodd" d="M169.778 127.834C168.941 126.595 166.924 117.604 165.636 116.221C165.733 110.91 167.201 92.5209 163.009 84.2545C163.891 83.3625 166.234 75.6789 165.636 72.7742C167.611 66.6911 154.924 57.0296 150.095 54.4188C127.654 42.3806 95.1356 55.6687 84.9299 77.9694C78.797 91.3996 78.684 106.436 77.9906 120.888C77.9087 123.981 77.6245 127.098 77.6277 130.188C78.0711 132.902 80.2229 135.667 78.5917 137.925C76.7898 139.171 73.148 142.209 74.7694 143.931C75.7197 144.723 77.2377 144.264 78.2689 145.025C78.7939 145.319 79.1213 145.962 79.7353 146.06C85.3436 145.847 89.3011 145.829 94.9268 145.602C97.3895 145.521 101.14 146.563 103.966 144.489C113.841 149.983 109.71 142.012 111.707 136.337C117.787 138.393 129.899 144.952 136.38 145.163C141.647 145.815 146.572 142.746 151.75 143.445C158.182 145.835 165.721 146.367 171.613 142.322C173.083 141.263 174.719 142.49 176.572 141.346C180.174 139.623 171.596 129.745 169.778 127.834Z" fill="white"/>
<path fill-rule="evenodd" clip-rule="evenodd" d="M162.428 83.5493C162.348 83.0904 162.98 82.7483 163.224 83.2132C165 86.5908 165.711 90.5025 166.34 94.2332C166.975 98.0033 167.395 101.789 167.419 105.616C167.436 108.56 167.169 111.538 166.667 114.484L166.728 114.694C166.841 115.079 166.955 115.464 167.07 115.848L167.243 116.425C167.578 117.532 167.895 118.644 168.239 119.748C168.958 122.053 169.715 124.364 170.641 126.595C171.545 128.771 172.645 130.87 173.952 132.832C175.212 134.723 177.211 136.322 178.099 138.422C178.408 139.154 177.951 140.122 177.096 140.005C177.041 140.072 176.956 140.121 176.841 140.131C176.178 140.189 175.556 140.133 174.894 140.071C174.524 140.037 174.525 139.531 174.894 139.497C175.175 139.47 175.449 139.447 175.723 139.431C173.83 138.309 172.479 136.118 171.399 134.324C170.012 132.02 168.964 129.502 168.109 126.955C167.232 124.341 166.611 121.672 166.111 118.962C166.054 118.65 166 118.338 165.947 118.025C165.316 120.708 164.504 123.342 163.541 125.873L163.406 126.225C161.187 131.981 158.181 137.792 153.181 141.596C152.954 141.769 152.723 141.933 152.489 142.093L152.773 142.256C153.057 142.418 153.335 142.573 153.608 142.7C154.618 143.172 155.715 143.531 156.8 143.786C159.041 144.312 161.394 144.161 163.68 144.235C164.429 144.259 164.856 145.383 164.09 145.749C161.565 146.951 158.838 146.696 156.231 145.85C154.942 145.431 153.732 144.844 152.612 144.078C152.149 143.762 151.612 143.372 151.158 142.92C146.158 145.719 139.943 146.032 134.378 145.031C131.486 144.511 128.684 143.561 126.218 141.936C123.846 140.373 122.156 138.394 120.949 135.831C120.842 135.604 121.139 135.321 121.322 135.543C125.113 140.149 131.638 142.071 137.377 142.437C140.44 142.632 143.573 142.47 146.517 141.553C149.31 140.683 151.707 139.089 153.708 136.968C157.764 132.67 160.195 126.823 161.94 121.258C163.839 115.204 164.743 108.835 164.93 102.5C165.024 99.29 164.905 96.0532 164.401 92.8789C163.902 89.7309 162.974 86.684 162.428 83.5493ZM105.586 56.2786C105.854 56.1421 106.044 56.4974 105.816 56.6722C101.088 60.2992 96.8544 64.8981 93.4277 69.7657C87.108 78.7433 83.0551 89.132 81.1887 99.9269C80.0868 106.302 79.799 112.773 79.9091 119.233C79.9527 121.799 80.0992 124.358 80.2622 126.917L80.4461 129.754C80.5316 131.075 80.6029 132.386 80.5478 133.714L80.5327 134.02C80.4453 135.566 80.5972 137.124 80.2097 138.631C80.0109 139.404 78.921 139.526 78.5263 138.851C78.449 138.719 78.3768 138.583 78.3066 138.445C77.3817 139.954 76.1838 141.303 74.8547 142.508C75.49 142.373 76.1314 142.287 76.7899 142.366C77.8338 142.491 78.7701 142.894 79.4327 143.601C80.0904 143.304 80.7666 143.1 81.5443 143.096C82.117 143.093 82.5466 143.77 82.2197 144.274C81.5677 145.278 80.658 145.841 79.6243 146.398C78.8917 146.792 78.0174 146.455 77.7468 145.675L77.7313 145.627C77.4269 144.641 75.8077 144.8 75.0438 144.953L74.819 144.999C73.397 145.295 72.0083 145.674 70.5597 145.283C69.6252 145.031 69.381 143.624 70.2818 143.156C73.1276 141.681 75.5166 139.7 77.9718 137.71C77.4297 136.38 77.1218 134.895 76.7669 133.543C76.2673 131.64 76.1213 129.592 75.9408 127.637C75.598 123.921 75.4672 120.164 75.5039 116.433C75.6284 103.83 77.7829 91.1888 83.2862 79.777C85.6972 74.7779 88.8645 70.1521 92.6084 66.0576C96.3301 61.9872 100.677 58.773 105.586 56.2786ZM101.18 117.996C101.034 117.793 101.319 117.526 101.519 117.657C105.846 120.5 108.848 124.818 110.786 129.561C112.704 134.256 113.881 140.008 111.99 144.904C111.689 145.684 110.247 145.974 110.099 144.904C109.44 140.128 109.338 135.346 107.888 130.703C106.45 126.1 103.991 121.886 101.18 117.996ZM97.825 133.5C97.8486 133.415 97.9864 133.43 97.9804 133.521C97.8721 135.205 97.7985 136.91 97.5869 138.584C97.484 139.398 97.3479 140.207 97.2321 141.019C97.1134 141.852 97.1314 142.692 96.6474 143.403C96.0059 144.346 94.3019 144.081 94.3591 142.784C94.3986 141.888 94.8097 141.314 95.1949 140.528C95.4419 140.025 95.6572 139.504 95.8648 138.981L96.1733 138.197C96.7864 136.641 97.3731 135.111 97.825 133.5ZM90.0766 129.039C90.1028 128.906 90.3164 128.938 90.3101 129.07C90.1945 131.454 89.9258 133.811 89.505 136.159C89.3131 137.23 89.0893 138.295 88.8527 139.356L88.7505 139.811C88.4974 140.929 88.3341 142.243 87.7671 143.242C87.2005 144.24 85.8551 143.515 86.0294 142.509C86.2331 141.334 86.9537 140.153 87.3726 139.025C87.7593 137.983 88.0973 136.923 88.4131 135.858C89.078 133.616 89.6233 131.333 90.0766 129.039ZM104.506 135.656L104.556 135.604C104.753 135.39 105.047 135.533 105.141 135.759C105.526 136.685 105.333 137.777 105.306 138.76L105.3 138.974C105.28 139.97 105.294 140.902 104.843 141.822C104.295 142.938 102.851 142.245 102.739 141.252C102.617 140.168 103.129 139.107 103.46 138.092C103.67 137.447 103.823 136.777 104.143 136.191C103.87 136.238 103.597 136.333 103.347 136.401C103.235 136.431 103.193 136.267 103.3 136.229C103.713 136.082 104.179 135.972 104.506 135.656ZM162.11 138.942C161.978 138.794 162.142 138.597 162.314 138.677C164.371 139.639 166.296 140.264 168.566 140.469C169.55 140.558 169.556 142.104 168.566 142.014C166.197 141.801 163.713 140.738 162.11 138.942ZM89.7135 106.459C91.5251 102.382 97.2564 98.7657 101.1 102.557C101.172 102.628 101.098 102.782 100.994 102.739C98.6032 101.748 95.6768 103.008 94.0223 104.811C92.7097 106.241 91.9211 108.077 91.7645 110.013C91.608 111.95 92.0708 113.972 93.3568 115.47C94.0314 116.256 94.9424 117 96.0144 117.094C97.0967 117.19 97.9988 116.427 99.022 116.22C99.7933 116.064 100.376 116.548 100.451 117.309C100.618 118.988 98.9472 120.114 97.4989 120.388C95.9411 120.682 94.3511 120.361 93.0087 119.516C88.673 116.788 87.7377 110.905 89.7135 106.459ZM130.392 66.5005C131.18 65.7472 132.52 66.4961 132.229 67.5706C131.611 69.8574 130.297 71.7902 128.842 73.6247C127.441 75.3897 125.941 77.0858 124.333 78.6643C122.735 80.2326 120.999 81.6837 119.175 82.9799L118.626 83.3692C117.333 84.281 115.963 85.2031 114.516 85.8598C114.166 88.8715 113.483 91.8431 112.448 94.6881C111.452 97.4276 110.185 100.075 108.649 102.553L108.428 102.908C107.017 105.17 105.32 107.699 102.925 108.94C102.853 108.977 102.781 109 102.71 109.013C103.246 109.371 103.698 109.82 103.967 110.466C104.262 111.173 103.646 111.841 103.055 112.074C101.805 112.568 100.586 111.732 99.4631 110.84C99.4155 110.947 99.3707 111.055 99.3323 111.164C99.0811 111.876 99.0071 112.604 98.3594 113.077C98.0516 113.301 97.6723 113.1 97.4786 112.846C96.8435 112.011 97.501 110.874 98.0594 110.191C98.1367 110.097 98.2166 110.008 98.2988 109.922C98.0628 109.748 97.8325 109.594 97.6094 109.476C96.2976 108.781 94.3531 108.658 93.5978 110.196C93.54 110.314 93.3581 110.253 93.3581 110.131C93.36 108.242 95.295 107.215 96.9741 107.076C98.201 106.974 99.3876 107.404 100.492 107.905L100.698 108C101.109 108.191 101.532 108.371 101.937 108.573C101.872 108.399 101.873 108.194 101.976 107.991C103.246 105.51 105.427 103.493 107 101.195C108.559 98.9151 109.898 96.4755 110.967 93.9281C112.004 91.4555 112.817 88.9053 113.385 86.3042C113.198 86.3429 112.987 86.1761 113 85.9806C113.032 85.5076 113.263 85.0816 113.67 84.9C114.117 82.4534 114.346 79.9654 114.332 77.4573C114.331 77.2629 114.613 77.2698 114.629 77.4573C114.827 79.6873 114.843 81.939 114.677 84.1776C115.734 83.205 116.848 82.2803 117.866 81.2819C119.397 79.7796 120.878 78.2372 122.307 76.6375C123.764 75.0054 125.142 73.3134 126.402 71.523L127.062 70.5841C128.075 69.1448 129.117 67.7204 130.392 66.5005ZM128.404 50.4324C137.099 49.8894 146.385 50.9584 154.195 55.0415C158.484 57.2837 161.8 60.6727 164.169 64.8902C165.583 67.4087 166.656 70.1974 167.063 73.0646C167.48 76.0106 166.99 78.6375 165.11 80.9793C164.363 81.9092 163.105 80.8704 163.289 79.9189C164.415 74.0975 162.589 68.3458 159.351 63.5264C154.652 56.5328 146.446 53.4262 138.457 52.0403C134.531 51.3598 130.55 51.0753 126.568 51.2137C123.531 51.3194 120.417 51.6024 117.536 52.6243C117.414 52.6674 117.366 52.478 117.483 52.4334C120.92 51.1203 124.756 50.6602 128.404 50.4324ZM141.299 63.5959C141.747 63.3121 142.295 63.6033 142.448 64.0638C142.991 65.6874 141.854 67.8324 141.093 69.2375C140.233 70.8275 139.126 72.3141 137.983 73.7105C135.696 76.5033 132.691 78.8336 129.393 80.2983C129.191 80.3881 128.956 80.1442 129.141 79.9717C131.693 77.5947 134.006 75.0462 136.009 72.1873C136.993 70.7824 137.814 69.3005 138.598 67.7781C139.299 66.4157 139.959 64.4459 141.299 63.5959ZM155.922 65.5085C156.209 64.5093 157.838 64.6794 157.77 65.7588C157.596 68.5471 156.281 71.346 154.852 73.7091C153.381 76.1424 151.518 78.3109 149.382 80.1836C149.277 80.276 149.133 80.1338 149.228 80.0296C151.071 78.0116 152.559 75.7129 153.661 73.2114C154.762 70.7134 155.178 68.1071 155.922 65.5085ZM147.825 65.0571C148.137 64.1882 149.628 64.2527 149.537 65.2889C149.285 68.1375 147.614 71.1228 146.067 73.4756C144.424 75.9718 142.328 78.1709 139.985 80.0179C139.897 80.087 139.773 79.9725 139.859 79.8917C141.963 77.9082 143.67 75.617 145.021 73.0613C145.71 71.7573 146.289 70.3994 146.746 68.9966C147.168 67.6989 147.366 66.3361 147.825 65.0571Z" fill="black"/>
<path fill-rule="evenodd" clip-rule="evenodd" d="M133.555 121.879C135.088 121.584 136.994 122.228 138.522 122.511L138.636 122.531C140.489 122.855 142.338 123.246 144.211 123.437C146 123.62 147.827 123.653 149.615 123.447C150.475 123.348 151.326 123.18 152.161 122.954C152.518 122.858 152.872 122.75 153.222 122.63L153.261 122.615C153.518 122.509 154.213 122.109 154.205 122.332C154.4 122.106 154.67 121.946 154.965 121.869C155.382 121.759 155.918 121.862 156.267 122.157C156.721 121.797 157.402 122.055 157.706 122.486C158.228 123.225 158.058 124.091 157.991 124.948L157.985 125.023C157.928 125.831 157.84 126.633 157.732 127.435L157.684 127.778C157.516 128.964 157.47 130.92 156.033 131.309C154.897 131.617 153.858 130.447 153.125 129.519L152.725 129.005C152.25 128.403 151.819 127.782 151.471 127.097C151.313 126.786 151.16 126.466 151.028 126.143C151.011 126.102 150.999 126.065 150.986 126.028C148.879 126.312 146.723 126.272 144.611 125.993C143.273 125.817 141.956 125.562 140.658 125.219L140.073 126.278C139.388 127.512 138.693 128.743 137.962 129.95L137.906 130.042C137.222 131.13 136.077 132.22 134.724 131.405C133.512 130.675 133.461 129.016 133.333 127.777C133.248 126.95 133.179 126.117 133.146 125.285L133.134 124.929C133.112 124.123 132.981 123.188 133.291 122.433C133.336 122.324 133.494 122.239 133.589 122.355C134.236 123.142 134.432 124.363 134.712 125.329C135.023 126.404 135.474 127.579 135.636 128.694L135.681 128.616C135.841 128.313 136.003 128.012 136.167 127.711L136.657 126.808C137.097 125.993 137.544 125.183 137.996 124.375C137.48 124.181 136.969 123.973 136.46 123.761L135.305 123.278C134.645 122.999 133.973 122.685 133.477 122.177C133.389 122.088 133.42 121.905 133.555 121.879ZM155.468 124.857C154.33 125.32 153.153 125.654 151.954 125.875C152.031 125.955 152.109 126.034 152.18 126.117C152.462 126.444 152.762 126.757 153.063 127.067L153.243 127.253C153.704 127.726 154.397 128.506 155.103 128.958L155.142 128.754C155.148 128.719 155.153 128.688 155.155 128.664L155.231 127.992C155.243 127.88 155.255 127.768 155.266 127.656C155.327 127.049 155.375 126.442 155.426 125.835C155.452 125.515 155.459 125.186 155.468 124.857ZM142 85.7852C144.71 84.627 147.927 85.1739 150.262 86.9233C152.651 88.7137 153.696 91.6244 153.834 94.5283C155.723 92.9145 158.444 94.1361 160.035 95.6483C161.872 97.3934 162.8 100.027 162.372 102.526C161.946 105.017 160.144 107.215 157.706 107.956C156.54 108.31 155.24 108.318 154.066 107.989C153.668 107.876 153.18 107.703 152.729 107.461C152.754 107.564 152.781 107.668 152.805 107.771C153.391 110.25 153.723 113.037 152.844 115.488C151.432 119.428 146.417 121.633 143.286 118.136C142.057 116.763 141.101 114.614 141.176 112.742C141.215 111.759 141.772 110.621 142.921 110.688C143.813 110.739 144.236 111.485 144.008 112.275L143.994 112.321C143.51 113.831 144.335 116.013 145.531 117.043C147.364 118.622 149.88 117.248 150.883 115.396C152.051 113.237 151.909 110.47 151.535 108.122C151.169 105.816 150.351 103.707 149.483 101.573C149.391 101.59 149.297 101.605 149.202 101.618C147.475 101.852 143.963 101.941 142.055 100.69C142.26 102.621 141.858 104.609 140.761 106.244C139.539 108.066 137.698 109.031 135.556 109.326C133.475 109.613 131.062 109.672 129.008 109.178C124.633 108.128 123.09 102.724 124.413 98.8236C125.196 96.5163 127.38 94.4411 129.808 93.9169C131.058 93.0939 132.738 92.8502 134.181 92.9625C136.337 93.1305 138.46 94.0623 139.904 95.6988C140.456 96.324 140.909 97.0318 141.259 97.7893C141.376 97.6967 141.513 97.6272 141.668 97.5908C141.909 97.5342 142.121 97.5215 142.357 97.6048C142.474 97.6464 142.644 97.7935 142.746 97.889L142.979 98.1629C143.265 98.4962 143.537 98.7756 144.046 98.9828C145.464 99.5604 147.388 99.6857 148.895 99.5676C152.74 99.2666 152.256 94.1716 151.309 91.554C150.187 88.4531 146.971 86.5241 143.7 87.0749C142.294 87.3114 140.953 88.0598 139.925 89.0377C138.776 90.1295 138.284 91.4483 137.595 92.8304C137.555 92.9122 137.414 92.8944 137.396 92.8042C136.83 89.8901 139.515 86.847 142 85.7852ZM121.52 109.279C121.403 109.142 121.557 108.901 121.724 109.015C122.949 109.848 124.312 110.449 125.794 110.611C126.49 110.688 127.191 110.693 127.884 110.586C128.475 110.495 129.007 110.315 129.597 110.477C129.91 110.564 129.967 110.928 129.776 111.156C128.885 112.217 126.693 111.934 125.498 111.649C123.952 111.282 122.55 110.491 121.52 109.279ZM162.762 107.343C163.363 106.97 164.08 107.709 163.724 108.306C162.81 109.837 160.162 109.961 158.626 109.595C158.506 109.566 158.534 109.378 158.655 109.381C159.538 109.403 160.336 109.233 161.097 108.772C161.747 108.379 162.134 107.732 162.762 107.343ZM133.404 95.1064L133.283 95.1074C131.879 95.13 130.592 95.6658 129.239 95.949C129.127 95.9727 129.014 95.9607 128.913 95.9235C127.264 97.0235 126.128 98.7532 125.974 101.029C125.867 102.606 126.252 104.323 127.187 105.617C128.252 107.089 129.968 107.317 131.658 107.361L131.829 107.364C135.023 107.427 138.537 107.238 139.676 103.666C140.518 101.022 139.618 97.8125 137.271 96.2289C136.132 95.4598 134.77 95.1051 133.404 95.1064ZM159.136 97.0024L159.042 96.893C157.789 95.4551 155.803 94.1455 153.845 94.8697L153.851 95.1118C153.851 95.1522 153.852 95.1926 153.852 95.233C153.846 98.0097 152.77 100.601 150.127 101.416C150.836 102.428 151.406 103.551 151.862 104.717C152.023 104.611 152.219 104.545 152.446 104.522C153.377 104.427 153.91 105.302 154.717 105.628C155.473 105.933 156.329 106.012 157.127 105.854C158.872 105.509 160.096 104.004 160.525 102.334C161.009 100.446 160.369 98.4669 159.136 97.0024ZM132.578 99.3394C133.16 98.3562 134.595 98.4985 135.17 99.3653L135.198 99.4085L135.204 99.4005C136.162 100.643 135.699 102.605 134.308 103.303C133.192 103.863 131.772 103.716 131.03 102.627C130.864 102.382 130.757 102.095 130.718 101.804C130.692 101.606 130.707 101.408 130.751 101.211L130.74 101.257C130.762 101.158 130.797 101.002 130.806 100.965C130.904 100.564 131.139 100.134 131.433 99.8443C131.736 99.5454 132.158 99.3637 132.578 99.3394ZM156.486 98.3181C157.002 98.3181 157.459 98.5336 157.831 98.8754C158.361 99.3617 158.434 100.062 158.32 100.726C158.285 100.929 158.237 101.125 158.186 101.324L158.143 101.505C158.135 101.535 158.127 101.564 158.118 101.594C158.086 101.717 158.036 101.831 157.976 101.939C157.755 102.76 156.863 103.167 156.077 102.988C155.706 102.904 155.337 102.597 155.149 102.275C155.087 102.169 155.043 102.063 155.012 101.957L154.859 101.594C154.831 101.506 154.813 101.413 154.79 101.324C154.738 101.125 154.689 100.928 154.653 100.726C154.532 100.04 154.628 99.389 155.142 98.8754C155.487 98.5303 155.999 98.3181 156.486 98.3181ZM145.137 91.1991C146.031 91.079 146.942 91.4958 147.405 92.286C147.806 92.9729 147.805 93.8972 147.405 94.5841L147.371 94.6422C146.634 95.9073 144.915 96.0696 143.88 95.0921L143.83 95.0448C143.165 94.4165 143.015 93.3743 143.36 92.5581C143.675 91.8116 144.335 91.3071 145.137 91.1991Z" fill="black"/>
<path fill-rule="evenodd" clip-rule="evenodd" d="M166.085 109.758C164.662 111.67 162.025 112.278 159.593 112.068C154.347 111.563 152.696 105.603 152.524 100.97C156.042 101.96 152.226 94.9488 164.251 94.1778C168.491 93.8244 167.322 96.3856 169.195 98.2569C169.156 102.184 168.503 106.452 166.085 109.758ZM141.098 105.245C138.001 119.755 121.041 116.304 119.259 103.224C120.904 102.062 120.471 99.1942 122.515 98.155C125.754 96.0846 129.803 96.1732 133.481 96.2218C138.183 96.545 139.523 98.4934 141.938 100.619C141.822 102.039 141.487 103.722 141.098 105.245ZM172.803 91.7748C172.629 91.7458 172.455 91.7185 172.281 91.693C172.145 91.6158 171.986 91.5564 171.8 91.5207C171.377 91.4131 170.956 91.3407 170.536 91.3016C164.508 89.9445 150.563 91.8714 149.987 97.0173C148.068 97.6583 146.407 97.0843 144.182 97.1414C142.489 90.0601 113.21 91.0596 111.802 95.3288C111.797 95.3274 111.792 95.3261 111.786 95.3244C110.433 94.9055 108.439 95.0065 106.89 94.9402C103.584 94.8708 100.273 95.1657 97.0381 95.8633C90.98 96.8265 82.712 97.954 86.9254 105.522C86.9262 105.523 86.9268 105.525 86.9279 105.526L86.9285 105.525C87.6546 106.27 88.887 105.67 88.9328 104.662C87.5163 101.077 90.7157 100.647 93.1774 99.6163C99.3027 97.4149 105.539 97.1097 111.874 97.7906C112.351 98.352 113.074 98.8415 113.838 99.0976C118.074 99.801 115.842 102.944 118.519 103.401C118.027 114.358 131.325 120.339 139.029 113.136C142.106 110.128 142.839 105.67 143.552 101.653C143.929 101.568 144.169 101.362 144.309 101.089C145.216 100.183 145.786 99.3464 147.579 99.0976C149.373 98.8491 150.753 99.3481 150.94 99.5009C150.987 99.5958 151.038 99.6909 151.096 99.786C151.178 99.9278 151.29 100.041 151.417 100.13C149.646 111.041 158.113 117.941 166.66 112.282C170.374 108.787 171.159 103.436 171.314 98.6597C171.818 98.3558 172.137 97.7668 171.962 97.0262C171.722 96.0054 172.285 95.1215 173.182 94.6777C174.348 94.1013 174.142 91.9965 172.803 91.7748Z" fill="black"/>
</svg>
