<svg width="240" height="324" viewBox="0 0 240 324" fill="none" xmlns="http://www.w3.org/2000/svg">
<path fill-rule="evenodd" clip-rule="evenodd" d="M186.455 183.12C183.523 169.221 173.122 158.436 159.135 153.064C156.446 151.542 153.84 145.014 150.226 143.819C149.647 143.627 150.561 145.152 150.226 145.244C149.031 145.568 147.692 145.602 146.373 144.429C144.015 142.332 143.275 136.207 141.841 133.438C134.28 118.837 115.4 124.55 112.871 140.691C111.108 141.841 108.615 142.854 106.695 143.781C104.718 144.735 102.979 147.046 100.942 147.873C99.1244 148.61 96.1294 148.088 94.2979 148.73C85.8737 151.687 78.7388 155.417 73.145 162.975C71.9664 164.569 70.6377 166.528 69.5651 168.138C64.0354 174.507 60.1945 181.644 56.6571 189.302C46.76 211.78 44.0681 236.667 41.6529 260.885C41.7078 265.122 38.8971 276.872 43.0542 278.903C42.8057 279.161 42.8957 279.679 43.3567 279.674C53.8975 279.568 64.4138 280.511 74.791 282.346C79.7979 283.231 84.7779 284.445 89.8779 284.645C100.465 284.572 111.013 282.797 121.586 284.476C134.297 284.476 149.744 284.106 163.884 283.562C177.099 283.054 190.385 284.202 203.437 281.954C204.47 281.79 204.974 280.53 204.758 279.626C203.227 274.044 202.475 268.3 201.616 262.587C201.787 258.922 201.481 255.097 200.126 251.684C196.585 228.643 192.045 205.752 186.455 183.12Z" fill="white"/>
<path fill-rule="evenodd" clip-rule="evenodd" d="M182.19 213.406C181.912 214.761 181.521 216.116 181.001 217.399C180.5 218.637 179.746 219.747 179.227 220.97C179.157 221.135 179.043 221.26 178.905 221.355L178.948 221.688L178.988 222.021C179.247 224.267 179.538 226.507 179.791 228.753L179.913 229.877C180.41 234.567 181.193 239.233 181.802 243.91C182.398 248.49 183.004 253.07 183.652 257.644C184.322 262.359 185.005 267.068 185.801 271.764C186.137 273.748 186.488 275.729 186.854 277.709L187.136 279.225C190.043 279.924 190.838 283.978 187.878 285.474C186.534 286.151 184.808 285.988 183.701 284.925C182.55 283.817 182.503 281.82 182.236 280.32L181.978 278.925C180.053 268.442 178.383 257.837 177.602 247.205C177.401 244.46 177.232 241.713 177.122 238.963C177.018 236.376 177.068 233.79 177.028 231.203L177.014 230.498C176.953 227.74 177.004 224.986 177.076 222.228C177.084 221.892 177.099 221.556 177.116 221.218C177.019 221.104 176.949 220.968 176.92 220.837L176.881 220.664C176.786 220.218 176.894 219.696 177.236 219.377C177.384 217.498 177.579 215.621 177.631 213.744C177.636 213.59 177.857 213.594 177.87 213.744C177.995 215.342 178.244 216.944 178.493 218.544C180.097 217.255 181.282 215.129 181.981 213.349C182.032 213.22 182.22 213.267 182.19 213.406ZM144.251 138.711C144.517 139.928 145.043 141.021 145.749 142.037C146.085 142.524 146.467 142.976 146.926 143.354C147.319 143.677 147.767 143.889 148.185 144.17C148.793 144.075 149.429 144.305 149.856 144.753L149.789 144.098C149.767 143.887 150.118 143.845 150.158 144.049C152.007 153.374 153.692 162.706 155.151 172.098L155.791 176.246L156.393 180.14C157.392 186.629 158.359 193.115 159.086 199.651C160.056 208.374 160.871 217.12 161.467 225.878C162.065 234.698 162.433 243.523 162.695 252.36C162.76 254.588 162.83 256.813 162.898 259.041L163.349 256.378C163.799 253.714 164.241 251.048 164.619 248.372C165.978 238.796 167.064 229.152 167.594 219.493C168.08 210.654 167.917 201.64 165.67 193.03C165.103 190.863 164.41 188.731 163.574 186.653C162.762 184.633 161.655 182.76 160.783 180.77C159.769 178.453 159.464 176.268 159.986 173.774C160.443 171.601 161.244 169.557 161.387 167.321C161.655 163.17 160.305 159.15 158.398 155.517C157.895 154.56 157.364 153.615 156.811 152.679C155.136 149.849 153.247 147.122 151.286 144.508C151.181 144.369 151.405 144.214 151.519 144.328C153.306 146.095 155.26 147.833 156.868 149.762C157.65 150.701 158.412 151.658 159.135 152.641C167.062 153.966 173.873 158.905 178.529 165.428C183.813 172.829 186.486 181.738 188.463 190.51C190.663 200.26 192.517 210.099 194.493 219.897C196.538 230.035 198.572 240.174 200.63 250.31C201.652 255.342 202.675 260.375 203.695 265.409C204.213 267.958 204.756 270.5 205.324 273.041C205.616 274.343 205.929 275.643 206.199 276.949C206.503 278.422 206.22 279.364 205.223 280.447C204.855 280.848 204.274 280.842 203.818 280.628L203.675 280.561L203.537 280.495C202.973 280.217 202.53 279.929 202.179 279.311C201.792 278.633 201.731 277.881 201.598 277.126C201.352 275.737 201.11 274.349 200.865 272.958C200.498 270.879 200.1 268.805 199.695 266.732L197.662 256.371C197.12 253.608 196.577 250.846 196.031 248.085C194.081 238.21 192.129 228.338 190.177 218.466C188.302 208.987 186.644 199.442 184.51 190.018L184.389 189.487L184.266 188.957C182.358 180.832 179.692 172.974 174.855 166.089C171.133 160.795 165.963 156.067 159.874 153.674C160.303 154.292 160.715 154.921 161.108 155.564C163.576 159.596 165.378 164.384 164.955 169.185C164.748 171.531 163.857 173.837 163.941 176.202C164.019 178.303 165.319 180.148 166.217 181.976C168.255 186.119 169.73 190.521 170.681 195.038C172.589 204.107 172.582 213.438 171.925 222.644C171.211 232.652 169.855 242.657 168.31 252.567C167.518 257.65 166.464 262.691 165.657 267.766C165.258 270.268 164.714 272.764 164.239 275.254L164.013 276.443C163.886 277.103 163.754 277.761 163.602 278.412L163.508 278.802V278.872C163.504 279.352 163.373 279.749 163.162 280.066C162.872 280.994 162.513 281.899 162.036 282.767C161.791 283.211 161.436 283.46 161.049 283.551C160.66 284.441 159.779 285.126 158.727 285.122L144.891 285.069C136.855 285.037 128.818 284.984 120.781 284.94C118.753 284.929 116.727 284.891 114.701 284.838C112.802 284.786 110.981 284.557 109.103 284.321C106.981 284.054 105.832 282.552 106.149 280.432C106.219 279.964 106.295 279.5 106.367 279.035C105.944 279.174 105.441 279.109 105.101 278.777L104.782 278.465C104.34 278.027 103.945 277.598 103.665 277.014C103.375 276.414 103.14 275.78 102.885 275.167C102.333 273.848 101.797 272.525 101.275 271.196C100.229 268.537 99.1837 265.868 98.2116 263.181C96.2872 257.861 94.5842 252.461 93.1034 247C90.4625 237.257 88.5525 227.326 87.3482 217.306L87.0603 214.917L86.9766 214.212C86.52 210.328 86.1356 206.384 86.3172 202.509C86.4294 200.082 86.8053 197.637 87.7118 195.371C88.5482 193.281 89.8391 191.493 91.0665 189.625L91.207 189.409L91.3482 189.189C92.4217 187.492 93.2759 185.717 93.3187 183.657C93.362 181.565 92.753 179.53 92.072 177.572L91.9023 177.089L91.7884 176.77C90.3398 172.723 88.6912 168.734 89.2349 164.331C90.0379 157.846 93.9672 152.62 98.9111 148.589C94.5144 149.46 90.1625 151.18 86.3217 153.362C81.7856 155.94 77.7018 159.343 74.1799 163.183C67.525 170.441 62.7736 179.148 58.8844 188.139C54.813 197.549 51.794 207.408 49.5189 217.397C47.2308 227.442 45.6992 237.648 44.6532 247.894C44.1315 252.994 43.7215 258.107 43.3815 263.221C43.2083 265.842 43.0773 268.467 42.8745 271.084C42.6717 273.698 42.5806 276.352 41.9426 278.897C41.6447 280.083 39.6356 280.203 39.4203 278.897C38.9425 275.98 39.076 272.964 39.2094 270.01L39.2215 269.742C39.3527 266.8 39.5238 263.86 39.7264 260.92C40.1407 254.911 40.694 248.911 41.4165 242.93C43.9496 221.934 48.621 201.049 57.7837 181.883C62.0977 172.857 67.6351 164.086 75.3379 157.567C79.0053 154.467 83.1398 151.992 87.5954 150.2C91.5801 148.596 95.628 147.837 99.8618 147.839C101.985 146.212 104.265 144.793 106.542 143.582C106.679 143.508 106.823 143.686 106.709 143.8C106.65 143.857 106.593 143.916 106.534 143.971C106.791 143.988 107.057 144.109 107.296 144.36C108.133 145.237 108.839 146.334 109.47 147.473C110.431 148.674 111.348 149.914 112.308 151.102C113.843 153.004 115.415 154.879 117.006 156.739C119.678 159.865 122.437 162.931 125.314 165.874L125.795 166.364C127.286 167.875 128.797 169.684 130.561 170.88L130.655 170.943C131.399 171.428 131.927 171.516 132.562 170.792C133.139 170.132 133.619 169.367 134.112 168.64L134.227 168.473C136.747 164.81 139.084 161.012 141.198 157.103C142.162 155.323 143.079 153.518 143.949 151.693L144.209 151.145C144.682 150.139 145.196 149.152 145.586 148.116C145.677 147.873 145.766 147.63 145.852 147.389C144.521 146.516 143.491 144.627 143.117 143.147C142.728 141.611 142.924 140.034 143.617 138.628C143.748 138.364 144.188 138.429 144.251 138.711ZM78.5915 201.15C78.4074 206.992 78.2956 212.84 78.0207 218.677L77.9259 220.67C78.3545 221.148 78.6059 221.699 78.4052 222.456C78.3273 222.746 78.0968 223.008 77.8095 223.105L77.7199 224.958C77.3122 233.295 76.8342 241.614 75.9609 249.93C74.8686 260.337 73.6052 270.726 72.3442 281.114C72.1646 282.585 71.1419 283.752 69.551 283.537C67.9414 283.319 67.2885 281.917 67.4998 280.457C68.3301 274.727 69.1285 268.993 69.828 263.245L70.6244 256.695C71.6232 248.508 72.6454 240.322 73.8231 232.161C74.3153 228.75 74.8266 225.341 75.3398 221.932L75.1604 221.699C74.4271 220.746 73.6686 219.814 72.9186 218.876C71.478 217.067 70.0562 215.272 68.7357 213.379C68.67 213.283 68.8033 213.144 68.8982 213.216C70.7489 214.583 72.5005 216.046 74.2625 217.532L75.8048 218.838C76.6921 212.947 77.5709 207.055 78.3545 201.15C78.3738 201.002 78.5956 200.991 78.5915 201.15ZM105.213 145.244C104.1 146.294 102.961 147.321 101.839 148.365L101.428 148.75L101.019 149.136C99.0471 151.006 97.1578 152.954 95.5836 155.19C92.6934 159.296 90.9716 164.303 92.1735 169.316C93.1709 173.469 95.4589 177.234 96.0737 181.49C96.382 183.623 96.2322 185.766 95.4291 187.78C94.6094 189.834 93.2996 191.595 92.1228 193.448C89.5665 197.477 89.2179 201.898 89.4716 206.565C89.7378 211.439 90.2975 216.314 90.9885 221.144C92.3869 230.929 94.4953 240.613 97.2862 250.097C98.6829 254.846 100.333 259.493 101.974 264.16C102.792 266.483 103.745 268.75 104.727 271.007C105.245 272.195 105.775 273.377 106.314 274.556C106.115 272.891 106.115 271.181 106.018 269.526C105.878 267.155 105.701 264.788 105.538 262.418C105.207 257.61 104.911 252.798 104.647 247.985C103.711 230.824 103.022 213.647 103.073 196.458C103.098 187.862 103.274 179.267 103.643 170.679C103.817 166.636 104.152 162.596 104.456 158.557L104.52 157.692C104.789 154.068 105.11 150.434 105.661 146.841C105.498 146.473 105.356 146.1 105.251 145.717L105.213 145.573L105.241 145.578C105.215 145.465 105.207 145.354 105.213 145.244ZM114.843 130.474C114.866 130.375 115.007 130.384 115.033 130.474C115.66 132.588 115.438 134.913 114.898 137.039C114.606 138.191 114.192 139.309 113.691 140.387L113.516 140.764C113.087 141.682 112.604 142.628 111.769 143.2C111.42 143.439 110.797 143.453 110.448 143.2L110.27 143.065C110.241 143.042 110.212 143.019 110.184 142.995C109.859 142.722 109.698 142.12 109.848 141.723C110.235 140.697 111.112 139.945 111.718 139.032C112.255 138.22 112.73 137.364 113.125 136.475C113.976 134.549 114.359 132.506 114.843 130.474Z" fill="black"/>
<path fill-rule="evenodd" clip-rule="evenodd" d="M164.761 68.5752C164.292 67.3906 163.462 65.9017 162.075 65.8423C161.002 62.5611 158.334 59.2194 154.624 59.3082C143.734 48.167 130.023 48.6922 115.689 51.0507C108.126 52.4539 100.447 55.2014 94.8069 60.6234C88.0514 67.0066 85.4209 78.1445 90.7111 86.2162C86.139 88.6672 86.0503 94.4836 88.0056 98.6808C85.6552 100.307 85.5124 104.253 88.1589 105.493C88.0182 106.07 88.1177 106.666 88.3861 107.178C87.0739 108.271 85.366 109.078 83.9541 109.772C83.33 110.079 82.97 110.579 82.8204 111.144C78.1844 114.187 66.6242 121.622 66.762 127.54C66.6939 130.628 68.9832 132.66 71.7652 133.469C70.1099 136.779 68.8535 140.646 70.438 144.217C70.876 145.296 74.1574 148.467 74.3227 148.525C74.6115 148.773 79.3191 146.611 81.6071 145.508C82.0508 148.395 85.1368 149.907 87.7968 148.918C90.3192 148.157 91.8696 146.021 93.4605 144.078C95.5721 148.686 101.785 148.739 105.8 146.753C109.406 145.086 112.148 142.032 113.675 138.351C121.783 142.322 131.271 143.48 140.08 141.893C140.646 142.894 141.897 143.567 143.012 143.18C147.697 141.771 152.877 141.692 156.848 138.464C165.125 132.52 165.822 121.563 165.245 112.223C164.733 102.91 165.181 93.5199 163.489 84.3077C164.223 81.5955 165.444 79.1977 166.575 76.6497C167.803 73.9778 167.777 70.0059 164.761 68.5752Z" fill="white"/>
<path fill-rule="evenodd" clip-rule="evenodd" d="M87.805 108.105C88.2928 107.982 88.5548 108.638 88.1407 108.902C85.5117 110.574 82.7958 112.068 80.2562 113.889C77.8407 115.619 75.6096 117.59 73.5291 119.709L73.2985 119.945C71.4176 121.881 69.3345 124.343 69.3134 127.199C69.2971 129.419 71.0077 131.841 73.3944 131.55C74.2936 131.44 75.1201 132.581 74.8063 133.404L74.4762 134.271C73.1483 137.781 71.7972 141.757 72.8462 145.449L72.8846 145.581C73.1384 146.426 73.4058 147.173 74.3868 147.156C75.2971 147.14 76.2444 146.833 77.0967 146.54C78.8652 145.932 80.4679 144.917 81.8282 143.641C83.0315 142.512 84.5688 143.659 84.4068 145.093L84.4011 145.139C84.1794 146.749 86.7427 147.496 87.9081 147.266C90.209 146.811 91.8495 144.504 93.1562 142.746C93.7843 141.901 95.3099 141.569 95.8617 142.746C96.9552 145.078 99.2092 146.822 101.846 146.895C103.216 146.933 104.53 146.543 105.69 145.819C106.163 145.524 106.587 145.173 106.975 144.775L107.072 144.674C107.646 144.065 108.043 143.741 108.777 143.343C109.5 142.951 110.435 143.437 110.431 144.292C110.425 145.4 110.1 146.137 109.337 146.94C108.705 147.606 107.954 148.19 107.165 148.657C105.579 149.595 103.693 150.122 101.846 150.061C98.9352 149.965 96.1568 148.513 94.3558 146.256C92.5169 148.456 90.2358 150.477 87.2715 150.422C85.0524 150.382 82.9843 149.226 81.9935 147.435C80.5946 148.4 79.0594 149.155 77.417 149.647L77.2706 149.69C74.9458 150.367 72.2705 150.636 70.7741 148.328C69.3692 146.16 69.2644 143.158 69.5863 140.68C69.8739 138.467 70.5546 136.365 71.3363 134.292C69.1112 133.627 67.3841 131.537 66.7908 129.283C65.8934 125.875 67.6344 122.569 69.7868 120.037C72.1249 117.286 75.0677 114.959 78.0324 112.923C80.9893 110.892 84.3018 108.983 87.805 108.105ZM163.834 81.4467C163.839 81.352 163.995 81.3188 164.009 81.4228C165.03 88.8366 165.622 96.2353 166.111 103.7C166.359 107.482 166.641 111.26 166.95 115.037C167.246 118.659 167.738 122.377 167.627 126.013C167.453 131.708 164.688 136.338 160.156 139.671C155.813 142.864 150.425 144.443 145.139 145.11C142.069 145.497 138.956 145.516 135.883 145.152C134.287 144.963 132.693 144.711 131.129 144.333L130.453 144.164C129.222 143.85 127.847 143.423 127.672 141.964C127.587 141.257 127.962 140.736 128.568 140.381C129.358 139.919 130.264 140.191 131.078 140.402C132.449 140.757 133.836 141.062 135.238 141.272C138.249 141.725 141.344 141.752 144.371 141.439C149.462 140.911 154.833 139.259 158.758 135.847C160.464 134.365 161.947 132.558 162.727 130.412C163.73 127.653 163.582 124.644 163.548 121.754C163.47 115.037 163.539 108.319 163.446 101.6C163.352 94.8615 163.434 88.1757 163.834 81.4467ZM112.636 50.0518C118.585 48.5169 124.622 48.1181 130.733 48.5801C136.496 49.0155 143.061 50.3054 147.767 53.8512C147.996 54.0233 147.859 54.3489 147.576 54.3039C144.43 53.8022 141.362 52.8896 138.229 52.2857C135.216 51.705 132.148 51.2689 129.08 51.1679C118.702 50.8257 107.154 53.1783 98.7857 59.6509C94.8619 62.6857 91.8673 66.7664 90.6756 71.6218C89.4534 76.6018 90.1147 81.9874 92.569 86.4924C92.9224 87.141 92.7766 88.1671 92.0393 88.5125C89.802 89.5603 88.2084 91.8818 88.2431 94.3869C88.2597 95.602 88.6785 96.7672 89.3514 97.7715C90.0629 98.8335 91.1461 99.5766 91.9419 100.569C92.2552 100.959 92.2673 101.497 92.019 101.857C92.4845 102.061 92.9864 102.17 93.4445 102.411C93.8328 102.615 93.8438 103.253 93.4445 103.455C92.4346 103.963 91.3428 103.423 90.6612 102.603C90.5395 102.457 90.4343 102.304 90.3384 102.149C89.5221 101.976 88.7907 101.566 88.152 101.005C86.9351 101.734 86.7684 103.357 87.8138 104.597C88.3476 105.23 89.1061 105.621 89.8727 105.902L89.9647 105.935C90.7107 106.2 91.3939 106.348 91.8785 106.945C92.1982 106.278 92.5652 105.65 92.9742 105.077C94.4613 102.996 96.7472 101.15 99.4597 101.384C101.584 101.568 103.425 103.089 103.861 105.189C103.893 105.344 103.659 105.465 103.589 105.303C102.57 102.925 99.3441 102.838 97.4228 104.077C95.1633 105.535 93.9285 108.281 93.4331 110.839C92.9454 113.359 93.2273 116.424 95.1124 118.34C95.8838 119.124 96.9331 119.667 98.0283 119.81C98.5637 119.88 99.0359 119.811 99.5479 119.708L99.8872 119.637C100.123 119.588 100.357 119.549 100.603 119.571L100.971 119.62L101.18 119.718C101.362 119.799 101.345 119.777 101.131 119.651C101.756 119.6 102.079 120.062 102.113 120.568C102.133 120.581 102.152 120.595 102.169 120.614C104.54 123.518 106.301 126.855 108.818 129.664L109.555 130.486C111.449 132.594 113.611 134.879 116.184 135.973L116.49 136.099C117.239 136.416 117.991 136.849 118.086 137.751C118.172 138.56 117.534 139.168 116.8 139.357C115.127 139.786 113.22 138.299 111.995 137.323C109.361 135.226 107.146 132.552 105.318 129.738L105.137 129.458C103.634 127.11 102.221 124.431 101.782 121.644L101.703 121.773C101.697 121.782 101.693 121.789 101.69 121.793C101.6 121.914 101.501 122.017 101.387 122.116C101.079 122.381 100.704 122.536 100.314 122.642C99.5826 122.839 98.7804 122.878 98.0283 122.801C96.5007 122.645 95.0727 122.063 93.8651 121.116C90.1882 118.231 89.754 112.864 91.2412 108.509C90.0209 108.8 88.6309 107.979 87.6781 107.275C86.5854 106.467 85.6844 105.301 85.4691 103.929C85.2553 102.568 86.1228 100.766 87.4094 100.24C86.0744 98.637 85.2971 96.3614 85.2169 94.5393C85.0774 91.3699 86.7606 88.3742 89.3448 86.645C86.9146 81.435 86.4464 75.3906 88.0827 69.8587C91.3297 58.8814 102.207 52.7427 112.636 50.0518ZM103.379 133.456L103.409 133.359C103.668 132.51 104.002 130.821 105.27 131.464C106.481 132.078 105.708 133.896 105.285 134.78C104.778 135.839 103.902 136.688 102.727 136.915C101.771 137.1 100.721 136.863 100.052 136.124C99.8568 135.908 99.7468 135.672 99.6312 135.411C99.5862 135.31 99.5659 135.24 99.5575 135.195C99.5465 135.245 99.5152 135.319 99.4354 135.406C98.9017 135.989 98.3976 136.668 98.0104 137.358C97.9187 137.521 97.6297 137.407 97.7027 137.228C98.1538 136.125 98.078 134.418 99.0834 133.62C99.9696 132.916 100.802 133.47 101.271 134.289L101.295 134.332C101.98 135.576 103.072 134.395 103.379 133.456ZM93.7383 129.468L93.8309 129.339C94.7785 128.044 96.3765 126.485 97.9755 127.69C98.484 128.073 98.5028 128.713 97.9755 129.093L97.776 129.236C97.0774 129.731 96.3819 130.199 95.8688 130.909C95.3112 131.682 94.8105 132.5 94.0609 133.106C92.7352 134.177 90.5928 134.389 89.4424 132.944L89.3293 132.801C89.233 132.677 89.1226 132.527 89.033 132.378L88.9632 132.475C88.9563 132.485 88.9499 132.494 88.944 132.503L88.928 132.527C88.4552 133.283 87.8579 133.906 87.114 134.397C85.7002 135.33 84.1071 135.46 82.5076 134.966C82.351 134.917 82.3931 134.707 82.5445 134.693C84.4398 134.516 86.2865 133.169 87.0574 131.435L87.1445 131.24C87.4564 130.55 87.8059 129.894 88.5767 129.624C89.3269 129.36 90.1145 129.638 90.6289 130.206C91.059 130.68 91.1698 131.624 91.9457 131.416C92.7955 131.188 93.2738 130.123 93.7383 129.468ZM88.3103 117.944C88.7301 117.625 89.3876 117.968 89.5032 118.43C90.0269 120.524 87.8517 122.991 85.7614 123.056C85.2233 123.072 84.7057 122.942 84.2291 122.693C83.8594 122.5 83.4218 122.006 83.016 121.924C82.4918 121.819 82.0275 122.517 81.6584 122.875C81.2006 123.32 80.7476 123.733 80.2346 124.112C80.0297 124.264 79.7118 124.009 79.7984 123.777L79.9719 123.314C80.6 121.667 81.6818 119.263 83.7062 119.947C84.6981 120.281 85.4447 121.41 86.4892 120.516C87.3256 119.801 87.4036 118.634 88.3103 117.944ZM97.2425 109.516C99.1297 107.349 103.566 108.493 104.407 111.13C104.593 111.712 104.399 112.469 103.945 112.881C103.346 113.424 102.491 113.589 101.764 113.163C101.138 112.796 100.882 112.197 100.422 111.683C99.7471 110.929 98.8295 110.511 97.8841 110.211C97.6477 110.336 97.4278 110.499 97.2304 110.696C97.1295 110.797 96.9387 110.659 97.0283 110.54C97.15 110.378 97.2987 110.226 97.4679 110.086L97.3866 110.062C97.1377 109.993 97.0838 109.698 97.2425 109.516ZM109.508 85.5879C109.931 85.5886 110.423 85.9859 110.369 86.4498L110.353 86.5786C110.231 87.4618 109.947 87.9619 109.064 88.3723C108.314 88.7199 107.526 88.912 106.704 88.9881C106.393 89.0169 106.064 89.0186 105.731 88.9938L105.66 89.3993C105.521 90.2101 105.392 91.0215 105.368 91.8479C105.322 93.38 105.894 94.6426 106.507 96.0104C107.683 98.638 107.816 101.261 106.535 103.885C106.347 104.268 105.817 104.581 105.389 104.542C104.834 104.492 104.566 104.331 104.243 103.885C103.972 103.51 104.034 102.979 104.221 102.587L104.243 102.544C104.888 101.293 105.092 99.8801 104.762 98.505C104.452 97.2126 103.751 96.051 103.437 94.7626C102.927 92.6639 103.471 90.5821 104.533 88.7816C103.731 88.5506 102.99 88.1389 102.495 87.511L102.497 87.5102C102.308 87.3083 102.411 86.8867 102.743 86.912L103.117 86.9423C104.19 87.032 105.177 87.1252 106.261 86.8262C106.817 86.6728 107.297 86.4169 107.774 86.1072L107.876 86.04C108.473 85.6431 108.804 85.5871 109.508 85.5879ZM112.074 70.0764C114.763 69.9236 117.058 71.6983 118.173 74.0607C119.385 76.6256 118.877 79.5685 117.807 82.092L117.503 82.7983C116.971 84.0219 116.273 85.4771 115.183 86.1337C113.96 86.8713 112.902 86.016 113.263 84.6564C113.478 83.8467 114.06 83.2221 114.531 82.5539C114.97 81.9297 115.38 81.2839 115.74 80.6101C116.444 79.2887 116.97 77.8164 116.964 76.3025C116.955 73.5393 115.13 70.3727 112.074 70.4133C111.856 70.4158 111.86 70.0884 112.074 70.0764ZM125.67 65.6178C125.503 65.4905 125.652 65.2075 125.84 65.3269C128.957 67.3103 131.285 71.0357 131.753 74.6957C132.013 76.7263 131.815 78.8965 130.95 80.7705C130.454 81.8459 129.603 82.8724 128.413 83.1672C127.319 83.438 126.192 82.813 125.852 81.7448C125.721 81.3304 125.947 80.8969 126.289 80.6705C127.398 79.937 128.291 79.0112 128.814 77.766C129.358 76.4712 129.574 75.0972 129.581 73.7006C129.597 70.43 128.292 67.6112 125.67 65.6178ZM163.749 67.0353C163.605 66.8753 163.786 66.6394 163.977 66.7396C166.231 67.9253 167.663 70.1965 168.073 72.6838C168.475 75.119 167.934 78.4342 166.05 80.1954C164.987 81.1896 163.082 79.8674 163.966 78.5868C164.589 77.6837 165.263 76.94 165.62 75.8729C165.938 74.9208 166.05 73.9606 166.033 72.9601C165.995 70.7772 165.216 68.6627 163.749 67.0353ZM136.196 63.9859C140.046 63.8025 142.38 68.1996 142.914 71.477C143.244 73.502 142.996 75.5876 141.878 77.3439L141.812 77.4461C140.89 78.8492 139.214 80.4646 137.407 79.8002C136.643 79.5193 136.439 78.6999 136.953 78.0783C137.739 77.1268 138.953 76.739 139.692 75.7231C140.522 74.5837 140.793 73.1562 140.745 71.7706L140.739 71.6175C140.61 69.0688 139.395 64.1769 136.196 64.2634C136.016 64.2681 136.019 63.9942 136.196 63.9859ZM148.239 63.2553C151.963 62.7792 154.231 67.1621 154.931 70.1815C155.368 72.0691 155.463 74.1747 154.904 76.0482L154.863 76.1816C154.408 77.5798 153.066 79.9754 151.314 79.2609C150.834 79.0652 150.344 78.5319 150.574 77.9571C150.867 77.2222 151.291 77.0316 151.855 76.5613C152.29 76.1993 152.594 75.6796 152.817 75.1677C153.413 73.8034 153.545 72.2096 153.464 70.7395L153.453 70.5655C153.242 67.6939 151.686 63.4144 148.239 63.4931C148.082 63.4967 148.092 63.2739 148.239 63.2553ZM155.058 59.1348C157.13 58.3452 158.828 60.3279 160.02 61.7429C161.513 63.5159 162.867 65.4259 163.632 67.633C164.314 69.5996 164.434 71.7862 163.82 73.7882C163.516 74.7794 163.042 75.6986 162.396 76.5076L162.313 76.6096C161.64 77.4304 160.991 77.9347 159.888 77.6409C159.44 77.521 159.25 77.0774 159.328 76.6534C159.494 75.7476 159.961 75.5124 160.565 74.88C161.098 74.3222 161.494 73.6354 161.76 72.9132C162.308 71.4234 162.337 69.8093 161.968 68.2745C161.556 66.5562 160.746 64.9696 159.807 63.4827L159.605 63.1643C158.611 61.5923 157.194 59.1716 155.097 59.4267C154.917 59.4487 154.915 59.1889 155.058 59.1348Z" fill="black"/>
<path fill-rule="evenodd" clip-rule="evenodd" d="M149.69 120.752C150.415 119.473 152.578 119.681 152.908 121.173C153.579 124.198 149.973 126.992 147.234 127.062C144.512 127.131 141.459 124.813 141.853 121.886C141.95 121.162 142.917 121.25 143.246 121.704L143.374 121.878C144.269 123.081 145.451 124.326 147.112 124.033C147.8 123.912 148.426 123.481 148.842 122.928C149.344 122.259 149.289 121.461 149.69 120.752ZM132.383 98.6196C132.752 98.5179 133.124 98.5573 133.451 98.6963C134.181 98.8301 134.791 99.4388 135.005 100.134C135.022 100.194 135.041 100.253 135.061 100.312L135.094 100.4L135.006 100.177C135.047 100.396 135.225 100.627 135.29 100.847C135.369 101.118 135.388 101.425 135.361 101.723C135.593 101.726 135.825 101.734 136.057 101.754L136.28 101.774C137.532 101.89 138.906 102.104 139.647 103.185C140.064 103.793 139.673 104.887 138.908 105.004C137.729 105.185 136.714 104.533 135.54 104.402C134.43 104.278 133.269 104.349 132.173 104.55C129.911 104.963 127.832 105.881 125.628 106.456L125.328 106.532L125.328 106.531C124.951 106.622 124.522 106.097 124.895 105.789C126.661 104.338 128.922 103.162 131.15 102.446C130.825 101.929 130.725 101.249 130.947 100.695C130.981 100.58 131.024 100.468 131.069 100.357L131.162 100.128C131.172 100.02 131.192 99.9131 131.222 99.8085L131.227 99.7765L131.23 99.7784C131.396 99.2393 131.829 98.7726 132.383 98.6196ZM154.914 98.7031C155.397 98.2197 156.075 98.2911 156.579 98.6716L156.646 98.724C157.121 98.9351 157.515 99.3965 157.773 99.8241C158.041 100.268 158.219 100.72 158.226 101.209C159.395 101.213 160.515 101.564 161.373 102.508C161.651 102.813 161.84 103.283 161.687 103.696L161.597 103.942C161.308 104.722 160.012 105.172 159.572 104.254L159.552 104.209C159.084 103.119 157.287 103.234 156.333 103.345C155.667 103.423 155.01 103.589 154.367 103.774C154.141 103.839 153.916 103.91 153.692 103.983L153.468 104.055C153.348 104.094 152.726 104.432 153.113 104.352C153.217 104.331 153.296 104.482 153.189 104.533C152.728 104.754 152.235 104.314 152.266 103.818C152.319 102.957 153.686 102.484 154.344 102.187L154.384 102.169C154.636 102.053 154.9 101.941 155.173 101.837C155.02 101.609 154.893 101.355 154.788 101.083C154.688 100.826 154.621 100.576 154.585 100.303C154.549 100.169 154.549 100.036 154.585 99.9021L154.59 99.8638C154.572 99.7755 154.563 99.6842 154.564 99.5922L154.56 99.5565H154.564C154.577 99.2346 154.705 98.9121 154.914 98.7031ZM147.197 107.877C149.052 108.45 152.114 110.013 151.147 112.425C149.797 114.639 146.216 113.012 144.481 112.296C142.922 111.779 142.11 113.965 143.617 114.624C156.073 119.554 156.028 106.543 147.649 106.734C146.726 106.755 146.697 107.686 147.197 107.877ZM130.717 90.9122L131.033 90.8198C132.678 90.3432 134.357 89.5202 135.817 90.8043C136.391 91.3086 136.509 92.3565 136.099 92.9855C135.164 94.4186 133.778 94.1997 132.268 94.3218C131.119 94.4148 129.987 94.7526 128.914 95.1746C128.037 95.5198 127.224 96.0057 126.456 96.5476C125.702 97.0804 125.187 97.9133 124.413 98.3929C124.13 98.5687 123.802 98.3878 123.7 98.1027C123.339 97.0914 123.949 95.8315 124.465 94.9698C125.095 93.9186 126.052 93.0588 127.08 92.4083C128.207 91.6958 129.452 91.2844 130.717 90.9122ZM154.682 89.824C157.462 89.8231 160.137 91.37 161.692 93.6376C162.221 94.408 161.834 95.5492 161.075 95.9929C160.224 96.4908 159.314 96.1322 158.754 95.4187L158.721 95.3755C157.829 94.1875 156.679 93.2519 155.317 92.6428C154.652 92.3454 153.916 92.1042 153.197 91.9819L152.965 91.942C152.639 91.8874 152.261 91.8353 151.967 91.8863C151.809 91.907 151.664 91.9592 151.53 92.0387C151.595 92.1791 151.429 92.3481 151.276 92.264C150.585 91.8844 150.67 91.2073 151.24 90.681C152.047 89.9364 153.64 89.8242 154.682 89.824Z" fill="black"/>
<path fill-rule="evenodd" clip-rule="evenodd" d="M148.503 116.101C146.153 115.042 141.934 115.966 140.403 116.333C136.842 117.188 133.259 119.034 132.152 121.926C130.905 125.186 133.394 126.212 133.76 126.044C136.225 126.218 139.161 124.668 141.744 124.268C143.841 123.94 146.053 123.654 148.018 122.539C149.452 123.329 152.692 123.755 155.307 124.446C157.534 125.033 158.499 126.307 160.564 126.037C163.038 125.712 162.025 120.506 159.268 118.397C156.249 116.088 151.145 115.152 148.503 116.101ZM153.155 138.361C151.099 138.863 150.961 134.356 150.731 132.763C150.551 131.519 149.537 128.311 146.964 128.45C144.392 128.588 143.425 131.276 143.555 132.948C143.64 134.032 144.639 139.523 141.451 140.218C139.419 140.21 137.068 140.073 134.931 139.679C132.416 139.109 129.146 137.114 128.282 141.043C127.971 142.457 139.05 146.658 143.966 147.038C148.951 148.049 154.784 146.495 158.334 142.679C159.142 141.811 161.416 138.208 161.578 137.326C161.918 135.471 161.13 134.278 158.836 134.931C157.216 135.797 154.477 138.039 153.155 138.361Z" fill="black"/>
</svg>
