<svg width="240" height="324" viewBox="0 0 240 324" fill="none" xmlns="http://www.w3.org/2000/svg">
<path fill-rule="evenodd" clip-rule="evenodd" d="M186.455 183.12C183.523 169.221 173.122 158.436 159.135 153.064C156.446 151.542 153.84 145.014 150.226 143.819C149.647 143.627 150.561 145.152 150.226 145.244C149.031 145.568 147.692 145.602 146.373 144.429C144.015 142.332 143.275 136.207 141.841 133.438C134.28 118.837 115.4 124.55 112.871 140.691C111.107 141.841 108.614 142.854 106.695 143.781C104.718 144.735 102.979 147.046 100.942 147.873C99.1243 148.61 96.1293 148.088 94.2977 148.73C85.8736 151.687 78.7387 155.417 73.1449 162.975C71.9663 164.569 70.6376 166.528 69.565 168.138C64.0353 174.507 60.1944 181.644 56.657 189.302C46.7599 211.78 44.0679 236.667 41.6527 260.885C41.7077 265.122 38.897 276.872 43.0541 278.903C42.8056 279.161 42.8956 279.679 43.3566 279.674C53.8974 279.568 64.4137 280.511 74.7909 282.346C79.7977 283.231 84.7777 284.445 89.8777 284.645C100.465 284.572 111.013 282.797 121.586 284.476C134.297 284.476 149.744 284.106 163.884 283.562C177.099 283.054 190.385 284.202 203.437 281.954C204.47 281.79 204.974 280.53 204.758 279.626C203.226 274.044 202.475 268.3 201.615 262.587C201.787 258.922 201.48 255.097 200.125 251.684C196.585 228.643 192.045 205.752 186.455 183.12Z" fill="white"/>
<path fill-rule="evenodd" clip-rule="evenodd" d="M182.19 213.406C181.911 214.761 181.521 216.116 181.001 217.399C180.5 218.637 179.746 219.747 179.227 220.971C179.157 221.135 179.043 221.26 178.905 221.355L178.948 221.688L178.988 222.021C179.247 224.267 179.538 226.508 179.79 228.754L179.913 229.877C180.409 234.567 181.193 239.233 181.802 243.911C182.397 248.491 183.004 253.071 183.652 257.644C184.322 262.359 185.004 267.068 185.801 271.764C186.137 273.748 186.488 275.73 186.854 277.71L187.136 279.225C190.043 279.925 190.838 283.978 187.878 285.475C186.534 286.151 184.808 285.988 183.701 284.925C182.55 283.818 182.503 281.82 182.236 280.32L181.978 278.926C180.053 268.442 178.383 257.837 177.602 247.206C177.401 244.46 177.232 241.713 177.122 238.963C177.018 236.376 177.068 233.79 177.028 231.204L177.014 230.498C176.953 227.74 177.004 224.986 177.076 222.228C177.084 221.892 177.099 221.556 177.116 221.218C177.019 221.104 176.949 220.968 176.919 220.837L176.881 220.664C176.786 220.218 176.894 219.696 177.236 219.377C177.384 217.498 177.578 215.621 177.631 213.745C177.635 213.59 177.857 213.595 177.87 213.745C177.995 215.342 178.244 216.944 178.493 218.544C180.097 217.255 181.282 215.129 181.981 213.349C182.032 213.22 182.22 213.267 182.19 213.406ZM144.251 138.711C144.517 139.928 145.043 141.021 145.749 142.038C146.085 142.524 146.467 142.976 146.926 143.354C147.319 143.678 147.767 143.889 148.185 144.17C148.793 144.075 149.429 144.305 149.856 144.753L149.788 144.098C149.767 143.887 150.118 143.845 150.158 144.05C152.006 153.375 153.692 162.706 155.151 172.098L155.791 176.246L156.393 180.14C157.392 186.629 158.358 193.115 159.086 199.652C160.056 208.374 160.871 217.12 161.467 225.878C162.065 234.698 162.433 243.524 162.695 252.36C162.76 254.588 162.83 256.814 162.897 259.041L163.349 256.378C163.799 253.714 164.241 251.048 164.619 248.372C165.978 238.796 167.064 229.152 167.594 219.493C168.08 210.655 167.917 201.641 165.669 193.03C165.103 190.864 164.41 188.731 163.574 186.654C162.762 184.633 161.655 182.76 160.783 180.77C159.769 178.453 159.464 176.268 159.986 173.774C160.443 171.601 161.243 169.558 161.387 167.322C161.655 163.171 160.305 159.151 158.398 155.518C157.895 154.56 157.364 153.615 156.811 152.679C155.136 149.849 153.247 147.123 151.286 144.508C151.181 144.369 151.404 144.215 151.519 144.329C153.306 146.096 155.26 147.833 156.868 149.763C157.65 150.701 158.412 151.658 159.135 152.641C167.062 153.966 173.873 158.905 178.529 165.428C183.813 172.829 186.485 181.738 188.463 190.511C190.662 200.26 192.517 210.099 194.493 219.897C196.538 230.036 198.572 240.174 200.63 250.31C201.652 255.342 202.675 260.375 203.695 265.409C204.213 267.958 204.756 270.501 205.324 273.041C205.616 274.343 205.929 275.643 206.199 276.949C206.503 278.422 206.22 279.364 205.223 280.447C204.855 280.848 204.274 280.842 203.818 280.629L203.675 280.561L203.537 280.495C202.973 280.217 202.53 279.929 202.179 279.312C201.792 278.633 201.731 277.881 201.598 277.126C201.352 275.738 201.11 274.349 200.865 272.959C200.498 270.879 200.1 268.805 199.695 266.732L197.662 256.371C197.12 253.608 196.577 250.846 196.031 248.085C194.081 238.211 192.128 228.338 190.176 218.466C188.302 208.987 186.644 199.443 184.51 190.018L184.389 189.487L184.266 188.957C182.358 180.833 179.692 172.974 174.855 166.089C171.133 160.795 165.963 156.067 159.874 153.674C160.303 154.292 160.715 154.922 161.108 155.564C163.576 159.597 165.378 164.384 164.955 169.186C164.748 171.532 163.857 173.837 163.941 176.202C164.019 178.303 165.319 180.148 166.217 181.976C168.255 186.119 169.73 190.521 170.681 195.038C172.588 204.107 172.582 213.438 171.925 222.644C171.211 232.652 169.855 242.657 168.31 252.567C167.518 257.65 166.464 262.691 165.657 267.766C165.257 270.268 164.714 272.764 164.239 275.254L164.012 276.443C163.886 277.104 163.754 277.762 163.602 278.413L163.508 278.802V278.872C163.504 279.352 163.373 279.749 163.161 280.066C162.872 280.994 162.513 281.899 162.036 282.767C161.791 283.211 161.435 283.46 161.049 283.552C160.66 284.441 159.779 285.126 158.727 285.122L144.891 285.069C136.854 285.037 128.818 284.984 120.781 284.94C118.753 284.93 116.727 284.891 114.701 284.839C112.802 284.786 110.981 284.558 109.103 284.321C106.981 284.055 105.832 282.552 106.149 280.432C106.219 279.965 106.295 279.5 106.367 279.035C105.944 279.174 105.441 279.109 105.101 278.777L104.782 278.465C104.34 278.027 103.945 277.598 103.665 277.014C103.375 276.414 103.14 275.78 102.885 275.167C102.333 273.848 101.797 272.525 101.275 271.196C100.229 268.537 99.1835 265.868 98.2115 263.181C96.2871 257.862 94.584 252.462 93.1033 247.001C90.4624 237.257 88.5523 227.326 87.3481 217.306L87.0602 214.918L86.9765 214.212C86.5198 210.329 86.1355 206.385 86.3171 202.509C86.4293 200.083 86.8052 197.638 87.7117 195.372C88.5481 193.282 89.839 191.494 91.0664 189.625L91.2069 189.41L91.3481 189.189C92.4216 187.492 93.2757 185.718 93.3185 183.657C93.3619 181.565 92.7529 179.53 92.0719 177.572L91.9022 177.089L91.7883 176.77C90.3396 172.723 88.691 168.734 89.2347 164.331C90.0378 157.847 93.9671 152.62 98.911 148.59C94.5143 149.46 90.1624 151.181 86.3216 153.362C81.7854 155.94 77.7016 159.343 74.1798 163.183C67.5249 170.441 62.7735 179.149 58.8842 188.14C54.8129 197.549 51.7939 207.408 49.5187 217.397C47.2307 227.442 45.699 237.648 44.653 247.895C44.1314 252.994 43.7214 258.107 43.3814 263.222C43.2082 265.842 43.0772 268.467 42.8744 271.084C42.6716 273.698 42.5805 276.353 41.9425 278.898C41.6446 280.083 39.6354 280.204 39.4202 278.898C38.9424 275.981 39.0759 272.964 39.2092 270.01L39.2214 269.742C39.3526 266.8 39.5237 263.86 39.7263 260.92C40.1406 254.911 40.6939 248.911 41.4164 242.93C43.9495 221.934 48.6209 201.049 57.7835 181.884C62.0976 172.857 67.6349 164.086 75.3378 157.568C79.0052 154.467 83.1397 151.992 87.5953 150.2C91.58 148.596 95.6279 147.837 99.8617 147.839C101.985 146.212 104.265 144.794 106.542 143.582C106.679 143.509 106.823 143.686 106.709 143.8C106.65 143.857 106.592 143.916 106.534 143.972C106.791 143.988 107.057 144.109 107.296 144.36C108.133 145.237 108.838 146.334 109.47 147.473C110.431 148.674 111.348 149.915 112.307 151.102C113.843 153.004 115.415 154.879 117.006 156.739C119.678 159.865 122.437 162.931 125.314 165.875L125.795 166.364C127.286 167.875 128.797 169.684 130.561 170.88L130.655 170.943C131.399 171.428 131.927 171.516 132.561 170.792C133.138 170.132 133.619 169.367 134.112 168.64L134.226 168.473C136.747 164.811 139.084 161.013 141.198 157.103C142.162 155.323 143.079 153.518 143.949 151.693L144.209 151.145C144.682 150.139 145.196 149.152 145.586 148.116C145.677 147.873 145.766 147.63 145.852 147.389C144.521 146.516 143.491 144.627 143.117 143.147C142.728 141.611 142.924 140.034 143.617 138.629C143.748 138.364 144.188 138.43 144.251 138.711ZM78.5914 201.15C78.4072 206.992 78.2955 212.84 78.0206 218.678L77.9258 220.67C78.3544 221.148 78.6058 221.7 78.4051 222.457C78.3272 222.746 78.0967 223.008 77.8093 223.105L77.7198 224.958C77.312 233.295 76.8341 241.614 75.9608 249.93C74.8685 260.337 73.6051 270.727 72.3441 281.115C72.1645 282.586 71.1417 283.752 69.5509 283.537C67.9412 283.319 67.2884 281.918 67.4997 280.457C68.33 274.728 69.1284 268.994 69.8279 263.245L70.6243 256.696C71.623 248.508 72.6452 240.323 73.8229 232.162C74.3152 228.751 74.8265 225.341 75.3396 221.932L75.1603 221.7C74.427 220.747 73.6685 219.815 72.9185 218.876C71.4779 217.067 70.056 215.273 68.7356 213.379C68.6699 213.284 68.8032 213.144 68.8981 213.216C70.7488 214.584 72.5004 216.046 74.2624 217.532L75.8046 218.838C76.692 212.948 77.5708 207.055 78.3544 201.15C78.3736 201.002 78.5955 200.992 78.5914 201.15ZM105.213 145.244C104.099 146.294 102.961 147.321 101.839 148.366L101.428 148.75L101.019 149.136C99.0469 151.007 97.1577 152.954 95.5835 155.19C92.6933 159.297 90.9715 164.303 92.1734 169.317C93.1708 173.47 95.4588 177.234 96.0736 181.49C96.3818 183.623 96.2321 185.766 95.429 187.78C94.6093 189.835 93.2994 191.595 92.1227 193.449C89.5663 197.477 89.2178 201.898 89.4715 206.565C89.7377 211.439 90.2973 216.314 90.9884 221.144C92.3868 230.93 94.4952 240.614 97.2861 250.097C98.6828 254.846 100.333 259.494 101.974 264.16C102.792 266.483 103.745 268.751 104.727 271.008C105.245 272.196 105.775 273.377 106.314 274.556C106.115 272.891 106.115 271.181 106.018 269.526C105.878 267.155 105.701 264.788 105.538 262.419C105.207 257.61 104.911 252.798 104.647 247.986C103.711 230.824 103.022 213.647 103.073 196.458C103.098 187.863 103.274 179.267 103.643 170.68C103.817 166.636 104.152 162.596 104.456 158.558L104.52 157.692C104.788 154.068 105.11 150.435 105.661 146.842C105.498 146.473 105.356 146.1 105.251 145.718L105.213 145.574L105.241 145.578C105.215 145.466 105.207 145.354 105.213 145.244ZM114.843 130.475C114.866 130.375 115.007 130.384 115.033 130.475C115.66 132.588 115.438 134.913 114.898 137.039C114.606 138.191 114.192 139.309 113.691 140.387L113.516 140.764C113.087 141.682 112.604 142.628 111.769 143.2C111.42 143.439 110.797 143.454 110.448 143.2L110.27 143.065C110.241 143.042 110.212 143.019 110.184 142.995C109.859 142.722 109.698 142.12 109.848 141.723C110.235 140.698 111.112 139.945 111.718 139.032C112.255 138.221 112.73 137.365 113.125 136.475C113.976 134.55 114.359 132.506 114.843 130.475Z" fill="black"/>
<path fill-rule="evenodd" clip-rule="evenodd" d="M162.856 78.6399C155.423 59.0779 142.025 44.7554 119.438 53.7513C118.79 53.31 117.945 53.1916 117.135 53.7084C104.831 61.4373 95.9703 73.8285 92.1305 87.8011C89.7937 88.2456 87.523 89.0208 85.4948 90.2921C81.0869 93.055 78.1214 97.4515 75.3415 101.734C74.5055 103.021 75.2796 105.152 76.8506 105.444C77.533 105.572 78.2093 105.647 78.8817 105.667C78.718 106.262 78.5025 106.836 78.2281 107.363C77.2345 109.27 79.1116 111.295 80.8708 110.774C81.066 110.877 81.2705 110.962 81.4824 111.026C81.5065 112.106 82.0615 113.553 83.1599 113.771C84.9362 114.152 87.2969 112.792 86.8778 110.805C87.4144 110.899 87.9491 110.911 88.4703 110.845C88.5286 111.88 88.5105 112.96 88.6533 113.915C89.1202 118.414 93.6138 121.437 97.8992 120.068C98.162 121.47 98.4707 123.44 99.8509 124.2C101.465 128.729 104.251 133.897 108.815 135.96C108.408 137.002 108.629 138.268 109.852 138.965C118.206 143.73 128.233 145.342 137.677 143.571C141.452 143.346 145.13 142.492 148.659 140.675C151.233 139.349 153.6 137.666 155.91 135.93C158.221 134.194 160.692 132.504 162.537 130.25C164.541 127.802 165.474 124.921 166.079 121.856C168.853 107.941 167.895 94.2775 162.856 81.0221C156.619 64.6139 169.091 95.0489 162.856 78.6399Z" fill="white"/>
<path fill-rule="evenodd" clip-rule="evenodd" d="M126.923 49.9393C130.727 49.6706 134.6 50.3121 138.222 51.4595C144 53.2889 149.306 56.5175 153.665 60.7207C158.157 65.0523 161.48 70.3929 163.5 76.2915C165.937 83.4051 166.301 91.0006 166.987 98.4264C167.333 102.178 167.904 105.873 168.498 109.588L168.592 110.175C169.171 113.795 169.497 117.456 168.697 121.071C167.365 127.078 163.374 132.177 158.636 135.944C148.904 143.685 133.753 148.403 122.421 141.281C120.668 140.179 122.329 137.361 124.041 138.509C125.245 139.318 126.521 140.026 127.89 140.516C133.607 142.56 139.886 141.832 145.537 139.93C151.105 138.057 156.448 134.891 160.557 130.666C164.873 126.229 167.264 120.748 166.919 114.512C166.713 110.801 165.868 107.159 165.399 103.479C164.983 100.219 164.734 96.9414 164.447 93.6685L164.342 92.4912C163.733 85.823 162.859 78.9718 159.826 72.9189C157.275 67.8267 153.539 63.2964 149.048 59.7977C144.345 56.1348 138.729 53.573 132.836 52.6175C125.906 51.4939 119.272 53.5371 113.491 57.3405C108.364 60.7137 103.956 65.2214 100.576 70.336C98.9373 72.816 97.541 75.4644 96.3353 78.1805C95.1991 80.7395 94.4157 83.4216 93.502 86.0592C94.2539 86.0368 95.0182 86.0658 95.7944 86.1516C99.7756 86.5929 103.485 88.6569 105.846 91.9115C108.732 95.8885 107.952 100.77 109.079 105.293C109.166 105.644 109.018 105.988 108.717 106.182C107.008 107.287 104.721 107.324 103.067 106.08C101.632 105 100.958 103.048 101.539 101.342C101.615 101.119 101.938 101.159 101.947 101.397C102.057 104.3 104.749 106.535 107.388 105.154C106.256 101.254 106.852 96.8983 104.536 93.3755C100.438 87.1407 91.958 86.8831 86.0018 90.3978C82.8671 92.2473 80.3859 95.0282 78.5383 98.1388L78.0061 99.0418C77.2979 100.248 76.5479 101.613 76.4009 102.942C76.3162 103.709 76.5991 104.429 77.4784 104.043C78.1897 103.73 78.7405 103.001 79.163 102.375C79.8837 101.306 81.5396 102.229 80.9444 103.368L80.9242 103.405C80.0579 104.94 79.5245 106.632 79.4266 108.395L79.4017 108.883C79.3854 109.239 79.3736 109.744 79.4489 109.763C79.5391 109.785 80.1659 109.061 80.2703 108.961C80.7731 108.478 81.2909 108.083 81.9909 107.954C82.911 107.786 83.8393 108.924 83.0406 109.671L83.0073 109.701C82.2944 110.321 82.3261 111.557 83.1135 112.137C84.2248 112.955 85.5929 111.62 85.7542 110.52L85.7597 110.479C85.9023 109.291 87.5516 109.249 87.6412 110.479C87.8358 113.149 84.659 115.386 82.2418 114.039C81.2861 113.507 80.6785 112.533 80.4881 111.488C80.183 111.65 79.8539 111.761 79.5059 111.792C78.3731 111.893 77.5678 111.096 77.3846 110.026C77.1712 108.78 77.2978 107.446 77.6259 106.153C77.0106 106.301 76.3635 106.244 75.713 105.869C73.7451 104.733 74.3102 102.206 75.0532 100.5C78.2254 93.2179 84.7975 86.6104 92.9398 86.0859C92.9844 84.8011 93.1585 83.5864 93.4432 82.2999C96.2282 69.7164 105.25 58.0642 116.996 52.6181C120.134 51.1628 123.463 50.1838 126.923 49.9393ZM96.1212 100.206L96.2328 100.181C97.5017 99.9073 100.841 99.586 100.439 101.722C100.42 101.823 100.274 101.81 100.248 101.722C99.8534 100.379 97.1754 101.453 96.3935 101.777C95.3156 102.222 94.2523 102.879 93.3722 103.643C91.4452 105.316 90.1535 107.674 89.957 110.235C89.7622 112.775 90.4989 115.519 92.3306 117.356C93.2285 118.257 94.3746 118.868 95.6621 118.913C96.8188 118.954 98.0968 118.053 99.1641 118.58C99.3745 118.684 99.5412 118.97 99.5222 119.205C99.4863 119.65 99.2872 119.996 98.991 120.265C100.778 123.522 102.24 126.97 104.52 129.933C105.664 131.419 106.96 132.795 108.427 133.966C109.125 134.523 109.883 135.012 110.665 135.442C111.582 135.946 112.375 136.261 113.029 137.115C113.587 137.843 113.029 139.251 112.109 139.377C109.944 139.672 107.84 137.921 106.25 136.609C104.662 135.298 103.29 133.681 102.155 131.966C99.9772 128.671 98.4872 124.785 97.8914 120.853C97.1997 121.073 96.421 121.14 95.8351 121.141C94.2764 121.144 92.788 120.584 91.5631 119.636C87.0787 116.166 86.5803 109.042 89.7449 104.549C91.2593 102.4 93.5604 100.812 96.1212 100.206ZM96.1491 108.468C97.1889 108.377 98.2279 108.541 99.2053 108.896L99.6082 109.042C100.459 109.353 101.365 109.719 101.98 110.358C102.919 111.333 101.984 113.024 100.646 112.65C99.167 112.236 97.9649 110.99 96.4863 110.468C95.1646 110 93.6675 110.067 92.4946 110.871C92.3397 110.977 92.136 110.768 92.2372 110.613C93.1345 109.247 94.551 108.609 96.1491 108.468Z" fill="black"/>
<path fill-rule="evenodd" clip-rule="evenodd" d="M131.904 116.766C135.526 116.326 139.036 117.435 142.577 117.995C144.446 118.29 146.318 118.51 148.209 118.592C148.59 118.608 148.97 118.618 149.351 118.626C149.387 118.291 149.574 117.983 149.981 117.798C150.814 117.421 151.481 117.25 152.395 117.287C153.233 117.32 154.073 117.406 154.897 117.557C156.395 117.831 157.899 118.455 158.994 119.537C161.528 122.042 161.143 126.066 159.184 128.795C155.138 134.433 147.753 134.695 141.428 134.621L140.844 134.614C135.085 134.531 126.846 135.39 124.23 128.836C123.267 126.425 123.401 123.631 124.579 121.319C125.984 118.562 128.942 117.126 131.904 116.766ZM149.893 126.154L149.842 126.156C147.187 126.258 144.532 126.33 141.875 126.377C141.955 127.06 142.036 127.742 142.129 128.424C142.201 128.959 142.279 129.495 142.36 130.029C142.395 130.256 142.521 130.607 142.485 130.832L142.472 130.92C142.609 130.982 142.733 131.081 142.825 131.226C142.857 131.276 142.88 131.326 142.903 131.376C144.966 131.392 147.185 131.352 149.288 130.977L149.292 130.931C149.33 130.663 149.442 130.482 149.591 130.358C149.738 129.501 149.725 128.588 149.782 127.738C149.818 127.209 149.856 126.682 149.893 126.154ZM139.846 126.413C137.932 126.446 136.018 126.471 134.104 126.448L133.236 126.434C133.419 127.419 133.619 128.4 133.785 129.391C133.958 130.424 133.049 131.081 132.262 131.054C132.351 131.069 132.439 131.084 132.527 131.096C134.985 131.444 137.536 131.351 140.03 131.349C139.896 130.565 139.95 129.681 139.93 129.027L139.926 128.926C139.888 128.088 139.861 127.251 139.846 126.413ZM126.846 126.233C126.913 126.745 127.042 127.246 127.235 127.712C128.052 129.683 129.925 130.603 131.907 130.99C131.563 130.871 131.29 130.586 131.221 130.097C131.049 128.882 130.987 127.646 130.983 126.412C129.602 126.399 128.211 126.37 126.846 126.233ZM157.095 125.812C156.112 126.044 154.97 125.938 154.005 125.982C153.101 126.023 152.197 126.058 151.293 126.095C151.336 126.712 151.377 127.329 151.422 127.946C151.481 128.743 151.486 129.586 151.639 130.38C153.458 129.759 155.087 128.763 156.31 127.171C156.615 126.774 156.888 126.308 157.095 125.812ZM131.489 119.999C129.852 120.387 128.303 121.206 127.47 122.704C126.976 123.594 126.759 124.647 126.801 125.686C128.184 125.525 129.591 125.464 130.992 125.413C130.996 125.161 131.002 124.909 131.01 124.657L131.031 124.013C131.069 122.783 131.089 121.24 131.489 119.999ZM139.961 120.149L139.24 120.068C137.239 119.84 135.238 119.601 133.237 119.738C132.947 119.758 132.653 119.79 132.359 119.833C132.712 121.11 132.683 122.61 132.83 123.874C132.888 124.363 132.96 124.847 133.04 125.33L133.387 125.314C135.534 125.198 137.684 125.126 139.833 125.041C139.833 124.637 139.835 124.233 139.842 123.829L139.85 123.425C139.874 122.393 139.807 121.23 139.961 120.149ZM150.011 119.985C147.915 120.324 145.748 120.396 143.689 120.398C142.867 120.399 142.045 120.349 141.224 120.276C141.277 120.714 141.305 121.156 141.345 121.588C141.426 122.46 141.519 123.331 141.62 124.2L141.71 124.961C144.351 124.842 146.993 124.712 149.634 124.578L150.007 124.558L150.111 123.095C150.182 122.12 150.26 121.145 150.371 120.174L150.288 120.144C150.191 120.104 150.098 120.049 150.011 119.985ZM150.921 120.349C151.037 121.728 151.1 123.113 151.185 124.494L152.926 124.401C153.217 124.385 153.507 124.369 153.797 124.352C154.925 124.287 156.375 123.945 157.49 124.264C157.576 123.25 157.286 122.262 156.371 121.58C154.764 120.383 152.718 120.809 150.921 120.349ZM144.973 108.02C147.565 106.534 154.07 105.016 154.482 109.684C154.672 111.832 153.076 113.612 151.212 114.406L151.142 114.435C149.393 115.154 146.295 115.966 144.782 114.407C143.523 113.109 145.193 110.782 146.757 111.846C147.561 112.392 149.254 111.989 150.151 111.729L150.207 111.713C151.176 111.428 152.466 110.517 152.066 109.325C151.712 108.27 150.204 108.077 149.26 108.043C147.851 107.992 146.479 108.319 145.083 108.426C144.861 108.443 144.793 108.122 144.973 108.02ZM155.712 100.514C159.23 100.349 161.419 104.193 160.61 107.342C160.47 107.886 159.863 108.419 159.276 108.358L159.129 108.344C159.053 108.337 158.978 108.328 158.909 108.309C158.352 108.154 157.853 107.575 157.893 106.974L157.904 106.799C157.986 105.311 157.825 103.597 156.057 103.237C154.559 102.931 153.722 104.375 153.704 105.703C153.701 105.939 153.436 106.104 153.227 105.977C152.144 105.317 151.956 104.005 152.37 102.875C152.894 101.443 154.207 100.584 155.712 100.514ZM129.599 101.338C132.16 100.484 134.922 101.849 136.162 104.114C136.597 104.24 137.032 104.576 136.971 105.089C136.884 105.828 136.753 106.294 136.24 106.854C135.439 107.731 133.939 107.282 133.606 106.203L133.592 106.155C133.214 104.76 131.679 103.84 130.281 104.328C128.648 104.898 128.696 106.624 127.55 107.629C127.416 107.747 127.254 107.766 127.093 107.688C125.876 107.1 126.095 105.329 126.529 104.316C127.097 102.987 128.203 101.804 129.599 101.338ZM126.111 93.5592C128.186 91.4411 133.597 89.3914 135.017 93.3029C135.287 94.0479 134.711 95.0524 133.936 95.2069C132.666 95.4597 131.54 94.9083 130.279 95.0072C129.258 95.0877 128.193 95.429 127.376 96.0618C125.115 97.8143 124.618 100.779 123.043 103.009C122.966 103.118 122.817 103.072 122.803 102.944C122.444 99.6966 123.838 95.879 126.111 93.5592ZM153.173 91.4741C154.55 90.9875 156.11 91.0292 157.494 91.4607C158.888 91.8957 160.168 92.7217 161.155 93.8008C161.602 94.2907 162.016 94.8314 162.348 95.4069C162.525 95.7118 162.71 96.3419 162.911 96.717C163.995 97.3436 164.459 98.7713 163.488 99.787L163.444 99.8315L163.314 99.9604C162.792 100.477 162.005 100.701 161.292 100.495C159.698 100.033 159.504 98.7769 158.952 97.4432C158.587 96.5623 157.963 95.7829 157.205 95.2103C155.415 93.8577 152.48 93.4267 150.325 94.0642C150.21 94.0982 150.075 93.9519 150.157 93.8458C150.566 93.3166 150.801 92.8823 151.348 92.4554C151.903 92.0221 152.508 91.7091 153.173 91.4741Z" fill="black"/>
<path fill-rule="evenodd" clip-rule="evenodd" d="M159.38 76.3791C160.601 75.9605 161.575 77.2309 161.34 78.3381C161.063 79.6422 159.703 80.6888 158.801 81.608C157.854 82.5759 156.889 83.5249 155.887 84.4379C153.975 86.1839 151.994 87.828 149.904 89.3603L149.265 89.8286C147.35 91.2305 145.44 92.5999 143.389 93.8134C142.277 94.4686 141.156 95.1027 140.019 95.7135C139.614 95.9312 139.119 96.267 138.61 96.5166C140.471 97.9538 141.904 100.148 142.214 102.191C142.983 107.268 139.713 111.973 135.098 113.843C132.798 114.775 130.237 115.046 127.778 114.765C125.277 114.479 122.742 113.739 121.117 111.689C119.674 109.87 119.154 107.547 119.051 105.267C119.002 104.184 119.013 103.119 119.241 102.162C118.246 102.17 117.251 102.166 116.264 102.177C113.826 102.2 111.384 102.211 108.944 102.143C106.427 102.071 103.924 101.959 101.416 101.735C100.315 101.636 99.2211 101.473 98.1266 101.316C97.0641 101.166 95.8916 101.109 94.8986 100.674C94.831 100.646 94.859 100.549 94.9176 100.53C95.9761 100.188 97.1782 100.249 98.281 100.181L99.3559 100.116C100.251 100.063 101.146 100.013 102.044 99.9846C104.118 99.9164 106.19 99.8996 108.264 99.8641L109.153 99.8475C111.593 99.7989 114.033 99.7714 116.473 99.6932C117.485 99.6615 118.499 99.6023 119.516 99.5474C119.634 99.2787 119.807 99.0336 119.974 98.795C120.473 98.0806 121.106 97.4508 121.763 96.8801C123.109 95.7048 124.624 94.8321 126.314 94.2467C127.989 93.6685 130.439 93.3817 132.21 93.419C133.982 93.4563 136.508 93.7063 137.319 95.1555C137.404 95.3056 138.948 95.016 139.406 94.665C140.477 93.8472 141.53 93.0061 142.562 92.1438C144.481 90.5396 146.454 88.9608 148.271 87.2447C150.145 85.4735 152.004 83.6728 153.787 81.813C154.683 80.8809 155.577 79.9467 156.445 78.9914C157.332 78.0171 158.095 76.8166 159.38 76.3791Z" fill="black"/>
</svg>
