<svg width="240" height="324" viewBox="0 0 240 324" fill="none" xmlns="http://www.w3.org/2000/svg">
<path fill-rule="evenodd" clip-rule="evenodd" d="M41.197 209.194L192.564 221.215L192.723 222.244C195.259 238.77 196.54 249.981 196.566 255.878L196.567 256.059C196.567 261.906 198.361 271.206 201.95 283.958L202.172 284.743L40.9858 285.024L39.0844 246.64L41.197 209.194ZM130.81 126.829C136.965 127.133 143.168 129.773 143.647 131.46C144.714 135.217 146.43 151.3 152.073 153.771C157.716 156.242 169.762 153.989 173.207 159.89C176.651 165.791 187.962 189.845 187.962 195.45C187.962 199.187 151.1 200.484 77.3752 199.341C78.3164 169.245 82.2402 153.424 89.1466 151.879L89.7631 151.743C99.7509 149.56 105.72 149.49 109.127 145.971C112.604 142.381 113.235 136.218 114.677 131.46C115.472 128.838 123.258 126.457 130.81 126.829Z" fill="white"/>
<path fill-rule="evenodd" clip-rule="evenodd" d="M144.308 136.236C144.331 136.218 144.354 136.212 144.38 136.225C144.859 136.455 144.958 136.916 145.123 137.396C145.364 138.098 145.643 138.782 145.901 139.478C146.414 140.873 146.904 142.265 147.477 143.637C148.064 145.049 148.672 146.435 149.37 147.799C149.706 148.458 150.067 149.105 150.434 149.747C150.688 150.193 150.925 150.806 151.258 151.225C151.284 151.091 151.32 150.965 151.362 150.846C151.318 150.867 151.275 150.891 151.235 150.916C151.151 150.969 151.049 150.863 151.1 150.781C151.282 150.481 151.518 150.278 151.789 150.14C152.537 149.31 169.022 153.274 173.528 157.726C181.69 165.789 187.199 175.758 190.822 186.364C192.823 192.216 194.665 198.125 196.569 204.009C198.58 210.231 200.68 216.426 202.696 222.644C203.137 224.012 202.174 225.254 200.957 225.704C198.69 226.541 196.406 227.33 194.103 228.059C195.221 232.351 196.003 236.735 196.565 241.131C197.725 250.196 197.87 259.444 199.698 268.414C200.118 270.473 200.649 272.502 201.209 274.526L201.339 274.993C201.673 276.181 201.978 277.38 202.387 278.542C202.74 279.542 203.196 280.55 203.444 281.581C203.733 282.794 203.306 284.12 202.172 284.743C201.261 285.244 199.958 285.037 199.408 284.096C199.296 283.904 199.229 283.695 199.201 283.483C199.119 283.308 199.043 283.128 198.975 282.944C198.949 282.874 198.926 282.8 198.903 282.726L198.838 282.507C198.677 281.983 198.529 281.454 198.382 280.926C198.141 280.078 197.898 279.233 197.63 278.393L197.494 277.973C196.831 275.953 196.237 273.916 195.72 271.853C193.867 264.456 193.474 256.798 192.966 249.218L192.939 248.826C192.479 242.033 192.204 235.255 192.768 228.477L192.691 228.502L192.614 228.526C191.881 228.75 191.146 228.97 190.408 229.183C190.385 229.192 190.364 229.2 190.341 229.206C189.869 229.353 189.384 229.492 188.891 229.621L188.594 229.697L188.384 229.754L188.164 229.817C187.466 230.019 186.753 230.252 186.029 230.229C184.829 230.422 183.608 230.538 182.408 230.542C182.777 236.589 183.204 242.631 183.713 248.668C184.225 254.735 184.903 260.78 185.606 266.825C185.953 269.811 186.325 272.791 186.734 275.767C186.941 277.276 187.157 278.777 187.432 280.273C187.715 281.803 188.215 283.439 187.913 284.986C187.907 284.984 187.901 284.982 187.894 284.982C187.793 285.43 187.522 285.831 187.051 286.108C186.187 286.613 184.979 286.318 184.482 285.434C184.44 285.36 184.4 285.284 184.362 285.206C183.853 285.424 183.295 285.508 182.61 285.514L173.327 285.607C169.108 285.65 164.889 285.694 160.668 285.755C147.416 285.951 134.163 286.176 120.91 286.337L115.941 286.394C108.487 286.472 101.029 286.626 93.576 286.624C89.8473 286.624 86.1225 286.611 82.3936 286.52C80.5872 286.476 78.7851 286.406 76.9809 286.332L76.6624 286.318C75.222 286.247 73.6928 286.113 72.2844 286.436C71.8957 287.193 70.9027 287.349 70.383 286.575C69.1954 284.805 68.8713 282.336 68.6519 280.173L68.5746 279.394C68.3316 276.97 68.1182 274.545 67.9598 272.117C67.3978 263.513 67.1929 254.9 67.4506 246.279C67.5816 241.885 67.9851 237.517 68.4626 233.148C68.6126 231.785 68.7689 230.424 68.938 229.065L68.9409 228.582C68.9411 228.427 68.9401 228.28 68.9358 228.141L68.8937 226.83C68.8587 225.737 68.8262 224.643 68.8127 223.55L68.807 222.893L68.8006 221.672C67.757 221.573 66.6436 221.226 65.7436 221.059C64.2839 220.786 62.8281 220.493 61.3767 220.182C58.4696 219.556 55.5943 218.817 52.738 217.999L52.1305 217.824C49.4948 217.064 46.8229 216.254 44.3295 215.118C43.3534 214.672 42.3795 214.169 41.5239 213.51C41.4732 214.203 41.395 214.894 41.3485 215.581C41.2558 216.94 41.1457 218.294 41.0549 219.653L40.968 220.946C40.8253 223.101 40.6968 225.253 40.6387 227.414C40.3809 236.84 40.3365 246.307 40.8351 255.727C41.0823 260.442 41.4351 265.157 41.9443 269.853C42.1936 272.163 42.4577 274.48 42.783 276.781C43.1189 279.146 43.7253 281.497 43.9112 283.879C44.0887 286.176 40.5774 286.51 40.0006 284.409C39.31 281.89 39.1341 279.173 38.7701 276.583L38.7288 276.295C38.3253 273.544 38.002 270.781 37.7232 268.015C36.7604 258.472 36.5105 248.881 37.0154 239.303C37.2555 234.715 37.8247 230.146 38.5136 225.607L38.5936 225.083C38.9072 223.05 39.2008 221.018 39.5559 218.994L39.6922 218.235C40.0112 216.496 40.2563 214.604 40.7739 212.865L40.62 212.723C40.3324 212.455 40.0206 212.145 39.7936 211.81C39.0119 211.705 38.3464 211.142 38.4288 210.122C38.6971 206.767 39.9225 203.356 41.0147 200.19C42.1112 197.007 43.383 193.884 44.8239 190.84C49.8922 180.144 57.1915 170.432 66.1175 162.652C70.852 158.525 76.0408 154.864 81.7746 152.258C84.6013 150.971 87.5253 149.975 90.5887 149.439C92.1056 149.172 93.6373 148.965 95.1795 148.921C96.4307 148.182 97.9163 148.493 99.1278 149.303L99.1936 149.348H99.1959L99.5063 149.409C99.5823 149.424 99.5802 149.544 99.5063 149.561C99.502 149.561 99.4957 149.563 99.4915 149.565C99.6901 149.722 99.8781 149.889 100.053 150.068C100.632 150.66 100.63 151.375 100.332 151.952C102.105 153.596 103.225 155.707 104.397 157.836C105.654 160.114 107.3 162.084 109.303 163.745C116.644 169.836 127.442 172.531 136.641 169.654C143.406 167.541 149.184 161.82 150.781 154.932C150.403 155.067 149.993 155.088 149.604 154.949C147.779 154.298 147.083 152.302 146.384 150.633L146.351 150.552C145.668 148.936 145.096 147.293 144.644 145.598C144.187 143.886 143.919 142.079 143.807 140.313C143.764 139.614 143.783 138.915 143.819 138.217L143.851 137.639C143.876 137.116 143.868 136.581 144.308 136.236ZM114.606 131.525C114.631 131.461 114.73 131.427 114.768 131.503C116.384 134.839 115.324 139.408 113.796 142.589C112.197 145.915 109.789 148.439 106.935 150.622C106.542 150.922 106.138 151.218 105.728 151.508C103.347 153.19 101.226 148.654 103.975 147.788C106.84 146.332 109.168 143.736 110.786 141.01C111.661 139.537 112.436 138.002 113.03 136.392C113.621 134.786 113.976 133.114 114.606 131.525Z" fill="black"/>
<path fill-rule="evenodd" clip-rule="evenodd" d="M161.65 89.3057C161.758 84.0023 161.267 78.5672 158.69 73.827C156.454 69.3781 153.135 65.5216 149.728 61.9318C148.306 60.434 146.408 58.9247 146.586 56.6542C146.772 54.2717 148.205 49.1105 148.426 46.7064C148.861 41.9793 145.479 40.6784 141.525 38.4322C136.757 35.7229 131.059 36.0364 125.89 37.2527C116.252 39.5534 104.799 43.3719 101.157 53.5894C100.281 56.1093 100.5 58.7616 100.325 61.3756C100.162 63.8224 99.1829 66.1527 98.2445 68.3884C93.283 79.4386 93.3278 91.6394 94.2287 103.5C91.5794 104.113 89.0178 106.184 88.4338 108.931C87.4552 113.742 92.4986 115.966 95.4775 118.566C99.1104 121.737 101.755 125.841 105.058 129.325C126.487 152.963 173.774 142.084 163.944 105.265C162.61 100.033 161.451 94.7408 161.65 89.3057Z" fill="white"/>
<path fill-rule="evenodd" clip-rule="evenodd" d="M119.26 37.7627C124.582 35.6932 130.335 34.8182 136.025 35.5516C139.087 35.9462 142.055 36.77 144.855 38.0774C146.206 38.7081 147.501 39.4559 148.716 40.3197L148.827 40.399C149.789 41.0928 150.77 41.951 150.657 43.1027C150.732 43.3439 150.745 43.6089 150.686 43.8733C149.737 48.132 148.742 52.3772 147.76 56.6277C147.553 57.5212 147.353 58.4163 147.155 59.312C153.839 64.3472 160.123 71.2309 162.502 79.4108C164.832 87.4184 163.812 95.8521 164.635 104.047C164.83 105.989 165.16 107.915 165.678 109.798C166.234 111.82 167.163 113.731 167.632 115.776C168.577 119.889 167.207 123.926 165.037 127.414C161.015 133.879 154.939 139.335 147.874 142.231C144.258 143.713 140.279 144.519 136.368 144.456C132.533 144.395 128.167 143.607 124.956 141.393C122.785 139.896 124.64 136.949 126.975 137.937L127.609 138.204C129.229 138.882 130.836 139.511 132.572 139.871C134.512 140.274 136.506 140.36 138.482 140.236C142.313 139.996 145.946 138.721 149.252 136.805C152.237 135.076 154.895 132.843 157.269 130.349L157.533 130.069C159.781 127.684 162.044 124.965 163.308 121.931C163.959 120.369 164.311 118.652 164.029 116.968C163.704 115.026 162.84 113.197 162.336 111.299C161.378 107.694 161.055 103.935 160.945 100.216L160.937 99.9299C160.733 92.2972 161.312 84.5675 158.609 77.2719C156.162 70.6647 151.118 65.6103 146.992 60.05C146.789 60.9701 146.587 61.8905 146.383 62.8099C146.138 63.9085 145.915 65.014 145.648 66.1071L145.628 66.1868C145.708 66.4225 145.68 66.6905 145.466 66.8591C145.442 66.8777 145.418 66.8938 145.394 66.9111C145.176 67.4167 144.836 67.8045 144.187 67.9655C143.566 68.1196 143.074 67.8569 142.798 67.4029L139.555 67.4194C137.496 67.43 135.236 67.6667 133.211 67.2474C132.9 67.1827 132.939 66.7401 133.211 66.655C135.125 66.0568 137.36 66.0712 139.346 65.8859L142.478 65.5936C142.616 65.5807 142.755 65.5642 142.895 65.5468L143.105 65.5204L144.193 60.6752C144.625 58.7528 145.077 56.8335 145.472 54.9032C146.183 51.4229 146.963 47.9585 147.743 44.4932C145.295 43.8927 142.796 43.6239 140.264 43.7308L139.972 43.7438C138.991 43.7906 137.939 43.8888 137.118 44.4585C136.101 45.1649 136.027 46.6219 135.802 47.7454C135.183 50.8267 134.74 53.9374 134.352 57.0558C134.164 58.5638 134.023 60.0758 133.856 61.5857C133.781 62.2709 133.735 62.9675 133.633 63.6485C133.535 64.2967 133.303 64.9276 133.172 65.5682C133.398 66.5459 132.044 67.4748 131.288 66.6061C130.353 65.5323 129.535 64.4113 128.49 63.4293C127.443 62.444 126.299 61.5815 125.065 60.8424C122.558 59.3401 119.953 58.4161 117.154 57.6352C117.061 57.6094 117.008 57.5517 116.983 57.4849C114.189 58.2779 111.456 59.3524 108.921 60.7336C103.043 63.9357 98.4159 69.4644 96.6626 75.9575C95.5741 79.9895 95.3339 84.2484 95.3191 88.4084C95.3124 90.3395 95.3534 92.2928 95.6587 94.2036C95.9994 96.3355 96.7727 98.2415 97.3957 100.287C97.5584 100.821 97.5184 101.298 97.3452 101.696L97.504 101.72C98.7764 101.919 101.269 102.48 101.496 103.868C101.56 104.257 101.342 104.562 100.942 104.595C100.231 104.656 99.7843 104.139 99.2166 103.786C99.1146 103.723 99.0096 103.665 98.905 103.606C98.8779 103.625 98.8416 103.63 98.8042 103.608C95.4474 101.696 91.3448 104.621 90.5977 108.015C89.9001 111.183 91.0872 114.853 94.1483 116.238C95.6874 116.935 97.3241 117.372 98.7406 118.325C99.9328 119.126 100.986 120.107 101.905 121.209C103.797 123.477 105.224 126.063 106.9 128.484C107.636 129.546 108.452 130.55 109.423 131.409C110.486 132.349 111.966 132.72 112.416 134.192C112.592 134.765 112.3 135.455 111.784 135.747C109.894 136.816 107.754 134.956 106.432 133.695C105.075 132.4 103.968 130.833 102.952 129.264C101.25 126.637 99.797 123.64 97.3008 121.649C95.8025 120.453 93.936 120.001 92.2496 119.156C90.3146 118.186 88.9403 116.597 88.1191 114.61C86.6075 110.952 87.0056 106.289 89.8695 103.378C90.7995 102.433 91.9765 101.828 93.2088 101.585C91.9363 99.3578 91.4637 96.5504 91.1445 94.0584C90.8236 91.5548 90.79 89.0348 90.922 86.5168L90.9486 86.0275C91.2014 81.5376 91.7108 76.9263 93.3353 72.7106C94.7029 69.1622 96.7782 65.907 99.5356 63.2767C99.8202 63.0054 100.112 62.7395 100.409 62.478C100.33 62.417 100.253 62.3514 100.185 62.2773C99.4122 61.4361 99.5777 60.3005 99.6806 59.2549C99.7948 58.0927 99.9799 56.9339 100.258 55.7994C102.197 47.8835 108.162 41.425 115.837 38.7536C116.945 38.3676 118.092 38.0356 119.26 37.7627ZM93.4023 107.812C94.6446 107.027 96.5405 107.327 97.8356 107.842C99.359 108.447 100.982 109.576 101.582 111.154C102.137 112.614 100.064 113.132 99.2906 112.12C98.8127 111.494 98.459 110.892 98.0057 110.347C97.9479 110.403 97.8929 110.462 97.8441 110.527L97.8088 110.576C97.6165 110.859 97.266 111.152 96.8912 111.102L96.79 111.089C96.4117 111.038 95.9953 110.855 95.8908 110.443L95.8805 110.396L95.8666 110.322C95.7802 109.864 95.9166 109.36 96.355 109.121C96.3844 109.105 96.4144 109.091 96.444 109.076C95.4785 108.57 94.4828 108.412 93.433 108.047C93.3286 108.011 93.3052 107.873 93.4023 107.812ZM127.94 39.7021C121.466 39.5396 114.364 41.5309 109.579 46.017C107.314 48.1413 105.779 50.6124 104.403 53.3667C103.753 54.6672 103.334 56.1079 103.025 57.5246C102.855 58.2996 102.728 59.0814 102.661 59.8723C102.648 60.0247 102.65 60.1855 102.627 60.3364C102.606 60.4649 102.582 60.4983 102.56 60.4899C102.571 60.5258 102.624 60.5991 102.676 60.6691C107.523 57.1816 113.522 55.1518 119.455 56.4742C119.644 56.5163 119.644 56.8143 119.455 56.8563C119.151 56.924 118.849 56.9996 118.546 57.0738C121.142 57.1311 123.81 57.9448 126.052 59.1548C128.292 60.3639 130.649 62.0733 132.273 64.1526C132.227 63.8491 132.19 63.5443 132.183 63.2359C132.165 62.4123 132.184 61.5845 132.215 60.7615C132.281 58.9766 132.402 57.192 132.549 55.4122L132.614 54.6365C132.876 51.5257 133.2 48.3267 133.828 45.2836C134.195 43.5089 135.176 42.4279 136.495 41.794C134.046 40.2127 130.724 39.7723 127.94 39.7021ZM139.943 38.6667C137.025 37.7921 133.989 37.4068 130.95 37.4595C132.054 37.7386 133.124 38.1444 134.13 38.7047C135.425 39.4259 136.337 40.3812 137.154 41.5195C137.922 41.2519 138.777 41.1042 139.676 41.0404C141.752 40.893 143.851 41.0038 145.914 41.331C145.529 41.0938 145.138 40.8662 144.741 40.65C143.215 39.8196 141.606 39.1653 139.943 38.6667Z" fill="black"/>
<path fill-rule="evenodd" clip-rule="evenodd" d="M145.116 130.389C146.713 130.166 148.43 129.261 149.956 129.997C150.669 130.34 151.007 131.516 150.525 132.169C149.789 133.167 149.029 133.332 147.833 133.428C146.937 133.5 146.037 133.505 145.143 133.402L144.916 133.374C143.321 133.168 141.664 132.723 140.428 131.651C140.176 131.431 140.305 130.957 140.629 130.889C142.096 130.58 143.631 130.596 145.116 130.389ZM143.237 126.71C143.236 126.697 143.256 126.697 143.256 126.71C143.295 127.623 143.551 128.469 144.026 129.251C144.032 129.262 144.015 129.272 144.008 129.261C143.534 128.479 143.275 127.624 143.237 126.71ZM148.271 107.866C149.866 108.836 152.297 111.098 150.581 113.503C148.561 115.624 145.652 113.193 144.219 112.093C142.89 111.241 141.396 113.433 142.63 114.428C152.987 122.099 157.19 108.12 149.078 106.726C148.185 106.572 147.853 107.566 148.271 107.866ZM156.436 97.0097C156.811 97.0097 157.169 97.1369 157.495 97.3723C157.817 97.604 158.107 97.9421 158.349 98.3638C158.808 99.1618 159.094 100.264 159.094 101.482C159.094 102.7 158.808 103.802 158.349 104.6C158.107 105.022 157.817 105.36 157.495 105.591C157.169 105.827 156.811 105.954 156.436 105.954C156.062 105.954 155.703 105.827 155.377 105.591C155.056 105.36 154.765 105.022 154.523 104.6C154.065 103.802 153.778 102.7 153.778 101.482C153.778 100.264 154.065 99.1618 154.523 98.3638C154.765 97.9421 155.056 97.604 155.377 97.3723C155.703 97.1369 156.062 97.0097 156.436 97.0097ZM139.087 98.2524L139.228 98.2257C140.051 98.0759 140.467 98.1263 141.184 98.6874C141.722 99.109 141.568 99.9394 141.184 100.383C140.514 101.156 139.86 101.019 138.943 101.048L138.879 101.05C138.115 101.082 137.35 101.103 136.585 101.115C136.376 101.118 136.167 101.117 135.957 101.119C135.98 103.055 134.864 104.529 133.394 105.65C132.444 106.375 131.243 105.539 130.904 104.636C130.624 103.89 130.563 102.972 130.709 102.155C130.762 101.854 130.875 101.527 131.046 101.248L131.095 101.173L131.087 101.066C131.085 101.039 131.087 101.014 131.086 100.988C129.722 100.905 128.365 100.768 127.009 100.596L126.557 100.537C125.4 100.384 123.7 100.335 122.764 99.5816C122.734 99.5575 122.745 99.5049 122.776 99.4882C123.291 99.2108 123.813 99.2265 124.389 99.2009L124.472 99.1969C125.098 99.1646 125.723 99.1376 126.349 99.1162L126.975 99.0965C128.577 99.0507 130.18 98.9729 131.78 98.8877C132.059 98.8729 132.337 98.8554 132.616 98.8383C132.907 98.7161 133.217 98.643 133.523 98.6295C133.776 98.6181 134.02 98.6531 134.249 98.7261C134.834 98.6809 135.418 98.6317 136.001 98.5788L136.585 98.5246C137.409 98.4462 138.274 98.412 139.087 98.2524ZM149.2 83.7411C150.961 82.8756 153.101 82.8544 154.914 83.5707L155.034 83.6194C156.866 84.3796 159.072 86.1355 158.594 88.3227C158.157 90.3246 155.018 89.9854 154.859 88.0932C153.846 86.6885 151.573 86.3804 150.145 87.2736C149.278 87.8155 148.684 88.7279 148.277 89.6481C147.931 90.4318 147.865 91.3995 147.333 92.0822C147.316 92.1044 147.281 92.1084 147.256 92.1025C145.669 91.7352 145.632 89.2123 145.903 87.9886C146.296 86.2094 147.558 84.5488 149.2 83.7411Z" fill="black"/>
</svg>
