<svg width="240" height="324" viewBox="0 0 240 324" fill="none" xmlns="http://www.w3.org/2000/svg">
<path fill-rule="evenodd" clip-rule="evenodd" d="M189.445 219.788C188.032 215.446 189.715 210.431 188.615 205.75C188.238 203.898 187.522 197.02 186.803 192.997C186.4 190.747 188.807 190.049 189.177 189.151C191.78 181.083 172.79 162.105 171.631 161.405C169.894 160.401 168.357 159.537 166.659 158.511C161.708 156.771 155.771 151.931 151.282 155.039C143.505 143.458 146.582 129.189 142.362 127.493C138.141 125.797 125.679 122.369 118.554 126.746C114.284 129.907 114.599 135.349 112.65 139.836C111.506 141.949 110.945 145.009 109.613 146.387C105.089 151.068 99.4478 151.875 93.141 152.669C92.6606 152.73 92.1552 151.423 91.6885 151.584C81.0499 155.263 68.6708 156.336 56.6227 176.933C54.9211 179.879 50.3309 184.605 51.8658 188.009C41.7528 211.534 31.802 264.485 59.551 277.69C60.438 278.258 66.4553 275.214 67.4358 275.242C69.0701 275.289 65.9386 279.259 67.4358 278.552C78.4278 279.386 138.911 277.234 162.095 279.386C178.038 279.267 188.136 282.063 191.817 279.267C190.346 275.709 190.414 271.898 190.879 268.137C194.267 265.615 190.079 247.839 190.433 242.635C193.605 238.831 191.079 224.566 189.445 219.788Z" fill="white"/>
<path fill-rule="evenodd" clip-rule="evenodd" d="M184.39 193.752C182.869 195.965 181.472 198.243 180.208 200.613C179.557 201.835 178.949 203.081 178.402 204.353C178.289 201.603 178.264 198.821 177.943 196.098C177.92 195.901 177.592 195.805 177.557 196.045C177.202 198.514 177.144 201.047 177.01 203.543C176.855 203.496 176.685 203.468 176.497 203.468C174.671 203.468 172.873 203.618 171.055 203.766C170.24 203.831 169.387 203.882 168.556 204.012C169.225 203.273 169.848 202.492 170.423 201.677C171.01 200.846 171.68 199.548 170.658 198.75C169.529 197.868 167.314 199.021 166.222 199.47C165.669 199.697 165.127 199.944 164.593 200.206C163.919 198.317 161.852 198.066 160.081 198.327C158.818 198.514 157.592 198.946 156.361 199.275C154.798 199.692 153.229 200.086 151.654 200.455C148.818 201.119 145.962 201.699 143.093 202.202C143.017 202.114 142.912 202.045 142.771 202.009C141.789 201.764 140.705 201.952 139.697 201.971C138.661 201.99 137.625 201.988 136.589 201.967C134.738 201.929 132.889 201.914 131.038 201.882C130.512 201.563 129.845 201.105 129.682 200.504C129.478 199.755 130.115 198.925 130.41 198.287C131.545 195.838 131.942 193.097 131.497 190.43C131.418 189.955 131.254 189.435 131.018 188.948C133.045 189.165 135.047 189.312 137.085 189.379C141.156 189.511 145.226 189.65 149.298 189.68C157.441 189.741 165.583 189.741 173.726 189.682C178.33 189.648 182.923 189.606 187.521 189.37C187.147 189.846 186.782 190.331 186.426 190.824C186.353 190.802 186.257 190.841 186.268 190.933C186.272 190.965 186.275 190.996 186.279 191.028C185.63 191.935 185.005 192.857 184.39 193.752ZM175.336 277.968C173.444 277.908 171.552 277.848 169.66 277.787C165.946 277.669 162.231 277.551 158.518 277.433C151.16 277.198 143.802 276.972 136.443 276.769C129.102 276.567 121.757 276.352 114.414 276.582C107.054 276.811 99.7131 277.405 92.3669 277.882C88.2829 278.147 84.196 278.377 80.1043 278.487C76.2075 278.591 72.2762 278.433 68.3855 278.711C68.2548 277.749 68.3509 276.789 68.3367 275.831C69.613 275.093 70.8656 274.309 72.1036 273.539C76.6172 270.731 80.8835 267.554 84.9077 264.081C85.5263 263.547 86.1329 263.001 86.7333 262.45C86.3154 263.364 86.6498 264.542 87.8475 264.928C89.308 265.4 90.8034 265.232 92.3203 265.197C93.8606 265.16 95.401 265.126 96.9415 265.093C99.9523 265.03 102.963 264.972 105.974 264.922C111.856 264.823 117.739 264.75 123.621 264.703C135.456 264.607 147.283 264.768 159.117 264.982C162.444 265.042 165.768 265.117 169.096 265.041C170.761 265.004 172.432 264.991 174.095 264.902C175.427 264.83 176.768 264.641 178.1 264.472C178.268 266.793 178.443 269.113 178.639 271.432C178.768 272.963 178.901 274.494 179.033 276.025C179.087 276.656 179.091 277.301 179.18 277.901C177.901 277.971 176.63 278.009 175.336 277.968ZM176.637 212.433C176.591 214.21 176.566 215.987 176.553 217.765C176.4 217.677 176.227 217.613 176.032 217.583C173.962 217.267 171.748 217.507 169.654 217.542C167.631 217.576 165.6 217.565 163.578 217.66C161.552 217.756 159.527 217.87 157.502 217.975C156.551 218.025 155.611 218.067 154.669 218.196C154.023 218.284 153.196 218.278 152.506 218.462C155.401 215.656 158.281 212.835 161.169 210.022C161.255 209.937 161.318 209.848 161.362 209.757C163.287 208.583 165.135 207.262 166.809 205.75C168.136 206.262 169.647 206.326 171.055 206.44C172.874 206.588 174.671 206.738 176.497 206.738C176.62 206.738 176.736 206.726 176.844 206.704C176.755 208.613 176.687 210.522 176.637 212.433ZM101.458 246.944C105.879 248.356 110.668 248.34 115.267 248.623C120.169 248.925 125.064 249.175 129.972 249.367C139.775 249.747 149.571 250.265 159.372 250.677C164.971 250.912 170.568 251.172 176.164 251.454C176.561 251.473 176.939 251.372 177.273 251.185C177.461 254.872 177.681 258.557 177.938 262.24C177.97 262.7 178.005 263.16 178.038 263.621C175.404 263.291 172.79 262.974 170.137 262.75C167.157 262.498 164.179 262.286 161.195 262.088C155.38 261.702 149.556 261.186 143.731 260.998C131.856 260.614 119.955 260.744 108.075 260.829C104.714 260.853 101.353 260.885 97.9919 260.926C96.3115 260.946 94.6311 260.969 92.9507 260.993C91.2618 261.018 89.4468 260.842 87.8477 261.432C87.8325 261.437 87.8196 261.446 87.8046 261.451C92.6289 256.879 96.9508 251.825 101.458 246.944ZM116.998 232.325C124.385 233.67 131.888 233.578 139.376 233.711C147.038 233.848 154.711 233.757 162.374 233.773C166.727 233.782 171.118 233.973 175.455 233.586C175.968 233.54 176.365 233.346 176.648 233.07C176.727 237.685 176.872 242.298 177.072 246.909C176.79 246.79 176.483 246.717 176.164 246.698C166.372 246.122 156.579 245.599 146.774 245.28C136.978 244.96 127.169 244.582 117.368 244.7C112.584 244.758 107.526 244.452 102.809 245.495C104.601 243.589 106.433 241.719 108.348 239.928C111.141 237.317 114.121 234.871 116.998 232.325ZM122.642 226.892C122.651 226.881 122.656 226.868 122.664 226.857C122.69 226.876 122.723 226.89 122.766 226.889C129.681 226.733 137.439 228.915 143.906 225.566C146.794 224.071 149.185 221.708 151.506 219.436C151.507 219.453 151.509 219.47 151.51 219.487C151.525 219.671 151.603 219.893 151.79 219.975C152.553 220.309 153.446 220.331 154.266 220.451C155.208 220.588 156.133 220.668 157.083 220.725C159.178 220.851 161.273 220.984 163.369 221.103C165.46 221.221 167.561 221.231 169.654 221.283C171.754 221.335 173.954 221.59 176.032 221.29C176.223 221.262 176.392 221.202 176.543 221.119C176.546 223.809 176.571 226.498 176.596 229.186C176.6 229.624 176.608 230.062 176.613 230.499C176.333 230.242 175.947 230.063 175.455 230.019C171.602 229.68 167.718 229.831 163.851 229.844C160.053 229.856 156.255 229.869 152.458 229.882C144.789 229.907 137.127 229.982 129.46 230.128C125.731 230.199 122.019 230.513 118.345 231.116C119.833 229.761 121.279 228.365 122.642 226.892ZM62.556 275.791C61.1403 276.224 59.735 276.036 58.3165 276.333C58.2293 276.351 58.1488 276.385 58.0751 276.43C53.8273 274.614 50.9959 270.971 49.0582 266.888C47.0156 262.585 45.6077 257.985 44.6646 253.322C42.7201 243.708 42.7167 233.74 43.7232 224.014C44.7122 214.459 46.6702 204.955 49.4644 195.766C51.3829 189.456 53.8279 183.082 57.2228 177.329C61.1429 179.956 64.183 183.739 67.047 187.437C70.4693 191.856 73.5534 196.533 76.314 201.392C76.0286 202.224 75.9842 203.268 75.8473 204.012C75.5834 205.446 75.3451 206.899 75.1577 208.346C74.7574 211.439 74.3733 214.533 73.9641 217.624C73.1547 223.738 72.1884 229.834 71.1208 235.907C71.0344 236.399 71.1726 236.815 71.4267 237.127C69.3094 238.244 67.2198 239.41 65.1838 240.674C60.7077 243.452 56.5243 246.689 53.24 250.84C53.1546 250.948 53.2884 251.092 53.394 250.995C60.4372 244.484 69.1875 240.397 77.7787 236.357C82.1691 234.293 86.5379 232.195 90.7501 229.782C95.1551 227.258 99.3559 224.406 103.382 221.315C107.98 217.786 112.308 213.928 116.365 209.788C116.843 209.3 116.727 208.689 116.367 208.304C116.489 208.266 116.587 208.16 116.593 207.984C116.69 205.281 117.502 202.977 119.091 200.79C120.564 198.76 122.443 197.087 124.137 195.25C124.89 194.434 125.61 193.584 126.252 192.676C126.914 191.743 127.317 190.712 127.892 189.737C128.565 188.597 129.137 189.179 129.448 190.211C129.802 191.381 129.78 192.75 129.638 193.953C129.488 195.225 129.1 196.465 128.543 197.615C128.019 198.696 127.415 199.794 127.767 201.032C128.347 203.067 130.831 204.245 132.714 204.704C134.809 205.214 137.002 205.115 139.124 204.85C141.782 204.518 144.427 204.033 147.054 203.517C150.096 202.92 153.121 202.23 156.122 201.451C157.532 201.084 158.933 200.603 160.357 200.299C160.865 200.191 161.805 200.029 162.402 200.294C154.73 204.869 146.365 207.917 137.87 210.573C136.815 210.903 137.248 212.498 138.328 212.234C147.454 210.001 156.041 205.858 164.212 201.321C164.337 201.251 164.443 201.143 164.521 201.016C165.343 200.727 166.179 200.475 167.031 200.268C167.412 200.175 169.372 199.529 169.617 199.777C169.964 200.129 168.763 201.272 168.463 201.604C166.327 203.971 163.787 205.902 161.038 207.499C158.249 209.118 155.281 210.409 152.3 211.628C148.96 212.993 145.43 214.066 142.184 215.634C140.894 216.258 141.799 218.375 143.158 217.946C144.909 217.392 146.61 216.579 148.311 215.887C149.757 215.301 151.203 214.714 152.64 214.107C153.642 213.684 154.637 213.247 155.623 212.79C154.146 214.18 152.67 215.57 151.194 216.96C148.637 219.368 146.209 222.111 143.083 223.799C139.996 225.468 136.474 225.662 133.037 225.626C131.312 225.608 129.594 225.553 127.868 225.622C126.053 225.696 124.44 225.975 122.719 226.546C122.687 226.557 122.664 226.576 122.645 226.598C122.585 226.524 122.483 226.487 122.377 226.55C117.701 229.316 113.439 232.903 109.34 236.449C105.115 240.104 101.139 243.991 97.3516 248.096C93.726 252.026 90.1294 255.97 86.1842 259.585C82.3322 263.115 78.2156 266.321 73.9172 269.287C71.5751 270.904 69.1751 272.46 66.6918 273.852C65.3648 274.595 64.0172 275.344 62.556 275.791ZM62.9494 169.398C64.6239 167.516 66.4262 165.772 68.3334 164.159C69.1748 164.408 70.0581 164.477 70.9482 164.487C72.3065 164.5 73.6677 164.557 75.0259 164.543C77.6412 164.516 80.2554 164.433 82.8713 164.419C88.22 164.39 93.5703 164.388 98.919 164.435C99.6198 164.441 100.125 164.141 100.437 163.706C101.52 164.934 102.636 166.134 103.761 167.314C105.589 169.232 107.538 171.063 109.613 172.73C109.209 172.733 108.805 172.737 108.404 172.734C106.554 172.721 104.703 172.71 102.853 172.7C99.1408 172.679 95.4282 172.664 91.7156 172.654C84.3348 172.635 76.9309 172.696 69.5596 173.074C67.5136 173.179 65.4517 173.222 63.4129 173.421C62.3072 173.529 61.2027 173.656 60.0979 173.773C59.8719 173.797 59.6551 173.828 59.4424 173.862C60.5243 172.307 61.6896 170.813 62.9494 169.398ZM92.5104 152.626C92.4605 152.659 92.4067 152.69 92.3589 152.726C92.2503 152.807 92.2674 152.955 92.3955 153.004C92.5657 153.071 92.7447 153.121 92.9289 153.161C93.4884 153.973 93.9255 154.976 94.2307 155.485C95.1077 156.946 96.1161 158.338 97.142 159.697C97.3482 159.97 97.5584 160.24 97.7695 160.509C92.8015 160.497 87.8361 160.522 82.8711 160.71C80.2571 160.809 77.6342 160.893 75.0257 161.089C73.9531 161.169 72.8811 161.305 71.8119 161.439C77.3767 157.415 83.6348 154.342 90.118 152.061C90.1091 152.071 90.1 152.078 90.0912 152.088C89.9484 152.246 90.1615 152.452 90.3223 152.319C91.1657 151.621 91.8977 151.949 92.5104 152.626ZM117.612 199.925C117.471 200.139 117.332 200.36 117.197 200.587C116.871 200.262 116.416 200.044 115.83 200.026C109.322 199.823 102.817 199.646 96.3052 199.641C93.0939 199.639 89.8535 199.531 86.6462 199.69C85.0358 199.77 83.4259 199.865 81.8162 199.956C80.6908 200.02 79.4953 200.099 78.3962 200.425C75.8634 195.993 73.0516 191.732 69.981 187.658C76.9478 188.513 84.0339 188.422 91.0402 188.659C98.9781 188.928 106.921 188.986 114.861 189.174C117.039 189.226 119.218 189.282 121.395 189.343C122.519 189.375 123.643 189.407 124.768 189.441C125.119 189.452 125.483 189.462 125.847 189.452C125.819 189.509 125.791 189.566 125.764 189.622C125.151 190.888 124.38 192.054 123.482 193.136C121.573 195.436 119.266 197.417 117.612 199.925ZM109.074 213.577C108.833 212.907 108.246 212.391 107.31 212.434C101.978 212.676 96.6357 212.844 91.3094 213.195C88.7148 213.366 86.1097 213.482 83.5193 213.709C82.1833 213.826 80.8495 214.044 79.5192 214.217C78.6071 214.336 77.6522 214.474 76.7773 214.798C76.947 212.925 77.0966 211.05 77.2265 209.172C77.3306 207.663 77.3623 206.141 77.3543 204.628C77.3503 203.863 77.3243 203.093 77.2873 202.328C77.3659 202.343 77.4447 202.351 77.5221 202.342C77.6585 202.325 77.7859 202.309 77.9042 202.277C79.1302 202.757 80.5178 202.863 81.8163 202.956C83.3564 203.065 84.8961 203.182 86.4363 203.292C89.7133 203.526 93.0211 203.511 96.3052 203.618C102.77 203.829 109.236 203.951 115.703 204.125C115.403 205.412 115.392 206.735 115.872 207.981C115.538 207.87 115.153 207.922 114.824 208.247C112.962 210.088 111.043 211.863 109.074 213.577ZM90.2645 227.27C90.1329 226.906 89.8845 226.571 89.5904 226.344C88.4597 225.473 86.3956 225.974 85.0384 226.041C83.4317 226.12 81.8248 226.198 80.2181 226.277C79.7305 226.3 77.2418 226.427 75.4139 226.817C75.7916 223.964 76.1343 221.106 76.4407 218.242C76.5049 217.641 76.5645 217.04 76.6234 216.439C77.4845 216.716 78.4204 216.817 79.3086 216.86C80.6396 216.923 81.9767 217.03 83.309 217.051C85.9707 217.093 88.6473 216.962 91.3095 216.917C96.1035 216.838 100.898 216.609 105.69 216.42C100.879 220.326 95.7953 223.891 90.4925 227.134C90.4169 227.18 90.3402 227.224 90.2645 227.27ZM75.1226 228.963C75.5276 229.017 75.9292 229.034 76.2364 229.066C77.7787 229.221 79.2969 229.362 80.8469 229.385C82.3839 229.407 83.9207 229.43 85.4576 229.453C85.7845 229.457 86.1113 229.462 86.4381 229.467C82.3911 231.678 78.2198 233.659 74.1075 235.745C74.4698 233.487 74.808 231.227 75.1226 228.963ZM119.221 178.606C128.444 182.527 140.274 182.882 148.2 176.369C148.988 176.585 149.859 176.657 150.554 176.726C152.117 176.883 153.665 177.028 155.235 177.077C158.296 177.172 161.358 177.316 164.42 177.353C170.613 177.43 176.807 177.466 183.001 177.521C183.528 177.526 183.949 177.365 184.269 177.107C184.896 178.171 185.48 179.261 186.013 180.38C186.789 182.01 187.448 183.696 187.988 185.419C187.873 185.399 187.752 185.385 187.623 185.383C179.484 185.242 171.338 185.476 163.197 185.51C155.054 185.544 146.912 185.51 138.77 185.568C136.516 185.584 134.28 185.584 132.032 185.751C130.862 185.838 129.678 185.877 128.52 186.065C128.39 186.086 128.259 186.105 128.126 186.124C126.573 185.216 124.646 185.405 122.871 185.372C120.833 185.334 118.796 185.299 116.758 185.269C112.754 185.21 108.748 185.166 104.743 185.139C96.7943 185.084 88.8648 185.287 80.9209 185.565C76.9685 185.702 73.0311 185.936 69.1296 186.545C68.8677 186.205 68.6082 185.864 68.3429 185.528C65.5784 182.023 62.3012 177.536 57.7522 176.45C57.9267 176.165 58.1038 175.882 58.2836 175.602C61.4353 176.433 64.9121 176.391 68.1322 176.565C71.844 176.766 75.5479 176.904 79.2641 176.996C86.6511 177.177 94.0366 177.291 101.425 177.403C103.476 177.435 105.526 177.467 107.577 177.502C108.683 177.52 109.789 177.541 110.895 177.558C111.513 177.568 112.066 177.566 112.654 177.361C113.2 177.171 113.731 176.886 114.258 176.65C114.443 176.567 114.592 176.445 114.714 176.301C116.162 177.167 117.663 177.943 119.221 178.606ZM155.261 165.568C156.421 165.89 157.618 165.944 158.845 166.036C160.455 166.158 162.061 166.179 163.675 166.189C166.248 166.205 168.822 166.188 171.395 166.117C172.5 166.086 173.146 165.346 173.337 164.499C173.364 164.52 173.391 164.542 173.418 164.564C176.549 167.144 179.386 170.096 181.79 173.363C176 173.381 170.21 173.385 164.42 173.424C161.359 173.445 158.295 173.571 155.235 173.649C153.734 173.688 152.255 173.812 150.76 173.954C150.73 173.957 150.699 173.96 150.669 173.963C150.827 173.78 150.984 173.595 151.138 173.404C152.925 171.189 154.395 168.459 155.261 165.568ZM192.906 281.851C193.417 280.445 193.219 278.937 193.19 277.458C193.16 275.941 193.144 274.425 193.139 272.908C193.129 269.942 193.109 266.976 193.076 264.01C193.01 258.011 192.94 252.006 192.704 246.01C192.238 234.156 191.339 222.331 189.873 210.557C189.16 204.833 188.275 199.122 187.074 193.479C187.091 193.456 187.108 193.433 187.125 193.41C188.32 191.812 189.68 190.335 190.855 188.725C190.959 188.583 191.002 188.4 191.001 188.215C191.044 188.194 191.087 188.172 191.131 188.147C192.105 187.592 191.225 186.079 190.251 186.641C190.364 186.576 188.746 182.423 188.574 182.004C187.959 180.502 187.266 179.033 186.485 177.61C186.014 176.751 185.51 175.91 184.982 175.085C184.889 174.468 184.557 173.897 183.985 173.592C182.982 172.154 181.898 170.772 180.743 169.456C176.015 164.066 170.109 159.716 163.656 156.617C162.724 156.169 161.764 155.796 160.808 155.405C159.789 154.988 158.845 154.444 157.841 154.007C156.208 153.295 154.596 153.336 152.992 154.089C152.855 154.154 152.953 154.365 153.093 154.328C154.126 154.059 155.183 154.014 156.219 154.306C157.233 154.593 158.004 155.226 158.89 155.754C160.468 156.696 162.233 157.31 163.85 158.189C165.989 159.351 168.08 160.628 170.079 162.03C168.008 162.14 165.934 162.219 163.86 162.274C162.32 162.315 160.78 162.322 159.242 162.411C158.147 162.475 157.009 162.457 155.914 162.634C156.178 160.819 156.179 158.989 155.849 157.221C155.849 157.221 155.849 157.22 155.849 157.219C155.769 156.793 155.672 156.371 155.554 155.953C155.301 155.064 154.491 154.93 153.902 155.267C153.844 155.224 153.785 155.182 153.729 155.136C153.024 154.563 152.39 153.879 151.839 153.159C150.693 151.664 149.767 149.933 149.066 148.188C148.355 146.421 147.852 144.573 147.359 142.736C147.112 141.815 146.845 140.899 146.593 139.979C146.374 139.179 146.215 138.295 145.813 137.566C145.737 137.43 145.51 137.455 145.474 137.61C145.261 138.523 145.374 139.565 145.413 140.496C145.456 141.529 145.515 142.553 145.653 143.578C145.938 145.706 146.398 147.798 147.134 149.818C147.841 151.756 148.773 153.564 150.039 155.197C150.88 156.281 152.074 157.717 153.458 158.301C153.639 160.337 153.618 162.375 153.137 164.39C152.509 167.028 151.305 169.536 149.65 171.685C146.182 176.189 140.815 178.735 135.217 179.259C129.425 179.802 123.498 178.506 118.293 175.957C112.504 173.123 107.702 168.75 103.388 164.029C100.902 161.308 98.3235 158.631 96.0189 155.752C95.6106 155.242 94.9569 154.206 94.1816 153.273C94.9706 153.266 95.7804 153.148 96.4789 153.058C97.924 152.873 99.3363 152.585 100.748 152.226C103.389 151.554 106.173 150.62 108.48 149.141C113.361 146.013 115.267 142.044 115.918 136.577C116.124 134.849 113.136 134.429 112.858 136.162C112.431 138.828 111.784 140.124 110.934 142.685C110.116 145.145 108.931 146.062 106.667 147.418C104.541 148.692 102.126 149.432 99.7842 150.196C98.4866 150.62 97.1735 151.006 95.8649 151.395C95.0319 151.643 94.043 151.859 93.1979 152.242C92.757 151.855 92.297 151.563 91.8339 151.453C91.868 151.396 91.8238 151.307 91.7385 151.323C91.6024 151.351 91.4668 151.381 91.3307 151.409C91.194 151.419 91.058 151.446 90.9221 151.495C82.7659 153.262 74.9334 157.024 68.2915 162.15C67.9567 162.29 67.6328 162.461 67.3246 162.678C67.1659 162.789 67.0607 162.966 67.0305 163.149C66.032 163.965 65.0632 164.811 64.127 165.687C56.5877 172.741 51.8108 182.125 48.4666 191.777C45.1723 201.286 42.9424 211.257 41.7162 221.24C40.4661 231.417 40.322 241.805 42.1351 251.924C43.1087 257.357 44.6847 262.697 47.011 267.708C49.1 272.209 52.5004 277.337 57.8412 277.885C57.8583 277.902 57.8744 277.92 57.8936 277.936C59.9892 279.662 63.1092 278.47 65.3 277.439C65.6473 277.275 65.9919 277.103 66.335 276.927C66.1537 277.625 66.072 278.356 66.0342 279.041C65.9554 280.463 67.9605 280.544 68.3401 279.363C71.5905 279.935 74.9469 279.943 78.2344 279.925C81.9077 279.905 85.5798 279.777 89.2489 279.604C96.5287 279.261 103.8 278.736 111.085 278.497C125.835 278.014 140.626 279.047 155.364 279.567C159.499 279.713 163.633 279.858 167.768 280.004C171.992 280.153 176.212 280.182 180.402 280.753C181.943 280.963 182.533 279.453 182.099 278.512C182.207 277.88 182.099 277.187 182.04 276.442C181.929 275.051 181.824 273.659 181.726 272.267C181.535 269.552 181.35 266.836 181.175 264.12C180.819 258.617 180.514 253.11 180.216 247.603C179.625 236.654 179.172 225.697 178.839 214.737C178.758 212.066 178.652 209.393 178.518 206.724C178.677 206.471 178.836 206.217 178.99 205.961C179.502 205.106 180.005 204.246 180.523 203.396C181.564 201.691 182.611 199.997 183.705 198.325C184.649 196.882 185.624 195.46 186.642 194.068C187.906 204.748 189.03 215.439 189.546 226.188C190.114 238.027 190.416 249.883 190.58 261.734C190.625 265.045 190.656 268.356 190.692 271.667C190.71 273.391 190.728 275.114 190.714 276.838C190.7 278.487 190.451 280.29 191.036 281.851C191.377 282.761 192.57 282.777 192.906 281.851Z" fill="black"/>
<path fill-rule="evenodd" clip-rule="evenodd" d="M151.143 69.0517C137.248 57.7538 114.981 54.0854 100.107 65.4837C88.5496 76.1808 83.7669 106.578 85.8122 121.853C86.3809 131.65 93.863 142.755 104.846 139.656C106.711 139.473 108.522 138.757 110.404 138.608C112.656 138.348 114.924 138.344 117.172 138.661C122.068 139.354 126.408 141.955 131.161 143.171C139.979 145.427 149.818 143.909 157.408 138.828C182.491 122.33 171.129 85.0192 151.143 69.0517Z" fill="white"/>
<path fill-rule="evenodd" clip-rule="evenodd" d="M149.292 143.442C149.55 143.353 149.807 143.26 150.063 143.165C150.08 143.225 150.107 143.281 150.139 143.337C150.175 143.425 150.211 143.512 150.251 143.598C149.93 143.601 149.609 143.543 149.292 143.442ZM148.776 33.9583C148.662 33.7028 148.531 33.4577 148.383 33.2207C148.742 33.3372 149.102 33.4978 149.427 33.7049C149.207 33.7789 148.992 33.8635 148.776 33.9583ZM93.8909 67.3856C93.8761 67.3831 93.8615 67.381 93.847 67.3785C94.0354 66.8765 94.3711 66.4027 94.7419 66.0605C94.8084 65.999 94.8805 65.9421 94.9502 65.8834C94.5566 66.3524 94.1996 66.8526 93.8909 67.3856ZM194.317 119.874C194.131 118.112 193.894 116.356 193.588 114.61C193.294 112.938 193.047 111.15 192.196 109.666C191.351 108.189 190.504 106.754 189.498 105.454C189.642 104.79 189.832 104.167 189.997 103.664C190.947 100.768 191.883 97.091 189.908 94.4005C189.449 93.777 188.89 93.2994 188.249 92.8682C187.977 92.6843 187.525 92.5174 187.316 92.2637C187.168 92.0841 187.219 92.1813 187.212 92.0925C187.176 91.6149 188.296 90.6067 188.558 90.2284C189.048 89.5286 189.413 88.7405 189.692 87.9353C190.795 84.7481 190.045 81.2376 189.382 78.0439C189.031 76.3512 188.645 74.654 188.518 72.9252C188.399 71.302 188.621 69.7169 188.752 68.1022C188.879 66.5084 188.845 64.8643 188.163 63.3888C187.829 62.6703 187.324 62.0362 186.709 61.5416C186.109 61.0579 185.361 60.7768 184.776 60.2949C184.193 59.8149 184.36 59.1663 184.512 58.5026C184.721 57.6023 184.985 56.7083 185.011 55.7783C185.057 54.1573 184.396 52.5783 183.363 51.3527C182.298 50.0867 180.777 49.2305 179.133 49.0382C178.381 48.9494 177.642 49.0997 176.894 49.0468C176.154 48.9961 175.994 48.6262 175.854 47.9499C175.533 46.4007 175.664 44.8706 174.902 43.4249C174.226 42.1399 173.023 41.2689 171.694 40.7556C169.259 39.8129 166.426 40.0074 163.856 40.563C162.34 36.0995 157.605 33.1723 152.947 33.1364C152.22 31.9021 150.988 30.9806 149.583 30.4393C147.259 29.5411 144.798 30.0655 142.377 30.0655H142.367C142.123 30.0505 141.88 30.0443 141.638 30.0464C141.409 30.0335 141.181 30.0145 140.953 29.9894C138.198 29.6637 135.473 28.5351 132.743 29.6406C131.526 30.1331 130.559 30.8918 129.946 31.8598C129.023 32.1111 128.112 32.3988 127.219 32.7327C123.346 32.8339 119.509 34.9115 117.551 38.2785C114.794 37.9657 111.802 38.4962 109.979 40.7492C109.504 41.3355 109.136 42.0243 108.892 42.7556C107.033 43.3571 105.313 44.4288 104.187 46.0431C103.16 47.5162 102.962 49.4209 103.657 51.0022C101.997 52.205 100.701 53.9269 100.076 55.9601C99.6962 57.1954 99.6397 58.4718 99.884 59.6877C98.1847 60.0647 96.5595 60.7637 95.1195 61.8126C93.6104 62.9114 91.7257 64.6603 91.6264 66.6732C91.619 66.821 91.6247 66.9687 91.6365 67.116C88.3143 66.8825 84.9269 67.4455 82.6813 70.11C80.9952 72.1092 80.2623 74.6836 80.7123 77.0275C76.7595 77.8306 73.0219 79.8976 70.4149 82.9538C68.52 85.175 66.8362 87.9987 66.9374 91.0229C66.9691 91.934 67.1827 92.8513 67.5524 93.6988V93.7007C67.394 93.9989 67.2311 94.3307 67.0747 94.6837C64.6262 96.3975 62.8473 99.084 61.8459 102.045C61.0369 104.444 60.5278 107.559 61.3916 110C61.5228 110.372 61.6897 110.723 61.8841 111.048C61.7212 111.222 61.5672 111.395 61.4172 111.571C59.767 113.5 58.0959 115.931 58.2102 118.587C58.2567 119.657 58.6536 120.733 59.3024 121.616C57.0205 123.93 55.1827 126.851 55.3642 130.112C55.5205 132.951 57.0778 135.834 59.5177 137.197C59.1102 139.384 59.6552 141.692 61.3578 143.4C62.2074 144.254 63.2086 144.816 64.2693 145.116C64.5059 147.692 66.7916 149.766 69.2191 150.362C69.6714 150.474 70.1235 150.541 70.5733 150.573C72.7578 151.645 75.3628 151.522 77.5916 150.539C78.2487 151.374 79.1043 152.055 80.1015 152.543C80.505 152.742 80.932 152.906 81.3776 153.039C84.5254 153.971 87.7538 152.708 90.5064 151.233C90.5952 151.186 90.7578 151.127 90.9015 151.061C91.2818 151.486 91.9747 151.907 92.336 152.114C93.5616 152.818 95.0595 153.145 96.4665 153.052C98.1165 152.942 99.5719 152.397 100.92 151.621C101.117 151.655 101.315 151.674 101.514 151.685C102.781 151.752 103.911 151.351 104.928 150.717C105.599 150.806 106.288 150.797 106.985 150.675C108.521 151.065 110.017 150.444 111.219 149.457C111.752 149.02 112.202 148.506 112.683 148.016C113.184 147.506 113.564 147.388 114.149 147.046C115.533 146.236 115.7 144.184 115.1 142.7C115.214 142.44 115.28 142.151 115.28 141.83C115.275 139.027 113.985 136.457 112.4 134.215C111.692 133.215 110.924 132.236 110.08 131.349C109.402 130.636 108.45 129.48 107.446 129.191C107.385 129.146 107.321 129.102 107.258 129.06C107.452 128.379 107.566 127.686 107.518 126.978C107.467 126.251 107.232 125.562 106.857 124.974C108.118 122.529 108.65 119.847 108.397 117.049C109.423 115.592 110.201 113.984 110.602 112.222C110.849 111.131 110.991 109.983 110.972 108.865C110.963 108.328 110.767 107.65 110.763 107.094C110.793 107.27 111.021 106.614 111.109 106.451C112.128 104.56 113.435 103.085 113.653 100.855C113.78 99.5509 113.471 98.1097 112.69 97.0403C113.19 95.0662 113.184 92.9462 112.396 91.0633C112.185 90.5603 111.942 90.0678 111.663 89.6007C111.792 89.2076 111.91 88.8103 112.062 88.4529C112.121 88.3113 112.18 88.1678 112.24 88.024C112.812 87.5187 113.345 86.9673 113.793 86.426C114.785 85.2279 115.544 83.8541 115.639 82.2709C115.686 81.4783 115.5 80.7196 115.269 79.9674C115.168 79.6271 115.106 79.2488 114.986 78.917C114.919 78.7329 114.756 78.545 114.699 78.3717C114.686 78.3336 114.675 78.3019 114.667 78.2766C114.675 78.2512 114.682 78.1984 114.682 78.0988C114.684 77.3401 114.783 76.5982 114.788 75.8672C115.483 76.5689 116.319 77.0928 117.27 77.3995C119.186 78.0145 121.185 77.7355 122.881 76.7866C124.707 78.0378 126.758 79.1704 128.909 79.625C130.187 79.8953 131.467 79.7835 132.749 79.9505C134.023 80.1174 135.255 80.6733 136.455 81.1066C139.126 82.0724 141.79 83.0634 144.468 84.0042C146.632 84.7629 148.973 85.3653 151.238 84.9383C151.874 85.9188 152.7 86.7475 153.758 87.3562C154.516 87.7894 155.349 88.083 156.209 88.2291C156.969 88.358 157.861 88.3073 158.478 88.8293C159.08 89.3365 159.456 90.093 159.997 90.6638C160.599 91.3021 161.342 91.8558 162.122 92.2532C162.747 92.5723 163.386 92.8025 164.034 92.9527C163.977 94.3963 163.922 95.8377 163.905 97.2833C163.874 100.424 163.886 103.564 163.844 106.705C163.802 109.835 163.702 112.965 163.538 116.091C163.381 119.025 163.161 121.969 162.462 124.831C160.142 134.327 151.453 141.126 141.726 141.472C138.838 141.576 135.98 141.17 133.218 140.32C130.358 139.439 127.804 137.626 124.871 137.068C124.104 136.924 123.382 137.696 123.821 138.437C124.578 139.712 125.497 140.49 126.754 141.257C128.07 142.058 129.536 142.652 130.983 143.172C133.645 144.127 136.462 144.681 139.286 144.835C141.441 144.953 143.604 144.805 145.715 144.4C145.863 144.854 146.125 145.296 146.323 145.716C146.353 145.778 146.452 145.735 146.433 145.672C146.401 145.566 146.381 145.473 146.372 145.397C147.082 146.323 148.178 146.963 149.305 147.274C150.099 147.494 150.942 147.561 151.759 147.468C152.024 147.439 152.275 147.394 152.524 147.34C153.356 148.069 154.421 148.555 155.49 148.798C155.307 149.914 155.858 151.131 157.136 151.448C157.673 151.581 158.188 151.583 158.704 151.535C159.12 151.729 159.568 151.881 160.043 151.985C160.662 152.12 161.401 151.947 161.868 151.499C162.124 151.679 162.363 151.803 162.599 152.088C163.574 153.264 165.673 152.327 165.766 150.968C166.075 150.968 166.385 150.973 166.696 150.983C166.77 151.017 166.844 151.051 166.92 151.087C168.278 151.718 169.685 152.27 171.188 151.774C171.464 151.683 171.718 151.567 171.948 151.431C173.006 151.526 174.05 151.528 175.124 151.182C175.757 150.977 176.353 150.651 176.849 150.224C178.506 150.711 180.253 150.93 181.901 150.328C183.135 149.878 184.128 149.168 184.827 148.231C185.896 148.269 186.982 148.012 187.96 147.502C189.633 146.636 190.806 144.989 191.623 143.339C193.424 139.697 194.488 135.785 194.906 131.75C195.318 127.777 194.731 123.825 194.317 119.874Z" fill="black"/>
<path fill-rule="evenodd" clip-rule="evenodd" d="M149.373 128.003C148.022 128.014 146.504 127.507 145.489 127.11L145.224 127.005C144.346 126.653 143.443 126.249 142.77 125.571C142.555 125.35 142.326 125.101 142.21 124.839C142.141 124.685 142.113 124.526 142.179 124.368C142.422 124.344 142.653 124.313 142.871 124.273C142.975 124.254 143.075 124.234 143.151 124.234C143.433 124.232 143.712 124.268 143.99 124.303C144.03 124.308 144.071 124.313 144.111 124.318C144.328 124.345 144.543 124.374 144.758 124.403C145.384 124.487 146.007 124.57 146.642 124.601C147.101 124.623 147.582 124.597 148.067 124.57C149.325 124.502 150.626 124.408 151.595 125.29C151.849 125.521 151.955 125.812 151.955 126.108C151.955 126.468 151.804 126.835 151.573 127.122C151.05 127.773 150.244 127.996 149.373 128.003ZM156.736 116.649C156.148 117.531 155.169 118.098 153.828 118.036C151.163 117.914 147.982 116.908 145.749 115.453C145.168 115.075 144.791 114.469 144.723 113.82L144.603 112.666L143.953 113.627C143.885 113.727 143.817 113.827 143.749 113.927C143.561 114.202 143.373 114.477 143.195 114.759C142.514 115.842 141.89 116.935 141.323 118.082C140.921 118.894 140.628 119.802 140.334 120.718C139.837 122.265 139.357 123.787 138.295 124.874C138.135 125.038 137.888 125.097 137.662 125.068C137.463 125.043 137.268 124.945 137.173 124.75C135.904 122.17 137.61 119.061 138.994 116.9L139.14 116.674C140.424 114.721 142.519 112.136 144.919 111.784L145.194 112.223L145.593 111.956C146.247 111.52 147.109 111.54 147.864 111.881L148.619 112.222C150.025 112.853 151.411 113.436 152.932 113.755C153.043 113.778 153.154 113.799 153.264 113.82C153.369 113.839 153.474 113.856 153.579 113.873C153.556 113.769 153.532 113.666 153.508 113.563C153.482 113.454 153.456 113.345 153.428 113.236C153.4 113.124 153.369 113.012 153.338 112.901C153.216 112.457 153.079 112.017 152.916 111.586C152.302 109.968 151.321 108.454 150.367 107.01L150.255 106.84C150.118 106.633 149.968 106.417 149.814 106.194C149.07 105.122 148.245 103.959 148.186 102.792C149.174 102.854 150 103.468 150.727 104.002C151.725 104.735 152.65 105.573 153.49 106.483C155.117 108.249 156.578 110.507 157.219 112.841C157.585 114.178 157.424 115.616 156.736 116.649ZM130.694 103.334L130.694 103.286C130.696 101.938 131.481 98.8612 133.421 98.8612C134.632 98.8612 135.368 100.955 135.495 103.114L135.5 103.202C135.556 104.545 135.188 107.478 133.421 107.478C131.635 107.478 130.712 104.7 130.694 103.334ZM159.248 102.911L159.248 102.863C159.245 101.516 158.461 98.4385 156.521 98.4385C155.34 98.4385 154.611 100.429 154.457 102.53L154.446 102.692C154.37 103.988 154.714 107.056 156.521 107.056C158.307 107.056 159.229 104.277 159.248 102.911ZM137.226 94.2128C136.969 94.243 136.713 94.2825 136.457 94.3231C135.712 94.4419 134.97 94.5846 134.233 94.7509C132.834 95.0669 131.446 95.4659 130.085 95.9167C128.811 96.3388 127.557 96.8158 126.303 97.2927C126.236 97.3181 126.169 97.3436 126.102 97.369C125.659 97.5374 125.218 97.7261 124.776 97.9154C124.102 98.2035 123.425 98.4936 122.735 98.7121C124.554 96.1958 127.357 94.3313 130.055 92.9971C131.594 92.2358 133.226 91.622 134.869 91.119L135.783 90.8441C137.13 90.4466 138.602 90.0794 139.868 90.872C140.368 91.1854 140.687 91.6727 140.788 92.1995C140.886 92.7161 140.774 93.27 140.417 93.7323C140.107 94.135 139.719 94.3643 139.307 94.4429C138.853 94.5297 138.371 94.4344 137.932 94.2C137.58 94.1738 137.477 94.1833 137.373 94.1948L137.226 94.2128ZM157.486 94.4688C156.585 94.2728 155.692 94.1941 154.767 94.2223C154.349 94.2349 153.944 94.2995 153.541 94.3646C152.914 94.4656 152.29 94.5699 151.615 94.4473C151.263 94.3833 150.963 94.1772 150.731 93.9082C150.46 93.5936 150.281 93.1916 150.223 92.8094C150.164 92.4146 150.223 92.0692 150.369 91.7643C150.542 91.4041 150.832 91.1005 151.183 90.8346C152.246 90.0296 154.07 90.2232 155.324 90.3859C156.564 90.5472 157.797 90.9317 158.892 91.5424C159.974 92.1452 160.913 92.9573 161.647 93.9499C162.265 94.7865 162.556 95.7494 162.857 96.7299C161.442 95.5428 159.278 94.858 157.486 94.4688Z" fill="black"/>
</svg>
