<svg width="240" height="324" viewBox="0 0 240 324" fill="none" xmlns="http://www.w3.org/2000/svg">
<path fill-rule="evenodd" clip-rule="evenodd" d="M43.0084 273.246C42.7209 273.255 42.8115 273.171 42.9172 273.151C42.9476 273.183 42.978 273.215 43.0084 273.246ZM51.4983 279.56C59.5322 280.512 67.576 279.641 75.5704 278.767C91.7661 277.566 107.848 281.065 124.076 279.998C144.356 279.143 164.691 277.538 184.903 280.243C190.494 280.372 199.411 281.881 197.384 273.223C194.721 250.964 191.16 228.817 187.346 206.729C184.113 194.346 183.879 172.928 175.028 164.317C173.734 163.135 169.092 159.311 167.865 158.798C161.763 156.525 150.764 154.752 146.226 149.935C142.551 143.713 144.261 135.223 138.545 130.214C133.536 126.123 122.603 126.988 117.248 130.06C113.022 132.801 112.36 138.124 109.727 142.061C109.078 143.004 107.535 145.278 106.664 146.012C104.544 148.054 97.0965 150.199 94.9458 150.594C82.8091 153.082 76.7575 154.619 67.2118 162.687C42.2699 188.16 45.8055 233.214 38.904 266.524C38.6216 270.186 36.3963 275.155 40.3664 277.512C43.7858 279.151 47.8062 278.973 51.4983 279.56Z" fill="white"/>
<path fill-rule="evenodd" clip-rule="evenodd" d="M143.444 141.467C143.474 141.38 143.613 141.365 143.634 141.467C143.974 143.024 144.612 144.732 145.259 146.192C145.916 147.672 146.814 149.031 147.948 150.185C150.325 152.603 153.382 153.706 156.735 153.708L156.815 153.71C156.83 153.598 156.848 153.485 156.864 153.372L156.887 153.203C157.193 150.887 159.942 150.954 160.478 152.702C160.751 152.789 161.023 152.875 161.294 152.966L161.348 152.986C161.803 153.159 163.345 153.927 163.628 153.723C164.252 153.275 164.964 153.788 165.2 154.361C165.587 155.299 165.652 156.458 165.777 157.475L165.794 157.607L165.813 157.766C174.633 160.059 179.583 168.887 182.11 177.02C183.479 181.429 184.375 185.977 185.275 190.5C186.238 195.338 187.126 200.188 188.066 205.028C189.919 214.566 191.672 224.126 193.195 233.721L193.637 236.508C195.032 245.331 196.392 254.149 197.535 263.012C198.152 267.791 198.73 272.574 199.288 277.361C199.388 278.214 199.487 279.068 199.585 279.923L199.732 281.205C199.863 282.355 200.085 283.492 199.516 284.568C198.285 286.901 194.554 286.884 194.342 283.896C194.3 283.302 194.501 282.847 194.833 282.53L194.828 282.48C194.825 282.45 194.821 282.428 194.82 282.418C194.71 281.824 194.68 281.197 194.613 280.596C194.465 279.316 194.321 278.035 194.176 276.752C193.895 274.309 193.611 271.866 193.318 269.425C192.724 264.473 192.097 259.527 191.431 254.586L190.772 249.7C188.566 233.414 186.267 217.131 183.242 200.974C182.419 196.576 181.572 192.184 180.703 187.795C179.879 183.637 178.954 179.499 177.572 175.486C175.316 168.93 171.371 162.79 165.895 158.487C165.98 159.309 166.041 160.135 166.119 160.957C166.32 163.069 166.533 165.178 166.749 167.287C167.533 174.93 168.595 182.56 170.408 190.033C171.306 193.736 172.4 197.39 173.733 200.96C174.39 202.718 175.107 204.453 175.892 206.157C176.67 207.841 178.033 209.642 178.115 211.519C178.153 212.387 177.245 213.159 176.404 213.066C176.797 216.524 177.019 220.017 177.253 223.466C177.595 228.462 177.868 233.467 178.267 238.46C178.981 247.402 179.877 256.331 180.815 265.252C181.001 267.021 181.203 268.788 181.403 270.555L181.57 272.039C181.683 273.001 181.854 274.153 181.343 275.006C181.8 276.107 182.112 277.238 182.294 278.417C182.524 279.884 181.686 281.529 179.974 281.465C179.78 281.459 179.585 281.442 179.391 281.421C177.804 281.788 176.222 282.112 174.574 282.122C172.47 282.137 170.361 282.095 168.257 282.08C164.186 282.053 160.115 282.025 156.044 281.991C141.306 281.873 126.561 281.879 111.826 281.643L105.93 281.549C100.525 281.462 95.1188 281.362 89.7164 281.165C85.996 281.03 82.2758 280.892 78.5572 280.742L77.8002 280.713C74.5192 280.594 71.2344 280.532 67.9896 280.03C67.9083 280.016 67.8731 279.932 67.8857 279.858L67.8903 279.838L67.7488 279.806C67.6664 280.161 65.9551 278.669 65.9678 277.678C65.2579 276.754 65.5896 275.279 65.6657 274.209C65.7396 273.168 65.8326 272.123 65.915 271.081C66.0903 268.856 66.2403 266.628 66.4199 264.403C67.1446 255.429 67.7699 246.432 68.1756 237.439C68.3805 232.905 68.5453 228.37 68.7185 223.836C68.7965 221.772 68.9051 219.706 69.1075 217.652L69.1601 217.138C69.3819 215.055 69.3608 212.814 70.1277 210.851C70.1382 210.823 70.1741 210.823 70.1847 210.851C70.9601 212.761 71.034 214.983 71.1903 217.079C71.2178 217.071 71.2453 217.067 71.2748 217.06C72.346 216.551 73.4277 216.092 74.4417 215.463C74.5791 215.378 74.7122 215.289 74.8474 215.203C76.4425 210.32 78.291 205.519 79.9917 200.668C85.4868 184.984 88.5206 168.281 89.1925 151.673C85.0009 154.376 80.4359 156.479 75.9982 158.737L75.5826 158.95C71.2115 161.186 67.0263 163.724 63.9143 167.602C61.2016 170.98 59.4291 175.095 57.7706 179.062C55.9896 183.325 54.384 187.664 52.9157 192.043C49.9368 200.928 47.6298 210.031 45.8298 219.227C44.053 228.302 42.7833 237.445 41.934 246.652C41.5009 251.348 41.1058 256.048 40.7741 260.755C40.6051 263.137 40.4551 265.521 40.3157 267.907C40.2481 269.065 40.1974 270.226 40.1213 271.384C40.0748 272.052 40.0664 272.74 39.8467 273.374C39.6629 273.903 39.3375 274.345 39.0333 274.812C38.4777 275.664 37.0748 275.818 36.553 274.812L36.3271 274.376C36.028 273.796 35.7548 273.211 35.7143 272.542C35.6763 271.908 35.7544 271.246 35.7903 270.61C35.8601 269.323 35.9403 268.034 36.0206 266.747C36.1896 264.039 36.3777 261.332 36.5889 258.627C37.0094 253.208 37.5502 247.803 38.2305 242.41C40.6241 223.466 44.0805 204.622 50.6763 186.645C52.3072 182.2 54.1263 177.791 56.1798 173.524C58.1657 169.399 60.6777 165.504 64.3241 162.663C67.6808 160.048 71.5826 158.297 75.4594 156.598L75.9439 156.386C80.2896 154.486 84.627 152.44 89.165 151.028C89.0636 151.041 88.9643 151.054 88.8779 151.083C88.7784 151.115 88.7194 150.986 88.7807 150.916C89.0382 150.631 89.146 150.337 89.442 150.056C89.6463 149.862 89.8589 149.678 90.0776 149.501L90.3922 149.25C90.968 148.793 91.5733 148.326 92.2981 148.167C93.3229 147.942 93.8258 148.875 93.5382 149.604C93.6861 149.411 94.0833 149.468 94.1868 149.733C97.5587 158.432 99.7727 167.64 104.311 175.86C107.661 181.932 112.157 187.539 118.123 191.206C121.328 193.176 124.996 194.689 128.784 194.928C132.185 195.141 135.458 194.277 138.35 192.491C143.957 189.031 147.619 182.957 150.23 177.071C153.101 170.591 155.15 163.686 156.354 156.686C152.539 156.739 148.512 154.997 145.975 152.159C144.64 150.665 143.645 148.845 143.14 146.905C142.63 144.948 142.793 143.339 143.444 141.467ZM111.435 136.384C111.9 135.553 112.93 135.278 113.773 135.616C114.709 135.993 114.99 136.902 114.857 137.825C114.703 138.907 114.008 140.076 113.467 141.021C112.901 142.01 112.172 142.921 111.418 143.772C109.998 145.379 108.479 146.827 106.677 148.01C104.883 149.187 102.855 150.069 100.77 150.561L100.274 150.677C98.6523 151.048 96.3447 151.473 94.9937 150.591C94.9284 150.548 94.9303 150.462 94.9937 150.419C95.7246 149.91 96.703 149.819 97.5437 149.579C98.4606 149.314 99.3798 149.014 100.256 148.638C101.987 147.894 103.643 146.913 105.118 145.742C106.599 144.567 108.031 143.166 109.022 141.549C109.521 140.738 109.945 139.886 110.353 139.028C110.765 138.167 110.972 137.212 111.435 136.384Z" fill="black"/>
<path fill-rule="evenodd" clip-rule="evenodd" d="M177.03 143.921C174.619 132.601 173.073 121.135 171.689 109.655C171.019 104.094 170.485 98.5187 169.866 92.9539C169.287 87.7692 168.613 82.5679 167.261 77.5209C166.004 72.831 164.166 68.1876 161.457 64.1384C158.918 60.3423 155.726 57.0896 152.06 54.3738C144.818 49.0076 135.556 46.1522 126.548 47.0991C125.187 47.2428 123.839 47.4732 122.506 47.7818C122.93 47.6571 123.36 47.5406 123.792 47.4394C123.932 47.4058 123.87 47.2179 123.733 47.2303C87.0838 50.5614 78.4628 114.323 77.679 127.18C77.6178 128.18 77.5694 129.177 77.5335 130.177C77.2586 132.407 77.0537 134.643 76.9565 136.885C76.8468 139.472 76.8997 142.076 77.1382 144.654C77.3833 147.298 77.6621 150.008 78.7652 152.438C79.441 153.935 110.962 151.885 111.287 150.118C111.947 146.55 112.285 142.868 112.078 139.24C111.981 137.5 111.801 135.773 111.429 134.07C111.328 133.605 111.22 132.732 110.948 132.041C113.823 126.575 116.985 121.266 120.241 116.018C127.017 105.092 134.221 94.3676 139.758 82.7304C142.534 76.8995 145.27 70.7071 146.58 64.3178L146.791 64.3601C146.766 64.4362 146.783 64.5313 146.859 64.5841C152.878 68.7456 156.9 75.0523 159.507 81.8051C162.543 89.6672 164.016 98.1571 163.804 106.582C163.469 119.968 158.396 136.513 144.045 140.744C140.77 141.71 137.233 141.983 133.878 141.277C132.296 140.943 130.745 140.429 129.317 139.668C127.733 138.825 126.431 137.631 124.946 136.648C123.587 135.75 121.984 137.502 122.766 138.831C124.492 141.769 128.206 143.566 131.396 144.449C134.799 145.394 138.389 145.439 141.856 144.838C142.12 144.794 142.382 144.743 142.642 144.688C142.701 145.559 143.075 146.426 143.683 147.129C143.956 147.446 144.292 147.721 144.668 147.951C144.717 148.801 145.264 149.655 146.153 149.841C150.904 150.83 170.637 148.237 175.382 146.822C176.656 146.442 177.3 145.193 177.03 143.921Z" fill="black"/>
<path fill-rule="evenodd" clip-rule="evenodd" d="M164.636 103.1C164.28 86.4917 160.144 68.1055 145.965 57.8423C145.061 57.1878 143.706 57.5048 142.957 58.2523C142.343 58.3724 141.778 58.7448 141.403 59.4296C133.018 74.7387 124.192 89.8059 114.927 104.599C108.979 114.164 101.753 123.741 100.8 135.334C100.635 135.553 99.1033 137.283 99.9957 137.157C100.392 136.95 100.795 136.779 101.219 136.653C102.352 138.305 104.983 138.046 105.608 136.181C107.776 136.243 109.922 136.798 111.987 137.44C117.054 139.027 122.203 140.595 127.373 141.808C144.407 146.33 162.71 140.576 164.071 120.71C165.899 118.133 164.91 106.647 164.636 103.1Z" fill="white"/>
<path fill-rule="evenodd" clip-rule="evenodd" d="M153.517 120.838C151.746 119.897 149.667 120.056 147.888 120.897C145.713 121.925 144.031 123.612 142.542 125.468C141.97 126.18 141.435 126.923 140.901 127.666C140.681 127.971 140.461 128.277 140.238 128.58C140.195 128.636 140.147 128.698 140.097 128.762C139.741 129.22 139.255 129.853 139.069 130.427C138.994 130.658 138.967 130.881 139 131.083C139.016 131.182 139.046 131.276 139.092 131.364C138.809 131.438 138.619 131.368 138.488 131.227C138.28 131.004 138.208 130.668 138.205 130.283C138.194 128.904 139.103 126.893 139.474 126.064C139.513 125.979 139.545 125.906 139.571 125.847C140.914 122.774 143.061 119.781 146.047 118.124C148.94 116.519 152.363 116.216 155.356 117.733C158.662 119.409 159.564 122.728 159.939 126.139C159.996 126.662 159.76 127.144 159.396 127.507C158.986 127.918 158.41 128.184 157.871 128.184C157.312 128.184 156.8 127.947 156.425 127.572C156.048 127.194 155.809 126.676 155.805 126.114L155.801 125.787C155.784 124.648 155.704 123.578 155.291 122.672C154.959 121.943 154.415 121.315 153.517 120.838ZM149.116 105.541C150.711 106.511 153.142 108.774 151.426 111.179C149.406 113.299 146.497 110.868 145.064 109.768C143.735 108.916 142.242 111.108 143.475 112.103C153.832 119.774 158.035 105.795 149.923 104.401C149.03 104.247 148.698 105.241 149.116 105.541ZM135.687 105.86C135.257 106.07 134.781 106.156 134.313 106.058C133.895 105.971 133.486 105.736 133.124 105.323C132.626 104.754 132.265 103.948 132.506 103.178L132.576 102.98C132.657 102.749 132.767 102.533 132.901 102.338C132.987 101.918 133.004 101.643 133.021 101.383C133.025 101.316 133.029 101.25 133.034 101.185C133.059 100.819 133.113 100.437 133.236 100.085C133.259 100.019 133.284 99.9533 133.312 99.8885C133.243 99.8645 133.175 99.8403 133.106 99.8162C132.632 99.6491 132.16 99.4793 131.69 99.3017C130.354 98.7963 129.033 98.2266 127.754 97.5892C127.122 97.2742 126.506 96.9197 125.898 96.5611C125.607 96.3679 124.97 95.918 124.684 95.6758L124.468 95.492L124.354 95.7526C124.232 95.8756 124.134 95.8851 124.051 95.8575C123.962 95.8278 123.896 95.7577 123.855 95.6735C123.805 95.572 123.789 95.4486 123.816 95.3294C123.839 95.2221 123.898 95.1184 123.997 95.0368C124.374 94.726 124.905 94.8609 125.347 94.9476C125.41 94.9599 125.472 94.972 125.531 94.983C126.218 95.1085 126.903 95.258 127.586 95.4123L128.407 95.5995C128.72 95.6711 129.034 95.7429 129.347 95.8147C132.906 96.6307 136.459 97.4447 140.097 97.8024L140.48 97.8384C141.128 97.8963 141.705 98.1717 142.085 98.6103C142.435 99.0143 142.614 99.5562 142.529 100.185C142.446 100.8 142.1 101.312 141.624 101.629C141.151 101.944 140.548 102.067 139.947 101.905C138.818 101.602 137.692 101.284 136.57 100.946L136.833 101.569C137.058 102.112 137.266 102.674 137.291 103.249C137.314 103.788 137.155 104.311 136.881 104.758C136.59 105.233 136.167 105.625 135.687 105.86ZM161.061 92.8735C160.782 93.2537 160.462 93.5785 160.143 93.9039C159.454 94.6068 158.766 95.3096 158.028 95.9634C157.761 96.2005 157.491 96.4342 157.22 96.6679C157.12 96.7547 157.02 96.8414 156.92 96.9284L156.762 97.0652L156.897 97.2246C156.933 97.2674 156.967 97.3116 156.996 97.3584C157.401 98.022 157.626 98.7422 157.854 99.4645C158.01 99.9594 158.167 100.455 158.377 100.937L158.445 101.088C158.719 101.678 158.793 102.294 158.647 102.849C158.51 103.372 158.177 103.839 157.644 104.179C157.51 104.265 157.281 104.364 157.125 104.399C156.514 104.535 155.895 104.44 155.388 104.152C154.905 103.878 154.525 103.426 154.357 102.834C154.109 101.958 153.949 101.069 153.957 100.203C153.959 100.056 153.965 99.9085 153.976 99.7609C153.879 99.859 153.768 99.9454 153.642 100.017C153.25 100.238 152.807 100.26 152.391 100.147C151.92 100.019 151.481 99.7194 151.177 99.3279C150.909 98.9831 150.745 98.5656 150.767 98.1291C150.785 97.748 150.946 97.3557 151.289 96.9861L151.614 96.6556C151.855 96.4107 152.187 96.2223 152.541 96.1271C152.866 96.0398 153.21 96.0304 153.519 96.1358C153.936 96.0218 154.206 95.8874 154.457 95.7624C154.635 95.6733 154.804 95.5893 154.954 95.5238C155.685 95.2055 156.414 94.881 157.141 94.5508C157.77 94.2642 158.41 93.9997 159.05 93.7351C159.724 93.4563 160.398 93.1775 161.061 92.8735Z" fill="black"/>
<path fill-rule="evenodd" clip-rule="evenodd" d="M159.889 92.1487C164.848 92.1487 167.678 93.2155 168.715 93.2986L168.746 93.3008C169.177 93.3284 169.564 93.3645 169.97 93.5215C171.463 94.0967 171.706 95.6629 170.835 96.6499C170.774 98.6923 171.042 101.079 170.582 103.128C170.013 111.766 165.953 113.224 163.644 113.756C162.485 114.023 161.112 114.129 159.881 113.847C157.781 113.769 155.705 113.111 153.929 111.966C151.455 110.37 149.618 107.917 149.021 105.005C148.739 103.617 148.607 102.173 148.761 100.762L148.783 100.568C147.979 100.183 147.047 100.11 146.087 100.076C145.628 100.06 145.176 100.045 144.736 100.065C144.307 100.113 143.883 100.177 143.457 100.264C142.992 100.404 142.553 100.635 142.148 101.002L142.12 101.537C142.044 102.874 141.869 104.215 141.598 105.527C141.198 107.463 140.556 109.311 139.188 110.684C138.725 111.376 138.152 111.993 137.456 112.528C134.929 114.474 131.496 115.189 128.345 114.92C121.949 114.374 118.252 109.294 117.399 107.123L117.349 106.991C116.733 105.377 116.242 103.283 114.297 102.936L113.884 102.862C112.996 102.695 112.177 102.463 111.657 101.597C111.429 101.218 111.311 100.795 111.283 100.364C110.979 100.388 110.676 100.41 110.374 100.432C107.963 100.941 93.507 101.374 92.353 101.374C92.353 101.374 90.1349 102.308 89.1985 101.584C88.5494 101.081 88.3358 100.41 88.6931 99.6505C89.2323 98.5074 91.7196 97.8198 92.8241 97.6021C92.8241 97.6021 110.648 97.7502 111.931 97.5069C112.724 96.6881 114.144 96.8002 115.33 96.6707C116.312 95.9702 117.686 95.5009 118.772 95.1869C118.993 95.103 119.212 95.022 119.425 94.9456C121.414 94.2367 123.482 93.8613 125.582 93.6597C127.747 93.4538 129.918 93.547 132.071 93.842C132.978 93.9651 133.876 94.1243 134.769 94.3324C136.366 94.5431 137.955 94.8902 139.553 95.3019L139.873 95.3851C141.556 95.8265 143.285 96.2083 145.027 95.909C146.446 95.667 147.81 95.121 149.118 94.5305L149.288 94.4532C152.163 93.1398 156.654 92.1487 159.889 92.1487ZM134.596 96.9511C133.535 96.7176 133.082 98.3541 134.146 98.5881C134.9 98.7539 135.538 99.1341 135.97 99.7783L136.015 99.8483C136.595 100.77 138.059 99.9192 137.476 98.9914C136.82 97.9472 135.8 97.2159 134.596 96.9511ZM165.67 95.9364C165.296 95.6728 164.73 95.8685 164.513 96.241C164.274 96.6511 164.431 97.1077 164.781 97.376L164.817 97.4022C165.138 97.6288 165.451 98.0349 165.49 98.451L165.494 98.503C165.536 99.592 167.228 99.5975 167.185 98.503C167.144 97.4324 166.524 96.5379 165.67 95.9364Z" fill="black"/>
</svg>
